G75*
%MOIN*%
%OFA0B0*%
%FSLAX24Y24*%
%IPPOS*%
%LPD*%
%AMOC8*
5,1,8,0,0,1.08239X$1,22.5*
%
%ADD10R,0.1575X0.1575*%
%ADD11C,0.0110*%
%ADD12R,0.0512X0.0512*%
%ADD13C,0.0077*%
%ADD14R,0.0394X0.0433*%
%ADD15R,0.0433X0.0394*%
%ADD16R,0.0354X0.0276*%
%ADD17R,0.0276X0.0354*%
%ADD18R,0.0512X0.0591*%
%ADD19R,0.0866X0.0335*%
%ADD20R,0.0413X0.0394*%
%ADD21C,0.0600*%
%ADD22R,0.0354X0.0138*%
%ADD23R,0.0551X0.0394*%
%ADD24C,0.0600*%
%ADD25OC8,0.0600*%
%ADD26R,0.0138X0.0472*%
%ADD27R,0.0591X0.0787*%
%ADD28R,0.1496X0.0787*%
%ADD29R,0.0591X0.0512*%
%ADD30R,0.0748X0.0315*%
%ADD31R,0.0315X0.0748*%
%ADD32R,0.0472X0.0472*%
%ADD33R,0.0157X0.0276*%
%ADD34C,0.0500*%
%ADD35C,0.0100*%
%ADD36C,0.0160*%
%ADD37C,0.0240*%
%ADD38C,0.0120*%
%ADD39C,0.0475*%
%ADD40C,0.0317*%
%ADD41C,0.0320*%
%ADD42C,0.0400*%
%ADD43C,0.0396*%
%ADD44C,0.0560*%
D10*
X008425Y-000875D03*
D11*
X008327Y-001910D02*
X008327Y-002194D01*
X008523Y-002194D02*
X008523Y-001910D01*
X008720Y-001910D02*
X008720Y-002194D01*
X008917Y-002194D02*
X008917Y-001910D01*
X009114Y-001910D02*
X009114Y-002194D01*
X009311Y-002194D02*
X009311Y-001910D01*
X009460Y-001761D02*
X009744Y-001761D01*
X009744Y-001564D02*
X009460Y-001564D01*
X009460Y-001367D02*
X009744Y-001367D01*
X009744Y-001170D02*
X009460Y-001170D01*
X009460Y-000973D02*
X009744Y-000973D01*
X009744Y-000777D02*
X009460Y-000777D01*
X009460Y-000580D02*
X009744Y-000580D01*
X009744Y-000383D02*
X009460Y-000383D01*
X009460Y-000186D02*
X009744Y-000186D01*
X009744Y000011D02*
X009460Y000011D01*
X009311Y000160D02*
X009311Y000444D01*
X009114Y000444D02*
X009114Y000160D01*
X008917Y000160D02*
X008917Y000444D01*
X008720Y000444D02*
X008720Y000160D01*
X008523Y000160D02*
X008523Y000444D01*
X008327Y000444D02*
X008327Y000160D01*
X008130Y000160D02*
X008130Y000444D01*
X007933Y000444D02*
X007933Y000160D01*
X007736Y000160D02*
X007736Y000444D01*
X007539Y000444D02*
X007539Y000160D01*
X007390Y000011D02*
X007106Y000011D01*
X007106Y-000186D02*
X007390Y-000186D01*
X007390Y-000383D02*
X007106Y-000383D01*
X007106Y-000580D02*
X007390Y-000580D01*
X007390Y-000777D02*
X007106Y-000777D01*
X007106Y-000973D02*
X007390Y-000973D01*
X007390Y-001170D02*
X007106Y-001170D01*
X007106Y-001367D02*
X007390Y-001367D01*
X007390Y-001564D02*
X007106Y-001564D01*
X007106Y-001761D02*
X007390Y-001761D01*
X007539Y-001910D02*
X007539Y-002194D01*
X007736Y-002194D02*
X007736Y-001910D01*
X007933Y-001910D02*
X007933Y-002194D01*
X008130Y-002194D02*
X008130Y-001910D01*
D12*
X007778Y001521D03*
X007778Y002229D03*
X008722Y002229D03*
X008722Y001521D03*
D13*
X009403Y001733D02*
X009403Y001913D01*
X009403Y001733D02*
X009223Y001733D01*
X009223Y001913D01*
X009403Y001913D01*
X009403Y001809D02*
X009223Y001809D01*
X009223Y001885D02*
X009403Y001885D01*
X009403Y002087D02*
X009403Y002267D01*
X009403Y002087D02*
X009223Y002087D01*
X009223Y002267D01*
X009403Y002267D01*
X009403Y002163D02*
X009223Y002163D01*
X009223Y002239D02*
X009403Y002239D01*
X010590Y001517D02*
X010590Y001337D01*
X010410Y001337D01*
X010410Y001517D01*
X010590Y001517D01*
X010590Y001413D02*
X010410Y001413D01*
X010410Y001489D02*
X010590Y001489D01*
X010590Y001163D02*
X010590Y000983D01*
X010410Y000983D01*
X010410Y001163D01*
X010590Y001163D01*
X010590Y001059D02*
X010410Y001059D01*
X010410Y001135D02*
X010590Y001135D01*
X010858Y001035D02*
X011038Y001035D01*
X010858Y001035D02*
X010858Y001215D01*
X011038Y001215D01*
X011038Y001035D01*
X011038Y001111D02*
X010858Y001111D01*
X010858Y001187D02*
X011038Y001187D01*
X011212Y001035D02*
X011392Y001035D01*
X011212Y001035D02*
X011212Y001215D01*
X011392Y001215D01*
X011392Y001035D01*
X011392Y001111D02*
X011212Y001111D01*
X011212Y001187D02*
X011392Y001187D01*
X012215Y001267D02*
X012215Y001087D01*
X012035Y001087D01*
X012035Y001267D01*
X012215Y001267D01*
X012215Y001163D02*
X012035Y001163D01*
X012035Y001239D02*
X012215Y001239D01*
X012215Y000913D02*
X012215Y000733D01*
X012035Y000733D01*
X012035Y000913D01*
X012215Y000913D01*
X012215Y000809D02*
X012035Y000809D01*
X012035Y000885D02*
X012215Y000885D01*
X014358Y-000285D02*
X014538Y-000285D01*
X014538Y-000465D01*
X014358Y-000465D01*
X014358Y-000285D01*
X014358Y-000389D02*
X014538Y-000389D01*
X014538Y-000313D02*
X014358Y-000313D01*
X014712Y-000285D02*
X014892Y-000285D01*
X014892Y-000465D01*
X014712Y-000465D01*
X014712Y-000285D01*
X014712Y-000389D02*
X014892Y-000389D01*
X014892Y-000313D02*
X014712Y-000313D01*
X014712Y-001535D02*
X014892Y-001535D01*
X014892Y-001715D01*
X014712Y-001715D01*
X014712Y-001535D01*
X014712Y-001639D02*
X014892Y-001639D01*
X014892Y-001563D02*
X014712Y-001563D01*
X014538Y-001535D02*
X014358Y-001535D01*
X014538Y-001535D02*
X014538Y-001715D01*
X014358Y-001715D01*
X014358Y-001535D01*
X014358Y-001639D02*
X014538Y-001639D01*
X014538Y-001563D02*
X014358Y-001563D01*
X015295Y006285D02*
X015475Y006285D01*
X015295Y006285D02*
X015295Y006465D01*
X015475Y006465D01*
X015475Y006285D01*
X015475Y006361D02*
X015295Y006361D01*
X015295Y006437D02*
X015475Y006437D01*
X015650Y006285D02*
X015830Y006285D01*
X015650Y006285D02*
X015650Y006465D01*
X015830Y006465D01*
X015830Y006285D01*
X015830Y006361D02*
X015650Y006361D01*
X015650Y006437D02*
X015830Y006437D01*
X016733Y006285D02*
X016913Y006285D01*
X016733Y006285D02*
X016733Y006465D01*
X016913Y006465D01*
X016913Y006285D01*
X016913Y006361D02*
X016733Y006361D01*
X016733Y006437D02*
X016913Y006437D01*
X017087Y006285D02*
X017267Y006285D01*
X017087Y006285D02*
X017087Y006465D01*
X017267Y006465D01*
X017267Y006285D01*
X017267Y006361D02*
X017087Y006361D01*
X017087Y006437D02*
X017267Y006437D01*
X017267Y007160D02*
X017087Y007160D01*
X017087Y007340D01*
X017267Y007340D01*
X017267Y007160D01*
X017267Y007236D02*
X017087Y007236D01*
X017087Y007312D02*
X017267Y007312D01*
X017267Y007660D02*
X017087Y007660D01*
X017087Y007840D01*
X017267Y007840D01*
X017267Y007660D01*
X017267Y007736D02*
X017087Y007736D01*
X017087Y007812D02*
X017267Y007812D01*
X016913Y007660D02*
X016733Y007660D01*
X016733Y007840D01*
X016913Y007840D01*
X016913Y007660D01*
X016913Y007736D02*
X016733Y007736D01*
X016733Y007812D02*
X016913Y007812D01*
X016913Y007160D02*
X016733Y007160D01*
X016733Y007340D01*
X016913Y007340D01*
X016913Y007160D01*
X016913Y007236D02*
X016733Y007236D01*
X016733Y007312D02*
X016913Y007312D01*
X012472Y012115D02*
X012292Y012115D01*
X012292Y012295D01*
X012472Y012295D01*
X012472Y012115D01*
X012472Y012191D02*
X012292Y012191D01*
X012292Y012267D02*
X012472Y012267D01*
X012118Y012115D02*
X011938Y012115D01*
X011938Y012295D01*
X012118Y012295D01*
X012118Y012115D01*
X012118Y012191D02*
X011938Y012191D01*
X011938Y012267D02*
X012118Y012267D01*
X012118Y012902D02*
X011938Y012902D01*
X011938Y013082D01*
X012118Y013082D01*
X012118Y012902D01*
X012118Y012978D02*
X011938Y012978D01*
X011938Y013054D02*
X012118Y013054D01*
X012292Y012902D02*
X012472Y012902D01*
X012292Y012902D02*
X012292Y013082D01*
X012472Y013082D01*
X012472Y012902D01*
X012472Y012978D02*
X012292Y012978D01*
X012292Y013054D02*
X012472Y013054D01*
X012472Y013690D02*
X012292Y013690D01*
X012292Y013870D01*
X012472Y013870D01*
X012472Y013690D01*
X012472Y013766D02*
X012292Y013766D01*
X012292Y013842D02*
X012472Y013842D01*
X012118Y013690D02*
X011938Y013690D01*
X011938Y013870D01*
X012118Y013870D01*
X012118Y013690D01*
X012118Y013766D02*
X011938Y013766D01*
X011938Y013842D02*
X012118Y013842D01*
X011265Y010460D02*
X011265Y010280D01*
X011265Y010460D02*
X011445Y010460D01*
X011445Y010280D01*
X011265Y010280D01*
X011265Y010356D02*
X011445Y010356D01*
X011445Y010432D02*
X011265Y010432D01*
X011265Y010105D02*
X011265Y009925D01*
X011265Y010105D02*
X011445Y010105D01*
X011445Y009925D01*
X011265Y009925D01*
X011265Y010001D02*
X011445Y010001D01*
X011445Y010077D02*
X011265Y010077D01*
X006973Y001892D02*
X006973Y001712D01*
X006973Y001892D02*
X007153Y001892D01*
X007153Y001712D01*
X006973Y001712D01*
X006973Y001788D02*
X007153Y001788D01*
X007153Y001864D02*
X006973Y001864D01*
X006973Y001538D02*
X006973Y001358D01*
X006973Y001538D02*
X007153Y001538D01*
X007153Y001358D01*
X006973Y001358D01*
X006973Y001434D02*
X007153Y001434D01*
X007153Y001510D02*
X006973Y001510D01*
X006517Y001035D02*
X006337Y001035D01*
X006337Y001215D01*
X006517Y001215D01*
X006517Y001035D01*
X006517Y001111D02*
X006337Y001111D01*
X006337Y001187D02*
X006517Y001187D01*
X006163Y001035D02*
X005983Y001035D01*
X005983Y001215D01*
X006163Y001215D01*
X006163Y001035D01*
X006163Y001111D02*
X005983Y001111D01*
X005983Y001187D02*
X006163Y001187D01*
X006163Y000535D02*
X005983Y000535D01*
X005983Y000715D01*
X006163Y000715D01*
X006163Y000535D01*
X006163Y000611D02*
X005983Y000611D01*
X005983Y000687D02*
X006163Y000687D01*
X006337Y000535D02*
X006517Y000535D01*
X006337Y000535D02*
X006337Y000715D01*
X006517Y000715D01*
X006517Y000535D01*
X006517Y000611D02*
X006337Y000611D01*
X006337Y000687D02*
X006517Y000687D01*
X004910Y000017D02*
X004910Y-000163D01*
X004910Y000017D02*
X005090Y000017D01*
X005090Y-000163D01*
X004910Y-000163D01*
X004910Y-000087D02*
X005090Y-000087D01*
X005090Y-000011D02*
X004910Y-000011D01*
X004910Y-000337D02*
X004910Y-000517D01*
X004910Y-000337D02*
X005090Y-000337D01*
X005090Y-000517D01*
X004910Y-000517D01*
X004910Y-000441D02*
X005090Y-000441D01*
X005090Y-000365D02*
X004910Y-000365D01*
X006833Y-002810D02*
X007013Y-002810D01*
X007013Y-002990D01*
X006833Y-002990D01*
X006833Y-002810D01*
X006833Y-002914D02*
X007013Y-002914D01*
X007013Y-002838D02*
X006833Y-002838D01*
X007187Y-002810D02*
X007367Y-002810D01*
X007367Y-002990D01*
X007187Y-002990D01*
X007187Y-002810D01*
X007187Y-002914D02*
X007367Y-002914D01*
X007367Y-002838D02*
X007187Y-002838D01*
X005059Y006715D02*
X005059Y006895D01*
X005239Y006895D01*
X005239Y006715D01*
X005059Y006715D01*
X005059Y006791D02*
X005239Y006791D01*
X005239Y006867D02*
X005059Y006867D01*
X005059Y007069D02*
X005059Y007249D01*
X005239Y007249D01*
X005239Y007069D01*
X005059Y007069D01*
X005059Y007145D02*
X005239Y007145D01*
X005239Y007221D02*
X005059Y007221D01*
X000559Y-002776D02*
X000559Y-002956D01*
X000379Y-002956D01*
X000379Y-002776D01*
X000559Y-002776D01*
X000559Y-002880D02*
X000379Y-002880D01*
X000379Y-002804D02*
X000559Y-002804D01*
X000559Y-003130D02*
X000559Y-003310D01*
X000379Y-003310D01*
X000379Y-003130D01*
X000559Y-003130D01*
X000559Y-003234D02*
X000379Y-003234D01*
X000379Y-003158D02*
X000559Y-003158D01*
X011123Y-012920D02*
X011123Y-013100D01*
X011123Y-012920D02*
X011303Y-012920D01*
X011303Y-013100D01*
X011123Y-013100D01*
X011123Y-013024D02*
X011303Y-013024D01*
X011303Y-012948D02*
X011123Y-012948D01*
X011123Y-013275D02*
X011123Y-013455D01*
X011123Y-013275D02*
X011303Y-013275D01*
X011303Y-013455D01*
X011123Y-013455D01*
X011123Y-013379D02*
X011303Y-013379D01*
X011303Y-013303D02*
X011123Y-013303D01*
X014177Y-013230D02*
X014177Y-013050D01*
X014177Y-013230D02*
X013997Y-013230D01*
X013997Y-013050D01*
X014177Y-013050D01*
X014177Y-013154D02*
X013997Y-013154D01*
X013997Y-013078D02*
X014177Y-013078D01*
X014177Y-012875D02*
X014177Y-012695D01*
X014177Y-012875D02*
X013997Y-012875D01*
X013997Y-012695D01*
X014177Y-012695D01*
X014177Y-012799D02*
X013997Y-012799D01*
X013997Y-012723D02*
X014177Y-012723D01*
D14*
X012000Y-003772D03*
X012000Y-003103D03*
X011250Y-002915D03*
X011250Y-003585D03*
X008250Y-003460D03*
X008250Y-002790D03*
X010625Y002040D03*
X010625Y002710D03*
D15*
X011665Y002125D03*
X012335Y002125D03*
X009522Y-004125D03*
X008853Y-004125D03*
D16*
X009500Y-003381D03*
X010000Y-003381D03*
X010000Y-002869D03*
X009500Y-002869D03*
X010500Y-002994D03*
X010500Y-003506D03*
X012250Y-002131D03*
X012250Y-001619D03*
X012250Y-000381D03*
X012250Y000131D03*
X014000Y000131D03*
X014000Y-000381D03*
X014000Y-001619D03*
X014000Y-002131D03*
X011963Y-005832D03*
X011963Y-006343D03*
X015375Y004244D03*
X015375Y004756D03*
D17*
X013381Y-000375D03*
X012869Y-000375D03*
X012869Y-001625D03*
X013381Y-001625D03*
X011381Y000000D03*
X011131Y000625D03*
X010869Y000000D03*
X010619Y000625D03*
X014744Y-005438D03*
X015256Y-005438D03*
X015807Y-006313D03*
X016318Y-006313D03*
X015506Y-009750D03*
X014994Y-009750D03*
X006081Y-000325D03*
X005569Y-000325D03*
D18*
X010876Y-000750D03*
X010876Y-001625D03*
X011624Y-001625D03*
X011624Y-000750D03*
X003124Y-008500D03*
X002376Y-008500D03*
D19*
X016125Y-001416D03*
X016125Y-000334D03*
D20*
X015525Y-000875D03*
D21*
X-000200Y000000D02*
X-000800Y000000D01*
X-000800Y001000D02*
X-000200Y001000D01*
X-000200Y002000D02*
X-000800Y002000D01*
X-000800Y003000D02*
X-000200Y003000D01*
X-000200Y004000D02*
X-000800Y004000D01*
X-000800Y005000D02*
X-000200Y005000D01*
X-000200Y-001000D02*
X-000800Y-001000D01*
X-000800Y-002000D02*
X-000200Y-002000D01*
X-000200Y-004000D02*
X-000800Y-004000D01*
X-000800Y-005000D02*
X-000200Y-005000D01*
X-000200Y-006000D02*
X-000800Y-006000D01*
X-000800Y-007000D02*
X-000200Y-007000D01*
X-000200Y-008000D02*
X-000800Y-008000D01*
X-000800Y-009000D02*
X-000200Y-009000D01*
X-000200Y-011000D02*
X-000800Y-011000D01*
X-000800Y-012000D02*
X-000200Y-012000D01*
X-000200Y-013000D02*
X-000800Y-013000D01*
X-000800Y-014000D02*
X-000200Y-014000D01*
X-000200Y-015000D02*
X-000800Y-015000D01*
X-000800Y-016000D02*
X-000200Y-016000D01*
X004500Y-016675D02*
X004500Y-017275D01*
X005500Y-017275D02*
X005500Y-016675D01*
X006500Y-016675D02*
X006500Y-017275D01*
X007500Y-017275D02*
X007500Y-016675D01*
X008500Y-016675D02*
X008500Y-017275D01*
X009500Y-017275D02*
X009500Y-016675D01*
X010500Y-016675D02*
X010500Y-017275D01*
X011500Y-017275D02*
X011500Y-016675D01*
X018200Y-009000D02*
X018800Y-009000D01*
X018800Y-008000D02*
X018200Y-008000D01*
X018200Y-007000D02*
X018800Y-007000D01*
X018800Y-006000D02*
X018200Y-006000D01*
X018200Y-005000D02*
X018800Y-005000D01*
X018800Y-004000D02*
X018200Y-004000D01*
X018200Y-003000D02*
X018800Y-003000D01*
X018800Y-002000D02*
X018200Y-002000D01*
X018200Y-000400D02*
X018800Y-000400D01*
X018800Y000600D02*
X018200Y000600D01*
X018200Y001600D02*
X018800Y001600D01*
X018800Y002600D02*
X018200Y002600D01*
X018200Y003600D02*
X018800Y003600D01*
X018800Y004600D02*
X018200Y004600D01*
X018200Y005600D02*
X018800Y005600D01*
X018800Y006600D02*
X018200Y006600D01*
X018200Y007600D02*
X018800Y007600D01*
X018800Y008600D02*
X018200Y008600D01*
X009500Y003994D02*
X009500Y003394D01*
X008500Y003394D02*
X008500Y003994D01*
X007500Y003994D02*
X007500Y003394D01*
X006500Y003394D02*
X006500Y003994D01*
D22*
X008723Y-006045D03*
X008723Y-006301D03*
X008723Y-006557D03*
X008723Y-006813D03*
X008723Y-007068D03*
X008723Y-007324D03*
X008723Y-007580D03*
X011027Y-007580D03*
X011027Y-007324D03*
X011027Y-007068D03*
X011027Y-006813D03*
X011027Y-006557D03*
X011027Y-006301D03*
X011027Y-006045D03*
X013911Y-007670D03*
X013911Y-007926D03*
X013911Y-008182D03*
X013911Y-008438D03*
X013911Y-008693D03*
X013911Y-008949D03*
X013911Y-009205D03*
X016214Y-009205D03*
X016214Y-008949D03*
X016214Y-008693D03*
X016214Y-008438D03*
X016214Y-008182D03*
X016214Y-007926D03*
X016214Y-007670D03*
X016277Y-004893D03*
X016277Y-004637D03*
X016277Y-004381D03*
X016277Y-004125D03*
X016277Y-003869D03*
X016277Y-003613D03*
X016277Y-003357D03*
X013973Y-003357D03*
X013973Y-003613D03*
X013973Y-003869D03*
X013973Y-004125D03*
X013973Y-004381D03*
X013973Y-004637D03*
X013973Y-004893D03*
D23*
X012721Y-012526D03*
X012721Y-013274D03*
X011854Y-012900D03*
D24*
X010500Y-009050D03*
D25*
X010500Y-010050D03*
X009500Y-010050D03*
X009500Y-009050D03*
X008500Y-009050D03*
X008500Y-010050D03*
D26*
X016116Y003223D03*
X016372Y003223D03*
X016628Y003223D03*
X016884Y003223D03*
X016884Y005527D03*
X016628Y005527D03*
X016372Y005527D03*
X016116Y005527D03*
D27*
X003156Y-009510D03*
X002250Y-009510D03*
X001344Y-009510D03*
D28*
X002250Y-011990D03*
D29*
X004375Y-011124D03*
X004375Y-010376D03*
D30*
X010181Y008874D03*
X010181Y010075D03*
X010181Y010475D03*
X010181Y010875D03*
X010181Y011275D03*
X010181Y011675D03*
X010181Y012075D03*
X010181Y012475D03*
X010181Y012875D03*
D31*
X009130Y013921D03*
X008730Y013921D03*
X008330Y013921D03*
X007930Y013921D03*
X006330Y013921D03*
X005530Y013921D03*
X005130Y013921D03*
X004730Y013921D03*
X004330Y013921D03*
X005132Y008126D03*
X005532Y008126D03*
X005932Y008126D03*
X006332Y008126D03*
X006732Y008126D03*
X007132Y008126D03*
X007532Y008126D03*
X007932Y008126D03*
X008332Y008126D03*
X008732Y008126D03*
D32*
X013366Y012205D03*
X013366Y012992D03*
X013366Y013780D03*
X014193Y013780D03*
X014193Y012992D03*
X014193Y012205D03*
D33*
X016869Y-005603D03*
X017125Y-005603D03*
X017381Y-005603D03*
X017381Y-006272D03*
X016869Y-006272D03*
D34*
X009250Y006188D02*
X011344Y008281D01*
X012063Y009000D01*
X012063Y010688D01*
X011875Y010875D01*
X011375Y010875D01*
X011063Y010875D01*
X006500Y006188D02*
X006500Y006187D01*
X006500Y006188D02*
X005250Y006188D01*
X005188Y006188D01*
X003875Y004875D01*
X003875Y003313D01*
X002250Y001687D01*
X002250Y000500D01*
X002250Y-003500D01*
X002250Y-006312D01*
X005250Y-009312D01*
X005250Y-010875D01*
X004875Y-011250D01*
X004501Y-011250D01*
X004375Y-011124D01*
X004375Y-011375D01*
X003750Y-012000D01*
X002500Y-012000D01*
X002500Y-012750D01*
X001875Y-012750D01*
X002500Y-012125D01*
X002625Y-012125D01*
X002500Y-012000D02*
X002260Y-012000D01*
X001875Y-012385D01*
X001875Y-012750D01*
X002260Y-012000D02*
X002250Y-011990D01*
X003156Y-009510D02*
X003165Y-009500D01*
X004000Y-009500D01*
X004375Y-009875D01*
X004375Y-010376D01*
X003156Y-009510D02*
X003156Y-008531D01*
X003124Y-008500D01*
D35*
X004000Y-006500D02*
X005625Y-008125D01*
X007375Y-008125D01*
X012875Y-008125D01*
X013187Y-008438D01*
X013911Y-008438D01*
X013917Y-008688D02*
X014437Y-008688D01*
X014875Y-008250D01*
X014875Y-007813D01*
X015375Y-007313D01*
X015812Y-007313D01*
X016313Y-007313D01*
X016214Y-007652D02*
X016214Y-007670D01*
X016643Y-007670D01*
X016688Y-007625D01*
X016476Y-007938D02*
X017188Y-007938D01*
X017625Y-008375D01*
X017625Y-009375D01*
X017875Y-009625D01*
X017875Y-010750D01*
X014875Y-013750D01*
X012875Y-013750D01*
X012250Y-014375D01*
X012250Y-017500D01*
X011875Y-017875D01*
X010938Y-017875D01*
X010500Y-017437D01*
X010500Y-016975D01*
X010500Y-013875D01*
X010250Y-013625D01*
X009625Y-013625D01*
X009500Y-013750D01*
X008125Y-013750D01*
X008500Y-014125D02*
X008500Y-016975D01*
X007500Y-016975D02*
X007500Y-016375D01*
X007375Y-016250D01*
X007375Y-013750D01*
X007375Y-013000D02*
X010375Y-013000D01*
X010000Y-014000D02*
X009500Y-014500D01*
X009500Y-016975D01*
X006500Y-013875D02*
X007375Y-013000D01*
X006875Y-012125D02*
X006375Y-012125D01*
X004750Y-013750D01*
X000625Y-013750D01*
X000375Y-014000D01*
X-000500Y-014000D01*
X-000500Y-013000D02*
X000125Y-013000D01*
X000625Y-013500D01*
X003875Y-013500D01*
X005625Y-011750D01*
X010750Y-011750D01*
X015125Y-011750D01*
X017375Y-009500D01*
X017375Y-008625D01*
X016938Y-008188D01*
X016407Y-008188D01*
X016214Y-008182D01*
X016214Y-008438D02*
X015812Y-008438D01*
X015687Y-008313D01*
X015687Y-007813D01*
X015830Y-007670D01*
X016214Y-007670D01*
X016214Y-007926D02*
X016476Y-007938D01*
X016458Y-008688D02*
X016214Y-008693D01*
X016458Y-008688D02*
X016938Y-008688D01*
X017125Y-008875D01*
X017125Y-009375D01*
X015125Y-011375D01*
X010000Y-011375D01*
X009750Y-010750D02*
X010000Y-010500D01*
X010000Y-009500D01*
X010450Y-009050D01*
X010500Y-009050D01*
X011125Y-008500D02*
X009750Y-008500D01*
X009500Y-008750D01*
X009500Y-009050D01*
X009000Y-009500D02*
X009000Y-008500D01*
X009188Y-008313D01*
X011563Y-008313D01*
X012125Y-008875D01*
X012500Y-008875D01*
X012750Y-009125D01*
X012750Y-009687D01*
X013375Y-010250D01*
X015875Y-010250D01*
X016750Y-009375D01*
X016750Y-009000D01*
X016699Y-008949D01*
X016214Y-008949D01*
X016413Y-008938D01*
X016458Y-008688D02*
X015562Y-008688D01*
X015375Y-008500D01*
X015375Y-007813D01*
X015375Y-007000D02*
X014438Y-007938D01*
X013923Y-007938D01*
X013911Y-007926D01*
X013911Y-008182D02*
X013432Y-008182D01*
X013312Y-008063D01*
X013732Y-007670D02*
X013437Y-007375D01*
X013437Y-006500D01*
X012375Y-005438D01*
X006438Y-005438D01*
X006375Y-005500D01*
X005875Y-005500D01*
X005625Y-005250D01*
X005625Y-001188D01*
X005813Y-001000D01*
X006062Y-001000D01*
X006233Y-001170D01*
X007248Y-001170D01*
X007248Y-001367D02*
X007240Y-001375D01*
X005937Y-001375D01*
X006249Y-001564D02*
X006000Y-001813D01*
X006000Y-001813D01*
X006000Y-001813D01*
X006249Y-001564D02*
X007248Y-001564D01*
X007248Y-001761D02*
X006677Y-001761D01*
X006313Y-002125D01*
X006750Y-002875D02*
X006885Y-002875D01*
X006923Y-002900D01*
X006938Y-002823D01*
X006938Y-002750D01*
X007188Y-002500D01*
X007500Y-002500D01*
X007688Y-002688D01*
X008250Y-002790D02*
X008375Y-002750D01*
X008875Y-002750D02*
X008917Y-002667D01*
X008917Y-002052D01*
X009000Y-001500D02*
X009133Y-001367D01*
X009602Y-001367D01*
X009602Y-001170D02*
X009795Y-001170D01*
X010125Y-001500D01*
X010625Y-001500D01*
X010750Y-001625D01*
X010876Y-001625D01*
X010876Y-000750D02*
X010000Y-000750D01*
X009973Y-000777D01*
X009602Y-000777D01*
X009602Y-000973D02*
X009629Y-001000D01*
X010000Y-001000D01*
X010125Y-001125D02*
X010250Y-001125D01*
X009602Y-001761D02*
X009841Y-002000D01*
X009875Y-002125D01*
X009500Y-002869D02*
X009494Y-002875D01*
X010500Y-002994D02*
X010579Y-002915D01*
X011250Y-002915D02*
X011335Y-003000D01*
X012250Y-002500D02*
X012244Y-002375D01*
X012250Y-002131D01*
X012244Y-001625D02*
X011624Y-001625D01*
X012244Y-001625D02*
X012250Y-001619D01*
X012256Y-001625D01*
X012869Y-001625D01*
X013381Y-001625D02*
X013387Y-001619D01*
X014000Y-001619D01*
X014006Y-001625D01*
X014448Y-001625D01*
X014802Y-001625D02*
X015063Y-001375D01*
X016041Y-001375D01*
X016125Y-001416D01*
X016584Y-001416D01*
X016750Y-001250D01*
X016750Y-000438D01*
X016625Y-000313D01*
X016146Y-000313D01*
X016125Y-000334D01*
X015525Y-000875D02*
X015302Y-000875D01*
X014802Y-000375D01*
X014448Y-000375D02*
X014006Y-000375D01*
X014000Y-000381D01*
X013387Y-000381D01*
X013381Y-000375D01*
X012869Y-000375D02*
X012869Y000381D01*
X012500Y000750D01*
X012198Y000750D01*
X012125Y000823D01*
X012125Y001177D02*
X011354Y001177D01*
X011302Y001125D01*
X010948Y001125D02*
X010646Y001427D01*
X010500Y001427D01*
X010448Y001375D01*
X010250Y001375D01*
X010188Y001313D01*
X010188Y000813D01*
X009875Y000500D01*
X009875Y000125D01*
X009761Y000011D01*
X009602Y000011D01*
X009602Y-000186D02*
X009939Y-000186D01*
X010125Y000000D01*
X010125Y000375D01*
X010375Y000625D01*
X010619Y000625D01*
X010500Y000744D01*
X010500Y001073D01*
X010875Y001625D02*
X010585Y002000D01*
X010625Y002040D01*
X010875Y001625D02*
X011000Y001625D01*
X011125Y001500D01*
X011131Y000625D02*
X011625Y000625D01*
X011750Y000500D01*
X011750Y000375D01*
X011750Y000369D01*
X011381Y000000D01*
X011750Y000375D02*
X011881Y000375D01*
X012250Y000131D01*
X012250Y-000381D02*
X011868Y-000381D01*
X011624Y-000750D01*
X012250Y-000381D02*
X012738Y-000381D01*
X012869Y-000375D01*
X014000Y000131D02*
X014000Y000688D01*
X015750Y002625D02*
X015375Y003000D01*
X015375Y004244D01*
X015375Y004756D02*
X015375Y004875D01*
X015500Y004750D01*
X015375Y004875D02*
X015375Y005250D01*
X015625Y005500D01*
X016090Y005500D01*
X016116Y005527D01*
X016625Y005530D02*
X016625Y005875D01*
X016250Y006250D01*
X016250Y006375D01*
X016250Y007375D01*
X016625Y007750D01*
X016823Y007750D01*
X017177Y007750D02*
X017375Y007750D01*
X017625Y008000D01*
X017625Y008125D01*
X018100Y008600D01*
X018500Y008600D01*
X018500Y007600D02*
X018100Y007600D01*
X017625Y007125D01*
X017625Y006625D01*
X017375Y006375D01*
X017177Y006375D01*
X016823Y006375D02*
X016823Y006573D01*
X017125Y006875D01*
X017125Y007073D01*
X017177Y007250D01*
X016823Y007250D02*
X016625Y006875D01*
X016823Y006375D02*
X016750Y006323D01*
X016750Y006125D01*
X016884Y005991D01*
X016884Y005527D01*
X016628Y005527D02*
X016625Y005530D01*
X016628Y003223D02*
X016625Y003220D01*
X016625Y002625D01*
X016750Y002625D01*
X016875Y002750D01*
X016875Y003215D01*
X016884Y003223D01*
X016375Y003220D02*
X016375Y002625D01*
X016625Y002625D01*
X016375Y002625D02*
X016125Y002625D01*
X016125Y003215D01*
X016116Y003223D01*
X016372Y003223D02*
X016375Y003220D01*
X016125Y002625D02*
X015750Y002625D01*
X017438Y001063D02*
X017438Y-001500D01*
X016938Y-002000D01*
X016938Y-002250D01*
X016750Y-002438D01*
X015812Y-002438D01*
X015250Y-003000D01*
X013500Y-003000D01*
X013063Y-003438D01*
X012938Y-003438D01*
X012688Y-003688D01*
X012688Y-004000D01*
X013063Y-004375D01*
X013968Y-004375D01*
X013973Y-004381D01*
X013985Y-004625D02*
X014375Y-004625D01*
X014625Y-004375D01*
X014625Y-004125D01*
X014369Y-003869D01*
X013973Y-003869D01*
X013973Y-003613D02*
X014887Y-003613D01*
X015875Y-002625D01*
X016937Y-002625D01*
X017062Y-002500D01*
X017438Y-002500D01*
X017625Y-002313D01*
X017625Y-001813D01*
X018500Y-000938D01*
X018500Y-000400D01*
X018400Y000500D02*
X017875Y000500D01*
X017625Y000250D01*
X017625Y-001563D01*
X017438Y-001750D01*
X017438Y-002063D01*
X017313Y-002188D01*
X017188Y-002688D02*
X017688Y-002688D01*
X017813Y-002563D01*
X017813Y-002125D01*
X017938Y-002000D01*
X018500Y-002000D01*
X017500Y-003000D02*
X017500Y-003250D01*
X017063Y-003688D01*
X016750Y-003688D01*
X016563Y-003875D01*
X016282Y-003875D01*
X016277Y-003869D01*
X016288Y-003625D02*
X016500Y-003625D01*
X016875Y-003250D01*
X016875Y-003125D01*
X017063Y-002813D02*
X017188Y-002688D01*
X017063Y-002813D02*
X016500Y-002813D01*
X016313Y-003000D01*
X016277Y-003357D02*
X016259Y-003375D01*
X016000Y-003375D01*
X015750Y-003625D01*
X015750Y-004125D01*
X016277Y-004125D01*
X016282Y-004375D02*
X016813Y-004375D01*
X016938Y-004500D01*
X016625Y-004625D02*
X017000Y-005000D01*
X018500Y-005000D01*
X018500Y-004000D02*
X016938Y-004000D01*
X016625Y-004625D02*
X016288Y-004625D01*
X016277Y-004637D01*
X016259Y-004875D02*
X015750Y-004875D01*
X015750Y-004125D01*
X016277Y-004381D02*
X016282Y-004375D01*
X016259Y-004875D02*
X016277Y-004893D01*
X016580Y-004893D01*
X016813Y-005125D01*
X016813Y-005313D01*
X016875Y-005375D01*
X016937Y-005313D01*
X017313Y-005313D01*
X017381Y-005381D01*
X017381Y-005603D01*
X017125Y-005603D02*
X017125Y-005750D01*
X017313Y-005938D01*
X017688Y-005938D01*
X017750Y-006000D01*
X018500Y-006000D01*
X018500Y-007000D02*
X017437Y-007000D01*
X017250Y-006813D01*
X014187Y-006813D01*
X014000Y-006625D01*
X013875Y-006313D02*
X014250Y-006313D01*
X014562Y-006625D01*
X016750Y-006625D01*
X016869Y-006506D01*
X016869Y-006272D01*
X017125Y-006187D02*
X017125Y-006063D01*
X017062Y-006000D01*
X016631Y-006000D01*
X016318Y-006313D01*
X016318Y-006068D01*
X016250Y-006000D01*
X014063Y-006000D01*
X013438Y-005375D01*
X013000Y-004938D02*
X012937Y-004875D01*
X007438Y-004875D01*
X006875Y-004313D01*
X006000Y-004313D01*
X006375Y-004000D02*
X006375Y-003250D01*
X006750Y-002875D01*
X006500Y-004625D02*
X006938Y-005063D01*
X012625Y-005063D01*
X013875Y-006313D01*
X013688Y-006438D02*
X013688Y-007000D01*
X013813Y-007125D01*
X014813Y-007125D01*
X015250Y-006313D02*
X015807Y-006313D01*
X016063Y-005812D02*
X016438Y-005437D01*
X016438Y-005250D01*
X016875Y-005375D02*
X016875Y-005597D01*
X016869Y-005603D01*
X016847Y-005625D01*
X017125Y-005603D02*
X017125Y-005603D01*
X017125Y-006187D02*
X017188Y-006250D01*
X017359Y-006250D01*
X017381Y-006272D01*
X017125Y-007000D02*
X017625Y-007500D01*
X017125Y-007000D02*
X015375Y-007000D01*
X016063Y-005812D02*
X014375Y-005812D01*
X014125Y-005563D01*
X013688Y-006438D02*
X012500Y-005250D01*
X006500Y-005250D01*
X006375Y-005125D01*
X006125Y-005125D01*
X006625Y-005625D02*
X006500Y-005750D01*
X005750Y-005750D01*
X005375Y-005937D02*
X006000Y-006563D01*
X008188Y-006563D01*
X008449Y-006301D01*
X008723Y-006301D01*
X008706Y-006063D02*
X008250Y-006063D01*
X008188Y-006125D01*
X008706Y-006063D02*
X008723Y-006045D01*
X008723Y-006557D02*
X010182Y-006557D01*
X010313Y-006688D01*
X010688Y-006563D02*
X009938Y-005813D01*
X006938Y-005813D01*
X006688Y-006063D01*
X006125Y-006063D01*
X006625Y-005625D02*
X011625Y-005625D01*
X011832Y-005832D01*
X011963Y-005832D01*
X011919Y-005875D01*
X011625Y-005875D01*
X011455Y-006045D01*
X011027Y-006045D01*
X011027Y-006301D02*
X011038Y-006313D01*
X011375Y-006313D01*
X011437Y-006375D01*
X011500Y-006375D01*
X011532Y-006343D01*
X011963Y-006343D01*
X011750Y-006750D02*
X011375Y-006750D01*
X011312Y-006813D01*
X011027Y-006813D01*
X011032Y-007063D02*
X011500Y-007063D01*
X011262Y-007324D02*
X011027Y-007324D01*
X011262Y-007324D02*
X011438Y-007500D01*
X011437Y-007750D01*
X011250Y-007938D01*
X006063Y-007938D01*
X004688Y-006563D01*
X004688Y-001813D01*
X004438Y-001563D01*
X004438Y001812D01*
X004625Y002000D01*
X006188Y002000D01*
X007063Y002875D01*
X008250Y002875D01*
X008500Y003125D01*
X008500Y003694D01*
X008500Y005000D01*
X008188Y005312D01*
X008188Y005750D01*
X007932Y006005D01*
X007932Y008126D01*
X007532Y008126D02*
X007532Y005968D01*
X007875Y005625D01*
X007500Y005625D02*
X007132Y005993D01*
X007132Y008126D01*
X006332Y008126D02*
X006332Y007355D01*
X006938Y006750D01*
X006938Y006063D01*
X004750Y003875D01*
X004750Y003500D01*
X003125Y001875D01*
X003125Y001875D01*
X002688Y001437D01*
X002688Y001062D01*
X003125Y000625D01*
X003125Y-000625D01*
X003063Y-000688D01*
X003063Y-002438D01*
X003188Y-002563D01*
X003188Y-003813D01*
X002938Y-004063D01*
X002938Y-005438D01*
X003438Y-005938D01*
X003688Y-005250D02*
X003563Y-005125D01*
X003563Y-002313D01*
X003438Y-002188D01*
X003438Y-000875D01*
X003500Y-000813D01*
X003500Y001125D01*
X003375Y001250D01*
X003250Y001250D01*
X002875Y001125D02*
X003313Y000687D01*
X003313Y-000750D01*
X003250Y-000813D01*
X003250Y-002313D01*
X003375Y-002438D01*
X003375Y-004188D01*
X003250Y-004313D01*
X003813Y-004313D02*
X003813Y-004813D01*
X004000Y-005000D01*
X004000Y-006500D01*
X004313Y-005812D02*
X004438Y-005687D01*
X004438Y-002063D01*
X004188Y-001813D01*
X004188Y-001437D01*
X004125Y-001375D01*
X004125Y001813D01*
X004563Y002250D01*
X006125Y002250D01*
X006938Y003063D01*
X007000Y003063D01*
X007500Y003563D01*
X007500Y003694D01*
X007500Y005625D01*
X007063Y005625D02*
X006813Y005625D01*
X005000Y003813D01*
X005000Y003500D01*
X002875Y001375D01*
X002875Y001125D01*
X003688Y001375D02*
X003688Y-000937D01*
X003625Y-001000D01*
X003625Y-002000D01*
X003875Y-002250D01*
X003875Y-004000D01*
X003875Y-004250D01*
X003813Y-004313D01*
X003813Y-004062D02*
X003875Y-004000D01*
X004187Y-004500D02*
X004125Y-004625D01*
X004187Y-004500D02*
X004188Y-002188D01*
X003813Y-001813D01*
X003813Y-001187D01*
X003875Y-001125D01*
X003875Y001875D01*
X004563Y002563D01*
X006063Y002563D01*
X006500Y003000D01*
X006500Y003694D01*
X005938Y004312D02*
X005938Y004313D01*
X006750Y005125D01*
X007063Y005125D01*
X005938Y004312D02*
X005188Y003562D01*
X005188Y003438D01*
X003688Y001938D01*
X003688Y001500D01*
X003688Y001375D01*
X004687Y001563D02*
X004688Y-000313D01*
X004687Y-001312D01*
X005063Y-001687D01*
X005063Y-002125D01*
X005063Y-006563D01*
X005563Y-007062D01*
X005563Y-007063D01*
X006125Y-007625D01*
X007750Y-007625D01*
X007375Y-008125D02*
X007375Y-008437D01*
X007187Y-009563D02*
X008938Y-009563D01*
X009000Y-009500D01*
X009500Y-010000D01*
X009500Y-010050D01*
X009750Y-010750D02*
X008375Y-010750D01*
X008125Y-011000D01*
X005875Y-011000D01*
X003625Y-013250D01*
X001000Y-013250D01*
X000500Y-012750D01*
X000500Y-011500D01*
X000000Y-011000D01*
X-000500Y-011000D01*
X005375Y-005937D02*
X005375Y-001125D01*
X005000Y-000750D01*
X005000Y-000427D01*
X005000Y-000750D02*
X006562Y-000750D01*
X006589Y-000777D01*
X007248Y-000777D01*
X007248Y-000383D02*
X006758Y-000383D01*
X006813Y-000375D01*
X006625Y000625D02*
X006427Y000625D01*
X006625Y000625D02*
X006750Y000750D01*
X008000Y000750D01*
X008130Y000620D01*
X008130Y000302D01*
X008327Y000302D02*
X008327Y000673D01*
X008000Y001000D01*
X006552Y001000D01*
X006427Y001125D01*
X006073Y001125D02*
X005625Y001125D01*
X006250Y001750D02*
X007187Y002688D01*
X008812Y002688D01*
X009500Y003375D01*
X009500Y003694D01*
X009500Y004438D01*
X008438Y005500D01*
X008438Y006062D01*
X008332Y006168D01*
X008332Y008126D01*
X009813Y007625D02*
X008688Y006500D01*
X008688Y005750D01*
X008813Y005625D01*
X009813Y007625D02*
X009875Y007625D01*
X011500Y007625D02*
X011563Y007625D01*
X015438Y011500D01*
X015438Y013687D01*
X014375Y014750D01*
X008250Y014750D01*
X007938Y014438D01*
X007938Y013929D01*
X007930Y013921D01*
X009125Y013926D02*
X009125Y014375D01*
X009250Y014500D01*
X011125Y014500D01*
X011845Y013780D01*
X012028Y013780D01*
X012382Y013780D02*
X013366Y013780D01*
X013366Y012992D02*
X012382Y012992D01*
X012028Y012992D02*
X011742Y012992D01*
X011250Y012500D01*
X010206Y012500D01*
X010181Y012475D01*
X010181Y012075D02*
X010193Y012063D01*
X011313Y012063D01*
X011455Y012205D01*
X012028Y012205D01*
X012382Y012205D02*
X013366Y012205D01*
X009130Y013921D02*
X009125Y013926D01*
X005132Y008126D02*
X005132Y007176D01*
X005149Y007159D01*
X005149Y006805D02*
X005250Y006704D01*
X005250Y006188D01*
X007250Y002250D02*
X007271Y002229D01*
X007778Y002229D01*
X007882Y002375D01*
X008250Y002132D02*
X008250Y001250D01*
X008720Y000780D01*
X008720Y000302D01*
X008523Y000302D02*
X008523Y000727D01*
X008000Y001250D01*
X008000Y001548D01*
X007778Y001521D01*
X007240Y001521D01*
X007063Y001448D01*
X007063Y001802D02*
X007073Y002062D01*
X007250Y002250D01*
X006250Y001750D02*
X004875Y001750D01*
X004687Y001563D01*
X005000Y000250D02*
X005000Y-000073D01*
X005500Y-000269D02*
X005500Y000125D01*
X005500Y-000269D02*
X005569Y-000325D01*
X006081Y-000325D02*
X006125Y-000281D01*
X006081Y-000325D02*
X006139Y-000383D01*
X007875Y-000375D02*
X007933Y-000317D01*
X007933Y000302D01*
X008250Y-000750D02*
X008375Y-000875D01*
X008425Y-000875D01*
X009000Y-000750D02*
X009170Y-000580D01*
X009602Y-000580D01*
X009311Y000302D02*
X009311Y000811D01*
X009250Y000875D01*
X009250Y001243D01*
X009063Y001431D01*
X009063Y001625D01*
X008722Y001521D01*
X008743Y001625D01*
X009125Y001625D01*
X009313Y001813D01*
X009313Y001823D01*
X009313Y002177D02*
X009313Y002187D01*
X009125Y002375D01*
X008875Y002375D01*
X008722Y002229D01*
X008618Y002375D02*
X008875Y002375D01*
X008618Y002375D02*
X008250Y002132D01*
X009750Y001125D02*
X009790Y001165D01*
X013455Y-003357D02*
X013000Y-003813D01*
X013375Y-004062D02*
X013438Y-004125D01*
X013973Y-004125D01*
X013985Y-004625D02*
X013973Y-004637D01*
X013956Y-003375D02*
X013973Y-003357D01*
X013455Y-003357D01*
X014000Y-002500D02*
X014000Y-002131D01*
X015750Y-004875D02*
X015750Y-005000D01*
X015506Y-005244D01*
X015256Y-005438D01*
X015943Y-005438D01*
X016000Y-005375D01*
X016288Y-003625D02*
X016277Y-003613D01*
X018400Y000500D02*
X018500Y000600D01*
X018500Y001600D02*
X017975Y001600D01*
X017438Y001063D01*
X012875Y-006375D02*
X012813Y-006375D01*
X012375Y-006813D01*
X011813Y-006813D01*
X011750Y-006750D01*
X011938Y-007125D02*
X012750Y-007125D01*
X013125Y-006750D01*
X013732Y-007670D02*
X013911Y-007670D01*
X013917Y-008688D02*
X013911Y-008693D01*
X013911Y-008949D02*
X013687Y-008938D01*
X013461Y-008938D01*
X013324Y-009074D01*
X013312Y-009063D01*
X012250Y-009250D02*
X012250Y-010500D01*
X011688Y-011000D01*
X008750Y-011000D01*
X008500Y-011250D01*
X006875Y-009875D02*
X007187Y-009563D01*
X006875Y-009875D02*
X006875Y-010625D01*
X006500Y-013875D02*
X006500Y-016975D01*
X010375Y-012125D02*
X010875Y-012125D01*
X011000Y-012000D01*
X015250Y-012000D01*
X017250Y-010000D01*
X017500Y-010000D01*
X017125Y-010625D02*
X015500Y-012250D01*
X014500Y-012250D01*
X014090Y-012785D01*
X014087Y-012785D01*
X014087Y-013140D02*
X012730Y-013140D01*
X012721Y-013274D01*
X011854Y-012900D02*
X011713Y-012917D01*
X011375Y-010625D02*
X011375Y-008750D01*
X011125Y-008500D01*
X011027Y-007580D02*
X010393Y-007580D01*
X010250Y-007563D01*
X011027Y-007068D02*
X011032Y-007063D01*
X011021Y-006563D02*
X010688Y-006563D01*
X011021Y-006563D02*
X011027Y-006557D01*
X015506Y-009750D02*
X015750Y-009750D01*
X015812Y-009688D01*
X015937Y-009688D01*
X016187Y-009438D01*
X016187Y-009232D01*
X016214Y-009205D01*
D36*
X015000Y-009744D02*
X014994Y-009750D01*
X014938Y-009750D01*
X013375Y-009750D01*
X013000Y-009375D01*
X013000Y-008688D01*
X012750Y-008438D01*
X012250Y-008438D01*
X013911Y-009205D02*
X014705Y-009205D01*
X014875Y-009375D01*
X014938Y-009750D01*
X014750Y-005494D02*
X014750Y-005125D01*
X014518Y-004893D01*
X013973Y-004893D01*
X014313Y-005188D02*
X013438Y-005188D01*
X013438Y-005375D01*
X013438Y-005188D02*
X013438Y-004750D01*
X013313Y-004625D01*
X012563Y-004625D01*
X012313Y-004375D01*
X012000Y-003772D02*
X012000Y-003772D01*
X010125Y-001125D02*
X010000Y-001000D01*
X010117Y-000383D02*
X010500Y000000D01*
X010869Y000000D01*
X012335Y002125D02*
X012250Y002210D01*
X010875Y002750D02*
X010665Y002750D01*
X010625Y002710D01*
X010460Y002710D01*
X009750Y-002500D02*
X009500Y-002500D01*
X009750Y-002500D02*
X010000Y-002750D01*
X010000Y-002869D01*
X010000Y-003438D02*
X010000Y-004062D01*
X010063Y-004125D01*
X009522Y-004125D01*
X008415Y-003875D02*
X008375Y-004000D01*
X008415Y-003875D02*
X008415Y-003625D01*
X008250Y-003460D01*
X008250Y-002790D02*
X008147Y-002790D01*
X008375Y-002750D02*
X008720Y-002405D01*
X007375Y-002998D02*
X007375Y-003063D01*
X007375Y-002998D02*
X007277Y-002900D01*
X007187Y-003500D02*
X007063Y-003500D01*
X014313Y-005188D02*
X014625Y-005500D01*
X014744Y-005438D01*
X014750Y-005494D01*
X011375Y010390D02*
X011375Y010875D01*
D37*
X010750Y012875D02*
X010181Y012875D01*
X010181Y012875D01*
X010750Y012875D02*
X010875Y013000D01*
X010875Y013188D01*
X014193Y012992D02*
X014193Y012205D01*
X014193Y012992D02*
X014201Y013000D01*
X014813Y013000D01*
X014193Y012992D02*
X014193Y013780D01*
X013313Y006188D02*
X009250Y006188D01*
X010460Y002710D02*
X009875Y002125D01*
X009875Y001250D01*
X009790Y001165D01*
X011125Y002500D02*
X010875Y002750D01*
X011125Y002500D02*
X011125Y002250D01*
X011250Y002125D01*
X011665Y002125D01*
X014744Y004756D02*
X013313Y006188D01*
X014744Y004756D02*
X015375Y004756D01*
X010312Y-002437D02*
X010500Y-002625D01*
X010500Y-002994D01*
X010579Y-002915D02*
X011250Y-002915D01*
X011813Y-002915D01*
X012000Y-003103D01*
X012000Y-003772D02*
X012000Y-004313D01*
X012250Y-004313D01*
X012313Y-004375D01*
X012000Y-004375D02*
X012000Y-004313D01*
X012000Y-004375D02*
X011813Y-004563D01*
X008875Y-004563D01*
X008875Y-004147D01*
X008853Y-004125D01*
X008853Y-003335D01*
X009187Y-003000D01*
X009188Y-003000D01*
X009327Y-002860D01*
X009327Y-002783D01*
X009500Y-002869D02*
X009500Y-002869D01*
X010000Y-002869D01*
X010312Y-002437D02*
X010312Y-001937D01*
X010250Y-001875D01*
X010000Y-003381D02*
X009500Y-003381D01*
X009500Y-003381D01*
X010000Y-003381D02*
X010125Y-003506D01*
X010500Y-003506D01*
X010875Y-003506D01*
X010875Y-003938D01*
X010875Y-003506D02*
X011171Y-003506D01*
X011250Y-003585D01*
X008875Y-004563D02*
X008063Y-004563D01*
X007063Y-003563D01*
X007063Y-003500D01*
X007187Y-003500D02*
X007375Y-003312D01*
X007375Y-003063D01*
X007875Y-003063D01*
X008147Y-002790D01*
X006813Y-000375D02*
X006147Y-000375D01*
X006139Y-000383D01*
X006125Y-000281D02*
X006125Y000188D01*
X006073Y000177D01*
X006073Y000625D01*
X002750Y-003500D02*
X002250Y-003500D01*
X002250Y000500D02*
X002688Y000500D01*
X005938Y007375D02*
X005938Y008121D01*
X005932Y008126D01*
X004330Y013921D02*
X004313Y013939D01*
X004313Y014688D01*
X004563Y014938D01*
X005250Y014938D01*
X011125Y-012375D02*
X010875Y-012625D01*
X007250Y-012625D01*
X004125Y-015750D01*
X004000Y-015750D01*
X011250Y-014000D02*
X011500Y-014277D01*
X011500Y-016975D01*
X011250Y-014000D02*
X011250Y-013527D01*
X011213Y-013365D01*
X011213Y-013010D02*
X011250Y-012875D01*
X011671Y-012875D01*
X011713Y-012917D01*
X011125Y-012375D02*
X012622Y-012375D01*
X012747Y-012500D01*
D38*
X008723Y-007580D02*
X008706Y-007563D01*
X008250Y-007563D01*
X008318Y-007068D02*
X008188Y-006938D01*
X008250Y-006938D01*
X008375Y-006813D01*
X008723Y-006813D01*
X008723Y-007068D02*
X008318Y-007068D01*
X009500Y-002869D02*
X009327Y-002783D01*
X009250Y-002744D01*
X009250Y-002625D01*
X009114Y-002489D01*
X009114Y-002052D01*
X009311Y-002052D02*
X009311Y-002311D01*
X009500Y-002500D01*
X008720Y-002405D02*
X008720Y-002052D01*
X009602Y-000383D02*
X010117Y-000383D01*
X015625Y005688D02*
X015375Y005938D01*
X015375Y006365D01*
X015385Y006375D01*
X015385Y006698D01*
X015438Y006750D01*
X015740Y006375D02*
X015740Y006375D01*
X016250Y006375D01*
X015625Y005688D02*
X015625Y005500D01*
X011340Y010000D02*
X011000Y010000D01*
X010875Y010125D01*
X010875Y010375D01*
X010775Y010475D01*
X010181Y010475D01*
X011355Y010370D02*
X011375Y010390D01*
X011355Y010015D02*
X011340Y010000D01*
X001625Y002563D02*
X001625Y001250D01*
X001625Y002563D02*
X000188Y004000D01*
X-000500Y004000D01*
X-000500Y003000D02*
X000125Y003000D01*
X000375Y002750D01*
X000375Y001625D01*
X000375Y000438D02*
X000375Y-002773D01*
X000469Y-002866D01*
X000469Y-003220D02*
X000469Y-003719D01*
X000188Y-004000D01*
X-000500Y-004000D01*
D39*
X002688Y000500D03*
X002750Y-003500D03*
X006125Y000188D03*
X007063Y-003500D03*
X004000Y-009500D03*
X002500Y-012750D03*
X001875Y-012750D03*
X002500Y-014250D03*
X006500Y006187D03*
X005938Y007375D03*
X009250Y006188D03*
X010875Y013188D03*
X014813Y013000D03*
X005250Y014938D03*
D40*
X009875Y007625D03*
X008813Y005625D03*
X007875Y005625D03*
X007063Y005625D03*
X007063Y005125D03*
X007250Y002250D03*
X005625Y001125D03*
X005500Y000125D03*
X005000Y000250D03*
X004125Y-001375D03*
X004688Y-001813D03*
X005063Y-002125D03*
X006000Y-001813D03*
X005937Y-001375D03*
X006313Y-002125D03*
X007688Y-002688D03*
X007875Y-001500D03*
X007875Y-001125D03*
X007875Y-000750D03*
X007875Y-000375D03*
X008250Y-000375D03*
X008625Y-000375D03*
X008625Y-000750D03*
X008625Y-001125D03*
X008625Y-001500D03*
X008250Y-001500D03*
X008250Y-001125D03*
X008250Y-000750D03*
X009000Y-000750D03*
X009000Y-001125D03*
X009000Y-001500D03*
X009875Y-002125D03*
X010250Y-001875D03*
X010250Y-001125D03*
X010500Y000000D03*
X009750Y001125D03*
X009250Y000875D03*
X009000Y-000375D03*
X008875Y-002750D03*
X008375Y-004000D03*
X008188Y-006125D03*
X008188Y-006938D03*
X008250Y-007563D03*
X007750Y-007625D03*
X007375Y-008437D03*
X006125Y-006063D03*
X005750Y-005750D03*
X006125Y-005125D03*
X006500Y-004625D03*
X006375Y-004000D03*
X006000Y-004313D03*
X004313Y-005812D03*
X003688Y-005250D03*
X003438Y-005938D03*
X004125Y-004625D03*
X003875Y-004000D03*
X003250Y-004313D03*
X000375Y000438D03*
X000375Y001625D03*
X001625Y001250D03*
X003250Y001250D03*
X010063Y-004125D03*
X010875Y-003938D03*
X012250Y-002500D03*
X012625Y-003125D03*
X012750Y-002625D03*
X013000Y-003000D03*
X013250Y-002625D03*
X013562Y-002188D03*
X013125Y-002125D03*
X014000Y-002500D03*
X014500Y-002500D03*
X014500Y-002125D03*
X015000Y-002125D03*
X015125Y-002500D03*
X015500Y-002000D03*
X016000Y-002000D03*
X016438Y-001937D03*
X016938Y-001500D03*
X017125Y-000875D03*
X017125Y-000125D03*
X017000Y000375D03*
X016750Y000875D03*
X016500Y000375D03*
X016250Y000875D03*
X016000Y000375D03*
X015750Y000875D03*
X015500Y000375D03*
X015188Y000875D03*
X015000Y000375D03*
X014500Y000375D03*
X014500Y001000D03*
X014000Y000688D03*
X013625Y001250D03*
X013125Y001000D03*
X013250Y000500D03*
X012625Y001000D03*
X011750Y000375D03*
X011125Y001500D03*
X013000Y-003813D03*
X013375Y-004062D03*
X013000Y-004938D03*
X012313Y-004375D03*
X012875Y-006375D03*
X013125Y-006750D03*
X014000Y-006625D03*
X014813Y-007125D03*
X015250Y-006313D03*
X016000Y-005375D03*
X016438Y-005250D03*
X016938Y-004500D03*
X016938Y-004000D03*
X016875Y-003125D03*
X017500Y-003000D03*
X017313Y-002188D03*
X016313Y-003000D03*
X014625Y-004375D03*
X014125Y-005563D03*
X015375Y-007813D03*
X016313Y-007313D03*
X016688Y-007625D03*
X017625Y-007500D03*
X017500Y-010000D03*
X017125Y-010625D03*
X015937Y-009688D03*
X013312Y-009063D03*
X013312Y-008063D03*
X012250Y-008438D03*
X012250Y-009250D03*
X011375Y-010625D03*
X010750Y-011750D03*
X010375Y-012125D03*
X010000Y-011375D03*
X010375Y-013000D03*
X010000Y-014000D03*
X008500Y-014125D03*
X008125Y-013750D03*
X007375Y-013750D03*
X008500Y-011250D03*
X010250Y-007563D03*
X010313Y-006688D03*
X011500Y-006375D03*
X011500Y-007063D03*
X011938Y-007125D03*
X015375Y003000D03*
X015438Y006750D03*
X016625Y006875D03*
X011500Y007625D03*
D41*
X011344Y008281D02*
X011344Y008281D01*
X010750Y008875D01*
X010182Y008875D01*
X010181Y008874D01*
X010181Y010875D02*
X011062Y010875D01*
X011063Y010875D01*
X010181Y010875D02*
X010181Y010875D01*
X009313Y006188D02*
X009250Y006188D01*
X009313Y006188D02*
X012313Y003188D01*
X012313Y002147D01*
X012335Y002125D01*
X012747Y-012500D02*
X012721Y-012526D01*
D42*
X004500Y-016250D02*
X004500Y-016975D01*
X004500Y-016250D02*
X004000Y-015750D01*
X002500Y-014250D01*
D43*
X006875Y-012125D03*
X006875Y-010625D03*
D44*
X002376Y-008500D02*
X001250Y-008500D01*
X001250Y-008750D01*
X001344Y-008844D01*
X001344Y-009510D01*
X001375Y-009479D01*
X001250Y-008500D02*
X001250Y-002125D01*
X001250Y-001562D01*
X001250Y000500D01*
X000750Y001000D01*
X-000500Y001000D01*
M02*
