G75*
%MOIN*%
%OFA0B0*%
%FSLAX24Y24*%
%IPPOS*%
%LPD*%
%AMOC8*
5,1,8,0,0,1.08239X$1,22.5*
%
%ADD10C,0.0600*%
%ADD11C,0.0600*%
%ADD12OC8,0.0600*%
%ADD13C,0.0560*%
%ADD14C,0.0400*%
%ADD15C,0.0475*%
%ADD16C,0.0317*%
%ADD17C,0.0060*%
%ADD18C,0.0240*%
%ADD19C,0.0160*%
%ADD20C,0.0120*%
%ADD21C,0.0500*%
%ADD22C,0.0100*%
%ADD23C,0.0396*%
D10*
X-000800Y000000D02*
X-000200Y000000D01*
X-000200Y001000D02*
X-000800Y001000D01*
X-000800Y002000D02*
X-000200Y002000D01*
X-000200Y003000D02*
X-000800Y003000D01*
X-000800Y004000D02*
X-000200Y004000D01*
X-000200Y005000D02*
X-000800Y005000D01*
X-000800Y-001000D02*
X-000200Y-001000D01*
X-000200Y-002000D02*
X-000800Y-002000D01*
X-000800Y-004000D02*
X-000200Y-004000D01*
X-000200Y-005000D02*
X-000800Y-005000D01*
X-000800Y-006000D02*
X-000200Y-006000D01*
X-000200Y-007000D02*
X-000800Y-007000D01*
X-000800Y-008000D02*
X-000200Y-008000D01*
X-000200Y-009000D02*
X-000800Y-009000D01*
X-000800Y-011000D02*
X-000200Y-011000D01*
X-000200Y-012000D02*
X-000800Y-012000D01*
X-000800Y-013000D02*
X-000200Y-013000D01*
X-000200Y-014000D02*
X-000800Y-014000D01*
X-000800Y-015000D02*
X-000200Y-015000D01*
X-000200Y-016000D02*
X-000800Y-016000D01*
X004500Y-016675D02*
X004500Y-017275D01*
X005500Y-017275D02*
X005500Y-016675D01*
X006500Y-016675D02*
X006500Y-017275D01*
X007500Y-017275D02*
X007500Y-016675D01*
X008500Y-016675D02*
X008500Y-017275D01*
X009500Y-017275D02*
X009500Y-016675D01*
X010500Y-016675D02*
X010500Y-017275D01*
X011500Y-017275D02*
X011500Y-016675D01*
X018200Y-009000D02*
X018800Y-009000D01*
X018800Y-008000D02*
X018200Y-008000D01*
X018200Y-007000D02*
X018800Y-007000D01*
X018800Y-006000D02*
X018200Y-006000D01*
X018200Y-005000D02*
X018800Y-005000D01*
X018800Y-004000D02*
X018200Y-004000D01*
X018200Y-003000D02*
X018800Y-003000D01*
X018800Y-002000D02*
X018200Y-002000D01*
X018200Y-000400D02*
X018800Y-000400D01*
X018800Y000600D02*
X018200Y000600D01*
X018200Y001600D02*
X018800Y001600D01*
X018800Y002600D02*
X018200Y002600D01*
X018200Y003600D02*
X018800Y003600D01*
X018800Y004600D02*
X018200Y004600D01*
X018200Y005600D02*
X018800Y005600D01*
X018800Y006600D02*
X018200Y006600D01*
X018200Y007600D02*
X018800Y007600D01*
X018800Y008600D02*
X018200Y008600D01*
X009500Y003994D02*
X009500Y003394D01*
X008500Y003394D02*
X008500Y003994D01*
X007500Y003994D02*
X007500Y003394D01*
X006500Y003394D02*
X006500Y003994D01*
D11*
X010500Y-009050D03*
D12*
X010500Y-010050D03*
X009500Y-010050D03*
X009500Y-009050D03*
X008500Y-009050D03*
X008500Y-010050D03*
D13*
X000875Y-016000D02*
X-000500Y-016000D01*
X-000500Y-001000D02*
X000750Y-001000D01*
X000875Y-000250D02*
X000563Y-000188D01*
X-000312Y-000188D01*
X-000500Y000000D01*
X017250Y005625D02*
X018475Y005625D01*
X018500Y005600D01*
D14*
X005500Y-015875D02*
X005500Y-017000D01*
X002500Y-014250D02*
X002500Y-012750D01*
D15*
X002500Y-012750D03*
X001875Y-012750D03*
X002500Y-014250D03*
X004000Y-009500D03*
X002750Y-003500D03*
X002688Y000500D03*
X006125Y000188D03*
X007063Y-003500D03*
X006500Y006187D03*
X005938Y007375D03*
X009250Y006188D03*
X010875Y013188D03*
X014813Y013000D03*
X005250Y014938D03*
D16*
X009875Y007625D03*
X008813Y005625D03*
X007875Y005625D03*
X007063Y005625D03*
X007063Y005125D03*
X007250Y002250D03*
X005625Y001125D03*
X005500Y000125D03*
X005000Y000250D03*
X004125Y-001375D03*
X004688Y-001813D03*
X005063Y-002125D03*
X006000Y-001813D03*
X005937Y-001375D03*
X006313Y-002125D03*
X007688Y-002688D03*
X007875Y-001500D03*
X007875Y-001125D03*
X007875Y-000750D03*
X007875Y-000375D03*
X008250Y-000375D03*
X008625Y-000375D03*
X008625Y-000750D03*
X008625Y-001125D03*
X008625Y-001500D03*
X008250Y-001500D03*
X008250Y-001125D03*
X008250Y-000750D03*
X009000Y-000750D03*
X009000Y-001125D03*
X009000Y-001500D03*
X009875Y-002125D03*
X010250Y-001875D03*
X010250Y-001125D03*
X010500Y000000D03*
X009750Y001125D03*
X009250Y000875D03*
X009000Y-000375D03*
X008875Y-002750D03*
X008375Y-004000D03*
X008188Y-006125D03*
X008188Y-006938D03*
X008250Y-007563D03*
X007750Y-007625D03*
X007375Y-008437D03*
X006125Y-006063D03*
X005750Y-005750D03*
X006125Y-005125D03*
X006500Y-004625D03*
X006375Y-004000D03*
X006000Y-004313D03*
X004313Y-005812D03*
X003688Y-005250D03*
X003438Y-005938D03*
X004125Y-004625D03*
X003875Y-004000D03*
X003250Y-004313D03*
X000375Y000438D03*
X000375Y001625D03*
X001625Y001250D03*
X003250Y001250D03*
X010063Y-004125D03*
X010875Y-003938D03*
X012250Y-002500D03*
X012625Y-003125D03*
X012750Y-002625D03*
X013000Y-003000D03*
X013250Y-002625D03*
X013562Y-002188D03*
X013125Y-002125D03*
X014000Y-002500D03*
X014500Y-002500D03*
X014500Y-002125D03*
X015000Y-002125D03*
X015125Y-002500D03*
X015500Y-002000D03*
X016000Y-002000D03*
X016438Y-001937D03*
X016938Y-001500D03*
X017125Y-000875D03*
X017125Y-000125D03*
X017000Y000375D03*
X016750Y000875D03*
X016500Y000375D03*
X016250Y000875D03*
X016000Y000375D03*
X015750Y000875D03*
X015500Y000375D03*
X015188Y000875D03*
X015000Y000375D03*
X014500Y000375D03*
X014500Y001000D03*
X014000Y000688D03*
X013625Y001250D03*
X013125Y001000D03*
X013250Y000500D03*
X012625Y001000D03*
X011750Y000375D03*
X011125Y001500D03*
X013000Y-003813D03*
X013375Y-004062D03*
X013000Y-004938D03*
X012313Y-004375D03*
X012875Y-006375D03*
X013125Y-006750D03*
X014000Y-006625D03*
X014813Y-007125D03*
X015250Y-006313D03*
X016000Y-005375D03*
X016438Y-005250D03*
X016938Y-004500D03*
X016938Y-004000D03*
X016875Y-003125D03*
X017500Y-003000D03*
X017313Y-002188D03*
X016313Y-003000D03*
X014625Y-004375D03*
X014125Y-005563D03*
X015375Y-007813D03*
X016313Y-007313D03*
X016688Y-007625D03*
X017625Y-007500D03*
X017500Y-010000D03*
X017125Y-010625D03*
X015937Y-009688D03*
X013312Y-009063D03*
X013312Y-008063D03*
X012250Y-008438D03*
X012250Y-009250D03*
X011375Y-010625D03*
X010750Y-011750D03*
X010375Y-012125D03*
X010000Y-011375D03*
X010375Y-013000D03*
X010000Y-014000D03*
X008500Y-014125D03*
X008125Y-013750D03*
X007375Y-013750D03*
X008500Y-011250D03*
X010250Y-007563D03*
X010313Y-006688D03*
X011500Y-006375D03*
X011500Y-007063D03*
X011938Y-007125D03*
X015375Y003000D03*
X015438Y006750D03*
X016625Y006875D03*
X011500Y007625D03*
D17*
X011247Y007385D02*
X010128Y007385D01*
X010073Y007329D01*
X009944Y007276D01*
X009806Y007276D01*
X009677Y007329D01*
X009579Y007427D01*
X009526Y007556D01*
X009526Y007694D01*
X009579Y007823D01*
X009677Y007921D01*
X009806Y007974D01*
X009944Y007974D01*
X010073Y007921D01*
X010128Y007865D01*
X011247Y007865D01*
X011302Y007921D01*
X011431Y007974D01*
X011569Y007974D01*
X011698Y007921D01*
X011796Y007823D01*
X011849Y007694D01*
X011849Y007556D01*
X011796Y007427D01*
X011698Y007329D01*
X011569Y007276D01*
X011431Y007276D01*
X011302Y007329D01*
X011247Y007385D01*
X011261Y007371D02*
X010114Y007371D01*
X010032Y007313D02*
X011343Y007313D01*
X011657Y007313D02*
X017500Y007313D01*
X017500Y007371D02*
X011739Y007371D01*
X011797Y007430D02*
X017500Y007430D01*
X017500Y007488D02*
X011821Y007488D01*
X011845Y007547D02*
X017500Y007547D01*
X017500Y007605D02*
X011849Y007605D01*
X011849Y007664D02*
X017500Y007664D01*
X017500Y007722D02*
X011837Y007722D01*
X011813Y007781D02*
X017500Y007781D01*
X017500Y007839D02*
X011779Y007839D01*
X011721Y007898D02*
X017500Y007898D01*
X017500Y007956D02*
X011612Y007956D01*
X011388Y007956D02*
X009987Y007956D01*
X010096Y007898D02*
X011279Y007898D01*
X009763Y007956D02*
X004938Y007956D01*
X004938Y007898D02*
X009654Y007898D01*
X009596Y007839D02*
X004938Y007839D01*
X004938Y007781D02*
X009562Y007781D01*
X009538Y007722D02*
X004938Y007722D01*
X004938Y007664D02*
X009526Y007664D01*
X009526Y007605D02*
X004938Y007605D01*
X004938Y007547D02*
X009530Y007547D01*
X009554Y007488D02*
X004938Y007488D01*
X004938Y007430D02*
X009578Y007430D01*
X009636Y007371D02*
X004938Y007371D01*
X004938Y007313D02*
X009718Y007313D01*
X009379Y006611D02*
X015118Y006611D01*
X015094Y006669D02*
X004938Y006669D01*
X004938Y006611D02*
X006372Y006611D01*
X006412Y006627D02*
X006251Y006560D01*
X006127Y006437D01*
X006060Y006275D01*
X006060Y006100D01*
X006127Y005938D01*
X006251Y005814D01*
X006412Y005747D01*
X006736Y005747D01*
X006714Y005694D01*
X006714Y005556D01*
X006767Y005427D01*
X006819Y005375D01*
X006767Y005323D01*
X006714Y005194D01*
X006714Y005056D01*
X006767Y004927D01*
X006865Y004829D01*
X006993Y004776D01*
X007132Y004776D01*
X007260Y004829D01*
X007358Y004927D01*
X007411Y005056D01*
X007411Y005073D01*
X008548Y005073D01*
X008636Y005109D01*
X008803Y005276D01*
X008882Y005276D01*
X009010Y005329D01*
X009108Y005427D01*
X009161Y005556D01*
X009161Y005694D01*
X009139Y005748D01*
X009338Y005748D01*
X009499Y005815D01*
X009623Y005938D01*
X009690Y006100D01*
X009690Y006275D01*
X009623Y006437D01*
X009499Y006561D01*
X009337Y006628D01*
X008999Y006627D01*
X006412Y006627D01*
X006242Y006552D02*
X004938Y006552D01*
X004938Y006494D02*
X006184Y006494D01*
X006126Y006435D02*
X004938Y006435D01*
X004938Y006377D02*
X006102Y006377D01*
X006078Y006318D02*
X004938Y006318D01*
X004938Y006260D02*
X006060Y006260D01*
X006060Y006201D02*
X004938Y006201D01*
X004938Y006143D02*
X006060Y006143D01*
X006067Y006084D02*
X004938Y006084D01*
X004938Y006026D02*
X006091Y006026D01*
X006115Y005967D02*
X000500Y005967D01*
X000500Y006000D02*
X004938Y006000D01*
X004938Y015500D01*
X017500Y015500D01*
X017500Y006000D01*
X017499Y-001887D01*
X017382Y-001839D01*
X017243Y-001839D01*
X017115Y-001892D01*
X017017Y-001990D01*
X016964Y-002118D01*
X016964Y-002257D01*
X017017Y-002385D01*
X017073Y-002441D01*
X017072Y-002765D01*
X017072Y-002829D01*
X016944Y-002776D01*
X016806Y-002776D01*
X016677Y-002829D01*
X016636Y-002870D01*
X016608Y-002802D01*
X016510Y-002704D01*
X016382Y-002651D01*
X016243Y-002651D01*
X016115Y-002704D01*
X016017Y-002802D01*
X015964Y-002931D01*
X015964Y-003069D01*
X016017Y-003198D01*
X016073Y-003253D01*
X016073Y-005173D01*
X016089Y-005212D01*
X016089Y-005319D01*
X016142Y-005448D01*
X016240Y-005546D01*
X016368Y-005599D01*
X016507Y-005599D01*
X016635Y-005546D01*
X016698Y-005483D01*
X016698Y-006213D01*
X016109Y-006802D01*
X016073Y-006890D01*
X016073Y-007059D01*
X016017Y-007115D01*
X015964Y-007243D01*
X015964Y-007382D01*
X016017Y-007510D01*
X016115Y-007608D01*
X016243Y-007661D01*
X016382Y-007661D01*
X016510Y-007608D01*
X016608Y-007510D01*
X016661Y-007382D01*
X016661Y-007243D01*
X016608Y-007115D01*
X016553Y-007059D01*
X016553Y-007037D01*
X016885Y-006704D01*
X016885Y-007827D01*
X016885Y-007827D01*
X016885Y-007923D01*
X016900Y-007960D01*
X016922Y-008011D01*
X016923Y-008012D01*
X016989Y-008078D01*
X017010Y-008099D01*
X017010Y-009401D01*
X016989Y-009422D01*
X016922Y-009489D01*
X016885Y-009577D01*
X016885Y-010372D01*
X016829Y-010427D01*
X016776Y-010556D01*
X016776Y-010694D01*
X016829Y-010823D01*
X011671Y-010823D01*
X011724Y-010694D01*
X011724Y-010556D01*
X011671Y-010427D01*
X011573Y-010329D01*
X011444Y-010276D01*
X011306Y-010276D01*
X011177Y-010329D01*
X011079Y-010427D01*
X011026Y-010556D01*
X011026Y-010634D01*
X010614Y-011047D01*
X010547Y-011114D01*
X010510Y-011202D01*
X010510Y-011497D01*
X010454Y-011552D01*
X010401Y-011681D01*
X010401Y-011776D01*
X010306Y-011776D01*
X010240Y-011803D01*
X010240Y-011628D01*
X010296Y-011573D01*
X010349Y-011444D01*
X010349Y-011306D01*
X010296Y-011177D01*
X010198Y-011079D01*
X010069Y-011026D01*
X009931Y-011026D01*
X009802Y-011079D01*
X009704Y-011177D01*
X009651Y-011306D01*
X009651Y-011444D01*
X009704Y-011573D01*
X009760Y-011628D01*
X009760Y-013747D01*
X009704Y-013802D01*
X009651Y-013931D01*
X009651Y-014069D01*
X009704Y-014198D01*
X009802Y-014296D01*
X009931Y-014349D01*
X010069Y-014349D01*
X010198Y-014296D01*
X010296Y-014198D01*
X010349Y-014069D01*
X010349Y-013931D01*
X010296Y-013802D01*
X010240Y-013747D01*
X010240Y-013322D01*
X010306Y-013349D01*
X010444Y-013349D01*
X010573Y-013296D01*
X010671Y-013198D01*
X010724Y-013069D01*
X010724Y-012931D01*
X010671Y-012802D01*
X010615Y-012747D01*
X010615Y-012378D01*
X010671Y-012323D01*
X010724Y-012194D01*
X010724Y-012099D01*
X010819Y-012099D01*
X010948Y-012046D01*
X011046Y-011948D01*
X011099Y-011819D01*
X011099Y-011681D01*
X011046Y-011552D01*
X010990Y-011497D01*
X010990Y-011349D01*
X017498Y-011349D01*
X017498Y-011291D02*
X011049Y-011291D01*
X011107Y-011232D02*
X017498Y-011232D01*
X017498Y-011174D02*
X011166Y-011174D01*
X011224Y-011115D02*
X017498Y-011115D01*
X017498Y-011057D02*
X011283Y-011057D01*
X011341Y-010998D02*
X017498Y-010998D01*
X017498Y-010940D02*
X017277Y-010940D01*
X017323Y-010921D02*
X017194Y-010974D01*
X017056Y-010974D01*
X016927Y-010921D01*
X016829Y-010823D01*
X016805Y-010764D02*
X011695Y-010764D01*
X011719Y-010706D02*
X016781Y-010706D01*
X016776Y-010647D02*
X011724Y-010647D01*
X011724Y-010589D02*
X016776Y-010589D01*
X016787Y-010530D02*
X011713Y-010530D01*
X011689Y-010472D02*
X016811Y-010472D01*
X016844Y-010413D02*
X011656Y-010413D01*
X011598Y-010355D02*
X016885Y-010355D01*
X016885Y-010296D02*
X011492Y-010296D01*
X011258Y-010296D02*
X010947Y-010296D01*
X010990Y-010253D02*
X010703Y-010540D01*
X010297Y-010540D01*
X010010Y-010253D01*
X010010Y-009847D01*
X010297Y-009560D01*
X010703Y-009560D01*
X010990Y-009847D01*
X010990Y-010253D01*
X010990Y-010238D02*
X016885Y-010238D01*
X016885Y-010179D02*
X010990Y-010179D01*
X010990Y-010121D02*
X016885Y-010121D01*
X016885Y-010062D02*
X010990Y-010062D01*
X010990Y-010004D02*
X016885Y-010004D01*
X016885Y-009945D02*
X010990Y-009945D01*
X010990Y-009887D02*
X016885Y-009887D01*
X016885Y-009828D02*
X010971Y-009828D01*
X010913Y-009770D02*
X016885Y-009770D01*
X016885Y-009711D02*
X010854Y-009711D01*
X010796Y-009653D02*
X016885Y-009653D01*
X016885Y-009594D02*
X012331Y-009594D01*
X012319Y-009599D02*
X012448Y-009546D01*
X012546Y-009448D01*
X012599Y-009319D01*
X012599Y-009241D01*
X012698Y-009141D01*
X012766Y-009073D01*
X012803Y-008985D01*
X012803Y-006883D01*
X012829Y-006948D01*
X012927Y-007046D01*
X013056Y-007099D01*
X013194Y-007099D01*
X013323Y-007046D01*
X013421Y-006948D01*
X013455Y-006865D01*
X013747Y-006865D01*
X013802Y-006921D01*
X013931Y-006974D01*
X014069Y-006974D01*
X014198Y-006921D01*
X014296Y-006823D01*
X014349Y-006694D01*
X014349Y-006556D01*
X014296Y-006427D01*
X014198Y-006329D01*
X014069Y-006276D01*
X013931Y-006276D01*
X013802Y-006329D01*
X013747Y-006385D01*
X013224Y-006385D01*
X013224Y-006366D01*
X013787Y-005803D01*
X013872Y-005803D01*
X013927Y-005858D01*
X014056Y-005911D01*
X014194Y-005911D01*
X014323Y-005858D01*
X014421Y-005760D01*
X014474Y-005632D01*
X014474Y-005493D01*
X014421Y-005365D01*
X014323Y-005267D01*
X014194Y-005214D01*
X014056Y-005214D01*
X013927Y-005267D01*
X013872Y-005323D01*
X013640Y-005323D01*
X013552Y-005359D01*
X013484Y-005427D01*
X012884Y-006026D01*
X012806Y-006026D01*
X012803Y-006028D01*
X012803Y-005233D01*
X012931Y-005286D01*
X013069Y-005286D01*
X013198Y-005233D01*
X013296Y-005135D01*
X013349Y-005007D01*
X013349Y-004928D01*
X013544Y-004733D01*
X013578Y-004698D01*
X013597Y-004653D01*
X013615Y-004610D01*
X013615Y-004562D01*
X013615Y-004316D01*
X013671Y-004260D01*
X013724Y-004132D01*
X013724Y-003993D01*
X013671Y-003865D01*
X013573Y-003767D01*
X013444Y-003714D01*
X013337Y-003714D01*
X013296Y-003615D01*
X013198Y-003517D01*
X013069Y-003464D01*
X012931Y-003464D01*
X012802Y-003517D01*
X012704Y-003615D01*
X012651Y-003743D01*
X012651Y-003882D01*
X012704Y-004010D01*
X012760Y-004066D01*
X012760Y-004213D01*
X012661Y-004312D01*
X012661Y-004306D01*
X012608Y-004177D01*
X012510Y-004079D01*
X012382Y-004026D01*
X012243Y-004026D01*
X012115Y-004079D01*
X012017Y-004177D01*
X011964Y-004306D01*
X011964Y-004444D01*
X012017Y-004573D01*
X012043Y-004598D01*
X012043Y-006791D01*
X012007Y-006776D01*
X011868Y-006776D01*
X011740Y-006829D01*
X011642Y-006927D01*
X011589Y-007056D01*
X011589Y-007134D01*
X011581Y-007142D01*
X011547Y-007177D01*
X011463Y-007260D01*
X011224Y-007260D01*
X010661Y-006697D01*
X010661Y-006618D01*
X010608Y-006490D01*
X010510Y-006392D01*
X010382Y-006339D01*
X010243Y-006339D01*
X010115Y-006392D01*
X010017Y-006490D01*
X009964Y-006618D01*
X009964Y-006757D01*
X010017Y-006885D01*
X010115Y-006983D01*
X010243Y-007036D01*
X010322Y-007036D01*
X010989Y-007703D01*
X011077Y-007740D01*
X011610Y-007740D01*
X011698Y-007703D01*
X011766Y-007636D01*
X011921Y-007481D01*
X011928Y-007474D01*
X012007Y-007474D01*
X012043Y-007459D01*
X012043Y-008152D01*
X011954Y-008240D01*
X011901Y-008368D01*
X011901Y-008507D01*
X011954Y-008635D01*
X012052Y-008733D01*
X012181Y-008786D01*
X012319Y-008786D01*
X012323Y-008785D01*
X012323Y-008838D01*
X012259Y-008901D01*
X012181Y-008901D01*
X012052Y-008954D01*
X011954Y-009052D01*
X011901Y-009181D01*
X011901Y-009319D01*
X011954Y-009448D01*
X012052Y-009546D01*
X012181Y-009599D01*
X012319Y-009599D01*
X012169Y-009594D02*
X010737Y-009594D01*
X010749Y-009477D02*
X011984Y-009477D01*
X011942Y-009419D02*
X010824Y-009419D01*
X010778Y-009465D02*
X010915Y-009328D01*
X010990Y-009147D01*
X010990Y-008953D01*
X010915Y-008772D01*
X010778Y-008635D01*
X010597Y-008560D01*
X010490Y-008560D01*
X010490Y-007816D01*
X010546Y-007760D01*
X010599Y-007632D01*
X010599Y-007493D01*
X010546Y-007365D01*
X010448Y-007267D01*
X010319Y-007214D01*
X010181Y-007214D01*
X010052Y-007267D01*
X009954Y-007365D01*
X009901Y-007493D01*
X009901Y-007632D01*
X009954Y-007760D01*
X010010Y-007816D01*
X010010Y-008848D01*
X010032Y-008900D01*
X010010Y-008953D01*
X010010Y-009147D01*
X010085Y-009328D01*
X010222Y-009465D01*
X010403Y-009540D01*
X010597Y-009540D01*
X010778Y-009465D01*
X010883Y-009360D02*
X011918Y-009360D01*
X011901Y-009302D02*
X010926Y-009302D01*
X010950Y-009243D02*
X011901Y-009243D01*
X011901Y-009185D02*
X010975Y-009185D01*
X010990Y-009126D02*
X011924Y-009126D01*
X011948Y-009068D02*
X010990Y-009068D01*
X010990Y-009009D02*
X011998Y-009009D01*
X012062Y-008951D02*
X010989Y-008951D01*
X010965Y-008892D02*
X012269Y-008892D01*
X012323Y-008834D02*
X010941Y-008834D01*
X010916Y-008775D02*
X012154Y-008775D01*
X012036Y-008717D02*
X010860Y-008717D01*
X010801Y-008658D02*
X011977Y-008658D01*
X011940Y-008600D02*
X010693Y-008600D01*
X010490Y-008541D02*
X011915Y-008541D01*
X011901Y-008483D02*
X010490Y-008483D01*
X010490Y-008424D02*
X011901Y-008424D01*
X011902Y-008366D02*
X010490Y-008366D01*
X010490Y-008307D02*
X011927Y-008307D01*
X011951Y-008249D02*
X010490Y-008249D01*
X010490Y-008190D02*
X012004Y-008190D01*
X012043Y-008132D02*
X010490Y-008132D01*
X010490Y-008073D02*
X012043Y-008073D01*
X012043Y-008015D02*
X010490Y-008015D01*
X010490Y-007956D02*
X012043Y-007956D01*
X012043Y-007898D02*
X010490Y-007898D01*
X010490Y-007839D02*
X012043Y-007839D01*
X012043Y-007781D02*
X010525Y-007781D01*
X010561Y-007722D02*
X011034Y-007722D01*
X010949Y-007664D02*
X010586Y-007664D01*
X010599Y-007605D02*
X010891Y-007605D01*
X010832Y-007547D02*
X010599Y-007547D01*
X010597Y-007488D02*
X010774Y-007488D01*
X010715Y-007430D02*
X010572Y-007430D01*
X010548Y-007371D02*
X010657Y-007371D01*
X010598Y-007313D02*
X010493Y-007313D01*
X010540Y-007254D02*
X010417Y-007254D01*
X010481Y-007196D02*
X000498Y-007196D01*
X000498Y-007254D02*
X010083Y-007254D01*
X010007Y-007313D02*
X007907Y-007313D01*
X007948Y-007329D02*
X007819Y-007276D01*
X007681Y-007276D01*
X007552Y-007329D01*
X007454Y-007427D01*
X007401Y-007556D01*
X007401Y-007694D01*
X007454Y-007823D01*
X007510Y-007878D01*
X007510Y-008116D01*
X007444Y-008089D01*
X007306Y-008089D01*
X007177Y-008142D01*
X007079Y-008240D01*
X007026Y-008368D01*
X007026Y-008507D01*
X007079Y-008635D01*
X007135Y-008691D01*
X007135Y-010336D01*
X007095Y-010296D01*
X007135Y-010296D01*
X007095Y-010296D02*
X006952Y-010237D01*
X006798Y-010237D01*
X006655Y-010296D01*
X000498Y-010296D01*
X000498Y-010238D02*
X006796Y-010238D01*
X006655Y-010296D02*
X006546Y-010405D01*
X006487Y-010548D01*
X006487Y-010702D01*
X006546Y-010845D01*
X006635Y-010934D01*
X006635Y-011816D01*
X006546Y-011905D01*
X006487Y-012048D01*
X006487Y-012202D01*
X006546Y-012345D01*
X006655Y-012454D01*
X006798Y-012513D01*
X006952Y-012513D01*
X007095Y-012454D01*
X007135Y-012414D01*
X007135Y-013497D01*
X007079Y-013552D01*
X007026Y-013681D01*
X007026Y-013819D01*
X007079Y-013948D01*
X007177Y-014046D01*
X007306Y-014099D01*
X007444Y-014099D01*
X007573Y-014046D01*
X007671Y-013948D01*
X007724Y-013819D01*
X007724Y-013688D01*
X007776Y-013741D01*
X007776Y-013819D01*
X007829Y-013948D01*
X007927Y-014046D01*
X008056Y-014099D01*
X008151Y-014099D01*
X008151Y-014194D01*
X008204Y-014323D01*
X008302Y-014421D01*
X008431Y-014474D01*
X008569Y-014474D01*
X008698Y-014421D01*
X008796Y-014323D01*
X008849Y-014194D01*
X008849Y-014056D01*
X008796Y-013927D01*
X008740Y-013872D01*
X008740Y-011503D01*
X008796Y-011448D01*
X008849Y-011319D01*
X008849Y-011181D01*
X008796Y-011052D01*
X008698Y-010954D01*
X008569Y-010901D01*
X008431Y-010901D01*
X008302Y-010954D01*
X008204Y-011052D01*
X008151Y-011181D01*
X008151Y-011319D01*
X008204Y-011448D01*
X008260Y-011503D01*
X008260Y-013428D01*
X008194Y-013401D01*
X008116Y-013401D01*
X007990Y-013276D01*
X007990Y-007878D01*
X008046Y-007823D01*
X008099Y-007694D01*
X008099Y-007556D01*
X008046Y-007427D01*
X007948Y-007329D01*
X007989Y-007371D02*
X009952Y-007371D01*
X009928Y-007430D02*
X008047Y-007430D01*
X008071Y-007488D02*
X009903Y-007488D01*
X009901Y-007547D02*
X008095Y-007547D01*
X008099Y-007605D02*
X009901Y-007605D01*
X009914Y-007664D02*
X008099Y-007664D01*
X008087Y-007722D02*
X009939Y-007722D01*
X009975Y-007781D02*
X008063Y-007781D01*
X008029Y-007839D02*
X010010Y-007839D01*
X010010Y-007898D02*
X007990Y-007898D01*
X007990Y-007956D02*
X010010Y-007956D01*
X010010Y-008015D02*
X007990Y-008015D01*
X007990Y-008073D02*
X010010Y-008073D01*
X010010Y-008132D02*
X007990Y-008132D01*
X007990Y-008190D02*
X010010Y-008190D01*
X010010Y-008249D02*
X007990Y-008249D01*
X007990Y-008307D02*
X010010Y-008307D01*
X010010Y-008366D02*
X007990Y-008366D01*
X007990Y-008424D02*
X010010Y-008424D01*
X010010Y-008483D02*
X007990Y-008483D01*
X007990Y-008541D02*
X010010Y-008541D01*
X010010Y-008600D02*
X009743Y-008600D01*
X009703Y-008560D02*
X009297Y-008560D01*
X009010Y-008847D01*
X009010Y-009253D01*
X009297Y-009540D01*
X009703Y-009540D01*
X009990Y-009253D01*
X009990Y-008847D01*
X009703Y-008560D01*
X009801Y-008658D02*
X010010Y-008658D01*
X010010Y-008717D02*
X009860Y-008717D01*
X009918Y-008775D02*
X010010Y-008775D01*
X010010Y-008834D02*
X009977Y-008834D01*
X009990Y-008892D02*
X010028Y-008892D01*
X010011Y-008951D02*
X009990Y-008951D01*
X009990Y-009009D02*
X010010Y-009009D01*
X010010Y-009068D02*
X009990Y-009068D01*
X009990Y-009126D02*
X010010Y-009126D01*
X010025Y-009185D02*
X009990Y-009185D01*
X009990Y-009243D02*
X010050Y-009243D01*
X010074Y-009302D02*
X009941Y-009302D01*
X009883Y-009360D02*
X010117Y-009360D01*
X010176Y-009419D02*
X009824Y-009419D01*
X009766Y-009477D02*
X010251Y-009477D01*
X010263Y-009594D02*
X009737Y-009594D01*
X009703Y-009560D02*
X009297Y-009560D01*
X009010Y-009847D01*
X009010Y-010253D01*
X009297Y-010540D01*
X009703Y-010540D01*
X009990Y-010253D01*
X009990Y-009847D01*
X009703Y-009560D01*
X009707Y-009536D02*
X010392Y-009536D01*
X010608Y-009536D02*
X012042Y-009536D01*
X012458Y-009536D02*
X016902Y-009536D01*
X016934Y-009477D02*
X012516Y-009477D01*
X012558Y-009419D02*
X016992Y-009419D01*
X017010Y-009360D02*
X012582Y-009360D01*
X012599Y-009302D02*
X017010Y-009302D01*
X017010Y-009243D02*
X012599Y-009243D01*
X012655Y-009185D02*
X017010Y-009185D01*
X017010Y-009126D02*
X012713Y-009126D01*
X012768Y-009068D02*
X017010Y-009068D01*
X017010Y-009009D02*
X012793Y-009009D01*
X012803Y-008951D02*
X017010Y-008951D01*
X017010Y-008892D02*
X012803Y-008892D01*
X012803Y-008834D02*
X017010Y-008834D01*
X017010Y-008775D02*
X012803Y-008775D01*
X012803Y-008717D02*
X017010Y-008717D01*
X017010Y-008658D02*
X012803Y-008658D01*
X012803Y-008600D02*
X017010Y-008600D01*
X017010Y-008541D02*
X012803Y-008541D01*
X012803Y-008483D02*
X017010Y-008483D01*
X017010Y-008424D02*
X012803Y-008424D01*
X012803Y-008366D02*
X017010Y-008366D01*
X017010Y-008307D02*
X012803Y-008307D01*
X012803Y-008249D02*
X017010Y-008249D01*
X017010Y-008190D02*
X012803Y-008190D01*
X012803Y-008132D02*
X015234Y-008132D01*
X015177Y-008108D02*
X015306Y-008161D01*
X015444Y-008161D01*
X015573Y-008108D01*
X015671Y-008010D01*
X015724Y-007882D01*
X015724Y-007743D01*
X015671Y-007615D01*
X015573Y-007517D01*
X015444Y-007464D01*
X015366Y-007464D01*
X015142Y-007240D01*
X015161Y-007194D01*
X015161Y-007056D01*
X015108Y-006927D01*
X015010Y-006829D01*
X014882Y-006776D01*
X014743Y-006776D01*
X014615Y-006829D01*
X014517Y-006927D01*
X014464Y-007056D01*
X014464Y-007194D01*
X014517Y-007323D01*
X014615Y-007421D01*
X014664Y-007441D01*
X014677Y-007454D01*
X015026Y-007803D01*
X015026Y-007882D01*
X015079Y-008010D01*
X015177Y-008108D01*
X015142Y-008073D02*
X012803Y-008073D01*
X012803Y-008015D02*
X015084Y-008015D01*
X015057Y-007956D02*
X012803Y-007956D01*
X012803Y-007898D02*
X015033Y-007898D01*
X015026Y-007839D02*
X012803Y-007839D01*
X012803Y-007781D02*
X015004Y-007781D01*
X014945Y-007722D02*
X012803Y-007722D01*
X012803Y-007664D02*
X014887Y-007664D01*
X014828Y-007605D02*
X012803Y-007605D01*
X012803Y-007547D02*
X014770Y-007547D01*
X014711Y-007488D02*
X012803Y-007488D01*
X012803Y-007430D02*
X014636Y-007430D01*
X014565Y-007371D02*
X012803Y-007371D01*
X012803Y-007313D02*
X014513Y-007313D01*
X014488Y-007254D02*
X012803Y-007254D01*
X012803Y-007196D02*
X014464Y-007196D01*
X014464Y-007137D02*
X012803Y-007137D01*
X012803Y-007079D02*
X013007Y-007079D01*
X012902Y-007020D02*
X012803Y-007020D01*
X012803Y-006962D02*
X012843Y-006962D01*
X012811Y-006903D02*
X012803Y-006903D01*
X013243Y-007079D02*
X014464Y-007079D01*
X014479Y-007020D02*
X013348Y-007020D01*
X013407Y-006962D02*
X013901Y-006962D01*
X013785Y-006903D02*
X013439Y-006903D01*
X013224Y-006377D02*
X013755Y-006377D01*
X013830Y-006318D02*
X013271Y-006318D01*
X013330Y-006260D02*
X016651Y-006260D01*
X016698Y-006201D02*
X013388Y-006201D01*
X013447Y-006143D02*
X016698Y-006143D01*
X016698Y-006084D02*
X013505Y-006084D01*
X013564Y-006026D02*
X016698Y-006026D01*
X016698Y-005967D02*
X013622Y-005967D01*
X013681Y-005909D02*
X014049Y-005909D01*
X013919Y-005850D02*
X013739Y-005850D01*
X013470Y-005441D02*
X012803Y-005441D01*
X012803Y-005499D02*
X013412Y-005499D01*
X013353Y-005558D02*
X012803Y-005558D01*
X012803Y-005616D02*
X013295Y-005616D01*
X013236Y-005675D02*
X012803Y-005675D01*
X012803Y-005733D02*
X013178Y-005733D01*
X013119Y-005792D02*
X012803Y-005792D01*
X012803Y-005850D02*
X013061Y-005850D01*
X013002Y-005909D02*
X012803Y-005909D01*
X012803Y-005967D02*
X012944Y-005967D01*
X012885Y-006026D02*
X012803Y-006026D01*
X012803Y-005382D02*
X013529Y-005382D01*
X013637Y-005324D02*
X012803Y-005324D01*
X012803Y-005265D02*
X012879Y-005265D01*
X013121Y-005265D02*
X013932Y-005265D01*
X013480Y-004797D02*
X016073Y-004797D01*
X016073Y-004739D02*
X013538Y-004739D01*
X013578Y-004698D02*
X013578Y-004698D01*
X013578Y-004698D01*
X013586Y-004680D02*
X016073Y-004680D01*
X016073Y-004622D02*
X013610Y-004622D01*
X013615Y-004610D02*
X013615Y-004610D01*
X013615Y-004610D01*
X013615Y-004563D02*
X016073Y-004563D01*
X016073Y-004505D02*
X013615Y-004505D01*
X013615Y-004446D02*
X016073Y-004446D01*
X016073Y-004388D02*
X013615Y-004388D01*
X013615Y-004329D02*
X016073Y-004329D01*
X016073Y-004271D02*
X013660Y-004271D01*
X013691Y-004212D02*
X016073Y-004212D01*
X016073Y-004154D02*
X013715Y-004154D01*
X013724Y-004095D02*
X016073Y-004095D01*
X016073Y-004037D02*
X013724Y-004037D01*
X013717Y-003978D02*
X016073Y-003978D01*
X016073Y-003920D02*
X013693Y-003920D01*
X013667Y-003861D02*
X016073Y-003861D01*
X016073Y-003803D02*
X013608Y-003803D01*
X013517Y-003744D02*
X016073Y-003744D01*
X016073Y-003686D02*
X013325Y-003686D01*
X013301Y-003627D02*
X016073Y-003627D01*
X016073Y-003569D02*
X013249Y-003569D01*
X013181Y-003510D02*
X016073Y-003510D01*
X016073Y-003452D02*
X007490Y-003452D01*
X007490Y-003415D02*
X007425Y-003258D01*
X007305Y-003138D01*
X007148Y-003073D01*
X006977Y-003073D01*
X006820Y-003138D01*
X006768Y-003190D01*
X003045Y-003190D01*
X002992Y-003138D01*
X002835Y-003073D01*
X002665Y-003073D01*
X002508Y-003138D01*
X002388Y-003258D01*
X002323Y-003415D01*
X002323Y-003585D01*
X002388Y-003742D01*
X002508Y-003862D01*
X002665Y-003927D01*
X002835Y-003927D01*
X002992Y-003862D01*
X003045Y-003810D01*
X003576Y-003810D01*
X003526Y-003931D01*
X003526Y-004069D01*
X003528Y-004073D01*
X003503Y-004073D01*
X003448Y-004017D01*
X003319Y-003964D01*
X003181Y-003964D01*
X003052Y-004017D01*
X002954Y-004115D01*
X002901Y-004243D01*
X002901Y-004382D01*
X002954Y-004510D01*
X003052Y-004608D01*
X003181Y-004661D01*
X003319Y-004661D01*
X003448Y-004608D01*
X003503Y-004553D01*
X003778Y-004553D01*
X003776Y-004556D01*
X003776Y-004694D01*
X003829Y-004823D01*
X003927Y-004921D01*
X004056Y-004974D01*
X004194Y-004974D01*
X004323Y-004921D01*
X004378Y-004865D01*
X005892Y-004865D01*
X005872Y-004885D01*
X005423Y-004885D01*
X005423Y-004885D01*
X005376Y-004885D01*
X005327Y-004885D01*
X005274Y-004907D01*
X005239Y-004922D01*
X005198Y-004963D01*
X005172Y-004989D01*
X005172Y-004989D01*
X004588Y-005573D01*
X004566Y-005573D01*
X004510Y-005517D01*
X004382Y-005464D01*
X004243Y-005464D01*
X004115Y-005517D01*
X004017Y-005615D01*
X003999Y-005659D01*
X003928Y-005588D01*
X003928Y-005503D01*
X003983Y-005448D01*
X004036Y-005319D01*
X004036Y-005181D01*
X003983Y-005052D01*
X003885Y-004954D01*
X003757Y-004901D01*
X003618Y-004901D01*
X003490Y-004954D01*
X003392Y-005052D01*
X003339Y-005181D01*
X003339Y-005319D01*
X003392Y-005448D01*
X003448Y-005503D01*
X003448Y-005589D01*
X003368Y-005589D01*
X003240Y-005642D01*
X003142Y-005740D01*
X003089Y-005868D01*
X003089Y-006007D01*
X003142Y-006135D01*
X003240Y-006233D01*
X003368Y-006286D01*
X003447Y-006286D01*
X003739Y-006578D01*
X003827Y-006615D01*
X005048Y-006615D01*
X005136Y-006578D01*
X005203Y-006511D01*
X005349Y-006365D01*
X005944Y-006365D01*
X006056Y-006411D01*
X006194Y-006411D01*
X006323Y-006358D01*
X006421Y-006260D01*
X006474Y-006132D01*
X006474Y-005993D01*
X006421Y-005865D01*
X006323Y-005767D01*
X006194Y-005714D01*
X006099Y-005714D01*
X006099Y-005681D01*
X006046Y-005552D01*
X005948Y-005454D01*
X005819Y-005401D01*
X005681Y-005401D01*
X005552Y-005454D01*
X005497Y-005510D01*
X005329Y-005510D01*
X005474Y-005365D01*
X005872Y-005365D01*
X005927Y-005421D01*
X006056Y-005474D01*
X006194Y-005474D01*
X006323Y-005421D01*
X006421Y-005323D01*
X006474Y-005194D01*
X006474Y-005056D01*
X006440Y-004974D01*
X006569Y-004974D01*
X006698Y-004921D01*
X006796Y-004823D01*
X006849Y-004694D01*
X006849Y-004556D01*
X006796Y-004427D01*
X006698Y-004329D01*
X006585Y-004283D01*
X006671Y-004198D01*
X006724Y-004069D01*
X006724Y-003931D01*
X006674Y-003810D01*
X006768Y-003810D01*
X006820Y-003862D01*
X006977Y-003927D01*
X007148Y-003927D01*
X007305Y-003862D01*
X007425Y-003742D01*
X007490Y-003585D01*
X007490Y-003415D01*
X007481Y-003393D02*
X016073Y-003393D01*
X016073Y-003335D02*
X007457Y-003335D01*
X007432Y-003276D02*
X016073Y-003276D01*
X016037Y-003218D02*
X007385Y-003218D01*
X007326Y-003159D02*
X016001Y-003159D01*
X015977Y-003101D02*
X007215Y-003101D01*
X007392Y-002885D02*
X007490Y-002983D01*
X007618Y-003036D01*
X007757Y-003036D01*
X007885Y-002983D01*
X007941Y-002928D01*
X008571Y-002928D01*
X008579Y-002948D01*
X008677Y-003046D01*
X008806Y-003099D01*
X008944Y-003099D01*
X009073Y-003046D01*
X009171Y-002948D01*
X009224Y-002819D01*
X009224Y-002681D01*
X009171Y-002552D01*
X009073Y-002454D01*
X008944Y-002401D01*
X008806Y-002401D01*
X008694Y-002448D01*
X007941Y-002448D01*
X007885Y-002392D01*
X007757Y-002339D01*
X007618Y-002339D01*
X007490Y-002392D01*
X007392Y-002490D01*
X007339Y-002618D01*
X007339Y-002757D01*
X007392Y-002885D01*
X007384Y-002867D02*
X000499Y-002867D01*
X000499Y-002925D02*
X007432Y-002925D01*
X007491Y-002984D02*
X000499Y-002984D01*
X000499Y-003042D02*
X008674Y-003042D01*
X008615Y-002984D02*
X007884Y-002984D01*
X007360Y-002808D02*
X000499Y-002808D01*
X000499Y-002750D02*
X007339Y-002750D01*
X007339Y-002691D02*
X000499Y-002691D01*
X000499Y-002633D02*
X007339Y-002633D01*
X007357Y-002574D02*
X000499Y-002574D01*
X000499Y-002516D02*
X007381Y-002516D01*
X007425Y-002457D02*
X006422Y-002457D01*
X006382Y-002474D02*
X006510Y-002421D01*
X006608Y-002323D01*
X006661Y-002194D01*
X006661Y-002056D01*
X006608Y-001927D01*
X006510Y-001829D01*
X006382Y-001776D01*
X006349Y-001776D01*
X006349Y-001743D01*
X006296Y-001615D01*
X006239Y-001558D01*
X006286Y-001444D01*
X006286Y-001306D01*
X006233Y-001177D01*
X006135Y-001079D01*
X006007Y-001026D01*
X005868Y-001026D01*
X005740Y-001079D01*
X005684Y-001135D01*
X004378Y-001135D01*
X004323Y-001079D01*
X004194Y-001026D01*
X004056Y-001026D01*
X003927Y-001079D01*
X003829Y-001177D01*
X003776Y-001306D01*
X003776Y-001444D01*
X003829Y-001573D01*
X003927Y-001671D01*
X004056Y-001724D01*
X004194Y-001724D01*
X004323Y-001671D01*
X004378Y-001615D01*
X004392Y-001615D01*
X004392Y-001615D01*
X004339Y-001743D01*
X004339Y-001882D01*
X004392Y-002010D01*
X004490Y-002108D01*
X004618Y-002161D01*
X004714Y-002161D01*
X004714Y-002194D01*
X004767Y-002323D01*
X004865Y-002421D01*
X004993Y-002474D01*
X005132Y-002474D01*
X005260Y-002421D01*
X005316Y-002365D01*
X006059Y-002365D01*
X006115Y-002421D01*
X006243Y-002474D01*
X006382Y-002474D01*
X006532Y-002399D02*
X007483Y-002399D01*
X007615Y-002340D02*
X006591Y-002340D01*
X006625Y-002282D02*
X016974Y-002282D01*
X016964Y-002223D02*
X010321Y-002223D01*
X010319Y-002224D02*
X010448Y-002171D01*
X010546Y-002073D01*
X010599Y-001944D01*
X010599Y-001806D01*
X010560Y-001712D01*
X010560Y-001288D01*
X010599Y-001194D01*
X010599Y-001056D01*
X010546Y-000927D01*
X010448Y-000829D01*
X010319Y-000776D01*
X010181Y-000776D01*
X010052Y-000829D01*
X009954Y-000927D01*
X009901Y-001056D01*
X009901Y-001194D01*
X009940Y-001288D01*
X009940Y-001712D01*
X009901Y-001806D01*
X009901Y-001944D01*
X009954Y-002073D01*
X010052Y-002171D01*
X010181Y-002224D01*
X010319Y-002224D01*
X010179Y-002223D02*
X006649Y-002223D01*
X006661Y-002165D02*
X010046Y-002165D01*
X009988Y-002106D02*
X006661Y-002106D01*
X006658Y-002048D02*
X009944Y-002048D01*
X009920Y-001989D02*
X006634Y-001989D01*
X006609Y-001931D02*
X009901Y-001931D01*
X009901Y-001872D02*
X006553Y-001872D01*
X006472Y-001814D02*
X009901Y-001814D01*
X009922Y-001755D02*
X006349Y-001755D01*
X006329Y-001697D02*
X009940Y-001697D01*
X009940Y-001638D02*
X006305Y-001638D01*
X006260Y-001580D02*
X009940Y-001580D01*
X009940Y-001521D02*
X006254Y-001521D01*
X006279Y-001463D02*
X009940Y-001463D01*
X009940Y-001404D02*
X006286Y-001404D01*
X006286Y-001346D02*
X009940Y-001346D01*
X009940Y-001287D02*
X006279Y-001287D01*
X006254Y-001229D02*
X009915Y-001229D01*
X009901Y-001170D02*
X006226Y-001170D01*
X006167Y-001112D02*
X009901Y-001112D01*
X009902Y-001053D02*
X006071Y-001053D01*
X005804Y-001053D02*
X004259Y-001053D01*
X004355Y-001112D02*
X005708Y-001112D01*
X006040Y-000240D02*
X006210Y-000240D01*
X006367Y-000175D01*
X006487Y-000055D01*
X006552Y000102D01*
X006552Y000273D01*
X006487Y000430D01*
X006367Y000550D01*
X006210Y000615D01*
X006198Y000615D01*
X006138Y000676D01*
X006051Y000763D01*
X005937Y000810D01*
X002982Y000810D01*
X002930Y000862D01*
X002773Y000927D01*
X002602Y000927D01*
X002445Y000862D01*
X002325Y000742D01*
X002260Y000585D01*
X000691Y000585D01*
X000671Y000635D02*
X000625Y000681D01*
X000625Y001382D01*
X000671Y001427D01*
X000724Y001556D01*
X000724Y001694D01*
X000671Y001823D01*
X000573Y001921D01*
X000499Y001951D01*
X000500Y006000D01*
X000500Y005909D02*
X006157Y005909D01*
X006215Y005850D02*
X000500Y005850D01*
X000500Y005792D02*
X006306Y005792D01*
X006714Y005675D02*
X000500Y005675D01*
X000500Y005733D02*
X006730Y005733D01*
X006714Y005616D02*
X000500Y005616D01*
X000500Y005558D02*
X006714Y005558D01*
X006737Y005499D02*
X000500Y005499D01*
X000500Y005441D02*
X006761Y005441D01*
X006812Y005382D02*
X000500Y005382D01*
X000500Y005324D02*
X006768Y005324D01*
X006743Y005265D02*
X000500Y005265D01*
X000500Y005207D02*
X006719Y005207D01*
X006714Y005148D02*
X000500Y005148D01*
X000500Y005090D02*
X006714Y005090D01*
X006724Y005031D02*
X000500Y005031D01*
X000500Y004973D02*
X006748Y004973D01*
X006780Y004914D02*
X000500Y004914D01*
X000500Y004856D02*
X006839Y004856D01*
X006943Y004797D02*
X000500Y004797D01*
X000500Y004739D02*
X002174Y004739D01*
X002248Y004758D02*
X001973Y004685D01*
X001727Y004542D01*
X001526Y004341D01*
X001384Y004095D01*
X000500Y004095D01*
X000500Y004037D02*
X001368Y004037D01*
X001384Y004095D02*
X001310Y003821D01*
X001310Y003536D01*
X001384Y003262D01*
X001526Y003016D01*
X001727Y002815D01*
X001973Y002673D01*
X002248Y002599D01*
X002532Y002599D01*
X002806Y002673D01*
X003053Y002815D01*
X003254Y003016D01*
X003396Y003262D01*
X003469Y003536D01*
X003469Y003821D01*
X003396Y004095D01*
X006011Y004095D01*
X006010Y004092D02*
X006085Y004272D01*
X006222Y004410D01*
X006403Y004484D01*
X006597Y004484D01*
X006778Y004410D01*
X006915Y004272D01*
X006990Y004092D01*
X006990Y003297D01*
X006915Y003117D01*
X006778Y002979D01*
X006597Y002904D01*
X006403Y002904D01*
X006222Y002979D01*
X006085Y003117D01*
X006010Y003297D01*
X006010Y004092D01*
X006010Y004037D02*
X003412Y004037D01*
X003396Y004095D02*
X003254Y004341D01*
X003053Y004542D01*
X002806Y004685D01*
X002532Y004758D01*
X002248Y004758D01*
X001965Y004680D02*
X000500Y004680D01*
X000500Y004622D02*
X001864Y004622D01*
X001763Y004563D02*
X000500Y004563D01*
X000500Y004505D02*
X001689Y004505D01*
X001630Y004446D02*
X000500Y004446D01*
X000500Y004388D02*
X001572Y004388D01*
X001519Y004329D02*
X000500Y004329D01*
X000500Y004271D02*
X001485Y004271D01*
X001451Y004212D02*
X000500Y004212D01*
X000500Y004154D02*
X001417Y004154D01*
X001352Y003978D02*
X000500Y003978D01*
X000500Y003920D02*
X001337Y003920D01*
X001321Y003861D02*
X000500Y003861D01*
X000500Y003803D02*
X001310Y003803D01*
X001310Y003744D02*
X000500Y003744D01*
X000500Y003686D02*
X001310Y003686D01*
X001310Y003627D02*
X000500Y003627D01*
X000500Y003569D02*
X001310Y003569D01*
X001317Y003510D02*
X000500Y003510D01*
X000500Y003452D02*
X001333Y003452D01*
X001349Y003393D02*
X000500Y003393D01*
X000500Y003335D02*
X001364Y003335D01*
X001380Y003276D02*
X000500Y003276D01*
X000500Y003218D02*
X001409Y003218D01*
X001443Y003159D02*
X000500Y003159D01*
X000500Y003101D02*
X001477Y003101D01*
X001511Y003042D02*
X000500Y003042D01*
X000500Y002984D02*
X001558Y002984D01*
X001617Y002925D02*
X000500Y002925D01*
X000500Y002867D02*
X001675Y002867D01*
X001738Y002808D02*
X000500Y002808D01*
X000500Y002750D02*
X001840Y002750D01*
X001941Y002691D02*
X000500Y002691D01*
X000500Y002633D02*
X002122Y002633D01*
X002657Y002633D02*
X013343Y002633D01*
X013468Y002599D02*
X013194Y002673D01*
X012947Y002815D01*
X012746Y003016D01*
X012604Y003262D01*
X012531Y003536D01*
X012531Y003821D01*
X012604Y004095D01*
X009989Y004095D01*
X009990Y004092D02*
X009915Y004272D01*
X009778Y004410D01*
X009597Y004484D01*
X009403Y004484D01*
X009222Y004410D01*
X009085Y004272D01*
X009010Y004092D01*
X009010Y003297D01*
X009085Y003117D01*
X009222Y002979D01*
X009403Y002904D01*
X009597Y002904D01*
X009778Y002979D01*
X009915Y003117D01*
X009990Y003297D01*
X009990Y004092D01*
X009990Y004037D02*
X012588Y004037D01*
X012604Y004095D02*
X012746Y004341D01*
X012947Y004542D01*
X013194Y004685D01*
X013468Y004758D01*
X013752Y004758D01*
X014027Y004685D01*
X014273Y004542D01*
X014474Y004341D01*
X014616Y004095D01*
X017500Y004095D01*
X017500Y004037D02*
X014632Y004037D01*
X014616Y004095D02*
X014690Y003821D01*
X014690Y003536D01*
X014616Y003262D01*
X014474Y003016D01*
X014273Y002815D01*
X014027Y002673D01*
X013752Y002599D01*
X013468Y002599D01*
X013878Y002633D02*
X017500Y002633D01*
X017500Y002691D02*
X014059Y002691D01*
X014160Y002750D02*
X017500Y002750D01*
X017500Y002808D02*
X014262Y002808D01*
X014325Y002867D02*
X017500Y002867D01*
X017500Y002925D02*
X014383Y002925D01*
X014442Y002984D02*
X017500Y002984D01*
X017500Y003042D02*
X014489Y003042D01*
X014523Y003101D02*
X017500Y003101D01*
X017500Y003159D02*
X014557Y003159D01*
X014591Y003218D02*
X017500Y003218D01*
X017500Y003276D02*
X014620Y003276D01*
X014636Y003335D02*
X017500Y003335D01*
X017500Y003393D02*
X014651Y003393D01*
X014667Y003452D02*
X017500Y003452D01*
X017500Y003510D02*
X014683Y003510D01*
X014690Y003569D02*
X017500Y003569D01*
X017500Y003627D02*
X014690Y003627D01*
X014690Y003686D02*
X017500Y003686D01*
X017500Y003744D02*
X014690Y003744D01*
X014690Y003803D02*
X017500Y003803D01*
X017500Y003861D02*
X014679Y003861D01*
X014663Y003920D02*
X017500Y003920D01*
X017500Y003978D02*
X014648Y003978D01*
X014583Y004154D02*
X017500Y004154D01*
X017500Y004212D02*
X014549Y004212D01*
X014515Y004271D02*
X017500Y004271D01*
X017500Y004329D02*
X014481Y004329D01*
X014428Y004388D02*
X017500Y004388D01*
X017500Y004446D02*
X014370Y004446D01*
X014311Y004505D02*
X017500Y004505D01*
X017500Y004563D02*
X014237Y004563D01*
X014136Y004622D02*
X017500Y004622D01*
X017500Y004680D02*
X014035Y004680D01*
X013826Y004739D02*
X017500Y004739D01*
X017500Y004797D02*
X007182Y004797D01*
X007286Y004856D02*
X017500Y004856D01*
X017500Y004914D02*
X007345Y004914D01*
X007377Y004973D02*
X017500Y004973D01*
X017500Y005031D02*
X007401Y005031D01*
X007403Y004484D02*
X007222Y004410D01*
X007085Y004272D01*
X007010Y004092D01*
X007010Y003297D01*
X007085Y003117D01*
X007222Y002979D01*
X007403Y002904D01*
X007597Y002904D01*
X007778Y002979D01*
X007915Y003117D01*
X007990Y003297D01*
X007990Y004092D01*
X007915Y004272D01*
X007778Y004410D01*
X007597Y004484D01*
X007403Y004484D01*
X007310Y004446D02*
X006690Y004446D01*
X006800Y004388D02*
X007200Y004388D01*
X007142Y004329D02*
X006858Y004329D01*
X006916Y004271D02*
X007084Y004271D01*
X007060Y004212D02*
X006940Y004212D01*
X006964Y004154D02*
X007036Y004154D01*
X007011Y004095D02*
X006989Y004095D01*
X006990Y004037D02*
X007010Y004037D01*
X007010Y003978D02*
X006990Y003978D01*
X006990Y003920D02*
X007010Y003920D01*
X007010Y003861D02*
X006990Y003861D01*
X006990Y003803D02*
X007010Y003803D01*
X007010Y003744D02*
X006990Y003744D01*
X006990Y003686D02*
X007010Y003686D01*
X007010Y003627D02*
X006990Y003627D01*
X006990Y003569D02*
X007010Y003569D01*
X007010Y003510D02*
X006990Y003510D01*
X006990Y003452D02*
X007010Y003452D01*
X007010Y003393D02*
X006990Y003393D01*
X006990Y003335D02*
X007010Y003335D01*
X007019Y003276D02*
X006981Y003276D01*
X006957Y003218D02*
X007043Y003218D01*
X007067Y003159D02*
X006933Y003159D01*
X006899Y003101D02*
X007101Y003101D01*
X007159Y003042D02*
X006841Y003042D01*
X006782Y002984D02*
X007218Y002984D01*
X007353Y002925D02*
X006647Y002925D01*
X006353Y002925D02*
X003163Y002925D01*
X003105Y002867D02*
X012895Y002867D01*
X012837Y002925D02*
X009647Y002925D01*
X009782Y002984D02*
X012778Y002984D01*
X012731Y003042D02*
X009841Y003042D01*
X009899Y003101D02*
X012697Y003101D01*
X012664Y003159D02*
X009933Y003159D01*
X009957Y003218D02*
X012630Y003218D01*
X012600Y003276D02*
X009981Y003276D01*
X009990Y003335D02*
X012585Y003335D01*
X012569Y003393D02*
X009990Y003393D01*
X009990Y003452D02*
X012553Y003452D01*
X012538Y003510D02*
X009990Y003510D01*
X009990Y003569D02*
X012531Y003569D01*
X012531Y003627D02*
X009990Y003627D01*
X009990Y003686D02*
X012531Y003686D01*
X012531Y003744D02*
X009990Y003744D01*
X009990Y003803D02*
X012531Y003803D01*
X012541Y003861D02*
X009990Y003861D01*
X009990Y003920D02*
X012557Y003920D01*
X012573Y003978D02*
X009990Y003978D01*
X009964Y004154D02*
X012638Y004154D01*
X012672Y004212D02*
X009940Y004212D01*
X009916Y004271D02*
X012705Y004271D01*
X012739Y004329D02*
X009858Y004329D01*
X009800Y004388D02*
X012792Y004388D01*
X012851Y004446D02*
X009690Y004446D01*
X009310Y004446D02*
X008690Y004446D01*
X008778Y004410D02*
X008597Y004484D01*
X008403Y004484D01*
X008222Y004410D01*
X008085Y004272D01*
X008010Y004092D01*
X008010Y003297D01*
X008085Y003117D01*
X008222Y002979D01*
X008403Y002904D01*
X008597Y002904D01*
X008778Y002979D01*
X008915Y003117D01*
X008990Y003297D01*
X008990Y004092D01*
X008915Y004272D01*
X008778Y004410D01*
X008800Y004388D02*
X009200Y004388D01*
X009142Y004329D02*
X008858Y004329D01*
X008916Y004271D02*
X009084Y004271D01*
X009060Y004212D02*
X008940Y004212D01*
X008964Y004154D02*
X009036Y004154D01*
X009011Y004095D02*
X008989Y004095D01*
X008990Y004037D02*
X009010Y004037D01*
X009010Y003978D02*
X008990Y003978D01*
X008990Y003920D02*
X009010Y003920D01*
X009010Y003861D02*
X008990Y003861D01*
X008990Y003803D02*
X009010Y003803D01*
X009010Y003744D02*
X008990Y003744D01*
X008990Y003686D02*
X009010Y003686D01*
X009010Y003627D02*
X008990Y003627D01*
X008990Y003569D02*
X009010Y003569D01*
X009010Y003510D02*
X008990Y003510D01*
X008990Y003452D02*
X009010Y003452D01*
X009010Y003393D02*
X008990Y003393D01*
X008990Y003335D02*
X009010Y003335D01*
X009019Y003276D02*
X008981Y003276D01*
X008957Y003218D02*
X009043Y003218D01*
X009067Y003159D02*
X008933Y003159D01*
X008899Y003101D02*
X009101Y003101D01*
X009159Y003042D02*
X008841Y003042D01*
X008782Y002984D02*
X009218Y002984D01*
X009353Y002925D02*
X008647Y002925D01*
X008353Y002925D02*
X007647Y002925D01*
X007782Y002984D02*
X008218Y002984D01*
X008159Y003042D02*
X007841Y003042D01*
X007899Y003101D02*
X008101Y003101D01*
X008067Y003159D02*
X007933Y003159D01*
X007957Y003218D02*
X008043Y003218D01*
X008019Y003276D02*
X007981Y003276D01*
X007990Y003335D02*
X008010Y003335D01*
X008010Y003393D02*
X007990Y003393D01*
X007990Y003452D02*
X008010Y003452D01*
X008010Y003510D02*
X007990Y003510D01*
X007990Y003569D02*
X008010Y003569D01*
X008010Y003627D02*
X007990Y003627D01*
X007990Y003686D02*
X008010Y003686D01*
X008010Y003744D02*
X007990Y003744D01*
X007990Y003803D02*
X008010Y003803D01*
X008010Y003861D02*
X007990Y003861D01*
X007990Y003920D02*
X008010Y003920D01*
X008010Y003978D02*
X007990Y003978D01*
X007990Y004037D02*
X008010Y004037D01*
X008011Y004095D02*
X007989Y004095D01*
X007964Y004154D02*
X008036Y004154D01*
X008060Y004212D02*
X007940Y004212D01*
X007916Y004271D02*
X008084Y004271D01*
X008142Y004329D02*
X007858Y004329D01*
X007800Y004388D02*
X008200Y004388D01*
X008310Y004446D02*
X007690Y004446D01*
X008589Y005090D02*
X017500Y005090D01*
X017500Y005148D02*
X008675Y005148D01*
X008733Y005207D02*
X017500Y005207D01*
X017500Y005265D02*
X008792Y005265D01*
X008996Y005324D02*
X017500Y005324D01*
X017500Y005382D02*
X009063Y005382D01*
X009114Y005441D02*
X017500Y005441D01*
X017500Y005499D02*
X009138Y005499D01*
X009161Y005558D02*
X017500Y005558D01*
X017500Y005616D02*
X009161Y005616D01*
X009161Y005675D02*
X017500Y005675D01*
X017500Y005733D02*
X009145Y005733D01*
X009444Y005792D02*
X017500Y005792D01*
X017500Y005850D02*
X009535Y005850D01*
X009593Y005909D02*
X017500Y005909D01*
X017500Y005967D02*
X009635Y005967D01*
X009659Y006026D02*
X017500Y006026D01*
X017500Y006084D02*
X009683Y006084D01*
X009690Y006143D02*
X017500Y006143D01*
X017500Y006201D02*
X009690Y006201D01*
X009690Y006260D02*
X017500Y006260D01*
X017500Y006318D02*
X009672Y006318D01*
X009648Y006377D02*
X017500Y006377D01*
X017500Y006435D02*
X015588Y006435D01*
X015635Y006454D02*
X015507Y006401D01*
X015368Y006401D01*
X015240Y006454D01*
X015142Y006552D01*
X009508Y006552D01*
X009566Y006494D02*
X015201Y006494D01*
X015142Y006552D02*
X015089Y006681D01*
X015089Y006819D01*
X015142Y006948D01*
X015240Y007046D01*
X015368Y007099D01*
X015449Y007099D01*
X015513Y007125D01*
X015612Y007125D01*
X016382Y007125D01*
X016427Y007171D01*
X016556Y007224D01*
X016694Y007224D01*
X016823Y007171D01*
X016921Y007073D01*
X016974Y006944D01*
X016974Y006806D01*
X016921Y006677D01*
X016823Y006579D01*
X016694Y006526D01*
X016556Y006526D01*
X016427Y006579D01*
X016382Y006625D01*
X015763Y006625D01*
X015733Y006552D01*
X016493Y006552D01*
X016396Y006611D02*
X015757Y006611D01*
X015733Y006552D02*
X015635Y006454D01*
X015674Y006494D02*
X017500Y006494D01*
X017500Y006552D02*
X016757Y006552D01*
X016854Y006611D02*
X017500Y006611D01*
X017500Y006669D02*
X016912Y006669D01*
X016941Y006728D02*
X017500Y006728D01*
X017500Y006786D02*
X016966Y006786D01*
X016974Y006845D02*
X017500Y006845D01*
X017500Y006903D02*
X016974Y006903D01*
X016967Y006962D02*
X017500Y006962D01*
X017500Y007020D02*
X016942Y007020D01*
X016915Y007079D02*
X017500Y007079D01*
X017500Y007137D02*
X016856Y007137D01*
X016762Y007196D02*
X017500Y007196D01*
X017500Y007254D02*
X004938Y007254D01*
X004938Y007196D02*
X016488Y007196D01*
X016394Y007137D02*
X004938Y007137D01*
X004938Y007079D02*
X015319Y007079D01*
X015214Y007020D02*
X004938Y007020D01*
X004938Y006962D02*
X015156Y006962D01*
X015123Y006903D02*
X004938Y006903D01*
X004938Y006845D02*
X015099Y006845D01*
X015089Y006786D02*
X004938Y006786D01*
X004938Y006728D02*
X015089Y006728D01*
X015287Y006435D02*
X009624Y006435D01*
X006310Y004446D02*
X003149Y004446D01*
X003091Y004505D02*
X012909Y004505D01*
X012983Y004563D02*
X003017Y004563D01*
X002916Y004622D02*
X013084Y004622D01*
X013186Y004680D02*
X002814Y004680D01*
X002605Y004739D02*
X013395Y004739D01*
X012959Y002808D02*
X003041Y002808D01*
X002940Y002750D02*
X013060Y002750D01*
X013161Y002691D02*
X002839Y002691D01*
X003222Y002984D02*
X006218Y002984D01*
X006159Y003042D02*
X003269Y003042D01*
X003303Y003101D02*
X006101Y003101D01*
X006067Y003159D02*
X003336Y003159D01*
X003370Y003218D02*
X006043Y003218D01*
X006019Y003276D02*
X003400Y003276D01*
X003415Y003335D02*
X006010Y003335D01*
X006010Y003393D02*
X003431Y003393D01*
X003447Y003452D02*
X006010Y003452D01*
X006010Y003510D02*
X003462Y003510D01*
X003469Y003569D02*
X006010Y003569D01*
X006010Y003627D02*
X003469Y003627D01*
X003469Y003686D02*
X006010Y003686D01*
X006010Y003744D02*
X003469Y003744D01*
X003469Y003803D02*
X006010Y003803D01*
X006010Y003861D02*
X003459Y003861D01*
X003443Y003920D02*
X006010Y003920D01*
X006010Y003978D02*
X003427Y003978D01*
X003362Y004154D02*
X006036Y004154D01*
X006060Y004212D02*
X003328Y004212D01*
X003295Y004271D02*
X006084Y004271D01*
X006142Y004329D02*
X003261Y004329D01*
X003208Y004388D02*
X006200Y004388D01*
X006053Y000761D02*
X009440Y000761D01*
X009440Y000819D02*
X002973Y000819D01*
X002893Y000878D02*
X009440Y000878D01*
X009440Y000936D02*
X003403Y000936D01*
X003448Y000954D02*
X003319Y000901D01*
X003181Y000901D01*
X003052Y000954D01*
X003007Y001000D01*
X001868Y001000D01*
X001823Y000954D01*
X001694Y000901D01*
X001556Y000901D01*
X001427Y000954D01*
X001329Y001052D01*
X001276Y001181D01*
X001276Y001319D01*
X001329Y001448D01*
X001427Y001546D01*
X001556Y001599D01*
X001694Y001599D01*
X001823Y001546D01*
X001868Y001500D01*
X003007Y001500D01*
X003052Y001546D01*
X003181Y001599D01*
X003319Y001599D01*
X003448Y001546D01*
X003546Y001448D01*
X003599Y001319D01*
X003599Y001181D01*
X003546Y001052D01*
X003448Y000954D01*
X003488Y000995D02*
X009427Y000995D01*
X009440Y000962D02*
X009440Y000688D01*
X009487Y000574D01*
X009574Y000487D01*
X010166Y-000104D01*
X010204Y-000198D01*
X010302Y-000296D01*
X010431Y-000349D01*
X010569Y-000349D01*
X010698Y-000296D01*
X010796Y-000198D01*
X010849Y-000069D01*
X010849Y000069D01*
X010796Y000198D01*
X010698Y000296D01*
X010604Y000334D01*
X010060Y000878D01*
X010060Y000962D01*
X010099Y001056D01*
X010099Y001194D01*
X010046Y001323D01*
X009948Y001421D01*
X009819Y001474D01*
X009681Y001474D01*
X009552Y001421D01*
X009454Y001323D01*
X009401Y001194D01*
X009401Y001056D01*
X009440Y000962D01*
X009402Y001053D02*
X003546Y001053D01*
X003570Y001112D02*
X009401Y001112D01*
X009401Y001170D02*
X003594Y001170D01*
X003599Y001229D02*
X009415Y001229D01*
X009440Y001287D02*
X003599Y001287D01*
X003588Y001346D02*
X009477Y001346D01*
X009536Y001404D02*
X003564Y001404D01*
X003531Y001463D02*
X009654Y001463D01*
X009846Y001463D02*
X017499Y001463D01*
X017499Y001521D02*
X003472Y001521D01*
X003366Y001580D02*
X017499Y001580D01*
X017499Y001638D02*
X000724Y001638D01*
X000724Y001580D02*
X001509Y001580D01*
X001403Y001521D02*
X000709Y001521D01*
X000685Y001463D02*
X001344Y001463D01*
X001311Y001404D02*
X000647Y001404D01*
X000625Y001346D02*
X001287Y001346D01*
X001276Y001287D02*
X000625Y001287D01*
X000625Y001229D02*
X001276Y001229D01*
X001281Y001170D02*
X000625Y001170D01*
X000625Y001112D02*
X001305Y001112D01*
X001329Y001053D02*
X000625Y001053D01*
X000625Y000995D02*
X001387Y000995D01*
X001472Y000936D02*
X000625Y000936D01*
X000625Y000878D02*
X002482Y000878D01*
X002402Y000819D02*
X000625Y000819D01*
X000625Y000761D02*
X002343Y000761D01*
X002308Y000702D02*
X000625Y000702D01*
X000662Y000644D02*
X002284Y000644D01*
X002260Y000585D02*
X002260Y000415D01*
X002325Y000258D01*
X002445Y000138D01*
X002602Y000073D01*
X002773Y000073D01*
X002930Y000138D01*
X002982Y000190D01*
X004651Y000190D01*
X004651Y000181D01*
X004704Y000052D01*
X004802Y-000046D01*
X004931Y-000099D01*
X005069Y-000099D01*
X005198Y-000046D01*
X005296Y000052D01*
X005349Y000181D01*
X005349Y000190D01*
X005698Y000190D01*
X005698Y000102D01*
X005763Y-000055D01*
X005883Y-000175D01*
X006040Y-000240D01*
X006026Y-000234D02*
X000499Y-000234D01*
X000499Y-000176D02*
X005884Y-000176D01*
X005825Y-000117D02*
X000499Y-000117D01*
X000499Y-000059D02*
X004833Y-000059D01*
X004757Y000000D02*
X000499Y000000D01*
X000499Y000059D02*
X004702Y000059D01*
X004678Y000117D02*
X002880Y000117D01*
X002968Y000176D02*
X004653Y000176D01*
X005167Y-000059D02*
X005766Y-000059D01*
X005740Y000000D02*
X005243Y000000D01*
X005298Y000059D02*
X005716Y000059D01*
X005698Y000117D02*
X005322Y000117D01*
X005347Y000176D02*
X005698Y000176D01*
X006170Y000644D02*
X009459Y000644D01*
X009440Y000702D02*
X006111Y000702D01*
X006282Y000585D02*
X009483Y000585D01*
X009535Y000527D02*
X006391Y000527D01*
X006449Y000468D02*
X009594Y000468D01*
X009652Y000410D02*
X006496Y000410D01*
X006520Y000351D02*
X009711Y000351D01*
X009769Y000293D02*
X006544Y000293D01*
X006552Y000234D02*
X009828Y000234D01*
X009886Y000176D02*
X006552Y000176D01*
X006552Y000117D02*
X009945Y000117D01*
X010003Y000059D02*
X006534Y000059D01*
X006510Y000000D02*
X010062Y000000D01*
X010120Y-000059D02*
X006484Y-000059D01*
X006425Y-000117D02*
X010171Y-000117D01*
X010195Y-000176D02*
X006366Y-000176D01*
X006224Y-000234D02*
X010241Y-000234D01*
X010299Y-000293D02*
X000499Y-000293D01*
X000499Y-000351D02*
X017499Y-000351D01*
X017499Y-000293D02*
X010701Y-000293D01*
X010759Y-000234D02*
X017499Y-000234D01*
X017499Y-000176D02*
X010805Y-000176D01*
X010829Y-000117D02*
X017499Y-000117D01*
X017499Y-000059D02*
X010849Y-000059D01*
X010849Y000000D02*
X017499Y000000D01*
X017499Y000059D02*
X010849Y000059D01*
X010829Y000117D02*
X017499Y000117D01*
X017499Y000176D02*
X010805Y000176D01*
X010759Y000234D02*
X017499Y000234D01*
X017499Y000293D02*
X010701Y000293D01*
X010587Y000351D02*
X017499Y000351D01*
X017499Y000410D02*
X010529Y000410D01*
X010470Y000468D02*
X017499Y000468D01*
X017499Y000527D02*
X010412Y000527D01*
X010353Y000585D02*
X017499Y000585D01*
X017499Y000644D02*
X010295Y000644D01*
X010236Y000702D02*
X017499Y000702D01*
X017499Y000761D02*
X010178Y000761D01*
X010119Y000819D02*
X017499Y000819D01*
X017499Y000878D02*
X010061Y000878D01*
X010060Y000936D02*
X017499Y000936D01*
X017499Y000995D02*
X010073Y000995D01*
X010098Y001053D02*
X017499Y001053D01*
X017499Y001112D02*
X010099Y001112D01*
X010099Y001170D02*
X017499Y001170D01*
X017499Y001229D02*
X010085Y001229D01*
X010060Y001287D02*
X017499Y001287D01*
X017499Y001346D02*
X010023Y001346D01*
X009964Y001404D02*
X017499Y001404D01*
X017499Y001697D02*
X000723Y001697D01*
X000699Y001755D02*
X017499Y001755D01*
X017499Y001814D02*
X000674Y001814D01*
X000621Y001872D02*
X017499Y001872D01*
X017499Y001931D02*
X000549Y001931D01*
X000499Y001989D02*
X017499Y001989D01*
X017499Y002048D02*
X000499Y002048D01*
X000499Y002106D02*
X017499Y002106D01*
X017499Y002165D02*
X000499Y002165D01*
X000499Y002223D02*
X017499Y002223D01*
X017499Y002282D02*
X000499Y002282D01*
X000499Y002340D02*
X017499Y002340D01*
X017499Y002399D02*
X000499Y002399D01*
X000500Y002457D02*
X017500Y002457D01*
X017500Y002516D02*
X000500Y002516D01*
X000500Y002574D02*
X017500Y002574D01*
X017499Y-000410D02*
X000499Y-000410D01*
X000499Y-000468D02*
X017499Y-000468D01*
X017499Y-000527D02*
X000499Y-000527D01*
X000499Y-000585D02*
X017499Y-000585D01*
X017499Y-000644D02*
X000499Y-000644D01*
X000499Y-000702D02*
X017499Y-000702D01*
X017499Y-000761D02*
X000499Y-000761D01*
X000499Y-000819D02*
X010077Y-000819D01*
X010004Y-000878D02*
X000499Y-000878D01*
X000499Y-000936D02*
X009951Y-000936D01*
X009927Y-000995D02*
X000499Y-000995D01*
X000499Y-001053D02*
X003991Y-001053D01*
X003895Y-001112D02*
X000499Y-001112D01*
X000499Y-001170D02*
X003837Y-001170D01*
X003808Y-001229D02*
X000499Y-001229D01*
X000499Y-001287D02*
X003784Y-001287D01*
X003776Y-001346D02*
X000499Y-001346D01*
X000499Y-001404D02*
X003776Y-001404D01*
X003784Y-001463D02*
X000499Y-001463D01*
X000499Y-001521D02*
X003808Y-001521D01*
X003836Y-001580D02*
X000499Y-001580D01*
X000499Y-001638D02*
X003895Y-001638D01*
X003990Y-001697D02*
X000499Y-001697D01*
X000499Y-001755D02*
X004339Y-001755D01*
X004339Y-001814D02*
X000499Y-001814D01*
X000499Y-001872D02*
X004339Y-001872D01*
X004359Y-001931D02*
X000499Y-001931D01*
X000499Y-001989D02*
X004383Y-001989D01*
X004429Y-002048D02*
X000499Y-002048D01*
X000499Y-002106D02*
X004488Y-002106D01*
X004714Y-002165D02*
X000499Y-002165D01*
X000499Y-002223D02*
X004726Y-002223D01*
X004750Y-002282D02*
X000499Y-002282D01*
X000499Y-002340D02*
X004784Y-002340D01*
X004843Y-002399D02*
X000499Y-002399D01*
X000499Y-002457D02*
X004953Y-002457D01*
X005172Y-002457D02*
X006203Y-002457D01*
X006093Y-002399D02*
X005282Y-002399D01*
X004358Y-001697D02*
X004260Y-001697D01*
X004355Y-001638D02*
X004382Y-001638D01*
X003014Y-003159D02*
X006799Y-003159D01*
X006910Y-003101D02*
X002903Y-003101D01*
X002597Y-003101D02*
X000499Y-003101D01*
X000499Y-003159D02*
X002486Y-003159D01*
X002428Y-003218D02*
X000499Y-003218D01*
X000499Y-003276D02*
X002380Y-003276D01*
X002356Y-003335D02*
X000499Y-003335D01*
X000499Y-003393D02*
X002332Y-003393D01*
X002323Y-003452D02*
X000499Y-003452D01*
X000499Y-003510D02*
X002323Y-003510D01*
X002323Y-003569D02*
X000499Y-003569D01*
X000499Y-003627D02*
X002340Y-003627D01*
X002364Y-003686D02*
X000499Y-003686D01*
X000499Y-003744D02*
X002389Y-003744D01*
X002448Y-003803D02*
X000499Y-003803D01*
X000499Y-003861D02*
X002506Y-003861D01*
X002646Y-003920D02*
X000499Y-003920D01*
X000499Y-003978D02*
X003146Y-003978D01*
X003033Y-004037D02*
X000499Y-004037D01*
X000499Y-004095D02*
X002974Y-004095D01*
X002938Y-004154D02*
X000499Y-004154D01*
X000499Y-004212D02*
X002914Y-004212D01*
X002901Y-004271D02*
X000499Y-004271D01*
X000499Y-004329D02*
X002901Y-004329D01*
X002904Y-004388D02*
X000499Y-004388D01*
X000499Y-004446D02*
X002928Y-004446D01*
X002952Y-004505D02*
X000499Y-004505D01*
X000499Y-004563D02*
X003007Y-004563D01*
X003085Y-004622D02*
X000499Y-004622D01*
X000498Y-004680D02*
X003776Y-004680D01*
X003776Y-004622D02*
X003415Y-004622D01*
X003493Y-004563D02*
X003776Y-004563D01*
X003795Y-004739D02*
X000498Y-004739D01*
X000498Y-004797D02*
X003819Y-004797D01*
X003862Y-004856D02*
X000498Y-004856D01*
X000498Y-004914D02*
X003587Y-004914D01*
X003472Y-004973D02*
X000498Y-004973D01*
X000498Y-005031D02*
X003413Y-005031D01*
X003377Y-005090D02*
X000498Y-005090D01*
X000498Y-005148D02*
X003352Y-005148D01*
X003339Y-005207D02*
X000498Y-005207D01*
X000498Y-005265D02*
X003339Y-005265D01*
X003340Y-005324D02*
X000498Y-005324D01*
X000498Y-005382D02*
X003365Y-005382D01*
X003389Y-005441D02*
X000498Y-005441D01*
X000498Y-005499D02*
X003443Y-005499D01*
X003448Y-005558D02*
X000498Y-005558D01*
X000498Y-005616D02*
X003302Y-005616D01*
X003207Y-005675D02*
X000498Y-005675D01*
X000498Y-005733D02*
X003149Y-005733D01*
X003121Y-005792D02*
X000498Y-005792D01*
X000498Y-005850D02*
X003096Y-005850D01*
X003089Y-005909D02*
X000498Y-005909D01*
X000498Y-005967D02*
X003089Y-005967D01*
X003096Y-006026D02*
X000498Y-006026D01*
X000498Y-006084D02*
X003121Y-006084D01*
X003149Y-006143D02*
X000498Y-006143D01*
X000498Y-006201D02*
X003208Y-006201D01*
X003304Y-006260D02*
X000498Y-006260D01*
X000498Y-006318D02*
X003479Y-006318D01*
X003537Y-006377D02*
X000498Y-006377D01*
X000498Y-006435D02*
X003596Y-006435D01*
X003654Y-006494D02*
X000498Y-006494D01*
X000498Y-006552D02*
X003713Y-006552D01*
X003816Y-006611D02*
X000498Y-006611D01*
X000498Y-006669D02*
X009964Y-006669D01*
X009964Y-006728D02*
X000498Y-006728D01*
X000498Y-006786D02*
X009976Y-006786D01*
X010000Y-006845D02*
X000498Y-006845D01*
X000498Y-006903D02*
X010035Y-006903D01*
X010093Y-006962D02*
X000498Y-006962D01*
X000498Y-007020D02*
X010204Y-007020D01*
X010364Y-007079D02*
X000498Y-007079D01*
X000498Y-007137D02*
X010423Y-007137D01*
X010750Y-006786D02*
X011845Y-006786D01*
X011725Y-006845D02*
X010809Y-006845D01*
X010867Y-006903D02*
X011666Y-006903D01*
X011628Y-006962D02*
X010926Y-006962D01*
X010984Y-007020D02*
X011604Y-007020D01*
X011589Y-007079D02*
X011043Y-007079D01*
X011101Y-007137D02*
X011586Y-007137D01*
X011547Y-007177D02*
X011547Y-007177D01*
X011528Y-007196D02*
X011160Y-007196D01*
X011218Y-007254D02*
X011469Y-007254D01*
X011738Y-007664D02*
X012043Y-007664D01*
X012043Y-007722D02*
X011654Y-007722D01*
X011797Y-007605D02*
X012043Y-007605D01*
X012043Y-007547D02*
X011855Y-007547D01*
X011914Y-007488D02*
X012043Y-007488D01*
X012030Y-006786D02*
X012043Y-006786D01*
X012043Y-006728D02*
X010692Y-006728D01*
X010661Y-006669D02*
X012043Y-006669D01*
X012043Y-006611D02*
X010658Y-006611D01*
X010634Y-006552D02*
X012043Y-006552D01*
X012043Y-006494D02*
X010610Y-006494D01*
X010553Y-006435D02*
X012043Y-006435D01*
X012043Y-006377D02*
X010473Y-006377D01*
X010152Y-006377D02*
X006278Y-006377D01*
X006363Y-006318D02*
X012043Y-006318D01*
X012043Y-006260D02*
X006421Y-006260D01*
X006445Y-006201D02*
X012043Y-006201D01*
X012043Y-006143D02*
X006469Y-006143D01*
X006474Y-006084D02*
X012043Y-006084D01*
X012043Y-006026D02*
X006474Y-006026D01*
X006463Y-005967D02*
X012043Y-005967D01*
X012043Y-005909D02*
X006439Y-005909D01*
X006406Y-005850D02*
X012043Y-005850D01*
X012043Y-005792D02*
X006347Y-005792D01*
X006241Y-005733D02*
X012043Y-005733D01*
X012043Y-005675D02*
X006096Y-005675D01*
X006072Y-005616D02*
X012043Y-005616D01*
X012043Y-005558D02*
X006048Y-005558D01*
X005992Y-005499D02*
X012043Y-005499D01*
X012043Y-005441D02*
X006275Y-005441D01*
X006361Y-005382D02*
X012043Y-005382D01*
X012043Y-005324D02*
X006420Y-005324D01*
X006444Y-005265D02*
X012043Y-005265D01*
X012043Y-005207D02*
X006469Y-005207D01*
X006474Y-005148D02*
X012043Y-005148D01*
X012043Y-005090D02*
X006474Y-005090D01*
X006464Y-005031D02*
X012043Y-005031D01*
X012043Y-004973D02*
X006572Y-004973D01*
X006704Y-004914D02*
X012043Y-004914D01*
X012043Y-004856D02*
X006763Y-004856D01*
X006806Y-004797D02*
X012043Y-004797D01*
X012043Y-004739D02*
X006830Y-004739D01*
X006849Y-004680D02*
X012043Y-004680D01*
X012043Y-004622D02*
X006849Y-004622D01*
X006849Y-004563D02*
X012013Y-004563D01*
X011989Y-004505D02*
X006828Y-004505D01*
X006803Y-004446D02*
X011964Y-004446D01*
X011964Y-004388D02*
X006756Y-004388D01*
X006697Y-004329D02*
X011964Y-004329D01*
X011978Y-004271D02*
X006598Y-004271D01*
X006656Y-004212D02*
X012003Y-004212D01*
X012041Y-004154D02*
X006689Y-004154D01*
X006713Y-004095D02*
X012099Y-004095D01*
X012218Y-004037D02*
X006724Y-004037D01*
X006724Y-003978D02*
X012691Y-003978D01*
X012667Y-003920D02*
X007167Y-003920D01*
X007306Y-003861D02*
X012651Y-003861D01*
X012651Y-003803D02*
X007365Y-003803D01*
X007423Y-003744D02*
X012651Y-003744D01*
X012675Y-003686D02*
X007448Y-003686D01*
X007473Y-003627D02*
X012699Y-003627D01*
X012751Y-003569D02*
X007490Y-003569D01*
X007490Y-003510D02*
X012819Y-003510D01*
X012731Y-004037D02*
X012407Y-004037D01*
X012526Y-004095D02*
X012760Y-004095D01*
X012760Y-004154D02*
X012584Y-004154D01*
X012622Y-004212D02*
X012760Y-004212D01*
X012703Y-004271D02*
X012647Y-004271D01*
X013363Y-004914D02*
X016073Y-004914D01*
X016073Y-004856D02*
X013421Y-004856D01*
X013349Y-004973D02*
X016073Y-004973D01*
X016073Y-005031D02*
X013339Y-005031D01*
X013315Y-005090D02*
X016073Y-005090D01*
X016073Y-005148D02*
X013283Y-005148D01*
X013224Y-005207D02*
X016087Y-005207D01*
X016089Y-005265D02*
X014318Y-005265D01*
X014379Y-005324D02*
X016090Y-005324D01*
X016115Y-005382D02*
X014428Y-005382D01*
X014452Y-005441D02*
X016139Y-005441D01*
X016193Y-005499D02*
X014474Y-005499D01*
X014474Y-005558D02*
X016269Y-005558D01*
X016606Y-005558D02*
X016698Y-005558D01*
X016698Y-005616D02*
X014474Y-005616D01*
X014456Y-005675D02*
X016698Y-005675D01*
X016698Y-005733D02*
X014432Y-005733D01*
X014389Y-005792D02*
X016698Y-005792D01*
X016698Y-005850D02*
X014331Y-005850D01*
X014201Y-005909D02*
X016698Y-005909D01*
X016682Y-005499D02*
X016698Y-005499D01*
X016593Y-006318D02*
X014170Y-006318D01*
X014245Y-006377D02*
X016534Y-006377D01*
X016476Y-006435D02*
X014299Y-006435D01*
X014323Y-006494D02*
X016417Y-006494D01*
X016359Y-006552D02*
X014347Y-006552D01*
X014349Y-006611D02*
X016300Y-006611D01*
X016242Y-006669D02*
X014349Y-006669D01*
X014335Y-006728D02*
X016183Y-006728D01*
X016125Y-006786D02*
X014905Y-006786D01*
X015025Y-006845D02*
X016091Y-006845D01*
X016073Y-006903D02*
X015084Y-006903D01*
X015122Y-006962D02*
X016073Y-006962D01*
X016073Y-007020D02*
X015147Y-007020D01*
X015161Y-007079D02*
X016053Y-007079D01*
X016008Y-007137D02*
X015161Y-007137D01*
X015161Y-007196D02*
X015984Y-007196D01*
X015964Y-007254D02*
X015156Y-007254D01*
X015214Y-007313D02*
X015964Y-007313D01*
X015964Y-007371D02*
X015273Y-007371D01*
X015331Y-007430D02*
X015984Y-007430D01*
X016008Y-007488D02*
X015503Y-007488D01*
X015602Y-007547D02*
X016053Y-007547D01*
X016112Y-007605D02*
X015661Y-007605D01*
X015691Y-007664D02*
X016885Y-007664D01*
X016885Y-007722D02*
X015715Y-007722D01*
X015724Y-007781D02*
X016885Y-007781D01*
X016885Y-007839D02*
X015724Y-007839D01*
X015717Y-007898D02*
X016885Y-007898D01*
X016899Y-007956D02*
X015693Y-007956D01*
X015666Y-008015D02*
X016925Y-008015D01*
X016922Y-008011D02*
X016922Y-008011D01*
X016984Y-008073D02*
X015608Y-008073D01*
X015516Y-008132D02*
X017010Y-008132D01*
X016989Y-008078D02*
X016989Y-008078D01*
X016885Y-007605D02*
X016513Y-007605D01*
X016572Y-007547D02*
X016885Y-007547D01*
X016885Y-007488D02*
X016617Y-007488D01*
X016642Y-007430D02*
X016885Y-007430D01*
X016885Y-007371D02*
X016661Y-007371D01*
X016661Y-007313D02*
X016885Y-007313D01*
X016885Y-007254D02*
X016661Y-007254D01*
X016642Y-007196D02*
X016885Y-007196D01*
X016885Y-007137D02*
X016617Y-007137D01*
X016572Y-007079D02*
X016885Y-007079D01*
X016885Y-007020D02*
X016569Y-007020D01*
X016628Y-006962D02*
X016885Y-006962D01*
X016885Y-006903D02*
X016686Y-006903D01*
X016745Y-006845D02*
X016885Y-006845D01*
X016885Y-006786D02*
X016803Y-006786D01*
X016862Y-006728D02*
X016885Y-006728D01*
X014720Y-006786D02*
X014311Y-006786D01*
X014274Y-006845D02*
X014600Y-006845D01*
X014541Y-006903D02*
X014215Y-006903D01*
X014099Y-006962D02*
X014503Y-006962D01*
X015964Y-003042D02*
X009076Y-003042D01*
X009135Y-002984D02*
X015964Y-002984D01*
X015966Y-002925D02*
X009180Y-002925D01*
X009204Y-002867D02*
X015990Y-002867D01*
X016015Y-002808D02*
X009224Y-002808D01*
X009224Y-002750D02*
X016070Y-002750D01*
X016147Y-002691D02*
X009224Y-002691D01*
X009204Y-002633D02*
X017072Y-002633D01*
X017072Y-002691D02*
X016478Y-002691D01*
X016555Y-002750D02*
X017072Y-002750D01*
X017072Y-002765D02*
X017072Y-002765D01*
X017072Y-002808D02*
X017021Y-002808D01*
X017072Y-002574D02*
X009180Y-002574D01*
X009134Y-002516D02*
X017073Y-002516D01*
X017073Y-002457D02*
X009075Y-002457D01*
X007892Y-002399D02*
X017030Y-002399D01*
X016998Y-002340D02*
X007760Y-002340D01*
X006958Y-003920D02*
X006719Y-003920D01*
X006695Y-003861D02*
X006819Y-003861D01*
X005889Y-005382D02*
X005457Y-005382D01*
X005399Y-005441D02*
X005586Y-005441D01*
X005508Y-005499D02*
X005340Y-005499D01*
X005013Y-005148D02*
X004023Y-005148D01*
X004036Y-005207D02*
X004954Y-005207D01*
X004896Y-005265D02*
X004036Y-005265D01*
X004035Y-005324D02*
X004837Y-005324D01*
X004779Y-005382D02*
X004010Y-005382D01*
X003986Y-005441D02*
X004720Y-005441D01*
X004662Y-005499D02*
X004467Y-005499D01*
X004551Y-005558D02*
X004603Y-005558D01*
X004158Y-005499D02*
X003932Y-005499D01*
X003928Y-005558D02*
X004074Y-005558D01*
X004016Y-005616D02*
X003955Y-005616D01*
X003999Y-005090D02*
X005071Y-005090D01*
X005130Y-005031D02*
X003962Y-005031D01*
X003903Y-004973D02*
X004053Y-004973D01*
X004197Y-004973D02*
X005188Y-004973D01*
X005239Y-004922D02*
X005239Y-004922D01*
X005239Y-004922D01*
X005257Y-004914D02*
X004329Y-004914D01*
X003921Y-004914D02*
X003788Y-004914D01*
X003526Y-004037D02*
X003467Y-004037D01*
X003526Y-003978D02*
X003354Y-003978D01*
X003531Y-003920D02*
X002854Y-003920D01*
X002994Y-003861D02*
X003555Y-003861D01*
X005327Y-004885D02*
X005327Y-004885D01*
X005327Y-004885D01*
X005914Y-005441D02*
X005975Y-005441D01*
X005972Y-006377D02*
X005338Y-006377D01*
X005279Y-006435D02*
X010072Y-006435D01*
X010015Y-006494D02*
X005221Y-006494D01*
X005203Y-006511D02*
X005203Y-006511D01*
X005162Y-006552D02*
X009991Y-006552D01*
X009967Y-006611D02*
X005059Y-006611D01*
X007076Y-008249D02*
X000498Y-008249D01*
X000498Y-008307D02*
X007052Y-008307D01*
X007027Y-008366D02*
X000498Y-008366D01*
X000498Y-008424D02*
X007026Y-008424D01*
X007026Y-008483D02*
X000498Y-008483D01*
X000498Y-008541D02*
X007040Y-008541D01*
X007065Y-008600D02*
X000498Y-008600D01*
X000498Y-008658D02*
X007102Y-008658D01*
X007135Y-008717D02*
X000498Y-008717D01*
X000498Y-008775D02*
X007135Y-008775D01*
X007135Y-008834D02*
X000498Y-008834D01*
X000498Y-008892D02*
X007135Y-008892D01*
X007135Y-008951D02*
X000498Y-008951D01*
X000498Y-009009D02*
X007135Y-009009D01*
X007135Y-009068D02*
X000498Y-009068D01*
X000498Y-009126D02*
X007135Y-009126D01*
X007135Y-009185D02*
X000498Y-009185D01*
X000498Y-009243D02*
X007135Y-009243D01*
X007135Y-009302D02*
X000498Y-009302D01*
X000498Y-009360D02*
X007135Y-009360D01*
X007135Y-009419D02*
X000498Y-009419D01*
X000498Y-009477D02*
X007135Y-009477D01*
X007135Y-009536D02*
X000498Y-009536D01*
X000498Y-009594D02*
X007135Y-009594D01*
X007135Y-009653D02*
X000498Y-009653D01*
X000498Y-009711D02*
X007135Y-009711D01*
X007135Y-009770D02*
X000498Y-009770D01*
X000498Y-009828D02*
X007135Y-009828D01*
X007135Y-009887D02*
X000498Y-009887D01*
X000498Y-009945D02*
X007135Y-009945D01*
X007135Y-010004D02*
X000498Y-010004D01*
X000498Y-010062D02*
X007135Y-010062D01*
X007135Y-010121D02*
X000498Y-010121D01*
X000498Y-010179D02*
X007135Y-010179D01*
X007135Y-010238D02*
X006954Y-010238D01*
X006597Y-010355D02*
X000498Y-010355D01*
X000498Y-010413D02*
X006543Y-010413D01*
X006518Y-010472D02*
X000498Y-010472D01*
X000498Y-010530D02*
X006494Y-010530D01*
X006487Y-010589D02*
X000498Y-010589D01*
X000498Y-010647D02*
X006487Y-010647D01*
X006488Y-010706D02*
X000498Y-010706D01*
X000498Y-010764D02*
X006513Y-010764D01*
X006537Y-010823D02*
X000498Y-010823D01*
X000498Y-010881D02*
X006582Y-010881D01*
X006635Y-010940D02*
X000498Y-010940D01*
X000498Y-010998D02*
X006635Y-010998D01*
X006635Y-011057D02*
X000498Y-011057D01*
X000498Y-011115D02*
X006635Y-011115D01*
X006635Y-011174D02*
X000498Y-011174D01*
X000498Y-011232D02*
X006635Y-011232D01*
X006635Y-011291D02*
X000498Y-011291D01*
X000498Y-011349D02*
X006635Y-011349D01*
X006635Y-011408D02*
X000498Y-011408D01*
X000498Y-011466D02*
X006635Y-011466D01*
X006635Y-011525D02*
X000498Y-011525D01*
X000498Y-011583D02*
X006635Y-011583D01*
X006635Y-011642D02*
X000498Y-011642D01*
X000498Y-011700D02*
X006635Y-011700D01*
X006635Y-011759D02*
X000498Y-011759D01*
X000497Y-011817D02*
X006634Y-011817D01*
X006576Y-011876D02*
X000497Y-011876D01*
X000497Y-011934D02*
X006534Y-011934D01*
X006510Y-011993D02*
X000497Y-011993D01*
X000497Y-012051D02*
X006487Y-012051D01*
X006487Y-012110D02*
X000497Y-012110D01*
X000497Y-012168D02*
X006487Y-012168D01*
X006497Y-012227D02*
X000497Y-012227D01*
X000497Y-012285D02*
X006521Y-012285D01*
X006545Y-012344D02*
X002636Y-012344D01*
X002585Y-012323D02*
X002415Y-012323D01*
X002258Y-012388D01*
X002187Y-012458D01*
X002117Y-012388D01*
X001960Y-012323D01*
X001790Y-012323D01*
X001633Y-012388D01*
X001513Y-012508D01*
X001448Y-012665D01*
X001448Y-012835D01*
X001513Y-012992D01*
X001633Y-013112D01*
X001790Y-013177D01*
X001960Y-013177D01*
X002110Y-013115D01*
X002110Y-014074D01*
X002073Y-014165D01*
X002073Y-014335D01*
X002138Y-014492D01*
X002258Y-014612D01*
X002415Y-014677D01*
X002585Y-014677D01*
X002742Y-014612D01*
X002862Y-014492D01*
X002927Y-014335D01*
X002927Y-014165D01*
X002890Y-014074D01*
X002890Y-012926D01*
X002927Y-012835D01*
X002927Y-012665D01*
X002862Y-012508D01*
X002742Y-012388D01*
X002585Y-012323D01*
X002757Y-012402D02*
X006603Y-012402D01*
X006671Y-012461D02*
X002815Y-012461D01*
X002867Y-012519D02*
X007135Y-012519D01*
X007135Y-012461D02*
X007079Y-012461D01*
X007135Y-012578D02*
X002891Y-012578D01*
X002916Y-012636D02*
X007135Y-012636D01*
X007135Y-012695D02*
X002927Y-012695D01*
X002927Y-012753D02*
X007135Y-012753D01*
X007135Y-012812D02*
X002927Y-012812D01*
X002913Y-012870D02*
X007135Y-012870D01*
X007135Y-012929D02*
X002890Y-012929D01*
X002890Y-012987D02*
X007135Y-012987D01*
X007135Y-013046D02*
X002890Y-013046D01*
X002890Y-013104D02*
X007135Y-013104D01*
X007135Y-013163D02*
X002890Y-013163D01*
X002890Y-013221D02*
X007135Y-013221D01*
X007135Y-013280D02*
X002890Y-013280D01*
X002890Y-013338D02*
X007135Y-013338D01*
X007135Y-013397D02*
X002890Y-013397D01*
X002890Y-013455D02*
X007135Y-013455D01*
X007118Y-013514D02*
X002890Y-013514D01*
X002890Y-013572D02*
X007071Y-013572D01*
X007047Y-013631D02*
X002890Y-013631D01*
X002890Y-013689D02*
X007026Y-013689D01*
X007026Y-013748D02*
X002890Y-013748D01*
X002890Y-013806D02*
X007026Y-013806D01*
X007045Y-013865D02*
X002890Y-013865D01*
X002890Y-013923D02*
X007069Y-013923D01*
X007113Y-013982D02*
X002890Y-013982D01*
X002890Y-014040D02*
X007172Y-014040D01*
X007305Y-014099D02*
X002900Y-014099D01*
X002924Y-014157D02*
X008151Y-014157D01*
X008160Y-014216D02*
X002927Y-014216D01*
X002927Y-014274D02*
X008184Y-014274D01*
X008214Y-014333D02*
X002927Y-014333D01*
X002904Y-014391D02*
X008273Y-014391D01*
X008372Y-014450D02*
X002880Y-014450D01*
X002846Y-014508D02*
X017497Y-014508D01*
X017497Y-014450D02*
X008628Y-014450D01*
X008727Y-014391D02*
X017497Y-014391D01*
X017497Y-014333D02*
X010108Y-014333D01*
X010219Y-014274D02*
X017497Y-014274D01*
X017497Y-014216D02*
X010278Y-014216D01*
X010312Y-014157D02*
X017497Y-014157D01*
X017497Y-014099D02*
X010337Y-014099D01*
X010349Y-014040D02*
X017497Y-014040D01*
X017497Y-013982D02*
X010349Y-013982D01*
X010346Y-013923D02*
X017497Y-013923D01*
X017497Y-013865D02*
X010321Y-013865D01*
X010297Y-013806D02*
X017497Y-013806D01*
X017497Y-013748D02*
X010241Y-013748D01*
X010240Y-013689D02*
X017497Y-013689D01*
X017497Y-013631D02*
X010240Y-013631D01*
X010240Y-013572D02*
X017497Y-013572D01*
X017497Y-013514D02*
X010240Y-013514D01*
X010240Y-013455D02*
X017497Y-013455D01*
X017497Y-013397D02*
X010240Y-013397D01*
X010240Y-013338D02*
X010280Y-013338D01*
X010470Y-013338D02*
X017497Y-013338D01*
X017497Y-013280D02*
X010589Y-013280D01*
X010647Y-013221D02*
X017497Y-013221D01*
X017497Y-013163D02*
X010685Y-013163D01*
X010709Y-013104D02*
X017497Y-013104D01*
X017497Y-013046D02*
X010724Y-013046D01*
X010724Y-012987D02*
X017497Y-012987D01*
X017497Y-012929D02*
X010723Y-012929D01*
X010699Y-012870D02*
X017497Y-012870D01*
X017497Y-012812D02*
X010674Y-012812D01*
X010621Y-012753D02*
X017497Y-012753D01*
X017497Y-012695D02*
X010615Y-012695D01*
X010615Y-012636D02*
X017497Y-012636D01*
X017497Y-012578D02*
X010615Y-012578D01*
X010615Y-012519D02*
X017497Y-012519D01*
X017497Y-012461D02*
X010615Y-012461D01*
X010615Y-012402D02*
X017497Y-012402D01*
X017497Y-012344D02*
X010650Y-012344D01*
X010686Y-012285D02*
X017497Y-012285D01*
X017497Y-012227D02*
X010710Y-012227D01*
X010724Y-012168D02*
X017497Y-012168D01*
X017497Y-012110D02*
X010724Y-012110D01*
X010934Y-012051D02*
X017497Y-012051D01*
X017497Y-011993D02*
X011001Y-011993D01*
X011051Y-011934D02*
X017497Y-011934D01*
X017497Y-011876D02*
X011075Y-011876D01*
X011099Y-011817D02*
X017497Y-011817D01*
X017498Y-011759D02*
X011099Y-011759D01*
X011099Y-011700D02*
X017498Y-011700D01*
X017498Y-011642D02*
X011083Y-011642D01*
X011058Y-011583D02*
X017498Y-011583D01*
X017498Y-011525D02*
X011018Y-011525D01*
X010990Y-011466D02*
X017498Y-011466D01*
X017498Y-011408D02*
X010990Y-011408D01*
X010990Y-011349D02*
X011366Y-010974D01*
X011444Y-010974D01*
X011573Y-010921D01*
X011671Y-010823D01*
X011612Y-010881D02*
X016888Y-010881D01*
X016973Y-010940D02*
X011527Y-010940D01*
X011014Y-010647D02*
X007990Y-010647D01*
X007990Y-010589D02*
X011026Y-010589D01*
X011037Y-010530D02*
X010713Y-010530D01*
X010771Y-010472D02*
X011061Y-010472D01*
X011094Y-010413D02*
X010830Y-010413D01*
X010888Y-010355D02*
X011152Y-010355D01*
X010955Y-010706D02*
X007990Y-010706D01*
X007990Y-010764D02*
X010897Y-010764D01*
X010838Y-010823D02*
X007990Y-010823D01*
X007990Y-010881D02*
X010780Y-010881D01*
X010721Y-010940D02*
X008662Y-010940D01*
X008741Y-010998D02*
X010663Y-010998D01*
X010604Y-011057D02*
X010142Y-011057D01*
X010233Y-011115D02*
X010546Y-011115D01*
X010522Y-011174D02*
X010292Y-011174D01*
X010318Y-011232D02*
X010510Y-011232D01*
X010510Y-011291D02*
X010342Y-011291D01*
X010349Y-011349D02*
X010510Y-011349D01*
X010510Y-011408D02*
X010349Y-011408D01*
X010340Y-011466D02*
X010510Y-011466D01*
X010482Y-011525D02*
X010316Y-011525D01*
X010285Y-011583D02*
X010442Y-011583D01*
X010417Y-011642D02*
X010240Y-011642D01*
X010240Y-011700D02*
X010401Y-011700D01*
X010401Y-011759D02*
X010240Y-011759D01*
X009760Y-011759D02*
X008740Y-011759D01*
X008740Y-011817D02*
X009760Y-011817D01*
X009760Y-011876D02*
X008740Y-011876D01*
X008740Y-011934D02*
X009760Y-011934D01*
X009760Y-011993D02*
X008740Y-011993D01*
X008740Y-012051D02*
X009760Y-012051D01*
X009760Y-012110D02*
X008740Y-012110D01*
X008740Y-012168D02*
X009760Y-012168D01*
X009760Y-012227D02*
X008740Y-012227D01*
X008740Y-012285D02*
X009760Y-012285D01*
X009760Y-012344D02*
X008740Y-012344D01*
X008740Y-012402D02*
X009760Y-012402D01*
X009760Y-012461D02*
X008740Y-012461D01*
X008740Y-012519D02*
X009760Y-012519D01*
X009760Y-012578D02*
X008740Y-012578D01*
X008740Y-012636D02*
X009760Y-012636D01*
X009760Y-012695D02*
X008740Y-012695D01*
X008740Y-012753D02*
X009760Y-012753D01*
X009760Y-012812D02*
X008740Y-012812D01*
X008740Y-012870D02*
X009760Y-012870D01*
X009760Y-012929D02*
X008740Y-012929D01*
X008740Y-012987D02*
X009760Y-012987D01*
X009760Y-013046D02*
X008740Y-013046D01*
X008740Y-013104D02*
X009760Y-013104D01*
X009760Y-013163D02*
X008740Y-013163D01*
X008740Y-013221D02*
X009760Y-013221D01*
X009760Y-013280D02*
X008740Y-013280D01*
X008740Y-013338D02*
X009760Y-013338D01*
X009760Y-013397D02*
X008740Y-013397D01*
X008740Y-013455D02*
X009760Y-013455D01*
X009760Y-013514D02*
X008740Y-013514D01*
X008740Y-013572D02*
X009760Y-013572D01*
X009760Y-013631D02*
X008740Y-013631D01*
X008740Y-013689D02*
X009760Y-013689D01*
X009759Y-013748D02*
X008740Y-013748D01*
X008740Y-013806D02*
X009703Y-013806D01*
X009679Y-013865D02*
X008740Y-013865D01*
X008791Y-013923D02*
X009654Y-013923D01*
X009651Y-013982D02*
X008818Y-013982D01*
X008842Y-014040D02*
X009651Y-014040D01*
X009663Y-014099D02*
X008849Y-014099D01*
X008849Y-014157D02*
X009688Y-014157D01*
X009722Y-014216D02*
X008840Y-014216D01*
X008816Y-014274D02*
X009781Y-014274D01*
X009892Y-014333D02*
X008786Y-014333D01*
X008260Y-013397D02*
X008111Y-013397D01*
X008052Y-013338D02*
X008260Y-013338D01*
X008260Y-013280D02*
X007994Y-013280D01*
X007990Y-013221D02*
X008260Y-013221D01*
X008260Y-013163D02*
X007990Y-013163D01*
X007990Y-013104D02*
X008260Y-013104D01*
X008260Y-013046D02*
X007990Y-013046D01*
X007990Y-012987D02*
X008260Y-012987D01*
X008260Y-012929D02*
X007990Y-012929D01*
X007990Y-012870D02*
X008260Y-012870D01*
X008260Y-012812D02*
X007990Y-012812D01*
X007990Y-012753D02*
X008260Y-012753D01*
X008260Y-012695D02*
X007990Y-012695D01*
X007990Y-012636D02*
X008260Y-012636D01*
X008260Y-012578D02*
X007990Y-012578D01*
X007990Y-012519D02*
X008260Y-012519D01*
X008260Y-012461D02*
X007990Y-012461D01*
X007990Y-012402D02*
X008260Y-012402D01*
X008260Y-012344D02*
X007990Y-012344D01*
X007990Y-012285D02*
X008260Y-012285D01*
X008260Y-012227D02*
X007990Y-012227D01*
X007990Y-012168D02*
X008260Y-012168D01*
X008260Y-012110D02*
X007990Y-012110D01*
X007990Y-012051D02*
X008260Y-012051D01*
X008260Y-011993D02*
X007990Y-011993D01*
X007990Y-011934D02*
X008260Y-011934D01*
X008260Y-011876D02*
X007990Y-011876D01*
X007990Y-011817D02*
X008260Y-011817D01*
X008260Y-011759D02*
X007990Y-011759D01*
X007990Y-011700D02*
X008260Y-011700D01*
X008260Y-011642D02*
X007990Y-011642D01*
X007990Y-011583D02*
X008260Y-011583D01*
X008260Y-011525D02*
X007990Y-011525D01*
X007990Y-011466D02*
X008223Y-011466D01*
X008188Y-011408D02*
X007990Y-011408D01*
X007990Y-011349D02*
X008164Y-011349D01*
X008151Y-011291D02*
X007990Y-011291D01*
X007990Y-011232D02*
X008151Y-011232D01*
X008154Y-011174D02*
X007990Y-011174D01*
X007990Y-011115D02*
X008178Y-011115D01*
X008203Y-011057D02*
X007990Y-011057D01*
X007990Y-010998D02*
X008259Y-010998D01*
X008338Y-010940D02*
X007990Y-010940D01*
X007990Y-010530D02*
X009287Y-010530D01*
X009229Y-010472D02*
X008687Y-010472D01*
X008678Y-010480D02*
X008930Y-010228D01*
X008930Y-010080D01*
X008530Y-010080D01*
X008530Y-010020D01*
X008930Y-010020D01*
X008930Y-009872D01*
X008678Y-009620D01*
X008530Y-009620D01*
X008530Y-010020D01*
X008470Y-010020D01*
X008470Y-010080D01*
X008530Y-010080D01*
X008530Y-010480D01*
X008678Y-010480D01*
X008745Y-010413D02*
X009170Y-010413D01*
X009112Y-010355D02*
X008804Y-010355D01*
X008862Y-010296D02*
X009053Y-010296D01*
X009010Y-010238D02*
X008921Y-010238D01*
X008930Y-010179D02*
X009010Y-010179D01*
X009010Y-010121D02*
X008930Y-010121D01*
X009010Y-010062D02*
X008530Y-010062D01*
X008530Y-010004D02*
X008470Y-010004D01*
X008470Y-010020D02*
X008470Y-009620D01*
X008322Y-009620D01*
X008070Y-009872D01*
X008070Y-010020D01*
X008470Y-010020D01*
X008470Y-010062D02*
X007990Y-010062D01*
X007990Y-010004D02*
X008070Y-010004D01*
X008070Y-009945D02*
X007990Y-009945D01*
X007990Y-009887D02*
X008070Y-009887D01*
X008114Y-009828D02*
X007990Y-009828D01*
X007990Y-009770D02*
X008172Y-009770D01*
X008231Y-009711D02*
X007990Y-009711D01*
X007990Y-009653D02*
X008289Y-009653D01*
X008297Y-009540D02*
X008703Y-009540D01*
X008990Y-009253D01*
X008990Y-008847D01*
X008703Y-008560D01*
X008297Y-008560D01*
X008010Y-008847D01*
X008010Y-009253D01*
X008297Y-009540D01*
X008293Y-009536D02*
X007990Y-009536D01*
X007990Y-009594D02*
X009263Y-009594D01*
X009293Y-009536D02*
X008707Y-009536D01*
X008766Y-009477D02*
X009234Y-009477D01*
X009176Y-009419D02*
X008824Y-009419D01*
X008883Y-009360D02*
X009117Y-009360D01*
X009059Y-009302D02*
X008941Y-009302D01*
X008990Y-009243D02*
X009010Y-009243D01*
X009010Y-009185D02*
X008990Y-009185D01*
X008990Y-009126D02*
X009010Y-009126D01*
X009010Y-009068D02*
X008990Y-009068D01*
X008990Y-009009D02*
X009010Y-009009D01*
X009010Y-008951D02*
X008990Y-008951D01*
X008990Y-008892D02*
X009010Y-008892D01*
X009023Y-008834D02*
X008977Y-008834D01*
X008918Y-008775D02*
X009082Y-008775D01*
X009140Y-008717D02*
X008860Y-008717D01*
X008801Y-008658D02*
X009199Y-008658D01*
X009257Y-008600D02*
X008743Y-008600D01*
X008257Y-008600D02*
X007990Y-008600D01*
X007990Y-008658D02*
X008199Y-008658D01*
X008140Y-008717D02*
X007990Y-008717D01*
X007990Y-008775D02*
X008082Y-008775D01*
X008023Y-008834D02*
X007990Y-008834D01*
X007990Y-008892D02*
X008010Y-008892D01*
X008010Y-008951D02*
X007990Y-008951D01*
X007990Y-009009D02*
X008010Y-009009D01*
X008010Y-009068D02*
X007990Y-009068D01*
X007990Y-009126D02*
X008010Y-009126D01*
X008010Y-009185D02*
X007990Y-009185D01*
X007990Y-009243D02*
X008010Y-009243D01*
X007990Y-009302D02*
X008059Y-009302D01*
X008117Y-009360D02*
X007990Y-009360D01*
X007990Y-009419D02*
X008176Y-009419D01*
X008234Y-009477D02*
X007990Y-009477D01*
X008470Y-009653D02*
X008530Y-009653D01*
X008530Y-009711D02*
X008470Y-009711D01*
X008470Y-009770D02*
X008530Y-009770D01*
X008530Y-009828D02*
X008470Y-009828D01*
X008470Y-009887D02*
X008530Y-009887D01*
X008530Y-009945D02*
X008470Y-009945D01*
X008470Y-010080D02*
X008070Y-010080D01*
X008070Y-010228D01*
X008322Y-010480D01*
X008470Y-010480D01*
X008470Y-010080D01*
X008470Y-010121D02*
X008530Y-010121D01*
X008530Y-010179D02*
X008470Y-010179D01*
X008470Y-010238D02*
X008530Y-010238D01*
X008530Y-010296D02*
X008470Y-010296D01*
X008470Y-010355D02*
X008530Y-010355D01*
X008530Y-010413D02*
X008470Y-010413D01*
X008470Y-010472D02*
X008530Y-010472D01*
X008313Y-010472D02*
X007990Y-010472D01*
X007990Y-010413D02*
X008255Y-010413D01*
X008196Y-010355D02*
X007990Y-010355D01*
X007990Y-010296D02*
X008138Y-010296D01*
X008079Y-010238D02*
X007990Y-010238D01*
X007990Y-010179D02*
X008070Y-010179D01*
X008070Y-010121D02*
X007990Y-010121D01*
X008711Y-009653D02*
X009204Y-009653D01*
X009146Y-009711D02*
X008769Y-009711D01*
X008828Y-009770D02*
X009087Y-009770D01*
X009029Y-009828D02*
X008886Y-009828D01*
X008930Y-009887D02*
X009010Y-009887D01*
X009010Y-009945D02*
X008930Y-009945D01*
X008930Y-010004D02*
X009010Y-010004D01*
X009796Y-009653D02*
X010204Y-009653D01*
X010146Y-009711D02*
X009854Y-009711D01*
X009913Y-009770D02*
X010087Y-009770D01*
X010029Y-009828D02*
X009971Y-009828D01*
X009990Y-009887D02*
X010010Y-009887D01*
X010010Y-009945D02*
X009990Y-009945D01*
X009990Y-010004D02*
X010010Y-010004D01*
X010010Y-010062D02*
X009990Y-010062D01*
X009990Y-010121D02*
X010010Y-010121D01*
X010010Y-010179D02*
X009990Y-010179D01*
X009990Y-010238D02*
X010010Y-010238D01*
X010053Y-010296D02*
X009947Y-010296D01*
X009888Y-010355D02*
X010112Y-010355D01*
X010170Y-010413D02*
X009830Y-010413D01*
X009771Y-010472D02*
X010229Y-010472D01*
X010287Y-010530D02*
X009713Y-010530D01*
X009858Y-011057D02*
X008797Y-011057D01*
X008822Y-011115D02*
X009767Y-011115D01*
X009708Y-011174D02*
X008846Y-011174D01*
X008849Y-011232D02*
X009682Y-011232D01*
X009658Y-011291D02*
X008849Y-011291D01*
X008836Y-011349D02*
X009651Y-011349D01*
X009651Y-011408D02*
X008812Y-011408D01*
X008777Y-011466D02*
X009660Y-011466D01*
X009684Y-011525D02*
X008740Y-011525D01*
X008740Y-011583D02*
X009715Y-011583D01*
X009760Y-011642D02*
X008740Y-011642D01*
X008740Y-011700D02*
X009760Y-011700D01*
X008055Y-014099D02*
X007445Y-014099D01*
X007578Y-014040D02*
X007922Y-014040D01*
X007863Y-013982D02*
X007637Y-013982D01*
X007681Y-013923D02*
X007819Y-013923D01*
X007795Y-013865D02*
X007705Y-013865D01*
X007724Y-013806D02*
X007776Y-013806D01*
X007776Y-013748D02*
X007724Y-013748D01*
X007724Y-013689D02*
X007725Y-013689D01*
X007597Y-016185D02*
X007403Y-016185D01*
X007222Y-016260D01*
X007085Y-016397D01*
X007075Y-016420D01*
X006925Y-016420D01*
X006915Y-016397D01*
X006778Y-016260D01*
X006597Y-016185D01*
X006403Y-016185D01*
X006222Y-016260D01*
X006085Y-016397D01*
X006075Y-016420D01*
X005846Y-016420D01*
X005828Y-016395D01*
X005780Y-016347D01*
X005725Y-016307D01*
X005665Y-016277D01*
X005601Y-016256D01*
X005534Y-016245D01*
X005530Y-016245D01*
X005530Y-016420D01*
X005470Y-016420D01*
X005470Y-016245D01*
X005466Y-016245D01*
X005399Y-016256D01*
X005335Y-016277D01*
X005275Y-016307D01*
X005220Y-016347D01*
X005172Y-016395D01*
X005154Y-016420D01*
X004925Y-016420D01*
X004915Y-016397D01*
X004778Y-016260D01*
X004597Y-016185D01*
X004403Y-016185D01*
X004222Y-016260D01*
X004085Y-016397D01*
X004075Y-016420D01*
X003407Y-016420D01*
X003396Y-016377D01*
X003254Y-016131D01*
X003053Y-015930D01*
X002806Y-015788D01*
X002532Y-015714D01*
X002248Y-015714D01*
X001973Y-015788D01*
X001727Y-015930D01*
X001526Y-016131D01*
X001384Y-016377D01*
X001372Y-016420D01*
X000497Y-016420D01*
X000499Y000111D01*
X000573Y000142D01*
X000671Y000240D01*
X000724Y000368D01*
X000724Y000507D01*
X000671Y000635D01*
X000716Y000527D02*
X002260Y000527D01*
X002260Y000468D02*
X000724Y000468D01*
X000724Y000410D02*
X002262Y000410D01*
X002287Y000351D02*
X000717Y000351D01*
X000692Y000293D02*
X002311Y000293D01*
X002349Y000234D02*
X000665Y000234D01*
X000606Y000176D02*
X002407Y000176D01*
X002495Y000117D02*
X000512Y000117D01*
X001741Y001580D02*
X003134Y001580D01*
X003028Y001521D02*
X001847Y001521D01*
X001863Y000995D02*
X003012Y000995D01*
X003097Y000936D02*
X001778Y000936D01*
X004938Y008015D02*
X017500Y008015D01*
X017500Y008073D02*
X004938Y008073D01*
X004938Y008132D02*
X017500Y008132D01*
X017500Y008190D02*
X004938Y008190D01*
X004938Y008249D02*
X017500Y008249D01*
X017500Y008307D02*
X004938Y008307D01*
X004938Y008366D02*
X017500Y008366D01*
X017500Y008424D02*
X004938Y008424D01*
X004938Y008483D02*
X017500Y008483D01*
X017500Y008541D02*
X004938Y008541D01*
X004938Y008600D02*
X017500Y008600D01*
X017500Y008658D02*
X004938Y008658D01*
X004938Y008717D02*
X017500Y008717D01*
X017500Y008775D02*
X004938Y008775D01*
X004938Y008834D02*
X017500Y008834D01*
X017500Y008892D02*
X004938Y008892D01*
X004938Y008951D02*
X017500Y008951D01*
X017500Y009009D02*
X004938Y009009D01*
X004938Y009068D02*
X017500Y009068D01*
X017500Y009126D02*
X004938Y009126D01*
X004938Y009185D02*
X017500Y009185D01*
X017500Y009243D02*
X004938Y009243D01*
X004938Y009302D02*
X017500Y009302D01*
X017500Y009360D02*
X004938Y009360D01*
X004938Y009419D02*
X017500Y009419D01*
X017500Y009477D02*
X004938Y009477D01*
X004938Y009536D02*
X017500Y009536D01*
X017500Y009594D02*
X004938Y009594D01*
X004938Y009653D02*
X017500Y009653D01*
X017500Y009711D02*
X004938Y009711D01*
X004938Y009770D02*
X017500Y009770D01*
X017500Y009828D02*
X004938Y009828D01*
X004938Y009887D02*
X017500Y009887D01*
X017500Y009945D02*
X004938Y009945D01*
X004938Y010004D02*
X017500Y010004D01*
X017500Y010062D02*
X004938Y010062D01*
X004938Y010121D02*
X017500Y010121D01*
X017500Y010179D02*
X004938Y010179D01*
X004938Y010238D02*
X017500Y010238D01*
X017500Y010296D02*
X004938Y010296D01*
X004938Y010355D02*
X017500Y010355D01*
X017500Y010413D02*
X004938Y010413D01*
X004938Y010472D02*
X017500Y010472D01*
X017500Y010530D02*
X004938Y010530D01*
X004938Y010589D02*
X017500Y010589D01*
X017500Y010647D02*
X004938Y010647D01*
X004938Y010706D02*
X017500Y010706D01*
X017500Y010764D02*
X004938Y010764D01*
X004938Y010823D02*
X017500Y010823D01*
X017500Y010881D02*
X004938Y010881D01*
X004938Y010940D02*
X017500Y010940D01*
X017500Y010998D02*
X004938Y010998D01*
X004938Y011057D02*
X017500Y011057D01*
X017500Y011115D02*
X004938Y011115D01*
X004938Y011174D02*
X017500Y011174D01*
X017500Y011232D02*
X004938Y011232D01*
X004938Y011291D02*
X017500Y011291D01*
X017500Y011349D02*
X004938Y011349D01*
X004938Y011408D02*
X017500Y011408D01*
X017500Y011466D02*
X004938Y011466D01*
X004938Y011525D02*
X017500Y011525D01*
X017500Y011583D02*
X004938Y011583D01*
X004938Y011642D02*
X017500Y011642D01*
X017500Y011700D02*
X004938Y011700D01*
X004938Y011759D02*
X017500Y011759D01*
X017500Y011817D02*
X004938Y011817D01*
X004938Y011876D02*
X017500Y011876D01*
X017500Y011934D02*
X004938Y011934D01*
X004938Y011993D02*
X017500Y011993D01*
X017500Y012051D02*
X004938Y012051D01*
X004938Y012110D02*
X017500Y012110D01*
X017500Y012168D02*
X004938Y012168D01*
X004938Y012227D02*
X017500Y012227D01*
X017500Y012285D02*
X004938Y012285D01*
X004938Y012344D02*
X017500Y012344D01*
X017500Y012402D02*
X004938Y012402D01*
X004938Y012461D02*
X017500Y012461D01*
X017500Y012519D02*
X004938Y012519D01*
X004938Y012578D02*
X017500Y012578D01*
X017500Y012636D02*
X004938Y012636D01*
X004938Y012695D02*
X017500Y012695D01*
X017500Y012753D02*
X004938Y012753D01*
X004938Y012812D02*
X017500Y012812D01*
X017500Y012870D02*
X004938Y012870D01*
X004938Y012929D02*
X017500Y012929D01*
X017500Y012987D02*
X004938Y012987D01*
X004938Y013046D02*
X017500Y013046D01*
X017500Y013104D02*
X004938Y013104D01*
X004938Y013163D02*
X017500Y013163D01*
X017500Y013221D02*
X004938Y013221D01*
X004938Y013280D02*
X017500Y013280D01*
X017500Y013338D02*
X004938Y013338D01*
X004938Y013397D02*
X017500Y013397D01*
X017500Y013455D02*
X004938Y013455D01*
X004938Y013514D02*
X017500Y013514D01*
X017500Y013572D02*
X004938Y013572D01*
X004938Y013631D02*
X017500Y013631D01*
X017500Y013689D02*
X004938Y013689D01*
X004938Y013748D02*
X017500Y013748D01*
X017500Y013806D02*
X004938Y013806D01*
X004938Y013865D02*
X017500Y013865D01*
X017500Y013923D02*
X004938Y013923D01*
X004938Y013982D02*
X017500Y013982D01*
X017500Y014040D02*
X004938Y014040D01*
X004938Y014099D02*
X017500Y014099D01*
X017500Y014157D02*
X004938Y014157D01*
X004938Y014216D02*
X017500Y014216D01*
X017500Y014274D02*
X004938Y014274D01*
X004938Y014333D02*
X017500Y014333D01*
X017500Y014391D02*
X004938Y014391D01*
X004938Y014450D02*
X017500Y014450D01*
X017500Y014508D02*
X004938Y014508D01*
X004938Y014567D02*
X017500Y014567D01*
X017500Y014625D02*
X004938Y014625D01*
X004938Y014684D02*
X017500Y014684D01*
X017500Y014742D02*
X004938Y014742D01*
X004938Y014801D02*
X017500Y014801D01*
X017500Y014859D02*
X004938Y014859D01*
X004938Y014918D02*
X017500Y014918D01*
X017500Y014976D02*
X004938Y014976D01*
X004938Y015035D02*
X017500Y015035D01*
X017500Y015093D02*
X004938Y015093D01*
X004938Y015152D02*
X017500Y015152D01*
X017500Y015210D02*
X004938Y015210D01*
X004938Y015269D02*
X017500Y015269D01*
X017500Y015327D02*
X004938Y015327D01*
X004938Y015386D02*
X017500Y015386D01*
X017500Y015444D02*
X004938Y015444D01*
X010423Y-000819D02*
X017499Y-000819D01*
X017499Y-000878D02*
X010496Y-000878D01*
X010549Y-000936D02*
X017499Y-000936D01*
X017499Y-000995D02*
X010573Y-000995D01*
X010598Y-001053D02*
X017499Y-001053D01*
X017499Y-001112D02*
X010599Y-001112D01*
X010599Y-001170D02*
X017499Y-001170D01*
X017499Y-001229D02*
X010585Y-001229D01*
X010560Y-001287D02*
X017499Y-001287D01*
X017499Y-001346D02*
X010560Y-001346D01*
X010560Y-001404D02*
X017499Y-001404D01*
X017499Y-001463D02*
X010560Y-001463D01*
X010560Y-001521D02*
X017499Y-001521D01*
X017499Y-001580D02*
X010560Y-001580D01*
X010560Y-001638D02*
X017499Y-001638D01*
X017499Y-001697D02*
X010560Y-001697D01*
X010578Y-001755D02*
X017499Y-001755D01*
X017499Y-001814D02*
X010599Y-001814D01*
X010599Y-001872D02*
X017163Y-001872D01*
X017076Y-001931D02*
X010599Y-001931D01*
X010580Y-001989D02*
X017018Y-001989D01*
X016993Y-002048D02*
X010556Y-002048D01*
X010512Y-002106D02*
X016969Y-002106D01*
X016964Y-002165D02*
X010454Y-002165D01*
X007593Y-007313D02*
X000498Y-007313D01*
X000498Y-007371D02*
X007511Y-007371D01*
X007453Y-007430D02*
X000498Y-007430D01*
X000498Y-007488D02*
X007429Y-007488D01*
X007405Y-007547D02*
X000498Y-007547D01*
X000498Y-007605D02*
X007401Y-007605D01*
X007401Y-007664D02*
X000498Y-007664D01*
X000498Y-007722D02*
X007413Y-007722D01*
X007437Y-007781D02*
X000498Y-007781D01*
X000498Y-007839D02*
X007471Y-007839D01*
X007510Y-007898D02*
X000498Y-007898D01*
X000498Y-007956D02*
X007510Y-007956D01*
X007510Y-008015D02*
X000498Y-008015D01*
X000498Y-008073D02*
X007510Y-008073D01*
X007202Y-008132D02*
X000498Y-008132D01*
X000498Y-008190D02*
X007129Y-008190D01*
X002788Y-014567D02*
X017497Y-014567D01*
X017497Y-014625D02*
X002712Y-014625D01*
X002288Y-014625D02*
X000497Y-014625D01*
X000497Y-014567D02*
X002212Y-014567D01*
X002154Y-014508D02*
X000497Y-014508D01*
X000497Y-014450D02*
X002120Y-014450D01*
X002096Y-014391D02*
X000497Y-014391D01*
X000497Y-014333D02*
X002073Y-014333D01*
X002073Y-014274D02*
X000497Y-014274D01*
X000497Y-014216D02*
X002073Y-014216D01*
X002076Y-014157D02*
X000497Y-014157D01*
X000497Y-014099D02*
X002100Y-014099D01*
X002110Y-014040D02*
X000497Y-014040D01*
X000497Y-013982D02*
X002110Y-013982D01*
X002110Y-013923D02*
X000497Y-013923D01*
X000497Y-013865D02*
X002110Y-013865D01*
X002110Y-013806D02*
X000497Y-013806D01*
X000497Y-013748D02*
X002110Y-013748D01*
X002110Y-013689D02*
X000497Y-013689D01*
X000497Y-013631D02*
X002110Y-013631D01*
X002110Y-013572D02*
X000497Y-013572D01*
X000497Y-013514D02*
X002110Y-013514D01*
X002110Y-013455D02*
X000497Y-013455D01*
X000497Y-013397D02*
X002110Y-013397D01*
X002110Y-013338D02*
X000497Y-013338D01*
X000497Y-013280D02*
X002110Y-013280D01*
X002110Y-013221D02*
X000497Y-013221D01*
X000497Y-013163D02*
X001754Y-013163D01*
X001625Y-013104D02*
X000497Y-013104D01*
X000497Y-013046D02*
X001566Y-013046D01*
X001510Y-012987D02*
X000497Y-012987D01*
X000497Y-012929D02*
X001486Y-012929D01*
X001462Y-012870D02*
X000497Y-012870D01*
X000497Y-012812D02*
X001448Y-012812D01*
X001448Y-012753D02*
X000497Y-012753D01*
X000497Y-012695D02*
X001448Y-012695D01*
X001459Y-012636D02*
X000497Y-012636D01*
X000497Y-012578D02*
X001484Y-012578D01*
X001508Y-012519D02*
X000497Y-012519D01*
X000497Y-012461D02*
X001560Y-012461D01*
X001618Y-012402D02*
X000497Y-012402D01*
X000497Y-012344D02*
X001739Y-012344D01*
X002011Y-012344D02*
X002364Y-012344D01*
X002243Y-012402D02*
X002132Y-012402D01*
X002110Y-013163D02*
X001996Y-013163D01*
X000497Y-014684D02*
X017497Y-014684D01*
X017497Y-014742D02*
X000497Y-014742D01*
X000497Y-014801D02*
X017497Y-014801D01*
X017497Y-014859D02*
X000497Y-014859D01*
X000497Y-014918D02*
X017497Y-014918D01*
X017497Y-014976D02*
X000497Y-014976D01*
X000497Y-015035D02*
X017497Y-015035D01*
X017497Y-015093D02*
X000497Y-015093D01*
X000497Y-015152D02*
X017497Y-015152D01*
X017497Y-015210D02*
X000497Y-015210D01*
X000497Y-015269D02*
X017497Y-015269D01*
X017497Y-015327D02*
X000497Y-015327D01*
X000497Y-015386D02*
X017497Y-015386D01*
X017497Y-015444D02*
X000497Y-015444D01*
X000497Y-015503D02*
X017497Y-015503D01*
X017497Y-015561D02*
X000497Y-015561D01*
X000497Y-015620D02*
X017497Y-015620D01*
X017497Y-015678D02*
X000497Y-015678D01*
X000497Y-015737D02*
X002164Y-015737D01*
X001961Y-015795D02*
X000497Y-015795D01*
X000497Y-015854D02*
X001859Y-015854D01*
X001758Y-015912D02*
X000497Y-015912D01*
X000497Y-015971D02*
X001686Y-015971D01*
X001628Y-016029D02*
X000497Y-016029D01*
X000497Y-016088D02*
X001569Y-016088D01*
X001517Y-016146D02*
X000497Y-016146D01*
X000497Y-016205D02*
X001483Y-016205D01*
X001450Y-016263D02*
X000497Y-016263D01*
X000497Y-016322D02*
X001416Y-016322D01*
X001383Y-016380D02*
X000497Y-016380D01*
X002615Y-015737D02*
X013385Y-015737D01*
X013468Y-015714D02*
X013194Y-015788D01*
X012947Y-015930D01*
X012746Y-016131D01*
X012604Y-016377D01*
X012593Y-016420D01*
X011925Y-016420D01*
X011915Y-016397D01*
X011778Y-016260D01*
X011597Y-016185D01*
X011403Y-016185D01*
X011222Y-016260D01*
X011085Y-016397D01*
X011075Y-016420D01*
X010925Y-016420D01*
X010915Y-016397D01*
X010778Y-016260D01*
X010597Y-016185D01*
X010403Y-016185D01*
X010222Y-016260D01*
X010085Y-016397D01*
X010075Y-016420D01*
X009925Y-016420D01*
X009915Y-016397D01*
X009778Y-016260D01*
X009597Y-016185D01*
X009403Y-016185D01*
X009222Y-016260D01*
X009085Y-016397D01*
X009075Y-016420D01*
X008925Y-016420D01*
X008915Y-016397D01*
X008778Y-016260D01*
X008597Y-016185D01*
X008403Y-016185D01*
X008222Y-016260D01*
X008085Y-016397D01*
X008075Y-016420D01*
X007925Y-016420D01*
X007915Y-016397D01*
X007778Y-016260D01*
X007597Y-016185D01*
X007645Y-016205D02*
X008355Y-016205D01*
X008219Y-016263D02*
X007781Y-016263D01*
X007840Y-016322D02*
X008160Y-016322D01*
X008102Y-016380D02*
X007898Y-016380D01*
X007355Y-016205D02*
X006645Y-016205D01*
X006781Y-016263D02*
X007219Y-016263D01*
X007160Y-016322D02*
X006840Y-016322D01*
X006898Y-016380D02*
X007102Y-016380D01*
X006355Y-016205D02*
X004645Y-016205D01*
X004781Y-016263D02*
X005376Y-016263D01*
X005470Y-016263D02*
X005530Y-016263D01*
X005530Y-016322D02*
X005470Y-016322D01*
X005470Y-016380D02*
X005530Y-016380D01*
X005624Y-016263D02*
X006219Y-016263D01*
X006160Y-016322D02*
X005745Y-016322D01*
X005813Y-016380D02*
X006102Y-016380D01*
X005255Y-016322D02*
X004840Y-016322D01*
X004898Y-016380D02*
X005187Y-016380D01*
X004355Y-016205D02*
X003296Y-016205D01*
X003330Y-016263D02*
X004219Y-016263D01*
X004160Y-016322D02*
X003364Y-016322D01*
X003397Y-016380D02*
X004102Y-016380D01*
X003262Y-016146D02*
X012738Y-016146D01*
X012704Y-016205D02*
X011645Y-016205D01*
X011781Y-016263D02*
X012670Y-016263D01*
X012636Y-016322D02*
X011840Y-016322D01*
X011898Y-016380D02*
X012603Y-016380D01*
X012790Y-016088D02*
X003210Y-016088D01*
X003152Y-016029D02*
X012848Y-016029D01*
X012907Y-015971D02*
X003093Y-015971D01*
X003022Y-015912D02*
X012978Y-015912D01*
X013080Y-015854D02*
X002920Y-015854D01*
X002819Y-015795D02*
X013181Y-015795D01*
X013468Y-015714D02*
X013752Y-015714D01*
X014027Y-015788D01*
X014273Y-015930D01*
X014474Y-016131D01*
X014616Y-016377D01*
X014628Y-016420D01*
X017497Y-016420D01*
X017498Y-010349D01*
X017431Y-010349D01*
X017365Y-010322D01*
X017365Y-010372D01*
X017421Y-010427D01*
X017474Y-010556D01*
X017474Y-010694D01*
X017421Y-010823D01*
X017498Y-010823D01*
X017498Y-010881D02*
X017362Y-010881D01*
X017323Y-010921D02*
X017421Y-010823D01*
X017445Y-010764D02*
X017498Y-010764D01*
X017498Y-010706D02*
X017469Y-010706D01*
X017474Y-010647D02*
X017498Y-010647D01*
X017498Y-010589D02*
X017474Y-010589D01*
X017463Y-010530D02*
X017498Y-010530D01*
X017498Y-010472D02*
X017439Y-010472D01*
X017406Y-010413D02*
X017498Y-010413D01*
X017498Y-010355D02*
X017365Y-010355D01*
X017497Y-015737D02*
X013836Y-015737D01*
X014039Y-015795D02*
X017497Y-015795D01*
X017497Y-015854D02*
X014141Y-015854D01*
X014242Y-015912D02*
X017497Y-015912D01*
X017497Y-015971D02*
X014314Y-015971D01*
X014372Y-016029D02*
X017497Y-016029D01*
X017497Y-016088D02*
X014431Y-016088D01*
X014483Y-016146D02*
X017497Y-016146D01*
X017497Y-016205D02*
X014517Y-016205D01*
X014550Y-016263D02*
X017497Y-016263D01*
X017497Y-016322D02*
X014584Y-016322D01*
X014617Y-016380D02*
X017497Y-016380D01*
X011355Y-016205D02*
X010645Y-016205D01*
X010781Y-016263D02*
X011219Y-016263D01*
X011160Y-016322D02*
X010840Y-016322D01*
X010898Y-016380D02*
X011102Y-016380D01*
X010355Y-016205D02*
X009645Y-016205D01*
X009781Y-016263D02*
X010219Y-016263D01*
X010160Y-016322D02*
X009840Y-016322D01*
X009898Y-016380D02*
X010102Y-016380D01*
X009355Y-016205D02*
X008645Y-016205D01*
X008781Y-016263D02*
X009219Y-016263D01*
X009160Y-016322D02*
X008840Y-016322D01*
X008898Y-016380D02*
X009102Y-016380D01*
X016635Y-002867D02*
X016640Y-002867D01*
X016610Y-002808D02*
X016729Y-002808D01*
X017462Y-001872D02*
X017499Y-001872D01*
D18*
X010500Y000000D02*
X009750Y000750D01*
X009750Y001125D01*
X010250Y-001125D02*
X010250Y-001875D01*
X007063Y-003500D02*
X002750Y-003500D01*
X002688Y000500D02*
X005000Y000500D01*
X005875Y000500D01*
X006125Y000250D01*
X006125Y000188D01*
D19*
X012313Y-008375D02*
X012250Y-008438D01*
X012313Y-008375D02*
X012313Y-004375D01*
D20*
X015438Y006750D02*
X015563Y006875D01*
X016625Y006875D01*
X003250Y001250D02*
X001625Y001250D01*
X000375Y001625D02*
X000375Y000438D01*
D21*
X006500Y006187D02*
X009000Y006187D01*
X009250Y006188D01*
D22*
X008813Y005625D02*
X008500Y005313D01*
X007250Y005313D01*
X007063Y005125D01*
X007063Y005625D02*
X007875Y005625D01*
X009875Y007625D02*
X011500Y007625D01*
X005937Y-001375D02*
X004125Y-001375D01*
X004688Y-001813D02*
X006000Y-001813D01*
X006313Y-002125D02*
X005063Y-002125D01*
X003875Y-004000D02*
X006375Y-004000D01*
X006500Y-004625D02*
X004125Y-004625D01*
X003688Y-005250D02*
X003688Y-005688D01*
X004125Y-006125D01*
X004688Y-006125D01*
X005063Y-005750D01*
X005750Y-005750D01*
X006063Y-006125D02*
X005250Y-006125D01*
X005000Y-006375D01*
X003875Y-006375D01*
X003438Y-005938D01*
X004313Y-005812D02*
X004688Y-005813D01*
X005375Y-005125D01*
X006125Y-005125D01*
X006125Y-006063D02*
X006063Y-006125D01*
X006000Y-004313D02*
X003250Y-004313D01*
X005000Y000250D02*
X005000Y000500D01*
X007688Y-002688D02*
X008813Y-002688D01*
X008875Y-002750D01*
X010313Y-006688D02*
X011125Y-007500D01*
X011563Y-007500D01*
X011750Y-007313D01*
X011938Y-007125D01*
X012875Y-006375D02*
X013687Y-005563D01*
X014125Y-005563D01*
X014000Y-006625D02*
X013250Y-006625D01*
X013125Y-006750D01*
X013000Y-004938D02*
X013375Y-004562D01*
X013375Y-004062D01*
X013000Y-003813D02*
X013000Y-004313D01*
X012563Y-004750D01*
X012563Y-008937D01*
X012250Y-009250D01*
X011375Y-010625D02*
X010750Y-011250D01*
X010750Y-011750D01*
X010375Y-012125D02*
X010375Y-013000D01*
X010000Y-014000D02*
X010000Y-011375D01*
X008500Y-011250D02*
X008500Y-014125D01*
X008125Y-013750D02*
X007750Y-013375D01*
X007750Y-007625D01*
X007375Y-008437D02*
X007375Y-013750D01*
X006875Y-012125D02*
X006875Y-010625D01*
X010250Y-008800D02*
X010250Y-007563D01*
X010250Y-008800D02*
X010500Y-009050D01*
X014813Y-007250D02*
X014813Y-007125D01*
X014813Y-007250D02*
X015375Y-007813D01*
X016313Y-007313D02*
X016313Y-006938D01*
X016938Y-006313D01*
X016938Y-005000D01*
X016563Y-004625D01*
X016563Y-004250D01*
X016813Y-004000D01*
X016938Y-004000D01*
X016938Y-004500D02*
X017125Y-004688D01*
X017125Y-007875D01*
X017250Y-008000D01*
X017250Y-009500D01*
X017125Y-009625D01*
X017125Y-010625D01*
X017500Y-010000D02*
X017500Y-007938D01*
X017313Y-007750D01*
X017312Y-003563D01*
X016875Y-003125D01*
X017312Y-002812D02*
X017313Y-002188D01*
X017312Y-002812D02*
X017500Y-003000D01*
X017500Y-003500D02*
X017500Y-007375D01*
X017625Y-007500D01*
X016438Y-005250D02*
X016313Y-005125D01*
X016313Y-003000D01*
X017500Y-003500D02*
X018000Y-003000D01*
X018500Y-003000D01*
D23*
X006875Y-010625D03*
X006875Y-012125D03*
M02*
