%
M48
M72
T01C0.0157
T02C0.0236
T03C0.0315
T04C0.0400
T05C0.1299
%
T01
X3438Y-5938
X3688Y-5250
X4125Y-4625
X3875Y-4000
X3250Y-4313
X4313Y-5812
X5750Y-5750
X6125Y-6063
X6125Y-5125
X6500Y-4625
X6375Y-4000
X6000Y-4313
X6313Y-2125
X6000Y-1813
X5937Y-1375
X5063Y-2125
X4688Y-1813
X4125Y-1375
X5000Y250
X5500Y125
X5625Y1125
X7250Y2250
X7875Y-375
X7875Y-750
X7875Y-1125
X7875Y-1500
X8250Y-1500
X8250Y-1125
X8250Y-750
X8625Y-750
X8625Y-1125
X8625Y-1500
X9000Y-1500
X9000Y-1125
X9000Y-750
X9000Y-375
X8625Y-375
X8250Y-375
X9250Y875
X9750Y1125
X10500Y0
X10250Y-1125
X10250Y-1875
X9875Y-2125
X8875Y-2750
X8375Y-4000
X7688Y-2688
X8188Y-6125
X8188Y-6938
X8250Y-7563
X7750Y-7625
X7375Y-8437
X8500Y-11250
X10000Y-11375
X10375Y-12125
X10750Y-11750
X11375Y-10625
X12250Y-9250
X12250Y-8438
X11938Y-7125
X11500Y-7063
X11500Y-6375
X10313Y-6688
X10250Y-7563
X12313Y-4375
X13000Y-3813
X13375Y-4062
X13000Y-4938
X14125Y-5563
X14000Y-6625
X14813Y-7125
X15250Y-6313
X16000Y-5375
X16438Y-5250
X16938Y-4500
X16938Y-4000
X16875Y-3125
X17500Y-3000
X17313Y-2188
X16938Y-1500
X17125Y-875
X17125Y-125
X17000Y375
X16750Y875
X16500Y375
X16250Y875
X16000Y375
X15750Y875
X15500Y375
X15188Y875
X15000Y375
X14500Y375
X14500Y1000
X14000Y688
X13625Y1250
X13125Y1000
X13250Y500
X12625Y1000
X11750Y375
X11125Y1500
X13125Y-2125
X13562Y-2188
X13250Y-2625
X13000Y-3000
X12750Y-2625
X12625Y-3125
X12250Y-2500
X10875Y-3938
X10063Y-4125
X12875Y-6375
X13125Y-6750
X13312Y-8063
X13312Y-9063
X15375Y-7813
X16313Y-7313
X16688Y-7625
X17625Y-7500
X17500Y-10000
X17125Y-10625
X15937Y-9688
X14625Y-4375
X14500Y-2500
X14500Y-2125
X15000Y-2125
X15125Y-2500
X15500Y-2000
X16000Y-2000
X16438Y-1937
X16313Y-3000
X14000Y-2500
X15375Y3000
X15438Y6750
X16625Y6875
X11500Y7625
X9875Y7625
X8813Y5625
X7875Y5625
X7063Y5625
X7063Y5125
X3250Y1250
X1625Y1250
X375Y1625
X375Y438
X7375Y-13750
X8125Y-13750
X8500Y-14125
X10000Y-14000
X10375Y-13000
T02
X6875Y-12125
X6875Y-10625
T03
X4000Y-9500
X2500Y-12750
X1875Y-12750
X2500Y-14250
X2750Y-3500
X2688Y500
X6125Y188
X7063Y-3500
X6500Y6187
X5938Y7375
X9250Y6188
X10875Y13188
X14813Y13000
X5250Y14938
T04
X-500Y0
X-500Y1000
X-500Y2000
X-500Y3000
X-500Y4000
X-500Y5000
X-500Y-1000
X-500Y-2000
X-500Y-4000
X-500Y-5000
X-500Y-6000
X-500Y-7000
X-500Y-8000
X-500Y-9000
X-500Y-11000
X-500Y-12000
X-500Y-13000
X-500Y-14000
X-500Y-15000
X-500Y-16000
X4500Y-16975
X5500Y-16975
X6500Y-16975
X7500Y-16975
X8500Y-16975
X9500Y-16975
X10500Y-16975
X11500Y-16975
X10500Y-10050
X10500Y-9050
X9500Y-9050
X9500Y-10050
X8500Y-10050
X8500Y-9050
X8500Y3694
X7500Y3694
X6500Y3694
X9500Y3694
X18500Y3600
X18500Y4600
X18500Y5600
X18500Y6600
X18500Y7600
X18500Y8600
X18500Y2600
X18500Y1600
X18500Y600
X18500Y-400
X18500Y-2000
X18500Y-3000
X18500Y-4000
X18500Y-5000
X18500Y-6000
X18500Y-7000
X18500Y-8000
X18500Y-9000
T05
X13610Y-16794
X2390Y-16794
X2390Y3679
X13610Y3679
M30
