G75*
%MOIN*%
%OFA0B0*%
%FSLAX24Y24*%
%IPPOS*%
%LPD*%
%AMOC8*
5,1,8,0,0,1.08239X$1,22.5*
%
%ADD10C,0.0000*%
D10*
X001740Y003679D02*
X001742Y003729D01*
X001748Y003779D01*
X001758Y003829D01*
X001771Y003877D01*
X001788Y003925D01*
X001809Y003971D01*
X001833Y004015D01*
X001861Y004057D01*
X001892Y004097D01*
X001926Y004134D01*
X001963Y004169D01*
X002002Y004200D01*
X002043Y004229D01*
X002087Y004254D01*
X002133Y004276D01*
X002180Y004294D01*
X002228Y004308D01*
X002277Y004319D01*
X002327Y004326D01*
X002377Y004329D01*
X002428Y004328D01*
X002478Y004323D01*
X002528Y004314D01*
X002576Y004302D01*
X002624Y004285D01*
X002670Y004265D01*
X002715Y004242D01*
X002758Y004215D01*
X002798Y004185D01*
X002836Y004152D01*
X002871Y004116D01*
X002904Y004077D01*
X002933Y004036D01*
X002959Y003993D01*
X002982Y003948D01*
X003001Y003901D01*
X003016Y003853D01*
X003028Y003804D01*
X003036Y003754D01*
X003040Y003704D01*
X003040Y003654D01*
X003036Y003604D01*
X003028Y003554D01*
X003016Y003505D01*
X003001Y003457D01*
X002982Y003410D01*
X002959Y003365D01*
X002933Y003322D01*
X002904Y003281D01*
X002871Y003242D01*
X002836Y003206D01*
X002798Y003173D01*
X002758Y003143D01*
X002715Y003116D01*
X002670Y003093D01*
X002624Y003073D01*
X002576Y003056D01*
X002528Y003044D01*
X002478Y003035D01*
X002428Y003030D01*
X002377Y003029D01*
X002327Y003032D01*
X002277Y003039D01*
X002228Y003050D01*
X002180Y003064D01*
X002133Y003082D01*
X002087Y003104D01*
X002043Y003129D01*
X002002Y003158D01*
X001963Y003189D01*
X001926Y003224D01*
X001892Y003261D01*
X001861Y003301D01*
X001833Y003343D01*
X001809Y003387D01*
X001788Y003433D01*
X001771Y003481D01*
X001758Y003529D01*
X001748Y003579D01*
X001742Y003629D01*
X001740Y003679D01*
X-001500Y016000D02*
X019500Y016000D01*
X019500Y-018325D01*
X-001500Y-018325D01*
X-001500Y016000D01*
X012960Y003679D02*
X012962Y003729D01*
X012968Y003779D01*
X012978Y003829D01*
X012991Y003877D01*
X013008Y003925D01*
X013029Y003971D01*
X013053Y004015D01*
X013081Y004057D01*
X013112Y004097D01*
X013146Y004134D01*
X013183Y004169D01*
X013222Y004200D01*
X013263Y004229D01*
X013307Y004254D01*
X013353Y004276D01*
X013400Y004294D01*
X013448Y004308D01*
X013497Y004319D01*
X013547Y004326D01*
X013597Y004329D01*
X013648Y004328D01*
X013698Y004323D01*
X013748Y004314D01*
X013796Y004302D01*
X013844Y004285D01*
X013890Y004265D01*
X013935Y004242D01*
X013978Y004215D01*
X014018Y004185D01*
X014056Y004152D01*
X014091Y004116D01*
X014124Y004077D01*
X014153Y004036D01*
X014179Y003993D01*
X014202Y003948D01*
X014221Y003901D01*
X014236Y003853D01*
X014248Y003804D01*
X014256Y003754D01*
X014260Y003704D01*
X014260Y003654D01*
X014256Y003604D01*
X014248Y003554D01*
X014236Y003505D01*
X014221Y003457D01*
X014202Y003410D01*
X014179Y003365D01*
X014153Y003322D01*
X014124Y003281D01*
X014091Y003242D01*
X014056Y003206D01*
X014018Y003173D01*
X013978Y003143D01*
X013935Y003116D01*
X013890Y003093D01*
X013844Y003073D01*
X013796Y003056D01*
X013748Y003044D01*
X013698Y003035D01*
X013648Y003030D01*
X013597Y003029D01*
X013547Y003032D01*
X013497Y003039D01*
X013448Y003050D01*
X013400Y003064D01*
X013353Y003082D01*
X013307Y003104D01*
X013263Y003129D01*
X013222Y003158D01*
X013183Y003189D01*
X013146Y003224D01*
X013112Y003261D01*
X013081Y003301D01*
X013053Y003343D01*
X013029Y003387D01*
X013008Y003433D01*
X012991Y003481D01*
X012978Y003529D01*
X012968Y003579D01*
X012962Y003629D01*
X012960Y003679D01*
X012960Y-016794D02*
X012962Y-016744D01*
X012968Y-016694D01*
X012978Y-016644D01*
X012991Y-016596D01*
X013008Y-016548D01*
X013029Y-016502D01*
X013053Y-016458D01*
X013081Y-016416D01*
X013112Y-016376D01*
X013146Y-016339D01*
X013183Y-016304D01*
X013222Y-016273D01*
X013263Y-016244D01*
X013307Y-016219D01*
X013353Y-016197D01*
X013400Y-016179D01*
X013448Y-016165D01*
X013497Y-016154D01*
X013547Y-016147D01*
X013597Y-016144D01*
X013648Y-016145D01*
X013698Y-016150D01*
X013748Y-016159D01*
X013796Y-016171D01*
X013844Y-016188D01*
X013890Y-016208D01*
X013935Y-016231D01*
X013978Y-016258D01*
X014018Y-016288D01*
X014056Y-016321D01*
X014091Y-016357D01*
X014124Y-016396D01*
X014153Y-016437D01*
X014179Y-016480D01*
X014202Y-016525D01*
X014221Y-016572D01*
X014236Y-016620D01*
X014248Y-016669D01*
X014256Y-016719D01*
X014260Y-016769D01*
X014260Y-016819D01*
X014256Y-016869D01*
X014248Y-016919D01*
X014236Y-016968D01*
X014221Y-017016D01*
X014202Y-017063D01*
X014179Y-017108D01*
X014153Y-017151D01*
X014124Y-017192D01*
X014091Y-017231D01*
X014056Y-017267D01*
X014018Y-017300D01*
X013978Y-017330D01*
X013935Y-017357D01*
X013890Y-017380D01*
X013844Y-017400D01*
X013796Y-017417D01*
X013748Y-017429D01*
X013698Y-017438D01*
X013648Y-017443D01*
X013597Y-017444D01*
X013547Y-017441D01*
X013497Y-017434D01*
X013448Y-017423D01*
X013400Y-017409D01*
X013353Y-017391D01*
X013307Y-017369D01*
X013263Y-017344D01*
X013222Y-017315D01*
X013183Y-017284D01*
X013146Y-017249D01*
X013112Y-017212D01*
X013081Y-017172D01*
X013053Y-017130D01*
X013029Y-017086D01*
X013008Y-017040D01*
X012991Y-016992D01*
X012978Y-016944D01*
X012968Y-016894D01*
X012962Y-016844D01*
X012960Y-016794D01*
X001740Y-016794D02*
X001742Y-016744D01*
X001748Y-016694D01*
X001758Y-016644D01*
X001771Y-016596D01*
X001788Y-016548D01*
X001809Y-016502D01*
X001833Y-016458D01*
X001861Y-016416D01*
X001892Y-016376D01*
X001926Y-016339D01*
X001963Y-016304D01*
X002002Y-016273D01*
X002043Y-016244D01*
X002087Y-016219D01*
X002133Y-016197D01*
X002180Y-016179D01*
X002228Y-016165D01*
X002277Y-016154D01*
X002327Y-016147D01*
X002377Y-016144D01*
X002428Y-016145D01*
X002478Y-016150D01*
X002528Y-016159D01*
X002576Y-016171D01*
X002624Y-016188D01*
X002670Y-016208D01*
X002715Y-016231D01*
X002758Y-016258D01*
X002798Y-016288D01*
X002836Y-016321D01*
X002871Y-016357D01*
X002904Y-016396D01*
X002933Y-016437D01*
X002959Y-016480D01*
X002982Y-016525D01*
X003001Y-016572D01*
X003016Y-016620D01*
X003028Y-016669D01*
X003036Y-016719D01*
X003040Y-016769D01*
X003040Y-016819D01*
X003036Y-016869D01*
X003028Y-016919D01*
X003016Y-016968D01*
X003001Y-017016D01*
X002982Y-017063D01*
X002959Y-017108D01*
X002933Y-017151D01*
X002904Y-017192D01*
X002871Y-017231D01*
X002836Y-017267D01*
X002798Y-017300D01*
X002758Y-017330D01*
X002715Y-017357D01*
X002670Y-017380D01*
X002624Y-017400D01*
X002576Y-017417D01*
X002528Y-017429D01*
X002478Y-017438D01*
X002428Y-017443D01*
X002377Y-017444D01*
X002327Y-017441D01*
X002277Y-017434D01*
X002228Y-017423D01*
X002180Y-017409D01*
X002133Y-017391D01*
X002087Y-017369D01*
X002043Y-017344D01*
X002002Y-017315D01*
X001963Y-017284D01*
X001926Y-017249D01*
X001892Y-017212D01*
X001861Y-017172D01*
X001833Y-017130D01*
X001809Y-017086D01*
X001788Y-017040D01*
X001771Y-016992D01*
X001758Y-016944D01*
X001748Y-016894D01*
X001742Y-016844D01*
X001740Y-016794D01*
M02*
