G75*
%MOIN*%
%OFA0B0*%
%FSLAX24Y24*%
%IPPOS*%
%LPD*%
%AMOC8*
5,1,8,0,0,1.08239X$1,22.5*
%
%ADD10R,0.1655X0.1655*%
%ADD11C,0.0190*%
%ADD12R,0.0592X0.0592*%
%ADD13C,0.0101*%
%ADD14R,0.0474X0.0513*%
%ADD15R,0.0513X0.0474*%
%ADD16R,0.0434X0.0356*%
%ADD17R,0.0356X0.0434*%
%ADD18R,0.0592X0.0671*%
%ADD19R,0.0946X0.0415*%
%ADD20R,0.0493X0.0474*%
%ADD21C,0.0680*%
%ADD22C,0.1379*%
%ADD23R,0.0394X0.0177*%
%ADD24R,0.0631X0.0474*%
%ADD25C,0.0680*%
%ADD26OC8,0.0680*%
%ADD27R,0.0218X0.0552*%
%ADD28R,0.0671X0.0867*%
%ADD29R,0.1576X0.0867*%
%ADD30R,0.0671X0.0592*%
%ADD31R,0.0828X0.0395*%
%ADD32R,0.0395X0.0828*%
%ADD33R,0.0552X0.0552*%
%ADD34R,0.0237X0.0356*%
%ADD35C,0.0555*%
%ADD36C,0.0397*%
%ADD37C,0.0476*%
D10*
X008425Y-000875D03*
D11*
X008327Y-001910D02*
X008327Y-002194D01*
X008523Y-002194D02*
X008523Y-001910D01*
X008720Y-001910D02*
X008720Y-002194D01*
X008917Y-002194D02*
X008917Y-001910D01*
X009114Y-001910D02*
X009114Y-002194D01*
X009311Y-002194D02*
X009311Y-001910D01*
X009460Y-001761D02*
X009744Y-001761D01*
X009744Y-001564D02*
X009460Y-001564D01*
X009460Y-001367D02*
X009744Y-001367D01*
X009744Y-001170D02*
X009460Y-001170D01*
X009460Y-000973D02*
X009744Y-000973D01*
X009744Y-000777D02*
X009460Y-000777D01*
X009460Y-000580D02*
X009744Y-000580D01*
X009744Y-000383D02*
X009460Y-000383D01*
X009460Y-000186D02*
X009744Y-000186D01*
X009744Y000011D02*
X009460Y000011D01*
X009311Y000160D02*
X009311Y000444D01*
X009114Y000444D02*
X009114Y000160D01*
X008917Y000160D02*
X008917Y000444D01*
X008720Y000444D02*
X008720Y000160D01*
X008523Y000160D02*
X008523Y000444D01*
X008327Y000444D02*
X008327Y000160D01*
X008130Y000160D02*
X008130Y000444D01*
X007933Y000444D02*
X007933Y000160D01*
X007736Y000160D02*
X007736Y000444D01*
X007539Y000444D02*
X007539Y000160D01*
X007390Y000011D02*
X007106Y000011D01*
X007106Y-000186D02*
X007390Y-000186D01*
X007390Y-000383D02*
X007106Y-000383D01*
X007106Y-000580D02*
X007390Y-000580D01*
X007390Y-000777D02*
X007106Y-000777D01*
X007106Y-000973D02*
X007390Y-000973D01*
X007390Y-001170D02*
X007106Y-001170D01*
X007106Y-001367D02*
X007390Y-001367D01*
X007390Y-001564D02*
X007106Y-001564D01*
X007106Y-001761D02*
X007390Y-001761D01*
X007539Y-001910D02*
X007539Y-002194D01*
X007736Y-002194D02*
X007736Y-001910D01*
X007933Y-001910D02*
X007933Y-002194D01*
X008130Y-002194D02*
X008130Y-001910D01*
D12*
X007778Y001521D03*
X007778Y002229D03*
X008722Y002229D03*
X008722Y001521D03*
D13*
X009431Y001705D02*
X009431Y001941D01*
X009431Y001705D02*
X009195Y001705D01*
X009195Y001941D01*
X009431Y001941D01*
X009431Y001805D02*
X009195Y001805D01*
X009195Y001905D02*
X009431Y001905D01*
X009431Y002059D02*
X009431Y002295D01*
X009431Y002059D02*
X009195Y002059D01*
X009195Y002295D01*
X009431Y002295D01*
X009431Y002159D02*
X009195Y002159D01*
X009195Y002259D02*
X009431Y002259D01*
X010618Y001545D02*
X010618Y001309D01*
X010382Y001309D01*
X010382Y001545D01*
X010618Y001545D01*
X010618Y001409D02*
X010382Y001409D01*
X010382Y001509D02*
X010618Y001509D01*
X010618Y001191D02*
X010618Y000955D01*
X010382Y000955D01*
X010382Y001191D01*
X010618Y001191D01*
X010618Y001055D02*
X010382Y001055D01*
X010382Y001155D02*
X010618Y001155D01*
X010830Y001007D02*
X011066Y001007D01*
X010830Y001007D02*
X010830Y001243D01*
X011066Y001243D01*
X011066Y001007D01*
X011066Y001107D02*
X010830Y001107D01*
X010830Y001207D02*
X011066Y001207D01*
X011184Y001007D02*
X011420Y001007D01*
X011184Y001007D02*
X011184Y001243D01*
X011420Y001243D01*
X011420Y001007D01*
X011420Y001107D02*
X011184Y001107D01*
X011184Y001207D02*
X011420Y001207D01*
X012243Y001295D02*
X012243Y001059D01*
X012007Y001059D01*
X012007Y001295D01*
X012243Y001295D01*
X012243Y001159D02*
X012007Y001159D01*
X012007Y001259D02*
X012243Y001259D01*
X012243Y000941D02*
X012243Y000705D01*
X012007Y000705D01*
X012007Y000941D01*
X012243Y000941D01*
X012243Y000805D02*
X012007Y000805D01*
X012007Y000905D02*
X012243Y000905D01*
X014330Y-000257D02*
X014566Y-000257D01*
X014566Y-000493D01*
X014330Y-000493D01*
X014330Y-000257D01*
X014330Y-000393D02*
X014566Y-000393D01*
X014566Y-000293D02*
X014330Y-000293D01*
X014684Y-000257D02*
X014920Y-000257D01*
X014920Y-000493D01*
X014684Y-000493D01*
X014684Y-000257D01*
X014684Y-000393D02*
X014920Y-000393D01*
X014920Y-000293D02*
X014684Y-000293D01*
X014684Y-001507D02*
X014920Y-001507D01*
X014920Y-001743D01*
X014684Y-001743D01*
X014684Y-001507D01*
X014684Y-001643D02*
X014920Y-001643D01*
X014920Y-001543D02*
X014684Y-001543D01*
X014566Y-001507D02*
X014330Y-001507D01*
X014566Y-001507D02*
X014566Y-001743D01*
X014330Y-001743D01*
X014330Y-001507D01*
X014330Y-001643D02*
X014566Y-001643D01*
X014566Y-001543D02*
X014330Y-001543D01*
X015267Y006257D02*
X015503Y006257D01*
X015267Y006257D02*
X015267Y006493D01*
X015503Y006493D01*
X015503Y006257D01*
X015503Y006357D02*
X015267Y006357D01*
X015267Y006457D02*
X015503Y006457D01*
X015622Y006257D02*
X015858Y006257D01*
X015622Y006257D02*
X015622Y006493D01*
X015858Y006493D01*
X015858Y006257D01*
X015858Y006357D02*
X015622Y006357D01*
X015622Y006457D02*
X015858Y006457D01*
X016705Y006257D02*
X016941Y006257D01*
X016705Y006257D02*
X016705Y006493D01*
X016941Y006493D01*
X016941Y006257D01*
X016941Y006357D02*
X016705Y006357D01*
X016705Y006457D02*
X016941Y006457D01*
X017059Y006257D02*
X017295Y006257D01*
X017059Y006257D02*
X017059Y006493D01*
X017295Y006493D01*
X017295Y006257D01*
X017295Y006357D02*
X017059Y006357D01*
X017059Y006457D02*
X017295Y006457D01*
X017295Y007132D02*
X017059Y007132D01*
X017059Y007368D01*
X017295Y007368D01*
X017295Y007132D01*
X017295Y007232D02*
X017059Y007232D01*
X017059Y007332D02*
X017295Y007332D01*
X017295Y007632D02*
X017059Y007632D01*
X017059Y007868D01*
X017295Y007868D01*
X017295Y007632D01*
X017295Y007732D02*
X017059Y007732D01*
X017059Y007832D02*
X017295Y007832D01*
X016941Y007632D02*
X016705Y007632D01*
X016705Y007868D01*
X016941Y007868D01*
X016941Y007632D01*
X016941Y007732D02*
X016705Y007732D01*
X016705Y007832D02*
X016941Y007832D01*
X016941Y007132D02*
X016705Y007132D01*
X016705Y007368D01*
X016941Y007368D01*
X016941Y007132D01*
X016941Y007232D02*
X016705Y007232D01*
X016705Y007332D02*
X016941Y007332D01*
X012500Y012087D02*
X012264Y012087D01*
X012264Y012323D01*
X012500Y012323D01*
X012500Y012087D01*
X012500Y012187D02*
X012264Y012187D01*
X012264Y012287D02*
X012500Y012287D01*
X012146Y012087D02*
X011910Y012087D01*
X011910Y012323D01*
X012146Y012323D01*
X012146Y012087D01*
X012146Y012187D02*
X011910Y012187D01*
X011910Y012287D02*
X012146Y012287D01*
X012146Y012874D02*
X011910Y012874D01*
X011910Y013110D01*
X012146Y013110D01*
X012146Y012874D01*
X012146Y012974D02*
X011910Y012974D01*
X011910Y013074D02*
X012146Y013074D01*
X012264Y012874D02*
X012500Y012874D01*
X012264Y012874D02*
X012264Y013110D01*
X012500Y013110D01*
X012500Y012874D01*
X012500Y012974D02*
X012264Y012974D01*
X012264Y013074D02*
X012500Y013074D01*
X012500Y013662D02*
X012264Y013662D01*
X012264Y013898D01*
X012500Y013898D01*
X012500Y013662D01*
X012500Y013762D02*
X012264Y013762D01*
X012264Y013862D02*
X012500Y013862D01*
X012146Y013662D02*
X011910Y013662D01*
X011910Y013898D01*
X012146Y013898D01*
X012146Y013662D01*
X012146Y013762D02*
X011910Y013762D01*
X011910Y013862D02*
X012146Y013862D01*
X011237Y010488D02*
X011237Y010252D01*
X011237Y010488D02*
X011473Y010488D01*
X011473Y010252D01*
X011237Y010252D01*
X011237Y010352D02*
X011473Y010352D01*
X011473Y010452D02*
X011237Y010452D01*
X011237Y010133D02*
X011237Y009897D01*
X011237Y010133D02*
X011473Y010133D01*
X011473Y009897D01*
X011237Y009897D01*
X011237Y009997D02*
X011473Y009997D01*
X011473Y010097D02*
X011237Y010097D01*
X006945Y001920D02*
X006945Y001684D01*
X006945Y001920D02*
X007181Y001920D01*
X007181Y001684D01*
X006945Y001684D01*
X006945Y001784D02*
X007181Y001784D01*
X007181Y001884D02*
X006945Y001884D01*
X006945Y001566D02*
X006945Y001330D01*
X006945Y001566D02*
X007181Y001566D01*
X007181Y001330D01*
X006945Y001330D01*
X006945Y001430D02*
X007181Y001430D01*
X007181Y001530D02*
X006945Y001530D01*
X006545Y001007D02*
X006309Y001007D01*
X006309Y001243D01*
X006545Y001243D01*
X006545Y001007D01*
X006545Y001107D02*
X006309Y001107D01*
X006309Y001207D02*
X006545Y001207D01*
X006191Y001007D02*
X005955Y001007D01*
X005955Y001243D01*
X006191Y001243D01*
X006191Y001007D01*
X006191Y001107D02*
X005955Y001107D01*
X005955Y001207D02*
X006191Y001207D01*
X006191Y000507D02*
X005955Y000507D01*
X005955Y000743D01*
X006191Y000743D01*
X006191Y000507D01*
X006191Y000607D02*
X005955Y000607D01*
X005955Y000707D02*
X006191Y000707D01*
X006309Y000507D02*
X006545Y000507D01*
X006309Y000507D02*
X006309Y000743D01*
X006545Y000743D01*
X006545Y000507D01*
X006545Y000607D02*
X006309Y000607D01*
X006309Y000707D02*
X006545Y000707D01*
X004882Y000045D02*
X004882Y-000191D01*
X004882Y000045D02*
X005118Y000045D01*
X005118Y-000191D01*
X004882Y-000191D01*
X004882Y-000091D02*
X005118Y-000091D01*
X005118Y000009D02*
X004882Y000009D01*
X004882Y-000309D02*
X004882Y-000545D01*
X004882Y-000309D02*
X005118Y-000309D01*
X005118Y-000545D01*
X004882Y-000545D01*
X004882Y-000445D02*
X005118Y-000445D01*
X005118Y-000345D02*
X004882Y-000345D01*
X006805Y-002782D02*
X007041Y-002782D01*
X007041Y-003018D01*
X006805Y-003018D01*
X006805Y-002782D01*
X006805Y-002918D02*
X007041Y-002918D01*
X007041Y-002818D02*
X006805Y-002818D01*
X007159Y-002782D02*
X007395Y-002782D01*
X007395Y-003018D01*
X007159Y-003018D01*
X007159Y-002782D01*
X007159Y-002918D02*
X007395Y-002918D01*
X007395Y-002818D02*
X007159Y-002818D01*
X005031Y006687D02*
X005031Y006923D01*
X005267Y006923D01*
X005267Y006687D01*
X005031Y006687D01*
X005031Y006787D02*
X005267Y006787D01*
X005267Y006887D02*
X005031Y006887D01*
X005031Y007041D02*
X005031Y007277D01*
X005267Y007277D01*
X005267Y007041D01*
X005031Y007041D01*
X005031Y007141D02*
X005267Y007141D01*
X005267Y007241D02*
X005031Y007241D01*
X000587Y-002748D02*
X000587Y-002984D01*
X000351Y-002984D01*
X000351Y-002748D01*
X000587Y-002748D01*
X000587Y-002884D02*
X000351Y-002884D01*
X000351Y-002784D02*
X000587Y-002784D01*
X000587Y-003102D02*
X000587Y-003338D01*
X000351Y-003338D01*
X000351Y-003102D01*
X000587Y-003102D01*
X000587Y-003238D02*
X000351Y-003238D01*
X000351Y-003138D02*
X000587Y-003138D01*
X011095Y-012892D02*
X011095Y-013128D01*
X011095Y-012892D02*
X011331Y-012892D01*
X011331Y-013128D01*
X011095Y-013128D01*
X011095Y-013028D02*
X011331Y-013028D01*
X011331Y-012928D02*
X011095Y-012928D01*
X011095Y-013247D02*
X011095Y-013483D01*
X011095Y-013247D02*
X011331Y-013247D01*
X011331Y-013483D01*
X011095Y-013483D01*
X011095Y-013383D02*
X011331Y-013383D01*
X011331Y-013283D02*
X011095Y-013283D01*
X014205Y-013258D02*
X014205Y-013022D01*
X014205Y-013258D02*
X013969Y-013258D01*
X013969Y-013022D01*
X014205Y-013022D01*
X014205Y-013158D02*
X013969Y-013158D01*
X013969Y-013058D02*
X014205Y-013058D01*
X014205Y-012903D02*
X014205Y-012667D01*
X014205Y-012903D02*
X013969Y-012903D01*
X013969Y-012667D01*
X014205Y-012667D01*
X014205Y-012803D02*
X013969Y-012803D01*
X013969Y-012703D02*
X014205Y-012703D01*
D14*
X012000Y-003772D03*
X012000Y-003103D03*
X011250Y-002915D03*
X011250Y-003585D03*
X008250Y-003460D03*
X008250Y-002790D03*
X010625Y002040D03*
X010625Y002710D03*
D15*
X011665Y002125D03*
X012335Y002125D03*
X009522Y-004125D03*
X008853Y-004125D03*
D16*
X009500Y-003381D03*
X010000Y-003381D03*
X010000Y-002869D03*
X009500Y-002869D03*
X010500Y-002994D03*
X010500Y-003506D03*
X012250Y-002131D03*
X012250Y-001619D03*
X012250Y-000381D03*
X012250Y000131D03*
X014000Y000131D03*
X014000Y-000381D03*
X014000Y-001619D03*
X014000Y-002131D03*
X011963Y-005832D03*
X011963Y-006343D03*
X015375Y004244D03*
X015375Y004756D03*
D17*
X013381Y-000375D03*
X012869Y-000375D03*
X012869Y-001625D03*
X013381Y-001625D03*
X011381Y000000D03*
X011131Y000625D03*
X010869Y000000D03*
X010619Y000625D03*
X014744Y-005438D03*
X015256Y-005438D03*
X015807Y-006313D03*
X016318Y-006313D03*
X015506Y-009750D03*
X014994Y-009750D03*
X006081Y-000325D03*
X005569Y-000325D03*
D18*
X010876Y-000750D03*
X010876Y-001625D03*
X011624Y-001625D03*
X011624Y-000750D03*
X003124Y-008500D03*
X002376Y-008500D03*
D19*
X016125Y-001416D03*
X016125Y-000334D03*
D20*
X015525Y-000875D03*
D21*
X-000200Y000000D02*
X-000800Y000000D01*
X-000800Y001000D02*
X-000200Y001000D01*
X-000200Y002000D02*
X-000800Y002000D01*
X-000800Y003000D02*
X-000200Y003000D01*
X-000200Y004000D02*
X-000800Y004000D01*
X-000800Y005000D02*
X-000200Y005000D01*
X-000200Y-001000D02*
X-000800Y-001000D01*
X-000800Y-002000D02*
X-000200Y-002000D01*
X-000200Y-004000D02*
X-000800Y-004000D01*
X-000800Y-005000D02*
X-000200Y-005000D01*
X-000200Y-006000D02*
X-000800Y-006000D01*
X-000800Y-007000D02*
X-000200Y-007000D01*
X-000200Y-008000D02*
X-000800Y-008000D01*
X-000800Y-009000D02*
X-000200Y-009000D01*
X-000200Y-011000D02*
X-000800Y-011000D01*
X-000800Y-012000D02*
X-000200Y-012000D01*
X-000200Y-013000D02*
X-000800Y-013000D01*
X-000800Y-014000D02*
X-000200Y-014000D01*
X-000200Y-015000D02*
X-000800Y-015000D01*
X-000800Y-016000D02*
X-000200Y-016000D01*
X004500Y-016675D02*
X004500Y-017275D01*
X005500Y-017275D02*
X005500Y-016675D01*
X006500Y-016675D02*
X006500Y-017275D01*
X007500Y-017275D02*
X007500Y-016675D01*
X008500Y-016675D02*
X008500Y-017275D01*
X009500Y-017275D02*
X009500Y-016675D01*
X010500Y-016675D02*
X010500Y-017275D01*
X011500Y-017275D02*
X011500Y-016675D01*
X018200Y-009000D02*
X018800Y-009000D01*
X018800Y-008000D02*
X018200Y-008000D01*
X018200Y-007000D02*
X018800Y-007000D01*
X018800Y-006000D02*
X018200Y-006000D01*
X018200Y-005000D02*
X018800Y-005000D01*
X018800Y-004000D02*
X018200Y-004000D01*
X018200Y-003000D02*
X018800Y-003000D01*
X018800Y-002000D02*
X018200Y-002000D01*
X018200Y-000400D02*
X018800Y-000400D01*
X018800Y000600D02*
X018200Y000600D01*
X018200Y001600D02*
X018800Y001600D01*
X018800Y002600D02*
X018200Y002600D01*
X018200Y003600D02*
X018800Y003600D01*
X018800Y004600D02*
X018200Y004600D01*
X018200Y005600D02*
X018800Y005600D01*
X018800Y006600D02*
X018200Y006600D01*
X018200Y007600D02*
X018800Y007600D01*
X018800Y008600D02*
X018200Y008600D01*
X009500Y003994D02*
X009500Y003394D01*
X008500Y003394D02*
X008500Y003994D01*
X007500Y003994D02*
X007500Y003394D01*
X006500Y003394D02*
X006500Y003994D01*
D22*
X002390Y003679D03*
X013610Y003679D03*
X013610Y-016794D03*
X002390Y-016794D03*
D23*
X008723Y-007580D03*
X008723Y-007324D03*
X008723Y-007068D03*
X008723Y-006813D03*
X008723Y-006557D03*
X008723Y-006301D03*
X008723Y-006045D03*
X011027Y-006045D03*
X011027Y-006301D03*
X011027Y-006557D03*
X011027Y-006813D03*
X011027Y-007068D03*
X011027Y-007324D03*
X011027Y-007580D03*
X013911Y-007670D03*
X013911Y-007926D03*
X013911Y-008182D03*
X013911Y-008438D03*
X013911Y-008693D03*
X013911Y-008949D03*
X013911Y-009205D03*
X016214Y-009205D03*
X016214Y-008949D03*
X016214Y-008693D03*
X016214Y-008438D03*
X016214Y-008182D03*
X016214Y-007926D03*
X016214Y-007670D03*
X016277Y-004893D03*
X016277Y-004637D03*
X016277Y-004381D03*
X016277Y-004125D03*
X016277Y-003869D03*
X016277Y-003613D03*
X016277Y-003357D03*
X013973Y-003357D03*
X013973Y-003613D03*
X013973Y-003869D03*
X013973Y-004125D03*
X013973Y-004381D03*
X013973Y-004637D03*
X013973Y-004893D03*
D24*
X012721Y-012526D03*
X012721Y-013274D03*
X011854Y-012900D03*
D25*
X010500Y-009050D03*
D26*
X010500Y-010050D03*
X009500Y-010050D03*
X009500Y-009050D03*
X008500Y-009050D03*
X008500Y-010050D03*
D27*
X016116Y003223D03*
X016372Y003223D03*
X016628Y003223D03*
X016884Y003223D03*
X016884Y005527D03*
X016628Y005527D03*
X016372Y005527D03*
X016116Y005527D03*
D28*
X003156Y-009510D03*
X002250Y-009510D03*
X001344Y-009510D03*
D29*
X002250Y-011990D03*
D30*
X004375Y-011124D03*
X004375Y-010376D03*
D31*
X010181Y008874D03*
X010181Y010075D03*
X010181Y010475D03*
X010181Y010875D03*
X010181Y011275D03*
X010181Y011675D03*
X010181Y012075D03*
X010181Y012475D03*
X010181Y012875D03*
D32*
X009130Y013921D03*
X008730Y013921D03*
X008330Y013921D03*
X007930Y013921D03*
X006330Y013921D03*
X005530Y013921D03*
X005130Y013921D03*
X004730Y013921D03*
X004330Y013921D03*
X005132Y008126D03*
X005532Y008126D03*
X005932Y008126D03*
X006332Y008126D03*
X006732Y008126D03*
X007132Y008126D03*
X007532Y008126D03*
X007932Y008126D03*
X008332Y008126D03*
X008732Y008126D03*
D33*
X013366Y012205D03*
X013366Y012992D03*
X013366Y013780D03*
X014193Y013780D03*
X014193Y012992D03*
X014193Y012205D03*
D34*
X016869Y-005603D03*
X017125Y-005603D03*
X017381Y-005603D03*
X017381Y-006272D03*
X016869Y-006272D03*
D35*
X009250Y006188D03*
X006500Y006187D03*
X005938Y007375D03*
X002688Y000500D03*
X002750Y-003500D03*
X006125Y000188D03*
X007063Y-003500D03*
X004000Y-009500D03*
X002500Y-012750D03*
X001875Y-012750D03*
X002500Y-014250D03*
X010875Y013188D03*
X014813Y013000D03*
X005250Y014938D03*
D36*
X009875Y007625D03*
X008813Y005625D03*
X007875Y005625D03*
X007063Y005625D03*
X007063Y005125D03*
X007250Y002250D03*
X005625Y001125D03*
X005500Y000125D03*
X005000Y000250D03*
X004125Y-001375D03*
X004688Y-001813D03*
X005063Y-002125D03*
X006000Y-001813D03*
X005937Y-001375D03*
X006313Y-002125D03*
X007688Y-002688D03*
X007875Y-001500D03*
X007875Y-001125D03*
X007875Y-000750D03*
X007875Y-000375D03*
X008250Y-000375D03*
X008625Y-000375D03*
X008625Y-000750D03*
X008625Y-001125D03*
X008625Y-001500D03*
X008250Y-001500D03*
X008250Y-001125D03*
X008250Y-000750D03*
X009000Y-000750D03*
X009000Y-001125D03*
X009000Y-001500D03*
X009875Y-002125D03*
X010250Y-001875D03*
X010250Y-001125D03*
X010500Y000000D03*
X009750Y001125D03*
X009250Y000875D03*
X009000Y-000375D03*
X008875Y-002750D03*
X008375Y-004000D03*
X008188Y-006125D03*
X008188Y-006938D03*
X008250Y-007563D03*
X007750Y-007625D03*
X007375Y-008437D03*
X006125Y-006063D03*
X005750Y-005750D03*
X006125Y-005125D03*
X006500Y-004625D03*
X006375Y-004000D03*
X006000Y-004313D03*
X004313Y-005812D03*
X003688Y-005250D03*
X003438Y-005938D03*
X004125Y-004625D03*
X003875Y-004000D03*
X003250Y-004313D03*
X000375Y000438D03*
X000375Y001625D03*
X001625Y001250D03*
X003250Y001250D03*
X010063Y-004125D03*
X010875Y-003938D03*
X012250Y-002500D03*
X012625Y-003125D03*
X012750Y-002625D03*
X013000Y-003000D03*
X013250Y-002625D03*
X013562Y-002188D03*
X013125Y-002125D03*
X014000Y-002500D03*
X014500Y-002500D03*
X014500Y-002125D03*
X015000Y-002125D03*
X015125Y-002500D03*
X015500Y-002000D03*
X016000Y-002000D03*
X016438Y-001937D03*
X016938Y-001500D03*
X017125Y-000875D03*
X017125Y-000125D03*
X017000Y000375D03*
X016750Y000875D03*
X016500Y000375D03*
X016250Y000875D03*
X016000Y000375D03*
X015750Y000875D03*
X015500Y000375D03*
X015188Y000875D03*
X015000Y000375D03*
X014500Y000375D03*
X014500Y001000D03*
X014000Y000688D03*
X013625Y001250D03*
X013125Y001000D03*
X013250Y000500D03*
X012625Y001000D03*
X011750Y000375D03*
X011125Y001500D03*
X013000Y-003813D03*
X013375Y-004062D03*
X013000Y-004938D03*
X012313Y-004375D03*
X012875Y-006375D03*
X013125Y-006750D03*
X014000Y-006625D03*
X014813Y-007125D03*
X015250Y-006313D03*
X016000Y-005375D03*
X016438Y-005250D03*
X016938Y-004500D03*
X016938Y-004000D03*
X016875Y-003125D03*
X017500Y-003000D03*
X017313Y-002188D03*
X016313Y-003000D03*
X014625Y-004375D03*
X014125Y-005563D03*
X015375Y-007813D03*
X016313Y-007313D03*
X016688Y-007625D03*
X017625Y-007500D03*
X017500Y-010000D03*
X017125Y-010625D03*
X015937Y-009688D03*
X013312Y-009063D03*
X013312Y-008063D03*
X012250Y-008438D03*
X012250Y-009250D03*
X011375Y-010625D03*
X010750Y-011750D03*
X010375Y-012125D03*
X010000Y-011375D03*
X010375Y-013000D03*
X010000Y-014000D03*
X008500Y-014125D03*
X008125Y-013750D03*
X007375Y-013750D03*
X008500Y-011250D03*
X010250Y-007563D03*
X010313Y-006688D03*
X011500Y-006375D03*
X011500Y-007063D03*
X011938Y-007125D03*
X015375Y003000D03*
X015438Y006750D03*
X016625Y006875D03*
X011500Y007625D03*
D37*
X006875Y-010625D03*
X006875Y-012125D03*
M02*
