G75*
%MOIN*%
%OFA0B0*%
%FSLAX24Y24*%
%IPPOS*%
%LPD*%
%AMOC8*
5,1,8,0,0,1.08239X$1,22.5*
%
%ADD10C,0.0110*%
%ADD11R,0.0394X0.0394*%
%ADD12R,0.0512X0.0512*%
%ADD13C,0.0077*%
%ADD14R,0.0394X0.0433*%
%ADD15R,0.0433X0.0394*%
%ADD16R,0.0354X0.0276*%
%ADD17R,0.0276X0.0354*%
%ADD18R,0.0512X0.0591*%
%ADD19R,0.0866X0.0335*%
%ADD20R,0.0413X0.0394*%
%ADD21R,0.0354X0.0138*%
%ADD22R,0.0551X0.0394*%
%ADD23R,0.0138X0.0472*%
%ADD24R,0.0591X0.0787*%
%ADD25R,0.1496X0.0787*%
%ADD26R,0.0591X0.0512*%
%ADD27R,0.0748X0.0315*%
%ADD28R,0.0315X0.0748*%
%ADD29R,0.0472X0.0472*%
%ADD30R,0.0157X0.0276*%
D10*
X007539Y-002194D02*
X007539Y-001910D01*
X007736Y-001910D02*
X007736Y-002194D01*
X007933Y-002194D02*
X007933Y-001910D01*
X008130Y-001910D02*
X008130Y-002194D01*
X008327Y-002194D02*
X008327Y-001910D01*
X008523Y-001910D02*
X008523Y-002194D01*
X008720Y-002194D02*
X008720Y-001910D01*
X008917Y-001910D02*
X008917Y-002194D01*
X009114Y-002194D02*
X009114Y-001910D01*
X009311Y-001910D02*
X009311Y-002194D01*
X009460Y-001761D02*
X009744Y-001761D01*
X009744Y-001564D02*
X009460Y-001564D01*
X009460Y-001367D02*
X009744Y-001367D01*
X009744Y-001170D02*
X009460Y-001170D01*
X009460Y-000973D02*
X009744Y-000973D01*
X009744Y-000777D02*
X009460Y-000777D01*
X009460Y-000580D02*
X009744Y-000580D01*
X009744Y-000383D02*
X009460Y-000383D01*
X009460Y-000186D02*
X009744Y-000186D01*
X009744Y000011D02*
X009460Y000011D01*
X009311Y000160D02*
X009311Y000444D01*
X009114Y000444D02*
X009114Y000160D01*
X008917Y000160D02*
X008917Y000444D01*
X008720Y000444D02*
X008720Y000160D01*
X008523Y000160D02*
X008523Y000444D01*
X008327Y000444D02*
X008327Y000160D01*
X008130Y000160D02*
X008130Y000444D01*
X007933Y000444D02*
X007933Y000160D01*
X007736Y000160D02*
X007736Y000444D01*
X007539Y000444D02*
X007539Y000160D01*
X007390Y000011D02*
X007106Y000011D01*
X007106Y-000186D02*
X007390Y-000186D01*
X007390Y-000383D02*
X007106Y-000383D01*
X007106Y-000580D02*
X007390Y-000580D01*
X007390Y-000777D02*
X007106Y-000777D01*
X007106Y-000973D02*
X007390Y-000973D01*
X007390Y-001170D02*
X007106Y-001170D01*
X007106Y-001367D02*
X007390Y-001367D01*
X007390Y-001564D02*
X007106Y-001564D01*
X007106Y-001761D02*
X007390Y-001761D01*
D11*
X007913Y-001387D03*
X007913Y-000875D03*
X007913Y-000363D03*
X008425Y-000363D03*
X008425Y-000875D03*
X008425Y-001387D03*
X008937Y-001387D03*
X008937Y-000875D03*
X008937Y-000363D03*
D12*
X008722Y001521D03*
X008722Y002229D03*
X007778Y002229D03*
X007778Y001521D03*
D13*
X000559Y-002776D02*
X000559Y-002956D01*
X000379Y-002956D01*
X000379Y-002776D01*
X000559Y-002776D01*
X000559Y-002880D02*
X000379Y-002880D01*
X000379Y-002804D02*
X000559Y-002804D01*
X000559Y-003130D02*
X000559Y-003310D01*
X000379Y-003310D01*
X000379Y-003130D01*
X000559Y-003130D01*
X000559Y-003234D02*
X000379Y-003234D01*
X000379Y-003158D02*
X000559Y-003158D01*
X004910Y-000517D02*
X004910Y-000337D01*
X005090Y-000337D01*
X005090Y-000517D01*
X004910Y-000517D01*
X004910Y-000441D02*
X005090Y-000441D01*
X005090Y-000365D02*
X004910Y-000365D01*
X004910Y-000163D02*
X004910Y000017D01*
X005090Y000017D01*
X005090Y-000163D01*
X004910Y-000163D01*
X004910Y-000087D02*
X005090Y-000087D01*
X005090Y-000011D02*
X004910Y-000011D01*
X005983Y000535D02*
X006163Y000535D01*
X005983Y000535D02*
X005983Y000715D01*
X006163Y000715D01*
X006163Y000535D01*
X006163Y000611D02*
X005983Y000611D01*
X005983Y000687D02*
X006163Y000687D01*
X006337Y000535D02*
X006517Y000535D01*
X006337Y000535D02*
X006337Y000715D01*
X006517Y000715D01*
X006517Y000535D01*
X006517Y000611D02*
X006337Y000611D01*
X006337Y000687D02*
X006517Y000687D01*
X006517Y001035D02*
X006337Y001035D01*
X006337Y001215D01*
X006517Y001215D01*
X006517Y001035D01*
X006517Y001111D02*
X006337Y001111D01*
X006337Y001187D02*
X006517Y001187D01*
X006163Y001035D02*
X005983Y001035D01*
X005983Y001215D01*
X006163Y001215D01*
X006163Y001035D01*
X006163Y001111D02*
X005983Y001111D01*
X005983Y001187D02*
X006163Y001187D01*
X006973Y001358D02*
X006973Y001538D01*
X007153Y001538D01*
X007153Y001358D01*
X006973Y001358D01*
X006973Y001434D02*
X007153Y001434D01*
X007153Y001510D02*
X006973Y001510D01*
X006973Y001712D02*
X006973Y001892D01*
X007153Y001892D01*
X007153Y001712D01*
X006973Y001712D01*
X006973Y001788D02*
X007153Y001788D01*
X007153Y001864D02*
X006973Y001864D01*
X009403Y001913D02*
X009403Y001733D01*
X009223Y001733D01*
X009223Y001913D01*
X009403Y001913D01*
X009403Y001809D02*
X009223Y001809D01*
X009223Y001885D02*
X009403Y001885D01*
X009403Y002087D02*
X009403Y002267D01*
X009403Y002087D02*
X009223Y002087D01*
X009223Y002267D01*
X009403Y002267D01*
X009403Y002163D02*
X009223Y002163D01*
X009223Y002239D02*
X009403Y002239D01*
X010590Y001517D02*
X010590Y001337D01*
X010410Y001337D01*
X010410Y001517D01*
X010590Y001517D01*
X010590Y001413D02*
X010410Y001413D01*
X010410Y001489D02*
X010590Y001489D01*
X010590Y001163D02*
X010590Y000983D01*
X010410Y000983D01*
X010410Y001163D01*
X010590Y001163D01*
X010590Y001059D02*
X010410Y001059D01*
X010410Y001135D02*
X010590Y001135D01*
X010858Y001035D02*
X011038Y001035D01*
X010858Y001035D02*
X010858Y001215D01*
X011038Y001215D01*
X011038Y001035D01*
X011038Y001111D02*
X010858Y001111D01*
X010858Y001187D02*
X011038Y001187D01*
X011212Y001035D02*
X011392Y001035D01*
X011212Y001035D02*
X011212Y001215D01*
X011392Y001215D01*
X011392Y001035D01*
X011392Y001111D02*
X011212Y001111D01*
X011212Y001187D02*
X011392Y001187D01*
X012215Y001267D02*
X012215Y001087D01*
X012035Y001087D01*
X012035Y001267D01*
X012215Y001267D01*
X012215Y001163D02*
X012035Y001163D01*
X012035Y001239D02*
X012215Y001239D01*
X012215Y000913D02*
X012215Y000733D01*
X012035Y000733D01*
X012035Y000913D01*
X012215Y000913D01*
X012215Y000809D02*
X012035Y000809D01*
X012035Y000885D02*
X012215Y000885D01*
X014358Y-000285D02*
X014538Y-000285D01*
X014538Y-000465D01*
X014358Y-000465D01*
X014358Y-000285D01*
X014358Y-000389D02*
X014538Y-000389D01*
X014538Y-000313D02*
X014358Y-000313D01*
X014712Y-000285D02*
X014892Y-000285D01*
X014892Y-000465D01*
X014712Y-000465D01*
X014712Y-000285D01*
X014712Y-000389D02*
X014892Y-000389D01*
X014892Y-000313D02*
X014712Y-000313D01*
X014712Y-001535D02*
X014892Y-001535D01*
X014892Y-001715D01*
X014712Y-001715D01*
X014712Y-001535D01*
X014712Y-001639D02*
X014892Y-001639D01*
X014892Y-001563D02*
X014712Y-001563D01*
X014538Y-001535D02*
X014358Y-001535D01*
X014538Y-001535D02*
X014538Y-001715D01*
X014358Y-001715D01*
X014358Y-001535D01*
X014358Y-001639D02*
X014538Y-001639D01*
X014538Y-001563D02*
X014358Y-001563D01*
X015295Y006285D02*
X015475Y006285D01*
X015295Y006285D02*
X015295Y006465D01*
X015475Y006465D01*
X015475Y006285D01*
X015475Y006361D02*
X015295Y006361D01*
X015295Y006437D02*
X015475Y006437D01*
X015650Y006285D02*
X015830Y006285D01*
X015650Y006285D02*
X015650Y006465D01*
X015830Y006465D01*
X015830Y006285D01*
X015830Y006361D02*
X015650Y006361D01*
X015650Y006437D02*
X015830Y006437D01*
X016733Y006285D02*
X016913Y006285D01*
X016733Y006285D02*
X016733Y006465D01*
X016913Y006465D01*
X016913Y006285D01*
X016913Y006361D02*
X016733Y006361D01*
X016733Y006437D02*
X016913Y006437D01*
X017087Y006285D02*
X017267Y006285D01*
X017087Y006285D02*
X017087Y006465D01*
X017267Y006465D01*
X017267Y006285D01*
X017267Y006361D02*
X017087Y006361D01*
X017087Y006437D02*
X017267Y006437D01*
X017267Y007160D02*
X017087Y007160D01*
X017087Y007340D01*
X017267Y007340D01*
X017267Y007160D01*
X017267Y007236D02*
X017087Y007236D01*
X017087Y007312D02*
X017267Y007312D01*
X017267Y007660D02*
X017087Y007660D01*
X017087Y007840D01*
X017267Y007840D01*
X017267Y007660D01*
X017267Y007736D02*
X017087Y007736D01*
X017087Y007812D02*
X017267Y007812D01*
X016913Y007660D02*
X016733Y007660D01*
X016733Y007840D01*
X016913Y007840D01*
X016913Y007660D01*
X016913Y007736D02*
X016733Y007736D01*
X016733Y007812D02*
X016913Y007812D01*
X016913Y007160D02*
X016733Y007160D01*
X016733Y007340D01*
X016913Y007340D01*
X016913Y007160D01*
X016913Y007236D02*
X016733Y007236D01*
X016733Y007312D02*
X016913Y007312D01*
X012472Y012115D02*
X012292Y012115D01*
X012292Y012295D01*
X012472Y012295D01*
X012472Y012115D01*
X012472Y012191D02*
X012292Y012191D01*
X012292Y012267D02*
X012472Y012267D01*
X012118Y012115D02*
X011938Y012115D01*
X011938Y012295D01*
X012118Y012295D01*
X012118Y012115D01*
X012118Y012191D02*
X011938Y012191D01*
X011938Y012267D02*
X012118Y012267D01*
X012118Y012902D02*
X011938Y012902D01*
X011938Y013082D01*
X012118Y013082D01*
X012118Y012902D01*
X012118Y012978D02*
X011938Y012978D01*
X011938Y013054D02*
X012118Y013054D01*
X012292Y012902D02*
X012472Y012902D01*
X012292Y012902D02*
X012292Y013082D01*
X012472Y013082D01*
X012472Y012902D01*
X012472Y012978D02*
X012292Y012978D01*
X012292Y013054D02*
X012472Y013054D01*
X012472Y013690D02*
X012292Y013690D01*
X012292Y013870D01*
X012472Y013870D01*
X012472Y013690D01*
X012472Y013766D02*
X012292Y013766D01*
X012292Y013842D02*
X012472Y013842D01*
X012118Y013690D02*
X011938Y013690D01*
X011938Y013870D01*
X012118Y013870D01*
X012118Y013690D01*
X012118Y013766D02*
X011938Y013766D01*
X011938Y013842D02*
X012118Y013842D01*
X011265Y010460D02*
X011265Y010280D01*
X011265Y010460D02*
X011445Y010460D01*
X011445Y010280D01*
X011265Y010280D01*
X011265Y010356D02*
X011445Y010356D01*
X011445Y010432D02*
X011265Y010432D01*
X011265Y010105D02*
X011265Y009925D01*
X011265Y010105D02*
X011445Y010105D01*
X011445Y009925D01*
X011265Y009925D01*
X011265Y010001D02*
X011445Y010001D01*
X011445Y010077D02*
X011265Y010077D01*
X005059Y007249D02*
X005059Y007069D01*
X005059Y007249D02*
X005239Y007249D01*
X005239Y007069D01*
X005059Y007069D01*
X005059Y007145D02*
X005239Y007145D01*
X005239Y007221D02*
X005059Y007221D01*
X005059Y006895D02*
X005059Y006715D01*
X005059Y006895D02*
X005239Y006895D01*
X005239Y006715D01*
X005059Y006715D01*
X005059Y006791D02*
X005239Y006791D01*
X005239Y006867D02*
X005059Y006867D01*
X006833Y-002810D02*
X007013Y-002810D01*
X007013Y-002990D01*
X006833Y-002990D01*
X006833Y-002810D01*
X006833Y-002914D02*
X007013Y-002914D01*
X007013Y-002838D02*
X006833Y-002838D01*
X007187Y-002810D02*
X007367Y-002810D01*
X007367Y-002990D01*
X007187Y-002990D01*
X007187Y-002810D01*
X007187Y-002914D02*
X007367Y-002914D01*
X007367Y-002838D02*
X007187Y-002838D01*
X011123Y-012920D02*
X011123Y-013100D01*
X011123Y-012920D02*
X011303Y-012920D01*
X011303Y-013100D01*
X011123Y-013100D01*
X011123Y-013024D02*
X011303Y-013024D01*
X011303Y-012948D02*
X011123Y-012948D01*
X011123Y-013275D02*
X011123Y-013455D01*
X011123Y-013275D02*
X011303Y-013275D01*
X011303Y-013455D01*
X011123Y-013455D01*
X011123Y-013379D02*
X011303Y-013379D01*
X011303Y-013303D02*
X011123Y-013303D01*
X014177Y-013230D02*
X014177Y-013050D01*
X014177Y-013230D02*
X013997Y-013230D01*
X013997Y-013050D01*
X014177Y-013050D01*
X014177Y-013154D02*
X013997Y-013154D01*
X013997Y-013078D02*
X014177Y-013078D01*
X014177Y-012875D02*
X014177Y-012695D01*
X014177Y-012875D02*
X013997Y-012875D01*
X013997Y-012695D01*
X014177Y-012695D01*
X014177Y-012799D02*
X013997Y-012799D01*
X013997Y-012723D02*
X014177Y-012723D01*
D14*
X012000Y-003772D03*
X012000Y-003103D03*
X011250Y-002915D03*
X011250Y-003585D03*
X008250Y-003460D03*
X008250Y-002790D03*
X010625Y002040D03*
X010625Y002710D03*
D15*
X011665Y002125D03*
X012335Y002125D03*
X009522Y-004125D03*
X008853Y-004125D03*
D16*
X009500Y-003381D03*
X010000Y-003381D03*
X010000Y-002869D03*
X009500Y-002869D03*
X010500Y-002994D03*
X010500Y-003506D03*
X012250Y-002131D03*
X012250Y-001619D03*
X012250Y-000381D03*
X012250Y000131D03*
X014000Y000131D03*
X014000Y-000381D03*
X014000Y-001619D03*
X014000Y-002131D03*
X011963Y-005832D03*
X011963Y-006343D03*
X015375Y004244D03*
X015375Y004756D03*
D17*
X013381Y-000375D03*
X012869Y-000375D03*
X012869Y-001625D03*
X013381Y-001625D03*
X011381Y000000D03*
X011131Y000625D03*
X010869Y000000D03*
X010619Y000625D03*
X014744Y-005438D03*
X015256Y-005438D03*
X015807Y-006313D03*
X016318Y-006313D03*
X015506Y-009750D03*
X014994Y-009750D03*
X006081Y-000325D03*
X005569Y-000325D03*
D18*
X010876Y-000750D03*
X010876Y-001625D03*
X011624Y-001625D03*
X011624Y-000750D03*
X003124Y-008500D03*
X002376Y-008500D03*
D19*
X016125Y-001416D03*
X016125Y-000334D03*
D20*
X015525Y-000875D03*
D21*
X016277Y-003357D03*
X016277Y-003613D03*
X016277Y-003869D03*
X016277Y-004125D03*
X016277Y-004381D03*
X016277Y-004637D03*
X016277Y-004893D03*
X016214Y-007670D03*
X016214Y-007926D03*
X016214Y-008182D03*
X016214Y-008438D03*
X016214Y-008693D03*
X016214Y-008949D03*
X016214Y-009205D03*
X013911Y-009205D03*
X013911Y-008949D03*
X013911Y-008693D03*
X013911Y-008438D03*
X013911Y-008182D03*
X013911Y-007926D03*
X013911Y-007670D03*
X013973Y-004893D03*
X013973Y-004637D03*
X013973Y-004381D03*
X013973Y-004125D03*
X013973Y-003869D03*
X013973Y-003613D03*
X013973Y-003357D03*
X011027Y-006045D03*
X011027Y-006301D03*
X011027Y-006557D03*
X011027Y-006813D03*
X011027Y-007068D03*
X011027Y-007324D03*
X011027Y-007580D03*
X008723Y-007580D03*
X008723Y-007324D03*
X008723Y-007068D03*
X008723Y-006813D03*
X008723Y-006557D03*
X008723Y-006301D03*
X008723Y-006045D03*
D22*
X012721Y-012526D03*
X012721Y-013274D03*
X011854Y-012900D03*
D23*
X016116Y003223D03*
X016372Y003223D03*
X016628Y003223D03*
X016884Y003223D03*
X016884Y005527D03*
X016628Y005527D03*
X016372Y005527D03*
X016116Y005527D03*
D24*
X003156Y-009510D03*
X002250Y-009510D03*
X001344Y-009510D03*
D25*
X002250Y-011990D03*
D26*
X004375Y-011124D03*
X004375Y-010376D03*
D27*
X010181Y008874D03*
X010181Y010075D03*
X010181Y010475D03*
X010181Y010875D03*
X010181Y011275D03*
X010181Y011675D03*
X010181Y012075D03*
X010181Y012475D03*
X010181Y012875D03*
D28*
X009130Y013921D03*
X008730Y013921D03*
X008330Y013921D03*
X007930Y013921D03*
X006330Y013921D03*
X005530Y013921D03*
X005130Y013921D03*
X004730Y013921D03*
X004330Y013921D03*
X005132Y008126D03*
X005532Y008126D03*
X005932Y008126D03*
X006332Y008126D03*
X006732Y008126D03*
X007132Y008126D03*
X007532Y008126D03*
X007932Y008126D03*
X008332Y008126D03*
X008732Y008126D03*
D29*
X013366Y012205D03*
X013366Y012992D03*
X013366Y013780D03*
X014193Y013780D03*
X014193Y012992D03*
X014193Y012205D03*
D30*
X016869Y-005603D03*
X017125Y-005603D03*
X017381Y-005603D03*
X017381Y-006272D03*
X016869Y-006272D03*
M02*
