G75*
G70*
%OFA0B0*%
%FSLAX24Y24*%
%IPPOS*%
%LPD*%
%AMOC8*
5,1,8,0,0,1.08239X$1,22.5*
%
%ADD10R,0.0138X0.0217*%
%ADD11R,0.0217X0.0138*%
%ADD12R,0.1476X0.1476*%
%ADD13C,0.0101*%
%ADD14C,0.0095*%
%ADD15R,0.0592X0.0592*%
%ADD16R,0.0946X0.0415*%
%ADD17R,0.0493X0.0474*%
%ADD18R,0.1655X0.1655*%
%ADD19C,0.0190*%
%ADD20R,0.0474X0.0513*%
%ADD21R,0.0513X0.0474*%
%ADD22R,0.0434X0.0356*%
%ADD23R,0.0356X0.0434*%
%ADD24R,0.0592X0.0671*%
%ADD25C,0.0680*%
%ADD26C,0.1379*%
%ADD27R,0.0394X0.0177*%
%ADD28R,0.0631X0.0474*%
%ADD29C,0.0680*%
%ADD30OC8,0.0680*%
%ADD31R,0.0218X0.0552*%
%ADD32R,0.0671X0.0867*%
%ADD33R,0.1576X0.0867*%
%ADD34R,0.0671X0.0592*%
%ADD35C,0.0397*%
%ADD36C,0.0440*%
%ADD37C,0.0555*%
%ADD38C,0.0476*%
D10*
X009971Y027049D03*
X010168Y027049D03*
X010365Y027049D03*
X010562Y027049D03*
X010759Y027049D03*
X010956Y027049D03*
X011153Y027049D03*
X011349Y027049D03*
X011349Y028860D03*
X011153Y028860D03*
X010956Y028860D03*
X010759Y028860D03*
X010562Y028860D03*
X010365Y028860D03*
X010168Y028860D03*
X009971Y028860D03*
D11*
X009755Y028643D03*
X009755Y028446D03*
X009755Y028250D03*
X009755Y028053D03*
X009755Y027856D03*
X009755Y027659D03*
X009755Y027462D03*
X009755Y027265D03*
X011566Y027265D03*
X011566Y027462D03*
X011566Y027659D03*
X011566Y027856D03*
X011566Y028053D03*
X011566Y028250D03*
X011566Y028446D03*
X011566Y028643D03*
D12*
X010660Y027954D03*
D13*
X010592Y026599D02*
X010592Y026363D01*
X010592Y026599D02*
X010828Y026599D01*
X010828Y026363D01*
X010592Y026363D01*
X010592Y026463D02*
X010828Y026463D01*
X010828Y026563D02*
X010592Y026563D01*
X010592Y026245D02*
X010592Y026009D01*
X010592Y026245D02*
X010828Y026245D01*
X010828Y026009D01*
X010592Y026009D01*
X010592Y026109D02*
X010828Y026109D01*
X010828Y026209D02*
X010592Y026209D01*
X011115Y026086D02*
X011351Y026086D01*
X011115Y026086D02*
X011115Y026322D01*
X011351Y026322D01*
X011351Y026086D01*
X011351Y026186D02*
X011115Y026186D01*
X011115Y026286D02*
X011351Y026286D01*
X011470Y026086D02*
X011706Y026086D01*
X011470Y026086D02*
X011470Y026322D01*
X011706Y026322D01*
X011706Y026086D01*
X011706Y026186D02*
X011470Y026186D01*
X011470Y026286D02*
X011706Y026286D01*
X012515Y027236D02*
X012751Y027236D01*
X012515Y027236D02*
X012515Y027472D01*
X012751Y027472D01*
X012751Y027236D01*
X012751Y027336D02*
X012515Y027336D01*
X012515Y027436D02*
X012751Y027436D01*
X012870Y027236D02*
X013106Y027236D01*
X012870Y027236D02*
X012870Y027472D01*
X013106Y027472D01*
X013106Y027236D01*
X013106Y027336D02*
X012870Y027336D01*
X012870Y027436D02*
X013106Y027436D01*
X012906Y027736D02*
X012670Y027736D01*
X012670Y027972D01*
X012906Y027972D01*
X012906Y027736D01*
X012906Y027836D02*
X012670Y027836D01*
X012670Y027936D02*
X012906Y027936D01*
X012906Y028236D02*
X012670Y028236D01*
X012670Y028472D01*
X012906Y028472D01*
X012906Y028236D01*
X012906Y028336D02*
X012670Y028336D01*
X012670Y028436D02*
X012906Y028436D01*
X012806Y028736D02*
X012570Y028736D01*
X012570Y028972D01*
X012806Y028972D01*
X012806Y028736D01*
X012806Y028836D02*
X012570Y028836D01*
X012570Y028936D02*
X012806Y028936D01*
X012451Y028736D02*
X012215Y028736D01*
X012215Y028972D01*
X012451Y028972D01*
X012451Y028736D01*
X012451Y028836D02*
X012215Y028836D01*
X012215Y028936D02*
X012451Y028936D01*
X012551Y028236D02*
X012315Y028236D01*
X012315Y028472D01*
X012551Y028472D01*
X012551Y028236D01*
X012551Y028336D02*
X012315Y028336D01*
X012315Y028436D02*
X012551Y028436D01*
X012551Y027736D02*
X012315Y027736D01*
X012315Y027972D01*
X012551Y027972D01*
X012551Y027736D01*
X012551Y027836D02*
X012315Y027836D01*
X012315Y027936D02*
X012551Y027936D01*
X013115Y029136D02*
X013351Y029136D01*
X013115Y029136D02*
X013115Y029372D01*
X013351Y029372D01*
X013351Y029136D01*
X013351Y029236D02*
X013115Y029236D01*
X013115Y029336D02*
X013351Y029336D01*
X013470Y029136D02*
X013706Y029136D01*
X013470Y029136D02*
X013470Y029372D01*
X013706Y029372D01*
X013706Y029136D01*
X013706Y029236D02*
X013470Y029236D01*
X013470Y029336D02*
X013706Y029336D01*
X013915Y029136D02*
X014151Y029136D01*
X013915Y029136D02*
X013915Y029372D01*
X014151Y029372D01*
X014151Y029136D01*
X014151Y029236D02*
X013915Y029236D01*
X013915Y029336D02*
X014151Y029336D01*
X014270Y029136D02*
X014506Y029136D01*
X014270Y029136D02*
X014270Y029372D01*
X014506Y029372D01*
X014506Y029136D01*
X014506Y029236D02*
X014270Y029236D01*
X014270Y029336D02*
X014506Y029336D01*
X014506Y029536D02*
X014270Y029536D01*
X014270Y029772D01*
X014506Y029772D01*
X014506Y029536D01*
X014506Y029636D02*
X014270Y029636D01*
X014270Y029736D02*
X014506Y029736D01*
X014151Y029536D02*
X013915Y029536D01*
X013915Y029772D01*
X014151Y029772D01*
X014151Y029536D01*
X014151Y029636D02*
X013915Y029636D01*
X013915Y029736D02*
X014151Y029736D01*
X013706Y029772D02*
X013470Y029772D01*
X013706Y029772D02*
X013706Y029536D01*
X013470Y029536D01*
X013470Y029772D01*
X013470Y029636D02*
X013706Y029636D01*
X013706Y029736D02*
X013470Y029736D01*
X013351Y029772D02*
X013115Y029772D01*
X013351Y029772D02*
X013351Y029536D01*
X013115Y029536D01*
X013115Y029772D01*
X013115Y029636D02*
X013351Y029636D01*
X013351Y029736D02*
X013115Y029736D01*
X012806Y029636D02*
X012570Y029636D01*
X012570Y029872D01*
X012806Y029872D01*
X012806Y029636D01*
X012806Y029736D02*
X012570Y029736D01*
X012570Y029836D02*
X012806Y029836D01*
X013268Y030059D02*
X013268Y030295D01*
X013268Y030059D02*
X013032Y030059D01*
X013032Y030295D01*
X013268Y030295D01*
X013268Y030159D02*
X013032Y030159D01*
X013032Y030259D02*
X013268Y030259D01*
X013268Y030413D02*
X013268Y030649D01*
X013268Y030413D02*
X013032Y030413D01*
X013032Y030649D01*
X013268Y030649D01*
X013268Y030513D02*
X013032Y030513D01*
X013032Y030613D02*
X013268Y030613D01*
X012806Y030836D02*
X012570Y030836D01*
X012570Y031072D01*
X012806Y031072D01*
X012806Y030836D01*
X012806Y030936D02*
X012570Y030936D01*
X012570Y031036D02*
X012806Y031036D01*
X012451Y030836D02*
X012215Y030836D01*
X012215Y031072D01*
X012451Y031072D01*
X012451Y030836D01*
X012451Y030936D02*
X012215Y030936D01*
X012215Y031036D02*
X012451Y031036D01*
X012615Y032136D02*
X012851Y032136D01*
X012615Y032136D02*
X012615Y032372D01*
X012851Y032372D01*
X012851Y032136D01*
X012851Y032236D02*
X012615Y032236D01*
X012615Y032336D02*
X012851Y032336D01*
X012970Y032136D02*
X013206Y032136D01*
X012970Y032136D02*
X012970Y032372D01*
X013206Y032372D01*
X013206Y032136D01*
X013206Y032236D02*
X012970Y032236D01*
X012970Y032336D02*
X013206Y032336D01*
X012406Y032872D02*
X012170Y032872D01*
X012406Y032872D02*
X012406Y032636D01*
X012170Y032636D01*
X012170Y032872D01*
X012170Y032736D02*
X012406Y032736D01*
X012406Y032836D02*
X012170Y032836D01*
X012051Y032872D02*
X011815Y032872D01*
X012051Y032872D02*
X012051Y032636D01*
X011815Y032636D01*
X011815Y032872D01*
X011815Y032736D02*
X012051Y032736D01*
X012051Y032836D02*
X011815Y032836D01*
X011206Y032136D02*
X010970Y032136D01*
X010970Y032372D01*
X011206Y032372D01*
X011206Y032136D01*
X011206Y032236D02*
X010970Y032236D01*
X010970Y032336D02*
X011206Y032336D01*
X010851Y032136D02*
X010615Y032136D01*
X010615Y032372D01*
X010851Y032372D01*
X010851Y032136D01*
X010851Y032236D02*
X010615Y032236D01*
X010615Y032336D02*
X010851Y032336D01*
X010778Y030649D02*
X010778Y030413D01*
X010542Y030413D01*
X010542Y030649D01*
X010778Y030649D01*
X010778Y030513D02*
X010542Y030513D01*
X010542Y030613D02*
X010778Y030613D01*
X010778Y030295D02*
X010778Y030059D01*
X010542Y030059D01*
X010542Y030295D01*
X010778Y030295D01*
X010778Y030159D02*
X010542Y030159D01*
X010542Y030259D02*
X010778Y030259D01*
X010378Y030163D02*
X010378Y030399D01*
X010378Y030163D02*
X010142Y030163D01*
X010142Y030399D01*
X010378Y030399D01*
X010378Y030263D02*
X010142Y030263D01*
X010142Y030363D02*
X010378Y030363D01*
X010378Y030045D02*
X010378Y029809D01*
X010142Y029809D01*
X010142Y030045D01*
X010378Y030045D01*
X010378Y029909D02*
X010142Y029909D01*
X010142Y030009D02*
X010378Y030009D01*
X009978Y030045D02*
X009978Y029809D01*
X009742Y029809D01*
X009742Y030045D01*
X009978Y030045D01*
X009978Y029909D02*
X009742Y029909D01*
X009742Y030009D02*
X009978Y030009D01*
X009978Y030163D02*
X009978Y030399D01*
X009978Y030163D02*
X009742Y030163D01*
X009742Y030399D01*
X009978Y030399D01*
X009978Y030263D02*
X009742Y030263D01*
X009742Y030363D02*
X009978Y030363D01*
X009392Y029899D02*
X009392Y029663D01*
X009392Y029899D02*
X009628Y029899D01*
X009628Y029663D01*
X009392Y029663D01*
X009392Y029763D02*
X009628Y029763D01*
X009628Y029863D02*
X009392Y029863D01*
X009392Y029545D02*
X009392Y029309D01*
X009392Y029545D02*
X009628Y029545D01*
X009628Y029309D01*
X009392Y029309D01*
X009392Y029409D02*
X009628Y029409D01*
X009628Y029509D02*
X009392Y029509D01*
X009106Y029372D02*
X008870Y029372D01*
X009106Y029372D02*
X009106Y029136D01*
X008870Y029136D01*
X008870Y029372D01*
X008870Y029236D02*
X009106Y029236D01*
X009106Y029336D02*
X008870Y029336D01*
X008751Y029372D02*
X008515Y029372D01*
X008751Y029372D02*
X008751Y029136D01*
X008515Y029136D01*
X008515Y029372D01*
X008515Y029236D02*
X008751Y029236D01*
X008751Y029336D02*
X008515Y029336D01*
X008415Y028772D02*
X008651Y028772D01*
X008651Y028536D01*
X008415Y028536D01*
X008415Y028772D01*
X008415Y028636D02*
X008651Y028636D01*
X008651Y028736D02*
X008415Y028736D01*
X008770Y028772D02*
X009006Y028772D01*
X009006Y028536D01*
X008770Y028536D01*
X008770Y028772D01*
X008770Y028636D02*
X009006Y028636D01*
X009006Y028736D02*
X008770Y028736D01*
X008670Y028272D02*
X008906Y028272D01*
X008906Y028036D01*
X008670Y028036D01*
X008670Y028272D01*
X008670Y028136D02*
X008906Y028136D01*
X008906Y028236D02*
X008670Y028236D01*
X008551Y028272D02*
X008315Y028272D01*
X008551Y028272D02*
X008551Y028036D01*
X008315Y028036D01*
X008315Y028272D01*
X008315Y028136D02*
X008551Y028136D01*
X008551Y028236D02*
X008315Y028236D01*
X008426Y027722D02*
X008190Y027722D01*
X008426Y027722D02*
X008426Y027486D01*
X008190Y027486D01*
X008190Y027722D01*
X008190Y027586D02*
X008426Y027586D01*
X008426Y027686D02*
X008190Y027686D01*
X008156Y027372D02*
X007920Y027372D01*
X008156Y027372D02*
X008156Y027136D01*
X007920Y027136D01*
X007920Y027372D01*
X007920Y027236D02*
X008156Y027236D01*
X008156Y027336D02*
X007920Y027336D01*
X007801Y027372D02*
X007565Y027372D01*
X007801Y027372D02*
X007801Y027136D01*
X007565Y027136D01*
X007565Y027372D01*
X007565Y027236D02*
X007801Y027236D01*
X007801Y027336D02*
X007565Y027336D01*
X007192Y026449D02*
X007192Y026213D01*
X007192Y026449D02*
X007428Y026449D01*
X007428Y026213D01*
X007192Y026213D01*
X007192Y026313D02*
X007428Y026313D01*
X007428Y026413D02*
X007192Y026413D01*
X007192Y026095D02*
X007192Y025859D01*
X007192Y026095D02*
X007428Y026095D01*
X007428Y025859D01*
X007192Y025859D01*
X007192Y025959D02*
X007428Y025959D01*
X007428Y026059D02*
X007192Y026059D01*
X007915Y025072D02*
X008151Y025072D01*
X008151Y024836D01*
X007915Y024836D01*
X007915Y025072D01*
X007915Y024936D02*
X008151Y024936D01*
X008151Y025036D02*
X007915Y025036D01*
X008270Y025072D02*
X008506Y025072D01*
X008506Y024836D01*
X008270Y024836D01*
X008270Y025072D01*
X008270Y024936D02*
X008506Y024936D01*
X008506Y025036D02*
X008270Y025036D01*
X008915Y025436D02*
X009151Y025436D01*
X008915Y025436D02*
X008915Y025672D01*
X009151Y025672D01*
X009151Y025436D01*
X009151Y025536D02*
X008915Y025536D01*
X008915Y025636D02*
X009151Y025636D01*
X009270Y025436D02*
X009506Y025436D01*
X009270Y025436D02*
X009270Y025672D01*
X009506Y025672D01*
X009506Y025436D01*
X009506Y025536D02*
X009270Y025536D01*
X009270Y025636D02*
X009506Y025636D01*
X009442Y025859D02*
X009442Y026095D01*
X009678Y026095D01*
X009678Y025859D01*
X009442Y025859D01*
X009442Y025959D02*
X009678Y025959D01*
X009678Y026059D02*
X009442Y026059D01*
X009442Y026213D02*
X009442Y026449D01*
X009678Y026449D01*
X009678Y026213D01*
X009442Y026213D01*
X009442Y026313D02*
X009678Y026313D01*
X009678Y026413D02*
X009442Y026413D01*
X008781Y027722D02*
X008545Y027722D01*
X008781Y027722D02*
X008781Y027486D01*
X008545Y027486D01*
X008545Y027722D01*
X008545Y027586D02*
X008781Y027586D01*
X008781Y027686D02*
X008545Y027686D01*
X011478Y030059D02*
X011478Y030295D01*
X011478Y030059D02*
X011242Y030059D01*
X011242Y030295D01*
X011478Y030295D01*
X011478Y030159D02*
X011242Y030159D01*
X011242Y030259D02*
X011478Y030259D01*
X011478Y030413D02*
X011478Y030649D01*
X011478Y030413D02*
X011242Y030413D01*
X011242Y030649D01*
X011478Y030649D01*
X011478Y030513D02*
X011242Y030513D01*
X011242Y030613D02*
X011478Y030613D01*
X012215Y029636D02*
X012451Y029636D01*
X012215Y029636D02*
X012215Y029872D01*
X012451Y029872D01*
X012451Y029636D01*
X012451Y029736D02*
X012215Y029736D01*
X012215Y029836D02*
X012451Y029836D01*
X012041Y022049D02*
X012041Y021813D01*
X011805Y021813D01*
X011805Y022049D01*
X012041Y022049D01*
X012041Y021913D02*
X011805Y021913D01*
X011805Y022013D02*
X012041Y022013D01*
X012041Y021695D02*
X012041Y021459D01*
X011805Y021459D01*
X011805Y021695D01*
X012041Y021695D01*
X012041Y021559D02*
X011805Y021559D01*
X011805Y021659D02*
X012041Y021659D01*
X013228Y021299D02*
X013228Y021063D01*
X012992Y021063D01*
X012992Y021299D01*
X013228Y021299D01*
X013228Y021163D02*
X012992Y021163D01*
X012992Y021263D02*
X013228Y021263D01*
X013228Y020945D02*
X013228Y020709D01*
X012992Y020709D01*
X012992Y020945D01*
X013228Y020945D01*
X013228Y020809D02*
X012992Y020809D01*
X012992Y020909D02*
X013228Y020909D01*
X013440Y020761D02*
X013676Y020761D01*
X013440Y020761D02*
X013440Y020997D01*
X013676Y020997D01*
X013676Y020761D01*
X013676Y020861D02*
X013440Y020861D01*
X013440Y020961D02*
X013676Y020961D01*
X013795Y020761D02*
X014031Y020761D01*
X013795Y020761D02*
X013795Y020997D01*
X014031Y020997D01*
X014031Y020761D01*
X014031Y020861D02*
X013795Y020861D01*
X013795Y020961D02*
X014031Y020961D01*
X014853Y021049D02*
X014853Y020813D01*
X014617Y020813D01*
X014617Y021049D01*
X014853Y021049D01*
X014853Y020913D02*
X014617Y020913D01*
X014617Y021013D02*
X014853Y021013D01*
X014853Y020695D02*
X014853Y020459D01*
X014617Y020459D01*
X014617Y020695D01*
X014853Y020695D01*
X014853Y020559D02*
X014617Y020559D01*
X014617Y020659D02*
X014853Y020659D01*
X016940Y019497D02*
X017176Y019497D01*
X017176Y019261D01*
X016940Y019261D01*
X016940Y019497D01*
X016940Y019361D02*
X017176Y019361D01*
X017176Y019461D02*
X016940Y019461D01*
X017295Y019497D02*
X017531Y019497D01*
X017531Y019261D01*
X017295Y019261D01*
X017295Y019497D01*
X017295Y019361D02*
X017531Y019361D01*
X017531Y019461D02*
X017295Y019461D01*
X017295Y018247D02*
X017531Y018247D01*
X017531Y018011D01*
X017295Y018011D01*
X017295Y018247D01*
X017295Y018111D02*
X017531Y018111D01*
X017531Y018211D02*
X017295Y018211D01*
X017176Y018247D02*
X016940Y018247D01*
X017176Y018247D02*
X017176Y018011D01*
X016940Y018011D01*
X016940Y018247D01*
X016940Y018111D02*
X017176Y018111D01*
X017176Y018211D02*
X016940Y018211D01*
X018815Y021261D02*
X019051Y021261D01*
X018815Y021261D02*
X018815Y021497D01*
X019051Y021497D01*
X019051Y021261D01*
X019051Y021361D02*
X018815Y021361D01*
X018815Y021461D02*
X019051Y021461D01*
X019170Y021261D02*
X019406Y021261D01*
X019170Y021261D02*
X019170Y021497D01*
X019406Y021497D01*
X019406Y021261D01*
X019406Y021361D02*
X019170Y021361D01*
X019170Y021461D02*
X019406Y021461D01*
X019315Y026011D02*
X019551Y026011D01*
X019315Y026011D02*
X019315Y026247D01*
X019551Y026247D01*
X019551Y026011D01*
X019551Y026111D02*
X019315Y026111D01*
X019315Y026211D02*
X019551Y026211D01*
X019670Y026011D02*
X019906Y026011D01*
X019670Y026011D02*
X019670Y026247D01*
X019906Y026247D01*
X019906Y026011D01*
X019906Y026111D02*
X019670Y026111D01*
X019670Y026211D02*
X019906Y026211D01*
X019906Y026886D02*
X019670Y026886D01*
X019670Y027122D01*
X019906Y027122D01*
X019906Y026886D01*
X019906Y026986D02*
X019670Y026986D01*
X019670Y027086D02*
X019906Y027086D01*
X019906Y027386D02*
X019670Y027386D01*
X019670Y027622D01*
X019906Y027622D01*
X019906Y027386D01*
X019906Y027486D02*
X019670Y027486D01*
X019670Y027586D02*
X019906Y027586D01*
X019906Y028122D02*
X019670Y028122D01*
X019906Y028122D02*
X019906Y027886D01*
X019670Y027886D01*
X019670Y028122D01*
X019670Y027986D02*
X019906Y027986D01*
X019906Y028086D02*
X019670Y028086D01*
X019551Y028122D02*
X019315Y028122D01*
X019551Y028122D02*
X019551Y027886D01*
X019315Y027886D01*
X019315Y028122D01*
X019315Y027986D02*
X019551Y027986D01*
X019551Y028086D02*
X019315Y028086D01*
X019315Y027386D02*
X019551Y027386D01*
X019315Y027386D02*
X019315Y027622D01*
X019551Y027622D01*
X019551Y027386D01*
X019551Y027486D02*
X019315Y027486D01*
X019315Y027586D02*
X019551Y027586D01*
X019551Y026886D02*
X019315Y026886D01*
X019315Y027122D01*
X019551Y027122D01*
X019551Y026886D01*
X019551Y026986D02*
X019315Y026986D01*
X019315Y027086D02*
X019551Y027086D01*
X019565Y013636D02*
X019801Y013636D01*
X019565Y013636D02*
X019565Y013872D01*
X019801Y013872D01*
X019801Y013636D01*
X019801Y013736D02*
X019565Y013736D01*
X019565Y013836D02*
X019801Y013836D01*
X019920Y013636D02*
X020156Y013636D01*
X019920Y013636D02*
X019920Y013872D01*
X020156Y013872D01*
X020156Y013636D01*
X020156Y013736D02*
X019920Y013736D01*
X019920Y013836D02*
X020156Y013836D01*
X020156Y012636D02*
X019920Y012636D01*
X019920Y012872D01*
X020156Y012872D01*
X020156Y012636D01*
X020156Y012736D02*
X019920Y012736D01*
X019920Y012836D02*
X020156Y012836D01*
X019801Y012636D02*
X019565Y012636D01*
X019565Y012872D01*
X019801Y012872D01*
X019801Y012636D01*
X019801Y012736D02*
X019565Y012736D01*
X019565Y012836D02*
X019801Y012836D01*
X016816Y007087D02*
X016816Y006851D01*
X016580Y006851D01*
X016580Y007087D01*
X016816Y007087D01*
X016816Y006951D02*
X016580Y006951D01*
X016580Y007051D02*
X016816Y007051D01*
X016816Y006733D02*
X016816Y006497D01*
X016580Y006497D01*
X016580Y006733D01*
X016816Y006733D01*
X016816Y006597D02*
X016580Y006597D01*
X016580Y006697D02*
X016816Y006697D01*
X013580Y006626D02*
X013580Y006862D01*
X013816Y006862D01*
X013816Y006626D01*
X013580Y006626D01*
X013580Y006726D02*
X013816Y006726D01*
X013816Y006826D02*
X013580Y006826D01*
X013580Y006508D02*
X013580Y006272D01*
X013580Y006508D02*
X013816Y006508D01*
X013816Y006272D01*
X013580Y006272D01*
X013580Y006372D02*
X013816Y006372D01*
X013816Y006472D02*
X013580Y006472D01*
X008742Y008959D02*
X008742Y009195D01*
X008978Y009195D01*
X008978Y008959D01*
X008742Y008959D01*
X008742Y009059D02*
X008978Y009059D01*
X008978Y009159D02*
X008742Y009159D01*
X008742Y009313D02*
X008742Y009549D01*
X008978Y009549D01*
X008978Y009313D01*
X008742Y009313D01*
X008742Y009413D02*
X008978Y009413D01*
X008978Y009513D02*
X008742Y009513D01*
X009540Y016972D02*
X009776Y016972D01*
X009776Y016736D01*
X009540Y016736D01*
X009540Y016972D01*
X009540Y016836D02*
X009776Y016836D01*
X009776Y016936D02*
X009540Y016936D01*
X009895Y016972D02*
X010131Y016972D01*
X010131Y016736D01*
X009895Y016736D01*
X009895Y016972D01*
X009895Y016836D02*
X010131Y016836D01*
X010131Y016936D02*
X009895Y016936D01*
X009156Y020261D02*
X008920Y020261D01*
X008920Y020497D01*
X009156Y020497D01*
X009156Y020261D01*
X009156Y020361D02*
X008920Y020361D01*
X008920Y020461D02*
X009156Y020461D01*
X009156Y020761D02*
X008920Y020761D01*
X008920Y020997D01*
X009156Y020997D01*
X009156Y020761D01*
X009156Y020861D02*
X008920Y020861D01*
X008920Y020961D02*
X009156Y020961D01*
X008801Y020761D02*
X008565Y020761D01*
X008565Y020997D01*
X008801Y020997D01*
X008801Y020761D01*
X008801Y020861D02*
X008565Y020861D01*
X008565Y020961D02*
X008801Y020961D01*
X008801Y020261D02*
X008565Y020261D01*
X008565Y020497D01*
X008801Y020497D01*
X008801Y020261D01*
X008801Y020361D02*
X008565Y020361D01*
X008565Y020461D02*
X008801Y020461D01*
X009555Y021084D02*
X009555Y021320D01*
X009791Y021320D01*
X009791Y021084D01*
X009555Y021084D01*
X009555Y021184D02*
X009791Y021184D01*
X009791Y021284D02*
X009555Y021284D01*
X009555Y021438D02*
X009555Y021674D01*
X009791Y021674D01*
X009791Y021438D01*
X009555Y021438D01*
X009555Y021538D02*
X009791Y021538D01*
X009791Y021638D02*
X009555Y021638D01*
X007492Y019924D02*
X007492Y019688D01*
X007492Y019924D02*
X007728Y019924D01*
X007728Y019688D01*
X007492Y019688D01*
X007492Y019788D02*
X007728Y019788D01*
X007728Y019888D02*
X007492Y019888D01*
X007492Y019570D02*
X007492Y019334D01*
X007492Y019570D02*
X007728Y019570D01*
X007728Y019334D01*
X007492Y019334D01*
X007492Y019434D02*
X007728Y019434D01*
X007728Y019534D02*
X007492Y019534D01*
D14*
X012106Y029133D02*
X012328Y029133D01*
X012106Y029133D02*
X012106Y029375D01*
X012328Y029375D01*
X012328Y029133D01*
X012328Y029227D02*
X012106Y029227D01*
X012106Y029321D02*
X012328Y029321D01*
X012492Y029133D02*
X012714Y029133D01*
X012492Y029133D02*
X012492Y029375D01*
X012714Y029375D01*
X012714Y029133D01*
X012714Y029227D02*
X012492Y029227D01*
X012492Y029321D02*
X012714Y029321D01*
X012831Y030050D02*
X012831Y030272D01*
X012831Y030050D02*
X012589Y030050D01*
X012589Y030272D01*
X012831Y030272D01*
X012831Y030144D02*
X012589Y030144D01*
X012589Y030238D02*
X012831Y030238D01*
X012831Y030436D02*
X012831Y030658D01*
X012831Y030436D02*
X012589Y030436D01*
X012589Y030658D01*
X012831Y030658D01*
X012831Y030530D02*
X012589Y030530D01*
X012589Y030624D02*
X012831Y030624D01*
X012831Y031350D02*
X012831Y031572D01*
X012831Y031350D02*
X012589Y031350D01*
X012589Y031572D01*
X012831Y031572D01*
X012831Y031444D02*
X012589Y031444D01*
X012589Y031538D02*
X012831Y031538D01*
X012831Y031736D02*
X012831Y031958D01*
X012831Y031736D02*
X012589Y031736D01*
X012589Y031958D01*
X012831Y031958D01*
X012831Y031830D02*
X012589Y031830D01*
X012589Y031924D02*
X012831Y031924D01*
X012414Y032375D02*
X012192Y032375D01*
X012414Y032375D02*
X012414Y032133D01*
X012192Y032133D01*
X012192Y032375D01*
X012192Y032227D02*
X012414Y032227D01*
X012414Y032321D02*
X012192Y032321D01*
X012028Y032375D02*
X011806Y032375D01*
X012028Y032375D02*
X012028Y032133D01*
X011806Y032133D01*
X011806Y032375D01*
X011806Y032227D02*
X012028Y032227D01*
X012028Y032321D02*
X011806Y032321D01*
X011714Y030831D02*
X011492Y030831D01*
X011492Y031073D01*
X011714Y031073D01*
X011714Y030831D01*
X011714Y030925D02*
X011492Y030925D01*
X011492Y031019D02*
X011714Y031019D01*
X011831Y030658D02*
X011831Y030436D01*
X011589Y030436D01*
X011589Y030658D01*
X011831Y030658D01*
X011831Y030530D02*
X011589Y030530D01*
X011589Y030624D02*
X011831Y030624D01*
X011831Y030272D02*
X011831Y030050D01*
X011589Y030050D01*
X011589Y030272D01*
X011831Y030272D01*
X011831Y030144D02*
X011589Y030144D01*
X011589Y030238D02*
X011831Y030238D01*
X011464Y029925D02*
X011242Y029925D01*
X011464Y029925D02*
X011464Y029683D01*
X011242Y029683D01*
X011242Y029925D01*
X011242Y029777D02*
X011464Y029777D01*
X011464Y029871D02*
X011242Y029871D01*
X011078Y029925D02*
X010856Y029925D01*
X011078Y029925D02*
X011078Y029683D01*
X010856Y029683D01*
X010856Y029925D01*
X010856Y029777D02*
X011078Y029777D01*
X011078Y029871D02*
X010856Y029871D01*
X011131Y030050D02*
X011131Y030272D01*
X011131Y030050D02*
X010889Y030050D01*
X010889Y030272D01*
X011131Y030272D01*
X011131Y030144D02*
X010889Y030144D01*
X010889Y030238D02*
X011131Y030238D01*
X011131Y030436D02*
X011131Y030658D01*
X011131Y030436D02*
X010889Y030436D01*
X010889Y030658D01*
X011131Y030658D01*
X011131Y030530D02*
X010889Y030530D01*
X010889Y030624D02*
X011131Y030624D01*
X011106Y030831D02*
X011328Y030831D01*
X011106Y030831D02*
X011106Y031073D01*
X011328Y031073D01*
X011328Y030831D01*
X011328Y030925D02*
X011106Y030925D01*
X011106Y031019D02*
X011328Y031019D01*
D15*
X008515Y026577D03*
X007806Y026577D03*
X007806Y025632D03*
X008515Y025632D03*
X010388Y021984D03*
X010388Y021275D03*
X011333Y021275D03*
X011333Y021984D03*
D16*
X008710Y032313D03*
X008710Y033396D03*
X018735Y019421D03*
X018735Y018338D03*
D17*
X018135Y018879D03*
X009311Y032854D03*
D18*
X011035Y018879D03*
D19*
X010937Y017844D02*
X010937Y017560D01*
X011134Y017560D02*
X011134Y017844D01*
X011331Y017844D02*
X011331Y017560D01*
X011528Y017560D02*
X011528Y017844D01*
X011724Y017844D02*
X011724Y017560D01*
X011921Y017560D02*
X011921Y017844D01*
X012071Y017994D02*
X012355Y017994D01*
X012355Y018190D02*
X012071Y018190D01*
X012071Y018387D02*
X012355Y018387D01*
X012355Y018584D02*
X012071Y018584D01*
X012071Y018781D02*
X012355Y018781D01*
X012355Y018978D02*
X012071Y018978D01*
X012071Y019175D02*
X012355Y019175D01*
X012355Y019371D02*
X012071Y019371D01*
X012071Y019568D02*
X012355Y019568D01*
X012355Y019765D02*
X012071Y019765D01*
X011921Y019914D02*
X011921Y020198D01*
X011724Y020198D02*
X011724Y019914D01*
X011528Y019914D02*
X011528Y020198D01*
X011331Y020198D02*
X011331Y019914D01*
X011134Y019914D02*
X011134Y020198D01*
X010937Y020198D02*
X010937Y019914D01*
X010740Y019914D02*
X010740Y020198D01*
X010543Y020198D02*
X010543Y019914D01*
X010346Y019914D02*
X010346Y020198D01*
X010150Y020198D02*
X010150Y019914D01*
X010000Y019765D02*
X009716Y019765D01*
X009716Y019568D02*
X010000Y019568D01*
X010000Y019371D02*
X009716Y019371D01*
X009716Y019175D02*
X010000Y019175D01*
X010000Y018978D02*
X009716Y018978D01*
X009716Y018781D02*
X010000Y018781D01*
X010000Y018584D02*
X009716Y018584D01*
X009716Y018387D02*
X010000Y018387D01*
X010000Y018190D02*
X009716Y018190D01*
X009716Y017994D02*
X010000Y017994D01*
X010150Y017844D02*
X010150Y017560D01*
X010346Y017560D02*
X010346Y017844D01*
X010543Y017844D02*
X010543Y017560D01*
X010740Y017560D02*
X010740Y017844D01*
D20*
X010985Y016839D03*
X010985Y016170D03*
X013860Y016170D03*
X013860Y016839D03*
X013235Y021795D03*
X013235Y022464D03*
D21*
X014276Y021879D03*
X014945Y021879D03*
X013820Y015254D03*
X013151Y015254D03*
X012320Y015379D03*
X011651Y015379D03*
D22*
X012110Y016248D03*
X012110Y016760D03*
X012610Y016760D03*
X012610Y016248D03*
X013110Y016248D03*
X013110Y016760D03*
X014860Y017623D03*
X014860Y018135D03*
X014860Y019373D03*
X014860Y019885D03*
X016610Y019885D03*
X016610Y019373D03*
X016610Y018135D03*
X016610Y017623D03*
X017985Y023998D03*
X017985Y024510D03*
D23*
X015991Y019379D03*
X015479Y019379D03*
X015479Y018129D03*
X015991Y018129D03*
X013991Y019754D03*
X013741Y020379D03*
X013479Y019754D03*
X013229Y020379D03*
X017604Y014254D03*
X018116Y014254D03*
X018116Y010004D03*
X017604Y010004D03*
X008691Y019429D03*
X008179Y019429D03*
D24*
X013486Y019004D03*
X013486Y018129D03*
X014234Y018129D03*
X014234Y019004D03*
X005734Y011254D03*
X004986Y011254D03*
D25*
X002410Y003754D02*
X001810Y003754D01*
X001810Y004754D02*
X002410Y004754D01*
X002410Y005754D02*
X001810Y005754D01*
X001810Y006754D02*
X002410Y006754D01*
X002410Y007754D02*
X001810Y007754D01*
X001810Y008754D02*
X002410Y008754D01*
X002410Y010754D02*
X001810Y010754D01*
X001810Y011754D02*
X002410Y011754D01*
X002410Y012754D02*
X001810Y012754D01*
X001810Y013754D02*
X002410Y013754D01*
X002410Y014754D02*
X001810Y014754D01*
X001810Y015754D02*
X002410Y015754D01*
X002410Y017754D02*
X001810Y017754D01*
X001810Y018754D02*
X002410Y018754D01*
X002410Y019754D02*
X001810Y019754D01*
X001810Y020754D02*
X002410Y020754D01*
X002410Y021754D02*
X001810Y021754D01*
X001810Y022754D02*
X002410Y022754D01*
X002410Y023754D02*
X001810Y023754D01*
X001810Y024754D02*
X002410Y024754D01*
X009110Y023749D02*
X009110Y023149D01*
X010110Y023149D02*
X010110Y023749D01*
X011110Y023749D02*
X011110Y023149D01*
X012110Y023149D02*
X012110Y023749D01*
X020810Y023354D02*
X021410Y023354D01*
X021410Y024354D02*
X020810Y024354D01*
X020810Y025354D02*
X021410Y025354D01*
X021410Y026354D02*
X020810Y026354D01*
X020810Y027354D02*
X021410Y027354D01*
X021410Y028354D02*
X020810Y028354D01*
X020810Y022354D02*
X021410Y022354D01*
X021410Y021354D02*
X020810Y021354D01*
X020810Y020354D02*
X021410Y020354D01*
X021410Y019354D02*
X020810Y019354D01*
X020810Y017754D02*
X021410Y017754D01*
X021410Y016754D02*
X020810Y016754D01*
X020810Y015754D02*
X021410Y015754D01*
X021410Y014754D02*
X020810Y014754D01*
X020810Y013754D02*
X021410Y013754D01*
X021410Y012754D02*
X020810Y012754D01*
X020810Y011754D02*
X021410Y011754D01*
X021410Y010754D02*
X020810Y010754D01*
X014110Y003079D02*
X014110Y002479D01*
X013110Y002479D02*
X013110Y003079D01*
X012110Y003079D02*
X012110Y002479D01*
X011110Y002479D02*
X011110Y003079D01*
X010110Y003079D02*
X010110Y002479D01*
X009110Y002479D02*
X009110Y003079D01*
X008110Y003079D02*
X008110Y002479D01*
X007110Y002479D02*
X007110Y003079D01*
D26*
X005000Y002960D03*
X016221Y002960D03*
X016221Y023433D03*
X005000Y023433D03*
D27*
X016584Y016397D03*
X016584Y016141D03*
X016584Y015885D03*
X016584Y015629D03*
X016584Y015373D03*
X016584Y015118D03*
X016584Y014862D03*
X016584Y012147D03*
X016584Y011891D03*
X016584Y011635D03*
X016584Y011379D03*
X016584Y011123D03*
X016584Y010868D03*
X016584Y010612D03*
X018887Y010612D03*
X018887Y010868D03*
X018887Y011123D03*
X018887Y011379D03*
X018887Y011635D03*
X018887Y011891D03*
X018887Y012147D03*
X018887Y014862D03*
X018887Y015118D03*
X018887Y015373D03*
X018887Y015629D03*
X018887Y015885D03*
X018887Y016141D03*
X018887Y016397D03*
D28*
X015331Y007228D03*
X015331Y006480D03*
X014465Y006854D03*
D29*
X013110Y010704D03*
D30*
X013110Y009704D03*
X012110Y009704D03*
X012110Y010704D03*
X011110Y010704D03*
X011110Y009704D03*
D31*
X018727Y022978D03*
X018982Y022978D03*
X019238Y022978D03*
X019494Y022978D03*
X019494Y025281D03*
X019238Y025281D03*
X018982Y025281D03*
X018727Y025281D03*
D32*
X005766Y010244D03*
X004860Y010244D03*
X003955Y010244D03*
D33*
X004860Y007764D03*
D34*
X006985Y008630D03*
X006985Y009378D03*
D35*
X006798Y011192D03*
X007485Y012067D03*
X007485Y012879D03*
X007485Y013629D03*
X008235Y014629D03*
X008610Y014254D03*
X008610Y013629D03*
X008235Y015754D03*
X008610Y017629D03*
X008235Y017942D03*
X008360Y018379D03*
X008735Y019879D03*
X008235Y020129D03*
X008235Y020879D03*
X007610Y020254D03*
X006360Y018379D03*
X006735Y017942D03*
X007110Y017629D03*
X005360Y015754D03*
X005735Y015192D03*
X006048Y014629D03*
X006360Y014004D03*
X005985Y012254D03*
X004985Y013379D03*
X004485Y015754D03*
X007860Y011192D03*
X009985Y011567D03*
X010360Y012504D03*
X011110Y015379D03*
X010610Y015754D03*
X010360Y016379D03*
X010485Y017004D03*
X010485Y018254D03*
X010485Y018629D03*
X010485Y019004D03*
X010860Y019004D03*
X010860Y018629D03*
X010860Y018254D03*
X011235Y018254D03*
X011235Y018629D03*
X011235Y019004D03*
X011235Y019379D03*
X010860Y019379D03*
X010485Y019379D03*
X011610Y019379D03*
X011610Y019004D03*
X011610Y018629D03*
X011610Y018254D03*
X011485Y017004D03*
X012485Y017629D03*
X012860Y017879D03*
X012860Y018629D03*
X013110Y019754D03*
X012360Y020879D03*
X011985Y020629D03*
X012298Y022317D03*
X012985Y023129D03*
X014060Y023029D03*
X014060Y022654D03*
X014435Y022654D03*
X014435Y023029D03*
X015548Y022004D03*
X015985Y021567D03*
X016235Y021004D03*
X016610Y020442D03*
X017110Y020754D03*
X017110Y020129D03*
X017610Y020129D03*
X017798Y020629D03*
X018110Y020129D03*
X018360Y020629D03*
X018610Y020129D03*
X018860Y020629D03*
X019110Y020129D03*
X019360Y020629D03*
X019610Y020129D03*
X019860Y019629D03*
X019860Y018879D03*
X019610Y018254D03*
X019110Y017754D03*
X018610Y017754D03*
X018110Y017754D03*
X017610Y017629D03*
X017735Y017254D03*
X017110Y017254D03*
X017110Y017629D03*
X016610Y017254D03*
X016173Y017567D03*
X015735Y017629D03*
X015860Y017129D03*
X015610Y016754D03*
X015360Y017129D03*
X014860Y017254D03*
X014985Y016629D03*
X015735Y016129D03*
X015735Y015192D03*
X015235Y014629D03*
X014610Y015004D03*
X013485Y015817D03*
X013048Y015692D03*
X012610Y015879D03*
X014985Y012879D03*
X015985Y011754D03*
X015985Y010754D03*
X017110Y010004D03*
X018610Y010129D03*
X019735Y009129D03*
X020110Y009754D03*
X020110Y012254D03*
X019110Y013754D03*
X018610Y014379D03*
X017985Y013254D03*
X018110Y012254D03*
X018860Y012504D03*
X019485Y015379D03*
X019485Y016629D03*
X017235Y015379D03*
X016610Y014379D03*
X014610Y011004D03*
X013985Y009129D03*
X013360Y008004D03*
X012610Y008379D03*
X012610Y006629D03*
X011110Y006504D03*
X010735Y006879D03*
X009985Y006879D03*
X011110Y008504D03*
X014360Y020129D03*
X015235Y020754D03*
X015735Y020754D03*
X015860Y020254D03*
X013735Y021254D03*
X013810Y024904D03*
X013810Y025304D03*
X014210Y025304D03*
X014210Y024904D03*
X013860Y026254D03*
X013260Y027004D03*
X013310Y027604D03*
X013710Y027304D03*
X013710Y027904D03*
X013560Y028254D03*
X013560Y028804D03*
X014010Y028854D03*
X014460Y028854D03*
X014760Y029254D03*
X014760Y029654D03*
X014410Y030254D03*
X014510Y030904D03*
X014510Y031804D03*
X014560Y032754D03*
X014560Y033954D03*
X015610Y034004D03*
X015610Y032754D03*
X015610Y031254D03*
X015610Y029754D03*
X015610Y028254D03*
X015610Y027004D03*
X015610Y026254D03*
X017110Y026254D03*
X017110Y027004D03*
X017110Y028254D03*
X017110Y029754D03*
X018360Y029754D03*
X018360Y028004D03*
X019235Y026629D03*
X018360Y026254D03*
X019860Y024504D03*
X017985Y022754D03*
X019860Y028504D03*
X018360Y031254D03*
X018360Y032754D03*
X018360Y034129D03*
X017110Y034004D03*
X017110Y032754D03*
X017110Y031254D03*
X013710Y030854D03*
X013310Y031254D03*
X013310Y031804D03*
X013560Y032254D03*
X013510Y033254D03*
X013510Y034004D03*
X012660Y033304D03*
X012160Y033454D03*
X011570Y033435D03*
X012010Y034204D03*
X010941Y033415D03*
X009810Y031604D03*
X009510Y032254D03*
X009160Y031754D03*
X009360Y031204D03*
X009860Y030704D03*
X009485Y030229D03*
X010260Y030704D03*
X010260Y031154D03*
X010660Y030954D03*
X010660Y031454D03*
X011110Y031454D03*
X011610Y031454D03*
X012110Y031454D03*
X012060Y030604D03*
X013110Y028604D03*
X011548Y025892D03*
X010960Y025804D03*
X011210Y025129D03*
X010610Y025504D03*
X010310Y025154D03*
X009710Y025604D03*
X009960Y025954D03*
X009660Y026654D03*
X008210Y028954D03*
X008085Y028379D03*
X007960Y027829D03*
X007510Y027629D03*
X007410Y028154D03*
X007585Y028654D03*
X008285Y029604D03*
X008610Y030154D03*
X008760Y031204D03*
X008710Y031754D03*
X008260Y031754D03*
X008010Y031204D03*
X007410Y031204D03*
X007810Y030154D03*
X006360Y029754D03*
X005485Y029754D03*
X005485Y028004D03*
X006360Y028004D03*
X006360Y026254D03*
X005610Y026379D03*
X007560Y025104D03*
X007235Y023192D03*
X008548Y022879D03*
X009860Y022004D03*
X012310Y025079D03*
X007810Y032354D03*
X007810Y032854D03*
X007810Y033354D03*
X008210Y033954D03*
X008710Y033954D03*
X009210Y033954D03*
X009510Y033454D03*
X007360Y034254D03*
X006360Y034254D03*
X005485Y034254D03*
X005485Y032754D03*
X006360Y032754D03*
X006360Y031254D03*
X005485Y031254D03*
D36*
X010260Y028354D03*
X010260Y027954D03*
X010260Y027554D03*
X010660Y027554D03*
X010660Y027954D03*
X011060Y027954D03*
X011060Y027554D03*
X011060Y028354D03*
X010660Y028354D03*
D37*
X004485Y021004D03*
X003860Y021504D03*
X003360Y022004D03*
X003360Y019129D03*
X003360Y018379D03*
X006610Y010254D03*
X005110Y007004D03*
X004485Y007004D03*
X015985Y007254D03*
D38*
X009485Y007629D03*
X009485Y009129D03*
M02*
