G75*
G70*
%OFA0B0*%
%FSLAX24Y24*%
%IPPOS*%
%LPD*%
%AMOC8*
5,1,8,0,0,1.08239X$1,22.5*
%
%ADD10C,0.0000*%
%ADD11C,0.0040*%
%ADD12C,0.0080*%
%ADD13R,0.0098X0.0138*%
%ADD14C,0.0059*%
%ADD15R,0.0138X0.0098*%
%ADD16C,0.0030*%
%ADD17C,0.0020*%
%ADD18C,0.0060*%
%ADD19R,0.0118X0.0236*%
%ADD20R,0.0236X0.0118*%
%ADD21C,0.0142*%
%ADD22C,0.0050*%
%ADD23C,0.0120*%
%ADD24R,0.0374X0.0197*%
%ADD25R,0.0197X0.0374*%
%ADD26R,0.0295X0.0571*%
%ADD27C,0.0039*%
%ADD28C,0.0070*%
%ADD29R,0.0423X0.0118*%
%ADD30C,0.0362*%
%ADD31R,0.0230X0.0180*%
%ADD32R,0.0200X0.0200*%
%ADD33R,0.0098X0.0394*%
%ADD34C,0.0256*%
%ADD35R,0.1260X0.0730*%
%ADD36R,0.0340X0.0730*%
%ADD37C,0.0010*%
%ADD38R,0.0571X0.0295*%
D10*
X001110Y001429D02*
X001110Y035754D01*
X022110Y035754D01*
X022110Y001429D01*
X001110Y001429D01*
X004350Y002960D02*
X004352Y003010D01*
X004358Y003060D01*
X004368Y003110D01*
X004381Y003158D01*
X004398Y003206D01*
X004419Y003252D01*
X004443Y003296D01*
X004471Y003338D01*
X004502Y003378D01*
X004536Y003415D01*
X004573Y003450D01*
X004612Y003481D01*
X004653Y003510D01*
X004697Y003535D01*
X004743Y003557D01*
X004790Y003575D01*
X004838Y003589D01*
X004887Y003600D01*
X004937Y003607D01*
X004987Y003610D01*
X005038Y003609D01*
X005088Y003604D01*
X005138Y003595D01*
X005186Y003583D01*
X005234Y003566D01*
X005280Y003546D01*
X005325Y003523D01*
X005368Y003496D01*
X005408Y003466D01*
X005446Y003433D01*
X005481Y003397D01*
X005514Y003358D01*
X005543Y003317D01*
X005569Y003274D01*
X005592Y003229D01*
X005611Y003182D01*
X005626Y003134D01*
X005638Y003085D01*
X005646Y003035D01*
X005650Y002985D01*
X005650Y002935D01*
X005646Y002885D01*
X005638Y002835D01*
X005626Y002786D01*
X005611Y002738D01*
X005592Y002691D01*
X005569Y002646D01*
X005543Y002603D01*
X005514Y002562D01*
X005481Y002523D01*
X005446Y002487D01*
X005408Y002454D01*
X005368Y002424D01*
X005325Y002397D01*
X005280Y002374D01*
X005234Y002354D01*
X005186Y002337D01*
X005138Y002325D01*
X005088Y002316D01*
X005038Y002311D01*
X004987Y002310D01*
X004937Y002313D01*
X004887Y002320D01*
X004838Y002331D01*
X004790Y002345D01*
X004743Y002363D01*
X004697Y002385D01*
X004653Y002410D01*
X004612Y002439D01*
X004573Y002470D01*
X004536Y002505D01*
X004502Y002542D01*
X004471Y002582D01*
X004443Y002624D01*
X004419Y002668D01*
X004398Y002714D01*
X004381Y002762D01*
X004368Y002810D01*
X004358Y002860D01*
X004352Y002910D01*
X004350Y002960D01*
X015571Y002960D02*
X015573Y003010D01*
X015579Y003060D01*
X015589Y003110D01*
X015602Y003158D01*
X015619Y003206D01*
X015640Y003252D01*
X015664Y003296D01*
X015692Y003338D01*
X015723Y003378D01*
X015757Y003415D01*
X015794Y003450D01*
X015833Y003481D01*
X015874Y003510D01*
X015918Y003535D01*
X015964Y003557D01*
X016011Y003575D01*
X016059Y003589D01*
X016108Y003600D01*
X016158Y003607D01*
X016208Y003610D01*
X016259Y003609D01*
X016309Y003604D01*
X016359Y003595D01*
X016407Y003583D01*
X016455Y003566D01*
X016501Y003546D01*
X016546Y003523D01*
X016589Y003496D01*
X016629Y003466D01*
X016667Y003433D01*
X016702Y003397D01*
X016735Y003358D01*
X016764Y003317D01*
X016790Y003274D01*
X016813Y003229D01*
X016832Y003182D01*
X016847Y003134D01*
X016859Y003085D01*
X016867Y003035D01*
X016871Y002985D01*
X016871Y002935D01*
X016867Y002885D01*
X016859Y002835D01*
X016847Y002786D01*
X016832Y002738D01*
X016813Y002691D01*
X016790Y002646D01*
X016764Y002603D01*
X016735Y002562D01*
X016702Y002523D01*
X016667Y002487D01*
X016629Y002454D01*
X016589Y002424D01*
X016546Y002397D01*
X016501Y002374D01*
X016455Y002354D01*
X016407Y002337D01*
X016359Y002325D01*
X016309Y002316D01*
X016259Y002311D01*
X016208Y002310D01*
X016158Y002313D01*
X016108Y002320D01*
X016059Y002331D01*
X016011Y002345D01*
X015964Y002363D01*
X015918Y002385D01*
X015874Y002410D01*
X015833Y002439D01*
X015794Y002470D01*
X015757Y002505D01*
X015723Y002542D01*
X015692Y002582D01*
X015664Y002624D01*
X015640Y002668D01*
X015619Y002714D01*
X015602Y002762D01*
X015589Y002810D01*
X015579Y002860D01*
X015573Y002910D01*
X015571Y002960D01*
X015571Y023433D02*
X015573Y023483D01*
X015579Y023533D01*
X015589Y023583D01*
X015602Y023631D01*
X015619Y023679D01*
X015640Y023725D01*
X015664Y023769D01*
X015692Y023811D01*
X015723Y023851D01*
X015757Y023888D01*
X015794Y023923D01*
X015833Y023954D01*
X015874Y023983D01*
X015918Y024008D01*
X015964Y024030D01*
X016011Y024048D01*
X016059Y024062D01*
X016108Y024073D01*
X016158Y024080D01*
X016208Y024083D01*
X016259Y024082D01*
X016309Y024077D01*
X016359Y024068D01*
X016407Y024056D01*
X016455Y024039D01*
X016501Y024019D01*
X016546Y023996D01*
X016589Y023969D01*
X016629Y023939D01*
X016667Y023906D01*
X016702Y023870D01*
X016735Y023831D01*
X016764Y023790D01*
X016790Y023747D01*
X016813Y023702D01*
X016832Y023655D01*
X016847Y023607D01*
X016859Y023558D01*
X016867Y023508D01*
X016871Y023458D01*
X016871Y023408D01*
X016867Y023358D01*
X016859Y023308D01*
X016847Y023259D01*
X016832Y023211D01*
X016813Y023164D01*
X016790Y023119D01*
X016764Y023076D01*
X016735Y023035D01*
X016702Y022996D01*
X016667Y022960D01*
X016629Y022927D01*
X016589Y022897D01*
X016546Y022870D01*
X016501Y022847D01*
X016455Y022827D01*
X016407Y022810D01*
X016359Y022798D01*
X016309Y022789D01*
X016259Y022784D01*
X016208Y022783D01*
X016158Y022786D01*
X016108Y022793D01*
X016059Y022804D01*
X016011Y022818D01*
X015964Y022836D01*
X015918Y022858D01*
X015874Y022883D01*
X015833Y022912D01*
X015794Y022943D01*
X015757Y022978D01*
X015723Y023015D01*
X015692Y023055D01*
X015664Y023097D01*
X015640Y023141D01*
X015619Y023187D01*
X015602Y023235D01*
X015589Y023283D01*
X015579Y023333D01*
X015573Y023383D01*
X015571Y023433D01*
X004350Y023433D02*
X004352Y023483D01*
X004358Y023533D01*
X004368Y023583D01*
X004381Y023631D01*
X004398Y023679D01*
X004419Y023725D01*
X004443Y023769D01*
X004471Y023811D01*
X004502Y023851D01*
X004536Y023888D01*
X004573Y023923D01*
X004612Y023954D01*
X004653Y023983D01*
X004697Y024008D01*
X004743Y024030D01*
X004790Y024048D01*
X004838Y024062D01*
X004887Y024073D01*
X004937Y024080D01*
X004987Y024083D01*
X005038Y024082D01*
X005088Y024077D01*
X005138Y024068D01*
X005186Y024056D01*
X005234Y024039D01*
X005280Y024019D01*
X005325Y023996D01*
X005368Y023969D01*
X005408Y023939D01*
X005446Y023906D01*
X005481Y023870D01*
X005514Y023831D01*
X005543Y023790D01*
X005569Y023747D01*
X005592Y023702D01*
X005611Y023655D01*
X005626Y023607D01*
X005638Y023558D01*
X005646Y023508D01*
X005650Y023458D01*
X005650Y023408D01*
X005646Y023358D01*
X005638Y023308D01*
X005626Y023259D01*
X005611Y023211D01*
X005592Y023164D01*
X005569Y023119D01*
X005543Y023076D01*
X005514Y023035D01*
X005481Y022996D01*
X005446Y022960D01*
X005408Y022927D01*
X005368Y022897D01*
X005325Y022870D01*
X005280Y022847D01*
X005234Y022827D01*
X005186Y022810D01*
X005138Y022798D01*
X005088Y022789D01*
X005038Y022784D01*
X004987Y022783D01*
X004937Y022786D01*
X004887Y022793D01*
X004838Y022804D01*
X004790Y022818D01*
X004743Y022836D01*
X004697Y022858D01*
X004653Y022883D01*
X004612Y022912D01*
X004573Y022943D01*
X004536Y022978D01*
X004502Y023015D01*
X004471Y023055D01*
X004443Y023097D01*
X004419Y023141D01*
X004398Y023187D01*
X004381Y023235D01*
X004368Y023283D01*
X004358Y023333D01*
X004352Y023383D01*
X004350Y023433D01*
D11*
X010820Y016644D02*
X010820Y016364D01*
X011155Y016364D02*
X011155Y016644D01*
X011845Y015544D02*
X012126Y015544D01*
X012126Y015209D02*
X011845Y015209D01*
X013345Y015089D02*
X013626Y015089D01*
X013626Y015424D02*
X013345Y015424D01*
X013690Y016364D02*
X013690Y016644D01*
X014025Y016644D02*
X014025Y016364D01*
X014010Y017869D02*
X013710Y017869D01*
X013710Y018389D02*
X014001Y018389D01*
X014010Y018744D02*
X013710Y018744D01*
X013710Y019264D02*
X014001Y019264D01*
X014470Y021709D02*
X014751Y021709D01*
X014751Y022044D02*
X014470Y022044D01*
X013400Y021989D02*
X013400Y022269D01*
X013065Y022269D02*
X013065Y021989D01*
X005510Y011514D02*
X005210Y011514D01*
X005220Y010994D02*
X005510Y010994D01*
X006726Y009154D02*
X006726Y008854D01*
X007245Y008864D02*
X007245Y009154D01*
X009464Y034824D02*
X009464Y035131D01*
X009618Y035285D01*
X009771Y035131D01*
X009771Y034824D01*
X009925Y034824D02*
X009925Y035131D01*
X010155Y035131D01*
X010232Y035054D01*
X010232Y034824D01*
X010385Y034901D02*
X010385Y035054D01*
X010462Y035131D01*
X010692Y035131D01*
X010845Y035131D02*
X010845Y034901D01*
X010922Y034824D01*
X011152Y034824D01*
X011152Y035131D01*
X011306Y035131D02*
X011382Y035131D01*
X011382Y034824D01*
X011306Y034824D02*
X011459Y034824D01*
X011613Y034824D02*
X011613Y035131D01*
X011843Y035131D01*
X011920Y035054D01*
X011920Y034824D01*
X012073Y034901D02*
X012150Y034824D01*
X012303Y034824D01*
X012380Y034901D01*
X012380Y035054D01*
X012303Y035131D01*
X012150Y035131D01*
X012073Y035054D01*
X012073Y034901D01*
X011382Y035285D02*
X011382Y035361D01*
X010692Y035285D02*
X010692Y034824D01*
X010462Y034824D01*
X010385Y034901D01*
X009771Y035054D02*
X009464Y035054D01*
X012994Y035131D02*
X013147Y034824D01*
X013301Y035131D01*
X013454Y035131D02*
X013608Y035285D01*
X013608Y034824D01*
X013761Y034824D02*
X013454Y034824D01*
X013914Y034824D02*
X013991Y034824D01*
X013991Y034901D01*
X013914Y034901D01*
X013914Y034824D01*
X014145Y034824D02*
X014451Y034824D01*
X014298Y034824D02*
X014298Y035285D01*
X014145Y035131D01*
D12*
X011645Y028939D02*
X011645Y026970D01*
X009676Y026970D01*
X009676Y028939D01*
X011645Y028939D01*
X008712Y026773D02*
X008697Y026775D01*
X008682Y026779D01*
X008668Y026786D01*
X008656Y026796D01*
X008646Y026808D01*
X008639Y026822D01*
X008635Y026837D01*
X008633Y026852D01*
X007688Y026852D01*
X007686Y026837D01*
X007682Y026822D01*
X007675Y026808D01*
X007665Y026796D01*
X007653Y026786D01*
X007639Y026779D01*
X007624Y026775D01*
X007609Y026773D01*
X007609Y026774D02*
X007609Y025435D01*
X007627Y025437D01*
X007644Y025436D01*
X007661Y025432D01*
X007677Y025425D01*
X007692Y025415D01*
X007704Y025403D01*
X007714Y025389D01*
X007722Y025373D01*
X007727Y025357D01*
X007727Y025356D02*
X008633Y025356D01*
X008635Y025371D01*
X008639Y025386D01*
X008646Y025400D01*
X008656Y025412D01*
X008668Y025422D01*
X008682Y025429D01*
X008697Y025433D01*
X008712Y025435D01*
X008712Y025474D02*
X008712Y026774D01*
X010191Y022181D02*
X010193Y022163D01*
X010192Y022146D01*
X010188Y022129D01*
X010181Y022113D01*
X010171Y022098D01*
X010159Y022086D01*
X010145Y022076D01*
X010129Y022068D01*
X010113Y022063D01*
X010112Y022062D02*
X010112Y021157D01*
X010127Y021155D01*
X010142Y021151D01*
X010156Y021144D01*
X010168Y021134D01*
X010178Y021122D01*
X010185Y021108D01*
X010189Y021093D01*
X010191Y021078D01*
X010230Y021078D02*
X011530Y021078D01*
X011529Y021078D02*
X011531Y021093D01*
X011535Y021108D01*
X011542Y021122D01*
X011552Y021134D01*
X011564Y021144D01*
X011578Y021151D01*
X011593Y021155D01*
X011608Y021157D01*
X011608Y022102D01*
X011593Y022104D01*
X011578Y022108D01*
X011564Y022115D01*
X011552Y022125D01*
X011542Y022137D01*
X011535Y022151D01*
X011531Y022166D01*
X011529Y022181D01*
X011530Y022181D02*
X010191Y022181D01*
X016889Y016594D02*
X016889Y014665D01*
X018582Y014665D01*
X018582Y016594D01*
X016889Y016594D01*
X016889Y012344D02*
X018582Y012344D01*
X018582Y010415D01*
X016889Y010415D01*
X016889Y012344D01*
X018559Y023283D02*
X019662Y023283D01*
X019662Y024976D01*
X018559Y024976D01*
X018559Y023283D01*
X006151Y009704D02*
X006151Y008304D01*
X003570Y008304D01*
X003570Y009704D01*
X006151Y009704D01*
D13*
X009971Y027019D03*
X010168Y027019D03*
X010365Y027019D03*
X010562Y027019D03*
X010759Y027019D03*
X010956Y027019D03*
X011153Y027019D03*
X011349Y027019D03*
X011349Y028889D03*
X011153Y028889D03*
X010956Y028889D03*
X010759Y028889D03*
X010562Y028889D03*
X010365Y028889D03*
X010168Y028889D03*
X009971Y028889D03*
D14*
X009951Y028820D02*
X009953Y028812D01*
X009957Y028806D01*
X009963Y028802D01*
X009971Y028800D01*
X009979Y028802D01*
X009985Y028806D01*
X009989Y028812D01*
X009991Y028820D01*
X010148Y028820D02*
X010150Y028812D01*
X010154Y028806D01*
X010160Y028802D01*
X010168Y028800D01*
X010176Y028802D01*
X010182Y028806D01*
X010186Y028812D01*
X010188Y028820D01*
X010345Y028820D02*
X010347Y028812D01*
X010351Y028806D01*
X010357Y028802D01*
X010365Y028800D01*
X010373Y028802D01*
X010379Y028806D01*
X010383Y028812D01*
X010385Y028820D01*
X010542Y028820D02*
X010544Y028812D01*
X010548Y028806D01*
X010554Y028802D01*
X010562Y028800D01*
X010570Y028802D01*
X010576Y028806D01*
X010580Y028812D01*
X010582Y028820D01*
X010739Y028820D02*
X010741Y028812D01*
X010745Y028806D01*
X010751Y028802D01*
X010759Y028800D01*
X010767Y028802D01*
X010773Y028806D01*
X010777Y028812D01*
X010779Y028820D01*
X010936Y028820D02*
X010938Y028812D01*
X010942Y028806D01*
X010948Y028802D01*
X010956Y028800D01*
X010964Y028802D01*
X010970Y028806D01*
X010974Y028812D01*
X010976Y028820D01*
X011133Y028820D02*
X011135Y028812D01*
X011139Y028806D01*
X011145Y028802D01*
X011153Y028800D01*
X011161Y028802D01*
X011167Y028806D01*
X011171Y028812D01*
X011173Y028820D01*
X011329Y028820D02*
X011331Y028812D01*
X011335Y028806D01*
X011341Y028802D01*
X011349Y028800D01*
X011357Y028802D01*
X011363Y028806D01*
X011367Y028812D01*
X011369Y028820D01*
X011527Y028663D02*
X011519Y028661D01*
X011513Y028657D01*
X011509Y028651D01*
X011507Y028643D01*
X011509Y028635D01*
X011513Y028629D01*
X011519Y028625D01*
X011527Y028623D01*
X011527Y028466D02*
X011519Y028464D01*
X011513Y028460D01*
X011509Y028454D01*
X011507Y028446D01*
X011509Y028438D01*
X011513Y028432D01*
X011519Y028428D01*
X011527Y028426D01*
X011527Y028270D02*
X011519Y028268D01*
X011513Y028264D01*
X011509Y028258D01*
X011507Y028250D01*
X011509Y028242D01*
X011513Y028236D01*
X011519Y028232D01*
X011527Y028230D01*
X011527Y028073D02*
X011519Y028071D01*
X011513Y028067D01*
X011509Y028061D01*
X011507Y028053D01*
X011509Y028045D01*
X011513Y028039D01*
X011519Y028035D01*
X011527Y028033D01*
X011527Y027876D02*
X011519Y027874D01*
X011513Y027870D01*
X011509Y027864D01*
X011507Y027856D01*
X011509Y027848D01*
X011513Y027842D01*
X011519Y027838D01*
X011527Y027836D01*
X011527Y027679D02*
X011519Y027677D01*
X011513Y027673D01*
X011509Y027667D01*
X011507Y027659D01*
X011509Y027651D01*
X011513Y027645D01*
X011519Y027641D01*
X011527Y027639D01*
X011527Y027482D02*
X011519Y027480D01*
X011513Y027476D01*
X011509Y027470D01*
X011507Y027462D01*
X011509Y027454D01*
X011513Y027448D01*
X011519Y027444D01*
X011527Y027442D01*
X011527Y027285D02*
X011519Y027283D01*
X011513Y027279D01*
X011509Y027273D01*
X011507Y027265D01*
X011509Y027257D01*
X011513Y027251D01*
X011519Y027247D01*
X011527Y027245D01*
X011369Y027088D02*
X011367Y027096D01*
X011363Y027102D01*
X011357Y027106D01*
X011349Y027108D01*
X011341Y027106D01*
X011335Y027102D01*
X011331Y027096D01*
X011329Y027088D01*
X011173Y027088D02*
X011171Y027096D01*
X011167Y027102D01*
X011161Y027106D01*
X011153Y027108D01*
X011145Y027106D01*
X011139Y027102D01*
X011135Y027096D01*
X011133Y027088D01*
X010976Y027088D02*
X010974Y027096D01*
X010970Y027102D01*
X010964Y027106D01*
X010956Y027108D01*
X010948Y027106D01*
X010942Y027102D01*
X010938Y027096D01*
X010936Y027088D01*
X010779Y027088D02*
X010777Y027096D01*
X010773Y027102D01*
X010767Y027106D01*
X010759Y027108D01*
X010751Y027106D01*
X010745Y027102D01*
X010741Y027096D01*
X010739Y027088D01*
X010582Y027088D02*
X010580Y027096D01*
X010576Y027102D01*
X010570Y027106D01*
X010562Y027108D01*
X010554Y027106D01*
X010548Y027102D01*
X010544Y027096D01*
X010542Y027088D01*
X010385Y027088D02*
X010383Y027096D01*
X010379Y027102D01*
X010373Y027106D01*
X010365Y027108D01*
X010357Y027106D01*
X010351Y027102D01*
X010347Y027096D01*
X010345Y027088D01*
X010188Y027088D02*
X010186Y027096D01*
X010182Y027102D01*
X010176Y027106D01*
X010168Y027108D01*
X010160Y027106D01*
X010154Y027102D01*
X010150Y027096D01*
X010148Y027088D01*
X009991Y027088D02*
X009989Y027096D01*
X009985Y027102D01*
X009979Y027106D01*
X009971Y027108D01*
X009963Y027106D01*
X009957Y027102D01*
X009953Y027096D01*
X009951Y027088D01*
X009794Y027245D02*
X009802Y027247D01*
X009808Y027251D01*
X009812Y027257D01*
X009814Y027265D01*
X009812Y027273D01*
X009808Y027279D01*
X009802Y027283D01*
X009794Y027285D01*
X009794Y027442D02*
X009802Y027444D01*
X009808Y027448D01*
X009812Y027454D01*
X009814Y027462D01*
X009812Y027470D01*
X009808Y027476D01*
X009802Y027480D01*
X009794Y027482D01*
X009794Y027639D02*
X009802Y027641D01*
X009808Y027645D01*
X009812Y027651D01*
X009814Y027659D01*
X009812Y027667D01*
X009808Y027673D01*
X009802Y027677D01*
X009794Y027679D01*
X009794Y027836D02*
X009802Y027838D01*
X009808Y027842D01*
X009812Y027848D01*
X009814Y027856D01*
X009812Y027864D01*
X009808Y027870D01*
X009802Y027874D01*
X009794Y027876D01*
X009794Y028033D02*
X009802Y028035D01*
X009808Y028039D01*
X009812Y028045D01*
X009814Y028053D01*
X009812Y028061D01*
X009808Y028067D01*
X009802Y028071D01*
X009794Y028073D01*
X009794Y028230D02*
X009802Y028232D01*
X009808Y028236D01*
X009812Y028242D01*
X009814Y028250D01*
X009812Y028258D01*
X009808Y028264D01*
X009802Y028268D01*
X009794Y028270D01*
X009794Y028426D02*
X009802Y028428D01*
X009808Y028432D01*
X009812Y028438D01*
X009814Y028446D01*
X009812Y028454D01*
X009808Y028460D01*
X009802Y028464D01*
X009794Y028466D01*
X009794Y028623D02*
X009802Y028625D01*
X009808Y028629D01*
X009812Y028635D01*
X009814Y028643D01*
X009812Y028651D01*
X009808Y028657D01*
X009802Y028661D01*
X009794Y028663D01*
D15*
X009725Y028643D03*
X009725Y028446D03*
X009725Y028250D03*
X009725Y028053D03*
X009725Y027856D03*
X009725Y027659D03*
X009725Y027462D03*
X009725Y027265D03*
X011595Y027265D03*
X011595Y027462D03*
X011595Y027659D03*
X011595Y027856D03*
X011595Y028053D03*
X011595Y028250D03*
X011595Y028446D03*
X011595Y028643D03*
D16*
X011660Y028954D02*
X011660Y026954D01*
X009660Y026954D01*
X009660Y028954D01*
X011660Y028954D01*
X009719Y027074D02*
X009721Y027090D01*
X009727Y027106D01*
X009736Y027120D01*
X009748Y027131D01*
X009762Y027139D01*
X009778Y027144D01*
X009794Y027145D01*
X009810Y027142D01*
X009825Y027135D01*
X009839Y027126D01*
X009849Y027113D01*
X009857Y027098D01*
X009861Y027082D01*
X009861Y027066D01*
X009857Y027050D01*
X009849Y027035D01*
X009839Y027022D01*
X009826Y027013D01*
X009810Y027006D01*
X009794Y027003D01*
X009778Y027004D01*
X009762Y027009D01*
X009748Y027017D01*
X009736Y027028D01*
X009727Y027042D01*
X009721Y027058D01*
X009719Y027074D01*
X007974Y031799D02*
X007781Y031799D01*
X007877Y031799D02*
X007877Y032090D01*
X007781Y031993D01*
X007680Y032041D02*
X007680Y031944D01*
X007631Y031896D01*
X007486Y031896D01*
X007486Y031799D02*
X007486Y032090D01*
X007631Y032090D01*
X007680Y032041D01*
D17*
X009120Y029840D02*
X009120Y029693D01*
X009230Y029693D01*
X009194Y029767D01*
X009194Y029803D01*
X009230Y029840D01*
X009304Y029840D01*
X009340Y029803D01*
X009340Y029730D01*
X009304Y029693D01*
X009340Y029619D02*
X009340Y029472D01*
X009194Y029619D01*
X009157Y029619D01*
X009120Y029582D01*
X009120Y029509D01*
X009157Y029472D01*
X009157Y029398D02*
X009120Y029361D01*
X009120Y029288D01*
X009157Y029251D01*
X009304Y029251D01*
X009340Y029288D01*
X009340Y029361D01*
X009304Y029398D01*
X009780Y029401D02*
X009817Y029364D01*
X009964Y029364D01*
X010000Y029401D01*
X010000Y029474D01*
X009964Y029511D01*
X009964Y029585D02*
X009927Y029585D01*
X009890Y029622D01*
X009890Y029695D01*
X009927Y029732D01*
X009964Y029732D01*
X010000Y029695D01*
X010000Y029622D01*
X009964Y029585D01*
X009890Y029622D02*
X009854Y029585D01*
X009817Y029585D01*
X009780Y029622D01*
X009780Y029695D01*
X009817Y029732D01*
X009854Y029732D01*
X009890Y029695D01*
X009817Y029511D02*
X009780Y029474D01*
X009780Y029401D01*
X010180Y029422D02*
X010217Y029385D01*
X010180Y029422D02*
X010180Y029495D01*
X010217Y029532D01*
X010254Y029532D01*
X010400Y029385D01*
X010400Y029532D01*
X010364Y029606D02*
X010400Y029643D01*
X010400Y029716D01*
X010364Y029753D01*
X010217Y029753D01*
X010364Y029606D01*
X010217Y029606D01*
X010180Y029643D01*
X010180Y029716D01*
X010217Y029753D01*
X010530Y029745D02*
X010567Y029782D01*
X010604Y029782D01*
X010640Y029745D01*
X010677Y029782D01*
X010714Y029782D01*
X010750Y029745D01*
X010750Y029672D01*
X010714Y029635D01*
X010714Y029561D02*
X010750Y029524D01*
X010750Y029451D01*
X010714Y029414D01*
X010567Y029414D01*
X010530Y029451D01*
X010530Y029524D01*
X010567Y029561D01*
X010567Y029635D02*
X010530Y029672D01*
X010530Y029745D01*
X010640Y029745D02*
X010640Y029709D01*
X010567Y029856D02*
X010530Y029893D01*
X010530Y029966D01*
X010567Y030003D01*
X010604Y030003D01*
X010750Y029856D01*
X010750Y030003D01*
X010878Y029644D02*
X010878Y029424D01*
X011025Y029424D01*
X011099Y029424D02*
X011246Y029571D01*
X011246Y029608D01*
X011209Y029644D01*
X011136Y029644D01*
X011099Y029608D01*
X011099Y029424D02*
X011246Y029424D01*
X011470Y029438D02*
X011507Y029401D01*
X011654Y029401D01*
X011690Y029438D01*
X011690Y029511D01*
X011654Y029548D01*
X011654Y029622D02*
X011690Y029659D01*
X011690Y029732D01*
X011654Y029769D01*
X011617Y029769D01*
X011580Y029732D01*
X011580Y029696D01*
X011580Y029732D02*
X011544Y029769D01*
X011507Y029769D01*
X011470Y029732D01*
X011470Y029659D01*
X011507Y029622D01*
X011507Y029548D02*
X011470Y029511D01*
X011470Y029438D01*
X011678Y029394D02*
X011678Y029174D01*
X011825Y029174D01*
X011899Y029174D02*
X012046Y029174D01*
X011973Y029174D02*
X011973Y029394D01*
X011899Y029321D01*
X011930Y029030D02*
X012150Y029030D01*
X012150Y029103D02*
X012150Y028956D01*
X012150Y028882D02*
X012150Y028735D01*
X012150Y028809D02*
X011930Y028809D01*
X012004Y028735D01*
X011967Y028661D02*
X011930Y028624D01*
X011930Y028551D01*
X011967Y028514D01*
X012114Y028514D01*
X012150Y028551D01*
X012150Y028624D01*
X012114Y028661D01*
X012004Y028956D02*
X011930Y029030D01*
X011690Y029843D02*
X011690Y029990D01*
X011690Y029917D02*
X011470Y029917D01*
X011544Y029843D01*
X011880Y030064D02*
X012100Y030064D01*
X012100Y030211D01*
X012064Y030285D02*
X012100Y030322D01*
X012100Y030395D01*
X012064Y030432D01*
X012027Y030432D01*
X011990Y030395D01*
X011990Y030285D01*
X012064Y030285D01*
X011990Y030285D02*
X011917Y030359D01*
X011880Y030432D01*
X012330Y030422D02*
X012330Y030495D01*
X012367Y030532D01*
X012404Y030532D01*
X012440Y030495D01*
X012477Y030532D01*
X012514Y030532D01*
X012550Y030495D01*
X012550Y030422D01*
X012514Y030385D01*
X012550Y030311D02*
X012550Y030164D01*
X012330Y030164D01*
X012367Y030385D02*
X012330Y030422D01*
X012440Y030459D02*
X012440Y030495D01*
X012820Y030901D02*
X012857Y030864D01*
X012930Y030864D01*
X012967Y030901D01*
X013041Y030901D02*
X013078Y030864D01*
X013151Y030864D01*
X013188Y030901D01*
X013188Y030938D01*
X013151Y030974D01*
X013115Y030974D01*
X013151Y030974D02*
X013188Y031011D01*
X013188Y031048D01*
X013151Y031084D01*
X013078Y031084D01*
X013041Y031048D01*
X012967Y031048D02*
X012930Y031084D01*
X012857Y031084D01*
X012820Y031048D01*
X012820Y030901D01*
X012550Y031464D02*
X012550Y031611D01*
X012440Y031685D02*
X012440Y031832D01*
X012330Y031795D02*
X012440Y031685D01*
X012550Y031795D02*
X012330Y031795D01*
X012196Y031861D02*
X012196Y031934D01*
X012159Y031971D01*
X012123Y031971D01*
X012049Y031934D01*
X012049Y032044D01*
X012196Y032044D01*
X012196Y031861D02*
X012159Y031824D01*
X012086Y031824D01*
X012049Y031861D01*
X011975Y031824D02*
X011828Y031824D01*
X011828Y032044D01*
X011551Y031332D02*
X011588Y031295D01*
X011588Y031259D01*
X011551Y031222D01*
X011478Y031222D01*
X011441Y031259D01*
X011441Y031295D01*
X011478Y031332D01*
X011551Y031332D01*
X011551Y031222D02*
X011588Y031185D01*
X011588Y031149D01*
X011551Y031112D01*
X011478Y031112D01*
X011441Y031149D01*
X011441Y031185D01*
X011478Y031222D01*
X011367Y031112D02*
X011220Y031112D01*
X011220Y031332D01*
X011050Y030935D02*
X011014Y030935D01*
X010867Y031082D01*
X010830Y031082D01*
X010830Y030935D01*
X010830Y030714D02*
X011050Y030714D01*
X011050Y030861D01*
X011001Y032514D02*
X011038Y032551D01*
X011038Y032588D01*
X011001Y032624D01*
X010891Y032624D01*
X010891Y032551D01*
X010928Y032514D01*
X011001Y032514D01*
X010891Y032624D02*
X010965Y032698D01*
X011038Y032734D01*
X010817Y032698D02*
X010817Y032624D01*
X010780Y032588D01*
X010670Y032588D01*
X010670Y032514D02*
X010670Y032734D01*
X010780Y032734D01*
X010817Y032698D01*
X010744Y032588D02*
X010817Y032514D01*
X011807Y032961D02*
X011844Y032924D01*
X011918Y032924D01*
X011954Y032961D01*
X012028Y032924D02*
X012175Y033071D01*
X012175Y033108D01*
X012139Y033144D01*
X012065Y033144D01*
X012028Y033108D01*
X011954Y033108D02*
X011918Y033144D01*
X011844Y033144D01*
X011807Y033108D01*
X011807Y032961D01*
X012028Y032924D02*
X012175Y032924D01*
X012249Y032961D02*
X012249Y032998D01*
X012286Y033034D01*
X012359Y033034D01*
X012396Y032998D01*
X012396Y032961D01*
X012359Y032924D01*
X012286Y032924D01*
X012249Y032961D01*
X012286Y033034D02*
X012249Y033071D01*
X012249Y033108D01*
X012286Y033144D01*
X012359Y033144D01*
X012396Y033108D01*
X012396Y033071D01*
X012359Y033034D01*
X012707Y032684D02*
X012670Y032648D01*
X012670Y032501D01*
X012707Y032464D01*
X012780Y032464D01*
X012817Y032501D01*
X012891Y032501D02*
X012928Y032464D01*
X013001Y032464D01*
X013038Y032501D01*
X013038Y032538D01*
X013001Y032574D01*
X012965Y032574D01*
X013001Y032574D02*
X013038Y032611D01*
X013038Y032648D01*
X013001Y032684D01*
X012928Y032684D01*
X012891Y032648D01*
X012817Y032648D02*
X012780Y032684D01*
X012707Y032684D01*
X013112Y032648D02*
X013112Y032501D01*
X013259Y032648D01*
X013259Y032501D01*
X013222Y032464D01*
X013149Y032464D01*
X013112Y032501D01*
X013112Y032648D02*
X013149Y032684D01*
X013222Y032684D01*
X013259Y032648D01*
X012550Y031464D02*
X012330Y031464D01*
X013262Y030974D02*
X013409Y030974D01*
X013372Y030864D02*
X013372Y031084D01*
X013262Y030974D01*
X013356Y030703D02*
X013393Y030703D01*
X013430Y030666D01*
X013466Y030703D01*
X013503Y030703D01*
X013540Y030666D01*
X013540Y030593D01*
X013503Y030556D01*
X013503Y030482D02*
X013540Y030445D01*
X013540Y030372D01*
X013503Y030335D01*
X013503Y030261D02*
X013540Y030224D01*
X013540Y030151D01*
X013503Y030114D01*
X013356Y030114D01*
X013320Y030151D01*
X013320Y030224D01*
X013356Y030261D01*
X013356Y030335D02*
X013320Y030372D01*
X013320Y030445D01*
X013356Y030482D01*
X013393Y030482D01*
X013430Y030445D01*
X013466Y030482D01*
X013503Y030482D01*
X013430Y030445D02*
X013430Y030409D01*
X013356Y030556D02*
X013320Y030593D01*
X013320Y030666D01*
X013356Y030703D01*
X013430Y030666D02*
X013430Y030630D01*
X013389Y030044D02*
X013315Y030044D01*
X013278Y030008D01*
X013204Y030008D02*
X013168Y030044D01*
X013094Y030044D01*
X013057Y030008D01*
X013057Y029861D01*
X013094Y029824D01*
X013168Y029824D01*
X013204Y029861D01*
X013278Y029824D02*
X013425Y029971D01*
X013425Y030008D01*
X013389Y030044D01*
X013499Y030008D02*
X013536Y030044D01*
X013609Y030044D01*
X013646Y030008D01*
X013646Y029971D01*
X013499Y029824D01*
X013646Y029824D01*
X013425Y029824D02*
X013278Y029824D01*
X013040Y029830D02*
X013040Y029903D01*
X013004Y029940D01*
X012857Y029940D01*
X012820Y029903D01*
X012820Y029830D01*
X012857Y029793D01*
X012894Y029793D01*
X012930Y029830D01*
X012930Y029940D01*
X013040Y029830D02*
X013004Y029793D01*
X013040Y029719D02*
X013040Y029572D01*
X012894Y029719D01*
X012857Y029719D01*
X012820Y029682D01*
X012820Y029609D01*
X012857Y029572D01*
X012857Y029498D02*
X012820Y029461D01*
X012820Y029388D01*
X012857Y029351D01*
X013004Y029351D01*
X013040Y029388D01*
X013040Y029461D01*
X013004Y029498D01*
X013070Y029084D02*
X013180Y029084D01*
X013217Y029048D01*
X013217Y028974D01*
X013180Y028938D01*
X013070Y028938D01*
X013070Y028864D02*
X013070Y029084D01*
X013144Y028938D02*
X013217Y028864D01*
X013291Y028901D02*
X013328Y028864D01*
X013401Y028864D01*
X013438Y028901D01*
X013438Y028974D01*
X013401Y029011D01*
X013365Y029011D01*
X013291Y028974D01*
X013291Y029084D01*
X013438Y029084D01*
X013870Y028648D02*
X013870Y028501D01*
X013907Y028464D01*
X013980Y028464D01*
X014017Y028501D01*
X014091Y028464D02*
X014238Y028611D01*
X014238Y028648D01*
X014201Y028684D01*
X014128Y028684D01*
X014091Y028648D01*
X014017Y028648D02*
X013980Y028684D01*
X013907Y028684D01*
X013870Y028648D01*
X014091Y028464D02*
X014238Y028464D01*
X014312Y028574D02*
X014459Y028574D01*
X014422Y028464D02*
X014422Y028684D01*
X014312Y028574D01*
X013509Y027998D02*
X013509Y027961D01*
X013362Y027814D01*
X013509Y027814D01*
X013509Y027998D02*
X013472Y028034D01*
X013399Y028034D01*
X013362Y027998D01*
X013215Y028034D02*
X013215Y027814D01*
X013288Y027814D02*
X013141Y027814D01*
X013067Y027851D02*
X013030Y027814D01*
X012957Y027814D01*
X012920Y027851D01*
X012920Y027998D01*
X012957Y028034D01*
X013030Y028034D01*
X013067Y027998D01*
X013141Y027961D02*
X013215Y028034D01*
X013251Y028164D02*
X013178Y028164D01*
X013141Y028201D01*
X013067Y028164D02*
X012994Y028238D01*
X013030Y028238D02*
X012920Y028238D01*
X012920Y028164D02*
X012920Y028384D01*
X013030Y028384D01*
X013067Y028348D01*
X013067Y028274D01*
X013030Y028238D01*
X013141Y028348D02*
X013178Y028384D01*
X013251Y028384D01*
X013288Y028348D01*
X013288Y028311D01*
X013251Y028274D01*
X013288Y028238D01*
X013288Y028201D01*
X013251Y028164D01*
X013251Y028274D02*
X013215Y028274D01*
X012946Y027194D02*
X012799Y027194D01*
X012799Y027084D01*
X012873Y027121D01*
X012909Y027121D01*
X012946Y027084D01*
X012946Y027011D01*
X012909Y026974D01*
X012836Y026974D01*
X012799Y027011D01*
X012725Y026974D02*
X012578Y026974D01*
X012652Y026974D02*
X012652Y027194D01*
X012578Y027121D01*
X012504Y027158D02*
X012468Y027194D01*
X012394Y027194D01*
X012357Y027158D01*
X012357Y027011D01*
X012394Y026974D01*
X012468Y026974D01*
X012504Y027011D01*
X011636Y026584D02*
X011636Y026364D01*
X011709Y026364D02*
X011562Y026364D01*
X011488Y026364D02*
X011341Y026364D01*
X011488Y026511D01*
X011488Y026548D01*
X011451Y026584D01*
X011378Y026584D01*
X011341Y026548D01*
X011267Y026548D02*
X011230Y026584D01*
X011157Y026584D01*
X011120Y026548D01*
X011120Y026401D01*
X011157Y026364D01*
X011230Y026364D01*
X011267Y026401D01*
X011562Y026511D02*
X011636Y026584D01*
X010540Y026503D02*
X010320Y026503D01*
X010430Y026393D01*
X010430Y026540D01*
X010540Y026319D02*
X010540Y026172D01*
X010540Y026246D02*
X010320Y026246D01*
X010394Y026172D01*
X010357Y026098D02*
X010320Y026061D01*
X010320Y025988D01*
X010357Y025951D01*
X010504Y025951D01*
X010540Y025988D01*
X010540Y026061D01*
X010504Y026098D01*
X009557Y026747D02*
X009410Y026747D01*
X009557Y026894D01*
X009557Y026930D01*
X009520Y026967D01*
X009447Y026967D01*
X009410Y026930D01*
X009336Y026967D02*
X009336Y026784D01*
X009299Y026747D01*
X009226Y026747D01*
X009189Y026784D01*
X009189Y026967D01*
X009126Y027514D02*
X009163Y027551D01*
X009163Y027698D01*
X009126Y027734D01*
X009053Y027734D01*
X009016Y027698D01*
X009016Y027661D01*
X009053Y027624D01*
X009163Y027624D01*
X009126Y027514D02*
X009053Y027514D01*
X009016Y027551D01*
X008942Y027551D02*
X008905Y027514D01*
X008832Y027514D01*
X008795Y027551D01*
X008795Y027698D01*
X008832Y027734D01*
X008905Y027734D01*
X008942Y027698D01*
X008965Y028074D02*
X009039Y028074D01*
X009075Y028111D01*
X009149Y028111D02*
X009149Y028074D01*
X009149Y028111D02*
X009296Y028258D01*
X009296Y028294D01*
X009149Y028294D01*
X009075Y028258D02*
X009039Y028294D01*
X008965Y028294D01*
X008928Y028258D01*
X008928Y028111D01*
X008965Y028074D01*
X008346Y028611D02*
X008346Y028758D01*
X008309Y028794D01*
X008236Y028794D01*
X008199Y028758D01*
X008199Y028721D01*
X008236Y028684D01*
X008346Y028684D01*
X008346Y028611D02*
X008309Y028574D01*
X008236Y028574D01*
X008199Y028611D01*
X008125Y028574D02*
X007978Y028574D01*
X008052Y028574D02*
X008052Y028794D01*
X007978Y028721D01*
X007904Y028758D02*
X007868Y028794D01*
X007794Y028794D01*
X007757Y028758D01*
X007757Y028611D01*
X007794Y028574D01*
X007868Y028574D01*
X007904Y028611D01*
X007918Y029174D02*
X007844Y029174D01*
X007807Y029211D01*
X007807Y029358D01*
X007844Y029394D01*
X007918Y029394D01*
X007954Y029358D01*
X008028Y029321D02*
X008102Y029394D01*
X008102Y029174D01*
X008175Y029174D02*
X008028Y029174D01*
X007954Y029211D02*
X007918Y029174D01*
X008249Y029211D02*
X008396Y029358D01*
X008396Y029211D01*
X008359Y029174D01*
X008286Y029174D01*
X008249Y029211D01*
X008249Y029358D01*
X008286Y029394D01*
X008359Y029394D01*
X008396Y029358D01*
X007409Y027344D02*
X007336Y027344D01*
X007299Y027308D01*
X007299Y027271D01*
X007336Y027234D01*
X007409Y027234D01*
X007446Y027198D01*
X007446Y027161D01*
X007409Y027124D01*
X007336Y027124D01*
X007299Y027161D01*
X007299Y027198D01*
X007336Y027234D01*
X007409Y027234D02*
X007446Y027271D01*
X007446Y027308D01*
X007409Y027344D01*
X007225Y027124D02*
X007078Y027124D01*
X007152Y027124D02*
X007152Y027344D01*
X007078Y027271D01*
X007004Y027308D02*
X006968Y027344D01*
X006894Y027344D01*
X006857Y027308D01*
X006857Y027161D01*
X006894Y027124D01*
X006968Y027124D01*
X007004Y027161D01*
X006957Y026440D02*
X006920Y026440D01*
X006920Y026293D01*
X006957Y026219D02*
X006920Y026182D01*
X006920Y026109D01*
X006957Y026072D01*
X006957Y025998D02*
X006920Y025961D01*
X006920Y025888D01*
X006957Y025851D01*
X007104Y025851D01*
X007140Y025888D01*
X007140Y025961D01*
X007104Y025998D01*
X007140Y026072D02*
X006994Y026219D01*
X006957Y026219D01*
X007104Y026293D02*
X007140Y026293D01*
X007104Y026293D02*
X006957Y026440D01*
X007140Y026219D02*
X007140Y026072D01*
X007136Y025777D02*
X007209Y025777D01*
X007246Y025740D01*
X007246Y025594D01*
X007209Y025557D01*
X007136Y025557D01*
X007099Y025594D01*
X007099Y025740D01*
X007136Y025777D01*
X007173Y025630D02*
X007246Y025557D01*
X007320Y025557D02*
X007467Y025704D01*
X007467Y025740D01*
X007430Y025777D01*
X007357Y025777D01*
X007320Y025740D01*
X007320Y025557D02*
X007467Y025557D01*
X007944Y024744D02*
X007907Y024708D01*
X007907Y024561D01*
X007944Y024524D01*
X008018Y024524D01*
X008054Y024561D01*
X008128Y024524D02*
X008275Y024671D01*
X008275Y024708D01*
X008239Y024744D01*
X008165Y024744D01*
X008128Y024708D01*
X008054Y024708D02*
X008018Y024744D01*
X007944Y024744D01*
X008128Y024524D02*
X008275Y024524D01*
X008349Y024561D02*
X008386Y024524D01*
X008459Y024524D01*
X008496Y024561D01*
X008496Y024598D01*
X008459Y024634D01*
X008349Y024634D01*
X008349Y024561D01*
X008349Y024634D02*
X008423Y024708D01*
X008496Y024744D01*
X009020Y025164D02*
X009020Y025384D01*
X009130Y025384D01*
X009167Y025348D01*
X009167Y025274D01*
X009130Y025238D01*
X009020Y025238D01*
X009094Y025238D02*
X009167Y025164D01*
X009241Y025274D02*
X009388Y025274D01*
X009351Y025164D02*
X009351Y025384D01*
X009241Y025274D01*
X009207Y025801D02*
X009354Y025801D01*
X009390Y025838D01*
X009390Y025911D01*
X009354Y025948D01*
X009390Y026022D02*
X009390Y026169D01*
X009390Y026096D02*
X009170Y026096D01*
X009244Y026022D01*
X009207Y025948D02*
X009170Y025911D01*
X009170Y025838D01*
X009207Y025801D01*
X009207Y026243D02*
X009170Y026280D01*
X009170Y026353D01*
X009207Y026390D01*
X009244Y026390D01*
X009280Y026353D01*
X009317Y026390D01*
X009354Y026390D01*
X009390Y026353D01*
X009390Y026280D01*
X009354Y026243D01*
X009280Y026317D02*
X009280Y026353D01*
X010217Y029164D02*
X010364Y029164D01*
X010400Y029201D01*
X010400Y029274D01*
X010364Y029311D01*
X010217Y029311D02*
X010180Y029274D01*
X010180Y029201D01*
X010217Y029164D01*
X013970Y029851D02*
X014007Y029814D01*
X014080Y029814D01*
X014117Y029851D01*
X014191Y029814D02*
X014338Y029961D01*
X014338Y029998D01*
X014301Y030034D01*
X014228Y030034D01*
X014191Y029998D01*
X014117Y029998D02*
X014080Y030034D01*
X014007Y030034D01*
X013970Y029998D01*
X013970Y029851D01*
X014191Y029814D02*
X014338Y029814D01*
X014412Y029851D02*
X014449Y029814D01*
X014522Y029814D01*
X014559Y029851D01*
X014559Y029888D01*
X014522Y029924D01*
X014486Y029924D01*
X014522Y029924D02*
X014559Y029961D01*
X014559Y029998D01*
X014522Y030034D01*
X014449Y030034D01*
X014412Y029998D01*
X017532Y024440D02*
X017679Y024293D01*
X017715Y024330D01*
X017715Y024403D01*
X017679Y024440D01*
X017532Y024440D01*
X017495Y024403D01*
X017495Y024330D01*
X017532Y024293D01*
X017679Y024293D01*
X017679Y024219D02*
X017715Y024182D01*
X017715Y024109D01*
X017679Y024072D01*
X017605Y024072D02*
X017569Y024146D01*
X017569Y024182D01*
X017605Y024219D01*
X017679Y024219D01*
X017605Y024072D02*
X017495Y024072D01*
X017495Y024219D01*
X017532Y023998D02*
X017495Y023961D01*
X017495Y023888D01*
X017532Y023851D01*
X017679Y023851D01*
X017715Y023888D01*
X017715Y023961D01*
X017679Y023998D01*
X018870Y021859D02*
X018980Y021859D01*
X019017Y021823D01*
X019017Y021749D01*
X018980Y021713D01*
X018870Y021713D01*
X018870Y021639D02*
X018870Y021859D01*
X018944Y021713D02*
X019017Y021639D01*
X019091Y021639D02*
X019238Y021639D01*
X019165Y021639D02*
X019165Y021859D01*
X019091Y021786D01*
X019312Y021859D02*
X019459Y021859D01*
X019459Y021823D01*
X019312Y021676D01*
X019312Y021639D01*
X019865Y023238D02*
X020049Y023238D01*
X020086Y023274D01*
X020086Y023348D01*
X020049Y023385D01*
X019865Y023385D01*
X019976Y023459D02*
X019976Y023569D01*
X020012Y023606D01*
X020049Y023606D01*
X020086Y023569D01*
X020086Y023495D01*
X020049Y023459D01*
X019976Y023459D01*
X019902Y023532D01*
X019865Y023606D01*
X019863Y026389D02*
X019716Y026389D01*
X019863Y026536D01*
X019863Y026573D01*
X019826Y026609D01*
X019753Y026609D01*
X019716Y026573D01*
X019642Y026573D02*
X019642Y026499D01*
X019605Y026463D01*
X019495Y026463D01*
X019495Y026389D02*
X019495Y026609D01*
X019605Y026609D01*
X019642Y026573D01*
X019569Y026463D02*
X019642Y026389D01*
X019209Y026889D02*
X019062Y026889D01*
X019209Y027036D01*
X019209Y027073D01*
X019172Y027109D01*
X019099Y027109D01*
X019062Y027073D01*
X018988Y027073D02*
X018951Y027109D01*
X018878Y027109D01*
X018841Y027073D01*
X018767Y027073D02*
X018767Y026999D01*
X018730Y026963D01*
X018620Y026963D01*
X018620Y026889D02*
X018620Y027109D01*
X018730Y027109D01*
X018767Y027073D01*
X018694Y026963D02*
X018767Y026889D01*
X018841Y026889D02*
X018988Y027036D01*
X018988Y027073D01*
X018988Y026889D02*
X018841Y026889D01*
X018841Y027389D02*
X018988Y027389D01*
X018915Y027389D02*
X018915Y027609D01*
X018841Y027536D01*
X018767Y027499D02*
X018730Y027463D01*
X018620Y027463D01*
X018620Y027389D02*
X018620Y027609D01*
X018730Y027609D01*
X018767Y027573D01*
X018767Y027499D01*
X018694Y027463D02*
X018767Y027389D01*
X019062Y027426D02*
X019099Y027389D01*
X019172Y027389D01*
X019209Y027426D01*
X019209Y027573D01*
X019172Y027609D01*
X019099Y027609D01*
X019062Y027573D01*
X019062Y027536D01*
X019099Y027499D01*
X019209Y027499D01*
X019171Y027899D02*
X019024Y027899D01*
X019098Y027899D02*
X019098Y028119D01*
X019024Y028046D01*
X018950Y028046D02*
X018803Y027899D01*
X018950Y027899D01*
X018950Y028046D02*
X018950Y028083D01*
X018914Y028119D01*
X018840Y028119D01*
X018803Y028083D01*
X018729Y028083D02*
X018729Y028009D01*
X018693Y027973D01*
X018582Y027973D01*
X018582Y027899D02*
X018582Y028119D01*
X018693Y028119D01*
X018729Y028083D01*
X018656Y027973D02*
X018729Y027899D01*
X019974Y026609D02*
X020047Y026609D01*
X020084Y026573D01*
X019937Y026426D01*
X019974Y026389D01*
X020047Y026389D01*
X020084Y026426D01*
X020084Y026573D01*
X019974Y026609D02*
X019937Y026573D01*
X019937Y026426D01*
X016679Y021190D02*
X016715Y021153D01*
X016715Y021080D01*
X016679Y021043D01*
X016605Y021043D02*
X016569Y021117D01*
X016569Y021153D01*
X016605Y021190D01*
X016679Y021190D01*
X016605Y021043D02*
X016495Y021043D01*
X016495Y021190D01*
X016605Y020969D02*
X016605Y020822D01*
X016495Y020932D01*
X016715Y020932D01*
X016679Y020748D02*
X016715Y020711D01*
X016715Y020638D01*
X016679Y020601D01*
X016532Y020601D01*
X016495Y020638D01*
X016495Y020711D01*
X016532Y020748D01*
X016957Y019119D02*
X017068Y019119D01*
X017104Y019083D01*
X017104Y019009D01*
X017068Y018973D01*
X016957Y018973D01*
X016957Y018899D02*
X016957Y019119D01*
X017031Y018973D02*
X017104Y018899D01*
X017178Y018899D02*
X017325Y018899D01*
X017252Y018899D02*
X017252Y019119D01*
X017178Y019046D01*
X017399Y019083D02*
X017399Y018936D01*
X017546Y019083D01*
X017546Y018936D01*
X017509Y018899D01*
X017436Y018899D01*
X017399Y018936D01*
X017399Y019083D02*
X017436Y019119D01*
X017509Y019119D01*
X017546Y019083D01*
X017870Y019322D02*
X017870Y019432D01*
X017907Y019469D01*
X017980Y019469D01*
X018017Y019432D01*
X018017Y019322D01*
X018090Y019322D02*
X017870Y019322D01*
X017907Y019543D02*
X017870Y019580D01*
X017870Y019653D01*
X017907Y019690D01*
X017944Y019690D01*
X018090Y019543D01*
X018090Y019690D01*
X017384Y018619D02*
X017311Y018619D01*
X017274Y018583D01*
X017274Y018546D01*
X017311Y018509D01*
X017421Y018509D01*
X017421Y018436D02*
X017421Y018583D01*
X017384Y018619D01*
X017421Y018436D02*
X017384Y018399D01*
X017311Y018399D01*
X017274Y018436D01*
X017200Y018399D02*
X017127Y018473D01*
X017164Y018473D02*
X017053Y018473D01*
X017053Y018399D02*
X017053Y018619D01*
X017164Y018619D01*
X017200Y018583D01*
X017200Y018509D01*
X017164Y018473D01*
X016922Y018514D02*
X016922Y018734D01*
X016812Y018624D01*
X016959Y018624D01*
X016738Y018624D02*
X016591Y018624D01*
X016701Y018734D01*
X016701Y018514D01*
X016517Y018551D02*
X016480Y018514D01*
X016407Y018514D01*
X016370Y018551D01*
X016370Y018698D01*
X016407Y018734D01*
X016480Y018734D01*
X016517Y018698D01*
X016084Y018573D02*
X016084Y018536D01*
X016047Y018499D01*
X016084Y018463D01*
X016084Y018426D01*
X016047Y018389D01*
X015974Y018389D01*
X015937Y018426D01*
X016011Y018499D02*
X016047Y018499D01*
X016084Y018573D02*
X016047Y018609D01*
X015974Y018609D01*
X015937Y018573D01*
X015863Y018499D02*
X015716Y018499D01*
X015826Y018609D01*
X015826Y018389D01*
X015642Y018426D02*
X015605Y018389D01*
X015532Y018389D01*
X015495Y018426D01*
X015495Y018573D01*
X015532Y018609D01*
X015605Y018609D01*
X015642Y018573D01*
X015334Y018551D02*
X015334Y018698D01*
X015187Y018551D01*
X015224Y018514D01*
X015297Y018514D01*
X015334Y018551D01*
X015187Y018551D02*
X015187Y018698D01*
X015224Y018734D01*
X015297Y018734D01*
X015334Y018698D01*
X015113Y018624D02*
X014966Y018624D01*
X015076Y018734D01*
X015076Y018514D01*
X014892Y018551D02*
X014855Y018514D01*
X014782Y018514D01*
X014745Y018551D01*
X014745Y018698D01*
X014782Y018734D01*
X014855Y018734D01*
X014892Y018698D01*
X015495Y018926D02*
X015532Y018889D01*
X015605Y018889D01*
X015642Y018926D01*
X015716Y018999D02*
X015826Y019109D01*
X015826Y018889D01*
X015937Y018889D02*
X016084Y019036D01*
X016084Y019073D01*
X016047Y019109D01*
X015974Y019109D01*
X015937Y019073D01*
X015863Y018999D02*
X015716Y018999D01*
X015642Y019073D02*
X015605Y019109D01*
X015532Y019109D01*
X015495Y019073D01*
X015495Y018926D01*
X015937Y018889D02*
X016084Y018889D01*
X015314Y019764D02*
X015350Y019801D01*
X015350Y019874D01*
X015314Y019911D01*
X015240Y019985D02*
X015240Y020132D01*
X015204Y020206D02*
X015130Y020280D01*
X015350Y020280D01*
X015350Y020353D02*
X015350Y020206D01*
X015350Y020095D02*
X015130Y020095D01*
X015240Y019985D01*
X015167Y019911D02*
X015130Y019874D01*
X015130Y019801D01*
X015167Y019764D01*
X015314Y019764D01*
X014884Y021149D02*
X014811Y021149D01*
X014774Y021186D01*
X014774Y021223D01*
X014811Y021259D01*
X014884Y021259D01*
X014921Y021223D01*
X014921Y021186D01*
X014884Y021149D01*
X014884Y021259D02*
X014921Y021296D01*
X014921Y021333D01*
X014884Y021369D01*
X014811Y021369D01*
X014774Y021333D01*
X014774Y021296D01*
X014811Y021259D01*
X014700Y021259D02*
X014664Y021223D01*
X014553Y021223D01*
X014553Y021149D02*
X014553Y021369D01*
X014664Y021369D01*
X014700Y021333D01*
X014700Y021259D01*
X014627Y021223D02*
X014700Y021149D01*
X014084Y021323D02*
X013937Y021176D01*
X013937Y021139D01*
X013863Y021176D02*
X013826Y021139D01*
X013753Y021139D01*
X013716Y021176D01*
X013642Y021176D02*
X013605Y021139D01*
X013532Y021139D01*
X013495Y021176D01*
X013495Y021323D01*
X013532Y021359D01*
X013605Y021359D01*
X013642Y021323D01*
X013716Y021323D02*
X013753Y021359D01*
X013826Y021359D01*
X013863Y021323D01*
X013863Y021286D01*
X013826Y021249D01*
X013863Y021213D01*
X013863Y021176D01*
X013826Y021249D02*
X013790Y021249D01*
X013937Y021359D02*
X014084Y021359D01*
X014084Y021323D01*
X014257Y022299D02*
X014257Y022519D01*
X014404Y022519D01*
X014478Y022519D02*
X014589Y022519D01*
X014625Y022483D01*
X014625Y022446D01*
X014589Y022409D01*
X014478Y022409D01*
X014478Y022299D02*
X014589Y022299D01*
X014625Y022336D01*
X014625Y022373D01*
X014589Y022409D01*
X014699Y022446D02*
X014773Y022519D01*
X014773Y022299D01*
X014846Y022299D02*
X014699Y022299D01*
X014478Y022299D02*
X014478Y022519D01*
X014331Y022409D02*
X014257Y022409D01*
X013584Y022948D02*
X013437Y022801D01*
X013437Y022764D01*
X013363Y022764D02*
X013216Y022764D01*
X013290Y022764D02*
X013290Y022984D01*
X013216Y022911D01*
X013142Y022948D02*
X013105Y022984D01*
X013032Y022984D01*
X012995Y022948D01*
X012995Y022801D01*
X013032Y022764D01*
X013105Y022764D01*
X013142Y022801D01*
X013437Y022984D02*
X013584Y022984D01*
X013584Y022948D01*
X012667Y021132D02*
X012814Y020985D01*
X012850Y020985D01*
X012850Y020911D02*
X012777Y020838D01*
X012777Y020874D02*
X012777Y020764D01*
X012850Y020764D02*
X012630Y020764D01*
X012630Y020874D01*
X012667Y020911D01*
X012740Y020911D01*
X012777Y020874D01*
X012630Y020985D02*
X012630Y021132D01*
X012667Y021132D01*
X012539Y020494D02*
X012465Y020494D01*
X012428Y020458D01*
X012354Y020458D02*
X012318Y020494D01*
X012244Y020494D01*
X012207Y020458D01*
X012207Y020311D01*
X012244Y020274D01*
X012318Y020274D01*
X012354Y020311D01*
X012428Y020311D02*
X012465Y020274D01*
X012539Y020274D01*
X012575Y020311D01*
X012575Y020348D01*
X012539Y020384D01*
X012502Y020384D01*
X012539Y020384D02*
X012575Y020421D01*
X012575Y020458D01*
X012539Y020494D01*
X012649Y020384D02*
X012759Y020384D01*
X012796Y020348D01*
X012796Y020311D01*
X012759Y020274D01*
X012686Y020274D01*
X012649Y020311D01*
X012649Y020384D01*
X012723Y020458D01*
X012796Y020494D01*
X012804Y019940D02*
X012840Y019903D01*
X012840Y019830D01*
X012804Y019793D01*
X012730Y019793D02*
X012694Y019867D01*
X012694Y019903D01*
X012730Y019940D01*
X012804Y019940D01*
X012730Y019793D02*
X012620Y019793D01*
X012620Y019940D01*
X012657Y019719D02*
X012694Y019719D01*
X012730Y019682D01*
X012767Y019719D01*
X012804Y019719D01*
X012840Y019682D01*
X012840Y019609D01*
X012804Y019572D01*
X012804Y019498D02*
X012840Y019461D01*
X012840Y019388D01*
X012804Y019351D01*
X012657Y019351D01*
X012620Y019388D01*
X012620Y019461D01*
X012657Y019498D01*
X012657Y019572D02*
X012620Y019609D01*
X012620Y019682D01*
X012657Y019719D01*
X012730Y019682D02*
X012730Y019646D01*
X012882Y019290D02*
X013029Y019143D01*
X013065Y019180D01*
X013065Y019253D01*
X013029Y019290D01*
X012882Y019290D01*
X012845Y019253D01*
X012845Y019180D01*
X012882Y019143D01*
X013029Y019143D01*
X013065Y019069D02*
X013065Y018922D01*
X013065Y018996D02*
X012845Y018996D01*
X012919Y018922D01*
X013065Y018848D02*
X013065Y018701D01*
X012845Y018701D01*
X012911Y018394D02*
X012874Y018358D01*
X012874Y018321D01*
X012911Y018284D01*
X013021Y018284D01*
X013021Y018211D02*
X013021Y018358D01*
X012984Y018394D01*
X012911Y018394D01*
X012874Y018211D02*
X012911Y018174D01*
X012984Y018174D01*
X013021Y018211D01*
X012800Y018174D02*
X012653Y018174D01*
X012653Y018394D01*
X012634Y017369D02*
X012671Y017333D01*
X012671Y017296D01*
X012634Y017259D01*
X012671Y017223D01*
X012671Y017186D01*
X012634Y017149D01*
X012561Y017149D01*
X012524Y017186D01*
X012450Y017186D02*
X012414Y017149D01*
X012340Y017149D01*
X012303Y017186D01*
X012303Y017333D01*
X012340Y017369D01*
X012414Y017369D01*
X012450Y017333D01*
X012524Y017333D02*
X012561Y017369D01*
X012634Y017369D01*
X012634Y017259D02*
X012598Y017259D01*
X012832Y017186D02*
X012869Y017149D01*
X012943Y017149D01*
X012979Y017186D01*
X013053Y017186D02*
X013090Y017149D01*
X013164Y017149D01*
X013200Y017186D01*
X013200Y017223D01*
X013164Y017259D01*
X013127Y017259D01*
X013164Y017259D02*
X013200Y017296D01*
X013200Y017333D01*
X013164Y017369D01*
X013090Y017369D01*
X013053Y017333D01*
X012979Y017333D02*
X012943Y017369D01*
X012869Y017369D01*
X012832Y017333D01*
X012832Y017186D01*
X013274Y017186D02*
X013274Y017223D01*
X013311Y017259D01*
X013384Y017259D01*
X013421Y017223D01*
X013421Y017186D01*
X013384Y017149D01*
X013311Y017149D01*
X013274Y017186D01*
X013311Y017259D02*
X013274Y017296D01*
X013274Y017333D01*
X013311Y017369D01*
X013384Y017369D01*
X013421Y017333D01*
X013421Y017296D01*
X013384Y017259D01*
X013582Y017186D02*
X013619Y017149D01*
X013693Y017149D01*
X013729Y017186D01*
X013803Y017186D02*
X013840Y017149D01*
X013914Y017149D01*
X013950Y017186D01*
X013950Y017223D01*
X013914Y017259D01*
X013877Y017259D01*
X013914Y017259D02*
X013950Y017296D01*
X013950Y017333D01*
X013914Y017369D01*
X013840Y017369D01*
X013803Y017333D01*
X013729Y017333D02*
X013693Y017369D01*
X013619Y017369D01*
X013582Y017333D01*
X013582Y017186D01*
X014024Y017186D02*
X014061Y017149D01*
X014134Y017149D01*
X014171Y017186D01*
X014171Y017333D01*
X014134Y017369D01*
X014061Y017369D01*
X014024Y017333D01*
X014024Y017296D01*
X014061Y017259D01*
X014171Y017259D01*
X014122Y014834D02*
X014049Y014834D01*
X014012Y014798D01*
X013938Y014798D02*
X013938Y014761D01*
X013901Y014724D01*
X013791Y014724D01*
X013791Y014614D02*
X013791Y014834D01*
X013901Y014834D01*
X013938Y014798D01*
X013901Y014724D02*
X013938Y014688D01*
X013938Y014651D01*
X013901Y014614D01*
X013791Y014614D01*
X013644Y014724D02*
X013570Y014724D01*
X013570Y014614D02*
X013570Y014834D01*
X013717Y014834D01*
X014012Y014614D02*
X014159Y014761D01*
X014159Y014798D01*
X014122Y014834D01*
X014159Y014614D02*
X014012Y014614D01*
X012171Y014686D02*
X012134Y014649D01*
X012061Y014649D01*
X012024Y014686D01*
X012024Y014759D02*
X012098Y014796D01*
X012134Y014796D01*
X012171Y014759D01*
X012171Y014686D01*
X012024Y014759D02*
X012024Y014869D01*
X012171Y014869D01*
X011950Y014833D02*
X011914Y014869D01*
X011840Y014869D01*
X011803Y014833D01*
X011803Y014686D01*
X011840Y014649D01*
X011914Y014649D01*
X011950Y014686D01*
X011814Y016264D02*
X011667Y016264D01*
X011630Y016301D01*
X011630Y016374D01*
X011667Y016411D01*
X011740Y016485D02*
X011740Y016595D01*
X011777Y016632D01*
X011814Y016632D01*
X011850Y016595D01*
X011850Y016522D01*
X011814Y016485D01*
X011740Y016485D01*
X011667Y016559D01*
X011630Y016632D01*
X011814Y016411D02*
X011850Y016374D01*
X011850Y016301D01*
X011814Y016264D01*
X011134Y017149D02*
X011134Y017369D01*
X011024Y017259D01*
X011171Y017259D01*
X010950Y017186D02*
X010914Y017149D01*
X010840Y017149D01*
X010803Y017186D01*
X010803Y017333D01*
X010840Y017369D01*
X010914Y017369D01*
X010950Y017333D01*
X009896Y016558D02*
X009859Y016594D01*
X009786Y016594D01*
X009749Y016558D01*
X009896Y016558D02*
X009896Y016521D01*
X009749Y016374D01*
X009896Y016374D01*
X009675Y016374D02*
X009528Y016374D01*
X009454Y016374D02*
X009381Y016448D01*
X009418Y016448D02*
X009307Y016448D01*
X009307Y016374D02*
X009307Y016594D01*
X009418Y016594D01*
X009454Y016558D01*
X009454Y016484D01*
X009418Y016448D01*
X009528Y016521D02*
X009602Y016594D01*
X009602Y016374D01*
X009612Y017445D02*
X009612Y017665D01*
X009539Y017592D01*
X009465Y017665D02*
X009465Y017482D01*
X009428Y017445D01*
X009355Y017445D01*
X009318Y017482D01*
X009318Y017665D01*
X009539Y017445D02*
X009686Y017445D01*
X008684Y018974D02*
X008721Y019011D01*
X008721Y019048D01*
X008684Y019084D01*
X008574Y019084D01*
X008574Y019011D01*
X008611Y018974D01*
X008684Y018974D01*
X008574Y019084D02*
X008648Y019158D01*
X008721Y019194D01*
X008427Y019194D02*
X008427Y018974D01*
X008500Y018974D02*
X008353Y018974D01*
X008279Y019011D02*
X008243Y018974D01*
X008169Y018974D01*
X008132Y019011D01*
X008132Y019158D01*
X008169Y019194D01*
X008243Y019194D01*
X008279Y019158D01*
X008353Y019121D02*
X008427Y019194D01*
X009370Y020264D02*
X009370Y020484D01*
X009480Y020484D01*
X009517Y020448D01*
X009517Y020374D01*
X009480Y020338D01*
X009370Y020338D01*
X009444Y020338D02*
X009517Y020264D01*
X009591Y020264D02*
X009738Y020264D01*
X009665Y020264D02*
X009665Y020484D01*
X009591Y020411D01*
X009366Y021322D02*
X009219Y021322D01*
X009183Y021359D01*
X009183Y021432D01*
X009219Y021469D01*
X009219Y021543D02*
X009183Y021580D01*
X009183Y021653D01*
X009219Y021690D01*
X009256Y021690D01*
X009403Y021543D01*
X009403Y021690D01*
X009366Y021469D02*
X009403Y021432D01*
X009403Y021359D01*
X009366Y021322D01*
X008988Y021323D02*
X008951Y021359D01*
X008878Y021359D01*
X008841Y021323D01*
X008767Y021323D02*
X008767Y021249D01*
X008730Y021213D01*
X008620Y021213D01*
X008620Y021139D02*
X008620Y021359D01*
X008730Y021359D01*
X008767Y021323D01*
X008694Y021213D02*
X008767Y021139D01*
X008841Y021139D02*
X008988Y021286D01*
X008988Y021323D01*
X008988Y021139D02*
X008841Y021139D01*
X010011Y022432D02*
X009975Y022469D01*
X009975Y022615D01*
X010011Y022652D01*
X010085Y022652D01*
X010121Y022615D01*
X010121Y022469D01*
X010085Y022432D01*
X010011Y022432D01*
X010048Y022505D02*
X010121Y022432D01*
X010196Y022432D02*
X010342Y022432D01*
X010269Y022432D02*
X010269Y022652D01*
X010196Y022579D01*
X011443Y021809D02*
X011663Y021809D01*
X011663Y021882D02*
X011663Y021735D01*
X011626Y021661D02*
X011663Y021624D01*
X011663Y021551D01*
X011626Y021514D01*
X011479Y021514D01*
X011443Y021551D01*
X011443Y021624D01*
X011479Y021661D01*
X011516Y021735D02*
X011443Y021809D01*
X007340Y019940D02*
X007340Y019793D01*
X007340Y019867D02*
X007120Y019867D01*
X007194Y019793D01*
X007340Y019719D02*
X007340Y019572D01*
X007340Y019646D02*
X007120Y019646D01*
X007194Y019572D01*
X007230Y019498D02*
X007267Y019461D01*
X007267Y019351D01*
X007340Y019351D02*
X007120Y019351D01*
X007120Y019461D01*
X007157Y019498D01*
X007230Y019498D01*
X007267Y019425D02*
X007340Y019498D01*
X005459Y011984D02*
X005312Y011984D01*
X005201Y011984D02*
X005091Y011874D01*
X005238Y011874D01*
X005312Y011801D02*
X005312Y011764D01*
X005312Y011801D02*
X005459Y011948D01*
X005459Y011984D01*
X005201Y011984D02*
X005201Y011764D01*
X005017Y011801D02*
X004980Y011764D01*
X004907Y011764D01*
X004870Y011801D01*
X004870Y011948D01*
X004907Y011984D01*
X004980Y011984D01*
X005017Y011948D01*
X007505Y009353D02*
X007542Y009280D01*
X007615Y009206D01*
X007615Y009316D01*
X007652Y009353D01*
X007689Y009353D01*
X007725Y009316D01*
X007725Y009243D01*
X007689Y009206D01*
X007615Y009206D01*
X007615Y009132D02*
X007615Y008985D01*
X007505Y009095D01*
X007725Y009095D01*
X007689Y008911D02*
X007725Y008874D01*
X007725Y008801D01*
X007689Y008764D01*
X007542Y008764D01*
X007505Y008801D01*
X007505Y008874D01*
X007542Y008911D01*
X006363Y008129D02*
X006363Y008093D01*
X006216Y007946D01*
X006216Y007909D01*
X006142Y007946D02*
X006142Y008129D01*
X006216Y008129D02*
X006363Y008129D01*
X006142Y007946D02*
X006105Y007909D01*
X006032Y007909D01*
X005995Y007946D01*
X005995Y008129D01*
X009120Y008851D02*
X009120Y008961D01*
X009157Y008998D01*
X009230Y008998D01*
X009267Y008961D01*
X009267Y008851D01*
X009340Y008851D02*
X009120Y008851D01*
X009267Y008925D02*
X009340Y008998D01*
X009340Y009072D02*
X009340Y009219D01*
X009340Y009146D02*
X009120Y009146D01*
X009194Y009072D01*
X009194Y009293D02*
X009157Y009293D01*
X009120Y009330D01*
X009120Y009403D01*
X009157Y009440D01*
X009194Y009440D01*
X009230Y009403D01*
X009230Y009330D01*
X009194Y009293D01*
X009230Y009330D02*
X009267Y009293D01*
X009304Y009293D01*
X009340Y009330D01*
X009340Y009403D01*
X009304Y009440D01*
X009267Y009440D01*
X009230Y009403D01*
X013277Y006716D02*
X013313Y006753D01*
X013350Y006753D01*
X013387Y006716D01*
X013423Y006753D01*
X013460Y006753D01*
X013497Y006716D01*
X013497Y006643D01*
X013460Y006606D01*
X013497Y006532D02*
X013497Y006385D01*
X013497Y006458D02*
X013277Y006458D01*
X013350Y006385D01*
X013313Y006311D02*
X013387Y006311D01*
X013423Y006274D01*
X013423Y006164D01*
X013423Y006237D02*
X013497Y006311D01*
X013497Y006164D02*
X013277Y006164D01*
X013277Y006274D01*
X013313Y006311D01*
X013313Y006606D02*
X013277Y006643D01*
X013277Y006716D01*
X013387Y006716D02*
X013387Y006679D01*
X014703Y007724D02*
X014740Y007687D01*
X014814Y007687D01*
X014850Y007724D01*
X014850Y007870D01*
X014814Y007907D01*
X014740Y007907D01*
X014703Y007870D01*
X014703Y007724D01*
X014777Y007760D02*
X014850Y007687D01*
X014924Y007797D02*
X015071Y007797D01*
X015034Y007687D02*
X015034Y007907D01*
X014924Y007797D01*
X016968Y006979D02*
X017078Y006869D01*
X017078Y007016D01*
X017188Y006979D02*
X016968Y006979D01*
X016968Y006721D02*
X017188Y006721D01*
X017188Y006648D02*
X017188Y006795D01*
X017041Y006648D02*
X016968Y006721D01*
X017004Y006574D02*
X017078Y006574D01*
X017114Y006537D01*
X017114Y006427D01*
X017114Y006500D02*
X017188Y006574D01*
X017188Y006427D02*
X016968Y006427D01*
X016968Y006537D01*
X017004Y006574D01*
X017494Y009524D02*
X017568Y009524D01*
X017604Y009561D01*
X017678Y009634D02*
X017825Y009634D01*
X017899Y009598D02*
X017936Y009634D01*
X018009Y009634D01*
X018046Y009598D01*
X018046Y009561D01*
X018009Y009524D01*
X017936Y009524D01*
X017899Y009561D01*
X017899Y009598D01*
X017936Y009634D02*
X017899Y009671D01*
X017899Y009708D01*
X017936Y009744D01*
X018009Y009744D01*
X018046Y009708D01*
X018046Y009671D01*
X018009Y009634D01*
X017789Y009524D02*
X017789Y009744D01*
X017678Y009634D01*
X017604Y009708D02*
X017568Y009744D01*
X017494Y009744D01*
X017457Y009708D01*
X017457Y009561D01*
X017494Y009524D01*
X017036Y012498D02*
X017036Y012718D01*
X016926Y012608D01*
X017073Y012608D01*
X016852Y012534D02*
X016852Y012718D01*
X016705Y012718D02*
X016705Y012534D01*
X016742Y012498D01*
X016815Y012498D01*
X016852Y012534D01*
X017494Y013774D02*
X017568Y013774D01*
X017604Y013811D01*
X017678Y013884D02*
X017825Y013884D01*
X017899Y013921D02*
X017936Y013884D01*
X018046Y013884D01*
X018046Y013811D02*
X018046Y013958D01*
X018009Y013994D01*
X017936Y013994D01*
X017899Y013958D01*
X017899Y013921D01*
X017899Y013811D02*
X017936Y013774D01*
X018009Y013774D01*
X018046Y013811D01*
X017789Y013774D02*
X017789Y013994D01*
X017678Y013884D01*
X017604Y013958D02*
X017568Y013994D01*
X017494Y013994D01*
X017457Y013958D01*
X017457Y013811D01*
X017494Y013774D01*
X017617Y016748D02*
X017690Y016748D01*
X017727Y016784D01*
X017727Y016968D01*
X017801Y016968D02*
X017801Y016858D01*
X017874Y016895D01*
X017911Y016895D01*
X017948Y016858D01*
X017948Y016784D01*
X017911Y016748D01*
X017838Y016748D01*
X017801Y016784D01*
X017801Y016968D02*
X017948Y016968D01*
X017580Y016968D02*
X017580Y016784D01*
X017617Y016748D01*
X019620Y014234D02*
X019730Y014234D01*
X019767Y014198D01*
X019767Y014124D01*
X019730Y014088D01*
X019620Y014088D01*
X019620Y014014D02*
X019620Y014234D01*
X019694Y014088D02*
X019767Y014014D01*
X019841Y014014D02*
X019988Y014014D01*
X019915Y014014D02*
X019915Y014234D01*
X019841Y014161D01*
X020062Y014124D02*
X020172Y014124D01*
X020209Y014088D01*
X020209Y014051D01*
X020172Y014014D01*
X020099Y014014D01*
X020062Y014051D01*
X020062Y014124D01*
X020136Y014198D01*
X020209Y014234D01*
X020209Y013234D02*
X020062Y013234D01*
X020062Y013124D01*
X020136Y013161D01*
X020172Y013161D01*
X020209Y013124D01*
X020209Y013051D01*
X020172Y013014D01*
X020099Y013014D01*
X020062Y013051D01*
X019988Y013014D02*
X019841Y013014D01*
X019915Y013014D02*
X019915Y013234D01*
X019841Y013161D01*
X019767Y013124D02*
X019730Y013088D01*
X019620Y013088D01*
X019620Y013014D02*
X019620Y013234D01*
X019730Y013234D01*
X019767Y013198D01*
X019767Y013124D01*
X019694Y013088D02*
X019767Y013014D01*
D18*
X019725Y012843D02*
X020036Y012843D01*
X020036Y012666D02*
X019725Y012666D01*
X019725Y013666D02*
X020036Y013666D01*
X020036Y013843D02*
X019725Y013843D01*
X020610Y014004D02*
X020610Y013504D01*
X020860Y013254D01*
X020610Y013004D01*
X020610Y012504D01*
X020860Y012254D01*
X020610Y012004D01*
X020610Y011504D01*
X020860Y011254D01*
X020610Y011004D01*
X020610Y010504D01*
X020860Y010254D01*
X021360Y010254D01*
X021610Y010504D01*
X021610Y011004D01*
X021360Y011254D01*
X021610Y011504D01*
X021610Y012004D01*
X021360Y012254D01*
X021610Y012504D01*
X021610Y013004D01*
X021360Y013254D01*
X021610Y013504D01*
X021610Y014004D01*
X021360Y014254D01*
X021610Y014504D01*
X021610Y015004D01*
X021360Y015254D01*
X021610Y015504D01*
X021610Y016004D01*
X021360Y016254D01*
X021610Y016504D01*
X021610Y017004D01*
X021360Y017254D01*
X021610Y017504D01*
X021610Y018004D01*
X021360Y018254D01*
X020860Y018254D01*
X020610Y018004D01*
X020610Y017504D01*
X020860Y017254D01*
X020610Y017004D01*
X020610Y016504D01*
X020860Y016254D01*
X020610Y016004D01*
X020610Y015504D01*
X020860Y015254D01*
X020610Y015004D01*
X020610Y014504D01*
X020860Y014254D01*
X020610Y014004D01*
X017957Y014166D02*
X017764Y014166D01*
X017764Y014343D02*
X017957Y014343D01*
X016699Y017783D02*
X016699Y017976D01*
X016522Y017976D02*
X016522Y017783D01*
X017060Y018041D02*
X017371Y018041D01*
X017371Y018218D02*
X017060Y018218D01*
X017060Y019291D02*
X017371Y019291D01*
X017371Y019468D02*
X017060Y019468D01*
X016699Y019533D02*
X016699Y019726D01*
X016522Y019726D02*
X016522Y019533D01*
X015832Y019468D02*
X015639Y019468D01*
X015639Y019291D02*
X015832Y019291D01*
X015832Y018218D02*
X015639Y018218D01*
X015639Y018041D02*
X015832Y018041D01*
X014949Y017976D02*
X014949Y017783D01*
X014772Y017783D02*
X014772Y017976D01*
X014772Y019533D02*
X014772Y019726D01*
X014949Y019726D02*
X014949Y019533D01*
X014824Y020619D02*
X014824Y020930D01*
X014647Y020930D02*
X014647Y020619D01*
X013911Y020791D02*
X013600Y020791D01*
X013600Y020968D02*
X013911Y020968D01*
X013582Y020468D02*
X013389Y020468D01*
X013389Y020291D02*
X013582Y020291D01*
X013639Y019843D02*
X013832Y019843D01*
X013832Y019666D02*
X013639Y019666D01*
X013199Y020869D02*
X013199Y021180D01*
X013022Y021180D02*
X013022Y020869D01*
X012011Y021619D02*
X012011Y021930D01*
X011835Y021930D02*
X011835Y021619D01*
X009761Y021515D02*
X009761Y021204D01*
X009585Y021204D02*
X009585Y021515D01*
X009036Y020968D02*
X008725Y020968D01*
X008725Y020791D02*
X009036Y020791D01*
X009036Y020468D02*
X008725Y020468D01*
X008725Y020291D02*
X009036Y020291D01*
X008532Y019518D02*
X008339Y019518D01*
X008339Y019341D02*
X008532Y019341D01*
X007699Y019454D02*
X007699Y019765D01*
X007522Y019765D02*
X007522Y019454D01*
X009660Y016943D02*
X009971Y016943D01*
X009971Y016766D02*
X009660Y016766D01*
X012022Y016601D02*
X012022Y016408D01*
X012199Y016408D02*
X012199Y016601D01*
X012522Y016601D02*
X012522Y016408D01*
X012699Y016408D02*
X012699Y016601D01*
X013022Y016601D02*
X013022Y016408D01*
X013199Y016408D02*
X013199Y016601D01*
X013360Y011204D02*
X012860Y011204D01*
X012610Y010954D01*
X012360Y011204D01*
X011860Y011204D01*
X011610Y010954D01*
X011360Y011204D01*
X010860Y011204D01*
X010610Y010954D01*
X010610Y009454D01*
X010860Y009204D01*
X011360Y009204D01*
X011610Y009454D01*
X011860Y009204D01*
X012360Y009204D01*
X012610Y009454D01*
X012860Y009204D01*
X013360Y009204D01*
X013610Y009454D01*
X013610Y010954D01*
X013360Y011204D01*
X013610Y006703D02*
X013610Y006392D01*
X013786Y006392D02*
X013786Y006703D01*
X016610Y006656D02*
X016610Y006967D01*
X016786Y006967D02*
X016786Y006656D01*
X017764Y009916D02*
X017957Y009916D01*
X017957Y010093D02*
X017764Y010093D01*
X020860Y018854D02*
X020610Y019104D01*
X020610Y019604D01*
X020860Y019854D01*
X020610Y020104D01*
X020610Y020604D01*
X020860Y020854D01*
X020610Y021104D01*
X020610Y021604D01*
X020860Y021854D01*
X020610Y022104D01*
X020610Y022604D01*
X020860Y022854D01*
X020610Y023104D01*
X020610Y023604D01*
X020860Y023854D01*
X020610Y024104D01*
X020610Y024604D01*
X020860Y024854D01*
X020610Y025104D01*
X020610Y025604D01*
X020860Y025854D01*
X020610Y026104D01*
X020610Y026604D01*
X020860Y026854D01*
X020610Y027104D01*
X020610Y027604D01*
X020860Y027854D01*
X020610Y028104D01*
X020610Y028604D01*
X020860Y028854D01*
X021360Y028854D01*
X021610Y028604D01*
X021610Y028104D01*
X021360Y027854D01*
X021610Y027604D01*
X021610Y027104D01*
X021360Y026854D01*
X021610Y026604D01*
X021610Y026104D01*
X021360Y025854D01*
X021610Y025604D01*
X021610Y025104D01*
X021360Y024854D01*
X021610Y024604D01*
X021610Y024104D01*
X021360Y023854D01*
X021610Y023604D01*
X021610Y023104D01*
X021360Y022854D01*
X021610Y022604D01*
X021610Y022104D01*
X021360Y021854D01*
X021610Y021604D01*
X021610Y021104D01*
X021360Y020854D01*
X021610Y020604D01*
X021610Y020104D01*
X021360Y019854D01*
X021610Y019604D01*
X021610Y019104D01*
X021360Y018854D01*
X020860Y018854D01*
X019286Y021291D02*
X018975Y021291D01*
X018975Y021468D02*
X019286Y021468D01*
X018074Y024158D02*
X018074Y024351D01*
X017897Y024351D02*
X017897Y024158D01*
X019475Y026041D02*
X019786Y026041D01*
X019786Y026218D02*
X019475Y026218D01*
X019475Y026916D02*
X019786Y026916D01*
X019786Y027093D02*
X019475Y027093D01*
X019475Y027416D02*
X019786Y027416D01*
X019786Y027593D02*
X019475Y027593D01*
X019435Y027916D02*
X019746Y027916D01*
X019746Y028093D02*
X019435Y028093D01*
X014386Y029166D02*
X014075Y029166D01*
X014075Y029343D02*
X014386Y029343D01*
X014386Y029566D02*
X014075Y029566D01*
X014075Y029743D02*
X014386Y029743D01*
X013546Y029743D02*
X013235Y029743D01*
X013235Y029566D02*
X013546Y029566D01*
X013586Y029343D02*
X013275Y029343D01*
X013275Y029166D02*
X013586Y029166D01*
X012786Y028443D02*
X012475Y028443D01*
X012475Y028266D02*
X012786Y028266D01*
X012786Y027943D02*
X012475Y027943D01*
X012475Y027766D02*
X012786Y027766D01*
X012675Y027443D02*
X012986Y027443D01*
X012986Y027266D02*
X012675Y027266D01*
X011586Y026293D02*
X011275Y026293D01*
X011275Y026116D02*
X011586Y026116D01*
X010799Y026129D02*
X010799Y026440D01*
X010622Y026440D02*
X010622Y026129D01*
X009649Y025979D02*
X009649Y026290D01*
X009472Y026290D02*
X009472Y025979D01*
X009386Y025643D02*
X009075Y025643D01*
X009075Y025466D02*
X009386Y025466D01*
X008346Y025043D02*
X008035Y025043D01*
X008035Y024866D02*
X008346Y024866D01*
X007399Y025979D02*
X007399Y026290D01*
X007222Y026290D02*
X007222Y025979D01*
X007685Y027166D02*
X007996Y027166D01*
X007996Y027343D02*
X007685Y027343D01*
X008310Y027516D02*
X008621Y027516D01*
X008621Y027693D02*
X008310Y027693D01*
X008435Y028066D02*
X008746Y028066D01*
X008746Y028243D02*
X008435Y028243D01*
X008535Y028566D02*
X008846Y028566D01*
X008846Y028743D02*
X008535Y028743D01*
X008635Y029166D02*
X008946Y029166D01*
X008946Y029343D02*
X008635Y029343D01*
X009422Y029429D02*
X009422Y029740D01*
X009599Y029740D02*
X009599Y029429D01*
X009772Y029969D02*
X009772Y030280D01*
X009949Y030280D02*
X009949Y029969D01*
X010172Y029969D02*
X010172Y030280D01*
X010349Y030280D02*
X010349Y029969D01*
X010572Y030219D02*
X010572Y030530D01*
X010749Y030530D02*
X010749Y030219D01*
X010922Y030219D02*
X010922Y030530D01*
X011099Y030530D02*
X011099Y030219D01*
X011272Y030219D02*
X011272Y030530D01*
X011449Y030530D02*
X011449Y030219D01*
X011622Y030219D02*
X011622Y030530D01*
X011799Y030530D02*
X011799Y030219D01*
X011586Y030864D02*
X011275Y030864D01*
X011275Y031040D02*
X011586Y031040D01*
X012375Y031043D02*
X012686Y031043D01*
X012686Y030866D02*
X012375Y030866D01*
X012622Y030530D02*
X012622Y030219D01*
X012799Y030219D02*
X012799Y030530D01*
X013062Y030530D02*
X013062Y030219D01*
X013238Y030219D02*
X013238Y030530D01*
X012799Y031519D02*
X012799Y031830D01*
X012622Y031830D02*
X012622Y031519D01*
X012775Y032166D02*
X013086Y032166D01*
X013086Y032343D02*
X012775Y032343D01*
X012246Y032343D02*
X011935Y032343D01*
X011935Y032166D02*
X012246Y032166D01*
X012246Y032666D02*
X011935Y032666D01*
X011935Y032843D02*
X012246Y032843D01*
X011086Y032343D02*
X010775Y032343D01*
X010775Y032166D02*
X011086Y032166D01*
X010985Y029893D02*
X011296Y029893D01*
X011296Y029716D02*
X010985Y029716D01*
X012275Y029343D02*
X012586Y029343D01*
X012586Y029166D02*
X012275Y029166D01*
X012375Y028943D02*
X012686Y028943D01*
X012686Y028766D02*
X012375Y028766D01*
X012375Y029666D02*
X012686Y029666D01*
X012686Y029843D02*
X012375Y029843D01*
X002610Y025004D02*
X002610Y024504D01*
X002360Y024254D01*
X002610Y024004D01*
X002610Y023504D01*
X002360Y023254D01*
X002610Y023004D01*
X002610Y022504D01*
X002360Y022254D01*
X002610Y022004D01*
X002610Y021504D01*
X002360Y021254D01*
X002610Y021004D01*
X002610Y020504D01*
X002360Y020254D01*
X002610Y020004D01*
X002610Y019504D01*
X002360Y019254D01*
X002610Y019004D01*
X002610Y018504D01*
X002360Y018254D01*
X002610Y018004D01*
X002610Y017504D01*
X002360Y017254D01*
X001860Y017254D01*
X001610Y017504D01*
X001610Y018004D01*
X001860Y018254D01*
X001610Y018504D01*
X001610Y019004D01*
X001860Y019254D01*
X001610Y019504D01*
X001610Y020004D01*
X001860Y020254D01*
X001610Y020504D01*
X001610Y021004D01*
X001860Y021254D01*
X001610Y021504D01*
X001610Y022004D01*
X001860Y022254D01*
X001610Y022504D01*
X001610Y023004D01*
X001860Y023254D01*
X001610Y023504D01*
X001610Y024004D01*
X001860Y024254D01*
X001610Y024504D01*
X001610Y025004D01*
X001860Y025254D01*
X002360Y025254D01*
X002610Y025004D01*
X002360Y016254D02*
X001860Y016254D01*
X001610Y016004D01*
X001610Y015504D01*
X001860Y015254D01*
X001610Y015004D01*
X001610Y014504D01*
X001860Y014254D01*
X001610Y014004D01*
X001610Y013504D01*
X001860Y013254D01*
X001610Y013004D01*
X001610Y012504D01*
X001860Y012254D01*
X001610Y012004D01*
X001610Y011504D01*
X001860Y011254D01*
X001610Y011004D01*
X001610Y010504D01*
X001860Y010254D01*
X002360Y010254D01*
X002610Y010504D01*
X002610Y011004D01*
X002360Y011254D01*
X002610Y011504D01*
X002610Y012004D01*
X002360Y012254D01*
X002610Y012504D01*
X002610Y013004D01*
X002360Y013254D01*
X002610Y013504D01*
X002610Y014004D01*
X002360Y014254D01*
X002610Y014504D01*
X002610Y015004D01*
X002360Y015254D01*
X002610Y015504D01*
X002610Y016004D01*
X002360Y016254D01*
X002360Y009254D02*
X001860Y009254D01*
X001610Y009004D01*
X001610Y008504D01*
X001860Y008254D01*
X001610Y008004D01*
X001610Y007504D01*
X001860Y007254D01*
X001610Y007004D01*
X001610Y006504D01*
X001860Y006254D01*
X001610Y006004D01*
X001610Y005504D01*
X001860Y005254D01*
X001610Y005004D01*
X001610Y004504D01*
X001860Y004254D01*
X001610Y004004D01*
X001610Y003504D01*
X001860Y003254D01*
X002360Y003254D01*
X002610Y003504D01*
X002610Y004004D01*
X002360Y004254D01*
X002610Y004504D01*
X002610Y005004D01*
X002360Y005254D01*
X002610Y005504D01*
X002610Y006004D01*
X002360Y006254D01*
X002610Y006504D01*
X002610Y007004D01*
X002360Y007254D01*
X002610Y007504D01*
X002610Y008004D01*
X002360Y008254D01*
X002610Y008504D01*
X002610Y009004D01*
X002360Y009254D01*
X008772Y009390D02*
X008772Y009079D01*
X008949Y009079D02*
X008949Y009390D01*
D19*
X009684Y016856D03*
X009985Y016856D03*
X008596Y019427D03*
X008276Y019427D03*
X008711Y020377D03*
X009011Y020377D03*
X009011Y020877D03*
X008711Y020877D03*
X008360Y024956D03*
X008059Y024956D03*
X009061Y025552D03*
X009361Y025552D03*
X008635Y027606D03*
X008334Y027606D03*
X008010Y027256D03*
X007709Y027256D03*
X008459Y028156D03*
X008760Y028156D03*
X008860Y028656D03*
X008559Y028656D03*
X008659Y029256D03*
X008960Y029256D03*
X010761Y032252D03*
X011061Y032252D03*
X011261Y030950D03*
X011561Y030950D03*
X012361Y030952D03*
X012661Y030952D03*
X012761Y032252D03*
X013061Y032252D03*
X012260Y032256D03*
X011959Y032256D03*
X011959Y032756D03*
X012260Y032756D03*
X011310Y029806D03*
X011009Y029806D03*
X012361Y029752D03*
X012661Y029752D03*
X012561Y029252D03*
X012261Y029252D03*
X012361Y028852D03*
X012661Y028852D03*
X012761Y028352D03*
X012461Y028352D03*
X012461Y027852D03*
X012661Y027352D03*
X012761Y027852D03*
X012961Y027352D03*
X013261Y029252D03*
X013561Y029252D03*
X013560Y029656D03*
X013259Y029656D03*
X014061Y029652D03*
X014061Y029252D03*
X014361Y029252D03*
X014361Y029652D03*
X011561Y026202D03*
X011261Y026202D03*
X013586Y020877D03*
X013886Y020877D03*
X013644Y020381D03*
X013574Y019756D03*
X013324Y020381D03*
X013894Y019756D03*
X015576Y019377D03*
X015896Y019377D03*
X015896Y018127D03*
X015576Y018127D03*
X017084Y018131D03*
X017385Y018131D03*
X017385Y019381D03*
X017084Y019381D03*
X018961Y021377D03*
X019261Y021377D03*
X019461Y026127D03*
X019761Y026127D03*
X019761Y027002D03*
X019461Y027002D03*
X019461Y027502D03*
X019761Y027502D03*
X019760Y028006D03*
X019459Y028006D03*
X018019Y014256D03*
X017699Y014256D03*
X019711Y013752D03*
X020011Y013752D03*
X020011Y012752D03*
X019711Y012752D03*
X018019Y010006D03*
X017699Y010006D03*
D20*
X016700Y006943D03*
X016700Y006643D03*
X013696Y006716D03*
X013696Y006416D03*
X008859Y009103D03*
X008859Y009404D03*
X012112Y016345D03*
X012112Y016665D03*
X012612Y016665D03*
X012612Y016345D03*
X013112Y016345D03*
X013112Y016665D03*
X014862Y017720D03*
X014862Y018040D03*
X014862Y019470D03*
X014862Y019790D03*
X014737Y020605D03*
X014737Y020905D03*
X013112Y020855D03*
X013112Y021155D03*
X011925Y021605D03*
X011925Y021905D03*
X009671Y021529D03*
X009671Y021228D03*
X007609Y019779D03*
X007609Y019478D03*
X007309Y026003D03*
X007309Y026304D03*
X009559Y026304D03*
X009559Y026003D03*
X010709Y026153D03*
X010709Y026454D03*
X009509Y029453D03*
X009509Y029754D03*
X009862Y029955D03*
X009862Y030255D03*
X010262Y030255D03*
X010262Y029955D03*
X010662Y030205D03*
X010662Y030505D03*
X011012Y030505D03*
X011012Y030205D03*
X011362Y030205D03*
X011362Y030505D03*
X011712Y030505D03*
X011712Y030205D03*
X012712Y030205D03*
X012712Y030505D03*
X013152Y030505D03*
X013152Y030205D03*
X012712Y031505D03*
X012712Y031805D03*
X017984Y024413D03*
X017984Y024093D03*
X016609Y019788D03*
X016609Y019468D03*
X016609Y018038D03*
X016609Y017718D03*
D21*
X011530Y022003D03*
X007786Y026774D03*
D22*
X008120Y032067D02*
X008159Y032067D01*
X008199Y032067D01*
X009222Y032067D01*
X009222Y032579D01*
X009222Y033130D02*
X009222Y033642D01*
X008199Y033642D01*
X008120Y033642D01*
X008120Y032835D01*
X008199Y032835D01*
X008199Y033642D01*
X008159Y033642D02*
X008159Y033130D01*
X008159Y033110D02*
X008159Y032067D01*
X008120Y032067D02*
X008120Y032815D01*
X008199Y032815D01*
X008199Y032067D01*
X003335Y024869D02*
X003335Y024569D01*
X003335Y024719D02*
X002885Y024719D01*
X003035Y024569D01*
X002360Y025484D02*
X001910Y025484D01*
X001910Y025709D01*
X001985Y025784D01*
X002135Y025784D01*
X002210Y025709D01*
X002210Y025484D01*
X002135Y025944D02*
X001910Y026169D01*
X002360Y026169D01*
X002135Y026244D02*
X002135Y025944D01*
X002960Y017619D02*
X003035Y017619D01*
X003110Y017544D01*
X003110Y017394D01*
X003035Y017319D01*
X002960Y017319D01*
X002885Y017394D01*
X002885Y017544D01*
X002960Y017619D01*
X003110Y017544D02*
X003185Y017619D01*
X003260Y017619D01*
X003335Y017544D01*
X003335Y017394D01*
X003260Y017319D01*
X003185Y017319D01*
X003110Y017394D01*
X003335Y015869D02*
X003335Y015569D01*
X003335Y015719D02*
X002885Y015719D01*
X003035Y015569D01*
X003010Y014040D02*
X002935Y014040D01*
X002860Y013965D01*
X002860Y013815D01*
X002935Y013740D01*
X002935Y013580D02*
X003085Y013580D01*
X003160Y013504D01*
X003160Y013279D01*
X003310Y013279D02*
X002860Y013279D01*
X002860Y013504D01*
X002935Y013580D01*
X003235Y013740D02*
X003310Y013815D01*
X003310Y013965D01*
X003235Y014040D01*
X003160Y014040D01*
X003085Y013965D01*
X003085Y013890D01*
X003085Y013965D02*
X003010Y014040D01*
X002885Y010619D02*
X002960Y010469D01*
X003110Y010319D01*
X003110Y010544D01*
X003185Y010619D01*
X003260Y010619D01*
X003335Y010544D01*
X003335Y010394D01*
X003260Y010319D01*
X003110Y010319D01*
X003335Y008869D02*
X003335Y008569D01*
X003335Y008719D02*
X002885Y008719D01*
X003035Y008569D01*
X004782Y008926D02*
X004860Y008768D01*
X004939Y008926D01*
X004782Y008926D01*
X004860Y008768D02*
X004860Y009280D01*
X004939Y009122D01*
X004782Y009122D01*
X004860Y009280D01*
X002985Y005244D02*
X003285Y004944D01*
X003360Y004944D01*
X003135Y004784D02*
X003210Y004709D01*
X003210Y004484D01*
X003360Y004484D02*
X002910Y004484D01*
X002910Y004709D01*
X002985Y004784D01*
X003135Y004784D01*
X002910Y004944D02*
X002910Y005244D01*
X002985Y005244D01*
X002885Y003619D02*
X002960Y003469D01*
X003110Y003319D01*
X003110Y003544D01*
X003185Y003619D01*
X003260Y003619D01*
X003335Y003544D01*
X003335Y003394D01*
X003260Y003319D01*
X003110Y003319D01*
X010075Y009554D02*
X010150Y009479D01*
X010300Y009479D01*
X010375Y009554D01*
X010375Y009629D01*
X010300Y009704D01*
X010075Y009704D01*
X010075Y009554D01*
X010075Y009704D02*
X010225Y009855D01*
X010375Y009930D01*
X012715Y009030D02*
X012715Y008579D01*
X012715Y008729D02*
X012940Y008729D01*
X013015Y008804D01*
X013015Y008955D01*
X012940Y009030D01*
X012715Y009030D01*
X013175Y008955D02*
X013175Y008880D01*
X013250Y008804D01*
X013400Y008804D01*
X013475Y008729D01*
X013475Y008654D01*
X013400Y008579D01*
X013250Y008579D01*
X013175Y008654D01*
X013175Y008729D01*
X013250Y008804D01*
X013400Y008804D02*
X013475Y008880D01*
X013475Y008955D01*
X013400Y009030D01*
X013250Y009030D01*
X013175Y008955D01*
X014638Y007414D02*
X014638Y006294D01*
X015158Y006294D01*
X015158Y007414D01*
X014638Y007414D01*
X013225Y011379D02*
X012925Y011379D01*
X013075Y011379D02*
X013075Y011830D01*
X012925Y011680D01*
X012855Y014979D02*
X012855Y015530D01*
X014115Y015530D01*
X014115Y014979D01*
X012855Y014979D01*
X013152Y017775D02*
X014569Y017775D01*
X014569Y018484D01*
X013152Y018484D01*
X013152Y017775D01*
X013152Y018650D02*
X014569Y018650D01*
X014569Y019359D01*
X013152Y019359D01*
X013152Y018650D01*
X012197Y017841D02*
X012197Y017718D01*
X012074Y017718D01*
X012197Y017718D02*
X012197Y020041D01*
X012197Y019918D01*
X012197Y020041D02*
X012074Y020041D01*
X012197Y020041D02*
X009874Y020041D01*
X009997Y020041D01*
X009874Y020041D02*
X009874Y019918D01*
X009874Y020041D02*
X009874Y017718D01*
X009874Y017841D01*
X009874Y017718D02*
X009997Y017718D01*
X009874Y017718D02*
X012197Y017718D01*
X013980Y021604D02*
X013980Y022155D01*
X015240Y022155D01*
X015240Y021604D01*
X013980Y021604D01*
X018224Y019667D02*
X018224Y019155D01*
X018224Y019667D02*
X019247Y019667D01*
X019287Y019667D01*
X019326Y019667D01*
X019326Y018919D01*
X019247Y018919D01*
X019247Y019667D01*
X019287Y019667D02*
X019287Y018623D01*
X019287Y018604D02*
X019287Y018092D01*
X019326Y018092D02*
X019247Y018092D01*
X019247Y018899D01*
X019326Y018899D01*
X019326Y018092D01*
X019247Y018092D02*
X018224Y018092D01*
X018224Y018604D01*
X019785Y019329D02*
X020235Y019329D01*
X020235Y019179D02*
X020235Y019480D01*
X019935Y019179D02*
X019785Y019329D01*
X019960Y018080D02*
X020035Y018080D01*
X020110Y018004D01*
X020110Y017854D01*
X020035Y017779D01*
X019960Y017779D01*
X019885Y017854D01*
X019885Y018004D01*
X019960Y018080D01*
X020110Y018004D02*
X020185Y018080D01*
X020260Y018080D01*
X020335Y018004D01*
X020335Y017854D01*
X020260Y017779D01*
X020185Y017779D01*
X020110Y017854D01*
X020335Y010830D02*
X020335Y010529D01*
X020335Y010679D02*
X019885Y010679D01*
X020035Y010529D01*
X020860Y009915D02*
X020935Y009765D01*
X021085Y009615D01*
X021085Y009840D01*
X021160Y009915D01*
X021235Y009915D01*
X021310Y009840D01*
X021310Y009690D01*
X021235Y009615D01*
X021085Y009615D01*
X021085Y009455D02*
X021160Y009379D01*
X021160Y009154D01*
X021310Y009154D02*
X020860Y009154D01*
X020860Y009379D01*
X020935Y009455D01*
X021085Y009455D01*
X020435Y028129D02*
X020435Y028430D01*
X020435Y028279D02*
X019985Y028279D01*
X020135Y028129D01*
X020060Y028590D02*
X019985Y028665D01*
X019985Y028815D01*
X020060Y028890D01*
X020360Y028590D01*
X020435Y028665D01*
X020435Y028815D01*
X020360Y028890D01*
X020060Y028890D01*
X020060Y028590D02*
X020360Y028590D01*
X020860Y029254D02*
X020860Y029479D01*
X020935Y029555D01*
X021085Y029555D01*
X021160Y029479D01*
X021160Y029254D01*
X021310Y029254D02*
X020860Y029254D01*
X020860Y029715D02*
X021085Y029715D01*
X021010Y029865D01*
X021010Y029940D01*
X021085Y030015D01*
X021235Y030015D01*
X021310Y029940D01*
X021310Y029790D01*
X021235Y029715D01*
X020860Y029715D02*
X020860Y030015D01*
D23*
X012359Y017525D02*
X012361Y017538D01*
X012366Y017551D01*
X012375Y017562D01*
X012386Y017569D01*
X012399Y017574D01*
X012412Y017575D01*
X012426Y017572D01*
X012438Y017566D01*
X012448Y017557D01*
X012455Y017545D01*
X012459Y017532D01*
X012459Y017518D01*
X012455Y017505D01*
X012448Y017493D01*
X012438Y017484D01*
X012426Y017478D01*
X012412Y017475D01*
X012399Y017476D01*
X012386Y017481D01*
X012375Y017488D01*
X012366Y017499D01*
X012361Y017512D01*
X012359Y017525D01*
D24*
X010987Y016736D03*
X010987Y016276D03*
X013858Y016273D03*
X013858Y016733D03*
X013233Y021898D03*
X013233Y022358D03*
D25*
X014382Y021877D03*
X014842Y021877D03*
X013714Y015256D03*
X013254Y015256D03*
X012217Y015377D03*
X011757Y015377D03*
D26*
X013573Y018129D03*
X013573Y019004D03*
X014143Y019004D03*
X014143Y018129D03*
X005648Y011255D03*
X005078Y011255D03*
D27*
X003819Y001779D02*
X017402Y001779D01*
X017402Y024614D01*
X003819Y024614D01*
X003819Y001779D01*
D28*
X006862Y003614D02*
X006862Y004244D01*
X007177Y004244D01*
X007282Y004139D01*
X007282Y003929D01*
X007177Y003824D01*
X006862Y003824D01*
X007506Y003719D02*
X007612Y003614D01*
X007822Y003614D01*
X007927Y003719D01*
X007927Y004139D01*
X007822Y004244D01*
X007612Y004244D01*
X007506Y004139D01*
X007506Y004034D01*
X007612Y003929D01*
X007927Y003929D01*
D29*
X016648Y010612D03*
X016648Y010868D03*
X016648Y011123D03*
X016648Y011379D03*
X016648Y011635D03*
X016648Y011891D03*
X016648Y012147D03*
X016648Y014862D03*
X016648Y015118D03*
X016648Y015373D03*
X016648Y015629D03*
X016648Y015885D03*
X016648Y016141D03*
X016648Y016397D03*
X018823Y016397D03*
X018823Y016141D03*
X018823Y015885D03*
X018823Y015629D03*
X018823Y015373D03*
X018823Y015118D03*
X018823Y014862D03*
X018823Y012147D03*
X018823Y011891D03*
X018823Y011635D03*
X018823Y011379D03*
X018823Y011123D03*
X018823Y010868D03*
X018823Y010612D03*
D30*
X018247Y010740D03*
X018247Y014990D03*
D31*
X015293Y007224D03*
X015293Y006484D03*
X014503Y006854D03*
D32*
X013110Y009704D03*
X013110Y010704D03*
X012110Y010704D03*
X012110Y009704D03*
X011110Y009704D03*
X011110Y010704D03*
X002110Y010754D03*
X002110Y011754D03*
X002110Y012754D03*
X002110Y013754D03*
X002110Y014754D03*
X002110Y015754D03*
X002110Y017754D03*
X002110Y018754D03*
X002110Y019754D03*
X002110Y020754D03*
X002110Y021754D03*
X002110Y022754D03*
X002110Y023754D03*
X002110Y024754D03*
X002110Y008754D03*
X002110Y007754D03*
X002110Y006754D03*
X002110Y005754D03*
X002110Y004754D03*
X002110Y003754D03*
X021110Y010754D03*
X021110Y011754D03*
X021110Y012754D03*
X021110Y013754D03*
X021110Y014754D03*
X021110Y015754D03*
X021110Y016754D03*
X021110Y017754D03*
X021110Y019354D03*
X021110Y020354D03*
X021110Y021354D03*
X021110Y022354D03*
X021110Y023354D03*
X021110Y024354D03*
X021110Y025354D03*
X021110Y026354D03*
X021110Y027354D03*
X021110Y028354D03*
D33*
X019494Y025192D03*
X019238Y025192D03*
X018982Y025192D03*
X018727Y025192D03*
X018727Y023066D03*
X018982Y023066D03*
X019238Y023066D03*
X019494Y023066D03*
D34*
X018854Y023490D03*
D35*
X004860Y007929D03*
X004860Y007929D03*
D36*
X004860Y010079D03*
X004860Y010079D03*
X005770Y010079D03*
X005770Y010079D03*
X003950Y010079D03*
X003950Y010079D03*
D37*
X004140Y009196D02*
X004155Y009196D01*
X004155Y009106D01*
X004140Y009106D02*
X004170Y009106D01*
X004201Y009121D02*
X004201Y009151D01*
X004216Y009166D01*
X004261Y009166D01*
X004261Y009196D02*
X004261Y009106D01*
X004216Y009106D01*
X004201Y009121D01*
X004293Y009121D02*
X004293Y009151D01*
X004308Y009166D01*
X004338Y009166D01*
X004353Y009151D01*
X004353Y009136D01*
X004293Y009136D01*
X004293Y009121D02*
X004308Y009106D01*
X004338Y009106D01*
X004385Y009106D02*
X004385Y009166D01*
X004385Y009136D02*
X004415Y009166D01*
X004430Y009166D01*
X004462Y009166D02*
X004477Y009166D01*
X004477Y009106D01*
X004462Y009106D02*
X004492Y009106D01*
X004523Y009106D02*
X004523Y009166D01*
X004568Y009166D01*
X004584Y009151D01*
X004584Y009106D01*
X004616Y009121D02*
X004631Y009106D01*
X004676Y009106D01*
X004676Y009091D02*
X004676Y009166D01*
X004631Y009166D01*
X004616Y009151D01*
X004616Y009121D01*
X004646Y009076D02*
X004661Y009076D01*
X004676Y009091D01*
X004676Y008989D02*
X004661Y008989D01*
X004631Y008959D01*
X004631Y008929D02*
X004631Y008989D01*
X004599Y008974D02*
X004599Y008944D01*
X004584Y008929D01*
X004554Y008929D01*
X004539Y008944D01*
X004539Y008974D01*
X004554Y008989D01*
X004584Y008989D01*
X004599Y008974D01*
X004507Y008974D02*
X004477Y008974D01*
X004492Y009004D02*
X004507Y009019D01*
X004492Y009004D02*
X004492Y008929D01*
X004476Y008812D02*
X004491Y008797D01*
X004491Y008767D01*
X004476Y008752D01*
X004431Y008752D01*
X004431Y008722D02*
X004431Y008812D01*
X004476Y008812D01*
X004523Y008797D02*
X004523Y008767D01*
X004538Y008752D01*
X004583Y008752D01*
X004615Y008752D02*
X004660Y008752D01*
X004676Y008767D01*
X004676Y008797D01*
X004660Y008812D01*
X004615Y008812D01*
X004615Y008842D02*
X004615Y008752D01*
X004583Y008812D02*
X004538Y008812D01*
X004523Y008797D01*
X004353Y008929D02*
X004353Y008974D01*
X004338Y008989D01*
X004293Y008989D01*
X004293Y008929D01*
X004261Y008944D02*
X004261Y008974D01*
X004246Y008989D01*
X004216Y008989D01*
X004201Y008974D01*
X004201Y008944D01*
X004216Y008929D01*
X004246Y008929D01*
X004261Y008944D01*
X004170Y008929D02*
X004140Y008929D01*
X004155Y008929D02*
X004155Y008989D01*
X004140Y008989D01*
X004108Y008989D02*
X004078Y008989D01*
X004093Y009004D02*
X004093Y008944D01*
X004108Y008929D01*
X004046Y008929D02*
X004001Y008929D01*
X003986Y008944D01*
X004001Y008959D01*
X004046Y008959D01*
X004046Y008974D02*
X004046Y008929D01*
X004046Y008974D02*
X004031Y008989D01*
X004001Y008989D01*
X003955Y008989D02*
X003925Y008989D01*
X003940Y009004D02*
X003940Y008944D01*
X003955Y008929D01*
X003893Y008989D02*
X003878Y008989D01*
X003848Y008959D01*
X003848Y008929D02*
X003848Y008989D01*
X003816Y008974D02*
X003801Y008989D01*
X003771Y008989D01*
X003756Y008974D01*
X003756Y008944D01*
X003771Y008929D01*
X003801Y008929D01*
X003816Y008944D01*
X003816Y008974D01*
X003724Y008974D02*
X003724Y008944D01*
X003709Y008929D01*
X003664Y008929D01*
X003664Y008899D02*
X003664Y008989D01*
X003709Y008989D01*
X003724Y008974D01*
X003632Y008989D02*
X003587Y008989D01*
X003572Y008974D01*
X003587Y008959D01*
X003617Y008959D01*
X003632Y008944D01*
X003617Y008929D01*
X003572Y008929D01*
X003540Y008929D02*
X003540Y008974D01*
X003525Y008989D01*
X003480Y008989D01*
X003480Y008929D01*
X003448Y008929D02*
X003448Y008974D01*
X003433Y008989D01*
X003403Y008989D01*
X003403Y008959D02*
X003448Y008959D01*
X003448Y008929D02*
X003403Y008929D01*
X003388Y008944D01*
X003403Y008959D01*
X003356Y008989D02*
X003341Y008989D01*
X003311Y008959D01*
X003311Y008929D02*
X003311Y008989D01*
X003280Y008989D02*
X003250Y008989D01*
X003265Y009004D02*
X003265Y008944D01*
X003280Y008929D01*
X003388Y008812D02*
X003433Y008812D01*
X003433Y008842D02*
X003433Y008752D01*
X003388Y008752D01*
X003373Y008767D01*
X003373Y008797D01*
X003388Y008812D01*
X003465Y008812D02*
X003480Y008812D01*
X003480Y008752D01*
X003465Y008752D02*
X003495Y008752D01*
X003526Y008752D02*
X003526Y008812D01*
X003526Y008782D02*
X003556Y008812D01*
X003571Y008812D01*
X003603Y008797D02*
X003618Y008812D01*
X003648Y008812D01*
X003663Y008797D01*
X003663Y008782D01*
X003603Y008782D01*
X003603Y008767D02*
X003603Y008797D01*
X003603Y008767D02*
X003618Y008752D01*
X003648Y008752D01*
X003695Y008767D02*
X003710Y008752D01*
X003755Y008752D01*
X003802Y008767D02*
X003817Y008752D01*
X003802Y008767D02*
X003802Y008827D01*
X003787Y008812D02*
X003817Y008812D01*
X003848Y008812D02*
X003863Y008812D01*
X003863Y008752D01*
X003848Y008752D02*
X003878Y008752D01*
X003910Y008767D02*
X003925Y008752D01*
X003955Y008752D01*
X003970Y008767D01*
X003970Y008797D01*
X003955Y008812D01*
X003925Y008812D01*
X003910Y008797D01*
X003910Y008767D01*
X003863Y008842D02*
X003863Y008857D01*
X003755Y008812D02*
X003710Y008812D01*
X003695Y008797D01*
X003695Y008767D01*
X003480Y008842D02*
X003480Y008857D01*
X003603Y009106D02*
X003618Y009121D01*
X003633Y009106D01*
X003648Y009121D01*
X003648Y009166D01*
X003695Y009166D02*
X003725Y009166D01*
X003740Y009151D01*
X003740Y009106D01*
X003695Y009106D01*
X003680Y009121D01*
X003695Y009136D01*
X003740Y009136D01*
X003772Y009166D02*
X003802Y009106D01*
X003832Y009166D01*
X003864Y009151D02*
X003879Y009166D01*
X003909Y009166D01*
X003924Y009151D01*
X003924Y009136D01*
X003864Y009136D01*
X003864Y009121D02*
X003864Y009151D01*
X003864Y009121D02*
X003879Y009106D01*
X003909Y009106D01*
X003956Y009106D02*
X004001Y009106D01*
X004016Y009121D01*
X004001Y009136D01*
X003971Y009136D01*
X003956Y009151D01*
X003971Y009166D01*
X004016Y009166D01*
X004048Y009151D02*
X004048Y009121D01*
X004063Y009106D01*
X004093Y009106D01*
X004108Y009121D01*
X004108Y009151D01*
X004093Y009166D01*
X004063Y009166D01*
X004048Y009151D01*
X004155Y009034D02*
X004155Y009019D01*
X004201Y008812D02*
X004186Y008797D01*
X004186Y008767D01*
X004201Y008752D01*
X004231Y008752D01*
X004246Y008767D01*
X004246Y008797D01*
X004231Y008812D01*
X004201Y008812D01*
X004278Y008797D02*
X004308Y008797D01*
X004293Y008827D02*
X004308Y008842D01*
X004293Y008827D02*
X004293Y008752D01*
X004062Y008752D02*
X004062Y008797D01*
X004047Y008812D01*
X004002Y008812D01*
X004002Y008752D01*
X003603Y009106D02*
X003588Y009121D01*
X003588Y009166D01*
X004477Y009196D02*
X004477Y009211D01*
D38*
X006985Y009292D03*
X006985Y008722D03*
M02*
