G75*
G70*
%OFA0B0*%
%FSLAX24Y24*%
%IPPOS*%
%LPD*%
%AMOC8*
5,1,8,0,0,1.08239X$1,22.5*
%
%ADD10R,0.0118X0.0336*%
%ADD11R,0.0336X0.0118*%
%ADD12R,0.1249X0.1249*%
%ADD13C,0.0077*%
%ADD14C,0.0071*%
%ADD15R,0.0512X0.0512*%
%ADD16R,0.0866X0.0335*%
%ADD17R,0.0413X0.0394*%
%ADD18C,0.0110*%
%ADD19R,0.0394X0.0394*%
%ADD20R,0.0394X0.0433*%
%ADD21R,0.0433X0.0394*%
%ADD22R,0.0354X0.0276*%
%ADD23R,0.0276X0.0354*%
%ADD24R,0.0512X0.0591*%
%ADD25R,0.0354X0.0138*%
%ADD26R,0.0551X0.0394*%
%ADD27R,0.0138X0.0472*%
%ADD28R,0.0591X0.0787*%
%ADD29R,0.1496X0.0787*%
%ADD30R,0.0591X0.0512*%
D10*
X009971Y026979D03*
X010168Y026979D03*
X010365Y026979D03*
X010562Y026979D03*
X010759Y026979D03*
X010956Y026979D03*
X011153Y026979D03*
X011349Y026979D03*
X011349Y028930D03*
X011153Y028930D03*
X010956Y028930D03*
X010759Y028930D03*
X010562Y028930D03*
X010365Y028930D03*
X010168Y028930D03*
X009971Y028930D03*
D11*
X009685Y028643D03*
X009685Y028446D03*
X009685Y028250D03*
X009685Y028053D03*
X009685Y027856D03*
X009685Y027659D03*
X009685Y027462D03*
X009685Y027265D03*
X011636Y027265D03*
X011636Y027462D03*
X011636Y027659D03*
X011636Y027856D03*
X011636Y028053D03*
X011636Y028250D03*
X011636Y028446D03*
X011636Y028643D03*
D12*
X010660Y027954D03*
D13*
X010620Y026571D02*
X010620Y026391D01*
X010620Y026571D02*
X010800Y026571D01*
X010800Y026391D01*
X010620Y026391D01*
X010620Y026467D02*
X010800Y026467D01*
X010800Y026543D02*
X010620Y026543D01*
X010620Y026217D02*
X010620Y026037D01*
X010620Y026217D02*
X010800Y026217D01*
X010800Y026037D01*
X010620Y026037D01*
X010620Y026113D02*
X010800Y026113D01*
X010800Y026189D02*
X010620Y026189D01*
X011143Y026114D02*
X011323Y026114D01*
X011143Y026114D02*
X011143Y026294D01*
X011323Y026294D01*
X011323Y026114D01*
X011323Y026190D02*
X011143Y026190D01*
X011143Y026266D02*
X011323Y026266D01*
X011498Y026114D02*
X011678Y026114D01*
X011498Y026114D02*
X011498Y026294D01*
X011678Y026294D01*
X011678Y026114D01*
X011678Y026190D02*
X011498Y026190D01*
X011498Y026266D02*
X011678Y026266D01*
X012543Y027264D02*
X012723Y027264D01*
X012543Y027264D02*
X012543Y027444D01*
X012723Y027444D01*
X012723Y027264D01*
X012723Y027340D02*
X012543Y027340D01*
X012543Y027416D02*
X012723Y027416D01*
X012898Y027264D02*
X013078Y027264D01*
X012898Y027264D02*
X012898Y027444D01*
X013078Y027444D01*
X013078Y027264D01*
X013078Y027340D02*
X012898Y027340D01*
X012898Y027416D02*
X013078Y027416D01*
X012878Y027764D02*
X012698Y027764D01*
X012698Y027944D01*
X012878Y027944D01*
X012878Y027764D01*
X012878Y027840D02*
X012698Y027840D01*
X012698Y027916D02*
X012878Y027916D01*
X012878Y028264D02*
X012698Y028264D01*
X012698Y028444D01*
X012878Y028444D01*
X012878Y028264D01*
X012878Y028340D02*
X012698Y028340D01*
X012698Y028416D02*
X012878Y028416D01*
X012778Y028764D02*
X012598Y028764D01*
X012598Y028944D01*
X012778Y028944D01*
X012778Y028764D01*
X012778Y028840D02*
X012598Y028840D01*
X012598Y028916D02*
X012778Y028916D01*
X012423Y028764D02*
X012243Y028764D01*
X012243Y028944D01*
X012423Y028944D01*
X012423Y028764D01*
X012423Y028840D02*
X012243Y028840D01*
X012243Y028916D02*
X012423Y028916D01*
X012343Y028264D02*
X012523Y028264D01*
X012343Y028264D02*
X012343Y028444D01*
X012523Y028444D01*
X012523Y028264D01*
X012523Y028340D02*
X012343Y028340D01*
X012343Y028416D02*
X012523Y028416D01*
X012523Y027764D02*
X012343Y027764D01*
X012343Y027944D01*
X012523Y027944D01*
X012523Y027764D01*
X012523Y027840D02*
X012343Y027840D01*
X012343Y027916D02*
X012523Y027916D01*
X013143Y029164D02*
X013323Y029164D01*
X013143Y029164D02*
X013143Y029344D01*
X013323Y029344D01*
X013323Y029164D01*
X013323Y029240D02*
X013143Y029240D01*
X013143Y029316D02*
X013323Y029316D01*
X013498Y029164D02*
X013678Y029164D01*
X013498Y029164D02*
X013498Y029344D01*
X013678Y029344D01*
X013678Y029164D01*
X013678Y029240D02*
X013498Y029240D01*
X013498Y029316D02*
X013678Y029316D01*
X013678Y029744D02*
X013498Y029744D01*
X013678Y029744D02*
X013678Y029564D01*
X013498Y029564D01*
X013498Y029744D01*
X013498Y029640D02*
X013678Y029640D01*
X013678Y029716D02*
X013498Y029716D01*
X013323Y029744D02*
X013143Y029744D01*
X013323Y029744D02*
X013323Y029564D01*
X013143Y029564D01*
X013143Y029744D01*
X013143Y029640D02*
X013323Y029640D01*
X013323Y029716D02*
X013143Y029716D01*
X012778Y029664D02*
X012598Y029664D01*
X012598Y029844D01*
X012778Y029844D01*
X012778Y029664D01*
X012778Y029740D02*
X012598Y029740D01*
X012598Y029816D02*
X012778Y029816D01*
X013240Y030087D02*
X013240Y030267D01*
X013240Y030087D02*
X013060Y030087D01*
X013060Y030267D01*
X013240Y030267D01*
X013240Y030163D02*
X013060Y030163D01*
X013060Y030239D02*
X013240Y030239D01*
X013240Y030441D02*
X013240Y030621D01*
X013240Y030441D02*
X013060Y030441D01*
X013060Y030621D01*
X013240Y030621D01*
X013240Y030517D02*
X013060Y030517D01*
X013060Y030593D02*
X013240Y030593D01*
X012778Y030864D02*
X012598Y030864D01*
X012598Y031044D01*
X012778Y031044D01*
X012778Y030864D01*
X012778Y030940D02*
X012598Y030940D01*
X012598Y031016D02*
X012778Y031016D01*
X012423Y030864D02*
X012243Y030864D01*
X012243Y031044D01*
X012423Y031044D01*
X012423Y030864D01*
X012423Y030940D02*
X012243Y030940D01*
X012243Y031016D02*
X012423Y031016D01*
X012643Y032164D02*
X012823Y032164D01*
X012643Y032164D02*
X012643Y032344D01*
X012823Y032344D01*
X012823Y032164D01*
X012823Y032240D02*
X012643Y032240D01*
X012643Y032316D02*
X012823Y032316D01*
X012998Y032164D02*
X013178Y032164D01*
X012998Y032164D02*
X012998Y032344D01*
X013178Y032344D01*
X013178Y032164D01*
X013178Y032240D02*
X012998Y032240D01*
X012998Y032316D02*
X013178Y032316D01*
X012378Y032844D02*
X012198Y032844D01*
X012378Y032844D02*
X012378Y032664D01*
X012198Y032664D01*
X012198Y032844D01*
X012198Y032740D02*
X012378Y032740D01*
X012378Y032816D02*
X012198Y032816D01*
X012023Y032844D02*
X011843Y032844D01*
X012023Y032844D02*
X012023Y032664D01*
X011843Y032664D01*
X011843Y032844D01*
X011843Y032740D02*
X012023Y032740D01*
X012023Y032816D02*
X011843Y032816D01*
X011178Y032164D02*
X010998Y032164D01*
X010998Y032344D01*
X011178Y032344D01*
X011178Y032164D01*
X011178Y032240D02*
X010998Y032240D01*
X010998Y032316D02*
X011178Y032316D01*
X010823Y032164D02*
X010643Y032164D01*
X010643Y032344D01*
X010823Y032344D01*
X010823Y032164D01*
X010823Y032240D02*
X010643Y032240D01*
X010643Y032316D02*
X010823Y032316D01*
X010750Y030621D02*
X010750Y030441D01*
X010570Y030441D01*
X010570Y030621D01*
X010750Y030621D01*
X010750Y030517D02*
X010570Y030517D01*
X010570Y030593D02*
X010750Y030593D01*
X010750Y030267D02*
X010750Y030087D01*
X010570Y030087D01*
X010570Y030267D01*
X010750Y030267D01*
X010750Y030163D02*
X010570Y030163D01*
X010570Y030239D02*
X010750Y030239D01*
X010350Y030191D02*
X010350Y030371D01*
X010350Y030191D02*
X010170Y030191D01*
X010170Y030371D01*
X010350Y030371D01*
X010350Y030267D02*
X010170Y030267D01*
X010170Y030343D02*
X010350Y030343D01*
X010350Y030017D02*
X010350Y029837D01*
X010170Y029837D01*
X010170Y030017D01*
X010350Y030017D01*
X010350Y029913D02*
X010170Y029913D01*
X010170Y029989D02*
X010350Y029989D01*
X009950Y030017D02*
X009950Y029837D01*
X009770Y029837D01*
X009770Y030017D01*
X009950Y030017D01*
X009950Y029913D02*
X009770Y029913D01*
X009770Y029989D02*
X009950Y029989D01*
X009950Y030191D02*
X009950Y030371D01*
X009950Y030191D02*
X009770Y030191D01*
X009770Y030371D01*
X009950Y030371D01*
X009950Y030267D02*
X009770Y030267D01*
X009770Y030343D02*
X009950Y030343D01*
X009420Y029871D02*
X009420Y029691D01*
X009420Y029871D02*
X009600Y029871D01*
X009600Y029691D01*
X009420Y029691D01*
X009420Y029767D02*
X009600Y029767D01*
X009600Y029843D02*
X009420Y029843D01*
X009420Y029517D02*
X009420Y029337D01*
X009420Y029517D02*
X009600Y029517D01*
X009600Y029337D01*
X009420Y029337D01*
X009420Y029413D02*
X009600Y029413D01*
X009600Y029489D02*
X009420Y029489D01*
X009078Y029344D02*
X008898Y029344D01*
X009078Y029344D02*
X009078Y029164D01*
X008898Y029164D01*
X008898Y029344D01*
X008898Y029240D02*
X009078Y029240D01*
X009078Y029316D02*
X008898Y029316D01*
X008723Y029344D02*
X008543Y029344D01*
X008723Y029344D02*
X008723Y029164D01*
X008543Y029164D01*
X008543Y029344D01*
X008543Y029240D02*
X008723Y029240D01*
X008723Y029316D02*
X008543Y029316D01*
X008623Y028744D02*
X008443Y028744D01*
X008623Y028744D02*
X008623Y028564D01*
X008443Y028564D01*
X008443Y028744D01*
X008443Y028640D02*
X008623Y028640D01*
X008623Y028716D02*
X008443Y028716D01*
X008798Y028744D02*
X008978Y028744D01*
X008978Y028564D01*
X008798Y028564D01*
X008798Y028744D01*
X008798Y028640D02*
X008978Y028640D01*
X008978Y028716D02*
X008798Y028716D01*
X008878Y028244D02*
X008698Y028244D01*
X008878Y028244D02*
X008878Y028064D01*
X008698Y028064D01*
X008698Y028244D01*
X008698Y028140D02*
X008878Y028140D01*
X008878Y028216D02*
X008698Y028216D01*
X008523Y028244D02*
X008343Y028244D01*
X008523Y028244D02*
X008523Y028064D01*
X008343Y028064D01*
X008343Y028244D01*
X008343Y028140D02*
X008523Y028140D01*
X008523Y028216D02*
X008343Y028216D01*
X008398Y027694D02*
X008218Y027694D01*
X008398Y027694D02*
X008398Y027514D01*
X008218Y027514D01*
X008218Y027694D01*
X008218Y027590D02*
X008398Y027590D01*
X008398Y027666D02*
X008218Y027666D01*
X008128Y027344D02*
X007948Y027344D01*
X008128Y027344D02*
X008128Y027164D01*
X007948Y027164D01*
X007948Y027344D01*
X007948Y027240D02*
X008128Y027240D01*
X008128Y027316D02*
X007948Y027316D01*
X007773Y027344D02*
X007593Y027344D01*
X007773Y027344D02*
X007773Y027164D01*
X007593Y027164D01*
X007593Y027344D01*
X007593Y027240D02*
X007773Y027240D01*
X007773Y027316D02*
X007593Y027316D01*
X007220Y026421D02*
X007220Y026241D01*
X007220Y026421D02*
X007400Y026421D01*
X007400Y026241D01*
X007220Y026241D01*
X007220Y026317D02*
X007400Y026317D01*
X007400Y026393D02*
X007220Y026393D01*
X007220Y026067D02*
X007220Y025887D01*
X007220Y026067D02*
X007400Y026067D01*
X007400Y025887D01*
X007220Y025887D01*
X007220Y025963D02*
X007400Y025963D01*
X007400Y026039D02*
X007220Y026039D01*
X007943Y025044D02*
X008123Y025044D01*
X008123Y024864D01*
X007943Y024864D01*
X007943Y025044D01*
X007943Y024940D02*
X008123Y024940D01*
X008123Y025016D02*
X007943Y025016D01*
X008298Y025044D02*
X008478Y025044D01*
X008478Y024864D01*
X008298Y024864D01*
X008298Y025044D01*
X008298Y024940D02*
X008478Y024940D01*
X008478Y025016D02*
X008298Y025016D01*
X008943Y025464D02*
X009123Y025464D01*
X008943Y025464D02*
X008943Y025644D01*
X009123Y025644D01*
X009123Y025464D01*
X009123Y025540D02*
X008943Y025540D01*
X008943Y025616D02*
X009123Y025616D01*
X009298Y025464D02*
X009478Y025464D01*
X009298Y025464D02*
X009298Y025644D01*
X009478Y025644D01*
X009478Y025464D01*
X009478Y025540D02*
X009298Y025540D01*
X009298Y025616D02*
X009478Y025616D01*
X009470Y025887D02*
X009470Y026067D01*
X009650Y026067D01*
X009650Y025887D01*
X009470Y025887D01*
X009470Y025963D02*
X009650Y025963D01*
X009650Y026039D02*
X009470Y026039D01*
X009470Y026241D02*
X009470Y026421D01*
X009650Y026421D01*
X009650Y026241D01*
X009470Y026241D01*
X009470Y026317D02*
X009650Y026317D01*
X009650Y026393D02*
X009470Y026393D01*
X008753Y027694D02*
X008573Y027694D01*
X008753Y027694D02*
X008753Y027514D01*
X008573Y027514D01*
X008573Y027694D01*
X008573Y027590D02*
X008753Y027590D01*
X008753Y027666D02*
X008573Y027666D01*
X011450Y030087D02*
X011450Y030267D01*
X011450Y030087D02*
X011270Y030087D01*
X011270Y030267D01*
X011450Y030267D01*
X011450Y030163D02*
X011270Y030163D01*
X011270Y030239D02*
X011450Y030239D01*
X011450Y030441D02*
X011450Y030621D01*
X011450Y030441D02*
X011270Y030441D01*
X011270Y030621D01*
X011450Y030621D01*
X011450Y030517D02*
X011270Y030517D01*
X011270Y030593D02*
X011450Y030593D01*
X012243Y029664D02*
X012423Y029664D01*
X012243Y029664D02*
X012243Y029844D01*
X012423Y029844D01*
X012423Y029664D01*
X012423Y029740D02*
X012243Y029740D01*
X012243Y029816D02*
X012423Y029816D01*
X013943Y029564D02*
X014123Y029564D01*
X013943Y029564D02*
X013943Y029744D01*
X014123Y029744D01*
X014123Y029564D01*
X014123Y029640D02*
X013943Y029640D01*
X013943Y029716D02*
X014123Y029716D01*
X014298Y029564D02*
X014478Y029564D01*
X014298Y029564D02*
X014298Y029744D01*
X014478Y029744D01*
X014478Y029564D01*
X014478Y029640D02*
X014298Y029640D01*
X014298Y029716D02*
X014478Y029716D01*
X014478Y029164D02*
X014298Y029164D01*
X014298Y029344D01*
X014478Y029344D01*
X014478Y029164D01*
X014478Y029240D02*
X014298Y029240D01*
X014298Y029316D02*
X014478Y029316D01*
X014123Y029164D02*
X013943Y029164D01*
X013943Y029344D01*
X014123Y029344D01*
X014123Y029164D01*
X014123Y029240D02*
X013943Y029240D01*
X013943Y029316D02*
X014123Y029316D01*
X012013Y022021D02*
X012013Y021841D01*
X011833Y021841D01*
X011833Y022021D01*
X012013Y022021D01*
X012013Y021917D02*
X011833Y021917D01*
X011833Y021993D02*
X012013Y021993D01*
X012013Y021667D02*
X012013Y021487D01*
X011833Y021487D01*
X011833Y021667D01*
X012013Y021667D01*
X012013Y021563D02*
X011833Y021563D01*
X011833Y021639D02*
X012013Y021639D01*
X013200Y021271D02*
X013200Y021091D01*
X013020Y021091D01*
X013020Y021271D01*
X013200Y021271D01*
X013200Y021167D02*
X013020Y021167D01*
X013020Y021243D02*
X013200Y021243D01*
X013200Y020917D02*
X013200Y020737D01*
X013020Y020737D01*
X013020Y020917D01*
X013200Y020917D01*
X013200Y020813D02*
X013020Y020813D01*
X013020Y020889D02*
X013200Y020889D01*
X013468Y020789D02*
X013648Y020789D01*
X013468Y020789D02*
X013468Y020969D01*
X013648Y020969D01*
X013648Y020789D01*
X013648Y020865D02*
X013468Y020865D01*
X013468Y020941D02*
X013648Y020941D01*
X013823Y020789D02*
X014003Y020789D01*
X013823Y020789D02*
X013823Y020969D01*
X014003Y020969D01*
X014003Y020789D01*
X014003Y020865D02*
X013823Y020865D01*
X013823Y020941D02*
X014003Y020941D01*
X014825Y021021D02*
X014825Y020841D01*
X014645Y020841D01*
X014645Y021021D01*
X014825Y021021D01*
X014825Y020917D02*
X014645Y020917D01*
X014645Y020993D02*
X014825Y020993D01*
X014825Y020667D02*
X014825Y020487D01*
X014645Y020487D01*
X014645Y020667D01*
X014825Y020667D01*
X014825Y020563D02*
X014645Y020563D01*
X014645Y020639D02*
X014825Y020639D01*
X016968Y019469D02*
X017148Y019469D01*
X017148Y019289D01*
X016968Y019289D01*
X016968Y019469D01*
X016968Y019365D02*
X017148Y019365D01*
X017148Y019441D02*
X016968Y019441D01*
X017323Y019469D02*
X017503Y019469D01*
X017503Y019289D01*
X017323Y019289D01*
X017323Y019469D01*
X017323Y019365D02*
X017503Y019365D01*
X017503Y019441D02*
X017323Y019441D01*
X017323Y018219D02*
X017503Y018219D01*
X017503Y018039D01*
X017323Y018039D01*
X017323Y018219D01*
X017323Y018115D02*
X017503Y018115D01*
X017503Y018191D02*
X017323Y018191D01*
X017148Y018219D02*
X016968Y018219D01*
X017148Y018219D02*
X017148Y018039D01*
X016968Y018039D01*
X016968Y018219D01*
X016968Y018115D02*
X017148Y018115D01*
X017148Y018191D02*
X016968Y018191D01*
X018843Y021289D02*
X019023Y021289D01*
X018843Y021289D02*
X018843Y021469D01*
X019023Y021469D01*
X019023Y021289D01*
X019023Y021365D02*
X018843Y021365D01*
X018843Y021441D02*
X019023Y021441D01*
X019198Y021289D02*
X019378Y021289D01*
X019198Y021289D02*
X019198Y021469D01*
X019378Y021469D01*
X019378Y021289D01*
X019378Y021365D02*
X019198Y021365D01*
X019198Y021441D02*
X019378Y021441D01*
X019343Y026039D02*
X019523Y026039D01*
X019343Y026039D02*
X019343Y026219D01*
X019523Y026219D01*
X019523Y026039D01*
X019523Y026115D02*
X019343Y026115D01*
X019343Y026191D02*
X019523Y026191D01*
X019698Y026039D02*
X019878Y026039D01*
X019698Y026039D02*
X019698Y026219D01*
X019878Y026219D01*
X019878Y026039D01*
X019878Y026115D02*
X019698Y026115D01*
X019698Y026191D02*
X019878Y026191D01*
X019878Y026914D02*
X019698Y026914D01*
X019698Y027094D01*
X019878Y027094D01*
X019878Y026914D01*
X019878Y026990D02*
X019698Y026990D01*
X019698Y027066D02*
X019878Y027066D01*
X019878Y027414D02*
X019698Y027414D01*
X019698Y027594D01*
X019878Y027594D01*
X019878Y027414D01*
X019878Y027490D02*
X019698Y027490D01*
X019698Y027566D02*
X019878Y027566D01*
X019878Y028094D02*
X019698Y028094D01*
X019878Y028094D02*
X019878Y027914D01*
X019698Y027914D01*
X019698Y028094D01*
X019698Y027990D02*
X019878Y027990D01*
X019878Y028066D02*
X019698Y028066D01*
X019523Y028094D02*
X019343Y028094D01*
X019523Y028094D02*
X019523Y027914D01*
X019343Y027914D01*
X019343Y028094D01*
X019343Y027990D02*
X019523Y027990D01*
X019523Y028066D02*
X019343Y028066D01*
X019343Y027414D02*
X019523Y027414D01*
X019343Y027414D02*
X019343Y027594D01*
X019523Y027594D01*
X019523Y027414D01*
X019523Y027490D02*
X019343Y027490D01*
X019343Y027566D02*
X019523Y027566D01*
X019523Y026914D02*
X019343Y026914D01*
X019343Y027094D01*
X019523Y027094D01*
X019523Y026914D01*
X019523Y026990D02*
X019343Y026990D01*
X019343Y027066D02*
X019523Y027066D01*
X019593Y013664D02*
X019773Y013664D01*
X019593Y013664D02*
X019593Y013844D01*
X019773Y013844D01*
X019773Y013664D01*
X019773Y013740D02*
X019593Y013740D01*
X019593Y013816D02*
X019773Y013816D01*
X019948Y013664D02*
X020128Y013664D01*
X019948Y013664D02*
X019948Y013844D01*
X020128Y013844D01*
X020128Y013664D01*
X020128Y013740D02*
X019948Y013740D01*
X019948Y013816D02*
X020128Y013816D01*
X020128Y012664D02*
X019948Y012664D01*
X019948Y012844D01*
X020128Y012844D01*
X020128Y012664D01*
X020128Y012740D02*
X019948Y012740D01*
X019948Y012816D02*
X020128Y012816D01*
X019773Y012664D02*
X019593Y012664D01*
X019593Y012844D01*
X019773Y012844D01*
X019773Y012664D01*
X019773Y012740D02*
X019593Y012740D01*
X019593Y012816D02*
X019773Y012816D01*
X016788Y007059D02*
X016788Y006879D01*
X016608Y006879D01*
X016608Y007059D01*
X016788Y007059D01*
X016788Y006955D02*
X016608Y006955D01*
X016608Y007031D02*
X016788Y007031D01*
X016788Y006705D02*
X016788Y006525D01*
X016608Y006525D01*
X016608Y006705D01*
X016788Y006705D01*
X016788Y006601D02*
X016608Y006601D01*
X016608Y006677D02*
X016788Y006677D01*
X013608Y006654D02*
X013608Y006834D01*
X013788Y006834D01*
X013788Y006654D01*
X013608Y006654D01*
X013608Y006730D02*
X013788Y006730D01*
X013788Y006806D02*
X013608Y006806D01*
X013608Y006480D02*
X013608Y006300D01*
X013608Y006480D02*
X013788Y006480D01*
X013788Y006300D01*
X013608Y006300D01*
X013608Y006376D02*
X013788Y006376D01*
X013788Y006452D02*
X013608Y006452D01*
X008770Y008987D02*
X008770Y009167D01*
X008950Y009167D01*
X008950Y008987D01*
X008770Y008987D01*
X008770Y009063D02*
X008950Y009063D01*
X008950Y009139D02*
X008770Y009139D01*
X008770Y009341D02*
X008770Y009521D01*
X008950Y009521D01*
X008950Y009341D01*
X008770Y009341D01*
X008770Y009417D02*
X008950Y009417D01*
X008950Y009493D02*
X008770Y009493D01*
X009568Y016944D02*
X009748Y016944D01*
X009748Y016764D01*
X009568Y016764D01*
X009568Y016944D01*
X009568Y016840D02*
X009748Y016840D01*
X009748Y016916D02*
X009568Y016916D01*
X009923Y016944D02*
X010103Y016944D01*
X010103Y016764D01*
X009923Y016764D01*
X009923Y016944D01*
X009923Y016840D02*
X010103Y016840D01*
X010103Y016916D02*
X009923Y016916D01*
X009128Y020289D02*
X008948Y020289D01*
X008948Y020469D01*
X009128Y020469D01*
X009128Y020289D01*
X009128Y020365D02*
X008948Y020365D01*
X008948Y020441D02*
X009128Y020441D01*
X009128Y020789D02*
X008948Y020789D01*
X008948Y020969D01*
X009128Y020969D01*
X009128Y020789D01*
X009128Y020865D02*
X008948Y020865D01*
X008948Y020941D02*
X009128Y020941D01*
X008773Y020789D02*
X008593Y020789D01*
X008593Y020969D01*
X008773Y020969D01*
X008773Y020789D01*
X008773Y020865D02*
X008593Y020865D01*
X008593Y020941D02*
X008773Y020941D01*
X008773Y020289D02*
X008593Y020289D01*
X008593Y020469D01*
X008773Y020469D01*
X008773Y020289D01*
X008773Y020365D02*
X008593Y020365D01*
X008593Y020441D02*
X008773Y020441D01*
X009583Y021112D02*
X009583Y021292D01*
X009763Y021292D01*
X009763Y021112D01*
X009583Y021112D01*
X009583Y021188D02*
X009763Y021188D01*
X009763Y021264D02*
X009583Y021264D01*
X009583Y021466D02*
X009583Y021646D01*
X009763Y021646D01*
X009763Y021466D01*
X009583Y021466D01*
X009583Y021542D02*
X009763Y021542D01*
X009763Y021618D02*
X009583Y021618D01*
X007520Y019896D02*
X007520Y019716D01*
X007520Y019896D02*
X007700Y019896D01*
X007700Y019716D01*
X007520Y019716D01*
X007520Y019792D02*
X007700Y019792D01*
X007700Y019868D02*
X007520Y019868D01*
X007520Y019542D02*
X007520Y019362D01*
X007520Y019542D02*
X007700Y019542D01*
X007700Y019362D01*
X007520Y019362D01*
X007520Y019438D02*
X007700Y019438D01*
X007700Y019514D02*
X007520Y019514D01*
D14*
X012134Y029161D02*
X012300Y029161D01*
X012134Y029161D02*
X012134Y029347D01*
X012300Y029347D01*
X012300Y029161D01*
X012300Y029231D02*
X012134Y029231D01*
X012134Y029301D02*
X012300Y029301D01*
X012520Y029161D02*
X012686Y029161D01*
X012520Y029161D02*
X012520Y029347D01*
X012686Y029347D01*
X012686Y029161D01*
X012686Y029231D02*
X012520Y029231D01*
X012520Y029301D02*
X012686Y029301D01*
X012803Y030078D02*
X012803Y030244D01*
X012803Y030078D02*
X012617Y030078D01*
X012617Y030244D01*
X012803Y030244D01*
X012803Y030148D02*
X012617Y030148D01*
X012617Y030218D02*
X012803Y030218D01*
X012803Y030464D02*
X012803Y030630D01*
X012803Y030464D02*
X012617Y030464D01*
X012617Y030630D01*
X012803Y030630D01*
X012803Y030534D02*
X012617Y030534D01*
X012617Y030604D02*
X012803Y030604D01*
X012803Y031378D02*
X012803Y031544D01*
X012803Y031378D02*
X012617Y031378D01*
X012617Y031544D01*
X012803Y031544D01*
X012803Y031448D02*
X012617Y031448D01*
X012617Y031518D02*
X012803Y031518D01*
X012803Y031764D02*
X012803Y031930D01*
X012803Y031764D02*
X012617Y031764D01*
X012617Y031930D01*
X012803Y031930D01*
X012803Y031834D02*
X012617Y031834D01*
X012617Y031904D02*
X012803Y031904D01*
X012386Y032347D02*
X012220Y032347D01*
X012386Y032347D02*
X012386Y032161D01*
X012220Y032161D01*
X012220Y032347D01*
X012220Y032231D02*
X012386Y032231D01*
X012386Y032301D02*
X012220Y032301D01*
X012000Y032347D02*
X011834Y032347D01*
X012000Y032347D02*
X012000Y032161D01*
X011834Y032161D01*
X011834Y032347D01*
X011834Y032231D02*
X012000Y032231D01*
X012000Y032301D02*
X011834Y032301D01*
X011686Y030859D02*
X011520Y030859D01*
X011520Y031045D01*
X011686Y031045D01*
X011686Y030859D01*
X011686Y030929D02*
X011520Y030929D01*
X011520Y030999D02*
X011686Y030999D01*
X011803Y030630D02*
X011803Y030464D01*
X011617Y030464D01*
X011617Y030630D01*
X011803Y030630D01*
X011803Y030534D02*
X011617Y030534D01*
X011617Y030604D02*
X011803Y030604D01*
X011803Y030244D02*
X011803Y030078D01*
X011617Y030078D01*
X011617Y030244D01*
X011803Y030244D01*
X011803Y030148D02*
X011617Y030148D01*
X011617Y030218D02*
X011803Y030218D01*
X011436Y029897D02*
X011270Y029897D01*
X011436Y029897D02*
X011436Y029711D01*
X011270Y029711D01*
X011270Y029897D01*
X011270Y029781D02*
X011436Y029781D01*
X011436Y029851D02*
X011270Y029851D01*
X011050Y029897D02*
X010884Y029897D01*
X011050Y029897D02*
X011050Y029711D01*
X010884Y029711D01*
X010884Y029897D01*
X010884Y029781D02*
X011050Y029781D01*
X011050Y029851D02*
X010884Y029851D01*
X011103Y030078D02*
X011103Y030244D01*
X011103Y030078D02*
X010917Y030078D01*
X010917Y030244D01*
X011103Y030244D01*
X011103Y030148D02*
X010917Y030148D01*
X010917Y030218D02*
X011103Y030218D01*
X011103Y030464D02*
X011103Y030630D01*
X011103Y030464D02*
X010917Y030464D01*
X010917Y030630D01*
X011103Y030630D01*
X011103Y030534D02*
X010917Y030534D01*
X010917Y030604D02*
X011103Y030604D01*
X011134Y030859D02*
X011300Y030859D01*
X011134Y030859D02*
X011134Y031045D01*
X011300Y031045D01*
X011300Y030859D01*
X011300Y030929D02*
X011134Y030929D01*
X011134Y030999D02*
X011300Y030999D01*
D15*
X008515Y026577D03*
X007806Y026577D03*
X007806Y025632D03*
X008515Y025632D03*
X010388Y021984D03*
X010388Y021275D03*
X011333Y021275D03*
X011333Y021984D03*
D16*
X008710Y032313D03*
X008710Y033396D03*
X018735Y019421D03*
X018735Y018338D03*
D17*
X018135Y018879D03*
X009311Y032854D03*
D18*
X010150Y020198D02*
X010150Y019914D01*
X010346Y019914D02*
X010346Y020198D01*
X010543Y020198D02*
X010543Y019914D01*
X010740Y019914D02*
X010740Y020198D01*
X010937Y020198D02*
X010937Y019914D01*
X011134Y019914D02*
X011134Y020198D01*
X011331Y020198D02*
X011331Y019914D01*
X011528Y019914D02*
X011528Y020198D01*
X011724Y020198D02*
X011724Y019914D01*
X011921Y019914D02*
X011921Y020198D01*
X012071Y019765D02*
X012355Y019765D01*
X012355Y019568D02*
X012071Y019568D01*
X012071Y019371D02*
X012355Y019371D01*
X012355Y019175D02*
X012071Y019175D01*
X012071Y018978D02*
X012355Y018978D01*
X012355Y018781D02*
X012071Y018781D01*
X012071Y018584D02*
X012355Y018584D01*
X012355Y018387D02*
X012071Y018387D01*
X012071Y018190D02*
X012355Y018190D01*
X012355Y017994D02*
X012071Y017994D01*
X011921Y017844D02*
X011921Y017560D01*
X011724Y017560D02*
X011724Y017844D01*
X011528Y017844D02*
X011528Y017560D01*
X011331Y017560D02*
X011331Y017844D01*
X011134Y017844D02*
X011134Y017560D01*
X010937Y017560D02*
X010937Y017844D01*
X010740Y017844D02*
X010740Y017560D01*
X010543Y017560D02*
X010543Y017844D01*
X010346Y017844D02*
X010346Y017560D01*
X010150Y017560D02*
X010150Y017844D01*
X010000Y017994D02*
X009716Y017994D01*
X009716Y018190D02*
X010000Y018190D01*
X010000Y018387D02*
X009716Y018387D01*
X009716Y018584D02*
X010000Y018584D01*
X010000Y018781D02*
X009716Y018781D01*
X009716Y018978D02*
X010000Y018978D01*
X010000Y019175D02*
X009716Y019175D01*
X009716Y019371D02*
X010000Y019371D01*
X010000Y019568D02*
X009716Y019568D01*
X009716Y019765D02*
X010000Y019765D01*
D19*
X010524Y019391D03*
X011035Y019391D03*
X011035Y018879D03*
X011035Y018368D03*
X010524Y018368D03*
X010524Y018879D03*
X011547Y018879D03*
X011547Y018368D03*
X011547Y019391D03*
D20*
X010985Y016839D03*
X010985Y016170D03*
X013860Y016170D03*
X013860Y016839D03*
X013235Y021795D03*
X013235Y022464D03*
D21*
X014276Y021879D03*
X014945Y021879D03*
X013820Y015254D03*
X013151Y015254D03*
X012320Y015379D03*
X011651Y015379D03*
D22*
X012110Y016248D03*
X012110Y016760D03*
X012610Y016760D03*
X012610Y016248D03*
X013110Y016248D03*
X013110Y016760D03*
X014860Y017623D03*
X014860Y018135D03*
X014860Y019373D03*
X014860Y019885D03*
X016610Y019885D03*
X016610Y019373D03*
X016610Y018135D03*
X016610Y017623D03*
X017985Y023998D03*
X017985Y024510D03*
D23*
X015991Y019379D03*
X015479Y019379D03*
X015479Y018129D03*
X015991Y018129D03*
X013991Y019754D03*
X013741Y020379D03*
X013479Y019754D03*
X013229Y020379D03*
X017604Y014254D03*
X018116Y014254D03*
X018116Y010004D03*
X017604Y010004D03*
X008691Y019429D03*
X008179Y019429D03*
D24*
X013486Y019004D03*
X013486Y018129D03*
X014234Y018129D03*
X014234Y019004D03*
X005734Y011254D03*
X004986Y011254D03*
D25*
X016584Y011379D03*
X016584Y011123D03*
X016584Y010868D03*
X016584Y010612D03*
X016584Y011635D03*
X016584Y011891D03*
X016584Y012147D03*
X016584Y014862D03*
X016584Y015118D03*
X016584Y015373D03*
X016584Y015629D03*
X016584Y015885D03*
X016584Y016141D03*
X016584Y016397D03*
X018887Y016397D03*
X018887Y016141D03*
X018887Y015885D03*
X018887Y015629D03*
X018887Y015373D03*
X018887Y015118D03*
X018887Y014862D03*
X018887Y012147D03*
X018887Y011891D03*
X018887Y011635D03*
X018887Y011379D03*
X018887Y011123D03*
X018887Y010868D03*
X018887Y010612D03*
D26*
X015331Y007228D03*
X015331Y006480D03*
X014465Y006854D03*
D27*
X018727Y022978D03*
X018982Y022978D03*
X019238Y022978D03*
X019494Y022978D03*
X019494Y025281D03*
X019238Y025281D03*
X018982Y025281D03*
X018727Y025281D03*
D28*
X005766Y010244D03*
X004860Y010244D03*
X003955Y010244D03*
D29*
X004860Y007764D03*
D30*
X006985Y008630D03*
X006985Y009378D03*
M02*
