G75*
G70*
%OFA0B0*%
%FSLAX24Y24*%
%IPPOS*%
%LPD*%
%AMOC8*
5,1,8,0,0,1.08239X$1,22.5*
%
%ADD10C,0.0000*%
D10*
X001110Y001429D02*
X001110Y035754D01*
X022110Y035754D01*
X022110Y001429D01*
X001110Y001429D01*
X004350Y002960D02*
X004352Y003010D01*
X004358Y003060D01*
X004368Y003110D01*
X004381Y003158D01*
X004398Y003206D01*
X004419Y003252D01*
X004443Y003296D01*
X004471Y003338D01*
X004502Y003378D01*
X004536Y003415D01*
X004573Y003450D01*
X004612Y003481D01*
X004653Y003510D01*
X004697Y003535D01*
X004743Y003557D01*
X004790Y003575D01*
X004838Y003589D01*
X004887Y003600D01*
X004937Y003607D01*
X004987Y003610D01*
X005038Y003609D01*
X005088Y003604D01*
X005138Y003595D01*
X005186Y003583D01*
X005234Y003566D01*
X005280Y003546D01*
X005325Y003523D01*
X005368Y003496D01*
X005408Y003466D01*
X005446Y003433D01*
X005481Y003397D01*
X005514Y003358D01*
X005543Y003317D01*
X005569Y003274D01*
X005592Y003229D01*
X005611Y003182D01*
X005626Y003134D01*
X005638Y003085D01*
X005646Y003035D01*
X005650Y002985D01*
X005650Y002935D01*
X005646Y002885D01*
X005638Y002835D01*
X005626Y002786D01*
X005611Y002738D01*
X005592Y002691D01*
X005569Y002646D01*
X005543Y002603D01*
X005514Y002562D01*
X005481Y002523D01*
X005446Y002487D01*
X005408Y002454D01*
X005368Y002424D01*
X005325Y002397D01*
X005280Y002374D01*
X005234Y002354D01*
X005186Y002337D01*
X005138Y002325D01*
X005088Y002316D01*
X005038Y002311D01*
X004987Y002310D01*
X004937Y002313D01*
X004887Y002320D01*
X004838Y002331D01*
X004790Y002345D01*
X004743Y002363D01*
X004697Y002385D01*
X004653Y002410D01*
X004612Y002439D01*
X004573Y002470D01*
X004536Y002505D01*
X004502Y002542D01*
X004471Y002582D01*
X004443Y002624D01*
X004419Y002668D01*
X004398Y002714D01*
X004381Y002762D01*
X004368Y002810D01*
X004358Y002860D01*
X004352Y002910D01*
X004350Y002960D01*
X015571Y002960D02*
X015573Y003010D01*
X015579Y003060D01*
X015589Y003110D01*
X015602Y003158D01*
X015619Y003206D01*
X015640Y003252D01*
X015664Y003296D01*
X015692Y003338D01*
X015723Y003378D01*
X015757Y003415D01*
X015794Y003450D01*
X015833Y003481D01*
X015874Y003510D01*
X015918Y003535D01*
X015964Y003557D01*
X016011Y003575D01*
X016059Y003589D01*
X016108Y003600D01*
X016158Y003607D01*
X016208Y003610D01*
X016259Y003609D01*
X016309Y003604D01*
X016359Y003595D01*
X016407Y003583D01*
X016455Y003566D01*
X016501Y003546D01*
X016546Y003523D01*
X016589Y003496D01*
X016629Y003466D01*
X016667Y003433D01*
X016702Y003397D01*
X016735Y003358D01*
X016764Y003317D01*
X016790Y003274D01*
X016813Y003229D01*
X016832Y003182D01*
X016847Y003134D01*
X016859Y003085D01*
X016867Y003035D01*
X016871Y002985D01*
X016871Y002935D01*
X016867Y002885D01*
X016859Y002835D01*
X016847Y002786D01*
X016832Y002738D01*
X016813Y002691D01*
X016790Y002646D01*
X016764Y002603D01*
X016735Y002562D01*
X016702Y002523D01*
X016667Y002487D01*
X016629Y002454D01*
X016589Y002424D01*
X016546Y002397D01*
X016501Y002374D01*
X016455Y002354D01*
X016407Y002337D01*
X016359Y002325D01*
X016309Y002316D01*
X016259Y002311D01*
X016208Y002310D01*
X016158Y002313D01*
X016108Y002320D01*
X016059Y002331D01*
X016011Y002345D01*
X015964Y002363D01*
X015918Y002385D01*
X015874Y002410D01*
X015833Y002439D01*
X015794Y002470D01*
X015757Y002505D01*
X015723Y002542D01*
X015692Y002582D01*
X015664Y002624D01*
X015640Y002668D01*
X015619Y002714D01*
X015602Y002762D01*
X015589Y002810D01*
X015579Y002860D01*
X015573Y002910D01*
X015571Y002960D01*
X015571Y023433D02*
X015573Y023483D01*
X015579Y023533D01*
X015589Y023583D01*
X015602Y023631D01*
X015619Y023679D01*
X015640Y023725D01*
X015664Y023769D01*
X015692Y023811D01*
X015723Y023851D01*
X015757Y023888D01*
X015794Y023923D01*
X015833Y023954D01*
X015874Y023983D01*
X015918Y024008D01*
X015964Y024030D01*
X016011Y024048D01*
X016059Y024062D01*
X016108Y024073D01*
X016158Y024080D01*
X016208Y024083D01*
X016259Y024082D01*
X016309Y024077D01*
X016359Y024068D01*
X016407Y024056D01*
X016455Y024039D01*
X016501Y024019D01*
X016546Y023996D01*
X016589Y023969D01*
X016629Y023939D01*
X016667Y023906D01*
X016702Y023870D01*
X016735Y023831D01*
X016764Y023790D01*
X016790Y023747D01*
X016813Y023702D01*
X016832Y023655D01*
X016847Y023607D01*
X016859Y023558D01*
X016867Y023508D01*
X016871Y023458D01*
X016871Y023408D01*
X016867Y023358D01*
X016859Y023308D01*
X016847Y023259D01*
X016832Y023211D01*
X016813Y023164D01*
X016790Y023119D01*
X016764Y023076D01*
X016735Y023035D01*
X016702Y022996D01*
X016667Y022960D01*
X016629Y022927D01*
X016589Y022897D01*
X016546Y022870D01*
X016501Y022847D01*
X016455Y022827D01*
X016407Y022810D01*
X016359Y022798D01*
X016309Y022789D01*
X016259Y022784D01*
X016208Y022783D01*
X016158Y022786D01*
X016108Y022793D01*
X016059Y022804D01*
X016011Y022818D01*
X015964Y022836D01*
X015918Y022858D01*
X015874Y022883D01*
X015833Y022912D01*
X015794Y022943D01*
X015757Y022978D01*
X015723Y023015D01*
X015692Y023055D01*
X015664Y023097D01*
X015640Y023141D01*
X015619Y023187D01*
X015602Y023235D01*
X015589Y023283D01*
X015579Y023333D01*
X015573Y023383D01*
X015571Y023433D01*
X004350Y023433D02*
X004352Y023483D01*
X004358Y023533D01*
X004368Y023583D01*
X004381Y023631D01*
X004398Y023679D01*
X004419Y023725D01*
X004443Y023769D01*
X004471Y023811D01*
X004502Y023851D01*
X004536Y023888D01*
X004573Y023923D01*
X004612Y023954D01*
X004653Y023983D01*
X004697Y024008D01*
X004743Y024030D01*
X004790Y024048D01*
X004838Y024062D01*
X004887Y024073D01*
X004937Y024080D01*
X004987Y024083D01*
X005038Y024082D01*
X005088Y024077D01*
X005138Y024068D01*
X005186Y024056D01*
X005234Y024039D01*
X005280Y024019D01*
X005325Y023996D01*
X005368Y023969D01*
X005408Y023939D01*
X005446Y023906D01*
X005481Y023870D01*
X005514Y023831D01*
X005543Y023790D01*
X005569Y023747D01*
X005592Y023702D01*
X005611Y023655D01*
X005626Y023607D01*
X005638Y023558D01*
X005646Y023508D01*
X005650Y023458D01*
X005650Y023408D01*
X005646Y023358D01*
X005638Y023308D01*
X005626Y023259D01*
X005611Y023211D01*
X005592Y023164D01*
X005569Y023119D01*
X005543Y023076D01*
X005514Y023035D01*
X005481Y022996D01*
X005446Y022960D01*
X005408Y022927D01*
X005368Y022897D01*
X005325Y022870D01*
X005280Y022847D01*
X005234Y022827D01*
X005186Y022810D01*
X005138Y022798D01*
X005088Y022789D01*
X005038Y022784D01*
X004987Y022783D01*
X004937Y022786D01*
X004887Y022793D01*
X004838Y022804D01*
X004790Y022818D01*
X004743Y022836D01*
X004697Y022858D01*
X004653Y022883D01*
X004612Y022912D01*
X004573Y022943D01*
X004536Y022978D01*
X004502Y023015D01*
X004471Y023055D01*
X004443Y023097D01*
X004419Y023141D01*
X004398Y023187D01*
X004381Y023235D01*
X004368Y023283D01*
X004358Y023333D01*
X004352Y023383D01*
X004350Y023433D01*
M02*
