%
M48
M72
T01C0.0157
T02C0.0200
T03C0.0236
T04C0.0315
T05C0.0400
T06C0.1299
%
T01
X6798Y11192
X7485Y12067
X7485Y12879
X7485Y13629
X8235Y14629
X8610Y14254
X8610Y13629
X8235Y15754
X8610Y17629
X8235Y17942
X8360Y18379
X8735Y19879
X8235Y20129
X8235Y20879
X7610Y20254
X6360Y18379
X6735Y17942
X7110Y17629
X5360Y15754
X5735Y15192
X6048Y14629
X6360Y14004
X5985Y12254
X4985Y13379
X4485Y15754
X7860Y11192
X9985Y11567
X10360Y12504
X11110Y15379
X10610Y15754
X10360Y16379
X10485Y17004
X10485Y18254
X10485Y18629
X10485Y19004
X10860Y19004
X10860Y18629
X10860Y18254
X11235Y18254
X11235Y18629
X11235Y19004
X11235Y19379
X10860Y19379
X10485Y19379
X11610Y19379
X11610Y19004
X11610Y18629
X11610Y18254
X11485Y17004
X12485Y17629
X12860Y17879
X12860Y18629
X13110Y19754
X12360Y20879
X11985Y20629
X12298Y22317
X12985Y23129
X14060Y23029
X14060Y22654
X14435Y22654
X14435Y23029
X15548Y22004
X15985Y21567
X16235Y21004
X16610Y20442
X17110Y20754
X17110Y20129
X17610Y20129
X17798Y20629
X18110Y20129
X18360Y20629
X18610Y20129
X18860Y20629
X19110Y20129
X19360Y20629
X19610Y20129
X19860Y19629
X19860Y18879
X19610Y18254
X19110Y17754
X18610Y17754
X18110Y17754
X17610Y17629
X17735Y17254
X17110Y17254
X17110Y17629
X16610Y17254
X16173Y17567
X15735Y17629
X15860Y17129
X15610Y16754
X15360Y17129
X14860Y17254
X14985Y16629
X15735Y16129
X15735Y15192
X15235Y14629
X14610Y15004
X13485Y15817
X13048Y15692
X12610Y15879
X14985Y12879
X15985Y11754
X15985Y10754
X17110Y10004
X18610Y10129
X19735Y9129
X20110Y9754
X20110Y12254
X19110Y13754
X18610Y14379
X17985Y13254
X18110Y12254
X18860Y12504
X19485Y15379
X19485Y16629
X17235Y15379
X16610Y14379
X14610Y11004
X13985Y9129
X13360Y8004
X12610Y8379
X12610Y6629
X11110Y6504
X10735Y6879
X9985Y6879
X11110Y8504
X14360Y20129
X15235Y20754
X15735Y20754
X15860Y20254
X13735Y21254
X13810Y24904
X13810Y25304
X14210Y25304
X14210Y24904
X13860Y26254
X13260Y27004
X13310Y27604
X13710Y27304
X13710Y27904
X13560Y28254
X13560Y28804
X14010Y28854
X14460Y28854
X14760Y29254
X14760Y29654
X14410Y30254
X14510Y30904
X14510Y31804
X14560Y32754
X14560Y33954
X15610Y34004
X15610Y32754
X15610Y31254
X15610Y29754
X15610Y28254
X15610Y27004
X15610Y26254
X17110Y26254
X17110Y27004
X17110Y28254
X17110Y29754
X18360Y29754
X18360Y28004
X19235Y26629
X18360Y26254
X19860Y24504
X17985Y22754
X19860Y28504
X18360Y31254
X18360Y32754
X18360Y34129
X17110Y34004
X17110Y32754
X17110Y31254
X13710Y30854
X13310Y31254
X13310Y31804
X13560Y32254
X13510Y33254
X13510Y34004
X12660Y33304
X12160Y33454
X11570Y33435
X12010Y34204
X10941Y33415
X9810Y31604
X9510Y32254
X9160Y31754
X9360Y31204
X9860Y30704
X9485Y30229
X10260Y30704
X10260Y31154
X10660Y30954
X10660Y31454
X11110Y31454
X11610Y31454
X12110Y31454
X12060Y30604
X13110Y28604
X11548Y25892
X10960Y25804
X11210Y25129
X10610Y25504
X10310Y25154
X9710Y25604
X9960Y25954
X9660Y26654
X8210Y28954
X8085Y28379
X7960Y27829
X7510Y27629
X7410Y28154
X7585Y28654
X8285Y29604
X8610Y30154
X8760Y31204
X8710Y31754
X8260Y31754
X8010Y31204
X7410Y31204
X7810Y30154
X6360Y29754
X5485Y29754
X5485Y28004
X6360Y28004
X6360Y26254
X5610Y26379
X7560Y25104
X7235Y23192
X8548Y22879
X9860Y22004
X12310Y25079
X7810Y32354
X7810Y32854
X7810Y33354
X8210Y33954
X8710Y33954
X9210Y33954
X9510Y33454
X7360Y34254
X6360Y34254
X5485Y34254
X5485Y32754
X6360Y32754
X6360Y31254
X5485Y31254
T02
X10260Y28354
X10260Y27954
X10260Y27554
X10660Y27554
X10660Y27954
X11060Y27954
X11060Y27554
X11060Y28354
X10660Y28354
T03
X9485Y9129
X9485Y7629
T04
X6610Y10254
X5110Y7004
X4485Y7004
X3360Y18379
X3360Y19129
X4485Y21004
X3860Y21504
X3360Y22004
X15985Y7254
T05
X2110Y3754
X2110Y4754
X2110Y5754
X2110Y6754
X2110Y7754
X2110Y8754
X2110Y10754
X2110Y11754
X2110Y12754
X2110Y13754
X2110Y14754
X2110Y15754
X2110Y17754
X2110Y18754
X2110Y19754
X2110Y20754
X2110Y21754
X2110Y22754
X2110Y23754
X2110Y24754
X9110Y23449
X10110Y23449
X11110Y23449
X12110Y23449
X12110Y10704
X12110Y9704
X11110Y9704
X11110Y10704
X13110Y10704
X13110Y9704
X13110Y2779
X12110Y2779
X11110Y2779
X10110Y2779
X9110Y2779
X8110Y2779
X7110Y2779
X14110Y2779
X21110Y10754
X21110Y11754
X21110Y12754
X21110Y13754
X21110Y14754
X21110Y15754
X21110Y16754
X21110Y17754
X21110Y19354
X21110Y20354
X21110Y21354
X21110Y22354
X21110Y23354
X21110Y24354
X21110Y25354
X21110Y26354
X21110Y27354
X21110Y28354
T06
X16221Y23433
X5000Y23433
X5000Y2960
X16221Y2960
M30
