G75*
G70*
%OFA0B0*%
%FSLAX24Y24*%
%IPPOS*%
%LPD*%
%AMOC8*
5,1,8,0,0,1.08239X$1,22.5*
%
%ADD10C,0.0600*%
%ADD11C,0.0600*%
%ADD12OC8,0.0600*%
%ADD13C,0.0317*%
%ADD14C,0.0360*%
%ADD15C,0.0060*%
%ADD16C,0.0560*%
%ADD17C,0.0475*%
%ADD18C,0.0100*%
%ADD19C,0.0160*%
%ADD20C,0.0080*%
%ADD21C,0.0396*%
D10*
X001810Y003754D02*
X002410Y003754D01*
X002410Y004754D02*
X001810Y004754D01*
X001810Y005754D02*
X002410Y005754D01*
X002410Y006754D02*
X001810Y006754D01*
X001810Y007754D02*
X002410Y007754D01*
X002410Y008754D02*
X001810Y008754D01*
X001810Y010754D02*
X002410Y010754D01*
X002410Y011754D02*
X001810Y011754D01*
X001810Y012754D02*
X002410Y012754D01*
X002410Y013754D02*
X001810Y013754D01*
X001810Y014754D02*
X002410Y014754D01*
X002410Y015754D02*
X001810Y015754D01*
X001810Y017754D02*
X002410Y017754D01*
X002410Y018754D02*
X001810Y018754D01*
X001810Y019754D02*
X002410Y019754D01*
X002410Y020754D02*
X001810Y020754D01*
X001810Y021754D02*
X002410Y021754D01*
X002410Y022754D02*
X001810Y022754D01*
X001810Y023754D02*
X002410Y023754D01*
X002410Y024754D02*
X001810Y024754D01*
X009110Y023749D02*
X009110Y023149D01*
X010110Y023149D02*
X010110Y023749D01*
X011110Y023749D02*
X011110Y023149D01*
X012110Y023149D02*
X012110Y023749D01*
X020810Y023354D02*
X021410Y023354D01*
X021410Y024354D02*
X020810Y024354D01*
X020810Y025354D02*
X021410Y025354D01*
X021410Y026354D02*
X020810Y026354D01*
X020810Y027354D02*
X021410Y027354D01*
X021410Y028354D02*
X020810Y028354D01*
X020810Y022354D02*
X021410Y022354D01*
X021410Y021354D02*
X020810Y021354D01*
X020810Y020354D02*
X021410Y020354D01*
X021410Y019354D02*
X020810Y019354D01*
X020810Y017754D02*
X021410Y017754D01*
X021410Y016754D02*
X020810Y016754D01*
X020810Y015754D02*
X021410Y015754D01*
X021410Y014754D02*
X020810Y014754D01*
X020810Y013754D02*
X021410Y013754D01*
X021410Y012754D02*
X020810Y012754D01*
X020810Y011754D02*
X021410Y011754D01*
X021410Y010754D02*
X020810Y010754D01*
X014110Y003079D02*
X014110Y002479D01*
X013110Y002479D02*
X013110Y003079D01*
X012110Y003079D02*
X012110Y002479D01*
X011110Y002479D02*
X011110Y003079D01*
X010110Y003079D02*
X010110Y002479D01*
X009110Y002479D02*
X009110Y003079D01*
X008110Y003079D02*
X008110Y002479D01*
X007110Y002479D02*
X007110Y003079D01*
D11*
X013110Y010704D03*
D12*
X013110Y009704D03*
X012110Y009704D03*
X012110Y010704D03*
X011110Y010704D03*
X011110Y009704D03*
D13*
X011110Y008504D03*
X010735Y006879D03*
X011110Y006504D03*
X009985Y006879D03*
X012610Y006629D03*
X013360Y008004D03*
X012610Y008379D03*
X013985Y009129D03*
X014610Y011004D03*
X014985Y012879D03*
X015985Y011754D03*
X015985Y010754D03*
X017110Y010004D03*
X018610Y010129D03*
X019735Y009129D03*
X020110Y009754D03*
X020110Y012254D03*
X019110Y013754D03*
X018610Y014379D03*
X017985Y013254D03*
X018110Y012254D03*
X018860Y012504D03*
X019485Y015379D03*
X019485Y016629D03*
X019110Y017754D03*
X018610Y017754D03*
X018110Y017754D03*
X017610Y017629D03*
X017735Y017254D03*
X017110Y017254D03*
X017110Y017629D03*
X016610Y017254D03*
X016173Y017567D03*
X015735Y017629D03*
X015860Y017129D03*
X015610Y016754D03*
X015360Y017129D03*
X014860Y017254D03*
X014985Y016629D03*
X015735Y016129D03*
X015735Y015192D03*
X015235Y014629D03*
X014610Y015004D03*
X013485Y015817D03*
X013048Y015692D03*
X012610Y015879D03*
X011485Y017004D03*
X011610Y018254D03*
X011610Y018629D03*
X011610Y019004D03*
X011235Y019004D03*
X011235Y018629D03*
X011235Y018254D03*
X010860Y018254D03*
X010485Y018254D03*
X010485Y018629D03*
X010485Y019004D03*
X010860Y019004D03*
X010860Y018629D03*
X010860Y019379D03*
X010485Y019379D03*
X011235Y019379D03*
X011610Y019379D03*
X011985Y020629D03*
X012360Y020879D03*
X013110Y019754D03*
X012860Y018629D03*
X012860Y017879D03*
X012485Y017629D03*
X011110Y015379D03*
X010610Y015754D03*
X010360Y016379D03*
X010485Y017004D03*
X008610Y017629D03*
X008235Y017942D03*
X008360Y018379D03*
X008735Y019879D03*
X008235Y020129D03*
X008235Y020879D03*
X007610Y020254D03*
X006360Y018379D03*
X006735Y017942D03*
X007110Y017629D03*
X008235Y015754D03*
X008235Y014629D03*
X008610Y014254D03*
X008610Y013629D03*
X007485Y013629D03*
X007485Y012879D03*
X007485Y012067D03*
X007860Y011192D03*
X006798Y011192D03*
X005985Y012254D03*
X004985Y013379D03*
X006048Y014629D03*
X006360Y014004D03*
X005735Y015192D03*
X005360Y015754D03*
X004485Y015754D03*
X008548Y022879D03*
X007235Y023192D03*
X007560Y025104D03*
X006360Y026254D03*
X005610Y026379D03*
X005485Y028004D03*
X006360Y028004D03*
X006360Y029754D03*
X005485Y029754D03*
X005485Y031254D03*
X006360Y031254D03*
X006360Y032754D03*
X005485Y032754D03*
X005485Y034254D03*
X006360Y034254D03*
X007360Y034254D03*
X007810Y033354D03*
X007810Y032854D03*
X007810Y032354D03*
X008260Y031754D03*
X008010Y031204D03*
X007410Y031204D03*
X007810Y030154D03*
X008285Y029604D03*
X008610Y030154D03*
X008760Y031204D03*
X008710Y031754D03*
X009160Y031754D03*
X009360Y031204D03*
X009810Y031604D03*
X009510Y032254D03*
X010260Y031154D03*
X010260Y030704D03*
X009860Y030704D03*
X009485Y030229D03*
X010660Y030954D03*
X010660Y031454D03*
X011110Y031454D03*
X011610Y031454D03*
X012110Y031454D03*
X012060Y030604D03*
X013310Y031254D03*
X013310Y031804D03*
X013560Y032254D03*
X013510Y033254D03*
X013510Y034004D03*
X012660Y033304D03*
X012160Y033454D03*
X011570Y033435D03*
X012010Y034204D03*
X010941Y033415D03*
X009510Y033454D03*
X009210Y033954D03*
X008710Y033954D03*
X008210Y033954D03*
X008210Y028954D03*
X008085Y028379D03*
X007960Y027829D03*
X007510Y027629D03*
X007410Y028154D03*
X007585Y028654D03*
X009660Y026654D03*
X009960Y025954D03*
X009710Y025604D03*
X010310Y025154D03*
X010610Y025504D03*
X010960Y025804D03*
X011210Y025129D03*
X011548Y025892D03*
X012310Y025079D03*
X012985Y023129D03*
X012298Y022317D03*
X013735Y021254D03*
X014360Y020129D03*
X015235Y020754D03*
X015735Y020754D03*
X015860Y020254D03*
X016235Y021004D03*
X016610Y020442D03*
X017110Y020754D03*
X017110Y020129D03*
X017610Y020129D03*
X017798Y020629D03*
X018110Y020129D03*
X018360Y020629D03*
X018610Y020129D03*
X018860Y020629D03*
X019110Y020129D03*
X019360Y020629D03*
X019610Y020129D03*
X019860Y019629D03*
X019860Y018879D03*
X019610Y018254D03*
X017235Y015379D03*
X016610Y014379D03*
X015985Y021567D03*
X015548Y022004D03*
X014435Y022654D03*
X014435Y023029D03*
X014060Y023029D03*
X014060Y022654D03*
X014210Y024904D03*
X014210Y025304D03*
X013810Y025304D03*
X013810Y024904D03*
X013860Y026254D03*
X013260Y027004D03*
X013310Y027604D03*
X013710Y027304D03*
X013710Y027904D03*
X013560Y028254D03*
X013560Y028804D03*
X014010Y028854D03*
X014460Y028854D03*
X014760Y029254D03*
X014760Y029654D03*
X014410Y030254D03*
X014510Y030904D03*
X014510Y031804D03*
X014560Y032754D03*
X014560Y033954D03*
X015610Y034004D03*
X015610Y032754D03*
X015610Y031254D03*
X015610Y029754D03*
X015610Y028254D03*
X015610Y027004D03*
X015610Y026254D03*
X017110Y026254D03*
X017110Y027004D03*
X017110Y028254D03*
X017110Y029754D03*
X018360Y029754D03*
X018360Y028004D03*
X019235Y026629D03*
X018360Y026254D03*
X019860Y024504D03*
X017985Y022754D03*
X019860Y028504D03*
X018360Y031254D03*
X018360Y032754D03*
X018360Y034129D03*
X017110Y034004D03*
X017110Y032754D03*
X017110Y031254D03*
X013710Y030854D03*
X013110Y028604D03*
X009860Y022004D03*
X010360Y012504D03*
X009985Y011567D03*
D14*
X010260Y027554D03*
X010260Y027954D03*
X010260Y028354D03*
X010660Y028354D03*
X011060Y028354D03*
X011060Y027954D03*
X010660Y027954D03*
X010660Y027554D03*
X011060Y027554D03*
D15*
X010214Y026194D02*
X018610Y026194D01*
X018610Y026136D02*
X011072Y026136D01*
X011030Y026153D02*
X010891Y026153D01*
X010763Y026100D01*
X010665Y026002D01*
X010612Y025874D01*
X010612Y025735D01*
X010665Y025607D01*
X010763Y025509D01*
X010891Y025456D01*
X011030Y025456D01*
X011158Y025509D01*
X011256Y025607D01*
X011309Y025735D01*
X011309Y025874D01*
X011256Y026002D01*
X011158Y026100D01*
X011030Y026153D01*
X011181Y026077D02*
X018610Y026077D01*
X018610Y026018D02*
X011239Y026018D01*
X011273Y025960D02*
X018610Y025960D01*
X018610Y025901D02*
X011298Y025901D01*
X011309Y025843D02*
X018610Y025843D01*
X018610Y025784D02*
X011309Y025784D01*
X011305Y025726D02*
X020110Y025726D01*
X020110Y025754D02*
X020110Y024748D01*
X020058Y024800D01*
X019930Y024853D01*
X019791Y024853D01*
X019663Y024800D01*
X019565Y024702D01*
X019512Y024574D01*
X019512Y024435D01*
X019565Y024307D01*
X019663Y024209D01*
X019791Y024156D01*
X019930Y024156D01*
X020058Y024209D01*
X020110Y024261D01*
X020109Y016592D01*
X019985Y016469D01*
X019834Y016620D01*
X019834Y016699D01*
X019781Y016827D01*
X019683Y016925D01*
X019555Y016978D01*
X019416Y016978D01*
X019288Y016925D01*
X019190Y016827D01*
X011789Y016827D01*
X011781Y016807D02*
X011834Y016935D01*
X011834Y017074D01*
X011781Y017202D01*
X011683Y017300D01*
X011555Y017353D01*
X011416Y017353D01*
X011288Y017300D01*
X011232Y017244D01*
X010739Y017244D01*
X010683Y017300D01*
X010555Y017353D01*
X010416Y017353D01*
X010288Y017300D01*
X010190Y017202D01*
X010137Y017074D01*
X010137Y016935D01*
X010190Y016807D01*
X010275Y016721D01*
X010163Y016675D01*
X010065Y016577D01*
X010012Y016449D01*
X010012Y016310D01*
X010065Y016182D01*
X010163Y016084D01*
X010291Y016031D01*
X010430Y016031D01*
X010558Y016084D01*
X010656Y016182D01*
X010709Y016310D01*
X010709Y016449D01*
X010656Y016577D01*
X010571Y016662D01*
X010683Y016709D01*
X010739Y016764D01*
X011232Y016764D01*
X011288Y016709D01*
X011416Y016656D01*
X011555Y016656D01*
X011683Y016709D01*
X011781Y016807D01*
X011743Y016769D02*
X019166Y016769D01*
X019190Y016827D02*
X019137Y016699D01*
X019137Y016560D01*
X019190Y016432D01*
X019288Y016334D01*
X019416Y016281D01*
X019495Y016281D01*
X019620Y016155D01*
X019620Y015701D01*
X019555Y015728D01*
X019416Y015728D01*
X019288Y015675D01*
X019190Y015577D01*
X019137Y015449D01*
X019137Y015310D01*
X019190Y015182D01*
X019288Y015084D01*
X019370Y015049D01*
X019370Y013987D01*
X019308Y014050D01*
X019180Y014103D01*
X019041Y014103D01*
X018913Y014050D01*
X018815Y013952D01*
X018762Y013824D01*
X018762Y013685D01*
X018815Y013557D01*
X018913Y013459D01*
X019041Y013406D01*
X019180Y013406D01*
X019308Y013459D01*
X019370Y013521D01*
X019370Y012979D01*
X019349Y012958D01*
X019282Y012890D01*
X019245Y012802D01*
X019245Y012052D01*
X019245Y011957D01*
X019282Y011868D01*
X019620Y011530D01*
X019620Y010354D01*
X019599Y010333D01*
X019532Y010265D01*
X019495Y010177D01*
X019495Y009383D01*
X019440Y009327D01*
X019387Y009199D01*
X019387Y009060D01*
X019440Y008932D01*
X019538Y008834D01*
X019666Y008781D01*
X019805Y008781D01*
X019933Y008834D01*
X020031Y008932D01*
X020084Y009060D01*
X020084Y009199D01*
X020031Y009327D01*
X019975Y009383D01*
X019975Y009433D01*
X020041Y009406D01*
X020108Y009406D01*
X020107Y003334D01*
X017238Y003334D01*
X017227Y003377D01*
X017084Y003623D01*
X016884Y003824D01*
X016637Y003966D01*
X016363Y004040D01*
X016078Y004040D01*
X015804Y003966D01*
X015558Y003824D01*
X015357Y003623D01*
X015215Y003377D01*
X015203Y003334D01*
X014535Y003334D01*
X014526Y003357D01*
X014388Y003495D01*
X014208Y003569D01*
X014013Y003569D01*
X013833Y003495D01*
X013695Y003357D01*
X013686Y003334D01*
X013535Y003334D01*
X013526Y003357D01*
X013388Y003495D01*
X013208Y003569D01*
X013013Y003569D01*
X012833Y003495D01*
X012695Y003357D01*
X012686Y003334D01*
X012535Y003334D01*
X012526Y003357D01*
X012388Y003495D01*
X012208Y003569D01*
X012013Y003569D01*
X011833Y003495D01*
X011695Y003357D01*
X011686Y003334D01*
X011535Y003334D01*
X011526Y003357D01*
X011388Y003495D01*
X011208Y003569D01*
X011013Y003569D01*
X010833Y003495D01*
X010695Y003357D01*
X010686Y003334D01*
X010535Y003334D01*
X010526Y003357D01*
X010388Y003495D01*
X010208Y003569D01*
X010013Y003569D01*
X009833Y003495D01*
X009695Y003357D01*
X009686Y003334D01*
X009535Y003334D01*
X009526Y003357D01*
X009388Y003495D01*
X009208Y003569D01*
X009013Y003569D01*
X008833Y003495D01*
X008695Y003357D01*
X008686Y003334D01*
X008456Y003334D01*
X008438Y003359D01*
X008391Y003407D01*
X008336Y003447D01*
X008275Y003478D01*
X008211Y003499D01*
X008144Y003509D01*
X008140Y003509D01*
X008140Y003334D01*
X008080Y003334D01*
X008080Y003509D01*
X008076Y003509D01*
X008010Y003499D01*
X007945Y003478D01*
X007885Y003447D01*
X007830Y003407D01*
X007782Y003359D01*
X007764Y003334D01*
X007535Y003334D01*
X007526Y003357D01*
X007388Y003495D01*
X007208Y003569D01*
X007013Y003569D01*
X006833Y003495D01*
X006695Y003357D01*
X006686Y003334D01*
X006018Y003334D01*
X006006Y003377D01*
X005864Y003623D01*
X005663Y003824D01*
X005417Y003966D01*
X005142Y004040D01*
X004858Y004040D01*
X004583Y003966D01*
X004337Y003824D01*
X004136Y003623D01*
X003994Y003377D01*
X003983Y003334D01*
X003107Y003334D01*
X003109Y014514D01*
X005346Y014514D01*
X005431Y014550D01*
X005434Y014551D01*
X005501Y014618D01*
X005501Y014618D01*
X005726Y014843D01*
X005769Y014843D01*
X005752Y014827D01*
X005699Y014699D01*
X005699Y014560D01*
X005752Y014432D01*
X005850Y014334D01*
X005979Y014281D01*
X006117Y014281D01*
X006162Y014299D01*
X006065Y014202D01*
X006012Y014074D01*
X006012Y013935D01*
X006065Y013807D01*
X006163Y013709D01*
X006291Y013656D01*
X006430Y013656D01*
X006558Y013709D01*
X006614Y013764D01*
X007164Y013764D01*
X007137Y013699D01*
X007137Y013560D01*
X007190Y013432D01*
X005334Y013432D01*
X005334Y013449D02*
X005334Y013370D01*
X005585Y013119D01*
X007232Y013119D01*
X007288Y013175D01*
X007416Y013228D01*
X007555Y013228D01*
X007683Y013175D01*
X007781Y013077D01*
X007834Y012949D01*
X007834Y012810D01*
X007781Y012682D01*
X007683Y012584D01*
X007555Y012531D01*
X007416Y012531D01*
X007288Y012584D01*
X007232Y012639D01*
X005438Y012639D01*
X005349Y012676D01*
X005282Y012743D01*
X004995Y013031D01*
X004916Y013031D01*
X004788Y013084D01*
X004690Y013182D01*
X004637Y013310D01*
X004637Y013449D01*
X004690Y013577D01*
X004788Y013675D01*
X004916Y013728D01*
X005055Y013728D01*
X005183Y013675D01*
X005281Y013577D01*
X005334Y013449D01*
X005317Y013490D02*
X007166Y013490D01*
X007190Y013432D02*
X007288Y013334D01*
X007416Y013281D01*
X007555Y013281D01*
X007683Y013334D01*
X007739Y013389D01*
X008357Y013389D01*
X008413Y013334D01*
X008541Y013281D01*
X008680Y013281D01*
X008808Y013334D01*
X008906Y013432D01*
X008959Y013560D01*
X008959Y013699D01*
X008906Y013827D01*
X008808Y013925D01*
X008767Y013942D01*
X008808Y013959D01*
X008906Y014057D01*
X008959Y014185D01*
X008959Y014324D01*
X008906Y014452D01*
X008808Y014550D01*
X008680Y014603D01*
X008584Y014603D01*
X008584Y014699D01*
X008531Y014827D01*
X008433Y014925D01*
X008305Y014978D01*
X008166Y014978D01*
X008038Y014925D01*
X007982Y014869D01*
X006301Y014869D01*
X006245Y014925D01*
X006117Y014978D01*
X006015Y014978D01*
X006031Y014994D01*
X006084Y015122D01*
X006084Y015261D01*
X006031Y015389D01*
X005933Y015487D01*
X005868Y015514D01*
X007982Y015514D01*
X008038Y015459D01*
X008166Y015406D01*
X008305Y015406D01*
X008433Y015459D01*
X008531Y015557D01*
X008584Y015685D01*
X008584Y015824D01*
X008531Y015952D01*
X008433Y016050D01*
X008305Y016103D01*
X008166Y016103D01*
X008038Y016050D01*
X007982Y015994D01*
X005614Y015994D01*
X005558Y016050D01*
X005430Y016103D01*
X005291Y016103D01*
X005163Y016050D01*
X005065Y015952D01*
X005012Y015824D01*
X005012Y015685D01*
X005065Y015557D01*
X005163Y015459D01*
X005291Y015406D01*
X005430Y015406D01*
X005475Y015424D01*
X005440Y015389D01*
X005387Y015261D01*
X005387Y015182D01*
X005199Y014994D01*
X003109Y014994D01*
X003109Y015514D01*
X004232Y015514D01*
X004288Y015459D01*
X004416Y015406D01*
X004555Y015406D01*
X004683Y015459D01*
X004781Y015557D01*
X004834Y015685D01*
X004834Y015824D01*
X004781Y015952D01*
X004683Y016050D01*
X004555Y016103D01*
X004416Y016103D01*
X004288Y016050D01*
X004232Y015994D01*
X003109Y015994D01*
X003110Y025754D01*
X005110Y025754D01*
X005110Y034504D01*
X018610Y034504D01*
X018610Y025754D01*
X020110Y025754D01*
X020110Y025667D02*
X011281Y025667D01*
X011257Y025609D02*
X013634Y025609D01*
X013613Y025600D02*
X013515Y025502D01*
X013462Y025374D01*
X012508Y025374D01*
X012508Y025375D02*
X012380Y025428D01*
X012241Y025428D01*
X012113Y025375D01*
X012057Y025319D01*
X011509Y025319D01*
X011506Y025327D01*
X011408Y025425D01*
X011280Y025478D01*
X011141Y025478D01*
X011013Y025425D01*
X010915Y025327D01*
X010862Y025199D01*
X010659Y025199D01*
X010659Y025224D02*
X010606Y025352D01*
X010508Y025450D01*
X010490Y025457D01*
X010490Y025500D01*
X010356Y025634D01*
X010356Y025634D01*
X010290Y025700D01*
X010290Y025840D01*
X010309Y025885D01*
X010309Y026024D01*
X010256Y026152D01*
X010158Y026250D01*
X010030Y026303D01*
X009891Y026303D01*
X009763Y026250D01*
X009665Y026152D01*
X009612Y026024D01*
X009612Y025885D01*
X009665Y025757D01*
X009763Y025659D01*
X009830Y025631D01*
X009830Y025509D01*
X010007Y025333D01*
X009962Y025224D01*
X009962Y025085D01*
X010015Y024957D01*
X010113Y024859D01*
X010241Y024806D01*
X010380Y024806D01*
X010508Y024859D01*
X010606Y024957D01*
X010659Y025085D01*
X010659Y025224D01*
X010645Y025257D02*
X010886Y025257D01*
X010862Y025199D02*
X010862Y025060D01*
X010915Y024932D01*
X011013Y024834D01*
X011141Y024781D01*
X011280Y024781D01*
X011408Y024834D01*
X011414Y024839D01*
X012057Y024839D01*
X012113Y024784D01*
X012241Y024731D01*
X012380Y024731D01*
X012508Y024784D01*
X012606Y024882D01*
X012659Y025010D01*
X012659Y025149D01*
X012606Y025277D01*
X012508Y025375D01*
X012567Y025316D02*
X013462Y025316D01*
X013462Y025374D02*
X013462Y025235D01*
X013515Y025107D01*
X013517Y025104D01*
X013515Y025102D01*
X013462Y024974D01*
X013462Y024835D01*
X013515Y024707D01*
X013613Y024609D01*
X013741Y024556D01*
X013880Y024556D01*
X014008Y024609D01*
X014010Y024611D01*
X014013Y024609D01*
X014141Y024556D01*
X014280Y024556D01*
X014408Y024609D01*
X014506Y024707D01*
X014559Y024835D01*
X014559Y024974D01*
X014506Y025102D01*
X014504Y025104D01*
X014506Y025107D01*
X014559Y025235D01*
X014559Y025374D01*
X014506Y025502D01*
X014408Y025600D01*
X014280Y025653D01*
X014141Y025653D01*
X014013Y025600D01*
X014010Y025597D01*
X014008Y025600D01*
X013880Y025653D01*
X013741Y025653D01*
X013613Y025600D01*
X013563Y025550D02*
X011199Y025550D01*
X011117Y025492D02*
X013510Y025492D01*
X013486Y025433D02*
X011388Y025433D01*
X011458Y025374D02*
X012112Y025374D01*
X012107Y024789D02*
X011300Y024789D01*
X011121Y024789D02*
X003110Y024789D01*
X003110Y024731D02*
X013505Y024731D01*
X013481Y024789D02*
X012513Y024789D01*
X012572Y024848D02*
X013462Y024848D01*
X013462Y024906D02*
X012616Y024906D01*
X012640Y024965D02*
X013462Y024965D01*
X013482Y025023D02*
X012659Y025023D01*
X012659Y025082D02*
X013506Y025082D01*
X013501Y025140D02*
X012659Y025140D01*
X012638Y025199D02*
X013477Y025199D01*
X013462Y025257D02*
X012614Y025257D01*
X012208Y024239D02*
X012013Y024239D01*
X011833Y024164D01*
X011695Y024026D01*
X011620Y023846D01*
X011620Y023051D01*
X011670Y022932D01*
X011551Y022932D01*
X011600Y023051D01*
X011600Y023846D01*
X011526Y024026D01*
X011388Y024164D01*
X011208Y024239D01*
X011013Y024239D01*
X010833Y024164D01*
X010695Y024026D01*
X010620Y023846D01*
X010620Y023051D01*
X010670Y022932D01*
X010551Y022932D01*
X010600Y023051D01*
X010600Y023846D01*
X010526Y024026D01*
X010388Y024164D01*
X010208Y024239D01*
X010013Y024239D01*
X009833Y024164D01*
X009695Y024026D01*
X009620Y023846D01*
X009620Y023051D01*
X009670Y022932D01*
X009551Y022932D01*
X009600Y023051D01*
X009600Y023846D01*
X009526Y024026D01*
X009388Y024164D01*
X009208Y024239D01*
X009013Y024239D01*
X008833Y024164D01*
X008695Y024026D01*
X008620Y023846D01*
X008620Y023227D01*
X008617Y023228D01*
X008479Y023228D01*
X008350Y023175D01*
X008252Y023077D01*
X008199Y022949D01*
X008199Y022810D01*
X008226Y022744D01*
X008022Y022744D01*
X007584Y023182D01*
X007584Y023261D01*
X007531Y023389D01*
X007433Y023487D01*
X007305Y023541D01*
X007166Y023541D01*
X007038Y023487D01*
X006940Y023389D01*
X006887Y023261D01*
X006887Y023122D01*
X006940Y022994D01*
X007038Y022896D01*
X007166Y022843D01*
X007245Y022843D01*
X007787Y022301D01*
X007875Y022264D01*
X007971Y022264D01*
X011448Y022264D01*
X012037Y021676D01*
X012125Y021639D01*
X012221Y021639D01*
X013533Y021639D01*
X013621Y021676D01*
X013689Y021743D01*
X013710Y021764D01*
X015295Y021764D01*
X015350Y021709D01*
X015478Y021656D01*
X015617Y021656D01*
X015650Y021669D01*
X015637Y021636D01*
X015637Y021497D01*
X015690Y021369D01*
X015788Y021271D01*
X015916Y021218D01*
X016055Y021218D01*
X016183Y021271D01*
X016281Y021369D01*
X016334Y021497D01*
X016334Y021636D01*
X016281Y021764D01*
X016225Y021820D01*
X016225Y022082D01*
X016225Y022177D01*
X016189Y022265D01*
X016101Y022353D01*
X016363Y022353D01*
X016637Y022427D01*
X016884Y022569D01*
X017084Y022770D01*
X017227Y023016D01*
X017300Y023291D01*
X017300Y023575D01*
X017227Y023850D01*
X017084Y024096D01*
X016884Y024297D01*
X016637Y024439D01*
X016363Y024512D01*
X016078Y024512D01*
X015804Y024439D01*
X015558Y024297D01*
X015357Y024096D01*
X015215Y023850D01*
X015141Y023575D01*
X015141Y023291D01*
X015215Y023016D01*
X015357Y022770D01*
X015507Y022619D01*
X015158Y022619D01*
X015063Y022619D01*
X014974Y022583D01*
X014886Y022494D01*
X014747Y022494D01*
X014784Y022585D01*
X014784Y022724D01*
X014735Y022842D01*
X014784Y022960D01*
X014784Y023099D01*
X014731Y023227D01*
X014633Y023325D01*
X014505Y023378D01*
X014366Y023378D01*
X014248Y023329D01*
X014130Y023378D01*
X013991Y023378D01*
X013863Y023325D01*
X013765Y023227D01*
X013712Y023099D01*
X013712Y022960D01*
X013761Y022842D01*
X013712Y022724D01*
X013712Y022585D01*
X013749Y022494D01*
X012690Y022494D01*
X012976Y022781D01*
X013055Y022781D01*
X013183Y022834D01*
X013281Y022932D01*
X013334Y023060D01*
X013334Y023199D01*
X013281Y023327D01*
X013183Y023425D01*
X013055Y023478D01*
X012916Y023478D01*
X012788Y023425D01*
X012690Y023327D01*
X012637Y023199D01*
X012637Y023120D01*
X012600Y023084D01*
X012600Y023846D01*
X012526Y024026D01*
X012388Y024164D01*
X012208Y024239D01*
X012292Y024204D02*
X015465Y024204D01*
X015523Y024262D02*
X005698Y024262D01*
X005663Y024297D02*
X005417Y024439D01*
X005142Y024512D01*
X004858Y024512D01*
X004583Y024439D01*
X004337Y024297D01*
X004136Y024096D01*
X003994Y023850D01*
X003921Y023575D01*
X003921Y023291D01*
X003994Y023016D01*
X004136Y022770D01*
X004337Y022569D01*
X004583Y022427D01*
X004858Y022353D01*
X005142Y022353D01*
X005417Y022427D01*
X005663Y022569D01*
X005864Y022770D01*
X006006Y023016D01*
X006080Y023291D01*
X006080Y023575D01*
X006006Y023850D01*
X005864Y024096D01*
X005663Y024297D01*
X005622Y024321D02*
X015599Y024321D01*
X015701Y024379D02*
X005520Y024379D01*
X005419Y024438D02*
X015802Y024438D01*
X016018Y024496D02*
X005202Y024496D01*
X004798Y024496D02*
X003110Y024496D01*
X003110Y024438D02*
X004582Y024438D01*
X004480Y024379D02*
X003110Y024379D01*
X003110Y024321D02*
X004379Y024321D01*
X004303Y024262D02*
X003110Y024262D01*
X003110Y024204D02*
X004244Y024204D01*
X004186Y024145D02*
X003110Y024145D01*
X003110Y024087D02*
X004131Y024087D01*
X004097Y024028D02*
X003110Y024028D01*
X003110Y023969D02*
X004063Y023969D01*
X004030Y023911D02*
X003110Y023911D01*
X003110Y023852D02*
X003996Y023852D01*
X003979Y023794D02*
X003110Y023794D01*
X003110Y023735D02*
X003964Y023735D01*
X003948Y023677D02*
X003110Y023677D01*
X003110Y023618D02*
X003932Y023618D01*
X003921Y023560D02*
X003110Y023560D01*
X003110Y023501D02*
X003921Y023501D01*
X003921Y023443D02*
X003110Y023443D01*
X003110Y023384D02*
X003921Y023384D01*
X003921Y023325D02*
X003110Y023325D01*
X003110Y023267D02*
X003927Y023267D01*
X003943Y023208D02*
X003110Y023208D01*
X003110Y023150D02*
X003958Y023150D01*
X003974Y023091D02*
X003110Y023091D01*
X003110Y023033D02*
X003990Y023033D01*
X004018Y022974D02*
X003110Y022974D01*
X003110Y022916D02*
X004052Y022916D01*
X004086Y022857D02*
X003110Y022857D01*
X003110Y022799D02*
X004120Y022799D01*
X004166Y022740D02*
X003110Y022740D01*
X003110Y022681D02*
X004225Y022681D01*
X004283Y022623D02*
X003110Y022623D01*
X003110Y022564D02*
X004345Y022564D01*
X004447Y022506D02*
X003110Y022506D01*
X003110Y022447D02*
X004548Y022447D01*
X004725Y022389D02*
X003110Y022389D01*
X003110Y022330D02*
X007758Y022330D01*
X007699Y022389D02*
X005275Y022389D01*
X005452Y022447D02*
X007640Y022447D01*
X007582Y022506D02*
X005554Y022506D01*
X005655Y022564D02*
X007523Y022564D01*
X007465Y022623D02*
X005717Y022623D01*
X005776Y022681D02*
X007406Y022681D01*
X007348Y022740D02*
X005834Y022740D01*
X005881Y022799D02*
X007289Y022799D01*
X007132Y022857D02*
X005914Y022857D01*
X005948Y022916D02*
X007018Y022916D01*
X006960Y022974D02*
X005982Y022974D01*
X006011Y023033D02*
X006924Y023033D01*
X006900Y023091D02*
X006026Y023091D01*
X006042Y023150D02*
X006887Y023150D01*
X006887Y023208D02*
X006058Y023208D01*
X006073Y023267D02*
X006889Y023267D01*
X006913Y023325D02*
X006080Y023325D01*
X006080Y023384D02*
X006938Y023384D01*
X006993Y023443D02*
X006080Y023443D01*
X006080Y023501D02*
X007071Y023501D01*
X007400Y023501D02*
X008620Y023501D01*
X008620Y023443D02*
X007478Y023443D01*
X007533Y023384D02*
X008620Y023384D01*
X008620Y023325D02*
X007557Y023325D01*
X007582Y023267D02*
X008620Y023267D01*
X008431Y023208D02*
X007584Y023208D01*
X007617Y023150D02*
X008325Y023150D01*
X008267Y023091D02*
X007675Y023091D01*
X007734Y023033D02*
X008234Y023033D01*
X008210Y022974D02*
X007792Y022974D01*
X007851Y022916D02*
X008199Y022916D01*
X008199Y022857D02*
X007909Y022857D01*
X007968Y022799D02*
X008204Y022799D01*
X007857Y022272D02*
X003110Y022272D01*
X003110Y022213D02*
X011500Y022213D01*
X011558Y022155D02*
X003110Y022155D01*
X003110Y022096D02*
X011617Y022096D01*
X011675Y022038D02*
X003110Y022038D01*
X003110Y021979D02*
X011734Y021979D01*
X011792Y021920D02*
X003110Y021920D01*
X003110Y021862D02*
X011851Y021862D01*
X011909Y021803D02*
X003110Y021803D01*
X003110Y021745D02*
X011968Y021745D01*
X012026Y021686D02*
X003110Y021686D01*
X003110Y021628D02*
X015637Y021628D01*
X015637Y021569D02*
X003110Y021569D01*
X003110Y021511D02*
X015637Y021511D01*
X015655Y021452D02*
X003110Y021452D01*
X003110Y021394D02*
X015680Y021394D01*
X015724Y021335D02*
X003110Y021335D01*
X003110Y021276D02*
X015783Y021276D01*
X016188Y021276D02*
X020110Y021276D01*
X020110Y021218D02*
X012454Y021218D01*
X012430Y021228D02*
X012291Y021228D01*
X012163Y021175D01*
X012065Y021077D01*
X012012Y020949D01*
X012012Y020810D01*
X012065Y020682D01*
X012090Y020656D01*
X012090Y020451D01*
X012131Y020351D01*
X012207Y020275D01*
X012762Y019721D01*
X012762Y019685D01*
X012815Y019557D01*
X012913Y019459D01*
X013041Y019406D01*
X013180Y019406D01*
X013308Y019459D01*
X013406Y019557D01*
X013459Y019685D01*
X013459Y019824D01*
X013406Y019952D01*
X013308Y020050D01*
X013180Y020103D01*
X013143Y020103D01*
X012630Y020616D01*
X012630Y020656D01*
X012656Y020682D01*
X012709Y020810D01*
X012709Y020949D01*
X012656Y021077D01*
X012558Y021175D01*
X012430Y021228D01*
X012574Y021159D02*
X020110Y021159D01*
X020110Y021101D02*
X012632Y021101D01*
X012670Y021042D02*
X020110Y021042D01*
X020110Y020984D02*
X012695Y020984D01*
X012709Y020925D02*
X020110Y020925D01*
X020110Y020867D02*
X012709Y020867D01*
X012708Y020808D02*
X020110Y020808D01*
X020110Y020750D02*
X012684Y020750D01*
X012660Y020691D02*
X020110Y020691D01*
X020110Y020632D02*
X012630Y020632D01*
X012673Y020574D02*
X020110Y020574D01*
X020110Y020515D02*
X012731Y020515D01*
X012790Y020457D02*
X020110Y020457D01*
X020110Y020398D02*
X012848Y020398D01*
X012907Y020340D02*
X020110Y020340D01*
X020110Y020281D02*
X012965Y020281D01*
X013024Y020223D02*
X020110Y020223D01*
X020110Y020164D02*
X013082Y020164D01*
X013141Y020106D02*
X020110Y020106D01*
X020110Y020047D02*
X013311Y020047D01*
X013369Y019989D02*
X020110Y019989D01*
X020110Y019930D02*
X013415Y019930D01*
X013439Y019871D02*
X020110Y019871D01*
X020110Y019813D02*
X013459Y019813D01*
X013459Y019754D02*
X020110Y019754D01*
X020110Y019696D02*
X013459Y019696D01*
X013439Y019637D02*
X020110Y019637D01*
X020110Y019579D02*
X013415Y019579D01*
X013369Y019520D02*
X020110Y019520D01*
X020110Y019462D02*
X013311Y019462D01*
X012910Y019462D02*
X003109Y019462D01*
X003109Y019520D02*
X012851Y019520D01*
X012806Y019579D02*
X008921Y019579D01*
X008933Y019584D02*
X009031Y019682D01*
X009084Y019810D01*
X009084Y019949D01*
X009031Y020077D01*
X008933Y020175D01*
X008805Y020228D01*
X008666Y020228D01*
X008538Y020175D01*
X008440Y020077D01*
X008387Y019949D01*
X008387Y019810D01*
X008440Y019682D01*
X008538Y019584D01*
X008666Y019531D01*
X008805Y019531D01*
X008933Y019584D01*
X008986Y019637D02*
X012781Y019637D01*
X012762Y019696D02*
X009037Y019696D01*
X009061Y019754D02*
X012729Y019754D01*
X012670Y019813D02*
X009084Y019813D01*
X009084Y019871D02*
X012611Y019871D01*
X012553Y019930D02*
X009084Y019930D01*
X009068Y019989D02*
X012494Y019989D01*
X012436Y020047D02*
X009043Y020047D01*
X009002Y020106D02*
X012377Y020106D01*
X012319Y020164D02*
X008944Y020164D01*
X008818Y020223D02*
X012260Y020223D01*
X012202Y020281D02*
X007959Y020281D01*
X007959Y020324D02*
X007906Y020452D01*
X007808Y020550D01*
X007680Y020603D01*
X007541Y020603D01*
X007413Y020550D01*
X007315Y020452D01*
X007262Y020324D01*
X007262Y020185D01*
X007315Y020057D01*
X007413Y019959D01*
X007541Y019906D01*
X007680Y019906D01*
X007808Y019959D01*
X007906Y020057D01*
X007959Y020185D01*
X007959Y020324D01*
X007952Y020340D02*
X012143Y020340D01*
X012112Y020398D02*
X007928Y020398D01*
X007901Y020457D02*
X012090Y020457D01*
X012090Y020515D02*
X007842Y020515D01*
X007750Y020574D02*
X012090Y020574D01*
X012090Y020632D02*
X003110Y020632D01*
X003110Y020574D02*
X007471Y020574D01*
X007378Y020515D02*
X003110Y020515D01*
X003110Y020457D02*
X007320Y020457D01*
X007293Y020398D02*
X003110Y020398D01*
X003110Y020340D02*
X007268Y020340D01*
X007262Y020281D02*
X003110Y020281D01*
X003110Y020223D02*
X007262Y020223D01*
X007270Y020164D02*
X003110Y020164D01*
X003110Y020106D02*
X007294Y020106D01*
X007324Y020047D02*
X003110Y020047D01*
X003110Y019989D02*
X007383Y019989D01*
X007482Y019930D02*
X003110Y019930D01*
X003110Y019871D02*
X008387Y019871D01*
X008387Y019813D02*
X003110Y019813D01*
X003110Y019754D02*
X008410Y019754D01*
X008434Y019696D02*
X003110Y019696D01*
X003110Y019637D02*
X008484Y019637D01*
X008550Y019579D02*
X003109Y019579D01*
X003109Y019403D02*
X020109Y019403D01*
X020109Y019345D02*
X003109Y019345D01*
X003109Y019286D02*
X020109Y019286D01*
X020109Y019227D02*
X003109Y019227D01*
X003109Y019169D02*
X020109Y019169D01*
X020109Y019110D02*
X003109Y019110D01*
X003109Y019052D02*
X020109Y019052D01*
X020109Y018993D02*
X003109Y018993D01*
X003109Y018935D02*
X012686Y018935D01*
X012663Y018925D02*
X012565Y018827D01*
X012512Y018699D01*
X012512Y018560D01*
X012565Y018432D01*
X012620Y018376D01*
X012620Y018133D01*
X012565Y018077D01*
X012512Y017949D01*
X012512Y017810D01*
X012565Y017682D01*
X012663Y017584D01*
X012791Y017531D01*
X012930Y017531D01*
X013058Y017584D01*
X013156Y017682D01*
X013209Y017810D01*
X013209Y017949D01*
X013156Y018077D01*
X013100Y018133D01*
X013100Y018376D01*
X013156Y018432D01*
X013209Y018560D01*
X013209Y018699D01*
X013156Y018827D01*
X013058Y018925D01*
X012930Y018978D01*
X012791Y018978D01*
X012663Y018925D01*
X012614Y018876D02*
X003109Y018876D01*
X003109Y018818D02*
X012561Y018818D01*
X012537Y018759D02*
X003109Y018759D01*
X003109Y018701D02*
X006225Y018701D01*
X006163Y018675D02*
X006065Y018577D01*
X006012Y018449D01*
X006012Y018310D01*
X006065Y018182D01*
X006163Y018084D01*
X006291Y018031D01*
X006395Y018031D01*
X006387Y018011D01*
X006387Y017872D01*
X006440Y017744D01*
X006538Y017646D01*
X006666Y017593D01*
X006762Y017593D01*
X006762Y017560D01*
X006815Y017432D01*
X006913Y017334D01*
X007041Y017281D01*
X007180Y017281D01*
X007308Y017334D01*
X007364Y017389D01*
X008357Y017389D01*
X008413Y017334D01*
X008541Y017281D01*
X008680Y017281D01*
X008808Y017334D01*
X008906Y017432D01*
X008959Y017560D01*
X008959Y017699D01*
X008906Y017827D01*
X008808Y017925D01*
X008680Y017978D01*
X008584Y017978D01*
X008584Y018011D01*
X008555Y018082D01*
X008558Y018084D01*
X008656Y018182D01*
X008709Y018310D01*
X008709Y018449D01*
X008656Y018577D01*
X008558Y018675D01*
X008430Y018728D01*
X008291Y018728D01*
X008163Y018675D01*
X008107Y018619D01*
X006614Y018619D01*
X006558Y018675D01*
X006430Y018728D01*
X006291Y018728D01*
X006163Y018675D01*
X006130Y018642D02*
X003109Y018642D01*
X003109Y018583D02*
X006071Y018583D01*
X006043Y018525D02*
X003109Y018525D01*
X003109Y018466D02*
X006019Y018466D01*
X006012Y018408D02*
X003109Y018408D01*
X003109Y018349D02*
X006012Y018349D01*
X006020Y018291D02*
X003109Y018291D01*
X003109Y018232D02*
X006044Y018232D01*
X006073Y018174D02*
X003109Y018174D01*
X003109Y018115D02*
X006131Y018115D01*
X006228Y018057D02*
X003109Y018057D01*
X003109Y017998D02*
X006387Y017998D01*
X006387Y017939D02*
X003109Y017939D01*
X003109Y017881D02*
X006387Y017881D01*
X006407Y017822D02*
X003109Y017822D01*
X003109Y017764D02*
X006432Y017764D01*
X006479Y017705D02*
X003109Y017705D01*
X003109Y017647D02*
X006537Y017647D01*
X006762Y017588D02*
X003109Y017588D01*
X003109Y017530D02*
X006774Y017530D01*
X006798Y017471D02*
X003109Y017471D01*
X003109Y017413D02*
X006834Y017413D01*
X006892Y017354D02*
X003109Y017354D01*
X003109Y017296D02*
X007005Y017296D01*
X007216Y017296D02*
X008505Y017296D01*
X008392Y017354D02*
X007328Y017354D01*
X006591Y018642D02*
X008130Y018642D01*
X008225Y018701D02*
X006496Y018701D01*
X007739Y019930D02*
X008387Y019930D01*
X008403Y019989D02*
X007838Y019989D01*
X007896Y020047D02*
X008427Y020047D01*
X008468Y020106D02*
X007926Y020106D01*
X007950Y020164D02*
X008527Y020164D01*
X008653Y020223D02*
X007959Y020223D01*
X008496Y018701D02*
X012512Y018701D01*
X012512Y018642D02*
X008591Y018642D01*
X008649Y018583D02*
X012512Y018583D01*
X012526Y018525D02*
X008678Y018525D01*
X008702Y018466D02*
X012550Y018466D01*
X012589Y018408D02*
X008709Y018408D01*
X008709Y018349D02*
X012620Y018349D01*
X012620Y018291D02*
X008701Y018291D01*
X008677Y018232D02*
X012620Y018232D01*
X012620Y018174D02*
X008648Y018174D01*
X008589Y018115D02*
X012603Y018115D01*
X012556Y018057D02*
X008565Y018057D01*
X008584Y017998D02*
X012532Y017998D01*
X012512Y017939D02*
X008773Y017939D01*
X008852Y017881D02*
X012512Y017881D01*
X012512Y017822D02*
X008908Y017822D01*
X008932Y017764D02*
X012531Y017764D01*
X012555Y017705D02*
X008956Y017705D01*
X008959Y017647D02*
X012600Y017647D01*
X012658Y017588D02*
X008959Y017588D01*
X008947Y017530D02*
X020109Y017530D01*
X020109Y017588D02*
X013062Y017588D01*
X013121Y017647D02*
X020109Y017647D01*
X020109Y017705D02*
X013166Y017705D01*
X013190Y017764D02*
X020109Y017764D01*
X020109Y017822D02*
X013209Y017822D01*
X013209Y017881D02*
X020109Y017881D01*
X020109Y017939D02*
X013209Y017939D01*
X013189Y017998D02*
X020109Y017998D01*
X020109Y018057D02*
X013164Y018057D01*
X013118Y018115D02*
X020109Y018115D01*
X020109Y018174D02*
X013100Y018174D01*
X013100Y018232D02*
X020109Y018232D01*
X020109Y018291D02*
X013100Y018291D01*
X013100Y018349D02*
X020109Y018349D01*
X020109Y018408D02*
X013132Y018408D01*
X013170Y018466D02*
X020109Y018466D01*
X020109Y018525D02*
X013195Y018525D01*
X013209Y018583D02*
X020109Y018583D01*
X020109Y018642D02*
X013209Y018642D01*
X013208Y018701D02*
X020109Y018701D01*
X020109Y018759D02*
X013184Y018759D01*
X013160Y018818D02*
X020109Y018818D01*
X020109Y018876D02*
X013107Y018876D01*
X013034Y018935D02*
X020109Y018935D01*
X020109Y017471D02*
X008922Y017471D01*
X008887Y017413D02*
X020109Y017413D01*
X020109Y017354D02*
X008828Y017354D01*
X008716Y017296D02*
X010283Y017296D01*
X010225Y017237D02*
X003109Y017237D01*
X003109Y017178D02*
X010180Y017178D01*
X010156Y017120D02*
X003109Y017120D01*
X003109Y017061D02*
X010137Y017061D01*
X010137Y017003D02*
X003109Y017003D01*
X003109Y016944D02*
X010137Y016944D01*
X010157Y016886D02*
X003109Y016886D01*
X003109Y016827D02*
X010181Y016827D01*
X010228Y016769D02*
X003109Y016769D01*
X003109Y016710D02*
X010248Y016710D01*
X010139Y016652D02*
X003109Y016652D01*
X003109Y016593D02*
X010081Y016593D01*
X010047Y016534D02*
X003109Y016534D01*
X003109Y016476D02*
X010023Y016476D01*
X010012Y016417D02*
X003109Y016417D01*
X003109Y016359D02*
X010012Y016359D01*
X010016Y016300D02*
X003109Y016300D01*
X003109Y016242D02*
X010040Y016242D01*
X010064Y016183D02*
X003109Y016183D01*
X003109Y016125D02*
X010122Y016125D01*
X010205Y016066D02*
X008394Y016066D01*
X008475Y016008D02*
X012899Y016008D01*
X012850Y015987D02*
X012752Y015889D01*
X012699Y015761D01*
X012699Y015622D01*
X012752Y015494D01*
X012850Y015396D01*
X012979Y015343D01*
X013117Y015343D01*
X013245Y015396D01*
X013344Y015494D01*
X013397Y015622D01*
X013397Y015761D01*
X013344Y015889D01*
X013245Y015987D01*
X013117Y016041D01*
X012979Y016041D01*
X012850Y015987D01*
X012812Y015949D02*
X008532Y015949D01*
X008556Y015890D02*
X012753Y015890D01*
X012728Y015832D02*
X008581Y015832D01*
X008584Y015773D02*
X012704Y015773D01*
X012699Y015715D02*
X011212Y015715D01*
X011180Y015728D02*
X011041Y015728D01*
X010913Y015675D01*
X010815Y015577D01*
X010762Y015449D01*
X010762Y015310D01*
X010815Y015182D01*
X010913Y015084D01*
X011041Y015031D01*
X011180Y015031D01*
X011308Y015084D01*
X011406Y015182D01*
X011459Y015310D01*
X011459Y015449D01*
X011406Y015577D01*
X011308Y015675D01*
X011180Y015728D01*
X011327Y015656D02*
X012699Y015656D01*
X012709Y015598D02*
X011385Y015598D01*
X011422Y015539D02*
X012734Y015539D01*
X012766Y015481D02*
X011446Y015481D01*
X011459Y015422D02*
X012824Y015422D01*
X012929Y015364D02*
X011459Y015364D01*
X011457Y015305D02*
X014425Y015305D01*
X014413Y015300D02*
X014315Y015202D01*
X014262Y015074D01*
X014262Y014935D01*
X014315Y014807D01*
X014370Y014751D01*
X014370Y011258D01*
X014315Y011202D01*
X014262Y011074D01*
X014262Y010935D01*
X014315Y010807D01*
X014413Y010709D01*
X014541Y010656D01*
X014680Y010656D01*
X014808Y010709D01*
X014906Y010807D01*
X014959Y010935D01*
X014959Y011074D01*
X014906Y011202D01*
X014850Y011258D01*
X014850Y012558D01*
X014916Y012531D01*
X015055Y012531D01*
X015183Y012584D01*
X015281Y012682D01*
X015334Y012810D01*
X015334Y012949D01*
X015281Y013077D01*
X015225Y013133D01*
X015225Y014280D01*
X015226Y014281D01*
X015305Y014281D01*
X015433Y014334D01*
X015531Y014432D01*
X015584Y014560D01*
X015584Y014699D01*
X015531Y014827D01*
X015433Y014925D01*
X015305Y014978D01*
X015166Y014978D01*
X015038Y014925D01*
X014940Y014827D01*
X014887Y014699D01*
X014887Y014620D01*
X014850Y014584D01*
X014850Y014751D01*
X014906Y014807D01*
X014959Y014935D01*
X014959Y015074D01*
X014906Y015202D01*
X014808Y015300D01*
X014680Y015353D01*
X014541Y015353D01*
X014413Y015300D01*
X014359Y015246D02*
X011433Y015246D01*
X011409Y015188D02*
X014309Y015188D01*
X014285Y015129D02*
X011354Y015129D01*
X011277Y015071D02*
X014262Y015071D01*
X014262Y015012D02*
X006039Y015012D01*
X006063Y015071D02*
X010944Y015071D01*
X010867Y015129D02*
X006084Y015129D01*
X006084Y015188D02*
X010812Y015188D01*
X010788Y015246D02*
X006084Y015246D01*
X006066Y015305D02*
X010764Y015305D01*
X010762Y015364D02*
X006042Y015364D01*
X005998Y015422D02*
X008126Y015422D01*
X008016Y015481D02*
X005940Y015481D01*
X005600Y016008D02*
X007995Y016008D01*
X008077Y016066D02*
X005519Y016066D01*
X005202Y016066D02*
X004644Y016066D01*
X004725Y016008D02*
X005120Y016008D01*
X005064Y015949D02*
X004782Y015949D01*
X004806Y015890D02*
X005039Y015890D01*
X005015Y015832D02*
X004831Y015832D01*
X004834Y015773D02*
X005012Y015773D01*
X005012Y015715D02*
X004834Y015715D01*
X004822Y015656D02*
X005024Y015656D01*
X005048Y015598D02*
X004798Y015598D01*
X004763Y015539D02*
X005082Y015539D01*
X005141Y015481D02*
X004705Y015481D01*
X004595Y015422D02*
X005251Y015422D01*
X005429Y015364D02*
X003109Y015364D01*
X003109Y015422D02*
X004376Y015422D01*
X004266Y015481D02*
X003109Y015481D01*
X003109Y015305D02*
X005405Y015305D01*
X005387Y015246D02*
X003109Y015246D01*
X003109Y015188D02*
X005387Y015188D01*
X005334Y015129D02*
X003109Y015129D01*
X003109Y015071D02*
X005275Y015071D01*
X005217Y015012D02*
X003109Y015012D01*
X003109Y014485D02*
X005730Y014485D01*
X005706Y014544D02*
X005417Y014544D01*
X005346Y014514D02*
X005346Y014514D01*
X005486Y014603D02*
X005699Y014603D01*
X005699Y014661D02*
X005544Y014661D01*
X005603Y014720D02*
X005708Y014720D01*
X005732Y014778D02*
X005661Y014778D01*
X005720Y014837D02*
X005762Y014837D01*
X005757Y014427D02*
X003109Y014427D01*
X003109Y014368D02*
X005816Y014368D01*
X005908Y014310D02*
X003109Y014310D01*
X003109Y014251D02*
X006114Y014251D01*
X006061Y014193D02*
X003109Y014193D01*
X003109Y014134D02*
X006037Y014134D01*
X006012Y014076D02*
X003109Y014076D01*
X003109Y014017D02*
X006012Y014017D01*
X006012Y013959D02*
X003109Y013959D01*
X003109Y013900D02*
X006026Y013900D01*
X006050Y013841D02*
X003109Y013841D01*
X003109Y013783D02*
X006089Y013783D01*
X006147Y013724D02*
X005064Y013724D01*
X005192Y013666D02*
X006266Y013666D01*
X006454Y013666D02*
X007137Y013666D01*
X007137Y013607D02*
X005251Y013607D01*
X005293Y013549D02*
X007141Y013549D01*
X007147Y013724D02*
X006574Y013724D01*
X007248Y013373D02*
X005334Y013373D01*
X005390Y013315D02*
X007334Y013315D01*
X007342Y013197D02*
X005507Y013197D01*
X005565Y013139D02*
X007252Y013139D01*
X007259Y012612D02*
X003109Y012612D01*
X003109Y012554D02*
X005796Y012554D01*
X005788Y012550D02*
X005916Y012603D01*
X006055Y012603D01*
X006183Y012550D01*
X006281Y012452D01*
X006334Y012324D01*
X006334Y012307D01*
X007232Y012307D01*
X007288Y012362D01*
X007416Y012416D01*
X007555Y012416D01*
X007683Y012362D01*
X007781Y012264D01*
X007834Y012136D01*
X007834Y011997D01*
X007781Y011869D01*
X007683Y011771D01*
X007555Y011718D01*
X007416Y011718D01*
X007288Y011771D01*
X007232Y011827D01*
X006221Y011827D01*
X006140Y011827D01*
X006125Y011827D01*
X006125Y011827D01*
X006037Y011863D01*
X005995Y011906D01*
X005916Y011906D01*
X005788Y011959D01*
X005690Y012057D01*
X005637Y012185D01*
X005637Y012324D01*
X005690Y012452D01*
X005788Y012550D01*
X005733Y012495D02*
X003108Y012495D01*
X003108Y012436D02*
X005683Y012436D01*
X005659Y012378D02*
X003108Y012378D01*
X003108Y012319D02*
X005637Y012319D01*
X005637Y012261D02*
X003108Y012261D01*
X003108Y012202D02*
X005637Y012202D01*
X005654Y012144D02*
X003108Y012144D01*
X003108Y012085D02*
X005678Y012085D01*
X005720Y012027D02*
X003108Y012027D01*
X003108Y011968D02*
X005778Y011968D01*
X005906Y011910D02*
X003108Y011910D01*
X003108Y011851D02*
X006067Y011851D01*
X006334Y012319D02*
X007245Y012319D01*
X007325Y012378D02*
X006312Y012378D01*
X006287Y012436D02*
X010012Y012436D01*
X010012Y012435D02*
X010065Y012307D01*
X010120Y012251D01*
X010120Y011888D01*
X010055Y011916D01*
X009916Y011916D01*
X009788Y011862D01*
X009690Y011764D01*
X009637Y011636D01*
X009637Y011497D01*
X009690Y011369D01*
X009745Y011314D01*
X009745Y009418D01*
X009705Y009458D01*
X009563Y009517D01*
X009408Y009517D01*
X009266Y009458D01*
X009156Y009349D01*
X009097Y009207D01*
X009097Y009052D01*
X009156Y008909D01*
X009245Y008820D01*
X009245Y007938D01*
X009156Y007849D01*
X009097Y007707D01*
X009097Y007552D01*
X009156Y007409D01*
X009266Y007300D01*
X009408Y007241D01*
X009563Y007241D01*
X009705Y007300D01*
X009745Y007341D01*
X009745Y007133D01*
X009690Y007077D01*
X009637Y006949D01*
X009637Y006810D01*
X009690Y006682D01*
X009788Y006584D01*
X009916Y006531D01*
X010055Y006531D01*
X010183Y006584D01*
X010281Y006682D01*
X010334Y006810D01*
X010334Y006941D01*
X010387Y006889D01*
X010387Y006810D01*
X010440Y006682D01*
X010538Y006584D01*
X010666Y006531D01*
X010762Y006531D01*
X010762Y006435D01*
X010815Y006307D01*
X010913Y006209D01*
X011041Y006156D01*
X011180Y006156D01*
X011308Y006209D01*
X011406Y006307D01*
X011459Y006435D01*
X011459Y006574D01*
X011406Y006702D01*
X011350Y006758D01*
X012286Y006758D01*
X012310Y006816D02*
X011350Y006816D01*
X011350Y006758D02*
X011350Y008251D01*
X011406Y008307D01*
X011459Y008435D01*
X011459Y008574D01*
X011406Y008702D01*
X011308Y008800D01*
X011180Y008853D01*
X011041Y008853D01*
X010913Y008800D01*
X010815Y008702D01*
X010762Y008574D01*
X010762Y008435D01*
X010815Y008307D01*
X010870Y008251D01*
X010870Y007201D01*
X010805Y007228D01*
X010726Y007228D01*
X010600Y007354D01*
X010600Y012251D01*
X010656Y012307D01*
X010709Y012435D01*
X010709Y012574D01*
X010656Y012702D01*
X010558Y012800D01*
X010430Y012853D01*
X010291Y012853D01*
X010163Y012800D01*
X010065Y012702D01*
X010012Y012574D01*
X010012Y012435D01*
X010012Y012495D02*
X006238Y012495D01*
X006174Y012554D02*
X007361Y012554D01*
X007610Y012554D02*
X010012Y012554D01*
X010028Y012612D02*
X007711Y012612D01*
X007770Y012671D02*
X010052Y012671D01*
X010092Y012729D02*
X007801Y012729D01*
X007825Y012788D02*
X010151Y012788D01*
X010275Y012846D02*
X007834Y012846D01*
X007834Y012905D02*
X014370Y012905D01*
X014370Y012963D02*
X007828Y012963D01*
X007804Y013022D02*
X014370Y013022D01*
X014370Y013080D02*
X007777Y013080D01*
X007719Y013139D02*
X014370Y013139D01*
X014370Y013197D02*
X007629Y013197D01*
X007637Y013315D02*
X008459Y013315D01*
X008373Y013373D02*
X007722Y013373D01*
X007646Y012378D02*
X010035Y012378D01*
X010059Y012319D02*
X007726Y012319D01*
X007783Y012261D02*
X010111Y012261D01*
X010120Y012202D02*
X007807Y012202D01*
X007831Y012144D02*
X010120Y012144D01*
X010120Y012085D02*
X007834Y012085D01*
X007834Y012027D02*
X010120Y012027D01*
X010120Y011968D02*
X007822Y011968D01*
X007798Y011910D02*
X009901Y011910D01*
X009776Y011851D02*
X007763Y011851D01*
X007704Y011792D02*
X009718Y011792D01*
X009677Y011734D02*
X007593Y011734D01*
X007378Y011734D02*
X003108Y011734D01*
X003108Y011792D02*
X007267Y011792D01*
X006995Y011487D02*
X007051Y011432D01*
X007607Y011432D01*
X007663Y011487D01*
X007791Y011541D01*
X007930Y011541D01*
X008058Y011487D01*
X008156Y011389D01*
X008209Y011261D01*
X008209Y011122D01*
X008156Y010994D01*
X008058Y010896D01*
X007930Y010843D01*
X007791Y010843D01*
X007663Y010896D01*
X007607Y010952D01*
X007051Y010952D01*
X006995Y010896D01*
X006867Y010843D01*
X006729Y010843D01*
X006600Y010896D01*
X006502Y010994D01*
X006449Y011122D01*
X006449Y011261D01*
X006502Y011389D01*
X006600Y011487D01*
X006729Y011541D01*
X006867Y011541D01*
X006995Y011487D01*
X006966Y011500D02*
X007693Y011500D01*
X007617Y011441D02*
X007042Y011441D01*
X007014Y010914D02*
X007645Y010914D01*
X007760Y010856D02*
X006898Y010856D01*
X006698Y010856D02*
X003108Y010856D01*
X003108Y010914D02*
X006582Y010914D01*
X006524Y010973D02*
X003108Y010973D01*
X003108Y011031D02*
X006487Y011031D01*
X006463Y011090D02*
X003108Y011090D01*
X003108Y011148D02*
X006449Y011148D01*
X006449Y011207D02*
X003108Y011207D01*
X003108Y011266D02*
X006451Y011266D01*
X006475Y011324D02*
X003108Y011324D01*
X003108Y011383D02*
X006499Y011383D01*
X006554Y011441D02*
X003108Y011441D01*
X003108Y011500D02*
X006630Y011500D01*
X005362Y012671D02*
X003109Y012671D01*
X003109Y012729D02*
X005296Y012729D01*
X005238Y012788D02*
X003109Y012788D01*
X003109Y012846D02*
X005179Y012846D01*
X005121Y012905D02*
X003109Y012905D01*
X003109Y012963D02*
X005062Y012963D01*
X005003Y013022D02*
X003109Y013022D01*
X003109Y013080D02*
X004796Y013080D01*
X004733Y013139D02*
X003109Y013139D01*
X003109Y013197D02*
X004683Y013197D01*
X004659Y013256D02*
X003109Y013256D01*
X003109Y013315D02*
X004637Y013315D01*
X004637Y013373D02*
X003109Y013373D01*
X003109Y013432D02*
X004637Y013432D01*
X004654Y013490D02*
X003109Y013490D01*
X003109Y013549D02*
X004678Y013549D01*
X004720Y013607D02*
X003109Y013607D01*
X003109Y013666D02*
X004779Y013666D01*
X004907Y013724D02*
X003109Y013724D01*
X003108Y011675D02*
X009653Y011675D01*
X009637Y011617D02*
X003108Y011617D01*
X003108Y011558D02*
X009637Y011558D01*
X009637Y011500D02*
X008028Y011500D01*
X008104Y011441D02*
X009660Y011441D01*
X009684Y011383D02*
X008159Y011383D01*
X008183Y011324D02*
X009735Y011324D01*
X009745Y011266D02*
X008207Y011266D01*
X008209Y011207D02*
X009745Y011207D01*
X009745Y011148D02*
X008209Y011148D01*
X008196Y011090D02*
X009745Y011090D01*
X009745Y011031D02*
X008171Y011031D01*
X008135Y010973D02*
X009745Y010973D01*
X009745Y010914D02*
X008076Y010914D01*
X007960Y010856D02*
X009745Y010856D01*
X009745Y010797D02*
X003108Y010797D01*
X003108Y010739D02*
X009745Y010739D01*
X009745Y010680D02*
X003108Y010680D01*
X003108Y010622D02*
X009745Y010622D01*
X009745Y010563D02*
X003108Y010563D01*
X003108Y010504D02*
X009745Y010504D01*
X009745Y010446D02*
X003108Y010446D01*
X003108Y010387D02*
X009745Y010387D01*
X009745Y010329D02*
X003108Y010329D01*
X003108Y010270D02*
X009745Y010270D01*
X009745Y010212D02*
X003108Y010212D01*
X003108Y010153D02*
X009745Y010153D01*
X009745Y010095D02*
X003108Y010095D01*
X003108Y010036D02*
X009745Y010036D01*
X009745Y009978D02*
X003108Y009978D01*
X003108Y009919D02*
X009745Y009919D01*
X009745Y009861D02*
X003108Y009861D01*
X003108Y009802D02*
X009745Y009802D01*
X009745Y009743D02*
X003108Y009743D01*
X003108Y009685D02*
X009745Y009685D01*
X009745Y009626D02*
X003108Y009626D01*
X003108Y009568D02*
X009745Y009568D01*
X009745Y009509D02*
X009582Y009509D01*
X009713Y009451D02*
X009745Y009451D01*
X009389Y009509D02*
X003108Y009509D01*
X003108Y009451D02*
X009258Y009451D01*
X009199Y009392D02*
X003108Y009392D01*
X003108Y009334D02*
X009150Y009334D01*
X009126Y009275D02*
X003108Y009275D01*
X003108Y009217D02*
X009101Y009217D01*
X009097Y009158D02*
X003108Y009158D01*
X003108Y009099D02*
X009097Y009099D01*
X009102Y009041D02*
X003108Y009041D01*
X003108Y008982D02*
X009126Y008982D01*
X009150Y008924D02*
X003108Y008924D01*
X003108Y008865D02*
X009201Y008865D01*
X009245Y008807D02*
X003108Y008807D01*
X003108Y008748D02*
X009245Y008748D01*
X009245Y008690D02*
X003108Y008690D01*
X003108Y008631D02*
X009245Y008631D01*
X009245Y008573D02*
X003108Y008573D01*
X003108Y008514D02*
X009245Y008514D01*
X009245Y008455D02*
X003108Y008455D01*
X003108Y008397D02*
X009245Y008397D01*
X009245Y008338D02*
X003108Y008338D01*
X003108Y008280D02*
X009245Y008280D01*
X009245Y008221D02*
X003108Y008221D01*
X003108Y008163D02*
X009245Y008163D01*
X009245Y008104D02*
X003108Y008104D01*
X003108Y008046D02*
X009245Y008046D01*
X009245Y007987D02*
X003108Y007987D01*
X003108Y007929D02*
X009236Y007929D01*
X009177Y007870D02*
X003108Y007870D01*
X003108Y007811D02*
X009141Y007811D01*
X009117Y007753D02*
X003108Y007753D01*
X003108Y007694D02*
X009097Y007694D01*
X009097Y007636D02*
X003108Y007636D01*
X003108Y007577D02*
X009097Y007577D01*
X009111Y007519D02*
X003108Y007519D01*
X003108Y007460D02*
X009135Y007460D01*
X009164Y007402D02*
X005268Y007402D01*
X005195Y007432D02*
X005025Y007432D01*
X004868Y007367D01*
X004798Y007296D01*
X004728Y007367D01*
X004570Y007432D01*
X004400Y007432D01*
X004243Y007367D01*
X004123Y007246D01*
X004058Y007089D01*
X004058Y006919D01*
X004123Y006762D01*
X004243Y006642D01*
X004400Y006577D01*
X004570Y006577D01*
X004728Y006642D01*
X004798Y006712D01*
X004868Y006642D01*
X005025Y006577D01*
X005195Y006577D01*
X005353Y006642D01*
X005473Y006762D01*
X005538Y006919D01*
X005538Y007089D01*
X005473Y007246D01*
X005353Y007367D01*
X005195Y007432D01*
X005376Y007343D02*
X009223Y007343D01*
X009303Y007285D02*
X005435Y007285D01*
X005481Y007226D02*
X009745Y007226D01*
X009745Y007168D02*
X005505Y007168D01*
X005530Y007109D02*
X009722Y007109D01*
X009679Y007050D02*
X005538Y007050D01*
X005538Y006992D02*
X009655Y006992D01*
X009637Y006933D02*
X005538Y006933D01*
X005519Y006875D02*
X009637Y006875D01*
X009637Y006816D02*
X005495Y006816D01*
X005468Y006758D02*
X009658Y006758D01*
X009682Y006699D02*
X005410Y006699D01*
X005349Y006641D02*
X009731Y006641D01*
X009792Y006582D02*
X005208Y006582D01*
X005013Y006582D02*
X004583Y006582D01*
X004724Y006641D02*
X004871Y006641D01*
X004811Y006699D02*
X004785Y006699D01*
X004388Y006582D02*
X003108Y006582D01*
X003108Y006524D02*
X010762Y006524D01*
X010762Y006465D02*
X003108Y006465D01*
X003108Y006406D02*
X010773Y006406D01*
X010798Y006348D02*
X003108Y006348D01*
X003108Y006289D02*
X010832Y006289D01*
X010891Y006231D02*
X003108Y006231D01*
X003108Y006172D02*
X011001Y006172D01*
X011220Y006172D02*
X020108Y006172D01*
X020108Y006114D02*
X003108Y006114D01*
X003108Y006055D02*
X020108Y006055D01*
X020108Y005997D02*
X003108Y005997D01*
X003108Y005938D02*
X020108Y005938D01*
X020108Y005880D02*
X003108Y005880D01*
X003108Y005821D02*
X020108Y005821D01*
X020108Y005762D02*
X003108Y005762D01*
X003108Y005704D02*
X020108Y005704D01*
X020108Y005645D02*
X003108Y005645D01*
X003108Y005587D02*
X020108Y005587D01*
X020108Y005528D02*
X003108Y005528D01*
X003108Y005470D02*
X020108Y005470D01*
X020108Y005411D02*
X003108Y005411D01*
X003108Y005353D02*
X020108Y005353D01*
X020108Y005294D02*
X003107Y005294D01*
X003107Y005236D02*
X020108Y005236D01*
X020108Y005177D02*
X003107Y005177D01*
X003107Y005119D02*
X020108Y005119D01*
X020107Y005060D02*
X003107Y005060D01*
X003107Y005001D02*
X020107Y005001D01*
X020107Y004943D02*
X003107Y004943D01*
X003107Y004884D02*
X020107Y004884D01*
X020107Y004826D02*
X003107Y004826D01*
X003107Y004767D02*
X020107Y004767D01*
X020107Y004709D02*
X003107Y004709D01*
X003107Y004650D02*
X020107Y004650D01*
X020107Y004592D02*
X003107Y004592D01*
X003107Y004533D02*
X020107Y004533D01*
X020107Y004475D02*
X003107Y004475D01*
X003107Y004416D02*
X020107Y004416D01*
X020107Y004357D02*
X003107Y004357D01*
X003107Y004299D02*
X020107Y004299D01*
X020107Y004240D02*
X003107Y004240D01*
X003107Y004182D02*
X020107Y004182D01*
X020107Y004123D02*
X003107Y004123D01*
X003107Y004065D02*
X020107Y004065D01*
X020107Y004006D02*
X016489Y004006D01*
X016670Y003948D02*
X020107Y003948D01*
X020107Y003889D02*
X016771Y003889D01*
X016873Y003831D02*
X020107Y003831D01*
X020107Y003772D02*
X016936Y003772D01*
X016994Y003713D02*
X020107Y003713D01*
X020107Y003655D02*
X017053Y003655D01*
X017100Y003596D02*
X020107Y003596D01*
X020107Y003538D02*
X017134Y003538D01*
X017168Y003479D02*
X020107Y003479D01*
X020107Y003421D02*
X017201Y003421D01*
X017231Y003362D02*
X020107Y003362D01*
X020108Y006231D02*
X011330Y006231D01*
X011389Y006289D02*
X012520Y006289D01*
X012541Y006281D02*
X012680Y006281D01*
X012808Y006334D01*
X012906Y006432D01*
X012959Y006560D01*
X012959Y006699D01*
X020108Y006699D01*
X020108Y006641D02*
X012959Y006641D01*
X012959Y006699D02*
X012906Y006827D01*
X012850Y006883D01*
X012850Y008126D01*
X012906Y008182D01*
X012959Y008310D01*
X012959Y008449D01*
X012906Y008577D01*
X012808Y008675D01*
X012680Y008728D01*
X012541Y008728D01*
X012413Y008675D01*
X012315Y008577D01*
X012262Y008449D01*
X012262Y008310D01*
X012315Y008182D01*
X012370Y008126D01*
X012370Y006883D01*
X012315Y006827D01*
X012262Y006699D01*
X011407Y006699D01*
X011431Y006641D02*
X012262Y006641D01*
X012262Y006699D02*
X012262Y006560D01*
X012315Y006432D01*
X012413Y006334D01*
X012541Y006281D01*
X012399Y006348D02*
X011423Y006348D01*
X011447Y006406D02*
X012340Y006406D01*
X012301Y006465D02*
X011459Y006465D01*
X011459Y006524D02*
X012277Y006524D01*
X012262Y006582D02*
X011456Y006582D01*
X011350Y006875D02*
X012363Y006875D01*
X012370Y006933D02*
X011350Y006933D01*
X011350Y006992D02*
X012370Y006992D01*
X012370Y007050D02*
X011350Y007050D01*
X011350Y007109D02*
X012370Y007109D01*
X012370Y007168D02*
X011350Y007168D01*
X011350Y007226D02*
X012370Y007226D01*
X012370Y007285D02*
X011350Y007285D01*
X011350Y007343D02*
X012370Y007343D01*
X012370Y007402D02*
X011350Y007402D01*
X011350Y007460D02*
X012370Y007460D01*
X012370Y007519D02*
X011350Y007519D01*
X011350Y007577D02*
X012370Y007577D01*
X012370Y007636D02*
X011350Y007636D01*
X011350Y007694D02*
X012370Y007694D01*
X012370Y007753D02*
X011350Y007753D01*
X011350Y007811D02*
X012370Y007811D01*
X012370Y007870D02*
X011350Y007870D01*
X011350Y007929D02*
X012370Y007929D01*
X012370Y007987D02*
X011350Y007987D01*
X011350Y008046D02*
X012370Y008046D01*
X012370Y008104D02*
X011350Y008104D01*
X011350Y008163D02*
X012334Y008163D01*
X012298Y008221D02*
X011350Y008221D01*
X011379Y008280D02*
X012274Y008280D01*
X012262Y008338D02*
X011419Y008338D01*
X011443Y008397D02*
X012262Y008397D01*
X012264Y008455D02*
X011459Y008455D01*
X011459Y008514D02*
X012289Y008514D01*
X012313Y008573D02*
X011459Y008573D01*
X011435Y008631D02*
X012369Y008631D01*
X012448Y008690D02*
X011411Y008690D01*
X011360Y008748D02*
X013265Y008748D01*
X013224Y008708D02*
X013157Y008640D01*
X013120Y008552D01*
X013120Y008258D01*
X013065Y008202D01*
X013012Y008074D01*
X013012Y007935D01*
X013065Y007807D01*
X013163Y007709D01*
X013291Y007656D01*
X013430Y007656D01*
X013558Y007709D01*
X013656Y007807D01*
X013709Y007935D01*
X013709Y008074D01*
X013656Y008202D01*
X013600Y008258D01*
X013600Y008405D01*
X013976Y008781D01*
X014055Y008781D01*
X014183Y008834D01*
X014281Y008932D01*
X014334Y009060D01*
X014334Y009199D01*
X014281Y009327D01*
X014183Y009425D01*
X014055Y009478D01*
X013916Y009478D01*
X013788Y009425D01*
X013690Y009327D01*
X013637Y009199D01*
X013637Y009120D01*
X013224Y008708D01*
X013206Y008690D02*
X012772Y008690D01*
X012852Y008631D02*
X013153Y008631D01*
X013129Y008573D02*
X012908Y008573D01*
X012932Y008514D02*
X013120Y008514D01*
X013120Y008455D02*
X012956Y008455D01*
X012959Y008397D02*
X013120Y008397D01*
X013120Y008338D02*
X012959Y008338D01*
X012947Y008280D02*
X013120Y008280D01*
X013084Y008221D02*
X012922Y008221D01*
X012887Y008163D02*
X013049Y008163D01*
X013024Y008104D02*
X012850Y008104D01*
X012850Y008046D02*
X013012Y008046D01*
X013012Y007987D02*
X012850Y007987D01*
X012850Y007929D02*
X013014Y007929D01*
X013039Y007870D02*
X012850Y007870D01*
X012850Y007811D02*
X013063Y007811D01*
X013119Y007753D02*
X012850Y007753D01*
X012850Y007694D02*
X013197Y007694D01*
X013523Y007694D02*
X020108Y007694D01*
X020108Y007636D02*
X016181Y007636D01*
X016228Y007617D02*
X016070Y007682D01*
X015900Y007682D01*
X015743Y007617D01*
X015623Y007496D01*
X015558Y007339D01*
X015558Y007169D01*
X015623Y007012D01*
X015743Y006892D01*
X015900Y006827D01*
X016070Y006827D01*
X016228Y006892D01*
X016348Y007012D01*
X016413Y007169D01*
X016413Y007339D01*
X016348Y007496D01*
X016228Y007617D01*
X016267Y007577D02*
X020108Y007577D01*
X020108Y007519D02*
X016325Y007519D01*
X016363Y007460D02*
X020108Y007460D01*
X020108Y007402D02*
X016387Y007402D01*
X016411Y007343D02*
X020108Y007343D01*
X020108Y007285D02*
X016413Y007285D01*
X016413Y007226D02*
X020108Y007226D01*
X020108Y007168D02*
X016412Y007168D01*
X016388Y007109D02*
X020108Y007109D01*
X020108Y007050D02*
X016364Y007050D01*
X016327Y006992D02*
X020108Y006992D01*
X020108Y006933D02*
X016269Y006933D01*
X016186Y006875D02*
X020108Y006875D01*
X020108Y006816D02*
X012910Y006816D01*
X012935Y006758D02*
X020108Y006758D01*
X020108Y006582D02*
X012959Y006582D01*
X012944Y006524D02*
X020108Y006524D01*
X020108Y006465D02*
X012920Y006465D01*
X012881Y006406D02*
X020108Y006406D01*
X020108Y006348D02*
X012822Y006348D01*
X012701Y006289D02*
X020108Y006289D01*
X020108Y007753D02*
X013602Y007753D01*
X013658Y007811D02*
X020108Y007811D01*
X020108Y007870D02*
X013682Y007870D01*
X013706Y007929D02*
X020108Y007929D01*
X020108Y007987D02*
X013709Y007987D01*
X013709Y008046D02*
X020108Y008046D01*
X020108Y008104D02*
X013696Y008104D01*
X013672Y008163D02*
X020108Y008163D01*
X020108Y008221D02*
X013637Y008221D01*
X013600Y008280D02*
X020108Y008280D01*
X020108Y008338D02*
X013600Y008338D01*
X013600Y008397D02*
X020108Y008397D01*
X020108Y008455D02*
X013651Y008455D01*
X013709Y008514D02*
X020108Y008514D01*
X020108Y008573D02*
X013768Y008573D01*
X013827Y008631D02*
X020108Y008631D01*
X020108Y008690D02*
X013885Y008690D01*
X013944Y008748D02*
X020108Y008748D01*
X020108Y008807D02*
X019868Y008807D01*
X019965Y008865D02*
X020108Y008865D01*
X020108Y008924D02*
X020023Y008924D01*
X020052Y008982D02*
X020108Y008982D01*
X020108Y009041D02*
X020076Y009041D01*
X020084Y009099D02*
X020108Y009099D01*
X020108Y009158D02*
X020084Y009158D01*
X020077Y009217D02*
X020108Y009217D01*
X020108Y009275D02*
X020052Y009275D01*
X020024Y009334D02*
X020108Y009334D01*
X020108Y009392D02*
X019975Y009392D01*
X019495Y009392D02*
X014216Y009392D01*
X014274Y009334D02*
X019446Y009334D01*
X019418Y009275D02*
X014302Y009275D01*
X014327Y009217D02*
X019394Y009217D01*
X019387Y009158D02*
X014334Y009158D01*
X014334Y009099D02*
X019387Y009099D01*
X019395Y009041D02*
X014326Y009041D01*
X014302Y008982D02*
X019419Y008982D01*
X019448Y008924D02*
X014273Y008924D01*
X014215Y008865D02*
X019506Y008865D01*
X019603Y008807D02*
X014118Y008807D01*
X013637Y009158D02*
X010600Y009158D01*
X010600Y009217D02*
X011905Y009217D01*
X011907Y009214D02*
X012313Y009214D01*
X012600Y009501D01*
X012600Y009907D01*
X012313Y010194D01*
X011907Y010194D01*
X011620Y009907D01*
X011620Y009501D01*
X011907Y009214D01*
X011847Y009275D02*
X011289Y009275D01*
X011288Y009274D02*
X011540Y009526D01*
X011540Y009674D01*
X011141Y009674D01*
X011141Y009734D01*
X011540Y009734D01*
X011540Y009882D01*
X011288Y010134D01*
X011140Y010134D01*
X011140Y009734D01*
X011080Y009734D01*
X011080Y009674D01*
X010680Y009674D01*
X010680Y009526D01*
X010932Y009274D01*
X011080Y009274D01*
X011080Y009674D01*
X011140Y009674D01*
X011140Y009274D01*
X011288Y009274D01*
X011348Y009334D02*
X011788Y009334D01*
X011730Y009392D02*
X011406Y009392D01*
X011465Y009451D02*
X011671Y009451D01*
X011620Y009509D02*
X011523Y009509D01*
X011540Y009568D02*
X011620Y009568D01*
X011620Y009626D02*
X011540Y009626D01*
X011620Y009685D02*
X011141Y009685D01*
X011140Y009743D02*
X011080Y009743D01*
X011080Y009734D02*
X011080Y010134D01*
X010932Y010134D01*
X010680Y009882D01*
X010680Y009734D01*
X011080Y009734D01*
X011080Y009685D02*
X010600Y009685D01*
X010600Y009743D02*
X010680Y009743D01*
X010680Y009802D02*
X010600Y009802D01*
X010600Y009861D02*
X010680Y009861D01*
X010717Y009919D02*
X010600Y009919D01*
X010600Y009978D02*
X010776Y009978D01*
X010834Y010036D02*
X010600Y010036D01*
X010600Y010095D02*
X010893Y010095D01*
X010907Y010214D02*
X011313Y010214D01*
X011600Y010501D01*
X011600Y010907D01*
X011313Y011194D01*
X010907Y011194D01*
X010620Y010907D01*
X010620Y010501D01*
X010907Y010214D01*
X010851Y010270D02*
X010600Y010270D01*
X010600Y010212D02*
X016825Y010212D01*
X016815Y010202D02*
X016762Y010074D01*
X016762Y009935D01*
X016815Y009807D01*
X016913Y009709D01*
X017041Y009656D01*
X017180Y009656D01*
X017308Y009709D01*
X017406Y009807D01*
X017459Y009935D01*
X017459Y010074D01*
X017406Y010202D01*
X017308Y010300D01*
X017180Y010353D01*
X017041Y010353D01*
X016913Y010300D01*
X016815Y010202D01*
X016795Y010153D02*
X013354Y010153D01*
X013313Y010194D02*
X012907Y010194D01*
X012620Y009907D01*
X012620Y009501D01*
X012907Y009214D01*
X013313Y009214D01*
X013600Y009501D01*
X013600Y009907D01*
X013313Y010194D01*
X013343Y010270D02*
X016883Y010270D01*
X016983Y010329D02*
X013428Y010329D01*
X013388Y010289D02*
X013526Y010427D01*
X013600Y010607D01*
X013600Y010802D01*
X013526Y010982D01*
X013388Y011120D01*
X013208Y011194D01*
X013013Y011194D01*
X012833Y011120D01*
X012695Y010982D01*
X012620Y010802D01*
X012620Y010607D01*
X012695Y010427D01*
X012833Y010289D01*
X013013Y010214D01*
X013208Y010214D01*
X013388Y010289D01*
X013486Y010387D02*
X019620Y010387D01*
X019620Y010446D02*
X013534Y010446D01*
X013558Y010504D02*
X019620Y010504D01*
X019620Y010563D02*
X013582Y010563D01*
X013600Y010622D02*
X019620Y010622D01*
X019620Y010680D02*
X014739Y010680D01*
X014838Y010739D02*
X019620Y010739D01*
X019620Y010797D02*
X014896Y010797D01*
X014926Y010856D02*
X019620Y010856D01*
X019620Y010914D02*
X014951Y010914D01*
X014959Y010973D02*
X019620Y010973D01*
X019620Y011031D02*
X014959Y011031D01*
X014952Y011090D02*
X019620Y011090D01*
X019620Y011148D02*
X014928Y011148D01*
X014901Y011207D02*
X019620Y011207D01*
X019620Y011266D02*
X014850Y011266D01*
X014850Y011324D02*
X019620Y011324D01*
X019620Y011383D02*
X014850Y011383D01*
X014850Y011441D02*
X019620Y011441D01*
X019620Y011500D02*
X014850Y011500D01*
X014850Y011558D02*
X019592Y011558D01*
X019533Y011617D02*
X014850Y011617D01*
X014850Y011675D02*
X019475Y011675D01*
X019416Y011734D02*
X014850Y011734D01*
X014850Y011792D02*
X019358Y011792D01*
X019299Y011851D02*
X014850Y011851D01*
X014850Y011910D02*
X018031Y011910D01*
X018041Y011906D02*
X018180Y011906D01*
X018308Y011959D01*
X018406Y012057D01*
X018459Y012185D01*
X018459Y012324D01*
X018406Y012452D01*
X018350Y012508D01*
X018350Y013082D01*
X018350Y013177D01*
X018334Y013216D01*
X018334Y013324D01*
X018281Y013452D01*
X018183Y013550D01*
X018055Y013603D01*
X017916Y013603D01*
X017788Y013550D01*
X017690Y013452D01*
X017637Y013324D01*
X017637Y013185D01*
X017690Y013057D01*
X017788Y012959D01*
X017870Y012924D01*
X017870Y012508D01*
X017815Y012452D01*
X017762Y012324D01*
X017762Y012185D01*
X017815Y012057D01*
X017913Y011959D01*
X018041Y011906D01*
X018189Y011910D02*
X019265Y011910D01*
X019245Y011968D02*
X018317Y011968D01*
X018376Y012027D02*
X019245Y012027D01*
X019245Y012085D02*
X018418Y012085D01*
X018442Y012144D02*
X019245Y012144D01*
X019245Y012202D02*
X018459Y012202D01*
X018459Y012261D02*
X019245Y012261D01*
X019245Y012319D02*
X018459Y012319D01*
X018437Y012378D02*
X019245Y012378D01*
X019245Y012436D02*
X018412Y012436D01*
X018363Y012495D02*
X019245Y012495D01*
X019245Y012554D02*
X018350Y012554D01*
X018350Y012612D02*
X019245Y012612D01*
X019245Y012671D02*
X018350Y012671D01*
X018350Y012729D02*
X019245Y012729D01*
X019245Y012788D02*
X018350Y012788D01*
X018350Y012846D02*
X019264Y012846D01*
X019296Y012905D02*
X018350Y012905D01*
X018350Y012963D02*
X019355Y012963D01*
X019349Y012958D02*
X019349Y012958D01*
X019370Y013022D02*
X018350Y013022D01*
X018350Y013080D02*
X019370Y013080D01*
X019370Y013139D02*
X018350Y013139D01*
X018342Y013197D02*
X019370Y013197D01*
X019370Y013256D02*
X018334Y013256D01*
X018334Y013315D02*
X019370Y013315D01*
X019370Y013373D02*
X018314Y013373D01*
X018289Y013432D02*
X018978Y013432D01*
X018881Y013490D02*
X018243Y013490D01*
X018184Y013549D02*
X018823Y013549D01*
X018794Y013607D02*
X015225Y013607D01*
X015225Y013549D02*
X017787Y013549D01*
X017728Y013490D02*
X015225Y013490D01*
X015225Y013432D02*
X017681Y013432D01*
X017657Y013373D02*
X015225Y013373D01*
X015225Y013315D02*
X017637Y013315D01*
X017637Y013256D02*
X015225Y013256D01*
X015225Y013197D02*
X017637Y013197D01*
X017656Y013139D02*
X015225Y013139D01*
X015277Y013080D02*
X017680Y013080D01*
X017725Y013022D02*
X015304Y013022D01*
X015328Y012963D02*
X017783Y012963D01*
X017870Y012905D02*
X015334Y012905D01*
X015334Y012846D02*
X017870Y012846D01*
X017870Y012788D02*
X015325Y012788D01*
X015301Y012729D02*
X017870Y012729D01*
X017870Y012671D02*
X015270Y012671D01*
X015211Y012612D02*
X017870Y012612D01*
X017870Y012554D02*
X015110Y012554D01*
X014861Y012554D02*
X014850Y012554D01*
X014850Y012495D02*
X017858Y012495D01*
X017808Y012436D02*
X014850Y012436D01*
X014850Y012378D02*
X017784Y012378D01*
X017762Y012319D02*
X014850Y012319D01*
X014850Y012261D02*
X017762Y012261D01*
X017762Y012202D02*
X014850Y012202D01*
X014850Y012144D02*
X017779Y012144D01*
X017803Y012085D02*
X014850Y012085D01*
X014850Y012027D02*
X017845Y012027D01*
X017903Y011968D02*
X014850Y011968D01*
X014370Y011968D02*
X010600Y011968D01*
X010600Y011910D02*
X014370Y011910D01*
X014370Y011851D02*
X010600Y011851D01*
X010600Y011792D02*
X014370Y011792D01*
X014370Y011734D02*
X010600Y011734D01*
X010600Y011675D02*
X014370Y011675D01*
X014370Y011617D02*
X010600Y011617D01*
X010600Y011558D02*
X014370Y011558D01*
X014370Y011500D02*
X010600Y011500D01*
X010600Y011441D02*
X014370Y011441D01*
X014370Y011383D02*
X010600Y011383D01*
X010600Y011324D02*
X014370Y011324D01*
X014370Y011266D02*
X010600Y011266D01*
X010600Y011207D02*
X014320Y011207D01*
X014293Y011148D02*
X013319Y011148D01*
X013418Y011090D02*
X014268Y011090D01*
X014262Y011031D02*
X013476Y011031D01*
X013530Y010973D02*
X014262Y010973D01*
X014270Y010914D02*
X013554Y010914D01*
X013578Y010856D02*
X014294Y010856D01*
X014324Y010797D02*
X013600Y010797D01*
X013600Y010739D02*
X014383Y010739D01*
X014482Y010680D02*
X013600Y010680D01*
X013413Y010095D02*
X016770Y010095D01*
X016762Y010036D02*
X013471Y010036D01*
X013530Y009978D02*
X016762Y009978D01*
X016768Y009919D02*
X013589Y009919D01*
X013600Y009861D02*
X016792Y009861D01*
X016820Y009802D02*
X013600Y009802D01*
X013600Y009743D02*
X016878Y009743D01*
X016970Y009685D02*
X013600Y009685D01*
X013600Y009626D02*
X019495Y009626D01*
X019495Y009568D02*
X013600Y009568D01*
X013600Y009509D02*
X019495Y009509D01*
X019495Y009451D02*
X014121Y009451D01*
X013850Y009451D02*
X013550Y009451D01*
X013491Y009392D02*
X013755Y009392D01*
X013696Y009334D02*
X013433Y009334D01*
X013374Y009275D02*
X013668Y009275D01*
X013644Y009217D02*
X013316Y009217D01*
X013499Y008982D02*
X010600Y008982D01*
X010600Y008924D02*
X013440Y008924D01*
X013382Y008865D02*
X010600Y008865D01*
X010600Y008807D02*
X010929Y008807D01*
X010861Y008748D02*
X010600Y008748D01*
X010600Y008690D02*
X010810Y008690D01*
X010785Y008631D02*
X010600Y008631D01*
X010600Y008573D02*
X010762Y008573D01*
X010762Y008514D02*
X010600Y008514D01*
X010600Y008455D02*
X010762Y008455D01*
X010777Y008397D02*
X010600Y008397D01*
X010600Y008338D02*
X010802Y008338D01*
X010842Y008280D02*
X010600Y008280D01*
X010600Y008221D02*
X010870Y008221D01*
X010870Y008163D02*
X010600Y008163D01*
X010600Y008104D02*
X010870Y008104D01*
X010870Y008046D02*
X010600Y008046D01*
X010600Y007987D02*
X010870Y007987D01*
X010870Y007929D02*
X010600Y007929D01*
X010600Y007870D02*
X010870Y007870D01*
X010870Y007811D02*
X010600Y007811D01*
X010600Y007753D02*
X010870Y007753D01*
X010870Y007694D02*
X010600Y007694D01*
X010600Y007636D02*
X010870Y007636D01*
X010870Y007577D02*
X010600Y007577D01*
X010600Y007519D02*
X010870Y007519D01*
X010870Y007460D02*
X010600Y007460D01*
X010600Y007402D02*
X010870Y007402D01*
X010870Y007343D02*
X010611Y007343D01*
X010669Y007285D02*
X010870Y007285D01*
X010870Y007226D02*
X010810Y007226D01*
X010387Y006875D02*
X010334Y006875D01*
X010334Y006933D02*
X010342Y006933D01*
X010334Y006816D02*
X010387Y006816D01*
X010408Y006758D02*
X010312Y006758D01*
X010288Y006699D02*
X010432Y006699D01*
X010481Y006641D02*
X010240Y006641D01*
X010179Y006582D02*
X010542Y006582D01*
X009745Y007285D02*
X009667Y007285D01*
X010600Y009041D02*
X013558Y009041D01*
X013616Y009099D02*
X010600Y009099D01*
X010600Y009275D02*
X010932Y009275D01*
X010873Y009334D02*
X010600Y009334D01*
X010600Y009392D02*
X010814Y009392D01*
X010756Y009451D02*
X010600Y009451D01*
X010600Y009509D02*
X010697Y009509D01*
X010680Y009568D02*
X010600Y009568D01*
X010600Y009626D02*
X010680Y009626D01*
X011080Y009626D02*
X011140Y009626D01*
X011140Y009568D02*
X011080Y009568D01*
X011080Y009509D02*
X011140Y009509D01*
X011140Y009451D02*
X011080Y009451D01*
X011080Y009392D02*
X011140Y009392D01*
X011140Y009334D02*
X011080Y009334D01*
X011080Y009275D02*
X011140Y009275D01*
X011292Y008807D02*
X013323Y008807D01*
X012905Y009217D02*
X012316Y009217D01*
X012374Y009275D02*
X012847Y009275D01*
X012788Y009334D02*
X012433Y009334D01*
X012491Y009392D02*
X012730Y009392D01*
X012671Y009451D02*
X012550Y009451D01*
X012600Y009509D02*
X012620Y009509D01*
X012620Y009568D02*
X012600Y009568D01*
X012600Y009626D02*
X012620Y009626D01*
X012620Y009685D02*
X012600Y009685D01*
X012600Y009743D02*
X012620Y009743D01*
X012620Y009802D02*
X012600Y009802D01*
X012600Y009861D02*
X012620Y009861D01*
X012632Y009919D02*
X012589Y009919D01*
X012530Y009978D02*
X012691Y009978D01*
X012749Y010036D02*
X012471Y010036D01*
X012413Y010095D02*
X012808Y010095D01*
X012866Y010153D02*
X012354Y010153D01*
X012313Y010214D02*
X012600Y010501D01*
X012600Y010907D01*
X012313Y011194D01*
X011907Y011194D01*
X011620Y010907D01*
X011620Y010501D01*
X011907Y010214D01*
X012313Y010214D01*
X012369Y010270D02*
X012878Y010270D01*
X012793Y010329D02*
X012428Y010329D01*
X012486Y010387D02*
X012734Y010387D01*
X012687Y010446D02*
X012545Y010446D01*
X012600Y010504D02*
X012663Y010504D01*
X012639Y010563D02*
X012600Y010563D01*
X012600Y010622D02*
X012620Y010622D01*
X012620Y010680D02*
X012600Y010680D01*
X012600Y010739D02*
X012620Y010739D01*
X012620Y010797D02*
X012600Y010797D01*
X012600Y010856D02*
X012643Y010856D01*
X012667Y010914D02*
X012593Y010914D01*
X012535Y010973D02*
X012691Y010973D01*
X012744Y011031D02*
X012476Y011031D01*
X012418Y011090D02*
X012803Y011090D01*
X012902Y011148D02*
X012359Y011148D01*
X011862Y011148D02*
X011359Y011148D01*
X011418Y011090D02*
X011803Y011090D01*
X011745Y011031D02*
X011476Y011031D01*
X011535Y010973D02*
X011686Y010973D01*
X011627Y010914D02*
X011593Y010914D01*
X011600Y010856D02*
X011620Y010856D01*
X011620Y010797D02*
X011600Y010797D01*
X011600Y010739D02*
X011620Y010739D01*
X011620Y010680D02*
X011600Y010680D01*
X011600Y010622D02*
X011620Y010622D01*
X011620Y010563D02*
X011600Y010563D01*
X011600Y010504D02*
X011620Y010504D01*
X011676Y010446D02*
X011545Y010446D01*
X011486Y010387D02*
X011734Y010387D01*
X011793Y010329D02*
X011428Y010329D01*
X011369Y010270D02*
X011851Y010270D01*
X011866Y010153D02*
X010600Y010153D01*
X010600Y010329D02*
X010793Y010329D01*
X010734Y010387D02*
X010600Y010387D01*
X010600Y010446D02*
X010676Y010446D01*
X010620Y010504D02*
X010600Y010504D01*
X010600Y010563D02*
X010620Y010563D01*
X010620Y010622D02*
X010600Y010622D01*
X010600Y010680D02*
X010620Y010680D01*
X010620Y010739D02*
X010600Y010739D01*
X010600Y010797D02*
X010620Y010797D01*
X010620Y010856D02*
X010600Y010856D01*
X010600Y010914D02*
X010627Y010914D01*
X010600Y010973D02*
X010686Y010973D01*
X010745Y011031D02*
X010600Y011031D01*
X010600Y011090D02*
X010803Y011090D01*
X010862Y011148D02*
X010600Y011148D01*
X010600Y012027D02*
X014370Y012027D01*
X014370Y012085D02*
X010600Y012085D01*
X010600Y012144D02*
X014370Y012144D01*
X014370Y012202D02*
X010600Y012202D01*
X010610Y012261D02*
X014370Y012261D01*
X014370Y012319D02*
X010661Y012319D01*
X010685Y012378D02*
X014370Y012378D01*
X014370Y012436D02*
X010709Y012436D01*
X010709Y012495D02*
X014370Y012495D01*
X014370Y012554D02*
X010709Y012554D01*
X010693Y012612D02*
X014370Y012612D01*
X014370Y012671D02*
X010669Y012671D01*
X010629Y012729D02*
X014370Y012729D01*
X014370Y012788D02*
X010570Y012788D01*
X010446Y012846D02*
X014370Y012846D01*
X014370Y013256D02*
X005448Y013256D01*
X006275Y014895D02*
X008008Y014895D01*
X008107Y014954D02*
X006176Y014954D01*
X005473Y015422D02*
X005470Y015422D01*
X004327Y016066D02*
X003109Y016066D01*
X003109Y016008D02*
X004245Y016008D01*
X003110Y020691D02*
X012061Y020691D01*
X012037Y020750D02*
X003110Y020750D01*
X003110Y020808D02*
X012012Y020808D01*
X012012Y020867D02*
X003110Y020867D01*
X003110Y020925D02*
X012012Y020925D01*
X012026Y020984D02*
X003110Y020984D01*
X003110Y021042D02*
X012050Y021042D01*
X012089Y021101D02*
X003110Y021101D01*
X003110Y021159D02*
X012147Y021159D01*
X012267Y021218D02*
X003110Y021218D01*
X003110Y024555D02*
X019512Y024555D01*
X019512Y024496D02*
X016423Y024496D01*
X016639Y024438D02*
X019512Y024438D01*
X019535Y024379D02*
X016741Y024379D01*
X016842Y024321D02*
X019559Y024321D01*
X019609Y024262D02*
X016918Y024262D01*
X016977Y024204D02*
X019675Y024204D01*
X020046Y024204D02*
X020110Y024204D01*
X020110Y024145D02*
X017035Y024145D01*
X017090Y024087D02*
X020110Y024087D01*
X020110Y024028D02*
X017124Y024028D01*
X017157Y023969D02*
X020110Y023969D01*
X020110Y023911D02*
X017191Y023911D01*
X017225Y023852D02*
X020110Y023852D01*
X020110Y023794D02*
X017242Y023794D01*
X017257Y023735D02*
X020110Y023735D01*
X020110Y023677D02*
X017273Y023677D01*
X017289Y023618D02*
X020110Y023618D01*
X020110Y023560D02*
X017300Y023560D01*
X017300Y023501D02*
X020110Y023501D01*
X020110Y023443D02*
X017300Y023443D01*
X017300Y023384D02*
X020110Y023384D01*
X020110Y023325D02*
X017300Y023325D01*
X017294Y023267D02*
X020110Y023267D01*
X020110Y023208D02*
X017278Y023208D01*
X017262Y023150D02*
X020110Y023150D01*
X020110Y023091D02*
X017247Y023091D01*
X017231Y023033D02*
X020110Y023033D01*
X020110Y022974D02*
X017202Y022974D01*
X017169Y022916D02*
X020110Y022916D01*
X020110Y022857D02*
X017135Y022857D01*
X017101Y022799D02*
X020110Y022799D01*
X020110Y022740D02*
X017055Y022740D01*
X016996Y022681D02*
X020110Y022681D01*
X020110Y022623D02*
X016937Y022623D01*
X016876Y022564D02*
X020110Y022564D01*
X020110Y022506D02*
X016774Y022506D01*
X016673Y022447D02*
X020110Y022447D01*
X020110Y022389D02*
X016495Y022389D01*
X016182Y022272D02*
X020110Y022272D01*
X020110Y022330D02*
X016124Y022330D01*
X016210Y022213D02*
X020110Y022213D01*
X020110Y022155D02*
X016225Y022155D01*
X016225Y022096D02*
X020110Y022096D01*
X020110Y022038D02*
X016225Y022038D01*
X016225Y021979D02*
X020110Y021979D01*
X020110Y021920D02*
X016225Y021920D01*
X016225Y021862D02*
X020110Y021862D01*
X020110Y021803D02*
X016242Y021803D01*
X016289Y021745D02*
X020110Y021745D01*
X020110Y021686D02*
X016313Y021686D01*
X016334Y021628D02*
X020110Y021628D01*
X020110Y021569D02*
X016334Y021569D01*
X016334Y021511D02*
X020110Y021511D01*
X020110Y021452D02*
X016315Y021452D01*
X016291Y021394D02*
X020110Y021394D01*
X020110Y021335D02*
X016247Y021335D01*
X015404Y021686D02*
X013632Y021686D01*
X013690Y021745D02*
X015314Y021745D01*
X014898Y022506D02*
X014751Y022506D01*
X014776Y022564D02*
X014956Y022564D01*
X014784Y022623D02*
X015504Y022623D01*
X015445Y022681D02*
X014784Y022681D01*
X014777Y022740D02*
X015387Y022740D01*
X015340Y022799D02*
X014753Y022799D01*
X014741Y022857D02*
X015306Y022857D01*
X015273Y022916D02*
X014766Y022916D01*
X014784Y022974D02*
X015239Y022974D01*
X015210Y023033D02*
X014784Y023033D01*
X014784Y023091D02*
X015194Y023091D01*
X015179Y023150D02*
X014763Y023150D01*
X014739Y023208D02*
X015163Y023208D01*
X015147Y023267D02*
X014691Y023267D01*
X014632Y023325D02*
X015141Y023325D01*
X015141Y023384D02*
X013224Y023384D01*
X013282Y023325D02*
X013864Y023325D01*
X013805Y023267D02*
X013306Y023267D01*
X013330Y023208D02*
X013757Y023208D01*
X013733Y023150D02*
X013334Y023150D01*
X013334Y023091D02*
X013712Y023091D01*
X013712Y023033D02*
X013323Y023033D01*
X013299Y022974D02*
X013712Y022974D01*
X013730Y022916D02*
X013265Y022916D01*
X013206Y022857D02*
X013754Y022857D01*
X013743Y022799D02*
X013098Y022799D01*
X012935Y022740D02*
X013718Y022740D01*
X013712Y022681D02*
X012877Y022681D01*
X012818Y022623D02*
X013712Y022623D01*
X013720Y022564D02*
X012760Y022564D01*
X012701Y022506D02*
X013744Y022506D01*
X013140Y023443D02*
X015141Y023443D01*
X015141Y023501D02*
X012600Y023501D01*
X012600Y023443D02*
X012830Y023443D01*
X012747Y023384D02*
X012600Y023384D01*
X012600Y023325D02*
X012689Y023325D01*
X012665Y023267D02*
X012600Y023267D01*
X012600Y023208D02*
X012641Y023208D01*
X012637Y023150D02*
X012600Y023150D01*
X012600Y023091D02*
X012608Y023091D01*
X012600Y023560D02*
X015141Y023560D01*
X015153Y023618D02*
X012600Y023618D01*
X012600Y023677D02*
X015168Y023677D01*
X015184Y023735D02*
X012600Y023735D01*
X012600Y023794D02*
X015200Y023794D01*
X015216Y023852D02*
X012598Y023852D01*
X012574Y023911D02*
X015250Y023911D01*
X015284Y023969D02*
X012549Y023969D01*
X012524Y024028D02*
X015318Y024028D01*
X015351Y024087D02*
X012465Y024087D01*
X012407Y024145D02*
X015406Y024145D01*
X014516Y024731D02*
X019593Y024731D01*
X019552Y024672D02*
X014471Y024672D01*
X014413Y024613D02*
X019528Y024613D01*
X019652Y024789D02*
X014540Y024789D01*
X014559Y024848D02*
X019778Y024848D01*
X019943Y024848D02*
X020110Y024848D01*
X020110Y024906D02*
X014559Y024906D01*
X014559Y024965D02*
X020110Y024965D01*
X020110Y025023D02*
X014539Y025023D01*
X014514Y025082D02*
X020110Y025082D01*
X020110Y025140D02*
X014520Y025140D01*
X014544Y025199D02*
X020110Y025199D01*
X020110Y025257D02*
X014559Y025257D01*
X014559Y025316D02*
X020110Y025316D01*
X020110Y025374D02*
X014559Y025374D01*
X014535Y025433D02*
X020110Y025433D01*
X020110Y025492D02*
X014510Y025492D01*
X014458Y025550D02*
X020110Y025550D01*
X020110Y025609D02*
X014387Y025609D01*
X014034Y025609D02*
X013987Y025609D01*
X013550Y024672D02*
X003110Y024672D01*
X003110Y024613D02*
X013608Y024613D01*
X013330Y026656D02*
X013458Y026709D01*
X013556Y026807D01*
X013609Y026935D01*
X013609Y027074D01*
X013556Y027202D01*
X013466Y027291D01*
X013508Y027309D01*
X013606Y027407D01*
X013659Y027535D01*
X013659Y027674D01*
X013606Y027802D01*
X013508Y027900D01*
X013380Y027953D01*
X013241Y027953D01*
X013113Y027900D01*
X013015Y027802D01*
X012962Y027674D01*
X012962Y027535D01*
X013015Y027407D01*
X013104Y027317D01*
X013063Y027300D01*
X012965Y027202D01*
X012912Y027074D01*
X012912Y026935D01*
X012965Y026807D01*
X013063Y026709D01*
X013191Y026656D01*
X013330Y026656D01*
X013346Y026662D02*
X018610Y026662D01*
X018610Y026604D02*
X010009Y026604D01*
X010009Y026585D02*
X009956Y026457D01*
X009858Y026359D01*
X009730Y026306D01*
X009591Y026306D01*
X009463Y026359D01*
X009365Y026457D01*
X009312Y026585D01*
X009312Y026724D01*
X009365Y026852D01*
X009463Y026950D01*
X009591Y027003D01*
X009730Y027003D01*
X009858Y026950D01*
X009956Y026852D01*
X010009Y026724D01*
X010009Y026585D01*
X009993Y026545D02*
X018610Y026545D01*
X018610Y026487D02*
X009968Y026487D01*
X009928Y026428D02*
X018610Y026428D01*
X018610Y026370D02*
X009869Y026370D01*
X009743Y026311D02*
X018610Y026311D01*
X018610Y026253D02*
X010151Y026253D01*
X010263Y026136D02*
X010849Y026136D01*
X010740Y026077D02*
X010287Y026077D01*
X010309Y026018D02*
X010681Y026018D01*
X010647Y025960D02*
X010309Y025960D01*
X010309Y025901D02*
X010623Y025901D01*
X010612Y025843D02*
X010292Y025843D01*
X010290Y025784D02*
X010612Y025784D01*
X010615Y025726D02*
X010290Y025726D01*
X010323Y025667D02*
X010640Y025667D01*
X010664Y025609D02*
X010381Y025609D01*
X010440Y025550D02*
X010721Y025550D01*
X010804Y025492D02*
X010490Y025492D01*
X010525Y025433D02*
X011032Y025433D01*
X010962Y025374D02*
X010583Y025374D01*
X010621Y025316D02*
X010910Y025316D01*
X010862Y025140D02*
X010659Y025140D01*
X010658Y025082D02*
X010862Y025082D01*
X010877Y025023D02*
X010634Y025023D01*
X010609Y024965D02*
X010901Y024965D01*
X010940Y024906D02*
X010555Y024906D01*
X010481Y024848D02*
X010999Y024848D01*
X010929Y024204D02*
X010292Y024204D01*
X010407Y024145D02*
X010814Y024145D01*
X010755Y024087D02*
X010465Y024087D01*
X010524Y024028D02*
X010697Y024028D01*
X010672Y023969D02*
X010549Y023969D01*
X010574Y023911D02*
X010647Y023911D01*
X010623Y023852D02*
X010598Y023852D01*
X010600Y023794D02*
X010620Y023794D01*
X010620Y023735D02*
X010600Y023735D01*
X010600Y023677D02*
X010620Y023677D01*
X010620Y023618D02*
X010600Y023618D01*
X010600Y023560D02*
X010620Y023560D01*
X010620Y023501D02*
X010600Y023501D01*
X010600Y023443D02*
X010620Y023443D01*
X010620Y023384D02*
X010600Y023384D01*
X010600Y023325D02*
X010620Y023325D01*
X010620Y023267D02*
X010600Y023267D01*
X010600Y023208D02*
X010620Y023208D01*
X010620Y023150D02*
X010600Y023150D01*
X010600Y023091D02*
X010620Y023091D01*
X010628Y023033D02*
X010593Y023033D01*
X010568Y022974D02*
X010652Y022974D01*
X011549Y023969D02*
X011672Y023969D01*
X011647Y023911D02*
X011574Y023911D01*
X011598Y023852D02*
X011623Y023852D01*
X011620Y023794D02*
X011600Y023794D01*
X011600Y023735D02*
X011620Y023735D01*
X011620Y023677D02*
X011600Y023677D01*
X011600Y023618D02*
X011620Y023618D01*
X011620Y023560D02*
X011600Y023560D01*
X011600Y023501D02*
X011620Y023501D01*
X011620Y023443D02*
X011600Y023443D01*
X011600Y023384D02*
X011620Y023384D01*
X011620Y023325D02*
X011600Y023325D01*
X011600Y023267D02*
X011620Y023267D01*
X011620Y023208D02*
X011600Y023208D01*
X011600Y023150D02*
X011620Y023150D01*
X011620Y023091D02*
X011600Y023091D01*
X011593Y023033D02*
X011628Y023033D01*
X011652Y022974D02*
X011568Y022974D01*
X011524Y024028D02*
X011697Y024028D01*
X011755Y024087D02*
X011465Y024087D01*
X011407Y024145D02*
X011814Y024145D01*
X011929Y024204D02*
X011292Y024204D01*
X010140Y024848D02*
X003110Y024848D01*
X003110Y024906D02*
X010065Y024906D01*
X010011Y024965D02*
X003110Y024965D01*
X003110Y025023D02*
X009987Y025023D01*
X009963Y025082D02*
X003110Y025082D01*
X003110Y025140D02*
X009962Y025140D01*
X009962Y025199D02*
X003110Y025199D01*
X003110Y025257D02*
X009976Y025257D01*
X010000Y025316D02*
X003110Y025316D01*
X003110Y025374D02*
X009965Y025374D01*
X009906Y025433D02*
X003110Y025433D01*
X003110Y025492D02*
X009848Y025492D01*
X009830Y025550D02*
X003110Y025550D01*
X003110Y025609D02*
X009830Y025609D01*
X009754Y025667D02*
X003110Y025667D01*
X003110Y025726D02*
X009696Y025726D01*
X009653Y025784D02*
X005110Y025784D01*
X005110Y025843D02*
X009629Y025843D01*
X009612Y025901D02*
X005110Y025901D01*
X005110Y025960D02*
X009612Y025960D01*
X009612Y026018D02*
X005110Y026018D01*
X005110Y026077D02*
X009634Y026077D01*
X009658Y026136D02*
X005110Y026136D01*
X005110Y026194D02*
X009707Y026194D01*
X009769Y026253D02*
X005110Y026253D01*
X005110Y026311D02*
X009577Y026311D01*
X009452Y026370D02*
X005110Y026370D01*
X005110Y026428D02*
X009393Y026428D01*
X009352Y026487D02*
X005110Y026487D01*
X005110Y026545D02*
X009328Y026545D01*
X009312Y026604D02*
X005110Y026604D01*
X005110Y026662D02*
X009312Y026662D01*
X009312Y026721D02*
X005110Y026721D01*
X005110Y026780D02*
X009335Y026780D01*
X009359Y026838D02*
X005110Y026838D01*
X005110Y026897D02*
X009409Y026897D01*
X009475Y026955D02*
X005110Y026955D01*
X005110Y027014D02*
X012912Y027014D01*
X012912Y027072D02*
X005110Y027072D01*
X005110Y027131D02*
X012935Y027131D01*
X012960Y027189D02*
X005110Y027189D01*
X005110Y027248D02*
X013011Y027248D01*
X013078Y027306D02*
X005110Y027306D01*
X005110Y027365D02*
X013057Y027365D01*
X013008Y027424D02*
X005110Y027424D01*
X005110Y027482D02*
X007887Y027482D01*
X007891Y027481D02*
X008030Y027481D01*
X008158Y027534D01*
X008256Y027632D01*
X008309Y027760D01*
X008309Y027899D01*
X008256Y028027D01*
X008224Y028059D01*
X008283Y028084D01*
X008381Y028182D01*
X008434Y028310D01*
X008434Y028449D01*
X008381Y028577D01*
X008331Y028627D01*
X008408Y028659D01*
X008506Y028757D01*
X008559Y028885D01*
X008559Y029024D01*
X008506Y029152D01*
X008408Y029250D01*
X008280Y029303D01*
X008141Y029303D01*
X008013Y029250D01*
X007915Y029152D01*
X007862Y029024D01*
X007862Y028885D01*
X007915Y028757D01*
X007965Y028707D01*
X007888Y028675D01*
X007790Y028577D01*
X007737Y028449D01*
X007737Y028310D01*
X007790Y028182D01*
X007822Y028149D01*
X007763Y028125D01*
X007665Y028027D01*
X007612Y027899D01*
X007612Y027760D01*
X007665Y027632D01*
X007763Y027534D01*
X007891Y027481D01*
X008033Y027482D02*
X012984Y027482D01*
X012962Y027541D02*
X008165Y027541D01*
X008223Y027599D02*
X012962Y027599D01*
X012962Y027658D02*
X008267Y027658D01*
X008291Y027716D02*
X012979Y027716D01*
X013004Y027775D02*
X008309Y027775D01*
X008309Y027833D02*
X013046Y027833D01*
X013105Y027892D02*
X008309Y027892D01*
X008288Y027950D02*
X013235Y027950D01*
X013386Y027950D02*
X018610Y027950D01*
X018610Y027892D02*
X013516Y027892D01*
X013575Y027833D02*
X018610Y027833D01*
X018610Y027775D02*
X013617Y027775D01*
X013641Y027716D02*
X018610Y027716D01*
X018610Y027658D02*
X013659Y027658D01*
X013659Y027599D02*
X018610Y027599D01*
X018610Y027541D02*
X013659Y027541D01*
X013637Y027482D02*
X018610Y027482D01*
X018610Y027424D02*
X013613Y027424D01*
X013564Y027365D02*
X018610Y027365D01*
X018610Y027306D02*
X013502Y027306D01*
X013510Y027248D02*
X018610Y027248D01*
X018610Y027189D02*
X013561Y027189D01*
X013585Y027131D02*
X018610Y027131D01*
X018610Y027072D02*
X013609Y027072D01*
X013609Y027014D02*
X018610Y027014D01*
X018610Y026955D02*
X013609Y026955D01*
X013593Y026897D02*
X018610Y026897D01*
X018610Y026838D02*
X013569Y026838D01*
X013529Y026780D02*
X018610Y026780D01*
X018610Y026721D02*
X013470Y026721D01*
X013174Y026662D02*
X010009Y026662D01*
X010009Y026721D02*
X013051Y026721D01*
X012992Y026780D02*
X009986Y026780D01*
X009962Y026838D02*
X012952Y026838D01*
X012927Y026897D02*
X009911Y026897D01*
X009845Y026955D02*
X012912Y026955D01*
X013041Y028256D02*
X012913Y028309D01*
X012815Y028407D01*
X012762Y028535D01*
X012762Y028674D01*
X012815Y028802D01*
X012913Y028900D01*
X013041Y028953D01*
X013180Y028953D01*
X013308Y028900D01*
X013406Y028802D01*
X013459Y028674D01*
X013459Y028535D01*
X013406Y028407D01*
X013308Y028309D01*
X013180Y028256D01*
X013041Y028256D01*
X012930Y028302D02*
X008431Y028302D01*
X008434Y028360D02*
X012861Y028360D01*
X012810Y028419D02*
X008434Y028419D01*
X008422Y028477D02*
X012786Y028477D01*
X012762Y028536D02*
X008398Y028536D01*
X008364Y028594D02*
X012762Y028594D01*
X012762Y028653D02*
X008394Y028653D01*
X008461Y028711D02*
X012777Y028711D01*
X012802Y028770D02*
X008511Y028770D01*
X008536Y028829D02*
X012841Y028829D01*
X012900Y028887D02*
X008559Y028887D01*
X008559Y028946D02*
X013023Y028946D01*
X013198Y028946D02*
X013671Y028946D01*
X013662Y028924D02*
X013662Y028785D01*
X013715Y028657D01*
X013813Y028559D01*
X013941Y028506D01*
X014080Y028506D01*
X014208Y028559D01*
X014306Y028657D01*
X014359Y028785D01*
X014359Y028924D01*
X014306Y029052D01*
X014208Y029150D01*
X014080Y029203D01*
X013941Y029203D01*
X013813Y029150D01*
X013715Y029052D01*
X013662Y028924D01*
X013662Y028887D02*
X013321Y028887D01*
X013379Y028829D02*
X013662Y028829D01*
X013668Y028770D02*
X013419Y028770D01*
X013443Y028711D02*
X013692Y028711D01*
X013719Y028653D02*
X013459Y028653D01*
X013459Y028594D02*
X013777Y028594D01*
X013868Y028536D02*
X013459Y028536D01*
X013435Y028477D02*
X018610Y028477D01*
X018610Y028419D02*
X013411Y028419D01*
X013359Y028360D02*
X018610Y028360D01*
X018610Y028302D02*
X013291Y028302D01*
X013695Y029004D02*
X008559Y029004D01*
X008543Y029063D02*
X013726Y029063D01*
X013784Y029121D02*
X008519Y029121D01*
X008478Y029180D02*
X013885Y029180D01*
X014136Y029180D02*
X018610Y029180D01*
X018610Y029238D02*
X008420Y029238D01*
X008295Y029297D02*
X018610Y029297D01*
X018610Y029355D02*
X005110Y029355D01*
X005110Y029297D02*
X008126Y029297D01*
X008001Y029238D02*
X005110Y029238D01*
X005110Y029180D02*
X007943Y029180D01*
X007902Y029121D02*
X005110Y029121D01*
X005110Y029063D02*
X007878Y029063D01*
X007862Y029004D02*
X005110Y029004D01*
X005110Y028946D02*
X007862Y028946D01*
X007862Y028887D02*
X005110Y028887D01*
X005110Y028829D02*
X007885Y028829D01*
X007909Y028770D02*
X005110Y028770D01*
X005110Y028711D02*
X007960Y028711D01*
X007866Y028653D02*
X005110Y028653D01*
X005110Y028594D02*
X007807Y028594D01*
X007773Y028536D02*
X005110Y028536D01*
X005110Y028477D02*
X007749Y028477D01*
X007737Y028419D02*
X005110Y028419D01*
X005110Y028360D02*
X007737Y028360D01*
X007740Y028302D02*
X005110Y028302D01*
X005110Y028243D02*
X007764Y028243D01*
X007789Y028185D02*
X005110Y028185D01*
X005110Y028126D02*
X007765Y028126D01*
X007705Y028067D02*
X005110Y028067D01*
X005110Y028009D02*
X007657Y028009D01*
X007633Y027950D02*
X005110Y027950D01*
X005110Y027892D02*
X007612Y027892D01*
X007612Y027833D02*
X005110Y027833D01*
X005110Y027775D02*
X007612Y027775D01*
X007630Y027716D02*
X005110Y027716D01*
X005110Y027658D02*
X007654Y027658D01*
X007697Y027599D02*
X005110Y027599D01*
X005110Y027541D02*
X007756Y027541D01*
X008263Y028009D02*
X018610Y028009D01*
X018610Y028067D02*
X008244Y028067D01*
X008325Y028126D02*
X018610Y028126D01*
X018610Y028185D02*
X008382Y028185D01*
X008406Y028243D02*
X018610Y028243D01*
X018610Y028536D02*
X014153Y028536D01*
X014244Y028594D02*
X018610Y028594D01*
X018610Y028653D02*
X014302Y028653D01*
X014329Y028711D02*
X018610Y028711D01*
X018610Y028770D02*
X014353Y028770D01*
X014359Y028829D02*
X018610Y028829D01*
X018610Y028887D02*
X014359Y028887D01*
X014350Y028946D02*
X018610Y028946D01*
X018610Y029004D02*
X014326Y029004D01*
X014295Y029063D02*
X018610Y029063D01*
X018610Y029121D02*
X014237Y029121D01*
X018610Y029414D02*
X005110Y029414D01*
X005110Y029473D02*
X018610Y029473D01*
X018610Y029531D02*
X005110Y029531D01*
X005110Y029590D02*
X018610Y029590D01*
X018610Y029648D02*
X005110Y029648D01*
X005110Y029707D02*
X018610Y029707D01*
X018610Y029765D02*
X005110Y029765D01*
X005110Y029824D02*
X007697Y029824D01*
X007741Y029806D02*
X007880Y029806D01*
X008008Y029859D01*
X008106Y029957D01*
X008159Y030085D01*
X008159Y030224D01*
X008106Y030352D01*
X008008Y030450D01*
X007880Y030503D01*
X007741Y030503D01*
X007613Y030450D01*
X007515Y030352D01*
X007462Y030224D01*
X007462Y030085D01*
X007515Y029957D01*
X007613Y029859D01*
X007741Y029806D01*
X007589Y029882D02*
X005110Y029882D01*
X005110Y029941D02*
X007531Y029941D01*
X007497Y029999D02*
X005110Y029999D01*
X005110Y030058D02*
X007473Y030058D01*
X007462Y030116D02*
X005110Y030116D01*
X005110Y030175D02*
X007462Y030175D01*
X007466Y030234D02*
X005110Y030234D01*
X005110Y030292D02*
X007490Y030292D01*
X007514Y030351D02*
X005110Y030351D01*
X005110Y030409D02*
X007572Y030409D01*
X007656Y030468D02*
X005110Y030468D01*
X005110Y030526D02*
X009291Y030526D01*
X009288Y030525D02*
X009190Y030427D01*
X009137Y030299D01*
X009137Y030160D01*
X009190Y030032D01*
X009288Y029934D01*
X009416Y029881D01*
X009555Y029881D01*
X009683Y029934D01*
X009781Y030032D01*
X009834Y030160D01*
X009834Y030299D01*
X009781Y030427D01*
X009683Y030525D01*
X009555Y030578D01*
X009416Y030578D01*
X009288Y030525D01*
X009231Y030468D02*
X008765Y030468D01*
X008808Y030450D02*
X008680Y030503D01*
X008541Y030503D01*
X008413Y030450D01*
X008315Y030352D01*
X008262Y030224D01*
X008262Y030085D01*
X008315Y029957D01*
X008413Y029859D01*
X008541Y029806D01*
X008680Y029806D01*
X008808Y029859D01*
X008906Y029957D01*
X008959Y030085D01*
X008959Y030224D01*
X008906Y030352D01*
X008808Y030450D01*
X008849Y030409D02*
X009182Y030409D01*
X009158Y030351D02*
X008907Y030351D01*
X008931Y030292D02*
X009137Y030292D01*
X009137Y030234D02*
X008955Y030234D01*
X008959Y030175D02*
X009137Y030175D01*
X009155Y030116D02*
X008959Y030116D01*
X008948Y030058D02*
X009179Y030058D01*
X009222Y029999D02*
X008924Y029999D01*
X008890Y029941D02*
X009281Y029941D01*
X009412Y029882D02*
X008832Y029882D01*
X008724Y029824D02*
X018610Y029824D01*
X018610Y029882D02*
X009559Y029882D01*
X009690Y029941D02*
X018610Y029941D01*
X018610Y029999D02*
X009749Y029999D01*
X009792Y030058D02*
X018610Y030058D01*
X018610Y030116D02*
X009816Y030116D01*
X009834Y030175D02*
X018610Y030175D01*
X018610Y030234D02*
X009834Y030234D01*
X009834Y030292D02*
X018610Y030292D01*
X018610Y030351D02*
X009813Y030351D01*
X009788Y030409D02*
X018610Y030409D01*
X018610Y030468D02*
X009740Y030468D01*
X009680Y030526D02*
X018610Y030526D01*
X018610Y030585D02*
X005110Y030585D01*
X005110Y030643D02*
X018610Y030643D01*
X018610Y030702D02*
X005110Y030702D01*
X005110Y030760D02*
X018610Y030760D01*
X018610Y030819D02*
X005110Y030819D01*
X005110Y030878D02*
X018610Y030878D01*
X018610Y030936D02*
X005110Y030936D01*
X005110Y030995D02*
X018610Y030995D01*
X018610Y031053D02*
X005110Y031053D01*
X005110Y031112D02*
X018610Y031112D01*
X018610Y031170D02*
X005110Y031170D01*
X005110Y031229D02*
X018610Y031229D01*
X018610Y031287D02*
X005110Y031287D01*
X005110Y031346D02*
X018610Y031346D01*
X018610Y031404D02*
X005110Y031404D01*
X005110Y031463D02*
X018610Y031463D01*
X018610Y031522D02*
X005110Y031522D01*
X005110Y031580D02*
X018610Y031580D01*
X018610Y031639D02*
X005110Y031639D01*
X005110Y031697D02*
X018610Y031697D01*
X018610Y031756D02*
X005110Y031756D01*
X005110Y031814D02*
X018610Y031814D01*
X018610Y031873D02*
X005110Y031873D01*
X005110Y031931D02*
X018610Y031931D01*
X018610Y031990D02*
X005110Y031990D01*
X005110Y032048D02*
X018610Y032048D01*
X018610Y032107D02*
X005110Y032107D01*
X005110Y032166D02*
X018610Y032166D01*
X018610Y032224D02*
X005110Y032224D01*
X005110Y032283D02*
X018610Y032283D01*
X018610Y032341D02*
X005110Y032341D01*
X005110Y032400D02*
X018610Y032400D01*
X018610Y032458D02*
X005110Y032458D01*
X005110Y032517D02*
X018610Y032517D01*
X018610Y032575D02*
X005110Y032575D01*
X005110Y032634D02*
X018610Y032634D01*
X018610Y032692D02*
X005110Y032692D01*
X005110Y032751D02*
X018610Y032751D01*
X018610Y032809D02*
X005110Y032809D01*
X005110Y032868D02*
X018610Y032868D01*
X018610Y032927D02*
X005110Y032927D01*
X005110Y032985D02*
X018610Y032985D01*
X018610Y033044D02*
X005110Y033044D01*
X005110Y033102D02*
X018610Y033102D01*
X018610Y033161D02*
X005110Y033161D01*
X005110Y033219D02*
X018610Y033219D01*
X018610Y033278D02*
X005110Y033278D01*
X005110Y033336D02*
X018610Y033336D01*
X018610Y033395D02*
X005110Y033395D01*
X005110Y033453D02*
X018610Y033453D01*
X018610Y033512D02*
X005110Y033512D01*
X005110Y033571D02*
X018610Y033571D01*
X018610Y033629D02*
X005110Y033629D01*
X005110Y033688D02*
X018610Y033688D01*
X018610Y033746D02*
X005110Y033746D01*
X005110Y033805D02*
X018610Y033805D01*
X018610Y033863D02*
X005110Y033863D01*
X005110Y033922D02*
X018610Y033922D01*
X018610Y033980D02*
X005110Y033980D01*
X005110Y034039D02*
X018610Y034039D01*
X018610Y034097D02*
X005110Y034097D01*
X005110Y034156D02*
X018610Y034156D01*
X018610Y034215D02*
X005110Y034215D01*
X005110Y034273D02*
X018610Y034273D01*
X018610Y034332D02*
X005110Y034332D01*
X005110Y034390D02*
X018610Y034390D01*
X018610Y034449D02*
X005110Y034449D01*
X007965Y030468D02*
X008456Y030468D01*
X008372Y030409D02*
X008049Y030409D01*
X008107Y030351D02*
X008314Y030351D01*
X008290Y030292D02*
X008131Y030292D01*
X008155Y030234D02*
X008266Y030234D01*
X008262Y030175D02*
X008159Y030175D01*
X008159Y030116D02*
X008262Y030116D01*
X008273Y030058D02*
X008148Y030058D01*
X008124Y029999D02*
X008297Y029999D01*
X008331Y029941D02*
X008090Y029941D01*
X008032Y029882D02*
X008389Y029882D01*
X008497Y029824D02*
X007924Y029824D01*
X008929Y024204D02*
X005756Y024204D01*
X005815Y024145D02*
X008814Y024145D01*
X008755Y024087D02*
X005869Y024087D01*
X005903Y024028D02*
X008697Y024028D01*
X008672Y023969D02*
X005937Y023969D01*
X005971Y023911D02*
X008647Y023911D01*
X008623Y023852D02*
X006005Y023852D01*
X006021Y023794D02*
X008620Y023794D01*
X008620Y023735D02*
X006037Y023735D01*
X006052Y023677D02*
X008620Y023677D01*
X008620Y023618D02*
X006068Y023618D01*
X006080Y023560D02*
X008620Y023560D01*
X009292Y024204D02*
X009929Y024204D01*
X009814Y024145D02*
X009407Y024145D01*
X009465Y024087D02*
X009755Y024087D01*
X009697Y024028D02*
X009524Y024028D01*
X009549Y023969D02*
X009672Y023969D01*
X009647Y023911D02*
X009574Y023911D01*
X009598Y023852D02*
X009623Y023852D01*
X009620Y023794D02*
X009600Y023794D01*
X009600Y023735D02*
X009620Y023735D01*
X009620Y023677D02*
X009600Y023677D01*
X009600Y023618D02*
X009620Y023618D01*
X009620Y023560D02*
X009600Y023560D01*
X009600Y023501D02*
X009620Y023501D01*
X009620Y023443D02*
X009600Y023443D01*
X009600Y023384D02*
X009620Y023384D01*
X009620Y023325D02*
X009600Y023325D01*
X009600Y023267D02*
X009620Y023267D01*
X009620Y023208D02*
X009600Y023208D01*
X009600Y023150D02*
X009620Y023150D01*
X009620Y023091D02*
X009600Y023091D01*
X009593Y023033D02*
X009628Y023033D01*
X009652Y022974D02*
X009568Y022974D01*
X010687Y017296D02*
X011283Y017296D01*
X011687Y017296D02*
X020109Y017296D01*
X020109Y017237D02*
X011746Y017237D01*
X011791Y017178D02*
X020109Y017178D01*
X020109Y017120D02*
X011815Y017120D01*
X011834Y017061D02*
X020109Y017061D01*
X020109Y017003D02*
X011834Y017003D01*
X011834Y016944D02*
X019334Y016944D01*
X019249Y016886D02*
X011814Y016886D01*
X011684Y016710D02*
X019141Y016710D01*
X019137Y016652D02*
X010581Y016652D01*
X010640Y016593D02*
X019137Y016593D01*
X019147Y016534D02*
X010674Y016534D01*
X010698Y016476D02*
X015661Y016476D01*
X015666Y016478D02*
X015538Y016425D01*
X015440Y016327D01*
X015387Y016199D01*
X015387Y016060D01*
X015440Y015932D01*
X015495Y015876D01*
X015495Y015445D01*
X015440Y015389D01*
X015387Y015261D01*
X015387Y015122D01*
X015440Y014994D01*
X015538Y014896D01*
X015666Y014843D01*
X015805Y014843D01*
X015933Y014896D01*
X016031Y014994D01*
X016084Y015122D01*
X016084Y015261D01*
X016031Y015389D01*
X015975Y015445D01*
X015975Y015876D01*
X016031Y015932D01*
X016084Y016060D01*
X016084Y016199D01*
X016031Y016327D01*
X015933Y016425D01*
X015805Y016478D01*
X015666Y016478D01*
X015810Y016476D02*
X019171Y016476D01*
X019204Y016417D02*
X015941Y016417D01*
X015999Y016359D02*
X019263Y016359D01*
X019368Y016300D02*
X016042Y016300D01*
X016066Y016242D02*
X019534Y016242D01*
X019592Y016183D02*
X016084Y016183D01*
X016084Y016125D02*
X019620Y016125D01*
X019620Y016066D02*
X016084Y016066D01*
X016062Y016008D02*
X019620Y016008D01*
X019620Y015949D02*
X016038Y015949D01*
X015990Y015890D02*
X019620Y015890D01*
X019620Y015832D02*
X015975Y015832D01*
X015975Y015773D02*
X019620Y015773D01*
X019620Y015715D02*
X019587Y015715D01*
X019384Y015715D02*
X015975Y015715D01*
X015975Y015656D02*
X019269Y015656D01*
X019211Y015598D02*
X015975Y015598D01*
X015975Y015539D02*
X019174Y015539D01*
X019150Y015481D02*
X015975Y015481D01*
X015998Y015422D02*
X019137Y015422D01*
X019137Y015364D02*
X016042Y015364D01*
X016066Y015305D02*
X019139Y015305D01*
X019163Y015246D02*
X016084Y015246D01*
X016084Y015188D02*
X019187Y015188D01*
X019242Y015129D02*
X016084Y015129D01*
X016063Y015071D02*
X019319Y015071D01*
X019370Y015012D02*
X016039Y015012D01*
X015991Y014954D02*
X019370Y014954D01*
X019370Y014895D02*
X015931Y014895D01*
X015540Y014895D02*
X015463Y014895D01*
X015480Y014954D02*
X015363Y014954D01*
X015432Y015012D02*
X014959Y015012D01*
X014959Y014954D02*
X015107Y014954D01*
X015008Y014895D02*
X014943Y014895D01*
X014950Y014837D02*
X014918Y014837D01*
X014920Y014778D02*
X014877Y014778D01*
X014895Y014720D02*
X014850Y014720D01*
X014850Y014661D02*
X014887Y014661D01*
X014869Y014603D02*
X014850Y014603D01*
X015225Y014251D02*
X016286Y014251D01*
X016310Y014193D02*
X015225Y014193D01*
X015225Y014134D02*
X016362Y014134D01*
X016315Y014182D02*
X016413Y014084D01*
X016541Y014031D01*
X016680Y014031D01*
X016808Y014084D01*
X016906Y014182D01*
X016959Y014310D01*
X016959Y014449D01*
X016906Y014577D01*
X016808Y014675D01*
X016680Y014728D01*
X016541Y014728D01*
X016413Y014675D01*
X016315Y014577D01*
X016262Y014449D01*
X016262Y014310D01*
X015375Y014310D01*
X015468Y014368D02*
X016262Y014368D01*
X016262Y014310D02*
X016315Y014182D01*
X016432Y014076D02*
X015225Y014076D01*
X015225Y014017D02*
X018880Y014017D01*
X018821Y013959D02*
X015225Y013959D01*
X015225Y013900D02*
X018793Y013900D01*
X018769Y013841D02*
X015225Y013841D01*
X015225Y013783D02*
X018762Y013783D01*
X018762Y013724D02*
X015225Y013724D01*
X015225Y013666D02*
X018770Y013666D01*
X018975Y014076D02*
X016789Y014076D01*
X016858Y014134D02*
X019370Y014134D01*
X019370Y014076D02*
X019246Y014076D01*
X019341Y014017D02*
X019370Y014017D01*
X019370Y014193D02*
X016911Y014193D01*
X016935Y014251D02*
X019370Y014251D01*
X019370Y014310D02*
X016959Y014310D01*
X016959Y014368D02*
X019370Y014368D01*
X019370Y014427D02*
X016959Y014427D01*
X016944Y014485D02*
X019370Y014485D01*
X019370Y014544D02*
X016920Y014544D01*
X016880Y014603D02*
X019370Y014603D01*
X019370Y014661D02*
X016822Y014661D01*
X016700Y014720D02*
X019370Y014720D01*
X019370Y014778D02*
X015551Y014778D01*
X015575Y014720D02*
X016521Y014720D01*
X016399Y014661D02*
X015584Y014661D01*
X015584Y014603D02*
X016340Y014603D01*
X016301Y014544D02*
X015577Y014544D01*
X015553Y014485D02*
X016277Y014485D01*
X016262Y014427D02*
X015526Y014427D01*
X015521Y014837D02*
X019370Y014837D01*
X019339Y013490D02*
X019370Y013490D01*
X019370Y013432D02*
X019243Y013432D01*
X019978Y016476D02*
X019993Y016476D01*
X020051Y016534D02*
X019920Y016534D01*
X019861Y016593D02*
X020109Y016593D01*
X020109Y016652D02*
X019834Y016652D01*
X019829Y016710D02*
X020109Y016710D01*
X020109Y016769D02*
X019805Y016769D01*
X019781Y016827D02*
X020109Y016827D01*
X020109Y016886D02*
X019722Y016886D01*
X019636Y016944D02*
X020109Y016944D01*
X019596Y010329D02*
X017238Y010329D01*
X017338Y010270D02*
X019537Y010270D01*
X019510Y010212D02*
X017396Y010212D01*
X017426Y010153D02*
X019495Y010153D01*
X019495Y010095D02*
X017450Y010095D01*
X017459Y010036D02*
X019495Y010036D01*
X019495Y009978D02*
X017459Y009978D01*
X017453Y009919D02*
X019495Y009919D01*
X019495Y009861D02*
X017428Y009861D01*
X017401Y009802D02*
X019495Y009802D01*
X019495Y009743D02*
X017343Y009743D01*
X017250Y009685D02*
X019495Y009685D01*
X015790Y007636D02*
X012850Y007636D01*
X012850Y007577D02*
X015704Y007577D01*
X015645Y007519D02*
X012850Y007519D01*
X012850Y007460D02*
X015608Y007460D01*
X015584Y007402D02*
X012850Y007402D01*
X012850Y007343D02*
X015559Y007343D01*
X015558Y007285D02*
X012850Y007285D01*
X012850Y007226D02*
X015558Y007226D01*
X015559Y007168D02*
X012850Y007168D01*
X012850Y007109D02*
X015583Y007109D01*
X015607Y007050D02*
X012850Y007050D01*
X012850Y006992D02*
X015643Y006992D01*
X015702Y006933D02*
X012850Y006933D01*
X012858Y006875D02*
X015785Y006875D01*
X015952Y004006D02*
X005269Y004006D01*
X005449Y003948D02*
X015771Y003948D01*
X015670Y003889D02*
X005551Y003889D01*
X005652Y003831D02*
X015569Y003831D01*
X015505Y003772D02*
X005715Y003772D01*
X005774Y003713D02*
X015447Y003713D01*
X015388Y003655D02*
X005832Y003655D01*
X005880Y003596D02*
X015341Y003596D01*
X015307Y003538D02*
X014284Y003538D01*
X014403Y003479D02*
X015274Y003479D01*
X015240Y003421D02*
X014462Y003421D01*
X014520Y003362D02*
X015211Y003362D01*
X013937Y003538D02*
X013284Y003538D01*
X013403Y003479D02*
X013817Y003479D01*
X013759Y003421D02*
X013462Y003421D01*
X013520Y003362D02*
X013700Y003362D01*
X012937Y003538D02*
X012284Y003538D01*
X012403Y003479D02*
X012817Y003479D01*
X012759Y003421D02*
X012462Y003421D01*
X012520Y003362D02*
X012700Y003362D01*
X011937Y003538D02*
X011284Y003538D01*
X011403Y003479D02*
X011817Y003479D01*
X011759Y003421D02*
X011462Y003421D01*
X011520Y003362D02*
X011700Y003362D01*
X010937Y003538D02*
X010284Y003538D01*
X010403Y003479D02*
X010817Y003479D01*
X010759Y003421D02*
X010462Y003421D01*
X010520Y003362D02*
X010700Y003362D01*
X009937Y003538D02*
X009284Y003538D01*
X009403Y003479D02*
X009817Y003479D01*
X009759Y003421D02*
X009462Y003421D01*
X009520Y003362D02*
X009700Y003362D01*
X008937Y003538D02*
X007284Y003538D01*
X007403Y003479D02*
X007950Y003479D01*
X007849Y003421D02*
X007462Y003421D01*
X007520Y003362D02*
X007785Y003362D01*
X008080Y003362D02*
X008140Y003362D01*
X008140Y003421D02*
X008080Y003421D01*
X008080Y003479D02*
X008140Y003479D01*
X008271Y003479D02*
X008817Y003479D01*
X008759Y003421D02*
X008372Y003421D01*
X008436Y003362D02*
X008700Y003362D01*
X006937Y003538D02*
X005913Y003538D01*
X005947Y003479D02*
X006817Y003479D01*
X006759Y003421D02*
X005981Y003421D01*
X006010Y003362D02*
X006700Y003362D01*
X004732Y004006D02*
X003107Y004006D01*
X003107Y003948D02*
X004551Y003948D01*
X004450Y003889D02*
X003107Y003889D01*
X003107Y003831D02*
X004348Y003831D01*
X004285Y003772D02*
X003107Y003772D01*
X003107Y003713D02*
X004226Y003713D01*
X004168Y003655D02*
X003107Y003655D01*
X003107Y003596D02*
X004121Y003596D01*
X004087Y003538D02*
X003107Y003538D01*
X003107Y003479D02*
X004053Y003479D01*
X004019Y003421D02*
X003107Y003421D01*
X003107Y003362D02*
X003990Y003362D01*
X004246Y006641D02*
X003108Y006641D01*
X003108Y006699D02*
X004186Y006699D01*
X004127Y006758D02*
X003108Y006758D01*
X003108Y006816D02*
X004101Y006816D01*
X004076Y006875D02*
X003108Y006875D01*
X003108Y006933D02*
X004058Y006933D01*
X004058Y006992D02*
X003108Y006992D01*
X003108Y007050D02*
X004058Y007050D01*
X004066Y007109D02*
X003108Y007109D01*
X003108Y007168D02*
X004090Y007168D01*
X004115Y007226D02*
X003108Y007226D01*
X003108Y007285D02*
X004161Y007285D01*
X004220Y007343D02*
X003108Y007343D01*
X003108Y007402D02*
X004328Y007402D01*
X004643Y007402D02*
X004953Y007402D01*
X004845Y007343D02*
X004751Y007343D01*
X008762Y013315D02*
X014370Y013315D01*
X014370Y013373D02*
X008847Y013373D01*
X008906Y013432D02*
X014370Y013432D01*
X014370Y013490D02*
X008930Y013490D01*
X008954Y013549D02*
X014370Y013549D01*
X014370Y013607D02*
X008959Y013607D01*
X008959Y013666D02*
X014370Y013666D01*
X014370Y013724D02*
X008948Y013724D01*
X008924Y013783D02*
X014370Y013783D01*
X014370Y013841D02*
X008891Y013841D01*
X008833Y013900D02*
X014370Y013900D01*
X014370Y013959D02*
X008808Y013959D01*
X008866Y014017D02*
X014370Y014017D01*
X014370Y014076D02*
X008914Y014076D01*
X008938Y014134D02*
X014370Y014134D01*
X014370Y014193D02*
X008959Y014193D01*
X008959Y014251D02*
X014370Y014251D01*
X014370Y014310D02*
X008959Y014310D01*
X008941Y014368D02*
X014370Y014368D01*
X014370Y014427D02*
X008916Y014427D01*
X008872Y014485D02*
X014370Y014485D01*
X014370Y014544D02*
X008814Y014544D01*
X008681Y014603D02*
X014370Y014603D01*
X014370Y014661D02*
X008584Y014661D01*
X008575Y014720D02*
X014370Y014720D01*
X014343Y014778D02*
X008551Y014778D01*
X008521Y014837D02*
X014302Y014837D01*
X014278Y014895D02*
X008463Y014895D01*
X008363Y014954D02*
X014262Y014954D01*
X014796Y015305D02*
X015405Y015305D01*
X015387Y015246D02*
X014861Y015246D01*
X014912Y015188D02*
X015387Y015188D01*
X015387Y015129D02*
X014936Y015129D01*
X014959Y015071D02*
X015408Y015071D01*
X015429Y015364D02*
X013167Y015364D01*
X013271Y015422D02*
X015473Y015422D01*
X015495Y015481D02*
X013330Y015481D01*
X013362Y015539D02*
X015495Y015539D01*
X015495Y015598D02*
X013386Y015598D01*
X013397Y015656D02*
X015495Y015656D01*
X015495Y015715D02*
X013397Y015715D01*
X013392Y015773D02*
X015495Y015773D01*
X015495Y015832D02*
X013367Y015832D01*
X013342Y015890D02*
X015481Y015890D01*
X015433Y015949D02*
X013284Y015949D01*
X013197Y016008D02*
X015408Y016008D01*
X015387Y016066D02*
X010516Y016066D01*
X010599Y016125D02*
X015387Y016125D01*
X015387Y016183D02*
X010657Y016183D01*
X010681Y016242D02*
X015404Y016242D01*
X015429Y016300D02*
X010705Y016300D01*
X010709Y016359D02*
X015472Y016359D01*
X015530Y016417D02*
X010709Y016417D01*
X010684Y016710D02*
X011286Y016710D01*
X011009Y015715D02*
X008584Y015715D01*
X008572Y015656D02*
X010894Y015656D01*
X010836Y015598D02*
X008548Y015598D01*
X008513Y015539D02*
X010799Y015539D01*
X010775Y015481D02*
X008455Y015481D01*
X008345Y015422D02*
X010762Y015422D01*
X010120Y011910D02*
X010069Y011910D01*
X011080Y010095D02*
X011140Y010095D01*
X011140Y010036D02*
X011080Y010036D01*
X011080Y009978D02*
X011140Y009978D01*
X011140Y009919D02*
X011080Y009919D01*
X011080Y009861D02*
X011140Y009861D01*
X011140Y009802D02*
X011080Y009802D01*
X011328Y010095D02*
X011808Y010095D01*
X011749Y010036D02*
X011387Y010036D01*
X011445Y009978D02*
X011691Y009978D01*
X011632Y009919D02*
X011504Y009919D01*
X011540Y009861D02*
X011620Y009861D01*
X011620Y009802D02*
X011540Y009802D01*
X011540Y009743D02*
X011620Y009743D01*
X020069Y024789D02*
X020110Y024789D01*
D16*
X019860Y025379D02*
X021085Y025379D01*
X021110Y025354D01*
X003485Y019754D02*
X002110Y019754D01*
X002110Y018754D02*
X003360Y018754D01*
X003485Y003754D02*
X002110Y003754D01*
D17*
X004485Y007004D03*
X005110Y007004D03*
X006610Y010254D03*
X003360Y018379D03*
X003360Y019129D03*
X004485Y021004D03*
X003860Y021504D03*
X003360Y022004D03*
X015985Y007254D03*
D18*
X013985Y009129D02*
X013360Y008504D01*
X013360Y008004D01*
X012610Y008379D02*
X012610Y006629D01*
X011110Y006504D02*
X011110Y008504D01*
X010360Y007254D02*
X010735Y006879D01*
X010360Y007254D02*
X010360Y012504D01*
X009985Y011567D02*
X009985Y006879D01*
X009485Y007629D02*
X009485Y009129D01*
X007860Y011192D02*
X006798Y011192D01*
X006173Y012067D02*
X007485Y012067D01*
X007485Y012879D02*
X005485Y012879D01*
X004985Y013379D01*
X005298Y014754D02*
X002110Y014754D01*
X002110Y015754D02*
X004485Y015754D01*
X005298Y014754D02*
X005735Y015192D01*
X005360Y015754D02*
X008235Y015754D01*
X008235Y014629D02*
X006048Y014629D01*
X006360Y014004D02*
X007235Y014004D01*
X007485Y014254D01*
X008610Y014254D01*
X008610Y013629D02*
X007485Y013629D01*
X005985Y012254D02*
X006173Y012067D01*
X007110Y017629D02*
X008610Y017629D01*
X008235Y017942D02*
X006735Y017942D01*
X006360Y018379D02*
X008360Y018379D01*
X010485Y017004D02*
X011485Y017004D01*
X012860Y017879D02*
X012860Y018629D01*
X013485Y021879D02*
X012173Y021879D01*
X011548Y022504D01*
X007923Y022504D01*
X007235Y023192D01*
X008548Y022879D02*
X008610Y022754D01*
X008673Y022692D01*
X008673Y022692D01*
X011798Y022692D01*
X011860Y022629D01*
X012485Y022629D01*
X012985Y023129D01*
X012423Y022317D02*
X012485Y022254D01*
X014985Y022254D01*
X015110Y022379D01*
X015735Y022379D01*
X015985Y022129D01*
X015985Y021567D01*
X015548Y022004D02*
X013610Y022004D01*
X013485Y021879D01*
X012423Y022317D02*
X012298Y022317D01*
X012310Y025079D02*
X011260Y025079D01*
X011210Y025129D01*
X015735Y016129D02*
X015735Y015192D01*
X015235Y014629D02*
X014985Y014379D01*
X014985Y012879D01*
X014610Y011004D02*
X014610Y015004D01*
X017985Y013254D02*
X018110Y013129D01*
X018110Y012254D01*
X019485Y012004D02*
X019860Y011629D01*
X019860Y010254D01*
X019735Y010129D01*
X019735Y009129D01*
X020110Y009754D02*
X020110Y011754D01*
X019735Y012129D01*
X019735Y012504D01*
X019860Y012629D01*
X019860Y016254D01*
X019485Y016629D01*
X020110Y016254D02*
X020110Y012254D01*
X019485Y012004D02*
X019485Y012754D01*
X019610Y012879D01*
X019610Y015254D01*
X019485Y015379D01*
X020110Y016254D02*
X020610Y016754D01*
X021110Y016754D01*
D19*
X013110Y019754D02*
X012360Y020504D01*
X012360Y020879D01*
D20*
X010310Y025154D02*
X010260Y025204D01*
X010260Y025404D01*
X010060Y025604D01*
X010060Y025854D01*
X009960Y025954D01*
D21*
X009485Y009129D03*
X009485Y007629D03*
M02*
