G75*
G70*
%OFA0B0*%
%FSLAX24Y24*%
%IPPOS*%
%LPD*%
%AMOC8*
5,1,8,0,0,1.08239X$1,22.5*
%
%ADD10C,0.0600*%
%ADD11C,0.0317*%
%ADD12C,0.0060*%
%ADD13C,0.0360*%
%ADD14C,0.0160*%
%ADD15C,0.0475*%
%ADD16C,0.0100*%
%ADD17C,0.0396*%
D10*
X002110Y003754D03*
X002110Y004754D03*
X002110Y005754D03*
X002110Y006754D03*
X002110Y007754D03*
X002110Y008754D03*
X002110Y010754D03*
X002110Y011754D03*
X002110Y012754D03*
X002110Y013754D03*
X002110Y014754D03*
X002110Y015754D03*
X002110Y017754D03*
X002110Y018754D03*
X002110Y019754D03*
X002110Y020754D03*
X002110Y021754D03*
X002110Y022754D03*
X002110Y023754D03*
X002110Y024754D03*
X009110Y023449D03*
X010110Y023449D03*
X011110Y023449D03*
X012110Y023449D03*
X012110Y010704D03*
X012110Y009704D03*
X011110Y009704D03*
X011110Y010704D03*
X013110Y010704D03*
X013110Y009704D03*
X013110Y002779D03*
X012110Y002779D03*
X011110Y002779D03*
X010110Y002779D03*
X009110Y002779D03*
X008110Y002779D03*
X007110Y002779D03*
X014110Y002779D03*
X021110Y010754D03*
X021110Y011754D03*
X021110Y012754D03*
X021110Y013754D03*
X021110Y014754D03*
X021110Y015754D03*
X021110Y016754D03*
X021110Y017754D03*
X021110Y019354D03*
X021110Y020354D03*
X021110Y021354D03*
X021110Y022354D03*
X021110Y023354D03*
X021110Y024354D03*
X021110Y025354D03*
X021110Y026354D03*
X021110Y027354D03*
X021110Y028354D03*
D11*
X019860Y028504D03*
X019235Y026629D03*
X018360Y026254D03*
X017110Y026254D03*
X017110Y027004D03*
X017110Y028254D03*
X017110Y029754D03*
X018360Y029754D03*
X018360Y028004D03*
X018360Y031254D03*
X018360Y032754D03*
X018360Y034129D03*
X017110Y034004D03*
X017110Y032754D03*
X017110Y031254D03*
X015610Y031254D03*
X015610Y032754D03*
X015610Y034004D03*
X014560Y033954D03*
X014560Y032754D03*
X014510Y031804D03*
X014510Y030904D03*
X014410Y030254D03*
X014760Y029654D03*
X014760Y029254D03*
X014460Y028854D03*
X014010Y028854D03*
X013560Y028804D03*
X013110Y028604D03*
X013560Y028254D03*
X013710Y027904D03*
X013710Y027304D03*
X013310Y027604D03*
X013260Y027004D03*
X013860Y026254D03*
X013810Y025304D03*
X013810Y024904D03*
X014210Y024904D03*
X014210Y025304D03*
X015610Y026254D03*
X015610Y027004D03*
X015610Y028254D03*
X015610Y029754D03*
X013710Y030854D03*
X013310Y031254D03*
X013310Y031804D03*
X013560Y032254D03*
X013510Y033254D03*
X013510Y034004D03*
X012660Y033304D03*
X012160Y033454D03*
X011570Y033435D03*
X012010Y034204D03*
X010941Y033415D03*
X009810Y031604D03*
X009510Y032254D03*
X009160Y031754D03*
X009360Y031204D03*
X009860Y030704D03*
X009485Y030229D03*
X010260Y030704D03*
X010260Y031154D03*
X010660Y030954D03*
X010660Y031454D03*
X011110Y031454D03*
X011610Y031454D03*
X012110Y031454D03*
X012060Y030604D03*
X009510Y033454D03*
X009210Y033954D03*
X008710Y033954D03*
X008210Y033954D03*
X007810Y033354D03*
X007810Y032854D03*
X007810Y032354D03*
X008260Y031754D03*
X008010Y031204D03*
X007410Y031204D03*
X007810Y030154D03*
X008285Y029604D03*
X008610Y030154D03*
X008760Y031204D03*
X008710Y031754D03*
X007360Y034254D03*
X006360Y034254D03*
X005485Y034254D03*
X005485Y032754D03*
X006360Y032754D03*
X006360Y031254D03*
X005485Y031254D03*
X005485Y029754D03*
X006360Y029754D03*
X006360Y028004D03*
X005485Y028004D03*
X005610Y026379D03*
X006360Y026254D03*
X007560Y025104D03*
X007235Y023192D03*
X008548Y022879D03*
X008235Y020879D03*
X008235Y020129D03*
X008735Y019879D03*
X008360Y018379D03*
X008235Y017942D03*
X008610Y017629D03*
X008235Y015754D03*
X008235Y014629D03*
X008610Y014254D03*
X008610Y013629D03*
X007485Y013629D03*
X007485Y012879D03*
X007485Y012067D03*
X007860Y011192D03*
X006798Y011192D03*
X005985Y012254D03*
X004985Y013379D03*
X006048Y014629D03*
X006360Y014004D03*
X005735Y015192D03*
X005360Y015754D03*
X004485Y015754D03*
X006360Y018379D03*
X006735Y017942D03*
X007110Y017629D03*
X007610Y020254D03*
X009860Y022004D03*
X010485Y019379D03*
X010860Y019379D03*
X010860Y019004D03*
X010485Y019004D03*
X010485Y018629D03*
X010485Y018254D03*
X010860Y018254D03*
X010860Y018629D03*
X011235Y018629D03*
X011235Y018254D03*
X011610Y018254D03*
X011610Y018629D03*
X011610Y019004D03*
X011235Y019004D03*
X011235Y019379D03*
X011610Y019379D03*
X011985Y020629D03*
X012360Y020879D03*
X013110Y019754D03*
X012860Y018629D03*
X012860Y017879D03*
X012485Y017629D03*
X011485Y017004D03*
X010485Y017004D03*
X010360Y016379D03*
X010610Y015754D03*
X011110Y015379D03*
X012610Y015879D03*
X013048Y015692D03*
X013485Y015817D03*
X014610Y015004D03*
X015235Y014629D03*
X015735Y015192D03*
X015735Y016129D03*
X015610Y016754D03*
X015360Y017129D03*
X015860Y017129D03*
X016173Y017567D03*
X015735Y017629D03*
X016610Y017254D03*
X017110Y017254D03*
X017110Y017629D03*
X017610Y017629D03*
X017735Y017254D03*
X018110Y017754D03*
X018610Y017754D03*
X019110Y017754D03*
X019610Y018254D03*
X019860Y018879D03*
X019860Y019629D03*
X019610Y020129D03*
X019360Y020629D03*
X019110Y020129D03*
X018860Y020629D03*
X018610Y020129D03*
X018360Y020629D03*
X018110Y020129D03*
X017798Y020629D03*
X017610Y020129D03*
X017110Y020129D03*
X017110Y020754D03*
X016610Y020442D03*
X016235Y021004D03*
X015735Y020754D03*
X015860Y020254D03*
X015235Y020754D03*
X014360Y020129D03*
X013735Y021254D03*
X014060Y022654D03*
X014060Y023029D03*
X014435Y023029D03*
X014435Y022654D03*
X015548Y022004D03*
X015985Y021567D03*
X017985Y022754D03*
X019860Y024504D03*
X014860Y017254D03*
X014985Y016629D03*
X016610Y014379D03*
X017235Y015379D03*
X018610Y014379D03*
X019110Y013754D03*
X018860Y012504D03*
X018110Y012254D03*
X017985Y013254D03*
X019485Y015379D03*
X019485Y016629D03*
X020110Y012254D03*
X020110Y009754D03*
X019735Y009129D03*
X018610Y010129D03*
X017110Y010004D03*
X015985Y010754D03*
X015985Y011754D03*
X014985Y012879D03*
X014610Y011004D03*
X013985Y009129D03*
X013360Y008004D03*
X012610Y008379D03*
X012610Y006629D03*
X011110Y006504D03*
X010735Y006879D03*
X009985Y006879D03*
X011110Y008504D03*
X009985Y011567D03*
X010360Y012504D03*
X012298Y022317D03*
X012985Y023129D03*
X012310Y025079D03*
X011548Y025892D03*
X010960Y025804D03*
X011210Y025129D03*
X010610Y025504D03*
X010310Y025154D03*
X009710Y025604D03*
X009960Y025954D03*
X009660Y026654D03*
X008210Y028954D03*
X008085Y028379D03*
X007960Y027829D03*
X007510Y027629D03*
X007410Y028154D03*
X007585Y028654D03*
D12*
X007715Y028331D02*
X007759Y028224D01*
X007759Y028085D01*
X007706Y027957D01*
X007684Y027935D01*
X007708Y027925D01*
X007806Y027827D01*
X007859Y027699D01*
X007859Y027560D01*
X007806Y027432D01*
X007708Y027334D01*
X007580Y027281D01*
X007441Y027281D01*
X007410Y027293D01*
X007410Y025420D01*
X007491Y025453D01*
X007630Y025453D01*
X007758Y025400D01*
X007856Y025302D01*
X007909Y025174D01*
X007909Y025035D01*
X007856Y024907D01*
X007758Y024809D01*
X007630Y024756D01*
X007491Y024756D01*
X007410Y024789D01*
X007410Y024454D01*
X014510Y024454D01*
X014510Y028506D01*
X014391Y028506D01*
X014263Y028559D01*
X014165Y028657D01*
X014112Y028785D01*
X014112Y028924D01*
X014165Y029052D01*
X014263Y029150D01*
X014391Y029203D01*
X014412Y029203D01*
X014412Y029324D01*
X014465Y029452D01*
X014467Y029454D01*
X014465Y029457D01*
X014412Y029585D01*
X014412Y029724D01*
X014465Y029852D01*
X014510Y029897D01*
X014510Y029918D01*
X014480Y029906D01*
X014341Y029906D01*
X014213Y029959D01*
X014115Y030057D01*
X014062Y030185D01*
X014062Y030324D01*
X014074Y030354D01*
X012304Y030354D01*
X012258Y030309D01*
X012130Y030256D01*
X011991Y030256D01*
X011863Y030309D01*
X011817Y030354D01*
X007410Y030354D01*
X007410Y028959D01*
X007516Y029003D01*
X007655Y029003D01*
X007783Y028950D01*
X007881Y028852D01*
X007934Y028724D01*
X007934Y028585D01*
X007881Y028457D01*
X007783Y028359D01*
X007715Y028331D01*
X007727Y028302D02*
X009890Y028302D01*
X009890Y028281D02*
X009943Y028154D01*
X009890Y028028D01*
X009890Y027881D01*
X009943Y027754D01*
X009890Y027628D01*
X009890Y027481D01*
X009947Y027345D01*
X010051Y027241D01*
X010187Y027184D01*
X010334Y027184D01*
X010460Y027237D01*
X010587Y027184D01*
X010734Y027184D01*
X010860Y027237D01*
X010987Y027184D01*
X011134Y027184D01*
X011270Y027241D01*
X011374Y027345D01*
X011430Y027481D01*
X011430Y027628D01*
X011378Y027754D01*
X011430Y027881D01*
X011430Y028028D01*
X011378Y028154D01*
X011430Y028281D01*
X011430Y028428D01*
X011374Y028564D01*
X011270Y028668D01*
X011134Y028724D01*
X010987Y028724D01*
X010860Y028672D01*
X010734Y028724D01*
X010587Y028724D01*
X010460Y028672D01*
X010334Y028724D01*
X010187Y028724D01*
X010051Y028668D01*
X009947Y028564D01*
X009890Y028428D01*
X009890Y028281D01*
X009906Y028243D02*
X007751Y028243D01*
X007759Y028185D02*
X009930Y028185D01*
X009931Y028126D02*
X007759Y028126D01*
X007752Y028067D02*
X009907Y028067D01*
X009890Y028009D02*
X007728Y028009D01*
X007700Y027950D02*
X009890Y027950D01*
X009890Y027892D02*
X007741Y027892D01*
X007800Y027833D02*
X009910Y027833D01*
X009934Y027775D02*
X007828Y027775D01*
X007852Y027716D02*
X009927Y027716D01*
X009903Y027658D02*
X007859Y027658D01*
X007859Y027599D02*
X009890Y027599D01*
X009890Y027541D02*
X007851Y027541D01*
X007827Y027482D02*
X009890Y027482D01*
X009914Y027424D02*
X007798Y027424D01*
X007739Y027365D02*
X009938Y027365D01*
X009985Y027306D02*
X007642Y027306D01*
X007410Y027248D02*
X010044Y027248D01*
X010175Y027189D02*
X007410Y027189D01*
X007410Y027131D02*
X013405Y027131D01*
X013415Y027107D02*
X013513Y027009D01*
X013641Y026956D01*
X013780Y026956D01*
X013908Y027009D01*
X014006Y027107D01*
X014059Y027235D01*
X014059Y027374D01*
X014006Y027502D01*
X013908Y027600D01*
X013897Y027604D01*
X013908Y027609D01*
X014006Y027707D01*
X014059Y027835D01*
X014059Y027974D01*
X014006Y028102D01*
X013909Y028199D01*
X013909Y028324D01*
X013856Y028452D01*
X013779Y028529D01*
X013856Y028607D01*
X013909Y028735D01*
X013909Y028874D01*
X013856Y029002D01*
X013758Y029100D01*
X013630Y029153D01*
X013491Y029153D01*
X013363Y029100D01*
X013265Y029002D01*
X013212Y028874D01*
X013212Y028735D01*
X013265Y028607D01*
X013342Y028529D01*
X013265Y028452D01*
X013212Y028324D01*
X013212Y028185D01*
X013265Y028057D01*
X013362Y027960D01*
X013362Y027835D01*
X013415Y027707D01*
X013513Y027609D01*
X013523Y027604D01*
X013513Y027600D01*
X013415Y027502D01*
X013362Y027374D01*
X013362Y027235D01*
X013415Y027107D01*
X013449Y027072D02*
X007410Y027072D01*
X007410Y027014D02*
X013508Y027014D01*
X013381Y027189D02*
X011146Y027189D01*
X011277Y027248D02*
X013362Y027248D01*
X013362Y027306D02*
X011336Y027306D01*
X011382Y027365D02*
X013362Y027365D01*
X013382Y027424D02*
X011407Y027424D01*
X011430Y027482D02*
X013407Y027482D01*
X013453Y027541D02*
X011430Y027541D01*
X011430Y027599D02*
X013512Y027599D01*
X013464Y027658D02*
X011418Y027658D01*
X011394Y027716D02*
X013411Y027716D01*
X013387Y027775D02*
X011386Y027775D01*
X011411Y027833D02*
X013362Y027833D01*
X013362Y027892D02*
X011430Y027892D01*
X011430Y027950D02*
X013362Y027950D01*
X013313Y028009D02*
X011430Y028009D01*
X011414Y028067D02*
X013260Y028067D01*
X013236Y028126D02*
X011390Y028126D01*
X011390Y028185D02*
X013212Y028185D01*
X013212Y028243D02*
X011415Y028243D01*
X011430Y028302D02*
X013212Y028302D01*
X013227Y028360D02*
X011430Y028360D01*
X011430Y028419D02*
X013251Y028419D01*
X013290Y028477D02*
X011410Y028477D01*
X011386Y028536D02*
X013336Y028536D01*
X013277Y028594D02*
X011344Y028594D01*
X011285Y028653D02*
X013246Y028653D01*
X013221Y028711D02*
X011165Y028711D01*
X010956Y028711D02*
X010765Y028711D01*
X010556Y028711D02*
X010365Y028711D01*
X010156Y028711D02*
X007934Y028711D01*
X007934Y028653D02*
X010036Y028653D01*
X009977Y028594D02*
X007934Y028594D01*
X007914Y028536D02*
X009935Y028536D01*
X009911Y028477D02*
X007889Y028477D01*
X007843Y028419D02*
X009890Y028419D01*
X009890Y028360D02*
X007784Y028360D01*
X007915Y028770D02*
X013212Y028770D01*
X013212Y028829D02*
X007891Y028829D01*
X007846Y028887D02*
X013217Y028887D01*
X013241Y028946D02*
X007787Y028946D01*
X007410Y029004D02*
X013267Y029004D01*
X013326Y029063D02*
X007410Y029063D01*
X007410Y029121D02*
X013414Y029121D01*
X013706Y029121D02*
X014234Y029121D01*
X014176Y029063D02*
X013795Y029063D01*
X013854Y029004D02*
X014145Y029004D01*
X014121Y028946D02*
X013879Y028946D01*
X013904Y028887D02*
X014112Y028887D01*
X014112Y028829D02*
X013909Y028829D01*
X013909Y028770D02*
X014118Y028770D01*
X014142Y028711D02*
X013899Y028711D01*
X013875Y028653D02*
X014169Y028653D01*
X014227Y028594D02*
X013844Y028594D01*
X013785Y028536D02*
X014318Y028536D01*
X014510Y028477D02*
X013831Y028477D01*
X013870Y028419D02*
X014510Y028419D01*
X014510Y028360D02*
X013894Y028360D01*
X013909Y028302D02*
X014510Y028302D01*
X014510Y028243D02*
X013909Y028243D01*
X013923Y028185D02*
X014510Y028185D01*
X014510Y028126D02*
X013982Y028126D01*
X014020Y028067D02*
X014510Y028067D01*
X014510Y028009D02*
X014045Y028009D01*
X014059Y027950D02*
X014510Y027950D01*
X014510Y027892D02*
X014059Y027892D01*
X014058Y027833D02*
X014510Y027833D01*
X014510Y027775D02*
X014034Y027775D01*
X014010Y027716D02*
X014510Y027716D01*
X014510Y027658D02*
X013957Y027658D01*
X013909Y027599D02*
X014510Y027599D01*
X014510Y027541D02*
X013967Y027541D01*
X014014Y027482D02*
X014510Y027482D01*
X014510Y027424D02*
X014039Y027424D01*
X014059Y027365D02*
X014510Y027365D01*
X014510Y027306D02*
X014059Y027306D01*
X014059Y027248D02*
X014510Y027248D01*
X014510Y027189D02*
X014040Y027189D01*
X014016Y027131D02*
X014510Y027131D01*
X014510Y027072D02*
X013971Y027072D01*
X013913Y027014D02*
X014510Y027014D01*
X014510Y026955D02*
X007410Y026955D01*
X007410Y026897D02*
X014510Y026897D01*
X014510Y026838D02*
X007410Y026838D01*
X007410Y026780D02*
X014510Y026780D01*
X014510Y026721D02*
X007410Y026721D01*
X007410Y026662D02*
X014510Y026662D01*
X014510Y026604D02*
X007410Y026604D01*
X007410Y026545D02*
X013658Y026545D01*
X013663Y026550D02*
X013565Y026452D01*
X013512Y026324D01*
X013512Y026185D01*
X013565Y026057D01*
X013663Y025959D01*
X013791Y025906D01*
X013930Y025906D01*
X014058Y025959D01*
X014156Y026057D01*
X014209Y026185D01*
X014209Y026324D01*
X014156Y026452D01*
X014058Y026550D01*
X013930Y026603D01*
X013791Y026603D01*
X013663Y026550D01*
X013600Y026487D02*
X007410Y026487D01*
X007410Y026428D02*
X013555Y026428D01*
X013531Y026370D02*
X007410Y026370D01*
X007410Y026311D02*
X013512Y026311D01*
X013512Y026253D02*
X010151Y026253D01*
X010158Y026250D02*
X010030Y026303D01*
X009891Y026303D01*
X009763Y026250D01*
X009665Y026152D01*
X009612Y026024D01*
X009612Y025941D01*
X009513Y025900D01*
X009415Y025802D01*
X009362Y025674D01*
X009362Y025535D01*
X009415Y025407D01*
X009513Y025309D01*
X009641Y025256D01*
X009780Y025256D01*
X009908Y025309D01*
X010006Y025407D01*
X010059Y025535D01*
X010059Y025618D01*
X010158Y025659D01*
X010256Y025757D01*
X010309Y025885D01*
X010309Y026024D01*
X010256Y026152D01*
X010158Y026250D01*
X010214Y026194D02*
X011366Y026194D01*
X011350Y026187D02*
X011252Y026089D01*
X011199Y025961D01*
X011199Y025822D01*
X011252Y025694D01*
X011350Y025596D01*
X011479Y025543D01*
X011617Y025543D01*
X011745Y025596D01*
X011844Y025694D01*
X011897Y025822D01*
X011897Y025961D01*
X011844Y026089D01*
X011745Y026187D01*
X011617Y026241D01*
X011479Y026241D01*
X011350Y026187D01*
X011298Y026136D02*
X010263Y026136D01*
X010287Y026077D02*
X011247Y026077D01*
X011223Y026018D02*
X010309Y026018D01*
X010309Y025960D02*
X011199Y025960D01*
X011199Y025901D02*
X010309Y025901D01*
X010292Y025843D02*
X010516Y025843D01*
X010541Y025853D02*
X010413Y025800D01*
X010315Y025702D01*
X010262Y025574D01*
X010262Y025503D01*
X010241Y025503D01*
X010113Y025450D01*
X010015Y025352D01*
X009962Y025224D01*
X009962Y025085D01*
X010015Y024957D01*
X010113Y024859D01*
X010241Y024806D01*
X010380Y024806D01*
X010508Y024859D01*
X010606Y024957D01*
X010659Y025085D01*
X010659Y025156D01*
X010680Y025156D01*
X010808Y025209D01*
X010906Y025307D01*
X010959Y025435D01*
X010959Y025574D01*
X010906Y025702D01*
X010808Y025800D01*
X010680Y025853D01*
X010541Y025853D01*
X010397Y025784D02*
X010267Y025784D01*
X010225Y025726D02*
X010339Y025726D01*
X010300Y025667D02*
X010166Y025667D01*
X010059Y025609D02*
X010276Y025609D01*
X010262Y025550D02*
X010059Y025550D01*
X010041Y025492D02*
X010213Y025492D01*
X010096Y025433D02*
X010017Y025433D01*
X010037Y025374D02*
X009974Y025374D01*
X010000Y025316D02*
X009915Y025316D01*
X009976Y025257D02*
X009784Y025257D01*
X009637Y025257D02*
X007874Y025257D01*
X007899Y025199D02*
X009962Y025199D01*
X009962Y025140D02*
X007909Y025140D01*
X007909Y025082D02*
X009963Y025082D01*
X009987Y025023D02*
X007904Y025023D01*
X007880Y024965D02*
X010011Y024965D01*
X010065Y024906D02*
X007855Y024906D01*
X007797Y024848D02*
X010140Y024848D01*
X010481Y024848D02*
X010999Y024848D01*
X011013Y024834D02*
X011141Y024781D01*
X011280Y024781D01*
X011408Y024834D01*
X011506Y024932D01*
X011559Y025060D01*
X011559Y025199D01*
X011982Y025199D01*
X011962Y025149D02*
X011962Y025010D01*
X012015Y024882D01*
X012113Y024784D01*
X012241Y024731D01*
X012380Y024731D01*
X012508Y024784D01*
X012606Y024882D01*
X012659Y025010D01*
X012659Y025149D01*
X012606Y025277D01*
X012508Y025375D01*
X012380Y025428D01*
X012241Y025428D01*
X012113Y025375D01*
X012015Y025277D01*
X011962Y025149D01*
X011962Y025140D02*
X011559Y025140D01*
X011559Y025082D02*
X011962Y025082D01*
X011962Y025023D02*
X011544Y025023D01*
X011520Y024965D02*
X011980Y024965D01*
X012005Y024906D02*
X011480Y024906D01*
X011422Y024848D02*
X012049Y024848D01*
X012107Y024789D02*
X011300Y024789D01*
X011121Y024789D02*
X007711Y024789D01*
X007410Y024731D02*
X014510Y024731D01*
X014510Y024789D02*
X012513Y024789D01*
X012572Y024848D02*
X014510Y024848D01*
X014510Y024906D02*
X012616Y024906D01*
X012640Y024965D02*
X014510Y024965D01*
X014510Y025023D02*
X012659Y025023D01*
X012659Y025082D02*
X014510Y025082D01*
X014510Y025140D02*
X012659Y025140D01*
X012638Y025199D02*
X014510Y025199D01*
X014510Y025257D02*
X012614Y025257D01*
X012567Y025316D02*
X014510Y025316D01*
X014510Y025374D02*
X012508Y025374D01*
X012112Y025374D02*
X011458Y025374D01*
X011506Y025327D02*
X011408Y025425D01*
X011280Y025478D01*
X011141Y025478D01*
X011013Y025425D01*
X010915Y025327D01*
X010862Y025199D01*
X010784Y025199D01*
X010862Y025199D02*
X010862Y025060D01*
X010915Y024932D01*
X011013Y024834D01*
X010940Y024906D02*
X010555Y024906D01*
X010609Y024965D02*
X010901Y024965D01*
X010877Y025023D02*
X010634Y025023D01*
X010658Y025082D02*
X010862Y025082D01*
X010862Y025140D02*
X010659Y025140D01*
X010857Y025257D02*
X010886Y025257D01*
X010910Y025316D02*
X010910Y025316D01*
X010934Y025374D02*
X010962Y025374D01*
X010958Y025433D02*
X011032Y025433D01*
X010959Y025492D02*
X014510Y025492D01*
X014510Y025550D02*
X011634Y025550D01*
X011758Y025609D02*
X014510Y025609D01*
X014510Y025667D02*
X011816Y025667D01*
X011857Y025726D02*
X014510Y025726D01*
X014510Y025784D02*
X011881Y025784D01*
X011897Y025843D02*
X014510Y025843D01*
X014510Y025901D02*
X011897Y025901D01*
X011897Y025960D02*
X013662Y025960D01*
X013603Y026018D02*
X011873Y026018D01*
X011849Y026077D02*
X013556Y026077D01*
X013532Y026136D02*
X011797Y026136D01*
X011729Y026194D02*
X013512Y026194D01*
X014059Y025960D02*
X014510Y025960D01*
X014510Y026018D02*
X014118Y026018D01*
X014164Y026077D02*
X014510Y026077D01*
X014510Y026136D02*
X014189Y026136D01*
X014209Y026194D02*
X014510Y026194D01*
X014510Y026253D02*
X014209Y026253D01*
X014209Y026311D02*
X014510Y026311D01*
X014510Y026370D02*
X014190Y026370D01*
X014166Y026428D02*
X014510Y026428D01*
X014510Y026487D02*
X014121Y026487D01*
X014063Y026545D02*
X014510Y026545D01*
X014760Y026545D02*
X018610Y026545D01*
X018610Y026487D02*
X014760Y026487D01*
X014760Y026428D02*
X018610Y026428D01*
X018610Y026370D02*
X014760Y026370D01*
X014760Y026311D02*
X018610Y026311D01*
X018610Y026253D02*
X014760Y026253D01*
X014760Y026194D02*
X018610Y026194D01*
X018610Y026136D02*
X014760Y026136D01*
X014760Y026077D02*
X018610Y026077D01*
X018610Y026018D02*
X014760Y026018D01*
X014760Y025960D02*
X018610Y025960D01*
X018610Y025901D02*
X014760Y025901D01*
X014760Y025843D02*
X018610Y025843D01*
X018610Y025784D02*
X014760Y025784D01*
X014760Y025726D02*
X018610Y025726D01*
X018610Y025667D02*
X014760Y025667D01*
X014760Y025609D02*
X018610Y025609D01*
X018610Y025550D02*
X014760Y025550D01*
X014760Y025492D02*
X018610Y025492D01*
X018610Y025433D02*
X014760Y025433D01*
X014760Y025374D02*
X018610Y025374D01*
X018610Y025316D02*
X014760Y025316D01*
X014760Y025257D02*
X018610Y025257D01*
X018610Y025199D02*
X014760Y025199D01*
X014760Y025140D02*
X018610Y025140D01*
X018610Y025082D02*
X014760Y025082D01*
X014760Y025023D02*
X018610Y025023D01*
X018610Y024965D02*
X014760Y024965D01*
X014760Y024906D02*
X018610Y024906D01*
X018610Y024848D02*
X014760Y024848D01*
X014760Y024789D02*
X018610Y024789D01*
X018610Y024731D02*
X014760Y024731D01*
X014760Y024672D02*
X018610Y024672D01*
X018610Y024613D02*
X014760Y024613D01*
X014760Y024555D02*
X018610Y024555D01*
X018610Y024496D02*
X016423Y024496D01*
X016363Y024512D02*
X016637Y024439D01*
X016884Y024297D01*
X017084Y024096D01*
X017227Y023850D01*
X017266Y023704D01*
X018610Y023704D01*
X018610Y034504D01*
X005110Y034504D01*
X005110Y024512D01*
X005142Y024512D01*
X005417Y024439D01*
X005663Y024297D01*
X005864Y024096D01*
X006006Y023850D01*
X006045Y023704D01*
X007160Y023704D01*
X007160Y024204D01*
X014760Y024204D01*
X014760Y023704D01*
X012535Y023704D01*
X012526Y023726D01*
X012388Y023864D01*
X012208Y023939D01*
X012013Y023939D01*
X011833Y023864D01*
X011695Y023726D01*
X011686Y023704D01*
X011535Y023704D01*
X011526Y023726D01*
X011388Y023864D01*
X011208Y023939D01*
X011013Y023939D01*
X010833Y023864D01*
X010695Y023726D01*
X010686Y023704D01*
X010535Y023704D01*
X010526Y023726D01*
X010388Y023864D01*
X010208Y023939D01*
X010013Y023939D01*
X009833Y023864D01*
X009695Y023726D01*
X009686Y023704D01*
X009535Y023704D01*
X009526Y023726D01*
X009388Y023864D01*
X009208Y023939D01*
X009013Y023939D01*
X008833Y023864D01*
X008695Y023726D01*
X008686Y023704D01*
X007160Y023704D01*
X007160Y030604D01*
X014760Y030604D01*
X014760Y023704D01*
X015176Y023704D01*
X015215Y023850D01*
X015357Y024096D01*
X015558Y024297D01*
X015804Y024439D01*
X016078Y024512D01*
X016363Y024512D01*
X016639Y024438D02*
X018610Y024438D01*
X018610Y024379D02*
X016741Y024379D01*
X016842Y024321D02*
X018610Y024321D01*
X018610Y024262D02*
X016918Y024262D01*
X016977Y024204D02*
X018610Y024204D01*
X018610Y024145D02*
X017035Y024145D01*
X017090Y024087D02*
X018610Y024087D01*
X018610Y024028D02*
X017124Y024028D01*
X017157Y023969D02*
X018610Y023969D01*
X018610Y023911D02*
X017191Y023911D01*
X017225Y023852D02*
X018610Y023852D01*
X018610Y023794D02*
X017242Y023794D01*
X017257Y023735D02*
X018610Y023735D01*
X019110Y023735D02*
X020110Y023735D01*
X020110Y023677D02*
X019110Y023677D01*
X019110Y023618D02*
X020110Y023618D01*
X020110Y023560D02*
X019110Y023560D01*
X019110Y023501D02*
X020110Y023501D01*
X020110Y023443D02*
X019110Y023443D01*
X019110Y023384D02*
X020110Y023384D01*
X020110Y023325D02*
X019110Y023325D01*
X019110Y023267D02*
X020110Y023267D01*
X020110Y023208D02*
X017278Y023208D01*
X017290Y023254D02*
X019110Y023254D01*
X019110Y028629D01*
X020110Y028629D01*
X020110Y021379D01*
X016234Y021379D01*
X016247Y021392D01*
X016294Y021505D01*
X016294Y021628D01*
X016247Y021742D01*
X016160Y021829D01*
X016047Y021876D01*
X015924Y021876D01*
X015810Y021829D01*
X015857Y021943D01*
X015857Y022066D01*
X015810Y022179D01*
X015723Y022266D01*
X015609Y022313D01*
X015486Y022313D01*
X015373Y022266D01*
X015286Y022179D01*
X015239Y022066D01*
X015239Y021943D01*
X015286Y021829D01*
X015373Y021743D01*
X015486Y021696D01*
X015609Y021696D01*
X015723Y021743D01*
X015810Y021829D01*
X015724Y021742D01*
X015677Y021628D01*
X015677Y021505D01*
X015724Y021392D01*
X015736Y021379D01*
X014018Y021379D01*
X013997Y021429D01*
X013910Y021516D01*
X013797Y021563D01*
X013674Y021563D01*
X013560Y021516D01*
X013474Y021429D01*
X013453Y021379D01*
X012735Y021379D01*
X012735Y022943D01*
X012810Y022868D01*
X012924Y022821D01*
X013047Y022821D01*
X013160Y022868D01*
X013247Y022954D01*
X013294Y023068D01*
X013294Y023191D01*
X013268Y023254D01*
X015151Y023254D01*
X015215Y023016D01*
X015357Y022770D01*
X015558Y022569D01*
X015804Y022427D01*
X016078Y022353D01*
X016363Y022353D01*
X016637Y022427D01*
X016884Y022569D01*
X017084Y022770D01*
X017227Y023016D01*
X017290Y023254D01*
X017262Y023150D02*
X020110Y023150D01*
X020110Y023091D02*
X017247Y023091D01*
X017231Y023033D02*
X017851Y023033D01*
X017810Y023016D02*
X017724Y022929D01*
X017677Y022816D01*
X017677Y022693D01*
X017724Y022579D01*
X017810Y022493D01*
X017924Y022446D01*
X018047Y022446D01*
X018160Y022493D01*
X018247Y022579D01*
X018294Y022693D01*
X018294Y022816D01*
X018247Y022929D01*
X018160Y023016D01*
X018047Y023063D01*
X017924Y023063D01*
X017810Y023016D01*
X017769Y022974D02*
X017202Y022974D01*
X017169Y022916D02*
X017718Y022916D01*
X017694Y022857D02*
X017135Y022857D01*
X017101Y022799D02*
X017677Y022799D01*
X017677Y022740D02*
X017055Y022740D01*
X016996Y022681D02*
X017681Y022681D01*
X017706Y022623D02*
X016937Y022623D01*
X016876Y022564D02*
X017739Y022564D01*
X017797Y022506D02*
X016774Y022506D01*
X016673Y022447D02*
X017920Y022447D01*
X018051Y022447D02*
X020110Y022447D01*
X020110Y022389D02*
X016495Y022389D01*
X016185Y021803D02*
X020110Y021803D01*
X020110Y021745D02*
X016244Y021745D01*
X016270Y021686D02*
X020110Y021686D01*
X020110Y021628D02*
X016294Y021628D01*
X016294Y021569D02*
X020110Y021569D01*
X020110Y021511D02*
X016294Y021511D01*
X016272Y021452D02*
X020110Y021452D01*
X020110Y021394D02*
X016248Y021394D01*
X016080Y021862D02*
X020110Y021862D01*
X020110Y021920D02*
X015847Y021920D01*
X015857Y021979D02*
X020110Y021979D01*
X020110Y022038D02*
X015857Y022038D01*
X015844Y022096D02*
X020110Y022096D01*
X020110Y022155D02*
X015820Y022155D01*
X015776Y022213D02*
X020110Y022213D01*
X020110Y022272D02*
X015709Y022272D01*
X015768Y022447D02*
X012735Y022447D01*
X012621Y022447D01*
X012646Y022389D02*
X012735Y022389D01*
X015946Y022389D01*
X015667Y022506D02*
X012735Y022506D01*
X012597Y022506D01*
X012594Y022514D02*
X012495Y022612D01*
X012367Y022666D01*
X012228Y022666D01*
X012100Y022612D01*
X012002Y022514D01*
X011949Y022386D01*
X011949Y022247D01*
X012002Y022119D01*
X012100Y022021D01*
X012228Y021968D01*
X012367Y021968D01*
X012495Y022021D01*
X012594Y022119D01*
X012647Y022247D01*
X012647Y022386D01*
X012594Y022514D01*
X012543Y022564D02*
X012735Y022564D01*
X015566Y022564D01*
X015504Y022623D02*
X012735Y022623D01*
X012470Y022623D01*
X012647Y022330D02*
X012735Y022330D01*
X020110Y022330D01*
X020110Y022506D02*
X018174Y022506D01*
X018232Y022564D02*
X020110Y022564D01*
X020110Y022623D02*
X018265Y022623D01*
X018289Y022681D02*
X020110Y022681D01*
X020110Y022740D02*
X018294Y022740D01*
X018294Y022799D02*
X020110Y022799D01*
X020110Y022857D02*
X018277Y022857D01*
X018253Y022916D02*
X020110Y022916D01*
X020110Y022974D02*
X018202Y022974D01*
X018120Y023033D02*
X020110Y023033D01*
X020110Y023794D02*
X019110Y023794D01*
X019110Y023852D02*
X020110Y023852D01*
X020110Y023911D02*
X019110Y023911D01*
X019110Y023969D02*
X020110Y023969D01*
X020110Y024028D02*
X019110Y024028D01*
X019110Y024087D02*
X020110Y024087D01*
X020110Y024145D02*
X019110Y024145D01*
X019110Y024204D02*
X020110Y024204D01*
X020110Y024262D02*
X019110Y024262D01*
X019110Y024321D02*
X020110Y024321D01*
X020110Y024379D02*
X019110Y024379D01*
X019110Y024438D02*
X020110Y024438D01*
X020110Y024496D02*
X019110Y024496D01*
X019110Y024555D02*
X020110Y024555D01*
X020110Y024613D02*
X019110Y024613D01*
X019110Y024672D02*
X020110Y024672D01*
X020110Y024731D02*
X019110Y024731D01*
X019110Y024789D02*
X020110Y024789D01*
X020110Y024848D02*
X019110Y024848D01*
X019110Y024906D02*
X020110Y024906D01*
X020110Y024965D02*
X019110Y024965D01*
X019110Y025023D02*
X020110Y025023D01*
X020110Y025082D02*
X019110Y025082D01*
X019110Y025140D02*
X020110Y025140D01*
X020110Y025199D02*
X019110Y025199D01*
X019110Y025257D02*
X020110Y025257D01*
X020110Y025316D02*
X019110Y025316D01*
X019110Y025374D02*
X020110Y025374D01*
X020110Y025433D02*
X019110Y025433D01*
X019110Y025492D02*
X020110Y025492D01*
X020110Y025550D02*
X019110Y025550D01*
X019110Y025609D02*
X020110Y025609D01*
X020110Y025667D02*
X019110Y025667D01*
X019110Y025726D02*
X020110Y025726D01*
X020110Y025784D02*
X019110Y025784D01*
X019110Y025843D02*
X020110Y025843D01*
X020110Y025901D02*
X019110Y025901D01*
X019110Y025960D02*
X020110Y025960D01*
X020110Y026018D02*
X019110Y026018D01*
X019110Y026077D02*
X020110Y026077D01*
X020110Y026136D02*
X019110Y026136D01*
X019110Y026194D02*
X020110Y026194D01*
X020110Y026253D02*
X019110Y026253D01*
X019110Y026311D02*
X020110Y026311D01*
X020110Y026370D02*
X019110Y026370D01*
X019110Y026428D02*
X020110Y026428D01*
X020110Y026487D02*
X019110Y026487D01*
X019110Y026545D02*
X020110Y026545D01*
X020110Y026604D02*
X019110Y026604D01*
X019110Y026662D02*
X020110Y026662D01*
X020110Y026721D02*
X019110Y026721D01*
X019110Y026780D02*
X020110Y026780D01*
X020110Y026838D02*
X019110Y026838D01*
X019110Y026897D02*
X020110Y026897D01*
X020110Y026955D02*
X019110Y026955D01*
X019110Y027014D02*
X020110Y027014D01*
X020110Y027072D02*
X019110Y027072D01*
X019110Y027131D02*
X020110Y027131D01*
X020110Y027189D02*
X019110Y027189D01*
X019110Y027248D02*
X020110Y027248D01*
X020110Y027306D02*
X019110Y027306D01*
X019110Y027365D02*
X020110Y027365D01*
X020110Y027424D02*
X019110Y027424D01*
X019110Y027482D02*
X020110Y027482D01*
X020110Y027541D02*
X019110Y027541D01*
X019110Y027599D02*
X020110Y027599D01*
X020110Y027658D02*
X019110Y027658D01*
X019110Y027716D02*
X020110Y027716D01*
X020110Y027775D02*
X019110Y027775D01*
X019110Y027833D02*
X020110Y027833D01*
X020110Y027892D02*
X019110Y027892D01*
X019110Y027950D02*
X020110Y027950D01*
X020110Y028009D02*
X019110Y028009D01*
X019110Y028067D02*
X020110Y028067D01*
X020110Y028126D02*
X019110Y028126D01*
X019110Y028185D02*
X020110Y028185D01*
X020110Y028243D02*
X019110Y028243D01*
X019110Y028302D02*
X020110Y028302D01*
X020110Y028360D02*
X019110Y028360D01*
X019110Y028419D02*
X020110Y028419D01*
X020110Y028477D02*
X019110Y028477D01*
X019110Y028536D02*
X020110Y028536D01*
X020110Y028594D02*
X019110Y028594D01*
X018610Y028594D02*
X014760Y028594D01*
X014760Y028536D02*
X018610Y028536D01*
X018610Y028477D02*
X014760Y028477D01*
X014760Y028419D02*
X018610Y028419D01*
X018610Y028360D02*
X014760Y028360D01*
X014760Y028302D02*
X018610Y028302D01*
X018610Y028243D02*
X014760Y028243D01*
X014760Y028185D02*
X018610Y028185D01*
X018610Y028126D02*
X014760Y028126D01*
X014760Y028067D02*
X018610Y028067D01*
X018610Y028009D02*
X014760Y028009D01*
X014760Y027950D02*
X018610Y027950D01*
X018610Y027892D02*
X014760Y027892D01*
X014760Y027833D02*
X018610Y027833D01*
X018610Y027775D02*
X014760Y027775D01*
X014760Y027716D02*
X018610Y027716D01*
X018610Y027658D02*
X014760Y027658D01*
X014760Y027599D02*
X018610Y027599D01*
X018610Y027541D02*
X014760Y027541D01*
X014760Y027482D02*
X018610Y027482D01*
X018610Y027424D02*
X014760Y027424D01*
X014760Y027365D02*
X018610Y027365D01*
X018610Y027306D02*
X014760Y027306D01*
X014760Y027248D02*
X018610Y027248D01*
X018610Y027189D02*
X014760Y027189D01*
X014760Y027131D02*
X018610Y027131D01*
X018610Y027072D02*
X014760Y027072D01*
X014760Y027014D02*
X018610Y027014D01*
X018610Y026955D02*
X014760Y026955D01*
X014760Y026897D02*
X018610Y026897D01*
X018610Y026838D02*
X014760Y026838D01*
X014760Y026780D02*
X018610Y026780D01*
X018610Y026721D02*
X014760Y026721D01*
X014760Y026662D02*
X018610Y026662D01*
X018610Y026604D02*
X014760Y026604D01*
X014510Y025433D02*
X011388Y025433D01*
X011461Y025550D02*
X010959Y025550D01*
X010945Y025609D02*
X011338Y025609D01*
X011279Y025667D02*
X010920Y025667D01*
X010882Y025726D02*
X011239Y025726D01*
X011215Y025784D02*
X010824Y025784D01*
X010704Y025843D02*
X011199Y025843D01*
X011506Y025327D02*
X011559Y025199D01*
X011535Y025257D02*
X012007Y025257D01*
X012054Y025316D02*
X011511Y025316D01*
X011275Y023911D02*
X011946Y023911D01*
X011821Y023852D02*
X011400Y023852D01*
X011458Y023794D02*
X011763Y023794D01*
X011704Y023735D02*
X011517Y023735D01*
X011560Y023254D02*
X011526Y023171D01*
X011388Y023033D01*
X011208Y022959D01*
X011013Y022959D01*
X010833Y023033D01*
X010695Y023171D01*
X010661Y023254D01*
X010560Y023254D01*
X010526Y023171D01*
X010388Y023033D01*
X010208Y022959D01*
X010013Y022959D01*
X009833Y023033D01*
X009695Y023171D01*
X009661Y023254D01*
X009560Y023254D01*
X009526Y023171D01*
X009388Y023033D01*
X009208Y022959D01*
X009013Y022959D01*
X008868Y023019D01*
X008897Y022949D01*
X008897Y022810D01*
X008844Y022682D01*
X008745Y022584D01*
X008617Y022531D01*
X008479Y022531D01*
X008350Y022584D01*
X008252Y022682D01*
X008199Y022810D01*
X008199Y022949D01*
X008252Y023077D01*
X008350Y023175D01*
X008479Y023228D01*
X008617Y023228D01*
X008683Y023201D01*
X008661Y023254D01*
X007584Y023254D01*
X007584Y023122D01*
X007531Y022994D01*
X007433Y022896D01*
X007305Y022843D01*
X007166Y022843D01*
X007038Y022896D01*
X006940Y022994D01*
X006887Y023122D01*
X006887Y023254D01*
X006070Y023254D01*
X006006Y023016D01*
X005864Y022770D01*
X005663Y022569D01*
X005417Y022427D01*
X005142Y022353D01*
X004858Y022353D01*
X004583Y022427D01*
X004337Y022569D01*
X004136Y022770D01*
X003994Y023016D01*
X003930Y023254D01*
X003735Y023254D01*
X003735Y022216D01*
X003788Y022089D01*
X003788Y021932D01*
X003945Y021932D01*
X004103Y021867D01*
X004223Y021746D01*
X004288Y021589D01*
X004288Y021419D01*
X004271Y021378D01*
X004400Y021432D01*
X004570Y021432D01*
X004728Y021367D01*
X004848Y021246D01*
X004913Y021089D01*
X004913Y020919D01*
X004848Y020762D01*
X004728Y020642D01*
X004570Y020577D01*
X004400Y020577D01*
X004243Y020642D01*
X004123Y020762D01*
X004058Y020919D01*
X004058Y021089D01*
X004075Y021131D01*
X003945Y021077D01*
X003775Y021077D01*
X003735Y021093D01*
X003735Y019341D01*
X003788Y019214D01*
X003788Y019044D01*
X003735Y018918D01*
X003735Y018591D01*
X003788Y018464D01*
X003788Y018294D01*
X003735Y018168D01*
X003735Y001859D01*
X012735Y001859D01*
X012735Y002518D01*
X012855Y002398D01*
X013021Y002329D01*
X013200Y002329D01*
X013365Y002398D01*
X013492Y002524D01*
X013560Y002690D01*
X013560Y002869D01*
X013492Y003034D01*
X013365Y003161D01*
X013200Y003229D01*
X013021Y003229D01*
X012855Y003161D01*
X012735Y003041D01*
X012735Y006347D01*
X012785Y006368D01*
X012872Y006454D01*
X012919Y006568D01*
X012919Y006691D01*
X012872Y006804D01*
X012785Y006891D01*
X012735Y006912D01*
X012735Y008097D01*
X012785Y008118D01*
X012872Y008204D01*
X012919Y008318D01*
X012919Y008441D01*
X012872Y008554D01*
X012785Y008641D01*
X012735Y008662D01*
X012735Y009443D01*
X012855Y009323D01*
X013021Y009254D01*
X013200Y009254D01*
X013365Y009323D01*
X013492Y009449D01*
X013560Y009615D01*
X013560Y009794D01*
X013492Y009959D01*
X013365Y010086D01*
X013200Y010154D01*
X013021Y010154D01*
X012855Y010086D01*
X012735Y009966D01*
X012735Y010443D01*
X012855Y010323D01*
X013021Y010254D01*
X013200Y010254D01*
X013365Y010323D01*
X013492Y010449D01*
X013560Y010615D01*
X013560Y010794D01*
X013492Y010959D01*
X013365Y011086D01*
X013200Y011154D01*
X013021Y011154D01*
X012855Y011086D01*
X012735Y010966D01*
X012735Y015597D01*
X012785Y015618D01*
X012872Y015704D01*
X012919Y015818D01*
X012919Y015941D01*
X012872Y016054D01*
X012785Y016141D01*
X012735Y016162D01*
X012735Y016504D01*
X014703Y016504D01*
X014724Y016454D01*
X014810Y016368D01*
X014924Y016321D01*
X015047Y016321D01*
X015160Y016368D01*
X015247Y016454D01*
X015268Y016504D01*
X015424Y016504D01*
X015435Y016493D01*
X015549Y016446D01*
X015672Y016446D01*
X015785Y016493D01*
X015797Y016504D01*
X019203Y016504D01*
X019224Y016454D01*
X019310Y016368D01*
X019424Y016321D01*
X019547Y016321D01*
X019660Y016368D01*
X019747Y016454D01*
X019768Y016504D01*
X020110Y016504D01*
X020110Y012563D01*
X020049Y012563D01*
X019935Y012516D01*
X019849Y012429D01*
X019802Y012316D01*
X019802Y012193D01*
X019849Y012079D01*
X019935Y011993D01*
X020049Y011946D01*
X020110Y011946D01*
X020110Y010063D01*
X020049Y010063D01*
X019935Y010016D01*
X019849Y009929D01*
X019802Y009816D01*
X019802Y009693D01*
X019849Y009579D01*
X019935Y009493D01*
X020049Y009446D01*
X020110Y009446D01*
X020110Y001859D01*
X012735Y001859D01*
X012735Y002461D01*
X012695Y002502D01*
X012620Y002682D01*
X012620Y002877D01*
X012695Y003057D01*
X012735Y003097D01*
X012735Y006304D01*
X012680Y006281D01*
X012541Y006281D01*
X012413Y006334D01*
X012315Y006432D01*
X012262Y006560D01*
X012262Y006699D01*
X011407Y006699D01*
X011406Y006702D02*
X011308Y006800D01*
X011180Y006853D01*
X011084Y006853D01*
X011084Y006949D01*
X011031Y007077D01*
X010933Y007175D01*
X010805Y007228D01*
X010666Y007228D01*
X010538Y007175D01*
X010440Y007077D01*
X010387Y006949D01*
X010387Y006810D01*
X010440Y006682D01*
X010538Y006584D01*
X010666Y006531D01*
X010762Y006531D01*
X010762Y006435D01*
X010815Y006307D01*
X010913Y006209D01*
X011041Y006156D01*
X011180Y006156D01*
X011308Y006209D01*
X011406Y006307D01*
X011459Y006435D01*
X011459Y006574D01*
X011406Y006702D01*
X011431Y006641D02*
X012262Y006641D01*
X012262Y006699D02*
X012315Y006827D01*
X012413Y006925D01*
X012541Y006978D01*
X012680Y006978D01*
X012735Y006955D01*
X012735Y008054D01*
X012680Y008031D01*
X012541Y008031D01*
X012413Y008084D01*
X012315Y008182D01*
X012262Y008310D01*
X012262Y008449D01*
X012315Y008577D01*
X012413Y008675D01*
X012541Y008728D01*
X012680Y008728D01*
X012735Y008705D01*
X012735Y009386D01*
X012695Y009427D01*
X012620Y009607D01*
X012620Y009802D01*
X012695Y009982D01*
X012735Y010022D01*
X012735Y010386D01*
X012695Y010427D01*
X012620Y010607D01*
X012620Y010802D01*
X012695Y010982D01*
X012735Y011022D01*
X012735Y015554D01*
X012680Y015531D01*
X012541Y015531D01*
X012413Y015584D01*
X012315Y015682D01*
X012262Y015810D01*
X012262Y015949D01*
X010907Y015949D01*
X010906Y015952D02*
X010808Y016050D01*
X010680Y016103D01*
X010541Y016103D01*
X010413Y016050D01*
X010315Y015952D01*
X010262Y015824D01*
X010262Y015685D01*
X010315Y015557D01*
X010413Y015459D01*
X010541Y015406D01*
X010680Y015406D01*
X010808Y015459D01*
X010906Y015557D01*
X010959Y015685D01*
X010959Y015824D01*
X010906Y015952D01*
X010931Y015890D02*
X012262Y015890D01*
X012262Y015832D02*
X010956Y015832D01*
X010959Y015773D02*
X012277Y015773D01*
X012301Y015715D02*
X010959Y015715D01*
X010947Y015656D02*
X012340Y015656D01*
X012399Y015598D02*
X010923Y015598D01*
X010888Y015539D02*
X012520Y015539D01*
X012701Y015539D02*
X012735Y015539D01*
X013349Y015539D01*
X013310Y015555D02*
X013424Y015508D01*
X013547Y015508D01*
X013660Y015555D01*
X013747Y015642D01*
X013794Y015755D01*
X013794Y015878D01*
X013747Y015992D01*
X013660Y016079D01*
X013547Y016126D01*
X013424Y016126D01*
X013310Y016079D01*
X013224Y015992D01*
X013177Y015878D01*
X013177Y015755D01*
X013224Y015642D01*
X013310Y015555D01*
X013268Y015598D02*
X012737Y015598D01*
X012824Y015656D02*
X013218Y015656D01*
X013193Y015715D02*
X012876Y015715D01*
X012901Y015773D02*
X013177Y015773D01*
X013177Y015832D02*
X012919Y015832D01*
X012919Y015890D02*
X013182Y015890D01*
X013206Y015949D02*
X012916Y015949D01*
X012891Y016008D02*
X013240Y016008D01*
X013298Y016066D02*
X012860Y016066D01*
X012802Y016125D02*
X013422Y016125D01*
X013549Y016125D02*
X015427Y016125D01*
X015427Y016068D02*
X015474Y015954D01*
X015560Y015868D01*
X015674Y015821D01*
X015797Y015821D01*
X015910Y015868D01*
X015997Y015954D01*
X016044Y016068D01*
X016044Y016191D01*
X015997Y016304D01*
X015910Y016391D01*
X015797Y016438D01*
X015674Y016438D01*
X015560Y016391D01*
X015474Y016304D01*
X015427Y016191D01*
X015427Y016068D01*
X015427Y016066D02*
X013673Y016066D01*
X013731Y016008D02*
X015452Y016008D01*
X015479Y015949D02*
X013765Y015949D01*
X013789Y015890D02*
X015538Y015890D01*
X015647Y015832D02*
X013794Y015832D01*
X013794Y015773D02*
X020110Y015773D01*
X020110Y015715D02*
X013777Y015715D01*
X013753Y015656D02*
X017097Y015656D01*
X017060Y015641D02*
X016974Y015554D01*
X016927Y015441D01*
X016927Y015318D01*
X016974Y015204D01*
X017060Y015118D01*
X017174Y015071D01*
X017297Y015071D01*
X019423Y015071D01*
X019424Y015071D02*
X019547Y015071D01*
X020110Y015071D01*
X020110Y015129D02*
X019672Y015129D01*
X019660Y015118D02*
X019747Y015204D01*
X019794Y015318D01*
X019794Y015441D01*
X019747Y015554D01*
X019660Y015641D01*
X019547Y015688D01*
X019424Y015688D01*
X019310Y015641D01*
X019224Y015554D01*
X019177Y015441D01*
X019177Y015318D01*
X019224Y015204D01*
X019310Y015118D01*
X019424Y015071D01*
X019547Y015071D02*
X019660Y015118D01*
X019731Y015188D02*
X020110Y015188D01*
X020110Y015246D02*
X019764Y015246D01*
X019789Y015305D02*
X020110Y015305D01*
X020110Y015364D02*
X019794Y015364D01*
X019794Y015422D02*
X020110Y015422D01*
X020110Y015481D02*
X019778Y015481D01*
X019753Y015539D02*
X020110Y015539D01*
X020110Y015598D02*
X019704Y015598D01*
X019623Y015656D02*
X020110Y015656D01*
X020110Y015832D02*
X015824Y015832D01*
X015933Y015890D02*
X020110Y015890D01*
X020110Y015949D02*
X015992Y015949D01*
X016019Y016008D02*
X020110Y016008D01*
X020110Y016066D02*
X016043Y016066D01*
X016044Y016125D02*
X020110Y016125D01*
X020110Y016183D02*
X016044Y016183D01*
X016023Y016242D02*
X020110Y016242D01*
X020110Y016300D02*
X015999Y016300D01*
X015942Y016359D02*
X019332Y016359D01*
X019261Y016417D02*
X015847Y016417D01*
X015745Y016476D02*
X019215Y016476D01*
X019639Y016359D02*
X020110Y016359D01*
X020110Y016417D02*
X019710Y016417D01*
X019756Y016476D02*
X020110Y016476D01*
X019347Y015656D02*
X017373Y015656D01*
X017410Y015641D02*
X017297Y015688D01*
X017174Y015688D01*
X017060Y015641D01*
X017017Y015598D02*
X013703Y015598D01*
X013622Y015539D02*
X016967Y015539D01*
X016943Y015481D02*
X015845Y015481D01*
X015797Y015501D02*
X015674Y015501D01*
X015560Y015454D01*
X015474Y015367D01*
X015427Y015253D01*
X015427Y015130D01*
X015474Y015017D01*
X015560Y014930D01*
X015674Y014883D01*
X015797Y014883D01*
X015910Y014930D01*
X015997Y015017D01*
X016044Y015130D01*
X016044Y015253D01*
X015997Y015367D01*
X015910Y015454D01*
X015797Y015501D01*
X015942Y015422D02*
X016927Y015422D01*
X016927Y015364D02*
X015998Y015364D01*
X016023Y015305D02*
X016932Y015305D01*
X016956Y015246D02*
X016044Y015246D01*
X016044Y015188D02*
X016990Y015188D01*
X017049Y015129D02*
X016044Y015129D01*
X016019Y015071D02*
X017173Y015071D01*
X017297Y015071D02*
X017410Y015118D01*
X017497Y015204D01*
X017544Y015318D01*
X017544Y015441D01*
X017497Y015554D01*
X017410Y015641D01*
X017454Y015598D02*
X019267Y015598D01*
X019217Y015539D02*
X017503Y015539D01*
X017528Y015481D02*
X019193Y015481D01*
X019177Y015422D02*
X017544Y015422D01*
X017544Y015364D02*
X019177Y015364D01*
X019182Y015305D02*
X017539Y015305D01*
X017514Y015246D02*
X019206Y015246D01*
X019240Y015188D02*
X017481Y015188D01*
X017422Y015129D02*
X019299Y015129D01*
X018785Y014641D02*
X018672Y014688D01*
X018549Y014688D01*
X018435Y014641D01*
X018349Y014554D01*
X018302Y014441D01*
X018302Y014318D01*
X018349Y014204D01*
X018435Y014118D01*
X018549Y014071D01*
X018672Y014071D01*
X018785Y014118D01*
X018872Y014204D01*
X018919Y014318D01*
X018919Y014441D01*
X018872Y014554D01*
X018785Y014641D01*
X018737Y014661D02*
X020110Y014661D01*
X020110Y014603D02*
X018824Y014603D01*
X018876Y014544D02*
X020110Y014544D01*
X020110Y014485D02*
X018901Y014485D01*
X018919Y014427D02*
X020110Y014427D01*
X020110Y014368D02*
X018919Y014368D01*
X018916Y014310D02*
X020110Y014310D01*
X020110Y014251D02*
X018891Y014251D01*
X018860Y014193D02*
X020110Y014193D01*
X020110Y014134D02*
X018802Y014134D01*
X018684Y014076D02*
X020110Y014076D01*
X020110Y014017D02*
X019283Y014017D01*
X019285Y014016D02*
X019172Y014063D01*
X019049Y014063D01*
X018935Y014016D01*
X018849Y013929D01*
X018802Y013816D01*
X018802Y013693D01*
X018849Y013579D01*
X018935Y013493D01*
X019049Y013446D01*
X019172Y013446D01*
X019285Y013493D01*
X019372Y013579D01*
X019419Y013693D01*
X019419Y013816D01*
X019372Y013929D01*
X019285Y014016D01*
X019343Y013959D02*
X020110Y013959D01*
X020110Y013900D02*
X019384Y013900D01*
X019408Y013841D02*
X020110Y013841D01*
X020110Y013783D02*
X019419Y013783D01*
X019419Y013724D02*
X020110Y013724D01*
X020110Y013666D02*
X019408Y013666D01*
X019384Y013607D02*
X020110Y013607D01*
X020110Y013549D02*
X019341Y013549D01*
X019279Y013490D02*
X020110Y013490D01*
X020110Y013432D02*
X018245Y013432D01*
X018247Y013429D02*
X018160Y013516D01*
X018047Y013563D01*
X017924Y013563D01*
X017810Y013516D01*
X017724Y013429D01*
X017677Y013316D01*
X017677Y013193D01*
X017724Y013079D01*
X017810Y012993D01*
X017924Y012946D01*
X018047Y012946D01*
X018160Y012993D01*
X018247Y013079D01*
X018294Y013193D01*
X018294Y013316D01*
X018247Y013429D01*
X018270Y013373D02*
X020110Y013373D01*
X020110Y013315D02*
X018294Y013315D01*
X018294Y013256D02*
X020110Y013256D01*
X020110Y013197D02*
X018294Y013197D01*
X018272Y013139D02*
X020110Y013139D01*
X020110Y013080D02*
X018247Y013080D01*
X018190Y013022D02*
X020110Y013022D01*
X020110Y012963D02*
X018090Y012963D01*
X017881Y012963D02*
X015285Y012963D01*
X015294Y012941D02*
X015247Y013054D01*
X015160Y013141D01*
X015047Y013188D01*
X014924Y013188D01*
X014810Y013141D01*
X014724Y013054D01*
X014677Y012941D01*
X014677Y012818D01*
X014724Y012704D01*
X014810Y012618D01*
X014924Y012571D01*
X015047Y012571D01*
X015160Y012618D01*
X015247Y012704D01*
X015294Y012818D01*
X015294Y012941D01*
X015294Y012905D02*
X020110Y012905D01*
X020110Y012846D02*
X015294Y012846D01*
X015282Y012788D02*
X018738Y012788D01*
X018685Y012766D02*
X018799Y012813D01*
X018922Y012813D01*
X019035Y012766D01*
X019122Y012679D01*
X019169Y012566D01*
X019169Y012443D01*
X019122Y012329D01*
X019035Y012243D01*
X018922Y012196D01*
X018799Y012196D01*
X018685Y012243D01*
X018599Y012329D01*
X018552Y012443D01*
X018552Y012566D01*
X018599Y012679D01*
X018685Y012766D01*
X018649Y012729D02*
X015257Y012729D01*
X015213Y012671D02*
X018595Y012671D01*
X018571Y012612D02*
X015147Y012612D01*
X014824Y012612D02*
X012735Y012612D01*
X010693Y012612D01*
X010709Y012574D02*
X010656Y012702D01*
X010558Y012800D01*
X010430Y012853D01*
X010291Y012853D01*
X010163Y012800D01*
X010065Y012702D01*
X010012Y012574D01*
X010012Y012435D01*
X010065Y012307D01*
X010163Y012209D01*
X010291Y012156D01*
X010430Y012156D01*
X010558Y012209D01*
X010656Y012307D01*
X010709Y012435D01*
X010709Y012574D01*
X010709Y012554D02*
X012735Y012554D01*
X018026Y012554D01*
X018049Y012563D02*
X017935Y012516D01*
X017849Y012429D01*
X017802Y012316D01*
X017802Y012193D01*
X017849Y012079D01*
X017935Y011993D01*
X018049Y011946D01*
X018172Y011946D01*
X018285Y011993D01*
X018372Y012079D01*
X018419Y012193D01*
X018419Y012316D01*
X018372Y012429D01*
X018285Y012516D01*
X018172Y012563D01*
X018049Y012563D01*
X018195Y012554D02*
X018552Y012554D01*
X018552Y012495D02*
X018306Y012495D01*
X018365Y012436D02*
X018554Y012436D01*
X018579Y012378D02*
X018393Y012378D01*
X018418Y012319D02*
X018609Y012319D01*
X018667Y012261D02*
X018419Y012261D01*
X018419Y012202D02*
X018783Y012202D01*
X018938Y012202D02*
X019802Y012202D01*
X019802Y012261D02*
X019053Y012261D01*
X019112Y012319D02*
X019803Y012319D01*
X019827Y012378D02*
X019142Y012378D01*
X019166Y012436D02*
X019856Y012436D01*
X019914Y012495D02*
X019169Y012495D01*
X019169Y012554D02*
X020026Y012554D01*
X020110Y012612D02*
X019150Y012612D01*
X019126Y012671D02*
X020110Y012671D01*
X020110Y012729D02*
X019072Y012729D01*
X018983Y012788D02*
X020110Y012788D01*
X019822Y012144D02*
X018399Y012144D01*
X018374Y012085D02*
X019846Y012085D01*
X019901Y012027D02*
X018319Y012027D01*
X018226Y011968D02*
X019995Y011968D01*
X020110Y011910D02*
X016255Y011910D01*
X016247Y011929D02*
X016160Y012016D01*
X016047Y012063D01*
X015924Y012063D01*
X015810Y012016D01*
X015724Y011929D01*
X015677Y011816D01*
X015677Y011693D01*
X015724Y011579D01*
X015810Y011493D01*
X015924Y011446D01*
X016047Y011446D01*
X016160Y011493D01*
X016247Y011579D01*
X016294Y011693D01*
X016294Y011816D01*
X016247Y011929D01*
X016208Y011968D02*
X017995Y011968D01*
X017901Y012027D02*
X016135Y012027D01*
X016280Y011851D02*
X020110Y011851D01*
X020110Y011792D02*
X016294Y011792D01*
X016294Y011734D02*
X020110Y011734D01*
X020110Y011675D02*
X016287Y011675D01*
X016263Y011617D02*
X020110Y011617D01*
X020110Y011558D02*
X016226Y011558D01*
X016167Y011500D02*
X020110Y011500D01*
X020110Y011441D02*
X012735Y011441D01*
X010311Y011441D01*
X010334Y011497D02*
X010281Y011369D01*
X010183Y011271D01*
X010055Y011218D01*
X009916Y011218D01*
X009788Y011271D01*
X009690Y011369D01*
X009637Y011497D01*
X009637Y011636D01*
X009690Y011764D01*
X009788Y011862D01*
X009916Y011916D01*
X010055Y011916D01*
X010183Y011862D01*
X010281Y011764D01*
X010334Y011636D01*
X010334Y011497D01*
X010334Y011500D02*
X012735Y011500D01*
X015803Y011500D01*
X015745Y011558D02*
X012735Y011558D01*
X010334Y011558D01*
X010334Y011617D02*
X012735Y011617D01*
X015708Y011617D01*
X015684Y011675D02*
X012735Y011675D01*
X010318Y011675D01*
X010294Y011734D02*
X012735Y011734D01*
X015677Y011734D01*
X015677Y011792D02*
X012735Y011792D01*
X010253Y011792D01*
X010194Y011851D02*
X012735Y011851D01*
X015691Y011851D01*
X015716Y011910D02*
X012735Y011910D01*
X010069Y011910D01*
X009901Y011910D02*
X007798Y011910D01*
X007781Y011869D02*
X007834Y011997D01*
X007834Y012136D01*
X007781Y012264D01*
X007683Y012362D01*
X007555Y012416D01*
X007416Y012416D01*
X007288Y012362D01*
X007190Y012264D01*
X007137Y012136D01*
X007137Y011997D01*
X007190Y011869D01*
X007288Y011771D01*
X007416Y011718D01*
X007555Y011718D01*
X007683Y011771D01*
X007781Y011869D01*
X007763Y011851D02*
X009776Y011851D01*
X009718Y011792D02*
X007704Y011792D01*
X007593Y011734D02*
X009677Y011734D01*
X009653Y011675D02*
X003735Y011675D01*
X003735Y011617D02*
X009637Y011617D01*
X009637Y011558D02*
X003735Y011558D01*
X003735Y011500D02*
X006630Y011500D01*
X006600Y011487D02*
X006502Y011389D01*
X006449Y011261D01*
X006449Y011122D01*
X006502Y010994D01*
X006600Y010896D01*
X006729Y010843D01*
X006867Y010843D01*
X006995Y010896D01*
X007094Y010994D01*
X007147Y011122D01*
X007147Y011261D01*
X007094Y011389D01*
X006995Y011487D01*
X006867Y011541D01*
X006729Y011541D01*
X006600Y011487D01*
X006554Y011441D02*
X003735Y011441D01*
X003735Y011383D02*
X006499Y011383D01*
X006475Y011324D02*
X003735Y011324D01*
X003735Y011266D02*
X006451Y011266D01*
X006449Y011207D02*
X003735Y011207D01*
X003735Y011148D02*
X006449Y011148D01*
X006463Y011090D02*
X003735Y011090D01*
X003735Y011031D02*
X006487Y011031D01*
X006524Y010973D02*
X003735Y010973D01*
X003735Y010914D02*
X006582Y010914D01*
X006698Y010856D02*
X003735Y010856D01*
X003735Y010797D02*
X010620Y010797D01*
X010620Y010802D02*
X010620Y010607D01*
X010695Y010427D01*
X010833Y010289D01*
X011013Y010214D01*
X011208Y010214D01*
X011388Y010289D01*
X011526Y010427D01*
X011600Y010607D01*
X011600Y010802D01*
X011526Y010982D01*
X011388Y011120D01*
X011208Y011194D01*
X011013Y011194D01*
X010833Y011120D01*
X010695Y010982D01*
X010620Y010802D01*
X010643Y010856D02*
X007960Y010856D01*
X007930Y010843D02*
X008058Y010896D01*
X008156Y010994D01*
X008209Y011122D01*
X008209Y011261D01*
X008156Y011389D01*
X008058Y011487D01*
X007930Y011541D01*
X007791Y011541D01*
X007663Y011487D01*
X007565Y011389D01*
X007512Y011261D01*
X007512Y011122D01*
X007565Y010994D01*
X007663Y010896D01*
X007791Y010843D01*
X007930Y010843D01*
X008076Y010914D02*
X010667Y010914D01*
X010691Y010973D02*
X008135Y010973D01*
X008171Y011031D02*
X010744Y011031D01*
X010803Y011090D02*
X008196Y011090D01*
X008209Y011148D02*
X010902Y011148D01*
X011319Y011148D02*
X011902Y011148D01*
X011833Y011120D02*
X011695Y010982D01*
X011620Y010802D01*
X011620Y010607D01*
X011695Y010427D01*
X011833Y010289D01*
X012013Y010214D01*
X012208Y010214D01*
X012388Y010289D01*
X012526Y010427D01*
X012600Y010607D01*
X012600Y010802D01*
X012526Y010982D01*
X012388Y011120D01*
X012208Y011194D01*
X012013Y011194D01*
X011833Y011120D01*
X011803Y011090D02*
X011418Y011090D01*
X011476Y011031D02*
X011744Y011031D01*
X011691Y010973D02*
X011530Y010973D01*
X011554Y010914D02*
X011667Y010914D01*
X011643Y010856D02*
X011578Y010856D01*
X011600Y010797D02*
X011620Y010797D01*
X011620Y010739D02*
X011600Y010739D01*
X011600Y010680D02*
X011620Y010680D01*
X011620Y010622D02*
X011600Y010622D01*
X011582Y010563D02*
X011639Y010563D01*
X011663Y010504D02*
X011558Y010504D01*
X011534Y010446D02*
X011687Y010446D01*
X011734Y010387D02*
X011486Y010387D01*
X011428Y010329D02*
X011793Y010329D01*
X011878Y010270D02*
X011343Y010270D01*
X011307Y010153D02*
X011914Y010153D01*
X011833Y010120D02*
X011695Y009982D01*
X011620Y009802D01*
X011620Y009607D01*
X011695Y009427D01*
X011833Y009289D01*
X012013Y009214D01*
X012208Y009214D01*
X012388Y009289D01*
X012526Y009427D01*
X012600Y009607D01*
X012600Y009802D01*
X012621Y009802D01*
X012600Y009802D02*
X012526Y009982D01*
X012388Y010120D01*
X012208Y010194D01*
X012013Y010194D01*
X011833Y010120D01*
X011808Y010095D02*
X011413Y010095D01*
X011388Y010120D02*
X011208Y010194D01*
X011013Y010194D01*
X010833Y010120D01*
X010695Y009982D01*
X010620Y009802D01*
X010620Y009607D01*
X010695Y009427D01*
X010833Y009289D01*
X011013Y009214D01*
X011208Y009214D01*
X011388Y009289D01*
X011526Y009427D01*
X011600Y009607D01*
X011600Y009802D01*
X011621Y009802D01*
X011600Y009802D02*
X011526Y009982D01*
X011388Y010120D01*
X011471Y010036D02*
X011749Y010036D01*
X011693Y009978D02*
X011528Y009978D01*
X011552Y009919D02*
X011669Y009919D01*
X011645Y009861D02*
X011576Y009861D01*
X011600Y009743D02*
X011620Y009743D01*
X011620Y009685D02*
X011600Y009685D01*
X011600Y009626D02*
X011620Y009626D01*
X011637Y009568D02*
X011584Y009568D01*
X011560Y009509D02*
X011661Y009509D01*
X011685Y009451D02*
X011536Y009451D01*
X011491Y009392D02*
X011730Y009392D01*
X011788Y009334D02*
X011433Y009334D01*
X011354Y009275D02*
X011866Y009275D01*
X012008Y009217D02*
X011213Y009217D01*
X011008Y009217D02*
X009869Y009217D01*
X009873Y009207D02*
X009814Y009349D01*
X009705Y009458D01*
X009563Y009517D01*
X009408Y009517D01*
X009266Y009458D01*
X009156Y009349D01*
X009097Y009207D01*
X009097Y009052D01*
X009156Y008909D01*
X009266Y008800D01*
X009408Y008741D01*
X009563Y008741D01*
X009705Y008800D01*
X009814Y008909D01*
X009873Y009052D01*
X009873Y009207D01*
X009873Y009158D02*
X012735Y009158D01*
X013677Y009158D01*
X013677Y009191D02*
X013677Y009068D01*
X013724Y008954D01*
X013810Y008868D01*
X013924Y008821D01*
X014047Y008821D01*
X014160Y008868D01*
X014247Y008954D01*
X014294Y009068D01*
X014294Y009191D01*
X014247Y009304D01*
X014160Y009391D01*
X014047Y009438D01*
X013924Y009438D01*
X013810Y009391D01*
X013724Y009304D01*
X013677Y009191D01*
X013687Y009217D02*
X012735Y009217D01*
X012213Y009217D01*
X012354Y009275D02*
X012735Y009275D01*
X012971Y009275D01*
X012845Y009334D02*
X012735Y009334D01*
X012433Y009334D01*
X012491Y009392D02*
X012730Y009392D01*
X012735Y009392D02*
X012786Y009392D01*
X012685Y009451D02*
X012536Y009451D01*
X012560Y009509D02*
X012661Y009509D01*
X012637Y009568D02*
X012584Y009568D01*
X012600Y009626D02*
X012620Y009626D01*
X012620Y009685D02*
X012600Y009685D01*
X012600Y009743D02*
X012620Y009743D01*
X012645Y009861D02*
X012576Y009861D01*
X012552Y009919D02*
X012669Y009919D01*
X012693Y009978D02*
X012528Y009978D01*
X012471Y010036D02*
X012735Y010036D01*
X012806Y010036D01*
X012747Y009978D02*
X012735Y009978D01*
X012735Y010095D02*
X012877Y010095D01*
X012735Y010095D02*
X012413Y010095D01*
X012307Y010153D02*
X012735Y010153D01*
X013018Y010153D01*
X012982Y010270D02*
X012735Y010270D01*
X012343Y010270D01*
X012428Y010329D02*
X012735Y010329D01*
X012849Y010329D01*
X012791Y010387D02*
X012735Y010387D01*
X012734Y010387D02*
X012486Y010387D01*
X012534Y010446D02*
X012687Y010446D01*
X012663Y010504D02*
X012558Y010504D01*
X012582Y010563D02*
X012639Y010563D01*
X012620Y010622D02*
X012600Y010622D01*
X012600Y010680D02*
X012620Y010680D01*
X012620Y010739D02*
X012600Y010739D01*
X012600Y010797D02*
X012620Y010797D01*
X012643Y010856D02*
X012578Y010856D01*
X012554Y010914D02*
X012667Y010914D01*
X012691Y010973D02*
X012530Y010973D01*
X012476Y011031D02*
X012735Y011031D01*
X012801Y011031D01*
X012743Y010973D02*
X012735Y010973D01*
X012735Y011090D02*
X012865Y011090D01*
X012735Y011090D02*
X012418Y011090D01*
X012319Y011148D02*
X012735Y011148D01*
X013007Y011148D01*
X013214Y011148D02*
X014336Y011148D01*
X014349Y011179D02*
X014302Y011066D01*
X014302Y010943D01*
X014349Y010829D01*
X014435Y010743D01*
X014549Y010696D01*
X014672Y010696D01*
X014785Y010743D01*
X014872Y010829D01*
X014919Y010943D01*
X014919Y011066D01*
X014872Y011179D01*
X014785Y011266D01*
X014672Y011313D01*
X014549Y011313D01*
X014435Y011266D01*
X012735Y011266D01*
X010169Y011266D01*
X010236Y011324D02*
X012735Y011324D01*
X020110Y011324D01*
X020110Y011266D02*
X014786Y011266D01*
X014844Y011207D02*
X020110Y011207D01*
X020110Y011148D02*
X014885Y011148D01*
X014909Y011090D02*
X020110Y011090D01*
X020110Y011031D02*
X016123Y011031D01*
X016160Y011016D02*
X016047Y011063D01*
X015924Y011063D01*
X015810Y011016D01*
X015724Y010929D01*
X015677Y010816D01*
X015677Y010693D01*
X015724Y010579D01*
X015810Y010493D01*
X015924Y010446D01*
X016047Y010446D01*
X016160Y010493D01*
X016247Y010579D01*
X016294Y010693D01*
X016294Y010816D01*
X016247Y010929D01*
X016160Y011016D01*
X016203Y010973D02*
X020110Y010973D01*
X020110Y010914D02*
X016253Y010914D01*
X016278Y010856D02*
X020110Y010856D01*
X020110Y010797D02*
X016294Y010797D01*
X016294Y010739D02*
X020110Y010739D01*
X020110Y010680D02*
X016289Y010680D01*
X016265Y010622D02*
X020110Y010622D01*
X020110Y010563D02*
X016231Y010563D01*
X016172Y010504D02*
X020110Y010504D01*
X020110Y010446D02*
X016048Y010446D01*
X015923Y010446D02*
X013488Y010446D01*
X013515Y010504D02*
X015799Y010504D01*
X015740Y010563D02*
X013539Y010563D01*
X013560Y010622D02*
X015706Y010622D01*
X015682Y010680D02*
X013560Y010680D01*
X013560Y010739D02*
X014445Y010739D01*
X014381Y010797D02*
X013559Y010797D01*
X013535Y010856D02*
X014338Y010856D01*
X014313Y010914D02*
X013510Y010914D01*
X013478Y010973D02*
X014302Y010973D01*
X014302Y011031D02*
X013420Y011031D01*
X013355Y011090D02*
X014312Y011090D01*
X014349Y011179D02*
X014435Y011266D01*
X014376Y011207D02*
X012735Y011207D01*
X008209Y011207D01*
X008207Y011266D02*
X009801Y011266D01*
X009735Y011324D02*
X008183Y011324D01*
X008159Y011383D02*
X009684Y011383D01*
X009660Y011441D02*
X008104Y011441D01*
X008028Y011500D02*
X009637Y011500D01*
X010111Y012261D02*
X007783Y012261D01*
X007807Y012202D02*
X010178Y012202D01*
X010059Y012319D02*
X007726Y012319D01*
X007646Y012378D02*
X010035Y012378D01*
X010012Y012436D02*
X006287Y012436D01*
X006281Y012452D02*
X006183Y012550D01*
X006055Y012603D01*
X005916Y012603D01*
X005788Y012550D01*
X005690Y012452D01*
X005637Y012324D01*
X005637Y012185D01*
X005690Y012057D01*
X005788Y011959D01*
X005916Y011906D01*
X006055Y011906D01*
X006183Y011959D01*
X006281Y012057D01*
X006334Y012185D01*
X006334Y012324D01*
X006281Y012452D01*
X006238Y012495D02*
X010012Y012495D01*
X010012Y012554D02*
X007610Y012554D01*
X007555Y012531D02*
X007683Y012584D01*
X007781Y012682D01*
X007834Y012810D01*
X007834Y012949D01*
X007781Y013077D01*
X007683Y013175D01*
X007555Y013228D01*
X007416Y013228D01*
X007288Y013175D01*
X007190Y013077D01*
X007137Y012949D01*
X007137Y012810D01*
X007190Y012682D01*
X007288Y012584D01*
X007416Y012531D01*
X007555Y012531D01*
X007711Y012612D02*
X010028Y012612D01*
X010052Y012671D02*
X007770Y012671D01*
X007801Y012729D02*
X010092Y012729D01*
X010151Y012788D02*
X007825Y012788D01*
X007834Y012846D02*
X010275Y012846D01*
X010446Y012846D02*
X012735Y012846D01*
X014677Y012846D01*
X014677Y012905D02*
X012735Y012905D01*
X007834Y012905D01*
X007828Y012963D02*
X012735Y012963D01*
X014686Y012963D01*
X014710Y013022D02*
X012735Y013022D01*
X007804Y013022D01*
X007777Y013080D02*
X012735Y013080D01*
X014750Y013080D01*
X014808Y013139D02*
X012735Y013139D01*
X007719Y013139D01*
X007629Y013197D02*
X012735Y013197D01*
X017677Y013197D01*
X017677Y013256D02*
X012735Y013256D01*
X005312Y013256D01*
X005334Y013310D02*
X005281Y013182D01*
X005183Y013084D01*
X005055Y013031D01*
X004916Y013031D01*
X004788Y013084D01*
X004690Y013182D01*
X004637Y013310D01*
X004637Y013449D01*
X004690Y013577D01*
X004788Y013675D01*
X004916Y013728D01*
X005055Y013728D01*
X005183Y013675D01*
X005281Y013577D01*
X005334Y013449D01*
X005334Y013310D01*
X005334Y013315D02*
X007334Y013315D01*
X007288Y013334D02*
X007416Y013281D01*
X007555Y013281D01*
X007683Y013334D01*
X007781Y013432D01*
X007834Y013560D01*
X007834Y013699D01*
X007781Y013827D01*
X007683Y013925D01*
X007555Y013978D01*
X007416Y013978D01*
X007288Y013925D01*
X007190Y013827D01*
X007137Y013699D01*
X007137Y013560D01*
X007190Y013432D01*
X005334Y013432D01*
X005334Y013373D02*
X007248Y013373D01*
X007288Y013334D02*
X007190Y013432D01*
X007166Y013490D02*
X005317Y013490D01*
X005293Y013549D02*
X007141Y013549D01*
X007137Y013607D02*
X005251Y013607D01*
X005192Y013666D02*
X006266Y013666D01*
X006291Y013656D02*
X006430Y013656D01*
X006558Y013709D01*
X006656Y013807D01*
X006709Y013935D01*
X006709Y014074D01*
X006656Y014202D01*
X006558Y014300D01*
X006430Y014353D01*
X006291Y014353D01*
X006246Y014334D01*
X006344Y014432D01*
X006397Y014560D01*
X006397Y014699D01*
X006344Y014827D01*
X006245Y014925D01*
X006117Y014978D01*
X006015Y014978D01*
X006031Y014994D01*
X006084Y015122D01*
X006084Y015261D01*
X006031Y015389D01*
X005933Y015487D01*
X005805Y015541D01*
X005666Y015541D01*
X005621Y015522D01*
X005656Y015557D01*
X005709Y015685D01*
X005709Y015824D01*
X005656Y015952D01*
X005558Y016050D01*
X005430Y016103D01*
X005291Y016103D01*
X005163Y016050D01*
X005065Y015952D01*
X005012Y015824D01*
X005012Y015685D01*
X005065Y015557D01*
X005163Y015459D01*
X005291Y015406D01*
X005430Y015406D01*
X005475Y015424D01*
X005440Y015389D01*
X005387Y015261D01*
X005387Y015122D01*
X005440Y014994D01*
X005538Y014896D01*
X005666Y014843D01*
X005769Y014843D01*
X005752Y014827D01*
X005699Y014699D01*
X005699Y014560D01*
X005752Y014432D01*
X005850Y014334D01*
X005979Y014281D01*
X006117Y014281D01*
X006162Y014299D01*
X006065Y014202D01*
X006012Y014074D01*
X006012Y013935D01*
X006065Y013807D01*
X006163Y013709D01*
X006291Y013656D01*
X006147Y013724D02*
X005064Y013724D01*
X004907Y013724D02*
X003735Y013724D01*
X003735Y013666D02*
X004779Y013666D01*
X004720Y013607D02*
X003735Y013607D01*
X003735Y013549D02*
X004678Y013549D01*
X004654Y013490D02*
X003735Y013490D01*
X003735Y013432D02*
X004637Y013432D01*
X004637Y013373D02*
X003735Y013373D01*
X003735Y013315D02*
X004637Y013315D01*
X004659Y013256D02*
X003735Y013256D01*
X003735Y013197D02*
X004683Y013197D01*
X004733Y013139D02*
X003735Y013139D01*
X003735Y013080D02*
X004796Y013080D01*
X005175Y013080D02*
X007193Y013080D01*
X007167Y013022D02*
X003735Y013022D01*
X003735Y012963D02*
X007143Y012963D01*
X007137Y012905D02*
X003735Y012905D01*
X003735Y012846D02*
X007137Y012846D01*
X007146Y012788D02*
X003735Y012788D01*
X003735Y012729D02*
X007170Y012729D01*
X007201Y012671D02*
X003735Y012671D01*
X003735Y012612D02*
X007259Y012612D01*
X007361Y012554D02*
X006174Y012554D01*
X006312Y012378D02*
X007325Y012378D01*
X007245Y012319D02*
X006334Y012319D01*
X006334Y012261D02*
X007188Y012261D01*
X007164Y012202D02*
X006334Y012202D01*
X006317Y012144D02*
X007140Y012144D01*
X007137Y012085D02*
X006293Y012085D01*
X006251Y012027D02*
X007137Y012027D01*
X007149Y011968D02*
X006192Y011968D01*
X006064Y011910D02*
X007173Y011910D01*
X007208Y011851D02*
X003735Y011851D01*
X003735Y011910D02*
X005906Y011910D01*
X005778Y011968D02*
X003735Y011968D01*
X003735Y012027D02*
X005720Y012027D01*
X005678Y012085D02*
X003735Y012085D01*
X003735Y012144D02*
X005654Y012144D01*
X005637Y012202D02*
X003735Y012202D01*
X003735Y012261D02*
X005637Y012261D01*
X005637Y012319D02*
X003735Y012319D01*
X003735Y012378D02*
X005659Y012378D01*
X005683Y012436D02*
X003735Y012436D01*
X003735Y012495D02*
X005733Y012495D01*
X005796Y012554D02*
X003735Y012554D01*
X003735Y011792D02*
X007267Y011792D01*
X007378Y011734D02*
X003735Y011734D01*
X003735Y010739D02*
X010620Y010739D01*
X010620Y010680D02*
X006699Y010680D01*
X006695Y010682D02*
X006525Y010682D01*
X006368Y010617D01*
X006248Y010496D01*
X006183Y010339D01*
X006183Y010169D01*
X006248Y010012D01*
X006368Y009892D01*
X006525Y009827D01*
X006695Y009827D01*
X006853Y009892D01*
X006973Y010012D01*
X007038Y010169D01*
X007038Y010339D01*
X006973Y010496D01*
X006853Y010617D01*
X006695Y010682D01*
X006841Y010622D02*
X010620Y010622D01*
X010639Y010563D02*
X006906Y010563D01*
X006965Y010504D02*
X010663Y010504D01*
X010687Y010446D02*
X006994Y010446D01*
X007018Y010387D02*
X010734Y010387D01*
X010793Y010329D02*
X007038Y010329D01*
X007038Y010270D02*
X010878Y010270D01*
X010914Y010153D02*
X007031Y010153D01*
X007038Y010212D02*
X012735Y010212D01*
X018310Y010212D01*
X018302Y010191D02*
X018302Y010068D01*
X018349Y009954D01*
X018435Y009868D01*
X018549Y009821D01*
X018672Y009821D01*
X018785Y009868D01*
X018872Y009954D01*
X018919Y010068D01*
X018919Y010191D01*
X018872Y010304D01*
X018785Y010391D01*
X018672Y010438D01*
X018549Y010438D01*
X018435Y010391D01*
X018349Y010304D01*
X018302Y010191D01*
X018302Y010153D02*
X013202Y010153D01*
X013238Y010270D02*
X018335Y010270D01*
X018373Y010329D02*
X013371Y010329D01*
X013430Y010387D02*
X018432Y010387D01*
X018302Y010095D02*
X013344Y010095D01*
X013415Y010036D02*
X018315Y010036D01*
X018339Y009978D02*
X013473Y009978D01*
X013509Y009919D02*
X018384Y009919D01*
X018453Y009861D02*
X013533Y009861D01*
X013557Y009802D02*
X019802Y009802D01*
X019802Y009743D02*
X013560Y009743D01*
X013560Y009685D02*
X019805Y009685D01*
X019829Y009626D02*
X013560Y009626D01*
X013541Y009568D02*
X019860Y009568D01*
X019919Y009509D02*
X013517Y009509D01*
X013492Y009451D02*
X020037Y009451D01*
X020110Y009392D02*
X019908Y009392D01*
X019910Y009391D02*
X019797Y009438D01*
X019674Y009438D01*
X019560Y009391D01*
X019474Y009304D01*
X019427Y009191D01*
X019427Y009068D01*
X019474Y008954D01*
X019560Y008868D01*
X019674Y008821D01*
X019797Y008821D01*
X019910Y008868D01*
X019997Y008954D01*
X020044Y009068D01*
X020044Y009191D01*
X019997Y009304D01*
X019910Y009391D01*
X019968Y009334D02*
X020110Y009334D01*
X020110Y009275D02*
X020009Y009275D01*
X020033Y009217D02*
X020110Y009217D01*
X020110Y009158D02*
X020044Y009158D01*
X020044Y009099D02*
X020110Y009099D01*
X020110Y009041D02*
X020033Y009041D01*
X020009Y008982D02*
X020110Y008982D01*
X020110Y008924D02*
X019966Y008924D01*
X019905Y008865D02*
X020110Y008865D01*
X020110Y008807D02*
X012735Y008807D01*
X011292Y008807D01*
X011308Y008800D02*
X011180Y008853D01*
X011041Y008853D01*
X010913Y008800D01*
X010815Y008702D01*
X010762Y008574D01*
X010762Y008435D01*
X010815Y008307D01*
X010913Y008209D01*
X011041Y008156D01*
X011180Y008156D01*
X011308Y008209D01*
X011406Y008307D01*
X011459Y008435D01*
X011459Y008574D01*
X011406Y008702D01*
X011308Y008800D01*
X011360Y008748D02*
X012735Y008748D01*
X020110Y008748D01*
X020110Y008690D02*
X012735Y008690D01*
X012795Y008631D02*
X020110Y008631D01*
X020110Y008573D02*
X012854Y008573D01*
X012889Y008514D02*
X020110Y008514D01*
X020110Y008455D02*
X012913Y008455D01*
X012919Y008397D02*
X020110Y008397D01*
X020110Y008338D02*
X012919Y008338D01*
X012903Y008280D02*
X013219Y008280D01*
X013185Y008266D02*
X013099Y008179D01*
X013052Y008066D01*
X013052Y007943D01*
X013099Y007829D01*
X013185Y007743D01*
X013299Y007696D01*
X013422Y007696D01*
X013535Y007743D01*
X013622Y007829D01*
X013669Y007943D01*
X013669Y008066D01*
X013622Y008179D01*
X013535Y008266D01*
X013422Y008313D01*
X013299Y008313D01*
X013185Y008266D01*
X013141Y008221D02*
X012879Y008221D01*
X012830Y008163D02*
X013092Y008163D01*
X013068Y008104D02*
X012753Y008104D01*
X012735Y008046D02*
X013052Y008046D01*
X013052Y007987D02*
X012735Y007987D01*
X009636Y007987D01*
X009705Y007958D02*
X009563Y008017D01*
X009408Y008017D01*
X009266Y007958D01*
X009156Y007849D01*
X009097Y007707D01*
X009097Y007552D01*
X009156Y007409D01*
X009266Y007300D01*
X009408Y007241D01*
X009563Y007241D01*
X009705Y007300D01*
X009814Y007409D01*
X009873Y007552D01*
X009873Y007707D01*
X009814Y007849D01*
X009705Y007958D01*
X009735Y007929D02*
X012735Y007929D01*
X013058Y007929D01*
X013082Y007870D02*
X012735Y007870D01*
X009794Y007870D01*
X009830Y007811D02*
X012735Y007811D01*
X013117Y007811D01*
X013175Y007753D02*
X012735Y007753D01*
X009854Y007753D01*
X009873Y007694D02*
X012735Y007694D01*
X020110Y007694D01*
X020110Y007636D02*
X012735Y007636D01*
X009873Y007636D01*
X009873Y007577D02*
X012735Y007577D01*
X020110Y007577D01*
X020110Y007519D02*
X012735Y007519D01*
X009860Y007519D01*
X009835Y007460D02*
X012735Y007460D01*
X020110Y007460D01*
X020110Y007402D02*
X012735Y007402D01*
X009807Y007402D01*
X009748Y007343D02*
X012735Y007343D01*
X020110Y007343D01*
X020110Y007285D02*
X012735Y007285D01*
X009667Y007285D01*
X009780Y007168D02*
X003735Y007168D01*
X003735Y007226D02*
X009911Y007226D01*
X009916Y007228D02*
X009788Y007175D01*
X009690Y007077D01*
X009637Y006949D01*
X009637Y006810D01*
X009690Y006682D01*
X009788Y006584D01*
X009916Y006531D01*
X010055Y006531D01*
X010183Y006584D01*
X010281Y006682D01*
X010334Y006810D01*
X010334Y006949D01*
X010281Y007077D01*
X010183Y007175D01*
X010055Y007228D01*
X009916Y007228D01*
X010060Y007226D02*
X010661Y007226D01*
X010530Y007168D02*
X010190Y007168D01*
X010249Y007109D02*
X010472Y007109D01*
X010429Y007050D02*
X010292Y007050D01*
X010316Y006992D02*
X010405Y006992D01*
X010387Y006933D02*
X010334Y006933D01*
X010334Y006875D02*
X010387Y006875D01*
X010387Y006816D02*
X010334Y006816D01*
X010312Y006758D02*
X010408Y006758D01*
X010432Y006699D02*
X010288Y006699D01*
X010240Y006641D02*
X010481Y006641D01*
X010542Y006582D02*
X010179Y006582D01*
X009792Y006582D02*
X003735Y006582D01*
X003735Y006524D02*
X010762Y006524D01*
X010762Y006465D02*
X003735Y006465D01*
X003735Y006406D02*
X010773Y006406D01*
X010798Y006348D02*
X003735Y006348D01*
X003735Y006289D02*
X010832Y006289D01*
X010891Y006231D02*
X003735Y006231D01*
X003735Y006172D02*
X011001Y006172D01*
X011220Y006172D02*
X012735Y006172D01*
X020110Y006172D01*
X020110Y006114D02*
X012735Y006114D01*
X003735Y006114D01*
X003735Y006055D02*
X012735Y006055D01*
X020110Y006055D01*
X020110Y005997D02*
X012735Y005997D01*
X003735Y005997D01*
X003735Y005938D02*
X012735Y005938D01*
X020110Y005938D01*
X020110Y005880D02*
X012735Y005880D01*
X003735Y005880D01*
X003735Y005821D02*
X012735Y005821D01*
X020110Y005821D01*
X020110Y005762D02*
X012735Y005762D01*
X003735Y005762D01*
X003735Y005704D02*
X012735Y005704D01*
X020110Y005704D01*
X020110Y005645D02*
X012735Y005645D01*
X003735Y005645D01*
X003735Y005587D02*
X012735Y005587D01*
X020110Y005587D01*
X020110Y005528D02*
X012735Y005528D01*
X003735Y005528D01*
X003735Y005470D02*
X012735Y005470D01*
X020110Y005470D01*
X020110Y005411D02*
X012735Y005411D01*
X003735Y005411D01*
X003735Y005353D02*
X012735Y005353D01*
X020110Y005353D01*
X020110Y005294D02*
X012735Y005294D01*
X003735Y005294D01*
X003735Y005236D02*
X012735Y005236D01*
X020110Y005236D01*
X020110Y005177D02*
X012735Y005177D01*
X003735Y005177D01*
X003735Y005119D02*
X012735Y005119D01*
X020110Y005119D01*
X020110Y005060D02*
X012735Y005060D01*
X003735Y005060D01*
X003735Y005001D02*
X012735Y005001D01*
X020110Y005001D01*
X020110Y004943D02*
X012735Y004943D01*
X003735Y004943D01*
X003735Y004884D02*
X012735Y004884D01*
X020110Y004884D01*
X020110Y004826D02*
X012735Y004826D01*
X003735Y004826D01*
X003735Y004767D02*
X012735Y004767D01*
X020110Y004767D01*
X020110Y004709D02*
X012735Y004709D01*
X003735Y004709D01*
X003735Y004650D02*
X012735Y004650D01*
X020110Y004650D01*
X020110Y004592D02*
X012735Y004592D01*
X003735Y004592D01*
X003735Y004533D02*
X012735Y004533D01*
X020110Y004533D01*
X020110Y004475D02*
X012735Y004475D01*
X003735Y004475D01*
X003735Y004416D02*
X012735Y004416D01*
X020110Y004416D01*
X020110Y004357D02*
X012735Y004357D01*
X003735Y004357D01*
X003735Y004299D02*
X012735Y004299D01*
X020110Y004299D01*
X020110Y004240D02*
X012735Y004240D01*
X003735Y004240D01*
X003735Y004182D02*
X012735Y004182D01*
X020110Y004182D01*
X020110Y004123D02*
X012735Y004123D01*
X003735Y004123D01*
X003735Y004065D02*
X012735Y004065D01*
X020110Y004065D01*
X020110Y004006D02*
X016489Y004006D01*
X016363Y004040D02*
X016637Y003966D01*
X016884Y003824D01*
X017084Y003623D01*
X017227Y003377D01*
X017300Y003103D01*
X017300Y002818D01*
X017227Y002544D01*
X017084Y002298D01*
X016884Y002097D01*
X016637Y001954D01*
X016363Y001881D01*
X016078Y001881D01*
X015804Y001954D01*
X015558Y002097D01*
X015357Y002298D01*
X015215Y002544D01*
X015141Y002818D01*
X015141Y003103D01*
X015215Y003377D01*
X015357Y003623D01*
X015558Y003824D01*
X015804Y003966D01*
X016078Y004040D01*
X016363Y004040D01*
X015952Y004006D02*
X012735Y004006D01*
X005269Y004006D01*
X005142Y004040D02*
X004858Y004040D01*
X004583Y003966D01*
X004337Y003824D01*
X004136Y003623D01*
X003994Y003377D01*
X003921Y003103D01*
X003921Y002818D01*
X003994Y002544D01*
X004136Y002298D01*
X004337Y002097D01*
X004583Y001954D01*
X004858Y001881D01*
X005142Y001881D01*
X005417Y001954D01*
X005663Y002097D01*
X005864Y002298D01*
X006006Y002544D01*
X006080Y002818D01*
X006080Y003103D01*
X006006Y003377D01*
X005864Y003623D01*
X005663Y003824D01*
X005417Y003966D01*
X005142Y004040D01*
X005449Y003948D02*
X012735Y003948D01*
X015771Y003948D01*
X015670Y003889D02*
X012735Y003889D01*
X005551Y003889D01*
X005652Y003831D02*
X012735Y003831D01*
X015569Y003831D01*
X015505Y003772D02*
X012735Y003772D01*
X005715Y003772D01*
X005774Y003713D02*
X012735Y003713D01*
X015447Y003713D01*
X015388Y003655D02*
X012735Y003655D01*
X005832Y003655D01*
X005880Y003596D02*
X012735Y003596D01*
X015341Y003596D01*
X015307Y003538D02*
X012735Y003538D01*
X005913Y003538D01*
X005947Y003479D02*
X012735Y003479D01*
X015274Y003479D01*
X015240Y003421D02*
X012735Y003421D01*
X005981Y003421D01*
X006010Y003362D02*
X012735Y003362D01*
X015211Y003362D01*
X015195Y003304D02*
X012735Y003304D01*
X006026Y003304D01*
X006042Y003245D02*
X007955Y003245D01*
X008013Y003269D02*
X007833Y003195D01*
X007695Y003057D01*
X007620Y002877D01*
X007620Y002682D01*
X007695Y002502D01*
X007833Y002364D01*
X008013Y002289D01*
X008208Y002289D01*
X008388Y002364D01*
X008526Y002502D01*
X008600Y002682D01*
X008600Y002877D01*
X008526Y003057D01*
X008388Y003195D01*
X008208Y003269D01*
X008013Y003269D01*
X007825Y003187D02*
X007248Y003187D01*
X007275Y003178D02*
X007211Y003199D01*
X007144Y003209D01*
X007140Y003209D01*
X007140Y002809D01*
X007080Y002809D01*
X007080Y002749D01*
X006680Y002749D01*
X006680Y002745D01*
X006691Y002679D01*
X006712Y002614D01*
X006743Y002554D01*
X006782Y002499D01*
X006830Y002451D01*
X006885Y002412D01*
X006945Y002381D01*
X007010Y002360D01*
X007076Y002349D01*
X007080Y002349D01*
X007080Y002749D01*
X007140Y002749D01*
X007140Y002349D01*
X007144Y002349D01*
X007211Y002360D01*
X007275Y002381D01*
X007336Y002412D01*
X007391Y002451D01*
X007438Y002499D01*
X007478Y002554D01*
X007509Y002614D01*
X007530Y002679D01*
X007540Y002745D01*
X007540Y002749D01*
X007141Y002749D01*
X007141Y002809D01*
X007540Y002809D01*
X007540Y002813D01*
X007530Y002880D01*
X007509Y002944D01*
X007478Y003005D01*
X007438Y003059D01*
X007391Y003107D01*
X007336Y003147D01*
X007275Y003178D01*
X007362Y003128D02*
X007766Y003128D01*
X007708Y003069D02*
X007428Y003069D01*
X007474Y003011D02*
X007676Y003011D01*
X007652Y002952D02*
X007505Y002952D01*
X007525Y002894D02*
X007627Y002894D01*
X007620Y002835D02*
X007537Y002835D01*
X007620Y002777D02*
X007141Y002777D01*
X007140Y002835D02*
X007080Y002835D01*
X007080Y002809D02*
X007080Y003209D01*
X007076Y003209D01*
X007010Y003199D01*
X006945Y003178D01*
X006885Y003147D01*
X006830Y003107D01*
X006782Y003059D01*
X006743Y003005D01*
X006712Y002944D01*
X006691Y002880D01*
X006680Y002813D01*
X006680Y002809D01*
X007080Y002809D01*
X007080Y002777D02*
X006069Y002777D01*
X006080Y002835D02*
X006684Y002835D01*
X006696Y002894D02*
X006080Y002894D01*
X006080Y002952D02*
X006716Y002952D01*
X006747Y003011D02*
X006080Y003011D01*
X006080Y003069D02*
X006792Y003069D01*
X006859Y003128D02*
X006073Y003128D01*
X006057Y003187D02*
X006972Y003187D01*
X007080Y003187D02*
X007140Y003187D01*
X007140Y003128D02*
X007080Y003128D01*
X007080Y003069D02*
X007140Y003069D01*
X007140Y003011D02*
X007080Y003011D01*
X007080Y002952D02*
X007140Y002952D01*
X007140Y002894D02*
X007080Y002894D01*
X007080Y002718D02*
X007140Y002718D01*
X007140Y002660D02*
X007080Y002660D01*
X007080Y002601D02*
X007140Y002601D01*
X007140Y002543D02*
X007080Y002543D01*
X007080Y002484D02*
X007140Y002484D01*
X007140Y002426D02*
X007080Y002426D01*
X007080Y002367D02*
X007140Y002367D01*
X007233Y002367D02*
X007830Y002367D01*
X007771Y002426D02*
X007355Y002426D01*
X007423Y002484D02*
X007713Y002484D01*
X007678Y002543D02*
X007470Y002543D01*
X007502Y002601D02*
X007654Y002601D01*
X007630Y002660D02*
X007524Y002660D01*
X007536Y002718D02*
X007620Y002718D01*
X007967Y002308D02*
X005870Y002308D01*
X005904Y002367D02*
X006988Y002367D01*
X006866Y002426D02*
X005938Y002426D01*
X005972Y002484D02*
X006798Y002484D01*
X006751Y002543D02*
X006005Y002543D01*
X006022Y002601D02*
X006719Y002601D01*
X006697Y002660D02*
X006037Y002660D01*
X006053Y002718D02*
X006685Y002718D01*
X005816Y002250D02*
X012735Y002250D01*
X015404Y002250D01*
X015350Y002308D02*
X012735Y002308D01*
X012254Y002308D01*
X012208Y002289D02*
X012388Y002364D01*
X012526Y002502D01*
X012600Y002682D01*
X012600Y002877D01*
X012526Y003057D01*
X012388Y003195D01*
X012208Y003269D01*
X012013Y003269D01*
X011833Y003195D01*
X011695Y003057D01*
X011620Y002877D01*
X011620Y002682D01*
X011695Y002502D01*
X011833Y002364D01*
X012013Y002289D01*
X012208Y002289D01*
X012391Y002367D02*
X012735Y002367D01*
X012930Y002367D01*
X012828Y002426D02*
X012735Y002426D01*
X012450Y002426D01*
X012508Y002484D02*
X012713Y002484D01*
X012735Y002484D02*
X012769Y002484D01*
X012678Y002543D02*
X012543Y002543D01*
X012567Y002601D02*
X012654Y002601D01*
X012630Y002660D02*
X012591Y002660D01*
X012600Y002718D02*
X012620Y002718D01*
X012620Y002777D02*
X012600Y002777D01*
X012600Y002835D02*
X012620Y002835D01*
X012627Y002894D02*
X012593Y002894D01*
X012569Y002952D02*
X012652Y002952D01*
X012676Y003011D02*
X012545Y003011D01*
X012513Y003069D02*
X012708Y003069D01*
X012735Y003069D02*
X012764Y003069D01*
X012735Y003128D02*
X012823Y003128D01*
X012735Y003128D02*
X012455Y003128D01*
X012396Y003187D02*
X012735Y003187D01*
X012918Y003187D01*
X012735Y003245D02*
X015179Y003245D01*
X015164Y003187D02*
X014303Y003187D01*
X014365Y003161D02*
X014200Y003229D01*
X014021Y003229D01*
X013855Y003161D01*
X013729Y003034D01*
X013660Y002869D01*
X013660Y002690D01*
X013729Y002524D01*
X013855Y002398D01*
X014021Y002329D01*
X014200Y002329D01*
X014365Y002398D01*
X014492Y002524D01*
X014560Y002690D01*
X014560Y002869D01*
X014492Y003034D01*
X014365Y003161D01*
X014398Y003128D02*
X015148Y003128D01*
X015141Y003069D02*
X014457Y003069D01*
X014501Y003011D02*
X015141Y003011D01*
X015141Y002952D02*
X014526Y002952D01*
X014550Y002894D02*
X015141Y002894D01*
X015141Y002835D02*
X014560Y002835D01*
X014560Y002777D02*
X015152Y002777D01*
X015168Y002718D02*
X014560Y002718D01*
X014548Y002660D02*
X015184Y002660D01*
X015199Y002601D02*
X014524Y002601D01*
X014499Y002543D02*
X015215Y002543D01*
X015249Y002484D02*
X014451Y002484D01*
X014393Y002426D02*
X015283Y002426D01*
X015317Y002367D02*
X014291Y002367D01*
X013930Y002367D02*
X013291Y002367D01*
X013393Y002426D02*
X013828Y002426D01*
X013769Y002484D02*
X013451Y002484D01*
X013499Y002543D02*
X013721Y002543D01*
X013697Y002601D02*
X013524Y002601D01*
X013548Y002660D02*
X013673Y002660D01*
X013660Y002718D02*
X013560Y002718D01*
X013560Y002777D02*
X013660Y002777D01*
X013660Y002835D02*
X013560Y002835D01*
X013550Y002894D02*
X013671Y002894D01*
X013695Y002952D02*
X013526Y002952D01*
X013501Y003011D02*
X013719Y003011D01*
X013764Y003069D02*
X013457Y003069D01*
X013398Y003128D02*
X013823Y003128D01*
X013918Y003187D02*
X013303Y003187D01*
X012735Y003245D02*
X012266Y003245D01*
X011955Y003245D02*
X011266Y003245D01*
X011208Y003269D02*
X011013Y003269D01*
X010833Y003195D01*
X010695Y003057D01*
X010620Y002877D01*
X010620Y002682D01*
X010695Y002502D01*
X010833Y002364D01*
X011013Y002289D01*
X011208Y002289D01*
X011388Y002364D01*
X011526Y002502D01*
X011600Y002682D01*
X011600Y002877D01*
X011526Y003057D01*
X011388Y003195D01*
X011208Y003269D01*
X011396Y003187D02*
X011825Y003187D01*
X011766Y003128D02*
X011455Y003128D01*
X011513Y003069D02*
X011708Y003069D01*
X011676Y003011D02*
X011545Y003011D01*
X011569Y002952D02*
X011652Y002952D01*
X011627Y002894D02*
X011593Y002894D01*
X011600Y002835D02*
X011620Y002835D01*
X011620Y002777D02*
X011600Y002777D01*
X011600Y002718D02*
X011620Y002718D01*
X011630Y002660D02*
X011591Y002660D01*
X011567Y002601D02*
X011654Y002601D01*
X011678Y002543D02*
X011543Y002543D01*
X011508Y002484D02*
X011713Y002484D01*
X011771Y002426D02*
X011450Y002426D01*
X011391Y002367D02*
X011830Y002367D01*
X011967Y002308D02*
X011254Y002308D01*
X010967Y002308D02*
X010254Y002308D01*
X010208Y002289D02*
X010388Y002364D01*
X010526Y002502D01*
X010600Y002682D01*
X010600Y002877D01*
X010526Y003057D01*
X010388Y003195D01*
X010208Y003269D01*
X010013Y003269D01*
X009833Y003195D01*
X009695Y003057D01*
X009620Y002877D01*
X009620Y002682D01*
X009695Y002502D01*
X009833Y002364D01*
X010013Y002289D01*
X010208Y002289D01*
X010391Y002367D02*
X010830Y002367D01*
X010771Y002426D02*
X010450Y002426D01*
X010508Y002484D02*
X010713Y002484D01*
X010678Y002543D02*
X010543Y002543D01*
X010567Y002601D02*
X010654Y002601D01*
X010630Y002660D02*
X010591Y002660D01*
X010600Y002718D02*
X010620Y002718D01*
X010620Y002777D02*
X010600Y002777D01*
X010600Y002835D02*
X010620Y002835D01*
X010627Y002894D02*
X010593Y002894D01*
X010569Y002952D02*
X010652Y002952D01*
X010676Y003011D02*
X010545Y003011D01*
X010513Y003069D02*
X010708Y003069D01*
X010766Y003128D02*
X010455Y003128D01*
X010396Y003187D02*
X010825Y003187D01*
X010955Y003245D02*
X010266Y003245D01*
X009955Y003245D02*
X009266Y003245D01*
X009208Y003269D02*
X009388Y003195D01*
X009526Y003057D01*
X009600Y002877D01*
X009600Y002682D01*
X009526Y002502D01*
X009388Y002364D01*
X009208Y002289D01*
X009013Y002289D01*
X008833Y002364D01*
X008695Y002502D01*
X008620Y002682D01*
X008620Y002877D01*
X008695Y003057D01*
X008833Y003195D01*
X009013Y003269D01*
X009208Y003269D01*
X009396Y003187D02*
X009825Y003187D01*
X009766Y003128D02*
X009455Y003128D01*
X009513Y003069D02*
X009708Y003069D01*
X009676Y003011D02*
X009545Y003011D01*
X009569Y002952D02*
X009652Y002952D01*
X009627Y002894D02*
X009593Y002894D01*
X009600Y002835D02*
X009620Y002835D01*
X009620Y002777D02*
X009600Y002777D01*
X009600Y002718D02*
X009620Y002718D01*
X009630Y002660D02*
X009591Y002660D01*
X009567Y002601D02*
X009654Y002601D01*
X009678Y002543D02*
X009543Y002543D01*
X009508Y002484D02*
X009713Y002484D01*
X009771Y002426D02*
X009450Y002426D01*
X009391Y002367D02*
X009830Y002367D01*
X009967Y002308D02*
X009254Y002308D01*
X008967Y002308D02*
X008254Y002308D01*
X008391Y002367D02*
X008830Y002367D01*
X008771Y002426D02*
X008450Y002426D01*
X008508Y002484D02*
X008713Y002484D01*
X008678Y002543D02*
X008543Y002543D01*
X008567Y002601D02*
X008654Y002601D01*
X008630Y002660D02*
X008591Y002660D01*
X008600Y002718D02*
X008620Y002718D01*
X008620Y002777D02*
X008600Y002777D01*
X008600Y002835D02*
X008620Y002835D01*
X008627Y002894D02*
X008593Y002894D01*
X008569Y002952D02*
X008652Y002952D01*
X008676Y003011D02*
X008545Y003011D01*
X008513Y003069D02*
X008708Y003069D01*
X008766Y003128D02*
X008455Y003128D01*
X008396Y003187D02*
X008825Y003187D01*
X008955Y003245D02*
X008266Y003245D01*
X009731Y006641D02*
X003735Y006641D01*
X003735Y006699D02*
X009682Y006699D01*
X009658Y006758D02*
X003735Y006758D01*
X003735Y006816D02*
X009637Y006816D01*
X009637Y006875D02*
X003735Y006875D01*
X003735Y006933D02*
X009637Y006933D01*
X009655Y006992D02*
X003735Y006992D01*
X003735Y007050D02*
X009679Y007050D01*
X009722Y007109D02*
X003735Y007109D01*
X003735Y007285D02*
X009303Y007285D01*
X009223Y007343D02*
X003735Y007343D01*
X003735Y007402D02*
X009164Y007402D01*
X009135Y007460D02*
X003735Y007460D01*
X003735Y007519D02*
X009111Y007519D01*
X009097Y007577D02*
X003735Y007577D01*
X003735Y007636D02*
X009097Y007636D01*
X009097Y007694D02*
X003735Y007694D01*
X003735Y007753D02*
X009117Y007753D01*
X009141Y007811D02*
X003735Y007811D01*
X003735Y007870D02*
X009177Y007870D01*
X009236Y007929D02*
X003735Y007929D01*
X003735Y007987D02*
X009335Y007987D01*
X009391Y008748D02*
X003735Y008748D01*
X003735Y008690D02*
X010810Y008690D01*
X010785Y008631D02*
X003735Y008631D01*
X003735Y008573D02*
X010762Y008573D01*
X010762Y008514D02*
X003735Y008514D01*
X003735Y008455D02*
X010762Y008455D01*
X010777Y008397D02*
X003735Y008397D01*
X003735Y008338D02*
X010802Y008338D01*
X010842Y008280D02*
X003735Y008280D01*
X003735Y008221D02*
X010900Y008221D01*
X011024Y008163D02*
X003735Y008163D01*
X003735Y008104D02*
X012392Y008104D01*
X012334Y008163D02*
X011197Y008163D01*
X011321Y008221D02*
X012298Y008221D01*
X012274Y008280D02*
X011379Y008280D01*
X011419Y008338D02*
X012262Y008338D01*
X012262Y008397D02*
X011443Y008397D01*
X011459Y008455D02*
X012264Y008455D01*
X012289Y008514D02*
X011459Y008514D01*
X011459Y008573D02*
X012313Y008573D01*
X012369Y008631D02*
X011435Y008631D01*
X011411Y008690D02*
X012448Y008690D01*
X012735Y008865D02*
X013816Y008865D01*
X013754Y008924D02*
X012735Y008924D01*
X009820Y008924D01*
X009845Y008982D02*
X012735Y008982D01*
X013712Y008982D01*
X013688Y009041D02*
X012735Y009041D01*
X009869Y009041D01*
X009873Y009099D02*
X012735Y009099D01*
X013677Y009099D01*
X013712Y009275D02*
X013250Y009275D01*
X013376Y009334D02*
X013753Y009334D01*
X013813Y009392D02*
X013435Y009392D01*
X014158Y009392D02*
X019563Y009392D01*
X019503Y009334D02*
X014218Y009334D01*
X014259Y009275D02*
X019462Y009275D01*
X019437Y009217D02*
X014283Y009217D01*
X014294Y009158D02*
X019427Y009158D01*
X019427Y009099D02*
X014294Y009099D01*
X014283Y009041D02*
X019438Y009041D01*
X019462Y008982D02*
X014259Y008982D01*
X014216Y008924D02*
X019504Y008924D01*
X019566Y008865D02*
X014155Y008865D01*
X013653Y008104D02*
X020110Y008104D01*
X020110Y008046D02*
X013669Y008046D01*
X013669Y007987D02*
X020110Y007987D01*
X020110Y007929D02*
X013663Y007929D01*
X013639Y007870D02*
X020110Y007870D01*
X020110Y007811D02*
X013604Y007811D01*
X013546Y007753D02*
X020110Y007753D01*
X020110Y008163D02*
X013629Y008163D01*
X013580Y008221D02*
X020110Y008221D01*
X020110Y008280D02*
X013502Y008280D01*
X012735Y008046D02*
X012716Y008046D01*
X012505Y008046D02*
X003735Y008046D01*
X003735Y008807D02*
X009259Y008807D01*
X009201Y008865D02*
X003735Y008865D01*
X003735Y008924D02*
X009150Y008924D01*
X009126Y008982D02*
X003735Y008982D01*
X003735Y009041D02*
X009102Y009041D01*
X009097Y009099D02*
X003735Y009099D01*
X003735Y009158D02*
X009097Y009158D01*
X009101Y009217D02*
X003735Y009217D01*
X003735Y009275D02*
X009126Y009275D01*
X009150Y009334D02*
X003735Y009334D01*
X003735Y009392D02*
X009199Y009392D01*
X009258Y009451D02*
X003735Y009451D01*
X003735Y009509D02*
X009389Y009509D01*
X009582Y009509D02*
X010661Y009509D01*
X010685Y009451D02*
X009713Y009451D01*
X009771Y009392D02*
X010730Y009392D01*
X010788Y009334D02*
X009821Y009334D01*
X009845Y009275D02*
X010866Y009275D01*
X010637Y009568D02*
X003735Y009568D01*
X003735Y009626D02*
X010620Y009626D01*
X010620Y009685D02*
X003735Y009685D01*
X003735Y009743D02*
X010620Y009743D01*
X010621Y009802D02*
X003735Y009802D01*
X003735Y009861D02*
X006444Y009861D01*
X006341Y009919D02*
X003735Y009919D01*
X003735Y009978D02*
X006283Y009978D01*
X006238Y010036D02*
X003735Y010036D01*
X003735Y010095D02*
X006214Y010095D01*
X006190Y010153D02*
X003735Y010153D01*
X003735Y010212D02*
X006183Y010212D01*
X006183Y010270D02*
X003735Y010270D01*
X003735Y010329D02*
X006183Y010329D01*
X006203Y010387D02*
X003735Y010387D01*
X003735Y010446D02*
X006227Y010446D01*
X006256Y010504D02*
X003735Y010504D01*
X003735Y010563D02*
X006315Y010563D01*
X006380Y010622D02*
X003735Y010622D01*
X003735Y010680D02*
X006521Y010680D01*
X006898Y010856D02*
X007760Y010856D01*
X007645Y010914D02*
X007014Y010914D01*
X007072Y010973D02*
X007586Y010973D01*
X007549Y011031D02*
X007109Y011031D01*
X007133Y011090D02*
X007525Y011090D01*
X007512Y011148D02*
X007147Y011148D01*
X007147Y011207D02*
X007512Y011207D01*
X007513Y011266D02*
X007145Y011266D01*
X007121Y011324D02*
X007538Y011324D01*
X007562Y011383D02*
X007096Y011383D01*
X007042Y011441D02*
X007617Y011441D01*
X007693Y011500D02*
X006966Y011500D01*
X007822Y011968D02*
X012735Y011968D01*
X015763Y011968D01*
X015836Y012027D02*
X012735Y012027D01*
X007834Y012027D01*
X007834Y012085D02*
X012735Y012085D01*
X017846Y012085D01*
X017822Y012144D02*
X012735Y012144D01*
X007831Y012144D01*
X007252Y013139D02*
X005238Y013139D01*
X005288Y013197D02*
X007342Y013197D01*
X007637Y013315D02*
X008459Y013315D01*
X008413Y013334D02*
X008541Y013281D01*
X008680Y013281D01*
X008808Y013334D01*
X008906Y013432D01*
X008959Y013560D01*
X008959Y013699D01*
X008906Y013827D01*
X008808Y013925D01*
X008767Y013942D01*
X008808Y013959D01*
X008906Y014057D01*
X008959Y014185D01*
X008959Y014324D01*
X008906Y014452D01*
X008808Y014550D01*
X008680Y014603D01*
X008584Y014603D01*
X008584Y014699D01*
X008531Y014827D01*
X008433Y014925D01*
X008305Y014978D01*
X008166Y014978D01*
X008038Y014925D01*
X007940Y014827D01*
X007887Y014699D01*
X007887Y014560D01*
X007940Y014432D01*
X008038Y014334D01*
X008166Y014281D01*
X008262Y014281D01*
X008262Y014185D01*
X008315Y014057D01*
X008413Y013959D01*
X008454Y013942D01*
X008413Y013925D01*
X008315Y013827D01*
X008262Y013699D01*
X008262Y013560D01*
X008315Y013432D01*
X007781Y013432D01*
X007805Y013490D02*
X008291Y013490D01*
X008315Y013432D02*
X008413Y013334D01*
X008373Y013373D02*
X007722Y013373D01*
X007829Y013549D02*
X008266Y013549D01*
X008262Y013607D02*
X007834Y013607D01*
X007834Y013666D02*
X008262Y013666D01*
X008272Y013724D02*
X007823Y013724D01*
X007799Y013783D02*
X008297Y013783D01*
X008329Y013841D02*
X007766Y013841D01*
X007708Y013900D02*
X008388Y013900D01*
X008413Y013959D02*
X007602Y013959D01*
X007369Y013959D02*
X006709Y013959D01*
X006709Y014017D02*
X008354Y014017D01*
X008307Y014076D02*
X006708Y014076D01*
X006684Y014134D02*
X008283Y014134D01*
X008262Y014193D02*
X006660Y014193D01*
X006607Y014251D02*
X008262Y014251D01*
X008095Y014310D02*
X006534Y014310D01*
X006339Y014427D02*
X007945Y014427D01*
X007917Y014485D02*
X006366Y014485D01*
X006390Y014544D02*
X007893Y014544D01*
X007887Y014603D02*
X006397Y014603D01*
X006397Y014661D02*
X007887Y014661D01*
X007895Y014720D02*
X006388Y014720D01*
X006364Y014778D02*
X007920Y014778D01*
X007950Y014837D02*
X006334Y014837D01*
X006275Y014895D02*
X008008Y014895D01*
X008107Y014954D02*
X006176Y014954D01*
X006039Y015012D02*
X012735Y015012D01*
X014302Y015012D01*
X014302Y015066D02*
X014302Y014943D01*
X014349Y014829D01*
X014435Y014743D01*
X014549Y014696D01*
X014672Y014696D01*
X014785Y014743D01*
X014872Y014829D01*
X014919Y014943D01*
X014919Y015066D01*
X014872Y015179D01*
X014785Y015266D01*
X014672Y015313D01*
X014549Y015313D01*
X014435Y015266D01*
X014349Y015179D01*
X014302Y015066D01*
X014304Y015071D02*
X012735Y015071D01*
X006063Y015071D01*
X006084Y015129D02*
X012735Y015129D01*
X014328Y015129D01*
X014357Y015188D02*
X012735Y015188D01*
X006084Y015188D01*
X006084Y015246D02*
X012735Y015246D01*
X014416Y015246D01*
X014530Y015305D02*
X012735Y015305D01*
X006066Y015305D01*
X006042Y015364D02*
X012735Y015364D01*
X015472Y015364D01*
X015448Y015305D02*
X014691Y015305D01*
X014805Y015246D02*
X015427Y015246D01*
X015427Y015188D02*
X014863Y015188D01*
X014893Y015129D02*
X015427Y015129D01*
X015451Y015071D02*
X014917Y015071D01*
X014919Y015012D02*
X015478Y015012D01*
X015537Y014954D02*
X014919Y014954D01*
X014899Y014895D02*
X015071Y014895D01*
X015060Y014891D02*
X014974Y014804D01*
X014927Y014691D01*
X014927Y014568D01*
X014974Y014454D01*
X015060Y014368D01*
X012735Y014368D01*
X008941Y014368D01*
X008959Y014310D02*
X012735Y014310D01*
X018305Y014310D01*
X018302Y014368D02*
X015411Y014368D01*
X015410Y014368D02*
X015497Y014454D01*
X015544Y014568D01*
X015544Y014691D01*
X015497Y014804D01*
X015410Y014891D01*
X015297Y014938D01*
X015174Y014938D01*
X015060Y014891D01*
X015006Y014837D02*
X014875Y014837D01*
X014821Y014778D02*
X014963Y014778D01*
X014939Y014720D02*
X014730Y014720D01*
X014927Y014661D02*
X012735Y014661D01*
X008584Y014661D01*
X008575Y014720D02*
X012735Y014720D01*
X014491Y014720D01*
X014400Y014778D02*
X012735Y014778D01*
X008551Y014778D01*
X008521Y014837D02*
X012735Y014837D01*
X014346Y014837D01*
X014321Y014895D02*
X012735Y014895D01*
X008463Y014895D01*
X008363Y014954D02*
X012735Y014954D01*
X014302Y014954D01*
X014927Y014603D02*
X012735Y014603D01*
X008681Y014603D01*
X008814Y014544D02*
X012735Y014544D01*
X014937Y014544D01*
X014961Y014485D02*
X012735Y014485D01*
X008872Y014485D01*
X008916Y014427D02*
X012735Y014427D01*
X015001Y014427D01*
X015060Y014368D02*
X015174Y014321D01*
X015297Y014321D01*
X015410Y014368D01*
X015470Y014427D02*
X018302Y014427D01*
X018320Y014485D02*
X015510Y014485D01*
X015534Y014544D02*
X018344Y014544D01*
X018397Y014603D02*
X015544Y014603D01*
X015544Y014661D02*
X018484Y014661D01*
X018329Y014251D02*
X012735Y014251D01*
X008959Y014251D01*
X008959Y014193D02*
X012735Y014193D01*
X018360Y014193D01*
X018419Y014134D02*
X012735Y014134D01*
X008938Y014134D01*
X008914Y014076D02*
X012735Y014076D01*
X018537Y014076D01*
X018837Y013900D02*
X012735Y013900D01*
X008833Y013900D01*
X008808Y013959D02*
X012735Y013959D01*
X018878Y013959D01*
X018938Y014017D02*
X012735Y014017D01*
X008866Y014017D01*
X008891Y013841D02*
X012735Y013841D01*
X018812Y013841D01*
X018802Y013783D02*
X012735Y013783D01*
X008924Y013783D01*
X008948Y013724D02*
X012735Y013724D01*
X018802Y013724D01*
X018813Y013666D02*
X012735Y013666D01*
X008959Y013666D01*
X008959Y013607D02*
X012735Y013607D01*
X018837Y013607D01*
X018879Y013549D02*
X018081Y013549D01*
X018186Y013490D02*
X018941Y013490D01*
X017889Y013549D02*
X012735Y013549D01*
X008954Y013549D01*
X008930Y013490D02*
X012735Y013490D01*
X017785Y013490D01*
X017726Y013432D02*
X012735Y013432D01*
X008906Y013432D01*
X008847Y013373D02*
X012735Y013373D01*
X017700Y013373D01*
X017677Y013315D02*
X012735Y013315D01*
X008762Y013315D01*
X008003Y014368D02*
X006280Y014368D01*
X006114Y014251D02*
X003735Y014251D01*
X003735Y014193D02*
X006061Y014193D01*
X006037Y014134D02*
X003735Y014134D01*
X003735Y014076D02*
X006012Y014076D01*
X006012Y014017D02*
X003735Y014017D01*
X003735Y013959D02*
X006012Y013959D01*
X006026Y013900D02*
X003735Y013900D01*
X003735Y013841D02*
X006050Y013841D01*
X006089Y013783D02*
X003735Y013783D01*
X003735Y014310D02*
X005908Y014310D01*
X005816Y014368D02*
X003735Y014368D01*
X003735Y014427D02*
X005757Y014427D01*
X005730Y014485D02*
X003735Y014485D01*
X003735Y014544D02*
X005706Y014544D01*
X005699Y014603D02*
X003735Y014603D01*
X003735Y014661D02*
X005699Y014661D01*
X005708Y014720D02*
X003735Y014720D01*
X003735Y014778D02*
X005732Y014778D01*
X005762Y014837D02*
X003735Y014837D01*
X003735Y014895D02*
X005540Y014895D01*
X005480Y014954D02*
X003735Y014954D01*
X003735Y015012D02*
X005432Y015012D01*
X005408Y015071D02*
X003735Y015071D01*
X003735Y015129D02*
X005387Y015129D01*
X005387Y015188D02*
X003735Y015188D01*
X003735Y015246D02*
X005387Y015246D01*
X005405Y015305D02*
X003735Y015305D01*
X003735Y015364D02*
X005429Y015364D01*
X005470Y015422D02*
X005473Y015422D01*
X005638Y015539D02*
X005663Y015539D01*
X005673Y015598D02*
X007923Y015598D01*
X007940Y015557D02*
X008038Y015459D01*
X008166Y015406D01*
X008305Y015406D01*
X008433Y015459D01*
X008531Y015557D01*
X008584Y015685D01*
X008584Y015824D01*
X008531Y015952D01*
X008433Y016050D01*
X008305Y016103D01*
X008166Y016103D01*
X008038Y016050D01*
X007940Y015952D01*
X007887Y015824D01*
X007887Y015685D01*
X007940Y015557D01*
X007957Y015539D02*
X005808Y015539D01*
X005940Y015481D02*
X008016Y015481D01*
X008126Y015422D02*
X005998Y015422D01*
X005697Y015656D02*
X007899Y015656D01*
X007887Y015715D02*
X005709Y015715D01*
X005709Y015773D02*
X007887Y015773D01*
X007890Y015832D02*
X005706Y015832D01*
X005681Y015890D02*
X007914Y015890D01*
X007939Y015949D02*
X005657Y015949D01*
X005600Y016008D02*
X007995Y016008D01*
X008077Y016066D02*
X005519Y016066D01*
X005202Y016066D02*
X004644Y016066D01*
X004683Y016050D02*
X004555Y016103D01*
X004416Y016103D01*
X004288Y016050D01*
X004190Y015952D01*
X004137Y015824D01*
X004137Y015685D01*
X004190Y015557D01*
X004288Y015459D01*
X004416Y015406D01*
X004555Y015406D01*
X004683Y015459D01*
X004781Y015557D01*
X004834Y015685D01*
X004834Y015824D01*
X004781Y015952D01*
X004683Y016050D01*
X004725Y016008D02*
X005120Y016008D01*
X005064Y015949D02*
X004782Y015949D01*
X004806Y015890D02*
X005039Y015890D01*
X005015Y015832D02*
X004831Y015832D01*
X004834Y015773D02*
X005012Y015773D01*
X005012Y015715D02*
X004834Y015715D01*
X004822Y015656D02*
X005024Y015656D01*
X005048Y015598D02*
X004798Y015598D01*
X004763Y015539D02*
X005082Y015539D01*
X005141Y015481D02*
X004705Y015481D01*
X004595Y015422D02*
X005251Y015422D01*
X004376Y015422D02*
X003735Y015422D01*
X003735Y015481D02*
X004266Y015481D01*
X004207Y015539D02*
X003735Y015539D01*
X003735Y015598D02*
X004173Y015598D01*
X004149Y015656D02*
X003735Y015656D01*
X003735Y015715D02*
X004137Y015715D01*
X004137Y015773D02*
X003735Y015773D01*
X003735Y015832D02*
X004140Y015832D01*
X004164Y015890D02*
X003735Y015890D01*
X003735Y015949D02*
X004189Y015949D01*
X004245Y016008D02*
X003735Y016008D01*
X003735Y016066D02*
X004327Y016066D01*
X003735Y016125D02*
X012363Y016125D01*
X012315Y016077D02*
X012262Y015949D01*
X012286Y016008D02*
X010850Y016008D01*
X010769Y016066D02*
X012310Y016066D01*
X012315Y016077D02*
X012413Y016175D01*
X012541Y016228D01*
X012680Y016228D01*
X012735Y016205D01*
X012735Y017386D01*
X012683Y017334D01*
X012555Y017281D01*
X012416Y017281D01*
X012288Y017334D01*
X012190Y017432D01*
X012137Y017560D01*
X012137Y017699D01*
X012190Y017827D01*
X012288Y017925D01*
X012416Y017978D01*
X012524Y017978D01*
X012565Y018077D01*
X012663Y018175D01*
X012735Y018205D01*
X012735Y018304D01*
X012663Y018334D01*
X012565Y018432D01*
X012512Y018560D01*
X012512Y018699D01*
X012565Y018827D01*
X012663Y018925D01*
X012735Y018955D01*
X012735Y022886D01*
X012690Y022932D01*
X012637Y023060D01*
X012637Y023199D01*
X012660Y023254D01*
X012560Y023254D01*
X012526Y023171D01*
X012388Y023033D01*
X012208Y022959D01*
X012013Y022959D01*
X011833Y023033D01*
X011695Y023171D01*
X011661Y023254D01*
X011560Y023254D01*
X011541Y023208D02*
X011680Y023208D01*
X011716Y023150D02*
X011505Y023150D01*
X011446Y023091D02*
X011775Y023091D01*
X011834Y023033D02*
X011387Y023033D01*
X011245Y022974D02*
X011975Y022974D01*
X012245Y022974D02*
X012672Y022974D01*
X012648Y023033D02*
X012387Y023033D01*
X012446Y023091D02*
X012637Y023091D01*
X012637Y023150D02*
X012505Y023150D01*
X012541Y023208D02*
X012641Y023208D01*
X012706Y022916D02*
X008897Y022916D01*
X008897Y022857D02*
X012735Y022857D01*
X012836Y022857D01*
X012762Y022916D02*
X012735Y022916D01*
X012735Y022799D02*
X015340Y022799D01*
X015306Y022857D02*
X013135Y022857D01*
X013208Y022916D02*
X015273Y022916D01*
X015239Y022974D02*
X013255Y022974D01*
X013280Y023033D02*
X015210Y023033D01*
X015194Y023091D02*
X013294Y023091D01*
X013294Y023150D02*
X015179Y023150D01*
X015163Y023208D02*
X013287Y023208D01*
X012735Y022799D02*
X008892Y022799D01*
X008868Y022740D02*
X012735Y022740D01*
X015387Y022740D01*
X015445Y022681D02*
X012735Y022681D01*
X008843Y022681D01*
X008785Y022623D02*
X012126Y022623D01*
X012052Y022564D02*
X008699Y022564D01*
X008397Y022564D02*
X005655Y022564D01*
X005717Y022623D02*
X008311Y022623D01*
X008253Y022681D02*
X005776Y022681D01*
X005834Y022740D02*
X008228Y022740D01*
X008204Y022799D02*
X005881Y022799D01*
X005914Y022857D02*
X007132Y022857D01*
X007018Y022916D02*
X005948Y022916D01*
X005982Y022974D02*
X006960Y022974D01*
X006924Y023033D02*
X006011Y023033D01*
X006026Y023091D02*
X006900Y023091D01*
X006887Y023150D02*
X006042Y023150D01*
X006058Y023208D02*
X006887Y023208D01*
X007339Y022857D02*
X008199Y022857D01*
X008199Y022916D02*
X007452Y022916D01*
X007511Y022974D02*
X008210Y022974D01*
X008234Y023033D02*
X007547Y023033D01*
X007571Y023091D02*
X008267Y023091D01*
X008325Y023150D02*
X007584Y023150D01*
X007584Y023208D02*
X008431Y023208D01*
X008665Y023208D02*
X008679Y023208D01*
X008886Y022974D02*
X008975Y022974D01*
X009245Y022974D02*
X009975Y022974D01*
X009834Y023033D02*
X009387Y023033D01*
X009446Y023091D02*
X009775Y023091D01*
X009716Y023150D02*
X009505Y023150D01*
X009541Y023208D02*
X009680Y023208D01*
X009704Y023735D02*
X009517Y023735D01*
X009458Y023794D02*
X009763Y023794D01*
X009821Y023852D02*
X009400Y023852D01*
X009275Y023911D02*
X009946Y023911D01*
X010275Y023911D02*
X010946Y023911D01*
X010821Y023852D02*
X010400Y023852D01*
X010458Y023794D02*
X010763Y023794D01*
X010704Y023735D02*
X010517Y023735D01*
X010541Y023208D02*
X010680Y023208D01*
X010716Y023150D02*
X010505Y023150D01*
X010446Y023091D02*
X010775Y023091D01*
X010834Y023033D02*
X010387Y023033D01*
X010245Y022974D02*
X010975Y022974D01*
X010156Y022202D02*
X010209Y022074D01*
X010209Y021935D01*
X010156Y021807D01*
X010058Y021709D01*
X009930Y021656D01*
X009791Y021656D01*
X009663Y021709D01*
X009565Y021807D01*
X009512Y021935D01*
X009512Y022074D01*
X009565Y022202D01*
X009663Y022300D01*
X009791Y022353D01*
X009930Y022353D01*
X010058Y022300D01*
X010156Y022202D01*
X010145Y022213D02*
X011963Y022213D01*
X011949Y022272D02*
X010086Y022272D01*
X009985Y022330D02*
X011949Y022330D01*
X011950Y022389D02*
X005275Y022389D01*
X005452Y022447D02*
X011974Y022447D01*
X011999Y022506D02*
X005554Y022506D01*
X004860Y021218D02*
X008142Y021218D01*
X008166Y021228D02*
X008038Y021175D01*
X007940Y021077D01*
X007887Y020949D01*
X007887Y020810D01*
X007940Y020682D01*
X008038Y020584D01*
X008166Y020531D01*
X008305Y020531D01*
X008433Y020584D01*
X008531Y020682D01*
X008584Y020810D01*
X008584Y020949D01*
X008531Y021077D01*
X008433Y021175D01*
X008305Y021228D01*
X008166Y021228D01*
X008022Y021159D02*
X004884Y021159D01*
X004908Y021101D02*
X007964Y021101D01*
X007925Y021042D02*
X004913Y021042D01*
X004913Y020984D02*
X007901Y020984D01*
X007887Y020925D02*
X004913Y020925D01*
X004891Y020867D02*
X007887Y020867D01*
X007887Y020808D02*
X004867Y020808D01*
X004835Y020750D02*
X007912Y020750D01*
X007936Y020691D02*
X004777Y020691D01*
X004705Y020632D02*
X007989Y020632D01*
X008061Y020574D02*
X003735Y020574D01*
X003735Y020632D02*
X004266Y020632D01*
X004194Y020691D02*
X003735Y020691D01*
X003735Y020750D02*
X004136Y020750D01*
X004104Y020808D02*
X003735Y020808D01*
X003735Y020867D02*
X004080Y020867D01*
X004058Y020925D02*
X003735Y020925D01*
X003735Y020984D02*
X004058Y020984D01*
X004058Y021042D02*
X003735Y021042D01*
X004003Y021101D02*
X004063Y021101D01*
X004277Y021394D02*
X004308Y021394D01*
X004288Y021452D02*
X012735Y021452D01*
X013497Y021452D01*
X013459Y021394D02*
X012735Y021394D01*
X004663Y021394D01*
X004759Y021335D02*
X012735Y021335D01*
X012735Y021276D02*
X004818Y021276D01*
X004288Y021511D02*
X012735Y021511D01*
X013555Y021511D01*
X013916Y021511D02*
X015677Y021511D01*
X015677Y021569D02*
X012735Y021569D01*
X004288Y021569D01*
X004272Y021628D02*
X012735Y021628D01*
X015677Y021628D01*
X015701Y021686D02*
X012735Y021686D01*
X010004Y021686D01*
X010094Y021745D02*
X012735Y021745D01*
X015371Y021745D01*
X015312Y021803D02*
X012735Y021803D01*
X010153Y021803D01*
X010179Y021862D02*
X012735Y021862D01*
X015273Y021862D01*
X015248Y021920D02*
X012735Y021920D01*
X010203Y021920D01*
X010209Y021979D02*
X012202Y021979D01*
X012084Y022038D02*
X010209Y022038D01*
X010200Y022096D02*
X012025Y022096D01*
X011988Y022155D02*
X010176Y022155D01*
X009736Y022330D02*
X003735Y022330D01*
X003735Y022272D02*
X009635Y022272D01*
X009576Y022213D02*
X003737Y022213D01*
X003761Y022155D02*
X009545Y022155D01*
X009521Y022096D02*
X003785Y022096D01*
X003788Y022038D02*
X009512Y022038D01*
X009512Y021979D02*
X003788Y021979D01*
X003973Y021920D02*
X009518Y021920D01*
X009542Y021862D02*
X004107Y021862D01*
X004166Y021803D02*
X009568Y021803D01*
X009627Y021745D02*
X004223Y021745D01*
X004248Y021686D02*
X009717Y021686D01*
X008570Y020984D02*
X012026Y020984D01*
X012024Y020978D02*
X011916Y020978D01*
X011788Y020925D01*
X011690Y020827D01*
X011637Y020699D01*
X011637Y020560D01*
X011690Y020432D01*
X011788Y020334D01*
X011916Y020281D01*
X012055Y020281D01*
X012183Y020334D01*
X012281Y020432D01*
X012322Y020531D01*
X012430Y020531D01*
X012558Y020584D01*
X012656Y020682D01*
X012709Y020810D01*
X012709Y020949D01*
X012656Y021077D01*
X012558Y021175D01*
X012430Y021228D01*
X012291Y021228D01*
X012163Y021175D01*
X012065Y021077D01*
X012024Y020978D01*
X012050Y021042D02*
X008545Y021042D01*
X008507Y021101D02*
X012089Y021101D01*
X012147Y021159D02*
X008449Y021159D01*
X008329Y021218D02*
X012267Y021218D01*
X012454Y021218D02*
X012735Y021218D01*
X012735Y021159D02*
X012574Y021159D01*
X012632Y021101D02*
X012735Y021101D01*
X012735Y021042D02*
X012670Y021042D01*
X012695Y020984D02*
X012735Y020984D01*
X012735Y020925D02*
X012709Y020925D01*
X012709Y020867D02*
X012735Y020867D01*
X012735Y020808D02*
X012708Y020808D01*
X012684Y020750D02*
X012735Y020750D01*
X012735Y020691D02*
X012660Y020691D01*
X012607Y020632D02*
X012735Y020632D01*
X012735Y020574D02*
X012534Y020574D01*
X012735Y020515D02*
X012316Y020515D01*
X012291Y020457D02*
X012735Y020457D01*
X012735Y020398D02*
X012248Y020398D01*
X012189Y020340D02*
X012735Y020340D01*
X012735Y020281D02*
X012056Y020281D01*
X011914Y020281D02*
X008550Y020281D01*
X008531Y020327D02*
X008433Y020425D01*
X008305Y020478D01*
X008166Y020478D01*
X008038Y020425D01*
X007940Y020327D01*
X007887Y020199D01*
X007887Y020060D01*
X007940Y019932D01*
X008038Y019834D01*
X008166Y019781D01*
X008305Y019781D01*
X008433Y019834D01*
X008531Y019932D01*
X008584Y020060D01*
X008584Y020199D01*
X008531Y020327D01*
X008518Y020340D02*
X011782Y020340D01*
X011723Y020398D02*
X008460Y020398D01*
X008356Y020457D02*
X011679Y020457D01*
X011655Y020515D02*
X003735Y020515D01*
X003735Y020457D02*
X008115Y020457D01*
X008011Y020398D02*
X003735Y020398D01*
X003735Y020340D02*
X007953Y020340D01*
X007921Y020281D02*
X003735Y020281D01*
X003735Y020223D02*
X007897Y020223D01*
X007887Y020164D02*
X003735Y020164D01*
X003735Y020106D02*
X007887Y020106D01*
X007892Y020047D02*
X003735Y020047D01*
X003735Y019989D02*
X007916Y019989D01*
X007942Y019930D02*
X003735Y019930D01*
X003735Y019871D02*
X008000Y019871D01*
X008088Y019813D02*
X003735Y019813D01*
X003735Y019754D02*
X012735Y019754D01*
X012735Y019696D02*
X011758Y019696D01*
X011808Y019675D02*
X011680Y019728D01*
X011541Y019728D01*
X011423Y019679D01*
X011305Y019728D01*
X011166Y019728D01*
X011048Y019679D01*
X010930Y019728D01*
X010791Y019728D01*
X010673Y019679D01*
X010555Y019728D01*
X010416Y019728D01*
X010288Y019675D01*
X010190Y019577D01*
X010137Y019449D01*
X010137Y019310D01*
X010186Y019192D01*
X010137Y019074D01*
X010137Y018935D01*
X003742Y018935D01*
X003735Y018876D02*
X010161Y018876D01*
X010185Y018818D02*
X003735Y018818D01*
X003735Y018759D02*
X010162Y018759D01*
X010186Y018817D02*
X010137Y018699D01*
X010137Y018560D01*
X010186Y018442D01*
X010137Y018324D01*
X010137Y018185D01*
X010190Y018057D01*
X010288Y017959D01*
X010416Y017906D01*
X010555Y017906D01*
X010673Y017955D01*
X010791Y017906D01*
X010930Y017906D01*
X011048Y017955D01*
X011166Y017906D01*
X011305Y017906D01*
X011423Y017955D01*
X011541Y017906D01*
X011680Y017906D01*
X011808Y017959D01*
X011906Y018057D01*
X011959Y018185D01*
X011959Y018324D01*
X011910Y018442D01*
X011959Y018560D01*
X011959Y018699D01*
X011910Y018817D01*
X011959Y018935D01*
X011959Y019074D01*
X011910Y019192D01*
X011959Y019310D01*
X011959Y019449D01*
X011906Y019577D01*
X011808Y019675D01*
X011846Y019637D02*
X012735Y019637D01*
X012735Y019579D02*
X011904Y019579D01*
X011930Y019520D02*
X012735Y019520D01*
X012735Y019462D02*
X011954Y019462D01*
X011959Y019403D02*
X012735Y019403D01*
X012735Y019345D02*
X011959Y019345D01*
X011949Y019286D02*
X012735Y019286D01*
X012735Y019227D02*
X011925Y019227D01*
X011920Y019169D02*
X012735Y019169D01*
X012735Y019110D02*
X011944Y019110D01*
X011959Y019052D02*
X012735Y019052D01*
X012735Y018993D02*
X011959Y018993D01*
X011959Y018935D02*
X012686Y018935D01*
X012614Y018876D02*
X011935Y018876D01*
X011910Y018818D02*
X012561Y018818D01*
X012537Y018759D02*
X011934Y018759D01*
X011958Y018701D02*
X012512Y018701D01*
X012512Y018642D02*
X011959Y018642D01*
X011959Y018583D02*
X012512Y018583D01*
X012526Y018525D02*
X011945Y018525D01*
X011920Y018466D02*
X012550Y018466D01*
X012589Y018408D02*
X011924Y018408D01*
X011949Y018349D02*
X012647Y018349D01*
X012735Y018291D02*
X011959Y018291D01*
X011959Y018232D02*
X012735Y018232D01*
X012662Y018174D02*
X011954Y018174D01*
X011930Y018115D02*
X012603Y018115D01*
X012556Y018057D02*
X011906Y018057D01*
X011847Y017998D02*
X012532Y017998D01*
X012323Y017939D02*
X011762Y017939D01*
X011459Y017939D02*
X011387Y017939D01*
X011084Y017939D02*
X011012Y017939D01*
X010709Y017939D02*
X010637Y017939D01*
X010334Y017939D02*
X008773Y017939D01*
X008808Y017925D02*
X008680Y017978D01*
X008584Y017978D01*
X008584Y018011D01*
X008555Y018082D01*
X008558Y018084D01*
X008656Y018182D01*
X008709Y018310D01*
X008709Y018449D01*
X008656Y018577D01*
X008558Y018675D01*
X008430Y018728D01*
X008291Y018728D01*
X008163Y018675D01*
X008065Y018577D01*
X008012Y018449D01*
X008012Y018310D01*
X008041Y018239D01*
X008038Y018237D01*
X007940Y018139D01*
X007887Y018011D01*
X007887Y017872D01*
X007940Y017744D01*
X008038Y017646D01*
X008166Y017593D01*
X008262Y017593D01*
X008262Y017560D01*
X008315Y017432D01*
X008413Y017334D01*
X008541Y017281D01*
X008680Y017281D01*
X008808Y017334D01*
X008906Y017432D01*
X008959Y017560D01*
X008959Y017699D01*
X008906Y017827D01*
X008808Y017925D01*
X008852Y017881D02*
X012244Y017881D01*
X012188Y017822D02*
X008908Y017822D01*
X008932Y017764D02*
X012164Y017764D01*
X012139Y017705D02*
X008956Y017705D01*
X008959Y017647D02*
X012137Y017647D01*
X012137Y017588D02*
X008959Y017588D01*
X008947Y017530D02*
X012149Y017530D01*
X012173Y017471D02*
X008922Y017471D01*
X008887Y017413D02*
X012209Y017413D01*
X012267Y017354D02*
X008828Y017354D01*
X008716Y017296D02*
X010283Y017296D01*
X010288Y017300D02*
X010190Y017202D01*
X010137Y017074D01*
X010137Y016935D01*
X010190Y016807D01*
X010288Y016709D01*
X010416Y016656D01*
X010555Y016656D01*
X010683Y016709D01*
X010781Y016807D01*
X010834Y016935D01*
X010834Y017074D01*
X010781Y017202D01*
X010683Y017300D01*
X010555Y017353D01*
X010416Y017353D01*
X010288Y017300D01*
X010225Y017237D02*
X003735Y017237D01*
X003735Y017296D02*
X007005Y017296D01*
X007041Y017281D02*
X007180Y017281D01*
X007308Y017334D01*
X007406Y017432D01*
X007459Y017560D01*
X007459Y017699D01*
X007406Y017827D01*
X007308Y017925D01*
X007180Y017978D01*
X007084Y017978D01*
X007084Y018011D01*
X007031Y018139D01*
X006933Y018237D01*
X006805Y018291D01*
X006701Y018291D01*
X008020Y018291D01*
X008012Y018349D02*
X006709Y018349D01*
X006709Y018310D02*
X006709Y018449D01*
X006656Y018577D01*
X006558Y018675D01*
X006430Y018728D01*
X006291Y018728D01*
X006163Y018675D01*
X006065Y018577D01*
X006012Y018449D01*
X006012Y018310D01*
X006065Y018182D01*
X006163Y018084D01*
X006291Y018031D01*
X006395Y018031D01*
X006387Y018011D01*
X006387Y017872D01*
X006440Y017744D01*
X006538Y017646D01*
X006666Y017593D01*
X006762Y017593D01*
X006762Y017560D01*
X006815Y017432D01*
X006913Y017334D01*
X007041Y017281D01*
X006892Y017354D02*
X003735Y017354D01*
X003735Y017413D02*
X006834Y017413D01*
X006798Y017471D02*
X003735Y017471D01*
X003735Y017530D02*
X006774Y017530D01*
X006762Y017588D02*
X003735Y017588D01*
X003735Y017647D02*
X006537Y017647D01*
X006479Y017705D02*
X003735Y017705D01*
X003735Y017764D02*
X006432Y017764D01*
X006407Y017822D02*
X003735Y017822D01*
X003735Y017881D02*
X006387Y017881D01*
X006387Y017939D02*
X003735Y017939D01*
X003735Y017998D02*
X006387Y017998D01*
X006228Y018057D02*
X003735Y018057D01*
X003735Y018115D02*
X006131Y018115D01*
X006073Y018174D02*
X003738Y018174D01*
X003762Y018232D02*
X006044Y018232D01*
X006020Y018291D02*
X003786Y018291D01*
X003788Y018349D02*
X006012Y018349D01*
X006012Y018408D02*
X003788Y018408D01*
X003787Y018466D02*
X006019Y018466D01*
X006043Y018525D02*
X003763Y018525D01*
X003739Y018583D02*
X006071Y018583D01*
X006130Y018642D02*
X003735Y018642D01*
X003735Y018701D02*
X006225Y018701D01*
X006496Y018701D02*
X008225Y018701D01*
X008130Y018642D02*
X006591Y018642D01*
X006649Y018583D02*
X008071Y018583D01*
X008043Y018525D02*
X006678Y018525D01*
X006702Y018466D02*
X008019Y018466D01*
X008012Y018408D02*
X006709Y018408D01*
X006709Y018310D02*
X006701Y018291D01*
X006938Y018232D02*
X008033Y018232D01*
X007974Y018174D02*
X006997Y018174D01*
X007041Y018115D02*
X007930Y018115D01*
X007905Y018057D02*
X007065Y018057D01*
X007084Y017998D02*
X007887Y017998D01*
X007887Y017939D02*
X007273Y017939D01*
X007352Y017881D02*
X007887Y017881D01*
X007907Y017822D02*
X007408Y017822D01*
X007432Y017764D02*
X007932Y017764D01*
X007979Y017705D02*
X007456Y017705D01*
X007459Y017647D02*
X008037Y017647D01*
X008262Y017588D02*
X007459Y017588D01*
X007447Y017530D02*
X008274Y017530D01*
X008298Y017471D02*
X007422Y017471D01*
X007387Y017413D02*
X008334Y017413D01*
X008392Y017354D02*
X007328Y017354D01*
X007216Y017296D02*
X008505Y017296D01*
X008584Y017998D02*
X010248Y017998D01*
X010190Y018057D02*
X008565Y018057D01*
X008589Y018115D02*
X010166Y018115D01*
X010141Y018174D02*
X008648Y018174D01*
X008677Y018232D02*
X010137Y018232D01*
X010137Y018291D02*
X008701Y018291D01*
X008709Y018349D02*
X010147Y018349D01*
X010172Y018408D02*
X008709Y018408D01*
X008702Y018466D02*
X010175Y018466D01*
X010151Y018525D02*
X008678Y018525D01*
X008649Y018583D02*
X010137Y018583D01*
X010137Y018642D02*
X008591Y018642D01*
X008496Y018701D02*
X010137Y018701D01*
X010186Y018817D02*
X010137Y018935D01*
X010137Y018993D02*
X003767Y018993D01*
X003788Y019052D02*
X010137Y019052D01*
X010152Y019110D02*
X003788Y019110D01*
X003788Y019169D02*
X010176Y019169D01*
X010171Y019227D02*
X003782Y019227D01*
X003758Y019286D02*
X010147Y019286D01*
X010137Y019345D02*
X003735Y019345D01*
X003735Y019403D02*
X010137Y019403D01*
X010142Y019462D02*
X003735Y019462D01*
X003735Y019520D02*
X010166Y019520D01*
X010192Y019579D02*
X003735Y019579D01*
X003735Y019637D02*
X010250Y019637D01*
X010338Y019696D02*
X003735Y019696D01*
X003735Y017178D02*
X010180Y017178D01*
X010156Y017120D02*
X003735Y017120D01*
X003735Y017061D02*
X010137Y017061D01*
X010137Y017003D02*
X003735Y017003D01*
X003735Y016944D02*
X010137Y016944D01*
X010157Y016886D02*
X003735Y016886D01*
X003735Y016827D02*
X010181Y016827D01*
X010228Y016769D02*
X003735Y016769D01*
X003735Y016710D02*
X010286Y016710D01*
X010684Y016710D02*
X011286Y016710D01*
X011288Y016709D02*
X011416Y016656D01*
X011555Y016656D01*
X011683Y016709D01*
X011781Y016807D01*
X011834Y016935D01*
X011834Y017074D01*
X011781Y017202D01*
X011683Y017300D01*
X011555Y017353D01*
X011416Y017353D01*
X011288Y017300D01*
X011190Y017202D01*
X011137Y017074D01*
X011137Y016935D01*
X011190Y016807D01*
X011288Y016709D01*
X011228Y016769D02*
X010743Y016769D01*
X010789Y016827D02*
X011181Y016827D01*
X011157Y016886D02*
X010814Y016886D01*
X010834Y016944D02*
X011137Y016944D01*
X011137Y017003D02*
X010834Y017003D01*
X010834Y017061D02*
X011137Y017061D01*
X011156Y017120D02*
X010815Y017120D01*
X010791Y017178D02*
X011180Y017178D01*
X011225Y017237D02*
X010746Y017237D01*
X010687Y017296D02*
X011283Y017296D01*
X011687Y017296D02*
X012380Y017296D01*
X012591Y017296D02*
X012735Y017296D01*
X012735Y017354D02*
X012703Y017354D01*
X012735Y017237D02*
X011746Y017237D01*
X011791Y017178D02*
X012735Y017178D01*
X012735Y017120D02*
X011815Y017120D01*
X011834Y017061D02*
X012735Y017061D01*
X012735Y017003D02*
X011834Y017003D01*
X011834Y016944D02*
X012735Y016944D01*
X012735Y016886D02*
X011814Y016886D01*
X011789Y016827D02*
X012735Y016827D01*
X012735Y016769D02*
X011743Y016769D01*
X011684Y016710D02*
X012735Y016710D01*
X012735Y016652D02*
X003735Y016652D01*
X003735Y016593D02*
X012735Y016593D01*
X012735Y016534D02*
X003735Y016534D01*
X003735Y016476D02*
X012735Y016476D01*
X014715Y016476D01*
X014761Y016417D02*
X012735Y016417D01*
X003735Y016417D01*
X003735Y016359D02*
X012735Y016359D01*
X014832Y016359D01*
X015139Y016359D02*
X015528Y016359D01*
X015472Y016300D02*
X012735Y016300D01*
X003735Y016300D01*
X003735Y016242D02*
X012735Y016242D01*
X015448Y016242D01*
X015427Y016183D02*
X012735Y016183D01*
X012433Y016183D02*
X003735Y016183D01*
X006454Y013666D02*
X007137Y013666D01*
X007147Y013724D02*
X006574Y013724D01*
X006632Y013783D02*
X007172Y013783D01*
X007204Y013841D02*
X006670Y013841D01*
X006695Y013900D02*
X007263Y013900D01*
X008345Y015422D02*
X010501Y015422D01*
X010391Y015481D02*
X008455Y015481D01*
X008513Y015539D02*
X010332Y015539D01*
X010298Y015598D02*
X008548Y015598D01*
X008572Y015656D02*
X010274Y015656D01*
X010262Y015715D02*
X008584Y015715D01*
X008584Y015773D02*
X010262Y015773D01*
X010265Y015832D02*
X008581Y015832D01*
X008556Y015890D02*
X010289Y015890D01*
X010314Y015949D02*
X008532Y015949D01*
X008475Y016008D02*
X010370Y016008D01*
X010452Y016066D02*
X008394Y016066D01*
X010570Y012788D02*
X012735Y012788D01*
X014689Y012788D01*
X014713Y012729D02*
X012735Y012729D01*
X010629Y012729D01*
X010669Y012671D02*
X012735Y012671D01*
X014757Y012671D01*
X015221Y013080D02*
X017723Y013080D01*
X017699Y013139D02*
X015162Y013139D01*
X015261Y013022D02*
X017781Y013022D01*
X017914Y012495D02*
X012735Y012495D01*
X010709Y012495D01*
X010709Y012436D02*
X012735Y012436D01*
X017856Y012436D01*
X017827Y012378D02*
X012735Y012378D01*
X010685Y012378D01*
X010661Y012319D02*
X012735Y012319D01*
X017803Y012319D01*
X017802Y012261D02*
X012735Y012261D01*
X010610Y012261D01*
X010542Y012202D02*
X012735Y012202D01*
X017802Y012202D01*
X018789Y010387D02*
X020110Y010387D01*
X020110Y010329D02*
X018847Y010329D01*
X018886Y010270D02*
X020110Y010270D01*
X020110Y010212D02*
X018910Y010212D01*
X018919Y010153D02*
X020110Y010153D01*
X020110Y010095D02*
X018919Y010095D01*
X018906Y010036D02*
X019984Y010036D01*
X019897Y009978D02*
X018882Y009978D01*
X018837Y009919D02*
X019844Y009919D01*
X019820Y009861D02*
X018768Y009861D01*
X020110Y011383D02*
X012735Y011383D01*
X010287Y011383D01*
X010808Y010095D02*
X007007Y010095D01*
X006983Y010036D02*
X010749Y010036D01*
X010693Y009978D02*
X006938Y009978D01*
X006880Y009919D02*
X010669Y009919D01*
X010645Y009861D02*
X006777Y009861D01*
X009579Y008748D02*
X010861Y008748D01*
X010929Y008807D02*
X009712Y008807D01*
X009770Y008865D02*
X012735Y008865D01*
X012985Y007504D02*
X012485Y007504D01*
X012735Y007226D02*
X020110Y007226D01*
X020110Y007168D02*
X012735Y007168D01*
X010940Y007168D01*
X010999Y007109D02*
X012735Y007109D01*
X020110Y007109D01*
X020110Y007050D02*
X012735Y007050D01*
X011042Y007050D01*
X011066Y006992D02*
X012735Y006992D01*
X020110Y006992D01*
X020110Y006933D02*
X012735Y006933D01*
X012801Y006875D02*
X020110Y006875D01*
X020110Y006816D02*
X012860Y006816D01*
X012891Y006758D02*
X020110Y006758D01*
X020110Y006699D02*
X012916Y006699D01*
X012919Y006641D02*
X020110Y006641D01*
X020110Y006582D02*
X012919Y006582D01*
X012901Y006524D02*
X020110Y006524D01*
X020110Y006465D02*
X012876Y006465D01*
X012824Y006406D02*
X020110Y006406D01*
X020110Y006348D02*
X012738Y006348D01*
X012735Y006289D02*
X020110Y006289D01*
X020110Y006231D02*
X012735Y006231D01*
X011330Y006231D01*
X011389Y006289D02*
X012520Y006289D01*
X012399Y006348D02*
X011423Y006348D01*
X011447Y006406D02*
X012340Y006406D01*
X012301Y006465D02*
X011459Y006465D01*
X011459Y006524D02*
X012277Y006524D01*
X012262Y006582D02*
X011456Y006582D01*
X011350Y006758D02*
X012286Y006758D01*
X012310Y006816D02*
X011269Y006816D01*
X011084Y006875D02*
X012363Y006875D01*
X012433Y006933D02*
X011084Y006933D01*
X010810Y007226D02*
X012735Y007226D01*
X012701Y006289D02*
X012735Y006289D01*
X012735Y002191D02*
X015463Y002191D01*
X015521Y002133D02*
X012735Y002133D01*
X005699Y002133D01*
X005758Y002191D02*
X012735Y002191D01*
X012735Y002074D02*
X015596Y002074D01*
X015698Y002016D02*
X012735Y002016D01*
X005523Y002016D01*
X005624Y002074D02*
X012735Y002074D01*
X012735Y001957D02*
X015799Y001957D01*
X016012Y001899D02*
X012735Y001899D01*
X005209Y001899D01*
X005422Y001957D02*
X012735Y001957D01*
X016429Y001899D02*
X020110Y001899D01*
X020110Y001957D02*
X016642Y001957D01*
X016743Y002016D02*
X020110Y002016D01*
X020110Y002074D02*
X016845Y002074D01*
X016920Y002133D02*
X020110Y002133D01*
X020110Y002191D02*
X016978Y002191D01*
X017037Y002250D02*
X020110Y002250D01*
X020110Y002308D02*
X017091Y002308D01*
X017125Y002367D02*
X020110Y002367D01*
X020110Y002426D02*
X017158Y002426D01*
X017192Y002484D02*
X020110Y002484D01*
X020110Y002543D02*
X017226Y002543D01*
X017242Y002601D02*
X020110Y002601D01*
X020110Y002660D02*
X017258Y002660D01*
X017273Y002718D02*
X020110Y002718D01*
X020110Y002777D02*
X017289Y002777D01*
X017300Y002835D02*
X020110Y002835D01*
X020110Y002894D02*
X017300Y002894D01*
X017300Y002952D02*
X020110Y002952D01*
X020110Y003011D02*
X017300Y003011D01*
X017300Y003069D02*
X020110Y003069D01*
X020110Y003128D02*
X017293Y003128D01*
X017278Y003187D02*
X020110Y003187D01*
X020110Y003245D02*
X017262Y003245D01*
X017246Y003304D02*
X020110Y003304D01*
X020110Y003362D02*
X017231Y003362D01*
X017201Y003421D02*
X020110Y003421D01*
X020110Y003479D02*
X017168Y003479D01*
X017134Y003538D02*
X020110Y003538D01*
X020110Y003596D02*
X017100Y003596D01*
X017053Y003655D02*
X020110Y003655D01*
X020110Y003713D02*
X016994Y003713D01*
X016936Y003772D02*
X020110Y003772D01*
X020110Y003831D02*
X016873Y003831D01*
X016771Y003889D02*
X020110Y003889D01*
X020110Y003948D02*
X016670Y003948D01*
X015677Y010739D02*
X014776Y010739D01*
X014840Y010797D02*
X015677Y010797D01*
X015693Y010856D02*
X014883Y010856D01*
X014907Y010914D02*
X015717Y010914D01*
X015767Y010973D02*
X014919Y010973D01*
X014919Y011031D02*
X015848Y011031D01*
X015532Y014720D02*
X020110Y014720D01*
X020110Y014778D02*
X015508Y014778D01*
X015465Y014837D02*
X020110Y014837D01*
X020110Y014895D02*
X015826Y014895D01*
X015934Y014954D02*
X020110Y014954D01*
X020110Y015012D02*
X015993Y015012D01*
X015645Y014895D02*
X015400Y014895D01*
X015529Y015422D02*
X012735Y015422D01*
X010720Y015422D01*
X010830Y015481D02*
X012735Y015481D01*
X015626Y015481D01*
X015624Y016417D02*
X015210Y016417D01*
X015256Y016476D02*
X015476Y016476D01*
X012735Y019813D02*
X008383Y019813D01*
X008471Y019871D02*
X012735Y019871D01*
X012735Y019930D02*
X008529Y019930D01*
X008554Y019989D02*
X012735Y019989D01*
X012735Y020047D02*
X008579Y020047D01*
X008584Y020106D02*
X012735Y020106D01*
X012735Y020164D02*
X008584Y020164D01*
X008574Y020223D02*
X012735Y020223D01*
X011788Y020925D02*
X008584Y020925D01*
X008584Y020867D02*
X011730Y020867D01*
X011682Y020808D02*
X008583Y020808D01*
X008559Y020750D02*
X011658Y020750D01*
X011637Y020691D02*
X008535Y020691D01*
X008482Y020632D02*
X011637Y020632D01*
X011637Y020574D02*
X008409Y020574D01*
X008704Y023735D02*
X007160Y023735D01*
X006037Y023735D01*
X006021Y023794D02*
X007160Y023794D01*
X008763Y023794D01*
X008821Y023852D02*
X007160Y023852D01*
X006005Y023852D01*
X005971Y023911D02*
X007160Y023911D01*
X008946Y023911D01*
X009506Y025316D02*
X007842Y025316D01*
X007783Y025374D02*
X009447Y025374D01*
X009404Y025433D02*
X007678Y025433D01*
X007443Y025433D02*
X007410Y025433D01*
X007410Y025492D02*
X009380Y025492D01*
X009362Y025550D02*
X007410Y025550D01*
X007410Y025609D02*
X009362Y025609D01*
X009362Y025667D02*
X007410Y025667D01*
X007410Y025726D02*
X009383Y025726D01*
X009407Y025784D02*
X007410Y025784D01*
X007410Y025843D02*
X009456Y025843D01*
X009516Y025901D02*
X007410Y025901D01*
X007410Y025960D02*
X009612Y025960D01*
X009612Y026018D02*
X007410Y026018D01*
X007410Y026077D02*
X009634Y026077D01*
X009658Y026136D02*
X007410Y026136D01*
X007410Y026194D02*
X009707Y026194D01*
X009769Y026253D02*
X007410Y026253D01*
X007160Y026253D02*
X005110Y026253D01*
X005110Y026311D02*
X007160Y026311D01*
X007160Y026370D02*
X005110Y026370D01*
X005110Y026428D02*
X007160Y026428D01*
X007160Y026487D02*
X005110Y026487D01*
X005110Y026545D02*
X007160Y026545D01*
X007160Y026604D02*
X005110Y026604D01*
X005110Y026662D02*
X007160Y026662D01*
X007160Y026721D02*
X005110Y026721D01*
X005110Y026780D02*
X007160Y026780D01*
X007160Y026838D02*
X005110Y026838D01*
X005110Y026897D02*
X007160Y026897D01*
X007160Y026955D02*
X005110Y026955D01*
X005110Y027014D02*
X007160Y027014D01*
X007160Y027072D02*
X005110Y027072D01*
X005110Y027131D02*
X007160Y027131D01*
X007160Y027189D02*
X005110Y027189D01*
X005110Y027248D02*
X007160Y027248D01*
X007160Y027306D02*
X005110Y027306D01*
X005110Y027365D02*
X007160Y027365D01*
X007160Y027424D02*
X005110Y027424D01*
X005110Y027482D02*
X007160Y027482D01*
X007160Y027541D02*
X005110Y027541D01*
X005110Y027599D02*
X007160Y027599D01*
X007160Y027658D02*
X005110Y027658D01*
X005110Y027716D02*
X007160Y027716D01*
X007160Y027775D02*
X005110Y027775D01*
X005110Y027833D02*
X007160Y027833D01*
X007160Y027892D02*
X005110Y027892D01*
X005110Y027950D02*
X007160Y027950D01*
X007160Y028009D02*
X005110Y028009D01*
X005110Y028067D02*
X007160Y028067D01*
X007160Y028126D02*
X005110Y028126D01*
X005110Y028185D02*
X007160Y028185D01*
X007160Y028243D02*
X005110Y028243D01*
X005110Y028302D02*
X007160Y028302D01*
X007160Y028360D02*
X005110Y028360D01*
X005110Y028419D02*
X007160Y028419D01*
X007160Y028477D02*
X005110Y028477D01*
X005110Y028536D02*
X007160Y028536D01*
X007160Y028594D02*
X005110Y028594D01*
X005110Y028653D02*
X007160Y028653D01*
X007160Y028711D02*
X005110Y028711D01*
X005110Y028770D02*
X007160Y028770D01*
X007160Y028829D02*
X005110Y028829D01*
X005110Y028887D02*
X007160Y028887D01*
X007160Y028946D02*
X005110Y028946D01*
X005110Y029004D02*
X007160Y029004D01*
X007160Y029063D02*
X005110Y029063D01*
X005110Y029121D02*
X007160Y029121D01*
X007160Y029180D02*
X005110Y029180D01*
X005110Y029238D02*
X007160Y029238D01*
X007160Y029297D02*
X005110Y029297D01*
X005110Y029355D02*
X007160Y029355D01*
X007160Y029414D02*
X005110Y029414D01*
X005110Y029473D02*
X007160Y029473D01*
X007160Y029531D02*
X005110Y029531D01*
X005110Y029590D02*
X007160Y029590D01*
X007160Y029648D02*
X005110Y029648D01*
X005110Y029707D02*
X007160Y029707D01*
X007160Y029765D02*
X005110Y029765D01*
X005110Y029824D02*
X007160Y029824D01*
X007160Y029882D02*
X005110Y029882D01*
X005110Y029941D02*
X007160Y029941D01*
X007160Y029999D02*
X005110Y029999D01*
X005110Y030058D02*
X007160Y030058D01*
X007160Y030116D02*
X005110Y030116D01*
X005110Y030175D02*
X007160Y030175D01*
X007160Y030234D02*
X005110Y030234D01*
X005110Y030292D02*
X007160Y030292D01*
X007160Y030351D02*
X005110Y030351D01*
X005110Y030409D02*
X007160Y030409D01*
X007160Y030468D02*
X005110Y030468D01*
X005110Y030526D02*
X007160Y030526D01*
X007160Y030585D02*
X005110Y030585D01*
X005110Y030643D02*
X018610Y030643D01*
X018610Y030585D02*
X014760Y030585D01*
X014760Y030526D02*
X018610Y030526D01*
X018610Y030468D02*
X014760Y030468D01*
X014760Y030409D02*
X018610Y030409D01*
X018610Y030351D02*
X014760Y030351D01*
X014760Y030292D02*
X018610Y030292D01*
X018610Y030234D02*
X014760Y030234D01*
X014760Y030175D02*
X018610Y030175D01*
X018610Y030116D02*
X014760Y030116D01*
X014760Y030058D02*
X018610Y030058D01*
X018610Y029999D02*
X014760Y029999D01*
X014760Y029941D02*
X018610Y029941D01*
X018610Y029882D02*
X014760Y029882D01*
X014760Y029824D02*
X018610Y029824D01*
X018610Y029765D02*
X014760Y029765D01*
X014760Y029707D02*
X018610Y029707D01*
X018610Y029648D02*
X014760Y029648D01*
X014760Y029590D02*
X018610Y029590D01*
X018610Y029531D02*
X014760Y029531D01*
X014760Y029473D02*
X018610Y029473D01*
X018610Y029414D02*
X014760Y029414D01*
X014760Y029355D02*
X018610Y029355D01*
X018610Y029297D02*
X014760Y029297D01*
X014760Y029238D02*
X018610Y029238D01*
X018610Y029180D02*
X014760Y029180D01*
X014760Y029121D02*
X018610Y029121D01*
X018610Y029063D02*
X014760Y029063D01*
X014760Y029004D02*
X018610Y029004D01*
X018610Y028946D02*
X014760Y028946D01*
X014760Y028887D02*
X018610Y028887D01*
X018610Y028829D02*
X014760Y028829D01*
X014760Y028770D02*
X018610Y028770D01*
X018610Y028711D02*
X014760Y028711D01*
X014760Y028653D02*
X018610Y028653D01*
X018610Y030702D02*
X005110Y030702D01*
X005110Y030760D02*
X018610Y030760D01*
X018610Y030819D02*
X005110Y030819D01*
X005110Y030878D02*
X018610Y030878D01*
X018610Y030936D02*
X005110Y030936D01*
X005110Y030995D02*
X018610Y030995D01*
X018610Y031053D02*
X005110Y031053D01*
X005110Y031112D02*
X018610Y031112D01*
X018610Y031170D02*
X005110Y031170D01*
X005110Y031229D02*
X018610Y031229D01*
X018610Y031287D02*
X005110Y031287D01*
X005110Y031346D02*
X018610Y031346D01*
X018610Y031404D02*
X005110Y031404D01*
X005110Y031463D02*
X018610Y031463D01*
X018610Y031522D02*
X005110Y031522D01*
X005110Y031580D02*
X018610Y031580D01*
X018610Y031639D02*
X005110Y031639D01*
X005110Y031697D02*
X018610Y031697D01*
X018610Y031756D02*
X005110Y031756D01*
X005110Y031814D02*
X018610Y031814D01*
X018610Y031873D02*
X005110Y031873D01*
X005110Y031931D02*
X018610Y031931D01*
X018610Y031990D02*
X005110Y031990D01*
X005110Y032048D02*
X018610Y032048D01*
X018610Y032107D02*
X005110Y032107D01*
X005110Y032166D02*
X018610Y032166D01*
X018610Y032224D02*
X005110Y032224D01*
X005110Y032283D02*
X018610Y032283D01*
X018610Y032341D02*
X005110Y032341D01*
X005110Y032400D02*
X018610Y032400D01*
X018610Y032458D02*
X005110Y032458D01*
X005110Y032517D02*
X018610Y032517D01*
X018610Y032575D02*
X005110Y032575D01*
X005110Y032634D02*
X018610Y032634D01*
X018610Y032692D02*
X005110Y032692D01*
X005110Y032751D02*
X018610Y032751D01*
X018610Y032809D02*
X005110Y032809D01*
X005110Y032868D02*
X018610Y032868D01*
X018610Y032927D02*
X005110Y032927D01*
X005110Y032985D02*
X018610Y032985D01*
X018610Y033044D02*
X005110Y033044D01*
X005110Y033102D02*
X018610Y033102D01*
X018610Y033161D02*
X005110Y033161D01*
X005110Y033219D02*
X018610Y033219D01*
X018610Y033278D02*
X005110Y033278D01*
X005110Y033336D02*
X018610Y033336D01*
X018610Y033395D02*
X005110Y033395D01*
X005110Y033453D02*
X018610Y033453D01*
X018610Y033512D02*
X005110Y033512D01*
X005110Y033571D02*
X018610Y033571D01*
X018610Y033629D02*
X005110Y033629D01*
X005110Y033688D02*
X018610Y033688D01*
X018610Y033746D02*
X005110Y033746D01*
X005110Y033805D02*
X018610Y033805D01*
X018610Y033863D02*
X005110Y033863D01*
X005110Y033922D02*
X018610Y033922D01*
X018610Y033980D02*
X005110Y033980D01*
X005110Y034039D02*
X018610Y034039D01*
X018610Y034097D02*
X005110Y034097D01*
X005110Y034156D02*
X018610Y034156D01*
X018610Y034215D02*
X005110Y034215D01*
X005110Y034273D02*
X018610Y034273D01*
X018610Y034332D02*
X005110Y034332D01*
X005110Y034390D02*
X018610Y034390D01*
X018610Y034449D02*
X005110Y034449D01*
X007410Y030351D02*
X011821Y030351D01*
X011903Y030292D02*
X007410Y030292D01*
X007410Y030234D02*
X014062Y030234D01*
X014062Y030292D02*
X012218Y030292D01*
X012300Y030351D02*
X014073Y030351D01*
X014066Y030175D02*
X007410Y030175D01*
X007410Y030116D02*
X014090Y030116D01*
X014114Y030058D02*
X007410Y030058D01*
X007410Y029999D02*
X014172Y029999D01*
X014256Y029941D02*
X008384Y029941D01*
X008355Y029953D02*
X008216Y029953D01*
X008088Y029900D01*
X007990Y029802D01*
X007937Y029674D01*
X007937Y029535D01*
X007990Y029407D01*
X008088Y029309D01*
X008216Y029256D01*
X008355Y029256D01*
X008483Y029309D01*
X008581Y029407D01*
X008634Y029535D01*
X008634Y029674D01*
X008581Y029802D01*
X008483Y029900D01*
X008355Y029953D01*
X008501Y029882D02*
X014495Y029882D01*
X014453Y029824D02*
X008559Y029824D01*
X008596Y029765D02*
X014429Y029765D01*
X014412Y029707D02*
X008620Y029707D01*
X008634Y029648D02*
X014412Y029648D01*
X014412Y029590D02*
X008634Y029590D01*
X008632Y029531D02*
X014434Y029531D01*
X014458Y029473D02*
X008608Y029473D01*
X008584Y029414D02*
X014449Y029414D01*
X014425Y029355D02*
X008530Y029355D01*
X008454Y029297D02*
X014412Y029297D01*
X014412Y029238D02*
X007410Y029238D01*
X007410Y029180D02*
X014335Y029180D01*
X014510Y024672D02*
X007410Y024672D01*
X007410Y024613D02*
X014510Y024613D01*
X014510Y024555D02*
X007410Y024555D01*
X007410Y024496D02*
X014510Y024496D01*
X014760Y024496D02*
X016018Y024496D01*
X015802Y024438D02*
X014760Y024438D01*
X014760Y024379D02*
X015701Y024379D01*
X015599Y024321D02*
X014760Y024321D01*
X014760Y024262D02*
X015523Y024262D01*
X015465Y024204D02*
X014760Y024204D01*
X007160Y024204D01*
X005756Y024204D01*
X005698Y024262D02*
X007160Y024262D01*
X007160Y024321D02*
X005622Y024321D01*
X005520Y024379D02*
X007160Y024379D01*
X007160Y024438D02*
X005419Y024438D01*
X005202Y024496D02*
X007160Y024496D01*
X007160Y024555D02*
X005110Y024555D01*
X005110Y024613D02*
X007160Y024613D01*
X007160Y024672D02*
X005110Y024672D01*
X005110Y024731D02*
X007160Y024731D01*
X007160Y024789D02*
X005110Y024789D01*
X005110Y024848D02*
X007160Y024848D01*
X007160Y024906D02*
X005110Y024906D01*
X005110Y024965D02*
X007160Y024965D01*
X007160Y025023D02*
X005110Y025023D01*
X005110Y025082D02*
X007160Y025082D01*
X007160Y025140D02*
X005110Y025140D01*
X005110Y025199D02*
X007160Y025199D01*
X007160Y025257D02*
X005110Y025257D01*
X005110Y025316D02*
X007160Y025316D01*
X007160Y025374D02*
X005110Y025374D01*
X005110Y025433D02*
X007160Y025433D01*
X007160Y025492D02*
X005110Y025492D01*
X005110Y025550D02*
X007160Y025550D01*
X007160Y025609D02*
X005110Y025609D01*
X005110Y025667D02*
X007160Y025667D01*
X007160Y025726D02*
X005110Y025726D01*
X005110Y025784D02*
X007160Y025784D01*
X007160Y025843D02*
X005110Y025843D01*
X005110Y025901D02*
X007160Y025901D01*
X007160Y025960D02*
X005110Y025960D01*
X005110Y026018D02*
X007160Y026018D01*
X007160Y026077D02*
X005110Y026077D01*
X005110Y026136D02*
X007160Y026136D01*
X007160Y026194D02*
X005110Y026194D01*
X005815Y024145D02*
X007160Y024145D01*
X014760Y024145D01*
X015406Y024145D01*
X015351Y024087D02*
X014760Y024087D01*
X007160Y024087D01*
X005869Y024087D01*
X005903Y024028D02*
X007160Y024028D01*
X014760Y024028D01*
X015318Y024028D01*
X015284Y023969D02*
X014760Y023969D01*
X007160Y023969D01*
X005937Y023969D01*
X004725Y022389D02*
X003735Y022389D01*
X003735Y022447D02*
X004548Y022447D01*
X004447Y022506D02*
X003735Y022506D01*
X003735Y022564D02*
X004345Y022564D01*
X004283Y022623D02*
X003735Y022623D01*
X003735Y022681D02*
X004225Y022681D01*
X004166Y022740D02*
X003735Y022740D01*
X003735Y022799D02*
X004120Y022799D01*
X004086Y022857D02*
X003735Y022857D01*
X003735Y022916D02*
X004052Y022916D01*
X004018Y022974D02*
X003735Y022974D01*
X003735Y023033D02*
X003990Y023033D01*
X003974Y023091D02*
X003735Y023091D01*
X003735Y023150D02*
X003958Y023150D01*
X003943Y023208D02*
X003735Y023208D01*
X007410Y029297D02*
X008116Y029297D01*
X008041Y029355D02*
X007410Y029355D01*
X007410Y029414D02*
X007987Y029414D01*
X007962Y029473D02*
X007410Y029473D01*
X007410Y029531D02*
X007938Y029531D01*
X007937Y029590D02*
X007410Y029590D01*
X007410Y029648D02*
X007937Y029648D01*
X007950Y029707D02*
X007410Y029707D01*
X007410Y029765D02*
X007975Y029765D01*
X008012Y029824D02*
X007410Y029824D01*
X007410Y029882D02*
X008070Y029882D01*
X008187Y029941D02*
X007410Y029941D01*
X010346Y027189D02*
X010575Y027189D01*
X010746Y027189D02*
X010975Y027189D01*
X012275Y023911D02*
X014760Y023911D01*
X015250Y023911D01*
X015216Y023852D02*
X014760Y023852D01*
X012400Y023852D01*
X012458Y023794D02*
X014760Y023794D01*
X015200Y023794D01*
X015184Y023735D02*
X014760Y023735D01*
X012517Y023735D01*
X012647Y022272D02*
X012735Y022272D01*
X015387Y022272D01*
X015320Y022213D02*
X012735Y022213D01*
X012632Y022213D01*
X012608Y022155D02*
X012735Y022155D01*
X015276Y022155D01*
X015252Y022096D02*
X012735Y022096D01*
X012570Y022096D01*
X012512Y022038D02*
X012735Y022038D01*
X015239Y022038D01*
X015239Y021979D02*
X012735Y021979D01*
X012393Y021979D01*
X013974Y021452D02*
X015699Y021452D01*
X015723Y021394D02*
X014012Y021394D01*
X015725Y021745D02*
X015727Y021745D01*
X015784Y021803D02*
X015785Y021803D01*
X015823Y021862D02*
X015891Y021862D01*
X011463Y019696D02*
X011383Y019696D01*
X011088Y019696D02*
X011008Y019696D01*
X010713Y019696D02*
X010633Y019696D01*
X004732Y004006D02*
X003735Y004006D01*
X003735Y003948D02*
X004551Y003948D01*
X004450Y003889D02*
X003735Y003889D01*
X003735Y003831D02*
X004348Y003831D01*
X004285Y003772D02*
X003735Y003772D01*
X003735Y003713D02*
X004226Y003713D01*
X004168Y003655D02*
X003735Y003655D01*
X003735Y003596D02*
X004121Y003596D01*
X004087Y003538D02*
X003735Y003538D01*
X003735Y003479D02*
X004053Y003479D01*
X004019Y003421D02*
X003735Y003421D01*
X003735Y003362D02*
X003990Y003362D01*
X003974Y003304D02*
X003735Y003304D01*
X003735Y003245D02*
X003959Y003245D01*
X003943Y003187D02*
X003735Y003187D01*
X003735Y003128D02*
X003927Y003128D01*
X003921Y003069D02*
X003735Y003069D01*
X003735Y003011D02*
X003921Y003011D01*
X003921Y002952D02*
X003735Y002952D01*
X003735Y002894D02*
X003921Y002894D01*
X003921Y002835D02*
X003735Y002835D01*
X003735Y002777D02*
X003932Y002777D01*
X003947Y002718D02*
X003735Y002718D01*
X003735Y002660D02*
X003963Y002660D01*
X003979Y002601D02*
X003735Y002601D01*
X003735Y002543D02*
X003995Y002543D01*
X004029Y002484D02*
X003735Y002484D01*
X003735Y002426D02*
X004062Y002426D01*
X004096Y002367D02*
X003735Y002367D01*
X003735Y002308D02*
X004130Y002308D01*
X004184Y002250D02*
X003735Y002250D01*
X003735Y002191D02*
X004242Y002191D01*
X004301Y002133D02*
X003735Y002133D01*
X003735Y002074D02*
X004376Y002074D01*
X004477Y002016D02*
X003735Y002016D01*
X003735Y001957D02*
X004579Y001957D01*
X004792Y001899D02*
X003735Y001899D01*
D13*
X010260Y027554D03*
X010260Y027954D03*
X010260Y028354D03*
X010660Y028354D03*
X011060Y028354D03*
X011060Y027954D03*
X010660Y027954D03*
X010660Y027554D03*
X011060Y027554D03*
D14*
X014485Y024004D02*
X014985Y024004D01*
D15*
X006610Y010254D03*
X005110Y007004D03*
X004485Y007004D03*
X003360Y018379D03*
X003360Y019129D03*
X004485Y021004D03*
X003860Y021504D03*
X003360Y022004D03*
X015985Y007254D03*
D16*
X014985Y022879D02*
X014610Y022879D01*
D17*
X009485Y009129D03*
X009485Y007629D03*
M02*
