G75*
G70*
%OFA0B0*%
%FSLAX24Y24*%
%IPPOS*%
%LPD*%
%AMOC8*
5,1,8,0,0,1.08239X$1,22.5*
%
%ADD10R,0.0118X0.0336*%
%ADD11R,0.0336X0.0118*%
%ADD12R,0.1249X0.1249*%
%ADD13C,0.0077*%
%ADD14C,0.0071*%
%ADD15R,0.0512X0.0512*%
%ADD16R,0.0866X0.0335*%
%ADD17R,0.0413X0.0394*%
%ADD18R,0.1575X0.1575*%
%ADD19C,0.0110*%
%ADD20R,0.0394X0.0433*%
%ADD21R,0.0433X0.0394*%
%ADD22R,0.0354X0.0276*%
%ADD23R,0.0276X0.0354*%
%ADD24R,0.0512X0.0591*%
%ADD25C,0.0600*%
%ADD26R,0.0354X0.0138*%
%ADD27R,0.0551X0.0394*%
%ADD28C,0.0600*%
%ADD29OC8,0.0600*%
%ADD30R,0.0138X0.0472*%
%ADD31R,0.0591X0.0787*%
%ADD32R,0.1496X0.0787*%
%ADD33R,0.0591X0.0512*%
%ADD34C,0.0060*%
%ADD35C,0.0317*%
%ADD36C,0.0360*%
%ADD37C,0.0100*%
%ADD38C,0.0160*%
%ADD39C,0.0475*%
%ADD40C,0.0500*%
%ADD41C,0.0120*%
%ADD42C,0.0320*%
%ADD43C,0.0180*%
%ADD44C,0.0140*%
%ADD45C,0.0080*%
%ADD46C,0.0240*%
%ADD47C,0.0396*%
%ADD48C,0.0560*%
D10*
X009971Y026979D03*
X010168Y026979D03*
X010365Y026979D03*
X010562Y026979D03*
X010759Y026979D03*
X010956Y026979D03*
X011153Y026979D03*
X011349Y026979D03*
X011349Y028930D03*
X011153Y028930D03*
X010956Y028930D03*
X010759Y028930D03*
X010562Y028930D03*
X010365Y028930D03*
X010168Y028930D03*
X009971Y028930D03*
D11*
X009685Y028643D03*
X009685Y028446D03*
X009685Y028250D03*
X009685Y028053D03*
X009685Y027856D03*
X009685Y027659D03*
X009685Y027462D03*
X009685Y027265D03*
X011636Y027265D03*
X011636Y027462D03*
X011636Y027659D03*
X011636Y027856D03*
X011636Y028053D03*
X011636Y028250D03*
X011636Y028446D03*
X011636Y028643D03*
D12*
X010660Y027954D03*
D13*
X010620Y026571D02*
X010620Y026391D01*
X010620Y026571D02*
X010800Y026571D01*
X010800Y026391D01*
X010620Y026391D01*
X010620Y026467D02*
X010800Y026467D01*
X010800Y026543D02*
X010620Y026543D01*
X010620Y026217D02*
X010620Y026037D01*
X010620Y026217D02*
X010800Y026217D01*
X010800Y026037D01*
X010620Y026037D01*
X010620Y026113D02*
X010800Y026113D01*
X010800Y026189D02*
X010620Y026189D01*
X011143Y026114D02*
X011323Y026114D01*
X011143Y026114D02*
X011143Y026294D01*
X011323Y026294D01*
X011323Y026114D01*
X011323Y026190D02*
X011143Y026190D01*
X011143Y026266D02*
X011323Y026266D01*
X011498Y026114D02*
X011678Y026114D01*
X011498Y026114D02*
X011498Y026294D01*
X011678Y026294D01*
X011678Y026114D01*
X011678Y026190D02*
X011498Y026190D01*
X011498Y026266D02*
X011678Y026266D01*
X012543Y027264D02*
X012723Y027264D01*
X012543Y027264D02*
X012543Y027444D01*
X012723Y027444D01*
X012723Y027264D01*
X012723Y027340D02*
X012543Y027340D01*
X012543Y027416D02*
X012723Y027416D01*
X012898Y027264D02*
X013078Y027264D01*
X012898Y027264D02*
X012898Y027444D01*
X013078Y027444D01*
X013078Y027264D01*
X013078Y027340D02*
X012898Y027340D01*
X012898Y027416D02*
X013078Y027416D01*
X012878Y027764D02*
X012698Y027764D01*
X012698Y027944D01*
X012878Y027944D01*
X012878Y027764D01*
X012878Y027840D02*
X012698Y027840D01*
X012698Y027916D02*
X012878Y027916D01*
X012878Y028264D02*
X012698Y028264D01*
X012698Y028444D01*
X012878Y028444D01*
X012878Y028264D01*
X012878Y028340D02*
X012698Y028340D01*
X012698Y028416D02*
X012878Y028416D01*
X012778Y028764D02*
X012598Y028764D01*
X012598Y028944D01*
X012778Y028944D01*
X012778Y028764D01*
X012778Y028840D02*
X012598Y028840D01*
X012598Y028916D02*
X012778Y028916D01*
X012423Y028764D02*
X012243Y028764D01*
X012243Y028944D01*
X012423Y028944D01*
X012423Y028764D01*
X012423Y028840D02*
X012243Y028840D01*
X012243Y028916D02*
X012423Y028916D01*
X012343Y028264D02*
X012523Y028264D01*
X012343Y028264D02*
X012343Y028444D01*
X012523Y028444D01*
X012523Y028264D01*
X012523Y028340D02*
X012343Y028340D01*
X012343Y028416D02*
X012523Y028416D01*
X012523Y027764D02*
X012343Y027764D01*
X012343Y027944D01*
X012523Y027944D01*
X012523Y027764D01*
X012523Y027840D02*
X012343Y027840D01*
X012343Y027916D02*
X012523Y027916D01*
X013143Y029164D02*
X013323Y029164D01*
X013143Y029164D02*
X013143Y029344D01*
X013323Y029344D01*
X013323Y029164D01*
X013323Y029240D02*
X013143Y029240D01*
X013143Y029316D02*
X013323Y029316D01*
X013498Y029164D02*
X013678Y029164D01*
X013498Y029164D02*
X013498Y029344D01*
X013678Y029344D01*
X013678Y029164D01*
X013678Y029240D02*
X013498Y029240D01*
X013498Y029316D02*
X013678Y029316D01*
X013678Y029744D02*
X013498Y029744D01*
X013678Y029744D02*
X013678Y029564D01*
X013498Y029564D01*
X013498Y029744D01*
X013498Y029640D02*
X013678Y029640D01*
X013678Y029716D02*
X013498Y029716D01*
X013323Y029744D02*
X013143Y029744D01*
X013323Y029744D02*
X013323Y029564D01*
X013143Y029564D01*
X013143Y029744D01*
X013143Y029640D02*
X013323Y029640D01*
X013323Y029716D02*
X013143Y029716D01*
X012778Y029664D02*
X012598Y029664D01*
X012598Y029844D01*
X012778Y029844D01*
X012778Y029664D01*
X012778Y029740D02*
X012598Y029740D01*
X012598Y029816D02*
X012778Y029816D01*
X013240Y030087D02*
X013240Y030267D01*
X013240Y030087D02*
X013060Y030087D01*
X013060Y030267D01*
X013240Y030267D01*
X013240Y030163D02*
X013060Y030163D01*
X013060Y030239D02*
X013240Y030239D01*
X013240Y030441D02*
X013240Y030621D01*
X013240Y030441D02*
X013060Y030441D01*
X013060Y030621D01*
X013240Y030621D01*
X013240Y030517D02*
X013060Y030517D01*
X013060Y030593D02*
X013240Y030593D01*
X012778Y030864D02*
X012598Y030864D01*
X012598Y031044D01*
X012778Y031044D01*
X012778Y030864D01*
X012778Y030940D02*
X012598Y030940D01*
X012598Y031016D02*
X012778Y031016D01*
X012423Y030864D02*
X012243Y030864D01*
X012243Y031044D01*
X012423Y031044D01*
X012423Y030864D01*
X012423Y030940D02*
X012243Y030940D01*
X012243Y031016D02*
X012423Y031016D01*
X012643Y032164D02*
X012823Y032164D01*
X012643Y032164D02*
X012643Y032344D01*
X012823Y032344D01*
X012823Y032164D01*
X012823Y032240D02*
X012643Y032240D01*
X012643Y032316D02*
X012823Y032316D01*
X012998Y032164D02*
X013178Y032164D01*
X012998Y032164D02*
X012998Y032344D01*
X013178Y032344D01*
X013178Y032164D01*
X013178Y032240D02*
X012998Y032240D01*
X012998Y032316D02*
X013178Y032316D01*
X012378Y032844D02*
X012198Y032844D01*
X012378Y032844D02*
X012378Y032664D01*
X012198Y032664D01*
X012198Y032844D01*
X012198Y032740D02*
X012378Y032740D01*
X012378Y032816D02*
X012198Y032816D01*
X012023Y032844D02*
X011843Y032844D01*
X012023Y032844D02*
X012023Y032664D01*
X011843Y032664D01*
X011843Y032844D01*
X011843Y032740D02*
X012023Y032740D01*
X012023Y032816D02*
X011843Y032816D01*
X011178Y032164D02*
X010998Y032164D01*
X010998Y032344D01*
X011178Y032344D01*
X011178Y032164D01*
X011178Y032240D02*
X010998Y032240D01*
X010998Y032316D02*
X011178Y032316D01*
X010823Y032164D02*
X010643Y032164D01*
X010643Y032344D01*
X010823Y032344D01*
X010823Y032164D01*
X010823Y032240D02*
X010643Y032240D01*
X010643Y032316D02*
X010823Y032316D01*
X010750Y030621D02*
X010750Y030441D01*
X010570Y030441D01*
X010570Y030621D01*
X010750Y030621D01*
X010750Y030517D02*
X010570Y030517D01*
X010570Y030593D02*
X010750Y030593D01*
X010750Y030267D02*
X010750Y030087D01*
X010570Y030087D01*
X010570Y030267D01*
X010750Y030267D01*
X010750Y030163D02*
X010570Y030163D01*
X010570Y030239D02*
X010750Y030239D01*
X010350Y030191D02*
X010350Y030371D01*
X010350Y030191D02*
X010170Y030191D01*
X010170Y030371D01*
X010350Y030371D01*
X010350Y030267D02*
X010170Y030267D01*
X010170Y030343D02*
X010350Y030343D01*
X010350Y030017D02*
X010350Y029837D01*
X010170Y029837D01*
X010170Y030017D01*
X010350Y030017D01*
X010350Y029913D02*
X010170Y029913D01*
X010170Y029989D02*
X010350Y029989D01*
X009950Y030017D02*
X009950Y029837D01*
X009770Y029837D01*
X009770Y030017D01*
X009950Y030017D01*
X009950Y029913D02*
X009770Y029913D01*
X009770Y029989D02*
X009950Y029989D01*
X009950Y030191D02*
X009950Y030371D01*
X009950Y030191D02*
X009770Y030191D01*
X009770Y030371D01*
X009950Y030371D01*
X009950Y030267D02*
X009770Y030267D01*
X009770Y030343D02*
X009950Y030343D01*
X009420Y029871D02*
X009420Y029691D01*
X009420Y029871D02*
X009600Y029871D01*
X009600Y029691D01*
X009420Y029691D01*
X009420Y029767D02*
X009600Y029767D01*
X009600Y029843D02*
X009420Y029843D01*
X009420Y029517D02*
X009420Y029337D01*
X009420Y029517D02*
X009600Y029517D01*
X009600Y029337D01*
X009420Y029337D01*
X009420Y029413D02*
X009600Y029413D01*
X009600Y029489D02*
X009420Y029489D01*
X009078Y029344D02*
X008898Y029344D01*
X009078Y029344D02*
X009078Y029164D01*
X008898Y029164D01*
X008898Y029344D01*
X008898Y029240D02*
X009078Y029240D01*
X009078Y029316D02*
X008898Y029316D01*
X008723Y029344D02*
X008543Y029344D01*
X008723Y029344D02*
X008723Y029164D01*
X008543Y029164D01*
X008543Y029344D01*
X008543Y029240D02*
X008723Y029240D01*
X008723Y029316D02*
X008543Y029316D01*
X008623Y028744D02*
X008443Y028744D01*
X008623Y028744D02*
X008623Y028564D01*
X008443Y028564D01*
X008443Y028744D01*
X008443Y028640D02*
X008623Y028640D01*
X008623Y028716D02*
X008443Y028716D01*
X008798Y028744D02*
X008978Y028744D01*
X008978Y028564D01*
X008798Y028564D01*
X008798Y028744D01*
X008798Y028640D02*
X008978Y028640D01*
X008978Y028716D02*
X008798Y028716D01*
X008878Y028244D02*
X008698Y028244D01*
X008878Y028244D02*
X008878Y028064D01*
X008698Y028064D01*
X008698Y028244D01*
X008698Y028140D02*
X008878Y028140D01*
X008878Y028216D02*
X008698Y028216D01*
X008523Y028244D02*
X008343Y028244D01*
X008523Y028244D02*
X008523Y028064D01*
X008343Y028064D01*
X008343Y028244D01*
X008343Y028140D02*
X008523Y028140D01*
X008523Y028216D02*
X008343Y028216D01*
X008398Y027694D02*
X008218Y027694D01*
X008398Y027694D02*
X008398Y027514D01*
X008218Y027514D01*
X008218Y027694D01*
X008218Y027590D02*
X008398Y027590D01*
X008398Y027666D02*
X008218Y027666D01*
X008128Y027344D02*
X007948Y027344D01*
X008128Y027344D02*
X008128Y027164D01*
X007948Y027164D01*
X007948Y027344D01*
X007948Y027240D02*
X008128Y027240D01*
X008128Y027316D02*
X007948Y027316D01*
X007773Y027344D02*
X007593Y027344D01*
X007773Y027344D02*
X007773Y027164D01*
X007593Y027164D01*
X007593Y027344D01*
X007593Y027240D02*
X007773Y027240D01*
X007773Y027316D02*
X007593Y027316D01*
X007220Y026421D02*
X007220Y026241D01*
X007220Y026421D02*
X007400Y026421D01*
X007400Y026241D01*
X007220Y026241D01*
X007220Y026317D02*
X007400Y026317D01*
X007400Y026393D02*
X007220Y026393D01*
X007220Y026067D02*
X007220Y025887D01*
X007220Y026067D02*
X007400Y026067D01*
X007400Y025887D01*
X007220Y025887D01*
X007220Y025963D02*
X007400Y025963D01*
X007400Y026039D02*
X007220Y026039D01*
X007943Y025044D02*
X008123Y025044D01*
X008123Y024864D01*
X007943Y024864D01*
X007943Y025044D01*
X007943Y024940D02*
X008123Y024940D01*
X008123Y025016D02*
X007943Y025016D01*
X008298Y025044D02*
X008478Y025044D01*
X008478Y024864D01*
X008298Y024864D01*
X008298Y025044D01*
X008298Y024940D02*
X008478Y024940D01*
X008478Y025016D02*
X008298Y025016D01*
X008943Y025464D02*
X009123Y025464D01*
X008943Y025464D02*
X008943Y025644D01*
X009123Y025644D01*
X009123Y025464D01*
X009123Y025540D02*
X008943Y025540D01*
X008943Y025616D02*
X009123Y025616D01*
X009298Y025464D02*
X009478Y025464D01*
X009298Y025464D02*
X009298Y025644D01*
X009478Y025644D01*
X009478Y025464D01*
X009478Y025540D02*
X009298Y025540D01*
X009298Y025616D02*
X009478Y025616D01*
X009470Y025887D02*
X009470Y026067D01*
X009650Y026067D01*
X009650Y025887D01*
X009470Y025887D01*
X009470Y025963D02*
X009650Y025963D01*
X009650Y026039D02*
X009470Y026039D01*
X009470Y026241D02*
X009470Y026421D01*
X009650Y026421D01*
X009650Y026241D01*
X009470Y026241D01*
X009470Y026317D02*
X009650Y026317D01*
X009650Y026393D02*
X009470Y026393D01*
X008753Y027694D02*
X008573Y027694D01*
X008753Y027694D02*
X008753Y027514D01*
X008573Y027514D01*
X008573Y027694D01*
X008573Y027590D02*
X008753Y027590D01*
X008753Y027666D02*
X008573Y027666D01*
X011450Y030087D02*
X011450Y030267D01*
X011450Y030087D02*
X011270Y030087D01*
X011270Y030267D01*
X011450Y030267D01*
X011450Y030163D02*
X011270Y030163D01*
X011270Y030239D02*
X011450Y030239D01*
X011450Y030441D02*
X011450Y030621D01*
X011450Y030441D02*
X011270Y030441D01*
X011270Y030621D01*
X011450Y030621D01*
X011450Y030517D02*
X011270Y030517D01*
X011270Y030593D02*
X011450Y030593D01*
X012243Y029664D02*
X012423Y029664D01*
X012243Y029664D02*
X012243Y029844D01*
X012423Y029844D01*
X012423Y029664D01*
X012423Y029740D02*
X012243Y029740D01*
X012243Y029816D02*
X012423Y029816D01*
X013943Y029564D02*
X014123Y029564D01*
X013943Y029564D02*
X013943Y029744D01*
X014123Y029744D01*
X014123Y029564D01*
X014123Y029640D02*
X013943Y029640D01*
X013943Y029716D02*
X014123Y029716D01*
X014298Y029564D02*
X014478Y029564D01*
X014298Y029564D02*
X014298Y029744D01*
X014478Y029744D01*
X014478Y029564D01*
X014478Y029640D02*
X014298Y029640D01*
X014298Y029716D02*
X014478Y029716D01*
X014478Y029164D02*
X014298Y029164D01*
X014298Y029344D01*
X014478Y029344D01*
X014478Y029164D01*
X014478Y029240D02*
X014298Y029240D01*
X014298Y029316D02*
X014478Y029316D01*
X014123Y029164D02*
X013943Y029164D01*
X013943Y029344D01*
X014123Y029344D01*
X014123Y029164D01*
X014123Y029240D02*
X013943Y029240D01*
X013943Y029316D02*
X014123Y029316D01*
X012013Y022021D02*
X012013Y021841D01*
X011833Y021841D01*
X011833Y022021D01*
X012013Y022021D01*
X012013Y021917D02*
X011833Y021917D01*
X011833Y021993D02*
X012013Y021993D01*
X012013Y021667D02*
X012013Y021487D01*
X011833Y021487D01*
X011833Y021667D01*
X012013Y021667D01*
X012013Y021563D02*
X011833Y021563D01*
X011833Y021639D02*
X012013Y021639D01*
X013200Y021271D02*
X013200Y021091D01*
X013020Y021091D01*
X013020Y021271D01*
X013200Y021271D01*
X013200Y021167D02*
X013020Y021167D01*
X013020Y021243D02*
X013200Y021243D01*
X013200Y020917D02*
X013200Y020737D01*
X013020Y020737D01*
X013020Y020917D01*
X013200Y020917D01*
X013200Y020813D02*
X013020Y020813D01*
X013020Y020889D02*
X013200Y020889D01*
X013468Y020789D02*
X013648Y020789D01*
X013468Y020789D02*
X013468Y020969D01*
X013648Y020969D01*
X013648Y020789D01*
X013648Y020865D02*
X013468Y020865D01*
X013468Y020941D02*
X013648Y020941D01*
X013823Y020789D02*
X014003Y020789D01*
X013823Y020789D02*
X013823Y020969D01*
X014003Y020969D01*
X014003Y020789D01*
X014003Y020865D02*
X013823Y020865D01*
X013823Y020941D02*
X014003Y020941D01*
X014825Y021021D02*
X014825Y020841D01*
X014645Y020841D01*
X014645Y021021D01*
X014825Y021021D01*
X014825Y020917D02*
X014645Y020917D01*
X014645Y020993D02*
X014825Y020993D01*
X014825Y020667D02*
X014825Y020487D01*
X014645Y020487D01*
X014645Y020667D01*
X014825Y020667D01*
X014825Y020563D02*
X014645Y020563D01*
X014645Y020639D02*
X014825Y020639D01*
X016968Y019469D02*
X017148Y019469D01*
X017148Y019289D01*
X016968Y019289D01*
X016968Y019469D01*
X016968Y019365D02*
X017148Y019365D01*
X017148Y019441D02*
X016968Y019441D01*
X017323Y019469D02*
X017503Y019469D01*
X017503Y019289D01*
X017323Y019289D01*
X017323Y019469D01*
X017323Y019365D02*
X017503Y019365D01*
X017503Y019441D02*
X017323Y019441D01*
X017323Y018219D02*
X017503Y018219D01*
X017503Y018039D01*
X017323Y018039D01*
X017323Y018219D01*
X017323Y018115D02*
X017503Y018115D01*
X017503Y018191D02*
X017323Y018191D01*
X017148Y018219D02*
X016968Y018219D01*
X017148Y018219D02*
X017148Y018039D01*
X016968Y018039D01*
X016968Y018219D01*
X016968Y018115D02*
X017148Y018115D01*
X017148Y018191D02*
X016968Y018191D01*
X018843Y021289D02*
X019023Y021289D01*
X018843Y021289D02*
X018843Y021469D01*
X019023Y021469D01*
X019023Y021289D01*
X019023Y021365D02*
X018843Y021365D01*
X018843Y021441D02*
X019023Y021441D01*
X019198Y021289D02*
X019378Y021289D01*
X019198Y021289D02*
X019198Y021469D01*
X019378Y021469D01*
X019378Y021289D01*
X019378Y021365D02*
X019198Y021365D01*
X019198Y021441D02*
X019378Y021441D01*
X019343Y026039D02*
X019523Y026039D01*
X019343Y026039D02*
X019343Y026219D01*
X019523Y026219D01*
X019523Y026039D01*
X019523Y026115D02*
X019343Y026115D01*
X019343Y026191D02*
X019523Y026191D01*
X019698Y026039D02*
X019878Y026039D01*
X019698Y026039D02*
X019698Y026219D01*
X019878Y026219D01*
X019878Y026039D01*
X019878Y026115D02*
X019698Y026115D01*
X019698Y026191D02*
X019878Y026191D01*
X019878Y026914D02*
X019698Y026914D01*
X019698Y027094D01*
X019878Y027094D01*
X019878Y026914D01*
X019878Y026990D02*
X019698Y026990D01*
X019698Y027066D02*
X019878Y027066D01*
X019878Y027414D02*
X019698Y027414D01*
X019698Y027594D01*
X019878Y027594D01*
X019878Y027414D01*
X019878Y027490D02*
X019698Y027490D01*
X019698Y027566D02*
X019878Y027566D01*
X019878Y028094D02*
X019698Y028094D01*
X019878Y028094D02*
X019878Y027914D01*
X019698Y027914D01*
X019698Y028094D01*
X019698Y027990D02*
X019878Y027990D01*
X019878Y028066D02*
X019698Y028066D01*
X019523Y028094D02*
X019343Y028094D01*
X019523Y028094D02*
X019523Y027914D01*
X019343Y027914D01*
X019343Y028094D01*
X019343Y027990D02*
X019523Y027990D01*
X019523Y028066D02*
X019343Y028066D01*
X019343Y027414D02*
X019523Y027414D01*
X019343Y027414D02*
X019343Y027594D01*
X019523Y027594D01*
X019523Y027414D01*
X019523Y027490D02*
X019343Y027490D01*
X019343Y027566D02*
X019523Y027566D01*
X019523Y026914D02*
X019343Y026914D01*
X019343Y027094D01*
X019523Y027094D01*
X019523Y026914D01*
X019523Y026990D02*
X019343Y026990D01*
X019343Y027066D02*
X019523Y027066D01*
X019593Y013664D02*
X019773Y013664D01*
X019593Y013664D02*
X019593Y013844D01*
X019773Y013844D01*
X019773Y013664D01*
X019773Y013740D02*
X019593Y013740D01*
X019593Y013816D02*
X019773Y013816D01*
X019948Y013664D02*
X020128Y013664D01*
X019948Y013664D02*
X019948Y013844D01*
X020128Y013844D01*
X020128Y013664D01*
X020128Y013740D02*
X019948Y013740D01*
X019948Y013816D02*
X020128Y013816D01*
X020128Y012664D02*
X019948Y012664D01*
X019948Y012844D01*
X020128Y012844D01*
X020128Y012664D01*
X020128Y012740D02*
X019948Y012740D01*
X019948Y012816D02*
X020128Y012816D01*
X019773Y012664D02*
X019593Y012664D01*
X019593Y012844D01*
X019773Y012844D01*
X019773Y012664D01*
X019773Y012740D02*
X019593Y012740D01*
X019593Y012816D02*
X019773Y012816D01*
X016788Y007059D02*
X016788Y006879D01*
X016608Y006879D01*
X016608Y007059D01*
X016788Y007059D01*
X016788Y006955D02*
X016608Y006955D01*
X016608Y007031D02*
X016788Y007031D01*
X016788Y006705D02*
X016788Y006525D01*
X016608Y006525D01*
X016608Y006705D01*
X016788Y006705D01*
X016788Y006601D02*
X016608Y006601D01*
X016608Y006677D02*
X016788Y006677D01*
X013608Y006654D02*
X013608Y006834D01*
X013788Y006834D01*
X013788Y006654D01*
X013608Y006654D01*
X013608Y006730D02*
X013788Y006730D01*
X013788Y006806D02*
X013608Y006806D01*
X013608Y006480D02*
X013608Y006300D01*
X013608Y006480D02*
X013788Y006480D01*
X013788Y006300D01*
X013608Y006300D01*
X013608Y006376D02*
X013788Y006376D01*
X013788Y006452D02*
X013608Y006452D01*
X008770Y008987D02*
X008770Y009167D01*
X008950Y009167D01*
X008950Y008987D01*
X008770Y008987D01*
X008770Y009063D02*
X008950Y009063D01*
X008950Y009139D02*
X008770Y009139D01*
X008770Y009341D02*
X008770Y009521D01*
X008950Y009521D01*
X008950Y009341D01*
X008770Y009341D01*
X008770Y009417D02*
X008950Y009417D01*
X008950Y009493D02*
X008770Y009493D01*
X009568Y016944D02*
X009748Y016944D01*
X009748Y016764D01*
X009568Y016764D01*
X009568Y016944D01*
X009568Y016840D02*
X009748Y016840D01*
X009748Y016916D02*
X009568Y016916D01*
X009923Y016944D02*
X010103Y016944D01*
X010103Y016764D01*
X009923Y016764D01*
X009923Y016944D01*
X009923Y016840D02*
X010103Y016840D01*
X010103Y016916D02*
X009923Y016916D01*
X009128Y020289D02*
X008948Y020289D01*
X008948Y020469D01*
X009128Y020469D01*
X009128Y020289D01*
X009128Y020365D02*
X008948Y020365D01*
X008948Y020441D02*
X009128Y020441D01*
X009128Y020789D02*
X008948Y020789D01*
X008948Y020969D01*
X009128Y020969D01*
X009128Y020789D01*
X009128Y020865D02*
X008948Y020865D01*
X008948Y020941D02*
X009128Y020941D01*
X008773Y020789D02*
X008593Y020789D01*
X008593Y020969D01*
X008773Y020969D01*
X008773Y020789D01*
X008773Y020865D02*
X008593Y020865D01*
X008593Y020941D02*
X008773Y020941D01*
X008773Y020289D02*
X008593Y020289D01*
X008593Y020469D01*
X008773Y020469D01*
X008773Y020289D01*
X008773Y020365D02*
X008593Y020365D01*
X008593Y020441D02*
X008773Y020441D01*
X009583Y021112D02*
X009583Y021292D01*
X009763Y021292D01*
X009763Y021112D01*
X009583Y021112D01*
X009583Y021188D02*
X009763Y021188D01*
X009763Y021264D02*
X009583Y021264D01*
X009583Y021466D02*
X009583Y021646D01*
X009763Y021646D01*
X009763Y021466D01*
X009583Y021466D01*
X009583Y021542D02*
X009763Y021542D01*
X009763Y021618D02*
X009583Y021618D01*
X007520Y019896D02*
X007520Y019716D01*
X007520Y019896D02*
X007700Y019896D01*
X007700Y019716D01*
X007520Y019716D01*
X007520Y019792D02*
X007700Y019792D01*
X007700Y019868D02*
X007520Y019868D01*
X007520Y019542D02*
X007520Y019362D01*
X007520Y019542D02*
X007700Y019542D01*
X007700Y019362D01*
X007520Y019362D01*
X007520Y019438D02*
X007700Y019438D01*
X007700Y019514D02*
X007520Y019514D01*
D14*
X012134Y029161D02*
X012300Y029161D01*
X012134Y029161D02*
X012134Y029347D01*
X012300Y029347D01*
X012300Y029161D01*
X012300Y029231D02*
X012134Y029231D01*
X012134Y029301D02*
X012300Y029301D01*
X012520Y029161D02*
X012686Y029161D01*
X012520Y029161D02*
X012520Y029347D01*
X012686Y029347D01*
X012686Y029161D01*
X012686Y029231D02*
X012520Y029231D01*
X012520Y029301D02*
X012686Y029301D01*
X012803Y030078D02*
X012803Y030244D01*
X012803Y030078D02*
X012617Y030078D01*
X012617Y030244D01*
X012803Y030244D01*
X012803Y030148D02*
X012617Y030148D01*
X012617Y030218D02*
X012803Y030218D01*
X012803Y030464D02*
X012803Y030630D01*
X012803Y030464D02*
X012617Y030464D01*
X012617Y030630D01*
X012803Y030630D01*
X012803Y030534D02*
X012617Y030534D01*
X012617Y030604D02*
X012803Y030604D01*
X012803Y031378D02*
X012803Y031544D01*
X012803Y031378D02*
X012617Y031378D01*
X012617Y031544D01*
X012803Y031544D01*
X012803Y031448D02*
X012617Y031448D01*
X012617Y031518D02*
X012803Y031518D01*
X012803Y031764D02*
X012803Y031930D01*
X012803Y031764D02*
X012617Y031764D01*
X012617Y031930D01*
X012803Y031930D01*
X012803Y031834D02*
X012617Y031834D01*
X012617Y031904D02*
X012803Y031904D01*
X012386Y032347D02*
X012220Y032347D01*
X012386Y032347D02*
X012386Y032161D01*
X012220Y032161D01*
X012220Y032347D01*
X012220Y032231D02*
X012386Y032231D01*
X012386Y032301D02*
X012220Y032301D01*
X012000Y032347D02*
X011834Y032347D01*
X012000Y032347D02*
X012000Y032161D01*
X011834Y032161D01*
X011834Y032347D01*
X011834Y032231D02*
X012000Y032231D01*
X012000Y032301D02*
X011834Y032301D01*
X011686Y030859D02*
X011520Y030859D01*
X011520Y031045D01*
X011686Y031045D01*
X011686Y030859D01*
X011686Y030929D02*
X011520Y030929D01*
X011520Y030999D02*
X011686Y030999D01*
X011803Y030630D02*
X011803Y030464D01*
X011617Y030464D01*
X011617Y030630D01*
X011803Y030630D01*
X011803Y030534D02*
X011617Y030534D01*
X011617Y030604D02*
X011803Y030604D01*
X011803Y030244D02*
X011803Y030078D01*
X011617Y030078D01*
X011617Y030244D01*
X011803Y030244D01*
X011803Y030148D02*
X011617Y030148D01*
X011617Y030218D02*
X011803Y030218D01*
X011436Y029897D02*
X011270Y029897D01*
X011436Y029897D02*
X011436Y029711D01*
X011270Y029711D01*
X011270Y029897D01*
X011270Y029781D02*
X011436Y029781D01*
X011436Y029851D02*
X011270Y029851D01*
X011050Y029897D02*
X010884Y029897D01*
X011050Y029897D02*
X011050Y029711D01*
X010884Y029711D01*
X010884Y029897D01*
X010884Y029781D02*
X011050Y029781D01*
X011050Y029851D02*
X010884Y029851D01*
X011103Y030078D02*
X011103Y030244D01*
X011103Y030078D02*
X010917Y030078D01*
X010917Y030244D01*
X011103Y030244D01*
X011103Y030148D02*
X010917Y030148D01*
X010917Y030218D02*
X011103Y030218D01*
X011103Y030464D02*
X011103Y030630D01*
X011103Y030464D02*
X010917Y030464D01*
X010917Y030630D01*
X011103Y030630D01*
X011103Y030534D02*
X010917Y030534D01*
X010917Y030604D02*
X011103Y030604D01*
X011134Y030859D02*
X011300Y030859D01*
X011134Y030859D02*
X011134Y031045D01*
X011300Y031045D01*
X011300Y030859D01*
X011300Y030929D02*
X011134Y030929D01*
X011134Y030999D02*
X011300Y030999D01*
D15*
X008515Y026577D03*
X007806Y026577D03*
X007806Y025632D03*
X008515Y025632D03*
X010388Y021984D03*
X010388Y021275D03*
X011333Y021275D03*
X011333Y021984D03*
D16*
X008710Y032313D03*
X008710Y033396D03*
X018735Y019421D03*
X018735Y018338D03*
D17*
X018135Y018879D03*
X009311Y032854D03*
D18*
X011035Y018879D03*
D19*
X010937Y017844D02*
X010937Y017560D01*
X011134Y017560D02*
X011134Y017844D01*
X011331Y017844D02*
X011331Y017560D01*
X011528Y017560D02*
X011528Y017844D01*
X011724Y017844D02*
X011724Y017560D01*
X011921Y017560D02*
X011921Y017844D01*
X012071Y017994D02*
X012355Y017994D01*
X012355Y018190D02*
X012071Y018190D01*
X012071Y018387D02*
X012355Y018387D01*
X012355Y018584D02*
X012071Y018584D01*
X012071Y018781D02*
X012355Y018781D01*
X012355Y018978D02*
X012071Y018978D01*
X012071Y019175D02*
X012355Y019175D01*
X012355Y019371D02*
X012071Y019371D01*
X012071Y019568D02*
X012355Y019568D01*
X012355Y019765D02*
X012071Y019765D01*
X011921Y019914D02*
X011921Y020198D01*
X011724Y020198D02*
X011724Y019914D01*
X011528Y019914D02*
X011528Y020198D01*
X011331Y020198D02*
X011331Y019914D01*
X011134Y019914D02*
X011134Y020198D01*
X010937Y020198D02*
X010937Y019914D01*
X010740Y019914D02*
X010740Y020198D01*
X010543Y020198D02*
X010543Y019914D01*
X010346Y019914D02*
X010346Y020198D01*
X010150Y020198D02*
X010150Y019914D01*
X010000Y019765D02*
X009716Y019765D01*
X009716Y019568D02*
X010000Y019568D01*
X010000Y019371D02*
X009716Y019371D01*
X009716Y019175D02*
X010000Y019175D01*
X010000Y018978D02*
X009716Y018978D01*
X009716Y018781D02*
X010000Y018781D01*
X010000Y018584D02*
X009716Y018584D01*
X009716Y018387D02*
X010000Y018387D01*
X010000Y018190D02*
X009716Y018190D01*
X009716Y017994D02*
X010000Y017994D01*
X010150Y017844D02*
X010150Y017560D01*
X010346Y017560D02*
X010346Y017844D01*
X010543Y017844D02*
X010543Y017560D01*
X010740Y017560D02*
X010740Y017844D01*
D20*
X010985Y016839D03*
X010985Y016170D03*
X013860Y016170D03*
X013860Y016839D03*
X013235Y021795D03*
X013235Y022464D03*
D21*
X014276Y021879D03*
X014945Y021879D03*
X013820Y015254D03*
X013151Y015254D03*
X012320Y015379D03*
X011651Y015379D03*
D22*
X012110Y016248D03*
X012110Y016760D03*
X012610Y016760D03*
X012610Y016248D03*
X013110Y016248D03*
X013110Y016760D03*
X014860Y017623D03*
X014860Y018135D03*
X014860Y019373D03*
X014860Y019885D03*
X016610Y019885D03*
X016610Y019373D03*
X016610Y018135D03*
X016610Y017623D03*
X017985Y023998D03*
X017985Y024510D03*
D23*
X015991Y019379D03*
X015479Y019379D03*
X015479Y018129D03*
X015991Y018129D03*
X013991Y019754D03*
X013741Y020379D03*
X013479Y019754D03*
X013229Y020379D03*
X017604Y014254D03*
X018116Y014254D03*
X018116Y010004D03*
X017604Y010004D03*
X008691Y019429D03*
X008179Y019429D03*
D24*
X013486Y019004D03*
X013486Y018129D03*
X014234Y018129D03*
X014234Y019004D03*
X005734Y011254D03*
X004986Y011254D03*
D25*
X002410Y003754D02*
X001810Y003754D01*
X001810Y004754D02*
X002410Y004754D01*
X002410Y005754D02*
X001810Y005754D01*
X001810Y006754D02*
X002410Y006754D01*
X002410Y007754D02*
X001810Y007754D01*
X001810Y008754D02*
X002410Y008754D01*
X002410Y010754D02*
X001810Y010754D01*
X001810Y011754D02*
X002410Y011754D01*
X002410Y012754D02*
X001810Y012754D01*
X001810Y013754D02*
X002410Y013754D01*
X002410Y014754D02*
X001810Y014754D01*
X001810Y015754D02*
X002410Y015754D01*
X002410Y017754D02*
X001810Y017754D01*
X001810Y018754D02*
X002410Y018754D01*
X002410Y019754D02*
X001810Y019754D01*
X001810Y020754D02*
X002410Y020754D01*
X002410Y021754D02*
X001810Y021754D01*
X001810Y022754D02*
X002410Y022754D01*
X002410Y023754D02*
X001810Y023754D01*
X001810Y024754D02*
X002410Y024754D01*
X009110Y023749D02*
X009110Y023149D01*
X010110Y023149D02*
X010110Y023749D01*
X011110Y023749D02*
X011110Y023149D01*
X012110Y023149D02*
X012110Y023749D01*
X020810Y023354D02*
X021410Y023354D01*
X021410Y024354D02*
X020810Y024354D01*
X020810Y025354D02*
X021410Y025354D01*
X021410Y026354D02*
X020810Y026354D01*
X020810Y027354D02*
X021410Y027354D01*
X021410Y028354D02*
X020810Y028354D01*
X020810Y022354D02*
X021410Y022354D01*
X021410Y021354D02*
X020810Y021354D01*
X020810Y020354D02*
X021410Y020354D01*
X021410Y019354D02*
X020810Y019354D01*
X020810Y017754D02*
X021410Y017754D01*
X021410Y016754D02*
X020810Y016754D01*
X020810Y015754D02*
X021410Y015754D01*
X021410Y014754D02*
X020810Y014754D01*
X020810Y013754D02*
X021410Y013754D01*
X021410Y012754D02*
X020810Y012754D01*
X020810Y011754D02*
X021410Y011754D01*
X021410Y010754D02*
X020810Y010754D01*
X014110Y003079D02*
X014110Y002479D01*
X013110Y002479D02*
X013110Y003079D01*
X012110Y003079D02*
X012110Y002479D01*
X011110Y002479D02*
X011110Y003079D01*
X010110Y003079D02*
X010110Y002479D01*
X009110Y002479D02*
X009110Y003079D01*
X008110Y003079D02*
X008110Y002479D01*
X007110Y002479D02*
X007110Y003079D01*
D26*
X016584Y010612D03*
X016584Y010868D03*
X016584Y011123D03*
X016584Y011379D03*
X016584Y011635D03*
X016584Y011891D03*
X016584Y012147D03*
X016584Y014862D03*
X016584Y015118D03*
X016584Y015373D03*
X016584Y015629D03*
X016584Y015885D03*
X016584Y016141D03*
X016584Y016397D03*
X018887Y016397D03*
X018887Y016141D03*
X018887Y015885D03*
X018887Y015629D03*
X018887Y015373D03*
X018887Y015118D03*
X018887Y014862D03*
X018887Y012147D03*
X018887Y011891D03*
X018887Y011635D03*
X018887Y011379D03*
X018887Y011123D03*
X018887Y010868D03*
X018887Y010612D03*
D27*
X015331Y007228D03*
X015331Y006480D03*
X014465Y006854D03*
D28*
X013110Y010704D03*
D29*
X013110Y009704D03*
X012110Y009704D03*
X012110Y010704D03*
X011110Y010704D03*
X011110Y009704D03*
D30*
X018727Y022978D03*
X018982Y022978D03*
X019238Y022978D03*
X019494Y022978D03*
X019494Y025281D03*
X019238Y025281D03*
X018982Y025281D03*
X018727Y025281D03*
D31*
X005766Y010244D03*
X004860Y010244D03*
X003955Y010244D03*
D32*
X004860Y007764D03*
D33*
X006985Y008630D03*
X006985Y009378D03*
D34*
X007116Y025754D02*
X005110Y025754D01*
X005110Y034504D01*
X018610Y034504D01*
X018610Y025754D01*
X013115Y025754D01*
X013115Y026681D01*
X013115Y026698D01*
X013193Y026666D01*
X013328Y026666D01*
X013452Y026717D01*
X013548Y026812D01*
X013599Y026937D01*
X013599Y027072D01*
X018610Y027072D01*
X018610Y027014D02*
X013599Y027014D01*
X013599Y027072D02*
X013548Y027196D01*
X013452Y027291D01*
X013446Y027294D01*
X013502Y027317D01*
X013598Y027412D01*
X013649Y027537D01*
X013649Y027672D01*
X013598Y027796D01*
X013502Y027891D01*
X013378Y027943D01*
X013243Y027943D01*
X013119Y027891D01*
X013061Y027834D01*
X012818Y027834D01*
X012818Y027884D01*
X013045Y027884D01*
X013045Y027966D01*
X013034Y028009D01*
X018610Y028009D01*
X018610Y028067D02*
X012992Y028067D01*
X012981Y028079D02*
X012942Y028101D01*
X012929Y028104D01*
X012942Y028108D01*
X012981Y028130D01*
X013012Y028161D01*
X013034Y028200D01*
X013045Y028243D01*
X018610Y028243D01*
X018610Y028185D02*
X013025Y028185D01*
X013045Y028243D02*
X013045Y028266D01*
X013178Y028266D01*
X013302Y028317D01*
X013398Y028412D01*
X013449Y028537D01*
X013449Y028672D01*
X013398Y028796D01*
X013302Y028891D01*
X013178Y028943D01*
X013043Y028943D01*
X012945Y028903D01*
X012945Y028966D01*
X012941Y028984D01*
X013015Y028984D01*
X013053Y028946D01*
X013408Y028946D01*
X013682Y028946D01*
X013672Y028922D01*
X013672Y028787D01*
X013723Y028662D01*
X013819Y028567D01*
X013943Y028516D01*
X014078Y028516D01*
X014202Y028567D01*
X014298Y028662D01*
X014349Y028787D01*
X014349Y028922D01*
X014318Y028996D01*
X014358Y028996D01*
X014358Y029224D01*
X014417Y029224D01*
X014417Y028996D01*
X014499Y028996D01*
X014542Y029008D01*
X014581Y029030D01*
X014612Y029061D01*
X014634Y029100D01*
X014645Y029143D01*
X014645Y029224D01*
X014418Y029224D01*
X014418Y029284D01*
X014645Y029284D01*
X014645Y029366D01*
X014634Y029409D01*
X014612Y029447D01*
X014605Y029454D01*
X014612Y029461D01*
X014634Y029500D01*
X014645Y029543D01*
X014645Y029624D01*
X014418Y029624D01*
X014418Y029684D01*
X014645Y029684D01*
X014645Y029766D01*
X014634Y029809D01*
X014612Y029847D01*
X014581Y029879D01*
X014542Y029901D01*
X014499Y029912D01*
X014417Y029912D01*
X014417Y029684D01*
X014358Y029684D01*
X014358Y029912D01*
X014276Y029912D01*
X014266Y029910D01*
X014213Y029962D01*
X013853Y029962D01*
X013810Y029919D01*
X013768Y029962D01*
X013423Y029962D01*
X013458Y029997D01*
X013458Y030351D01*
X018610Y030351D01*
X018610Y030409D02*
X013458Y030409D01*
X013458Y030351D02*
X013458Y030711D01*
X013330Y030839D01*
X012995Y030839D01*
X012995Y031134D01*
X012980Y031149D01*
X012980Y031252D01*
X013018Y031289D01*
X013018Y031633D01*
X012997Y031654D01*
X013018Y031675D01*
X013018Y031996D01*
X013058Y031996D01*
X013058Y032224D01*
X013117Y032224D01*
X013117Y031996D01*
X013199Y031996D01*
X013242Y032008D01*
X013281Y032030D01*
X013312Y032061D01*
X013334Y032100D01*
X013345Y032143D01*
X013345Y032224D01*
X018610Y032224D01*
X018610Y032166D02*
X013345Y032166D01*
X013345Y032224D02*
X013118Y032224D01*
X013118Y032284D01*
X013345Y032284D01*
X013345Y032366D01*
X013341Y032381D01*
X013440Y032480D01*
X013440Y032879D01*
X013335Y032984D01*
X012546Y032984D01*
X012468Y033062D01*
X012113Y033062D01*
X011753Y033062D01*
X011625Y032934D01*
X011625Y032907D01*
X011312Y032907D01*
X011285Y032934D01*
X010990Y032934D01*
X010990Y033129D01*
X010885Y033234D01*
X010740Y033234D01*
X010740Y033479D01*
X010635Y033584D01*
X010236Y033584D01*
X010186Y033534D01*
X009736Y033534D01*
X009630Y033429D01*
X009630Y033193D01*
X009592Y033231D01*
X009273Y033231D01*
X009273Y033366D01*
X008741Y033366D01*
X008741Y033426D01*
X009273Y033426D01*
X009273Y033580D01*
X009265Y033613D01*
X009247Y033643D01*
X009223Y033667D01*
X009194Y033684D01*
X009161Y033693D01*
X008740Y033693D01*
X008740Y033426D01*
X008680Y033426D01*
X008680Y033366D01*
X008147Y033366D01*
X008147Y033246D01*
X008130Y033229D01*
X008130Y032480D01*
X008147Y032463D01*
X008147Y032343D01*
X008680Y032343D01*
X008680Y032283D01*
X008147Y032283D01*
X008147Y032129D01*
X008156Y032095D01*
X008173Y032066D01*
X008197Y032042D01*
X008227Y032025D01*
X008260Y032016D01*
X008680Y032016D01*
X008680Y032283D01*
X008740Y032283D01*
X008740Y032016D01*
X009161Y032016D01*
X009194Y032025D01*
X009223Y032042D01*
X009247Y032066D01*
X009265Y032095D01*
X009273Y032129D01*
X009273Y032283D01*
X008741Y032283D01*
X008741Y032343D01*
X009273Y032343D01*
X009273Y032477D01*
X009483Y032477D01*
X009536Y032424D01*
X009580Y032424D01*
X009580Y031730D01*
X009686Y031624D01*
X010336Y031624D01*
X010735Y031624D01*
X010785Y031674D01*
X012385Y031674D01*
X012402Y031692D01*
X012402Y031675D01*
X012423Y031654D01*
X012402Y031633D01*
X012402Y031289D01*
X012430Y031262D01*
X012153Y031262D01*
X012075Y031184D01*
X011851Y031184D01*
X011775Y031260D01*
X011431Y031260D01*
X011410Y031239D01*
X011389Y031260D01*
X011046Y031260D01*
X010919Y031134D01*
X010919Y030845D01*
X010829Y030845D01*
X010773Y030789D01*
X010772Y030789D01*
X010690Y030789D01*
X010690Y030562D01*
X010630Y030562D01*
X010630Y030789D01*
X010549Y030789D01*
X010506Y030778D01*
X010467Y030756D01*
X010436Y030724D01*
X010414Y030686D01*
X010402Y030643D01*
X010402Y030561D01*
X010630Y030561D01*
X010630Y030502D01*
X010458Y030502D01*
X010453Y030506D01*
X010415Y030528D01*
X010372Y030539D01*
X010290Y030539D01*
X010290Y030312D01*
X010230Y030312D01*
X010230Y030539D01*
X010149Y030539D01*
X010106Y030528D01*
X010067Y030506D01*
X010060Y030499D01*
X010053Y030506D01*
X010015Y030528D01*
X009972Y030539D01*
X009890Y030539D01*
X009890Y030312D01*
X009830Y030312D01*
X009830Y030539D01*
X009749Y030539D01*
X009706Y030528D01*
X009680Y030513D01*
X009677Y030516D01*
X009553Y030568D01*
X009418Y030568D01*
X009294Y030516D01*
X009198Y030421D01*
X009147Y030297D01*
X009147Y030162D01*
X009198Y030037D01*
X009238Y029997D01*
X009202Y029961D01*
X009202Y029607D01*
X009202Y029527D01*
X009168Y029562D01*
X008808Y029562D01*
X008755Y029510D01*
X008745Y029512D01*
X008663Y029512D01*
X008663Y029284D01*
X008603Y029284D01*
X008603Y029224D01*
X008419Y029224D01*
X008402Y029241D01*
X008278Y029293D01*
X008143Y029293D01*
X008019Y029241D01*
X007923Y029146D01*
X007872Y029022D01*
X007872Y028887D01*
X005110Y028887D01*
X005110Y028829D02*
X007896Y028829D01*
X007872Y028887D02*
X007923Y028762D01*
X007982Y028703D01*
X007894Y028666D01*
X007798Y028571D01*
X007747Y028447D01*
X007747Y028312D01*
X007798Y028187D01*
X007840Y028146D01*
X007769Y028116D01*
X007673Y028021D01*
X007622Y027897D01*
X007622Y027762D01*
X007673Y027637D01*
X007769Y027542D01*
X007817Y027522D01*
X007805Y027510D01*
X007795Y027512D01*
X007713Y027512D01*
X007713Y027284D01*
X007653Y027284D01*
X007653Y027224D01*
X007425Y027224D01*
X007425Y027143D01*
X007437Y027100D01*
X007459Y027061D01*
X007490Y027030D01*
X007520Y027013D01*
X007476Y027013D01*
X007370Y026907D01*
X007370Y026639D01*
X007130Y026639D01*
X007002Y026511D01*
X007002Y026151D01*
X007055Y026099D01*
X007052Y026089D01*
X007052Y026007D01*
X007280Y026007D01*
X007280Y025947D01*
X007052Y025947D01*
X007052Y025865D01*
X007064Y025823D01*
X007086Y025784D01*
X007116Y025754D01*
X007086Y025784D02*
X005110Y025784D01*
X005110Y025843D02*
X007058Y025843D01*
X007052Y025901D02*
X005110Y025901D01*
X005110Y025960D02*
X007280Y025960D01*
X007052Y026018D02*
X005110Y026018D01*
X005110Y026077D02*
X007052Y026077D01*
X007018Y026136D02*
X005110Y026136D01*
X005110Y026194D02*
X007002Y026194D01*
X007002Y026253D02*
X005110Y026253D01*
X005110Y026311D02*
X007002Y026311D01*
X007002Y026370D02*
X005110Y026370D01*
X005110Y026428D02*
X007002Y026428D01*
X007002Y026487D02*
X005110Y026487D01*
X005110Y026545D02*
X007036Y026545D01*
X007095Y026604D02*
X005110Y026604D01*
X005110Y026662D02*
X007370Y026662D01*
X007370Y026721D02*
X005110Y026721D01*
X005110Y026780D02*
X007370Y026780D01*
X007370Y026838D02*
X005110Y026838D01*
X005110Y026897D02*
X007370Y026897D01*
X007418Y026955D02*
X005110Y026955D01*
X005110Y027014D02*
X007519Y027014D01*
X007453Y027072D02*
X005110Y027072D01*
X005110Y027131D02*
X007428Y027131D01*
X007425Y027189D02*
X005110Y027189D01*
X005110Y027248D02*
X007653Y027248D01*
X007653Y027284D02*
X007425Y027284D01*
X007425Y027366D01*
X007437Y027409D01*
X007459Y027447D01*
X007490Y027479D01*
X007529Y027501D01*
X007571Y027512D01*
X007653Y027512D01*
X007653Y027284D01*
X007653Y027306D02*
X007713Y027306D01*
X007713Y027365D02*
X007653Y027365D01*
X007653Y027424D02*
X007713Y027424D01*
X007713Y027482D02*
X007653Y027482D01*
X007712Y027599D02*
X005110Y027599D01*
X005110Y027541D02*
X007772Y027541D01*
X007665Y027658D02*
X005110Y027658D01*
X005110Y027716D02*
X007641Y027716D01*
X007622Y027775D02*
X005110Y027775D01*
X005110Y027833D02*
X007622Y027833D01*
X007622Y027892D02*
X005110Y027892D01*
X005110Y027950D02*
X007644Y027950D01*
X007668Y028009D02*
X005110Y028009D01*
X005110Y028067D02*
X007720Y028067D01*
X007792Y028126D02*
X005110Y028126D01*
X005110Y028185D02*
X007801Y028185D01*
X007775Y028243D02*
X005110Y028243D01*
X005110Y028302D02*
X007751Y028302D01*
X007747Y028360D02*
X005110Y028360D01*
X005110Y028419D02*
X007747Y028419D01*
X007759Y028477D02*
X005110Y028477D01*
X005110Y028536D02*
X007784Y028536D01*
X007821Y028594D02*
X005110Y028594D01*
X005110Y028653D02*
X007880Y028653D01*
X007974Y028711D02*
X005110Y028711D01*
X005110Y028770D02*
X007920Y028770D01*
X007872Y028946D02*
X005110Y028946D01*
X005110Y029004D02*
X007872Y029004D01*
X007889Y029063D02*
X005110Y029063D01*
X005110Y029121D02*
X007913Y029121D01*
X007957Y029180D02*
X005110Y029180D01*
X005110Y029238D02*
X008015Y029238D01*
X008375Y029284D02*
X008603Y029284D01*
X008603Y029512D01*
X008521Y029512D01*
X008479Y029501D01*
X008440Y029479D01*
X008409Y029447D01*
X008387Y029409D01*
X008375Y029366D01*
X008375Y029284D01*
X008375Y029297D02*
X005110Y029297D01*
X005110Y029355D02*
X008375Y029355D01*
X008390Y029414D02*
X005110Y029414D01*
X005110Y029473D02*
X008434Y029473D01*
X008603Y029473D02*
X008663Y029473D01*
X008663Y029414D02*
X008603Y029414D01*
X008603Y029355D02*
X008663Y029355D01*
X008663Y029297D02*
X008603Y029297D01*
X008603Y029238D02*
X008405Y029238D01*
X008776Y029531D02*
X005110Y029531D01*
X005110Y029590D02*
X009202Y029590D01*
X009202Y029648D02*
X005110Y029648D01*
X005110Y029707D02*
X009202Y029707D01*
X009202Y029765D02*
X005110Y029765D01*
X005110Y029824D02*
X007723Y029824D01*
X007743Y029816D02*
X007878Y029816D01*
X008002Y029867D01*
X008098Y029962D01*
X008149Y030087D01*
X008149Y030222D01*
X008098Y030346D01*
X008002Y030441D01*
X007878Y030493D01*
X007743Y030493D01*
X007619Y030441D01*
X007523Y030346D01*
X007472Y030222D01*
X007472Y030087D01*
X007523Y029962D01*
X007619Y029867D01*
X007743Y029816D01*
X007603Y029882D02*
X005110Y029882D01*
X005110Y029941D02*
X007545Y029941D01*
X007508Y029999D02*
X005110Y029999D01*
X005110Y030058D02*
X007484Y030058D01*
X007472Y030116D02*
X005110Y030116D01*
X005110Y030175D02*
X007472Y030175D01*
X007477Y030234D02*
X005110Y030234D01*
X005110Y030292D02*
X007501Y030292D01*
X007528Y030351D02*
X005110Y030351D01*
X005110Y030409D02*
X007586Y030409D01*
X007682Y030468D02*
X005110Y030468D01*
X005110Y030526D02*
X009317Y030526D01*
X009245Y030468D02*
X008739Y030468D01*
X008678Y030493D02*
X008543Y030493D01*
X008419Y030441D01*
X008323Y030346D01*
X008272Y030222D01*
X008272Y030087D01*
X008323Y029962D01*
X008419Y029867D01*
X008543Y029816D01*
X008678Y029816D01*
X008802Y029867D01*
X008898Y029962D01*
X008949Y030087D01*
X008949Y030222D01*
X008898Y030346D01*
X008802Y030441D01*
X008678Y030493D01*
X008834Y030409D02*
X009193Y030409D01*
X009169Y030351D02*
X008893Y030351D01*
X008920Y030292D02*
X009147Y030292D01*
X009147Y030234D02*
X008944Y030234D01*
X008949Y030175D02*
X009147Y030175D01*
X009165Y030116D02*
X008949Y030116D01*
X008937Y030058D02*
X009190Y030058D01*
X009236Y029999D02*
X008913Y029999D01*
X008876Y029941D02*
X009202Y029941D01*
X009202Y029882D02*
X008817Y029882D01*
X008698Y029824D02*
X009202Y029824D01*
X009199Y029531D02*
X009202Y029531D01*
X008523Y029824D02*
X007898Y029824D01*
X008017Y029882D02*
X008403Y029882D01*
X008345Y029941D02*
X008076Y029941D01*
X008113Y029999D02*
X008308Y029999D01*
X008284Y030058D02*
X008137Y030058D01*
X008149Y030116D02*
X008272Y030116D01*
X008272Y030175D02*
X008149Y030175D01*
X008144Y030234D02*
X008277Y030234D01*
X008301Y030292D02*
X008120Y030292D01*
X008093Y030351D02*
X008328Y030351D01*
X008386Y030409D02*
X008034Y030409D01*
X007939Y030468D02*
X008482Y030468D01*
X009654Y030526D02*
X009703Y030526D01*
X009830Y030526D02*
X009890Y030526D01*
X009890Y030468D02*
X009830Y030468D01*
X009830Y030409D02*
X009890Y030409D01*
X009890Y030351D02*
X009830Y030351D01*
X009891Y030311D02*
X010118Y030311D01*
X010230Y030311D01*
X010230Y030252D01*
X010118Y030252D01*
X009891Y030252D01*
X009891Y030311D01*
X009891Y030292D02*
X010230Y030292D01*
X010230Y030351D02*
X010290Y030351D01*
X010290Y030409D02*
X010230Y030409D01*
X010230Y030468D02*
X010290Y030468D01*
X010290Y030526D02*
X010230Y030526D01*
X010103Y030526D02*
X010018Y030526D01*
X010402Y030585D02*
X005110Y030585D01*
X005110Y030643D02*
X010403Y030643D01*
X010423Y030702D02*
X005110Y030702D01*
X005110Y030760D02*
X010476Y030760D01*
X010630Y030760D02*
X010690Y030760D01*
X010690Y030702D02*
X010630Y030702D01*
X010630Y030643D02*
X010690Y030643D01*
X010690Y030585D02*
X010630Y030585D01*
X010630Y030526D02*
X010418Y030526D01*
X010802Y030819D02*
X005110Y030819D01*
X005110Y030878D02*
X010919Y030878D01*
X010919Y030936D02*
X005110Y030936D01*
X005110Y030995D02*
X010919Y030995D01*
X010919Y031053D02*
X005110Y031053D01*
X005110Y031112D02*
X010919Y031112D01*
X010956Y031170D02*
X005110Y031170D01*
X005110Y031229D02*
X011014Y031229D01*
X010749Y031639D02*
X012408Y031639D01*
X012402Y031580D02*
X005110Y031580D01*
X005110Y031522D02*
X012402Y031522D01*
X012402Y031463D02*
X005110Y031463D01*
X005110Y031404D02*
X012402Y031404D01*
X012402Y031346D02*
X005110Y031346D01*
X005110Y031287D02*
X012405Y031287D01*
X012120Y031229D02*
X011806Y031229D01*
X011939Y030724D02*
X012075Y030724D01*
X012153Y030646D01*
X012180Y030646D01*
X012180Y030500D01*
X012016Y030335D01*
X011955Y030397D01*
X011957Y030401D01*
X011968Y030443D01*
X011968Y030518D01*
X011740Y030518D01*
X011740Y030576D01*
X011968Y030576D01*
X011968Y030652D01*
X011957Y030694D01*
X011939Y030724D01*
X011952Y030702D02*
X012098Y030702D01*
X012180Y030643D02*
X011968Y030643D01*
X011968Y030585D02*
X012180Y030585D01*
X012180Y030526D02*
X011740Y030526D01*
X011968Y030468D02*
X012149Y030468D01*
X012090Y030409D02*
X011959Y030409D01*
X012001Y030351D02*
X012031Y030351D01*
X012995Y030878D02*
X018610Y030878D01*
X018610Y030936D02*
X012995Y030936D01*
X012995Y030995D02*
X018610Y030995D01*
X018610Y031053D02*
X012995Y031053D01*
X012995Y031112D02*
X018610Y031112D01*
X018610Y031170D02*
X012980Y031170D01*
X012980Y031229D02*
X018610Y031229D01*
X018610Y031287D02*
X013016Y031287D01*
X013018Y031346D02*
X018610Y031346D01*
X018610Y031404D02*
X013018Y031404D01*
X013018Y031463D02*
X018610Y031463D01*
X018610Y031522D02*
X013018Y031522D01*
X013018Y031580D02*
X018610Y031580D01*
X018610Y031639D02*
X013013Y031639D01*
X013018Y031697D02*
X018610Y031697D01*
X018610Y031756D02*
X013018Y031756D01*
X013018Y031814D02*
X018610Y031814D01*
X018610Y031873D02*
X013018Y031873D01*
X013018Y031931D02*
X018610Y031931D01*
X018610Y031990D02*
X013018Y031990D01*
X013058Y032048D02*
X013117Y032048D01*
X013117Y032107D02*
X013058Y032107D01*
X013058Y032166D02*
X013117Y032166D01*
X013117Y032224D02*
X013058Y032224D01*
X013118Y032283D02*
X018610Y032283D01*
X018610Y032341D02*
X013345Y032341D01*
X013360Y032400D02*
X018610Y032400D01*
X018610Y032458D02*
X013419Y032458D01*
X013440Y032517D02*
X018610Y032517D01*
X018610Y032575D02*
X013440Y032575D01*
X013440Y032634D02*
X018610Y032634D01*
X018610Y032692D02*
X013440Y032692D01*
X013440Y032751D02*
X018610Y032751D01*
X018610Y032809D02*
X013440Y032809D01*
X013440Y032868D02*
X018610Y032868D01*
X018610Y032927D02*
X013393Y032927D01*
X013336Y032107D02*
X018610Y032107D01*
X018610Y032048D02*
X013299Y032048D01*
X012545Y032985D02*
X018610Y032985D01*
X018610Y033044D02*
X012486Y033044D01*
X011735Y033044D02*
X010990Y033044D01*
X010990Y033102D02*
X018610Y033102D01*
X018610Y033161D02*
X010958Y033161D01*
X010900Y033219D02*
X018610Y033219D01*
X018610Y033278D02*
X010740Y033278D01*
X010740Y033336D02*
X018610Y033336D01*
X018610Y033395D02*
X010740Y033395D01*
X010740Y033453D02*
X018610Y033453D01*
X018610Y033512D02*
X010707Y033512D01*
X010649Y033571D02*
X018610Y033571D01*
X018610Y033629D02*
X009255Y033629D01*
X009273Y033571D02*
X010222Y033571D01*
X009714Y033512D02*
X009273Y033512D01*
X009273Y033453D02*
X009655Y033453D01*
X009630Y033395D02*
X008741Y033395D01*
X008740Y033453D02*
X008680Y033453D01*
X008680Y033426D02*
X008680Y033693D01*
X008260Y033693D01*
X008227Y033684D01*
X008197Y033667D01*
X008173Y033643D01*
X008156Y033613D01*
X008147Y033580D01*
X008147Y033426D01*
X008680Y033426D01*
X008680Y033395D02*
X005110Y033395D01*
X005110Y033453D02*
X008147Y033453D01*
X008147Y033512D02*
X005110Y033512D01*
X005110Y033571D02*
X008147Y033571D01*
X008165Y033629D02*
X005110Y033629D01*
X005110Y033688D02*
X008240Y033688D01*
X008147Y033336D02*
X005110Y033336D01*
X005110Y033278D02*
X008147Y033278D01*
X008130Y033219D02*
X005110Y033219D01*
X005110Y033161D02*
X008130Y033161D01*
X008130Y033102D02*
X005110Y033102D01*
X005110Y033044D02*
X008130Y033044D01*
X008130Y032985D02*
X005110Y032985D01*
X005110Y032927D02*
X008130Y032927D01*
X008130Y032868D02*
X005110Y032868D01*
X005110Y032809D02*
X008130Y032809D01*
X008130Y032751D02*
X005110Y032751D01*
X005110Y032692D02*
X008130Y032692D01*
X008130Y032634D02*
X005110Y032634D01*
X005110Y032575D02*
X008130Y032575D01*
X008130Y032517D02*
X005110Y032517D01*
X005110Y032458D02*
X008147Y032458D01*
X008147Y032400D02*
X005110Y032400D01*
X005110Y032341D02*
X008680Y032341D01*
X008680Y032283D02*
X008740Y032283D01*
X008741Y032341D02*
X009580Y032341D01*
X009580Y032283D02*
X009273Y032283D01*
X009273Y032224D02*
X009580Y032224D01*
X009580Y032166D02*
X009273Y032166D01*
X009268Y032107D02*
X009580Y032107D01*
X009580Y032048D02*
X009230Y032048D01*
X009273Y032400D02*
X009580Y032400D01*
X009502Y032458D02*
X009273Y032458D01*
X009580Y031990D02*
X005110Y031990D01*
X005110Y032048D02*
X008191Y032048D01*
X008153Y032107D02*
X005110Y032107D01*
X005110Y032166D02*
X008147Y032166D01*
X008147Y032224D02*
X005110Y032224D01*
X005110Y032283D02*
X008147Y032283D01*
X008680Y032224D02*
X008740Y032224D01*
X008740Y032166D02*
X008680Y032166D01*
X008680Y032107D02*
X008740Y032107D01*
X008740Y032048D02*
X008680Y032048D01*
X009273Y033278D02*
X009630Y033278D01*
X009630Y033336D02*
X009273Y033336D01*
X009604Y033219D02*
X009630Y033219D01*
X009180Y033688D02*
X018610Y033688D01*
X018610Y033746D02*
X005110Y033746D01*
X005110Y033805D02*
X018610Y033805D01*
X018610Y033863D02*
X005110Y033863D01*
X005110Y033922D02*
X018610Y033922D01*
X018610Y033980D02*
X005110Y033980D01*
X005110Y034039D02*
X018610Y034039D01*
X018610Y034097D02*
X005110Y034097D01*
X005110Y034156D02*
X018610Y034156D01*
X018610Y034215D02*
X005110Y034215D01*
X005110Y034273D02*
X018610Y034273D01*
X018610Y034332D02*
X005110Y034332D01*
X005110Y034390D02*
X018610Y034390D01*
X018610Y034449D02*
X005110Y034449D01*
X005110Y031931D02*
X009580Y031931D01*
X009580Y031873D02*
X005110Y031873D01*
X005110Y031814D02*
X009580Y031814D01*
X009580Y031756D02*
X005110Y031756D01*
X005110Y031697D02*
X009613Y031697D01*
X009672Y031639D02*
X005110Y031639D01*
X005110Y027482D02*
X007496Y027482D01*
X007445Y027424D02*
X005110Y027424D01*
X005110Y027365D02*
X007425Y027365D01*
X007425Y027306D02*
X005110Y027306D01*
X007566Y026099D02*
X007568Y026101D01*
X007668Y026101D01*
X007716Y026083D01*
X007759Y026101D01*
X007806Y026101D01*
X007843Y026138D01*
X007849Y026141D01*
X008136Y026141D01*
X008200Y026205D01*
X008209Y026200D01*
X008242Y026191D01*
X008485Y026191D01*
X008485Y026547D01*
X008545Y026547D01*
X008545Y026607D01*
X008901Y026607D01*
X008901Y026850D01*
X008892Y026883D01*
X008882Y026899D01*
X008940Y026899D01*
X008940Y026245D01*
X008763Y026068D01*
X008184Y026068D01*
X008121Y026004D01*
X008112Y026009D01*
X008079Y026018D01*
X007836Y026018D01*
X007836Y025754D01*
X007776Y025754D01*
X007776Y026018D01*
X007568Y026018D01*
X007568Y026089D01*
X007566Y026099D01*
X007568Y026077D02*
X008772Y026077D01*
X008831Y026136D02*
X007840Y026136D01*
X007836Y025960D02*
X007776Y025960D01*
X007776Y025901D02*
X007836Y025901D01*
X007836Y025843D02*
X007776Y025843D01*
X007776Y025784D02*
X007836Y025784D01*
X007568Y026018D02*
X008135Y026018D01*
X008190Y026194D02*
X008230Y026194D01*
X008485Y026194D02*
X008545Y026194D01*
X008545Y026191D02*
X008788Y026191D01*
X008821Y026200D01*
X008850Y026217D01*
X008875Y026241D01*
X008892Y026271D01*
X008901Y026304D01*
X008901Y026547D01*
X008545Y026547D01*
X008545Y026191D01*
X008545Y026253D02*
X008485Y026253D01*
X008485Y026311D02*
X008545Y026311D01*
X008545Y026370D02*
X008485Y026370D01*
X008485Y026428D02*
X008545Y026428D01*
X008545Y026487D02*
X008485Y026487D01*
X008485Y026545D02*
X008545Y026545D01*
X008545Y026604D02*
X008940Y026604D01*
X008940Y026662D02*
X008901Y026662D01*
X008901Y026721D02*
X008940Y026721D01*
X008940Y026780D02*
X008901Y026780D01*
X008901Y026838D02*
X008940Y026838D01*
X008940Y026897D02*
X008884Y026897D01*
X008901Y026545D02*
X008940Y026545D01*
X008940Y026487D02*
X008901Y026487D01*
X008901Y026428D02*
X008940Y026428D01*
X008940Y026370D02*
X008901Y026370D01*
X008901Y026311D02*
X008940Y026311D01*
X008940Y026253D02*
X008881Y026253D01*
X008889Y026194D02*
X008800Y026194D01*
X009530Y025947D02*
X009530Y025890D01*
X009537Y025809D01*
X009532Y025803D01*
X009542Y025801D01*
X009581Y025779D01*
X009590Y025769D01*
X009590Y025947D01*
X009530Y025947D01*
X009530Y025901D02*
X009590Y025901D01*
X009590Y025843D02*
X009534Y025843D01*
X009571Y025784D02*
X009590Y025784D01*
X010630Y027327D02*
X010630Y027924D01*
X010033Y027924D01*
X010033Y027984D01*
X010630Y027984D01*
X010630Y027924D01*
X010690Y027924D01*
X010690Y027327D01*
X010630Y027327D01*
X010630Y027365D02*
X010690Y027365D01*
X010690Y027424D02*
X010630Y027424D01*
X010630Y027482D02*
X010690Y027482D01*
X010690Y027541D02*
X010630Y027541D01*
X010630Y027599D02*
X010690Y027599D01*
X010690Y027658D02*
X010630Y027658D01*
X010630Y027716D02*
X010690Y027716D01*
X010690Y027775D02*
X010630Y027775D01*
X010630Y027833D02*
X010690Y027833D01*
X010690Y027892D02*
X010630Y027892D01*
X010630Y027950D02*
X010033Y027950D01*
X010630Y027984D02*
X010630Y028581D01*
X010690Y028581D01*
X010690Y027984D01*
X010630Y027984D01*
X010630Y028009D02*
X010690Y028009D01*
X010691Y027984D02*
X011287Y027984D01*
X011287Y027924D01*
X010691Y027924D01*
X010691Y027984D01*
X010691Y027950D02*
X011287Y027950D01*
X010690Y028067D02*
X010630Y028067D01*
X010630Y028126D02*
X010690Y028126D01*
X010690Y028185D02*
X010630Y028185D01*
X010630Y028243D02*
X010690Y028243D01*
X010690Y028302D02*
X010630Y028302D01*
X010630Y028360D02*
X010690Y028360D01*
X010690Y028419D02*
X010630Y028419D01*
X010630Y028477D02*
X010690Y028477D01*
X010690Y028536D02*
X010630Y028536D01*
X011558Y026174D02*
X011617Y026174D01*
X011617Y025946D01*
X011699Y025946D01*
X011737Y025957D01*
X011535Y025754D01*
X011299Y025754D01*
X011299Y025872D01*
X011289Y025896D01*
X011413Y025896D01*
X011466Y025949D01*
X011476Y025946D01*
X011558Y025946D01*
X011558Y026174D01*
X011558Y026136D02*
X011617Y026136D01*
X011617Y026077D02*
X011558Y026077D01*
X011558Y026018D02*
X011617Y026018D01*
X011617Y025960D02*
X011558Y025960D01*
X011624Y025843D02*
X011299Y025843D01*
X011299Y025784D02*
X011565Y025784D01*
X011682Y025901D02*
X011418Y025901D01*
X012758Y027884D02*
X012758Y028112D01*
X012758Y028324D01*
X012817Y028324D01*
X012817Y028112D01*
X012817Y027884D01*
X012758Y027884D01*
X012758Y027892D02*
X012817Y027892D01*
X012817Y027950D02*
X012758Y027950D01*
X012758Y028009D02*
X012817Y028009D01*
X012817Y028067D02*
X012758Y028067D01*
X012758Y028126D02*
X012817Y028126D01*
X012817Y028185D02*
X012758Y028185D01*
X012758Y028243D02*
X012817Y028243D01*
X012817Y028302D02*
X012758Y028302D01*
X012974Y028126D02*
X018610Y028126D01*
X018610Y027950D02*
X013045Y027950D01*
X013045Y027892D02*
X013119Y027892D01*
X013034Y028009D02*
X013012Y028047D01*
X012981Y028079D01*
X013265Y028302D02*
X018610Y028302D01*
X018610Y028360D02*
X013345Y028360D01*
X013400Y028419D02*
X018610Y028419D01*
X018610Y028477D02*
X013424Y028477D01*
X013449Y028536D02*
X013894Y028536D01*
X013791Y028594D02*
X013449Y028594D01*
X013449Y028653D02*
X013733Y028653D01*
X013703Y028711D02*
X013433Y028711D01*
X013408Y028770D02*
X013679Y028770D01*
X013672Y028829D02*
X013365Y028829D01*
X013307Y028887D02*
X013672Y028887D01*
X013682Y028946D02*
X012945Y028946D01*
X013458Y029999D02*
X018610Y029999D01*
X018610Y029941D02*
X014235Y029941D01*
X014358Y029882D02*
X014417Y029882D01*
X014417Y029824D02*
X014358Y029824D01*
X014358Y029765D02*
X014417Y029765D01*
X014417Y029707D02*
X014358Y029707D01*
X014358Y029624D02*
X014417Y029624D01*
X014417Y029396D01*
X014417Y029284D01*
X014358Y029284D01*
X014358Y029512D01*
X014358Y029624D01*
X014358Y029590D02*
X014417Y029590D01*
X014418Y029648D02*
X018610Y029648D01*
X018610Y029590D02*
X014645Y029590D01*
X014642Y029531D02*
X018610Y029531D01*
X018610Y029473D02*
X014618Y029473D01*
X014631Y029414D02*
X018610Y029414D01*
X018610Y029355D02*
X014645Y029355D01*
X014645Y029297D02*
X018610Y029297D01*
X018610Y029238D02*
X014418Y029238D01*
X014417Y029180D02*
X014358Y029180D01*
X014358Y029121D02*
X014417Y029121D01*
X014417Y029063D02*
X014358Y029063D01*
X014358Y029004D02*
X014417Y029004D01*
X014339Y028946D02*
X018610Y028946D01*
X018610Y029004D02*
X014528Y029004D01*
X014613Y029063D02*
X018610Y029063D01*
X018610Y029121D02*
X014640Y029121D01*
X014645Y029180D02*
X018610Y029180D01*
X018610Y028887D02*
X014349Y028887D01*
X014349Y028829D02*
X018610Y028829D01*
X018610Y028770D02*
X014342Y028770D01*
X014318Y028711D02*
X018610Y028711D01*
X018610Y028653D02*
X014288Y028653D01*
X014229Y028594D02*
X018610Y028594D01*
X018610Y028536D02*
X014127Y028536D01*
X014358Y029297D02*
X014417Y029297D01*
X014417Y029355D02*
X014358Y029355D01*
X014358Y029414D02*
X014417Y029414D01*
X014417Y029473D02*
X014358Y029473D01*
X014358Y029531D02*
X014417Y029531D01*
X014645Y029707D02*
X018610Y029707D01*
X018610Y029765D02*
X014645Y029765D01*
X014625Y029824D02*
X018610Y029824D01*
X018610Y029882D02*
X014574Y029882D01*
X013832Y029941D02*
X013789Y029941D01*
X013458Y030058D02*
X018610Y030058D01*
X018610Y030116D02*
X013458Y030116D01*
X013458Y030175D02*
X018610Y030175D01*
X018610Y030234D02*
X013458Y030234D01*
X013458Y030292D02*
X018610Y030292D01*
X018610Y030468D02*
X013458Y030468D01*
X013458Y030526D02*
X018610Y030526D01*
X018610Y030585D02*
X013458Y030585D01*
X013458Y030643D02*
X018610Y030643D01*
X018610Y030702D02*
X013458Y030702D01*
X013409Y030760D02*
X018610Y030760D01*
X018610Y030819D02*
X013350Y030819D01*
X011625Y032927D02*
X011293Y032927D01*
X010990Y032985D02*
X011676Y032985D01*
X008740Y033512D02*
X008680Y033512D01*
X008680Y033571D02*
X008740Y033571D01*
X008740Y033629D02*
X008680Y033629D01*
X008680Y033688D02*
X008740Y033688D01*
X013115Y026662D02*
X018610Y026662D01*
X018610Y026604D02*
X013115Y026604D01*
X013115Y026545D02*
X018610Y026545D01*
X018610Y026487D02*
X013115Y026487D01*
X013115Y026428D02*
X018610Y026428D01*
X018610Y026370D02*
X013115Y026370D01*
X013115Y026311D02*
X018610Y026311D01*
X018610Y026253D02*
X013115Y026253D01*
X013115Y026194D02*
X018610Y026194D01*
X018610Y026136D02*
X013115Y026136D01*
X013115Y026077D02*
X018610Y026077D01*
X018610Y026018D02*
X013115Y026018D01*
X013115Y025960D02*
X018610Y025960D01*
X018610Y025901D02*
X013115Y025901D01*
X013115Y025843D02*
X018610Y025843D01*
X018610Y025784D02*
X013115Y025784D01*
X013456Y026721D02*
X018610Y026721D01*
X018610Y026780D02*
X013515Y026780D01*
X013558Y026838D02*
X018610Y026838D01*
X018610Y026897D02*
X013582Y026897D01*
X013599Y026955D02*
X018610Y026955D01*
X018610Y027131D02*
X013575Y027131D01*
X013550Y027189D02*
X018610Y027189D01*
X018610Y027248D02*
X013496Y027248D01*
X013476Y027306D02*
X018610Y027306D01*
X018610Y027365D02*
X013550Y027365D01*
X013602Y027424D02*
X018610Y027424D01*
X018610Y027482D02*
X013626Y027482D01*
X013649Y027541D02*
X018610Y027541D01*
X018610Y027599D02*
X013649Y027599D01*
X013649Y027658D02*
X018610Y027658D01*
X018610Y027716D02*
X013631Y027716D01*
X013606Y027775D02*
X018610Y027775D01*
X018610Y027833D02*
X013560Y027833D01*
X013501Y027892D02*
X018610Y027892D01*
D35*
X018360Y028004D03*
X019235Y026629D03*
X018360Y026254D03*
X017110Y026254D03*
X017110Y027004D03*
X017110Y028254D03*
X017110Y029754D03*
X018360Y029754D03*
X018360Y031254D03*
X018360Y032754D03*
X018360Y034129D03*
X017110Y034004D03*
X017110Y032754D03*
X017110Y031254D03*
X015610Y031254D03*
X015610Y032754D03*
X015610Y034004D03*
X014560Y033954D03*
X014560Y032754D03*
X014510Y031804D03*
X014510Y030904D03*
X014410Y030254D03*
X014760Y029654D03*
X014760Y029254D03*
X014460Y028854D03*
X014010Y028854D03*
X013560Y028804D03*
X013110Y028604D03*
X013560Y028254D03*
X013710Y027904D03*
X013710Y027304D03*
X013310Y027604D03*
X013260Y027004D03*
X013860Y026254D03*
X013810Y025304D03*
X013810Y024904D03*
X014210Y024904D03*
X014210Y025304D03*
X015610Y026254D03*
X015610Y027004D03*
X015610Y028254D03*
X015610Y029754D03*
X013710Y030854D03*
X013310Y031254D03*
X013310Y031804D03*
X013560Y032254D03*
X013510Y033254D03*
X013510Y034004D03*
X012660Y033304D03*
X012160Y033454D03*
X011570Y033435D03*
X012010Y034204D03*
X010941Y033415D03*
X009810Y031604D03*
X009510Y032254D03*
X009160Y031754D03*
X009360Y031204D03*
X009860Y030704D03*
X009485Y030229D03*
X010260Y030704D03*
X010260Y031154D03*
X010660Y030954D03*
X010660Y031454D03*
X011110Y031454D03*
X011610Y031454D03*
X012110Y031454D03*
X012060Y030604D03*
X009510Y033454D03*
X009210Y033954D03*
X008710Y033954D03*
X008210Y033954D03*
X007810Y033354D03*
X007810Y032854D03*
X007810Y032354D03*
X008260Y031754D03*
X008010Y031204D03*
X007410Y031204D03*
X007810Y030154D03*
X008285Y029604D03*
X008610Y030154D03*
X008760Y031204D03*
X008710Y031754D03*
X007360Y034254D03*
X006360Y034254D03*
X005485Y034254D03*
X005485Y032754D03*
X006360Y032754D03*
X006360Y031254D03*
X005485Y031254D03*
X005485Y029754D03*
X006360Y029754D03*
X006360Y028004D03*
X005485Y028004D03*
X005610Y026379D03*
X006360Y026254D03*
X007560Y025104D03*
X007235Y023192D03*
X008548Y022879D03*
X008235Y020879D03*
X008235Y020129D03*
X008735Y019879D03*
X008360Y018379D03*
X008235Y017942D03*
X008610Y017629D03*
X008235Y015754D03*
X008235Y014629D03*
X008610Y014254D03*
X008610Y013629D03*
X007485Y013629D03*
X007485Y012879D03*
X007485Y012067D03*
X007860Y011192D03*
X006798Y011192D03*
X005985Y012254D03*
X004985Y013379D03*
X006048Y014629D03*
X006360Y014004D03*
X005735Y015192D03*
X005360Y015754D03*
X004485Y015754D03*
X006360Y018379D03*
X006735Y017942D03*
X007110Y017629D03*
X007610Y020254D03*
X009860Y022004D03*
X010485Y019379D03*
X010860Y019379D03*
X010860Y019004D03*
X010485Y019004D03*
X010485Y018629D03*
X010485Y018254D03*
X010860Y018254D03*
X010860Y018629D03*
X011235Y018629D03*
X011235Y018254D03*
X011610Y018254D03*
X011610Y018629D03*
X011610Y019004D03*
X011235Y019004D03*
X011235Y019379D03*
X011610Y019379D03*
X011985Y020629D03*
X012360Y020879D03*
X013110Y019754D03*
X012860Y018629D03*
X012860Y017879D03*
X012485Y017629D03*
X011485Y017004D03*
X010485Y017004D03*
X010360Y016379D03*
X010610Y015754D03*
X011110Y015379D03*
X012610Y015879D03*
X013048Y015692D03*
X013485Y015817D03*
X014610Y015004D03*
X015235Y014629D03*
X015735Y015192D03*
X015735Y016129D03*
X015610Y016754D03*
X015360Y017129D03*
X015860Y017129D03*
X016173Y017567D03*
X015735Y017629D03*
X016610Y017254D03*
X017110Y017254D03*
X017110Y017629D03*
X017610Y017629D03*
X017735Y017254D03*
X018110Y017754D03*
X018610Y017754D03*
X019110Y017754D03*
X019610Y018254D03*
X019860Y018879D03*
X019860Y019629D03*
X019610Y020129D03*
X019360Y020629D03*
X019110Y020129D03*
X018860Y020629D03*
X018610Y020129D03*
X018360Y020629D03*
X018110Y020129D03*
X017798Y020629D03*
X017610Y020129D03*
X017110Y020129D03*
X017110Y020754D03*
X016610Y020442D03*
X016235Y021004D03*
X015735Y020754D03*
X015860Y020254D03*
X015235Y020754D03*
X014360Y020129D03*
X013735Y021254D03*
X014060Y022654D03*
X014060Y023029D03*
X014435Y023029D03*
X014435Y022654D03*
X015548Y022004D03*
X015985Y021567D03*
X017985Y022754D03*
X019860Y024504D03*
X019860Y028504D03*
X012985Y023129D03*
X012298Y022317D03*
X012310Y025079D03*
X011548Y025892D03*
X010960Y025804D03*
X011210Y025129D03*
X010610Y025504D03*
X010310Y025154D03*
X009710Y025604D03*
X009960Y025954D03*
X009660Y026654D03*
X008210Y028954D03*
X008085Y028379D03*
X007960Y027829D03*
X007510Y027629D03*
X007410Y028154D03*
X007585Y028654D03*
X014860Y017254D03*
X014985Y016629D03*
X016610Y014379D03*
X017235Y015379D03*
X018610Y014379D03*
X019110Y013754D03*
X018860Y012504D03*
X018110Y012254D03*
X017985Y013254D03*
X019485Y015379D03*
X019485Y016629D03*
X020110Y012254D03*
X020110Y009754D03*
X019735Y009129D03*
X018610Y010129D03*
X017110Y010004D03*
X015985Y010754D03*
X015985Y011754D03*
X014985Y012879D03*
X014610Y011004D03*
X013985Y009129D03*
X013360Y008004D03*
X012610Y008379D03*
X012610Y006629D03*
X011110Y006504D03*
X010735Y006879D03*
X009985Y006879D03*
X011110Y008504D03*
X009985Y011567D03*
X010360Y012504D03*
D36*
X010260Y027554D03*
X010260Y027954D03*
X010260Y028354D03*
X010660Y028354D03*
X011060Y028354D03*
X011060Y027954D03*
X010660Y027954D03*
X010660Y027554D03*
X011060Y027554D03*
D37*
X011153Y026979D02*
X011153Y026762D01*
X011410Y026504D01*
X011810Y026504D01*
X012035Y026279D01*
X012035Y025929D01*
X011623Y025517D01*
X011073Y025517D01*
X010610Y025054D01*
X010610Y024692D01*
X010110Y024192D01*
X010110Y023449D01*
X010110Y023317D01*
X009610Y022817D01*
X009548Y022817D01*
X008735Y022004D01*
X006985Y022004D01*
X006360Y021379D01*
X006360Y018379D01*
X006360Y014004D01*
X006048Y014629D02*
X006048Y018129D01*
X005985Y018192D01*
X005985Y018629D01*
X006173Y018817D01*
X006173Y021504D01*
X006860Y022192D01*
X008360Y022192D01*
X008548Y022379D01*
X008548Y022879D01*
X008048Y022754D02*
X007735Y022442D01*
X006673Y022442D01*
X005860Y021629D01*
X005860Y018879D01*
X005735Y018754D01*
X005735Y015192D01*
X005360Y015754D02*
X005360Y021504D01*
X006548Y022629D01*
X007610Y022629D01*
X007798Y022817D01*
X007798Y023817D01*
X008235Y024317D01*
X009423Y024317D01*
X010260Y025154D01*
X010310Y025154D01*
X010610Y025504D02*
X010660Y025604D01*
X010660Y026077D01*
X010710Y026127D01*
X010960Y026354D02*
X010783Y026531D01*
X010710Y026481D01*
X010759Y026580D01*
X010759Y026979D01*
X010956Y026979D02*
X010956Y026659D01*
X011260Y026354D01*
X011260Y026177D01*
X011233Y026204D01*
X010960Y026354D02*
X010960Y025804D01*
X011410Y025329D02*
X011210Y025129D01*
X011410Y025329D02*
X011685Y025329D01*
X012235Y025879D01*
X012235Y026429D01*
X011910Y026754D01*
X011574Y026754D01*
X011349Y026979D01*
X011636Y027265D02*
X011724Y027265D01*
X012048Y026942D01*
X012048Y026942D01*
X012423Y026567D01*
X012423Y025692D01*
X011735Y025004D01*
X011548Y025004D01*
X011048Y024504D01*
X011048Y023511D01*
X011110Y023449D01*
X011110Y022879D01*
X010860Y022629D01*
X009673Y022629D01*
X008798Y021754D01*
X007235Y021754D01*
X006735Y021254D01*
X006735Y017942D01*
X006735Y011754D01*
X008933Y009556D01*
X008860Y009431D01*
X008860Y009077D02*
X008860Y008754D01*
X008485Y008754D01*
X006235Y006504D01*
X003610Y006504D01*
X003110Y007004D01*
X003110Y008254D01*
X002610Y008754D01*
X002110Y008754D01*
X002110Y006754D02*
X002735Y006754D01*
X003235Y006254D01*
X006485Y006254D01*
X008235Y008004D01*
X013360Y008004D01*
X017735Y008004D01*
X019985Y010254D01*
X019985Y011129D01*
X019485Y011629D01*
X019018Y011629D01*
X018887Y011635D01*
X018887Y011379D02*
X018485Y011379D01*
X018360Y011504D01*
X018360Y012004D01*
X018503Y012147D01*
X018887Y012147D01*
X018887Y012478D01*
X018860Y012504D01*
X018985Y012879D02*
X018610Y012879D01*
X018360Y012629D01*
X017485Y012629D01*
X017235Y012379D01*
X017235Y012004D01*
X017099Y011891D01*
X016584Y011891D01*
X016584Y011635D02*
X016104Y011635D01*
X015985Y011754D01*
X015860Y011379D02*
X016584Y011379D01*
X016578Y011129D02*
X015610Y011129D01*
X014923Y011817D01*
X011423Y011817D01*
X010798Y011192D01*
X007860Y011192D01*
X007485Y012067D02*
X009985Y012067D01*
X009985Y011567D01*
X009985Y012067D02*
X015173Y012067D01*
X015860Y011379D01*
X016134Y010879D02*
X015997Y010743D01*
X015985Y010754D01*
X016134Y010879D02*
X016360Y010879D01*
X016584Y010868D01*
X016584Y011123D02*
X016578Y011129D01*
X016584Y010612D02*
X017110Y010085D01*
X017110Y010004D01*
X017604Y010004D01*
X018116Y010004D02*
X018360Y010004D01*
X018485Y010129D01*
X018610Y010129D01*
X018860Y010379D01*
X018860Y010585D01*
X018887Y010612D01*
X018887Y010868D02*
X019247Y010868D01*
X019360Y010754D01*
X019360Y010379D01*
X018485Y009504D01*
X015485Y009504D01*
X015235Y009879D01*
X015235Y011129D01*
X014798Y011567D01*
X011860Y011567D01*
X011610Y011317D01*
X011610Y010254D01*
X012110Y009754D01*
X012110Y009704D01*
X012610Y009254D02*
X012360Y009004D01*
X010985Y009004D01*
X010735Y008754D01*
X008860Y008754D01*
X009485Y009129D02*
X009485Y009879D01*
X009798Y010192D01*
X011548Y010192D01*
X011610Y010254D01*
X012110Y010704D02*
X012110Y011004D01*
X012423Y011317D01*
X013673Y011317D01*
X013985Y011004D01*
X013985Y009129D01*
X014298Y008754D02*
X011360Y008754D01*
X011110Y008504D01*
X010735Y006879D02*
X012110Y006879D01*
X012235Y007004D01*
X012860Y007004D01*
X013110Y006754D01*
X013110Y002779D01*
X013110Y002317D01*
X013548Y001879D01*
X014485Y001879D01*
X014860Y002254D01*
X014860Y005379D01*
X015485Y006004D01*
X017485Y006004D01*
X020485Y009004D01*
X020485Y010129D01*
X020235Y010379D01*
X020235Y011379D01*
X019735Y011879D01*
X019024Y011879D01*
X018887Y011891D01*
X018887Y011123D02*
X019006Y011129D01*
X019485Y011129D01*
X019735Y010879D01*
X019735Y010379D01*
X017735Y008379D01*
X012610Y008379D01*
X012610Y009254D02*
X012610Y010254D01*
X013060Y010704D01*
X013110Y010704D01*
X014610Y009067D02*
X014298Y008754D01*
X014610Y009067D02*
X014610Y009192D01*
X014610Y011004D01*
X014985Y012879D02*
X007485Y012879D01*
X007360Y012504D02*
X010360Y012504D01*
X008610Y013629D02*
X015235Y013629D01*
X015923Y012879D01*
X018235Y012879D01*
X018485Y013129D01*
X019235Y013129D01*
X019485Y012879D01*
X019683Y012754D01*
X020038Y012754D02*
X021110Y012754D01*
X021110Y013754D02*
X020038Y013754D01*
X019683Y013754D02*
X019110Y013754D01*
X018985Y013629D01*
X016110Y013629D01*
X015235Y014629D01*
X015110Y014254D02*
X015985Y013254D01*
X017985Y013254D01*
X018110Y012254D02*
X018110Y011254D01*
X018235Y011129D01*
X019006Y011129D01*
X019024Y010879D02*
X018887Y010868D01*
X019860Y009754D02*
X020110Y009754D01*
X019860Y009754D02*
X017860Y007754D01*
X013985Y007754D01*
X013485Y007254D01*
X009485Y007254D01*
X009110Y006879D01*
X009110Y002779D01*
X010110Y002779D02*
X010110Y003379D01*
X009985Y003504D01*
X009985Y006879D01*
X009485Y007629D02*
X008985Y007629D01*
X007360Y006004D01*
X003235Y006004D01*
X002985Y005754D01*
X002110Y005754D01*
X005860Y011879D02*
X004485Y013254D01*
X004485Y015754D01*
X005360Y015754D02*
X005360Y014442D01*
X005985Y013817D01*
X005985Y012254D01*
X005860Y011879D02*
X006360Y011879D01*
X006485Y011754D01*
X006485Y011504D01*
X006798Y011192D01*
X007360Y012504D02*
X007110Y012692D01*
X007110Y017629D01*
X007110Y021317D01*
X007298Y021504D01*
X008860Y021504D01*
X009798Y022442D01*
X011423Y022442D01*
X012110Y023129D01*
X012110Y023449D01*
X012310Y023649D01*
X012310Y025079D01*
X012610Y024754D02*
X012610Y022629D01*
X012298Y022317D01*
X011923Y021942D02*
X011923Y021931D01*
X011923Y021942D02*
X011735Y022129D01*
X011485Y022129D01*
X011333Y021984D01*
X011229Y022129D02*
X011485Y022129D01*
X011229Y022129D02*
X010860Y021886D01*
X010860Y021004D01*
X011331Y020534D01*
X011331Y020056D01*
X011134Y020056D02*
X011134Y020481D01*
X010610Y021004D01*
X010610Y021303D01*
X010388Y021275D01*
X009850Y021275D01*
X009673Y021202D01*
X009673Y021556D02*
X009683Y021817D01*
X009860Y022004D01*
X010492Y022129D01*
X010388Y021984D01*
X010610Y020754D02*
X010937Y020428D01*
X010937Y020056D01*
X010740Y020056D02*
X010740Y020375D01*
X010610Y020504D01*
X009360Y020504D01*
X009235Y020379D01*
X009038Y020379D01*
X009163Y020754D02*
X010610Y020754D01*
X010543Y020056D02*
X010543Y019437D01*
X010485Y019379D01*
X010860Y019004D02*
X010985Y018879D01*
X011035Y018879D01*
X011610Y019004D02*
X011781Y019175D01*
X012213Y019175D01*
X012213Y018978D02*
X012584Y018978D01*
X012610Y019004D01*
X013486Y019004D01*
X013235Y018254D02*
X013360Y018129D01*
X013486Y018129D01*
X013235Y018254D02*
X012735Y018254D01*
X012406Y018584D01*
X012213Y018584D01*
X012239Y018754D02*
X012610Y018754D01*
X012735Y018629D01*
X012860Y018629D01*
X012860Y017879D02*
X012985Y017754D01*
X012985Y017254D01*
X013110Y017129D01*
X013110Y016760D01*
X013189Y016839D01*
X013860Y016839D01*
X013945Y016754D01*
X014360Y016754D01*
X014485Y016629D01*
X014485Y015629D01*
X014110Y015254D01*
X013820Y015254D01*
X013151Y015254D02*
X013110Y015214D01*
X013048Y015276D01*
X013048Y015692D01*
X012610Y016760D02*
X012110Y016760D01*
X012104Y016754D01*
X011860Y016754D01*
X011651Y016545D01*
X011651Y015379D01*
X011110Y015379D01*
X010985Y016839D02*
X010985Y017004D01*
X010485Y017004D02*
X010235Y017254D01*
X009860Y017254D01*
X009610Y017004D01*
X009610Y016931D01*
X009658Y016854D01*
X009683Y016879D01*
X008860Y016879D01*
X008235Y016254D01*
X008235Y015754D01*
X008235Y014629D02*
X014673Y014629D01*
X015673Y015629D01*
X016584Y015629D01*
X016584Y015373D02*
X015917Y015373D01*
X015735Y015192D01*
X015985Y015817D02*
X015235Y015817D01*
X014610Y015254D01*
X014610Y015004D01*
X015110Y014254D02*
X008610Y014254D01*
X007860Y013629D02*
X008235Y013254D01*
X015235Y013254D01*
X016218Y012147D01*
X016584Y012147D01*
X017235Y014254D02*
X017110Y014379D01*
X016610Y014379D01*
X016584Y014406D01*
X016584Y014862D01*
X016584Y015118D02*
X016596Y015129D01*
X016985Y015129D01*
X017235Y015379D01*
X017235Y015629D01*
X016979Y015885D01*
X016584Y015885D01*
X016584Y016141D02*
X017497Y016141D01*
X018485Y017129D01*
X019360Y017129D01*
X021110Y018879D01*
X021110Y019354D01*
X021010Y020254D02*
X020485Y020254D01*
X020235Y020004D01*
X020235Y018379D01*
X019235Y017379D01*
X018360Y017379D01*
X017735Y016754D01*
X016235Y016754D01*
X015735Y016254D01*
X015735Y016129D01*
X016110Y016254D02*
X016110Y015942D01*
X015985Y015817D01*
X016110Y016254D02*
X016235Y016379D01*
X016566Y016379D01*
X016584Y016397D01*
X016610Y017254D02*
X016610Y017623D01*
X016616Y018129D02*
X017058Y018129D01*
X017413Y018129D02*
X017735Y018379D01*
X018652Y018379D01*
X018735Y018338D01*
X019319Y018463D01*
X019485Y018629D01*
X019485Y019379D01*
X019360Y019504D01*
X018777Y019504D01*
X018735Y019421D01*
X018135Y018879D02*
X017913Y018879D01*
X017735Y019004D01*
X017413Y019379D01*
X017058Y019379D02*
X016616Y019379D01*
X016610Y019373D01*
X015997Y019373D01*
X015991Y019379D01*
X016610Y019885D02*
X016610Y020442D01*
X016173Y021379D02*
X015985Y021567D01*
X015985Y021567D01*
X016173Y021379D02*
X018933Y021379D01*
X019288Y021379D02*
X019313Y021354D01*
X021110Y021354D01*
X021110Y020354D02*
X021010Y020254D01*
X019735Y022004D02*
X015548Y022004D01*
X014735Y020931D02*
X013965Y020931D01*
X013913Y020879D01*
X013735Y021254D02*
X013610Y021379D01*
X013485Y021379D01*
X013195Y021754D01*
X013235Y021795D01*
X013256Y021181D02*
X013110Y021181D01*
X013058Y021129D01*
X012860Y021129D01*
X012735Y021004D01*
X012735Y020504D01*
X012485Y020254D01*
X012485Y019879D01*
X012371Y019765D01*
X012213Y019765D01*
X012213Y019568D02*
X012549Y019568D01*
X012735Y019754D01*
X012735Y020129D01*
X012985Y020379D01*
X013229Y020379D01*
X013110Y020498D01*
X013110Y020827D01*
X013256Y021181D02*
X013558Y020879D01*
X013741Y020379D02*
X014235Y020379D01*
X014360Y020254D01*
X014360Y020129D01*
X014360Y020123D01*
X013991Y019754D01*
X014360Y020129D02*
X014491Y020129D01*
X014860Y019885D01*
X014860Y019373D02*
X015349Y019373D01*
X015479Y019379D01*
X015479Y020135D01*
X015110Y020504D01*
X014808Y020504D01*
X014735Y020577D01*
X014860Y019373D02*
X014479Y019373D01*
X014234Y019004D01*
X014234Y018129D02*
X014854Y018129D01*
X014860Y018135D01*
X014866Y018129D01*
X015479Y018129D01*
X014860Y017623D02*
X014854Y017379D01*
X014860Y017254D01*
X015991Y018129D02*
X015997Y018135D01*
X016610Y018135D01*
X016616Y018129D01*
X018360Y016129D02*
X018610Y016379D01*
X018869Y016379D01*
X018887Y016397D01*
X018887Y016141D02*
X018899Y016129D01*
X019110Y016129D01*
X019485Y016504D01*
X019485Y016629D01*
X019860Y016504D02*
X019860Y017129D01*
X020485Y017754D01*
X021110Y017754D01*
X019860Y016504D02*
X019235Y015879D01*
X018893Y015879D01*
X018887Y015885D01*
X018887Y015629D02*
X018360Y015629D01*
X018360Y016129D01*
X018360Y015629D02*
X018360Y014879D01*
X018869Y014879D01*
X018887Y014862D01*
X018887Y015118D02*
X018899Y015129D01*
X019235Y015129D01*
X019360Y015004D01*
X019860Y015004D01*
X020610Y015754D01*
X021110Y015754D01*
X019485Y015379D02*
X018893Y015379D01*
X018887Y015373D01*
X018360Y014879D02*
X018360Y014754D01*
X018116Y014510D01*
X018116Y014254D01*
X018241Y014379D01*
X018610Y014379D01*
X017604Y014254D02*
X017235Y014254D01*
X018985Y012879D02*
X019485Y012379D01*
X019985Y012379D01*
X020110Y012254D01*
X019735Y009129D02*
X018110Y007504D01*
X017110Y007504D01*
X016700Y006969D01*
X016698Y006969D01*
X016698Y006615D02*
X015340Y006615D01*
X015331Y006480D01*
X014465Y006854D02*
X014323Y006837D01*
X012610Y006629D02*
X012110Y006129D01*
X012110Y002779D01*
X011110Y002779D02*
X011110Y006504D01*
X007860Y013629D02*
X007860Y018504D01*
X008110Y018754D01*
X008485Y018754D01*
X008656Y018584D01*
X009858Y018584D01*
X009858Y018387D02*
X009850Y018379D01*
X008360Y018379D01*
X008610Y018067D02*
X008485Y017942D01*
X008235Y017942D01*
X008610Y018067D02*
X008734Y018190D01*
X009858Y018190D01*
X009858Y017994D02*
X008975Y017994D01*
X008610Y017629D01*
X009199Y018978D02*
X009173Y019004D01*
X007610Y019004D01*
X007610Y019452D01*
X007610Y019806D02*
X007610Y020254D01*
X008235Y020129D02*
X008235Y019735D01*
X008179Y019429D01*
X008691Y019429D02*
X008735Y019473D01*
X008691Y019429D02*
X008749Y019371D01*
X009199Y018978D02*
X009858Y018978D01*
X009163Y020754D02*
X009038Y020879D01*
X008683Y020879D02*
X008235Y020879D01*
X008048Y022754D02*
X008048Y023129D01*
X008360Y023442D01*
X009104Y023442D01*
X009110Y023449D01*
X009235Y024504D02*
X009735Y025004D01*
X009235Y024504D02*
X008110Y024504D01*
X007610Y023942D01*
X007610Y022942D01*
X007485Y022817D01*
X006423Y022817D01*
X004985Y021442D01*
X004985Y013379D01*
X007485Y013629D02*
X007485Y018879D01*
X007610Y019004D01*
X005485Y022317D02*
X005923Y022754D01*
X005923Y022754D01*
X006360Y023192D01*
X006548Y023192D01*
X007235Y023192D01*
X008388Y024954D02*
X008515Y025081D01*
X008515Y025632D01*
X008560Y025736D01*
X007910Y026531D02*
X007960Y026804D01*
X007960Y026854D01*
X008060Y026954D01*
X008210Y026954D01*
X008360Y027104D01*
X008410Y027129D01*
X008860Y027129D01*
X009365Y027659D01*
X009685Y027659D01*
X009685Y027462D02*
X009468Y027462D01*
X009571Y027265D02*
X009685Y027265D01*
X009685Y027856D02*
X009312Y027856D01*
X008785Y027329D01*
X008163Y027329D01*
X008038Y027254D01*
X008258Y027554D02*
X007785Y027554D01*
X007710Y027629D01*
X007510Y027629D01*
X007410Y028154D02*
X007785Y028154D01*
X007835Y028104D01*
X008333Y028104D01*
X008433Y028154D01*
X008610Y027854D02*
X008135Y027854D01*
X008110Y027829D01*
X007960Y027829D01*
X008258Y027554D02*
X008308Y027604D01*
X008663Y027604D02*
X008685Y027656D01*
X008685Y027804D01*
X008610Y027854D01*
X008663Y027604D02*
X009136Y028053D01*
X009685Y028053D01*
X009685Y028250D02*
X008933Y028250D01*
X008813Y028171D01*
X008785Y028199D01*
X008785Y028304D01*
X008685Y028404D01*
X008185Y028404D01*
X008160Y028379D01*
X008085Y028379D01*
X008210Y028954D02*
X008760Y028954D01*
X008960Y029154D01*
X008960Y029227D01*
X008988Y029254D01*
X009599Y028643D01*
X009685Y028643D01*
X009685Y028446D02*
X009095Y028446D01*
X008888Y028654D01*
X008813Y028171D02*
X008788Y028154D01*
X008533Y028654D02*
X007585Y028654D01*
X008383Y029504D02*
X008285Y029604D01*
X008383Y029504D02*
X008633Y029254D01*
X009510Y029427D02*
X009533Y029454D01*
X009610Y029454D01*
X009971Y029093D01*
X009971Y028930D01*
X010168Y028930D02*
X010168Y029196D01*
X009610Y029754D01*
X009588Y029754D01*
X009510Y029781D01*
X009735Y029979D02*
X009485Y030229D01*
X009735Y029979D02*
X009808Y029979D01*
X009860Y029927D01*
X010365Y029422D01*
X010365Y028930D01*
X010562Y028930D02*
X010562Y029626D01*
X010260Y029927D01*
X010759Y029596D02*
X010759Y028930D01*
X010956Y028930D02*
X010956Y029250D01*
X011410Y029704D01*
X011360Y029711D01*
X011353Y029804D01*
X010967Y029804D02*
X010759Y029596D01*
X011153Y029146D02*
X011153Y028930D01*
X011153Y029146D02*
X012410Y030404D01*
X012410Y030881D01*
X012333Y030954D01*
X011606Y030954D01*
X011603Y030952D01*
X012333Y028854D02*
X012333Y028781D01*
X012510Y028604D01*
X013110Y028604D01*
X013110Y028304D02*
X012810Y028304D01*
X013110Y028304D02*
X013260Y028154D01*
X013560Y028254D01*
X013560Y028804D02*
X013410Y028954D01*
X012788Y028954D01*
X012688Y028854D01*
X012333Y028854D02*
X011925Y028446D01*
X011636Y028446D01*
X011636Y028250D02*
X012329Y028250D01*
X012433Y028354D01*
X012235Y028053D02*
X011636Y028053D01*
X011636Y027856D02*
X012021Y027856D01*
X012523Y027354D01*
X012633Y027354D01*
X012660Y027327D01*
X012660Y027204D01*
X012860Y027004D01*
X013260Y027004D01*
X013038Y027304D02*
X013710Y027304D01*
X013310Y027604D02*
X012560Y027604D01*
X012460Y027704D01*
X012460Y027827D01*
X012433Y027854D01*
X012235Y028053D01*
X011918Y027659D02*
X011636Y027659D01*
X011636Y027462D02*
X011656Y027442D01*
X011860Y027442D01*
X012673Y026629D01*
X012673Y025442D01*
X012673Y024817D01*
X012610Y024754D01*
X012885Y024467D02*
X012985Y024317D01*
X012985Y023129D01*
X013885Y023029D02*
X014060Y023029D01*
X012885Y024467D02*
X012885Y026679D01*
X011918Y027659D01*
X011749Y027265D02*
X011724Y027265D01*
X012988Y027354D02*
X013038Y027304D01*
X014010Y028854D02*
X014010Y029231D01*
X014033Y029254D01*
X009971Y026979D02*
X009971Y026793D01*
X009933Y026754D01*
X009810Y026754D01*
X009710Y026654D01*
X009660Y026654D01*
X009560Y026531D01*
X009560Y026331D01*
X007910Y026531D02*
X007806Y026577D01*
X007711Y026331D01*
X007310Y026331D01*
X005485Y022317D02*
X004423Y022317D01*
X003985Y022754D01*
X002110Y022754D01*
X011333Y021275D02*
X011354Y021379D01*
X011735Y021379D01*
X011923Y021567D01*
X011923Y021577D01*
X011673Y021379D02*
X011333Y021275D01*
X011673Y021185D02*
X011673Y021379D01*
X011673Y021185D02*
X011985Y020872D01*
X011985Y020629D01*
X011921Y020565D01*
X011921Y020056D01*
X012360Y020879D02*
X012401Y020920D01*
X012213Y018781D02*
X012239Y018754D01*
X012213Y018387D02*
X011743Y018387D01*
X011610Y018254D01*
X011528Y017702D02*
X011528Y017087D01*
X011485Y017004D01*
X012452Y017754D02*
X012213Y017994D01*
X012452Y017754D02*
X012485Y017629D01*
X012485Y016885D02*
X012610Y016760D01*
X018360Y022379D02*
X017985Y022754D01*
X017985Y023998D01*
X017985Y024510D02*
X017985Y024629D01*
X018110Y024504D01*
X019860Y024504D01*
X019494Y025281D02*
X019494Y025745D01*
X019360Y025879D01*
X019360Y026077D01*
X019433Y026129D01*
X019433Y026327D01*
X019735Y026629D01*
X019735Y026827D01*
X019788Y027004D01*
X019433Y027004D02*
X019235Y026629D01*
X018860Y026004D02*
X018860Y027504D01*
X019433Y027504D01*
X019788Y027504D02*
X019985Y027504D01*
X020235Y027754D01*
X020235Y027879D01*
X020710Y028354D01*
X021110Y028354D01*
X021110Y027354D02*
X020710Y027354D01*
X020235Y026879D01*
X020235Y026379D01*
X019985Y026129D01*
X019788Y026129D01*
X019235Y025629D02*
X019235Y025284D01*
X019238Y025281D01*
X019235Y025629D02*
X018860Y026004D01*
X018727Y025281D02*
X018700Y025254D01*
X018235Y025254D01*
X017985Y025004D01*
X017985Y024629D01*
X018727Y022978D02*
X018735Y022969D01*
X018735Y022379D01*
X018985Y022379D01*
X018985Y022975D01*
X018982Y022978D01*
X019235Y022975D02*
X019235Y022379D01*
X019360Y022379D01*
X019485Y022504D01*
X019485Y022969D01*
X019494Y022978D01*
X019238Y022978D02*
X019235Y022975D01*
X019235Y022379D02*
X018985Y022379D01*
X018735Y022379D02*
X018360Y022379D01*
X019735Y022004D02*
X020110Y022379D01*
X020960Y022379D01*
X021110Y022354D01*
X018860Y027504D02*
X018860Y027629D01*
X019235Y028004D01*
X019433Y028004D01*
X019788Y028004D02*
X019860Y027952D01*
X019860Y028504D01*
D38*
X014710Y022654D02*
X014860Y022504D01*
X014860Y021964D01*
X014945Y021879D01*
X014710Y022654D02*
X014435Y022654D01*
X014276Y021879D02*
X013860Y021879D01*
X013735Y022004D01*
X013735Y022254D01*
X013485Y022504D01*
X013276Y022504D01*
X013235Y022464D01*
X013070Y022464D01*
X012485Y021879D01*
X012485Y021004D01*
X012401Y020920D01*
X013110Y019754D02*
X012728Y019371D01*
X013110Y019754D02*
X013479Y019754D01*
X011331Y017350D02*
X010985Y017004D01*
X010360Y016379D01*
X010110Y016629D01*
X010110Y016756D01*
X010013Y016854D01*
X010985Y016170D02*
X011026Y016129D01*
X010651Y015754D01*
X010610Y015754D01*
X012110Y016248D02*
X012610Y016248D01*
X012610Y015879D01*
X012610Y015670D01*
X012320Y015379D01*
X012610Y016248D02*
X013110Y016248D01*
X013189Y016170D01*
X013473Y016170D01*
X013485Y016157D01*
X013485Y015817D01*
X013473Y016170D02*
X013860Y016170D01*
X008735Y019473D02*
X008735Y019879D01*
X008735Y020202D01*
X008683Y020379D01*
X008033Y024954D02*
X007860Y025054D01*
X007710Y025204D01*
X007779Y025204D01*
X007806Y025632D01*
X008010Y025486D01*
X008010Y025904D01*
X007710Y025204D02*
X007560Y025104D01*
X009388Y025554D02*
X009488Y025654D01*
X009710Y025604D01*
X009660Y025604D01*
X009510Y025754D01*
X009510Y025854D01*
X009560Y025904D01*
X009560Y025977D01*
D39*
X004485Y021004D03*
X003860Y021504D03*
X003360Y022004D03*
X003360Y019129D03*
X003360Y018379D03*
X006610Y010254D03*
X005110Y007004D03*
X004485Y007004D03*
X015985Y007254D03*
D40*
X006985Y008379D02*
X006985Y008630D01*
X006985Y008379D02*
X006360Y007754D01*
X005110Y007754D01*
X005110Y007004D01*
X004485Y007004D01*
X005110Y007629D01*
X005235Y007629D01*
X005110Y007754D02*
X004870Y007754D01*
X004485Y007369D01*
X004485Y007004D01*
X004870Y007754D02*
X004860Y007764D01*
X005766Y010244D02*
X005776Y010254D01*
X006610Y010254D01*
X006985Y009879D01*
X006985Y009378D01*
X005766Y010244D02*
X005766Y011223D01*
X005734Y011254D01*
X014060Y023029D02*
X014210Y023179D01*
X014210Y024904D01*
X014235Y024879D02*
X013835Y024879D01*
X013810Y024904D01*
X013860Y025254D02*
X014235Y025254D01*
X013860Y025254D02*
X013810Y025304D01*
X014435Y023029D02*
X014360Y022954D01*
X014360Y022754D01*
X014110Y022754D01*
D41*
X012728Y019371D02*
X012213Y019371D01*
X011921Y017702D02*
X011921Y017444D01*
X012110Y017254D01*
X012360Y017254D01*
X012485Y017129D01*
X012485Y016885D01*
X012110Y016760D02*
X011860Y017010D01*
X011860Y017129D01*
X011724Y017265D01*
X011724Y017702D01*
X011331Y017702D02*
X011331Y017350D01*
X009858Y019371D02*
X008749Y019371D01*
X013233Y029254D02*
X013233Y029654D01*
X013588Y029654D02*
X013588Y029254D01*
X014033Y029254D01*
X014033Y029654D01*
X011710Y030161D02*
X011376Y030161D01*
X011360Y030177D01*
X011360Y029811D01*
X011353Y029804D01*
X011010Y029847D02*
X011010Y030161D01*
X010995Y030177D01*
X010660Y030177D01*
X011010Y029847D02*
X010967Y029804D01*
D42*
X015357Y007254D02*
X015985Y007254D01*
X015357Y007254D02*
X015331Y007228D01*
D43*
X011917Y028954D02*
X011560Y028954D01*
X011917Y028954D02*
X012217Y029254D01*
X012217Y029639D01*
X012333Y029754D01*
X012688Y029754D02*
X012710Y029777D01*
X012710Y030161D01*
X012726Y030177D01*
X013150Y030177D01*
X013150Y030531D02*
X013134Y030547D01*
X012710Y030547D01*
X012688Y030570D01*
X012688Y030954D01*
X012710Y030977D01*
X012710Y031461D01*
X012710Y031847D02*
X012733Y031870D01*
X012733Y032254D01*
X012303Y032254D01*
X012288Y032270D01*
X012288Y032754D01*
X011933Y032754D02*
X011933Y032270D01*
X011917Y032254D01*
X011088Y032254D01*
X011060Y032254D01*
X010733Y032254D02*
X010133Y032854D01*
X009311Y032854D01*
X011164Y030701D02*
X011010Y030547D01*
X011164Y030701D02*
X011191Y030701D01*
X011360Y030531D01*
X011164Y030701D02*
X011217Y030754D01*
X011217Y030952D01*
X012603Y029254D02*
X013233Y029254D01*
D44*
X011560Y028954D02*
X011536Y028930D01*
X011349Y028930D01*
D45*
X010562Y026979D02*
X010560Y026978D01*
X010560Y026754D01*
X010460Y026654D01*
X010460Y025754D01*
X009860Y025154D01*
X009735Y025004D01*
X009033Y025554D02*
X009310Y025881D01*
X009310Y027004D01*
X009571Y027265D01*
X009468Y027462D02*
X009160Y027104D01*
X009160Y026154D01*
X008860Y025854D01*
X008560Y025736D01*
X009960Y025954D02*
X009960Y026554D01*
X010168Y026762D01*
X010168Y026979D01*
D46*
X013860Y006879D02*
X013698Y006744D01*
X013860Y006879D02*
X014281Y006879D01*
X014323Y006837D01*
X013860Y006227D02*
X013860Y005754D01*
X014110Y005477D01*
X014110Y002779D01*
X013860Y006227D02*
X013698Y006390D01*
D47*
X009485Y007629D03*
X009485Y009129D03*
D48*
X004986Y011254D02*
X003860Y011254D01*
X003860Y011004D01*
X003955Y010910D01*
X003955Y010244D01*
X003985Y010275D01*
X003860Y011254D02*
X003860Y017629D01*
X004235Y018004D01*
X004235Y020004D01*
X003485Y020754D01*
X002110Y020754D01*
M02*
